<!-- SVG Sprite -->
<svg id="Caption-Gradient" xmlns="http://www.w3.org/2000/svg" viewBox="0 0 400 24.03">
    <g id="Gradient">
      <path id="Stipple" fill="currentColor" d="M0,12.02V.01h76.96s76.96.01,76.96.01v.8c0,.44.13.8.29.8.47,0,.65-.85.27-1.24-.27-.27-.02-.36.96-.36.74,0,1.4.18,1.5.4.15.32.22.32.37,0,.12-.26.9-.4,2.19-.4h2l.03.96c.03.91-.04.96-1.31.99-.74.01-1.13.11-.87.21.91.36,1.63,1.27,1.43,1.8-.15.4-.07.48.33.33.4-.15.48-.44.33-1.12-.15-.7-.07-.97.36-1.14.33-.13.62-.06.69.16.2.59.58.45.95-.36.22-.47.23-.93.04-1.28-.27-.48-.09-.54,1.61-.54,1.12,0,1.96.15,2.03.36.18.55,1.85.64,1.85.1,0-.35.52-.45,2.24-.45s2.24.1,2.24.48c0,.26-.13.48-.28.48s-.26.25-.24.56c.02.31-.17.56-.44.56-.33,0-.45-.27-.39-.84l.09-.84-1.12.52c-1.12.53-1.57,1.64-.66,1.64.26,0,.48.13.48.29s.24.38.53.49c.59.23,2.03-.93,2.03-1.63,0-.23.14-.42.32-.42s.32-.21.32-.46c0-.58.53-.93.98-.65.22.14.15.42-.21.82-.3.33-.49.62-.42.63.94.19,1.8.15,2.12-.09.21-.17.53-.22.71-.11.18.11.42-.17.53-.61.17-.67.39-.81,1.29-.81.6,0,1.09.16,1.09.35s-.23.26-.53.15c-.54-.21-1.05.28-1.06,1.02,0,.22.21.4.48.4s.48-.15.48-.34.32-.3.72-.24c.56.08.71-.04.65-.57-.06-.59.11-.67,1.47-.69,1.22-.01,1.53.09,1.54.51,0,.29-.13.62-.3.73-.19.12-.17.46.06.88.39.73.83.87,1.13.37.1-.17.4-.22.66-.13.29.11.47-.01.47-.34,0-.4-.19-.47-.8-.32-.94.24-1,.05-.26-.81.3-.34.69-.53.88-.41.19.12.41.23.5.24,1.16.15,1.47.53,1.34,1.67-.19,1.75-.6,2.14-1.57,1.5-.43-.28-.87-.43-.97-.33-.1.1-.02.19.19.19s.37.23.37.51c0,.32-.18.45-.47.33-.26-.1-.56-.04-.66.13-.11.17-.33.23-.49.13s-.3,0-.3.24c0,.26.39.42,1.04.42.84,0,1.06.14,1.14.72.11.78-.24.93-.82.36-.2-.2-.61-.27-.91-.15-.52.2-.52.24.02.63.78.57.38,1.94-.5,1.71-.33-.09-.69-.03-.79.13-.29.47-.78.33-.78-.21,0-.34-.24-.47-.72-.4-.57.08-.7.27-.61.9.06.44.26.89.43,1,.18.11.22.52.1.9-.2.64-.17.67.45.28.37-.23.67-.69.67-1.02,0-.44.17-.56.64-.43.35.09.73.03.83-.14.1-.17.61-.22,1.12-.1.59.13.93.07.93-.15,0-.25.18-.26.62-.03.92.49,1.62.4,1.62-.2,0-.29.24-.8.53-1.12.6-.66.06-.81-.59-.16-.53.53-2.49,1.23-2.83,1.01-.23-.14,0-.7,1.18-2.78.37-.65.37-.65.75.06l.38.71.47-.67c.57-.82,1.4-.87,1.6-.11.22.84,1.6,1.41,2.06.84.4-.48,1.25-.61,1.25-.19,0,.14-.17.43-.38.64-.3.3-.3.38,0,.38.21,0,.38.22.38.48,0,.54-.81.65-1.12.16-.28-.46-.84-.4-.76.08.09.55-.36,1.52-.71,1.52-.16,0-.29-.36-.29-.8s-.14-.8-.32-.8-.32.22-.32.48-.14.48-.32.48-.32.14-.32.32.22.32.48.32.48.15.48.34.13.26.3.15c.16-.1.39-.04.5.14.11.18.06.33-.1.33s-.36.42-.44.94c-.1.71,0,.98.44,1.09.36.09.58-.02.58-.3,0-.25.2-.45.44-.45s.62-.22.84-.48c.33-.4.29-.48-.26-.48-.36,0-.75-.15-.87-.33-.32-.52.51-1.31,1.26-1.2.55.08.67.32.67,1.38s-.11,1.3-.72,1.38c-.4.06-.72.25-.72.42s.3.22.69.1c.58-.18.66-.11.51.44-.15.59-.07.64.81.47.8-.16.95-.11.79.3-.13.35.1.62.75.89,1.15.48,1.25,1.1.13.82-1.03-.26-1.4.53-.63,1.31.3.3.69.95.86,1.45.17.49.52.9.76.9.61,0,.57.53-.06.77-.72.28-.69.3-1.28-.93-.51-1.08-1.27-1.62-.89-.64.1.26,0,.48-.2.48-.23,0-.31.22-.19.52.14.38.06.46-.31.32-.28-.11-.63-.2-.78-.2s-.33-.4-.41-.88c-.12-.82-.14-.81-.18.16-.05,1-.1,1.04-1.38,1.04h-1.34l.66-.72c.36-.4.76-1.05.88-1.46.14-.46.4-.68.68-.57.27.1.45-.03.45-.33,0-.35.2-.46.64-.34.78.2.9-.76.16-1.37-.26-.22-.48-.65-.48-.96,0-.73-.89-1.48-1.28-1.09-.16.16-.36.87-.45,1.57-.09.7-.31,1.32-.49,1.38-.45.15-.43,1.24.03,1.53.27.17.25.33-.08.59-.25.2-.63.67-.84,1.06-.33.59-.31.75.12.99.77.43.21,1.05-.74.81-.68-.17-.79-.1-.69.4.07.33.37.58.67.56.3-.02.55.07.55.21s.09.5.2.79c.17.44.02.51-.88.43-1.02-.1-1.1-.2-1.38-1.62-.23-1.18-.43-1.52-.9-1.52s-.56.15-.4.64c.14.43.04.71-.3.83-.28.11-.5.54-.5.96,0,.68-.14.77-1.32.77-1.04,0-1.25-.09-.98-.41.19-.23.23-.6.08-.83-.19-.31-.32-.32-.49-.06-.12.2-.49.28-.81.18-.41-.13-.65.01-.79.47-.26.83-.8.85-.8.03,0-.95-.55-1.08-.77-.18-.16.62-.41.8-1.14.8-.51,0-1.03-.15-1.14-.34-.14-.23-.34-.23-.63.02-.24.2-1.3.31-2.43.26-1.83-.09-1.96-.14-1.5-.6.33-.33.41-.66.23-.96-.4-.65-1.43.06-1.39.96.02.63-.11.68-1.57.6-1.51-.09-1.62-.16-2-1.21-.28-.79-.41-.92-.43-.45-.05,1.33-.98,1.73-3.89,1.69-1.48-.02-2.44-.1-2.13-.18.31-.08.56-.3.56-.48,0-.42-2.03-.06-2.19.39-.06.17-.82.31-1.7.31-.98,0-1.52-.12-1.39-.32.11-.18.05-.32-.14-.32s-.34.14-.34.31c0,.2-27.15.32-77.92.32H0s0-12,0-12ZM152.37,22.34c.22-.43.17-.51-.2-.37-.27.1-.49.39-.49.63s-.18.45-.4.45c-.27,0-.24.11.08.31.33.21.52.18.6-.08.07-.21.25-.64.41-.94h0ZM178.24,23.06c-.19-.35-.56-.64-.83-.64s-.4-.14-.29-.32c.11-.18.04-.32-.15-.32s-.43.22-.53.48c-.1.26-.38.48-.63.48s-.45.14-.45.32c0,.42.19.4.96-.07.52-.33.73-.3,1.18.16.75.75,1.16.7.74-.09h0ZM128.15,23.08c.31-.5-.28-.62-.72-.15-.34.37-.33.45.06.45.26,0,.56-.13.66-.3h0ZM173.76,23.06c0-.18-.14-.32-.32-.32s-.32.14-.32.32.14.32.32.32.32-.14.32-.32ZM163.6,22.29c.31-.23.46-.52.35-.63-.11-.11-.04-.21.16-.21s.37-.15.37-.33c0-.21-.42-.26-1.12-.12-1.04.2-1.12.15-1.12-.61,0-.45.25-.97.56-1.15.49-.28.46-.33-.24-.33-1.56,0-1.7.38-.74,2.17.49.91.96,1.65,1.05,1.64.09,0,.41-.2.72-.43ZM162.72,22.1c-.11-.18-.05-.32.14-.32s.34.14.34.32-.06.32-.14.32-.23-.14-.34-.32ZM137.44,22.1c.11-.18.05-.32-.12-.32s-.41.14-.52.32c-.11.18-.05.32.12.32s.41-.14.52-.32ZM166.4,21.9c0-.07-.22-.13-.48-.13s-.48.14-.48.31.22.23.48.13c.26-.1.48-.24.48-.31ZM168.86,21.97c-.28-.72.46-1.16,1.92-1.16.76,0,1.38-.14,1.38-.32s-.13-.32-.3-.32-.39-.27-.49-.61c-.26-.83-1.16-.54-1.94.63-.35.52-.81.94-1.03.94-.42,0-.55.71-.19,1.07.38.38.82.23.65-.23h0ZM175.78,21.24c.14-.24.38-.36.54-.27.15.09.37.02.48-.16.13-.21.57-.07,1.17.36l.97.69-.43-.69c-.53-.85-1.77-1.21-2.54-.72-.47.29-.67.23-1.07-.34-.27-.39-.49-.89-.49-1.11s-.14-.41-.32-.41c-.45,0-.4.88.05,1.03.27.09.24.4-.13,1.13-.28.55-.44,1.06-.37,1.14.27.27,1.89-.2,2.14-.63h0ZM181.76,21.79c0-.38-.62-.78-.85-.55-.23.23.17.85.55.85.17,0,.3-.14.3-.3ZM184.78,20.84c.28-.47.5-1.63.31-1.63-.28,0-2.33,2.18-2.19,2.32.3.3,1.56-.16,1.88-.69ZM125.44,20.02c0-.26-.22-.48-.48-.48-.5,0-.63.38-.27.75.37.37.75.23.75-.27ZM168.82,19.47c.12-.39.53-.97.9-1.3.37-.33.48-.5.23-.37-.26.13-.6.04-.8-.24-.62-.83-1.51-.93-3.27-.38-2.2.69-2.33,1.24-.26,1.09.4-.03.96.34,1.41.92.88,1.15,1.48,1.24,1.79.27h0ZM167.36,18.96c0-.14.21-.54.47-.88.4-.53.52-.55.78-.15.2.31.19.61-.03.88-.38.45-1.22.56-1.22.15h0ZM179.26,19.46c-.18-.18-.49-.21-.7-.08-.29.18-.28.3.04.5.55.34,1.08,0,.67-.41h0ZM188.54,19.18c-.05-.42-.09-1.13-.08-1.57,0-.44.02-1.21.03-1.71,0-.63.2-.96.64-1.08.35-.09.63-.3.63-.47s-.14-.22-.31-.11c-.17.1-.61,0-.98-.22-.59-.36-.75-.32-1.26.31-.32.4-.78.73-1.02.74-.24.01-.14.14.21.28.35.14.89.13,1.2-.03.45-.23.56-.16.56.37,0,.37-.18.64-.4.61-.89-.12-1.67.04-1.32.27.46.31.36,1.48-.18,2.14-.23.28-.37.55-.3.59,1.79,1.03,2.73.99,2.59-.12ZM139.2,19.53c0-.38-.9-.79-1.17-.53-.28.28.2.86.7.86.25,0,.46-.15.46-.33ZM183.71,19.31c.6-.17.45-1.71-.21-2.1-.22-.13-.33-.53-.24-.88.13-.49.01-.64-.51-.64-.81,0-.85.35-.17,1.64.56,1.08.38,2.04-.33,1.76-.31-.12-.4-.02-.28.31.11.3.38.4.7.27.29-.12.75-.28,1.03-.36h0ZM142.72,18.89c0-.46-.84-.74-1.32-.44-.28.17-.22.31.22.49.88.34,1.1.33,1.1-.04ZM153.09,17.48c-.11-.28-.32-.51-.48-.51-.34,0-.35.21-.07,1.24.17.62.25.67.48.27.15-.27.19-.72.08-1h0ZM158.56,18.07c0-.33.25-.66.56-.72.31-.06.56-.23.56-.39,0-.51-.66-.7-1.12-.32-.25.21-.64.26-.87.13-.31-.19-.3-.11.02.29.24.3.36.84.27,1.2-.11.42-.04.61.2.53.21-.07.38-.4.38-.73h0ZM175.93,18.27c-.21-.34-.45-.56-.53-.49-.14.14.56,1.11.8,1.11.07,0-.05-.28-.27-.63ZM172.8,18.32c0-.14-.16-.42-.36-.61-.42-.42-.11-1.05.5-1.05s.81-.74.34-1.37c-.55-.75-.95-.69-1.44.24-.4.74-.47.76-1.32.32-1.24-.64-3.49-.8-3.49-.25,0,.51.17.52.99.09.48-.26.67-.22.81.16.12.32.43.43.88.32.49-.12.91.07,1.42.66.4.46.64.96.55,1.11-.09.15,0,.35.23.44.62.25.88.24.88-.04h0ZM181.24,17.78c-.12-.31-.33-.33-.91-.05-.94.44-.77.81.28.61.47-.09.72-.31.63-.56ZM144.1,16.96c-.32-.53-.62-.83-.68-.66-.15.44.53,1.63.93,1.63.18,0,.07-.44-.25-.97h0ZM177.6,17.3c0-.18.2-.32.44-.32s.63-.22.85-.49c.23-.27.64-.41.92-.3.38.15.42.1.14-.18-.28-.28-.65-.27-1.52.05-.9.32-1.24.33-1.54.03-.3-.3-.3-.47,0-.77.58-.58.5-2.82-.1-2.82-.26,0-.48-.14-.48-.32,0-.48.76-.39,1.46.18.44.35.5.55.22.67-.22.09-.4.31-.4.48s.15.22.33.11c.18-.11.51-.07.72.1.57.45,2.02.74,2.59.52.4-.15.43-.33.15-.85-.32-.59-.38-.61-.65-.13-.27.48-.38.49-1.24.04-.52-.27-.94-.62-.94-.79s-.43-.53-.96-.8c-1.14-.59-1.78-.33-2.72,1.1-.35.54-.82.98-1.04.98-.5,0-.52-.52-.05-.82.55-.34-.26-.71-1.18-.53-.6.11-.71.25-.44.56.26.31.18.47-.31.62-.88.28-1.37-.07-1.13-.82.15-.47.04-.61-.47-.61-.76,0-.81-.25-.23-1.02.41-.54,1.62-.61,2.39-.13.22.14.61.17.87.07.45-.17.44-.61-.07-2.52-.28-1.05.72-.58,1.16.54l.43,1.1.61-.78c.68-.87.54-1.33-.54-1.74-.49-.19-.8-.64-.94-1.38-.23-1.21-1.23-2.33-1.78-1.99-.23.14-.06.55.46,1.18.44.53.81,1.08.81,1.23,0,.44-.96,1.28-1.46,1.28-.25,0-.46.15-.46.33s.25.29.55.24c.91-.16.81.83-.13,1.27-1.19.55-1.27.53-2.37-.59-.91-.93-1-.96-1.39-.42-.26.35-.36,1.05-.26,1.79.17,1.24-.03,1.44-.87.91-.3-.19-.62-.17-.88.04-.22.19-.71.26-1.08.16-.58-.15-.64-.07-.47.61.28,1.11-.97,2.77-1.88,2.49-.65-.2-.65-.2-.05.48.85.95,1.72.85,2.37-.28.3-.53.65-.96.79-.96.13,0,.24-.14.24-.31s-.22-.23-.48-.13c-.3.12-.48,0-.48-.33,0-.73,1.19-.64,1.67.13.46.73.95.87.69.19-.25-.66.54-1.02.89-.4.16.29.45.52.64.52.22,0,.19-.18-.06-.49-.22-.27-.32-.57-.23-.67.28-.28,1.83.86,1.83,1.35,0,.53,1,.59,1.5.1.36-.36,1.2-.02,2.42.96.49.39.56.38.56-.08,0-.29.14-.53.31-.53.48,0,1.36,1.92,1.19,2.6-.11.43.01.6.45.6.34,0,.61-.14.61-.32h0ZM164.35,14.78c-.14-.22-.16-.49-.06-.6.29-.29.6.13.44.6-.11.33-.18.32-.39,0h0ZM175.44,14.2c-.77-.31-.43-.98.41-.82.45.09.76.31.7.5-.14.41-.58.54-1.11.33ZM168.52,11.39c.11-.28.34-.47.5-.42.48.16.34.71-.21.83-.34.07-.43-.06-.3-.41ZM141.31,15.1c-.41-.41-.64-.44-1.11-.15-.44.28-.69.28-.95,0-.21-.21-.36-.23-.36-.04,0,.18.61.62,1.36.98,1.15.56,1.38.59,1.47.19.06-.26-.12-.71-.41-.99h0ZM146.88,16.02c0-.18-.13-.32-.29-.32s-.56-.09-.88-.2c-.52-.18-.51-.14.05.31.74.59,1.12.67,1.12.21h0ZM184.87,15.3c.06-.38.53-1.12,1.06-1.63,1.01-.99,1.24-1.59.5-1.3-.25.09-.54.02-.66-.17-.3-.49-1.31-.42-1.75.11-.51.61.16,1.02.8.49.6-.5.9-.22.64.59-.13.4-.49.62-1,.62-1.12,0-1.2.17-.55,1.3.61,1.07.8,1.06.97-.01h0ZM160.82,15.53c-.61-.46-1.46-.64-1.46-.3,0,.19,1.28.74,1.76.76.18,0,.04-.2-.3-.46h0ZM152.16,15.38c.32,0,.37-.23.16-.94-.15-.51-.21-.99-.14-1.07.07-.07-.25-.48-.71-.9l-.84-.77.23.8c.13.44.42,1.18.64,1.65.37.76.34.89-.27,1.21-.48.25-.5.31-.09.19.32-.09.78-.17,1.02-.17h0ZM156.32,15.38c.11-.18-.04-.32-.32-.32s-.43.14-.32.32.25.32.32.32.21-.14.32-.32ZM183.04,14.74c0-.18-.15-.32-.34-.32s-.25.14-.14.32.26.32.34.32.14-.14.14-.32ZM136.64,13.95c0-.08-.14-.23-.32-.34-.18-.11-.32-.05-.32.14s.14.34.32.34.32-.06.32-.14ZM116.8,13.26c0-.07-.22-.13-.48-.13s-.48.14-.48.31.22.23.48.13c.26-.1.48-.24.48-.31ZM130.09,13.2c-.1-.1-.36,0-.57.22-.31.32-.28.35.18.18.32-.12.49-.3.39-.4h0ZM143.79,13.53c.08-.13-.04-.5-.27-.82-.47-.64-.98-.19-.68.6.19.5.71.62.95.22ZM160.96,13.61c0-.09-.32-.3-.72-.46l-.72-.29.72-.21c.78-.23.93-.61.37-.96-.19-.12-.28-.49-.19-.82.1-.38,0-.6-.28-.6s-.36.2-.25.5c.11.28-.12.92-.5,1.44-.51.69-.59.98-.28,1.07.23.07.63.2.89.29.68.23.96.24.96.04h0ZM124.4,12.63c-.3-.3-.92.19-.69.56.14.22.31.21.54-.02.19-.19.25-.43.15-.54ZM146.24,13.33c0-.07-.22-.3-.49-.53-.41-.34-.45-.32-.29.12.17.45.77.76.77.4h0ZM113.92,12.5c0-.18-.06-.32-.14-.32s-.23.14-.34.32-.05.32.14.32.34-.14.34-.32ZM148.66,12.14c.27-.44-.51-1.94-.94-1.8-.54.18-.61.87-.09.87.69,0,1.01.66.49.99-.29.18-.31.28-.06.28.21,0,.48-.15.6-.35h0ZM189.44,12.06c0-.29-.26-.39-.8-.28-.52.1-.8,0-.8-.26,0-.23-.09-.32-.21-.21-.33.33.54,1.18,1.2,1.18.33,0,.6-.2.6-.44h0ZM156.8,11.54c0-.35-.07-.64-.15-.64s-.3.29-.49.64c-.27.51-.24.64.15.64.28,0,.49-.28.49-.64ZM153.49,11.38c-.26-.26-.66-.48-.88-.48s-.13.21.22.47c.82.62,1.28.62.67.01ZM162.92,9.69c-.38-.32-.72-1.09-.81-1.83-.24-1.94-.53-2.72-1.03-2.72-.34,0-.4.31-.24,1.36.11.75.34,1.53.51,1.74.16.21.27.64.24.96-.14,1.39,0,1.79.48,1.39.55-.46,1.12-.19,1.18.57.03.32.1.25.18-.19.09-.47-.09-.93-.51-1.28h0ZM179.29,10.58c-.09-.35-.29-.64-.45-.64-.33,0-.35.1-.09.77.28.73.74.62.54-.13h0ZM144.67,9.52c-.25-.25-.35-.17-.35.3,0,.85.45,1.3.59.59.06-.3-.05-.7-.24-.89ZM167.08,9.3c.17,0,.23-.15.12-.32s.03-.41.3-.51c1.19-.46-.03-2.36-1.51-2.36-.45,0-.57-.2-.49-.85.13-1.11-.47-1.29-1.31-.39q-.67.71-.03,1.31c.4.37.64,1.01.64,1.7,0,.61.14,1.11.3,1.11.54,0,.7-.61.34-1.28-.43-.8.19-1.14,1.48-.82.75.19.79.26.37.75-.26.3-.56.81-.67,1.13s-.35.49-.53.38c-.46-.29-.4.59.08,1.07.32.32.42.27.5-.26.06-.36.24-.66.42-.66ZM158.13,8.98c.15,0,.27-.24.27-.54,0-.45-.1-.43-.65.16-.36.39-.8.7-.97.7s-.13.2.09.45c.35.39.45.36.7-.16.16-.34.41-.61.56-.61h0ZM165.44,10.01c0-.41-1.24-1.05-1.43-.73-.1.16.07.44.39.62.68.4,1.05.43,1.05.11ZM177.44,9.94c.11-.18.05-.32-.14-.32s-.34.14-.34.32.06.32.14.32.23-.14.34-.32ZM110.03,9.01c.3-.19.33-.34.08-.49-.19-.12-.5-.13-.69-.01-.18.11-.57.01-.85-.22-.47-.39-.48-.36-.07.29.48.77.84.87,1.53.44ZM178.26,5.95c.17-.17.3-.56.3-.88,0-1.06.92-.62,1.14.55.22,1.19.78,1.85.78.93s1.66-2.23,2.61-2.1c.32.04-.11-1.36-.5-1.63-.51-.34-.58-.32-1.62.57-.71.61-1.24.79-2.08.72-1.06-.09-1.13-.04-1.07.8.04.58-.07.85-.32.77-.21-.07-.34-.39-.28-.69.1-.55-.76-1.78-1.26-1.78-.14,0-.19.5-.11,1.1.08.61,0,1.19-.17,1.3-.48.3-.38.8.16.8.51,0,.53.05.6,1.28.02.44.26.97.52,1.18.41.32.52.15.74-1.12.14-.82.39-1.63.56-1.8h0ZM153.88,8.31c-.51-.32-.75-.15-.45.33.12.19.36.25.55.14.21-.13.18-.3-.09-.47h0ZM147.03,8.03c.1-.17-.09-.46-.44-.64-.91-.49-1.06-.42-.67.3.37.69.81.82,1.11.34ZM170.34,8.13c.11-.11.04-.5-.15-.85-.28-.53-.23-.74.25-1.11.42-.32.48-.51.2-.61-.22-.08-.4-.42-.4-.74,0-.78-.92-1.68-1.5-1.46-.33.13-.41.01-.27-.42.14-.44,0-.65-.53-.79-.8-.21-1.21.22-1.22,1.31,0,.52.18.72.67.72.52,0,.64.15.51.64-.11.41,0,.64.28.64.67,0,1.5,1.47,1.26,2.22-.2.64.4.94.89.45ZM145.39,7.32c.24-.91-.15-1.52-.46-.72-.34.86-.34,1.42,0,1.42.16,0,.36-.31.46-.7h0ZM152.04,7.11c.3-.26.47-.66.38-.9-.22-.58-.74-.55-.74.05,0,.27-.28.48-.64.48-.42,0-.64.21-.64.63,0,.69.65.59,1.64-.26ZM156.6,7.22c-.2-.52-.76-.66-.76-.19,0,.24.22.41.87.64.04.01-.01-.19-.11-.45ZM172.08,6.98c-.07-.22-.4-.45-.74-.52-.52-.1-.55-.05-.17.4.51.61,1.1.69.91.12ZM143.04,6.1c.41-.27.41-.31-.06-.32-.3,0-.63.14-.74.32-.25.4.17.4.8,0ZM159.84,5.31c.9-.62.37-.98-.75-.51-.68.28-.89.55-.78.99.11.41.27.5.52.29.2-.17.66-.51,1.01-.76ZM139.46,5.75c-.06-.19-.25-.34-.42-.34s-.36.15-.42.34c-.06.19.13.34.42.34s.48-.15.42-.34ZM133.76,5.01c0-.07-.36-.19-.8-.28-.44-.08-.8-.03-.8.12s.36.28.8.28.8-.06.8-.12ZM143.2,4.5c-.32-.35-.88-.64-1.25-.64-.52,0-.42.13.45.6,1.47.79,1.48.79.8.04ZM157.84,4.23c.13-.5-.02-.58-1-.51-1.6.1-1.62.13-.36.62.62.24,1.14.44,1.16.46.02.01.11-.24.2-.56h0ZM118.08,3.54c0-.18-.15-.32-.34-.32s-.25.14-.14.32c.11.18.26.32.34.32s.14-.14.14-.32ZM159.68,3.54c0-.18-.06-.32-.14-.32s-.23.14-.34.32-.05.32.14.32.34-.14.34-.32ZM130.15,3.34c-.11-.11-.38-.12-.61-.03-.26.1-.18.18.19.19.34.01.53-.06.42-.17ZM145.28,3.22c-.63-.4-1.05-.4-.8,0,.11.18.44.32.74.32.47,0,.47-.05.06-.32h0ZM165.53,2.34c-.26-1.63-.4-1.89-.74-1.35-.43.68-.38,1.83.09,2.02.72.29.79.22.65-.67ZM177.76,2.58c.11-.18-.03-.32-.3-.32s-.5.14-.5.32.14.32.3.32.39-.14.5-.32ZM179.84,2.75c0-.08-.14-.23-.32-.34-.18-.11-.32-.05-.32.14s.14.34.32.34.32-.06.32-.14ZM149.6,1.3c.11-.18.05-.32-.12-.32s-.41.14-.52.32c-.11.18-.05.32.12.32s.41-.14.52-.32ZM139.52,1.15c0-.08-.14-.23-.32-.34-.18-.11-.32-.05-.32.14s.14.34.32.34.32-.06.32-.14ZM158.57.95c.34-.56-.05-.68-.49-.15-.25.3-.28.49-.06.49.19,0,.44-.15.55-.34h0ZM142.4.58c0-.13-.36-.24-.8-.24s-.8.13-.8.29.36.27.8.24c.44-.03.8-.15.8-.29ZM185.28,23.73c0-.37.69-.62,1.2-.44.7.24.43.73-.4.73-.44,0-.8-.13-.8-.29ZM190.07,23.19c-.39-1.01.14-2.2.86-1.92.26.1.76.18,1.1.18s.61.22.61.48.28.48.62.48.71.15.82.33c.11.18.44.29.73.24.29-.05.58.16.64.47.14.67-1.17.79-1.79.18-.3-.3-.38-.3-.38,0,0,.24-.54.38-1.45.38-1.26,0-1.49-.11-1.76-.82h0ZM196.8,23.62c0-.22.14-.61.3-.86.25-.39.37-.39.81-.03.44.37.51.36.42-.02-.06-.27.16-.45.54-.45.35,0,.68.25.74.56.07.38-.1.56-.54.56-.35,0-.73.14-.84.32-.28.46-1.44.4-1.44-.08ZM200.64,23.51c0-.3.22-.46.53-.4.8.16.91.9.13.9-.39,0-.67-.21-.67-.5ZM203.2,23.71c0-.54.48-.61,1.1-.15.59.43.58.45-.24.45-.47,0-.86-.14-.86-.3ZM210.65,23.62c.08-.22.31-.36.51-.32s.36-.06.36-.24.14-.32.32-.32.32.29.32.64c0,.47-.21.64-.83.64-.53,0-.77-.15-.68-.4h0ZM212.69,23.77c-.08-.13.2-.41.62-.61.45-.21.85-.24.95-.07.1.16.02.29-.18.29s-.27.14-.16.32-.09.32-.44.32-.71-.11-.79-.25ZM215.23,23.51c-.11-.28-.19-.84-.19-1.24,0-.63.21-.77,1.48-.96.81-.12,1.68-.3,1.92-.39.71-.27.5-1.24-.36-1.7-.44-.24-.8-.63-.8-.87s-.14-.36-.31-.25c-.19.12-.2.48,0,.98.31.83.14.97-.62.49-.25-.16-.45-.73-.45-1.26,0-.78-.18-1.04-.89-1.28-.74-.26-.86-.23-.7.18.15.39.04.45-.5.28-.44-.14-.69-.08-.69.16,0,.23-.27.31-.66.21-.4-.11-.73,0-.83.28-.23.61-.95.58-1.19-.05-.26-.67.08-1.18.64-.96.31.12.45-.07.45-.62,0-.43.14-.79.32-.79s.33-.18.33-.4c0-.22.35-.81.76-1.31.56-.69.92-.86,1.43-.7.53.17.64.11.49-.29-.11-.28-.5-.53-.88-.56-.38-.03-.92-.07-1.21-.09-.29-.02-.76-.23-1.04-.46-.44-.37-.52-.35-.52.1,0,.29.22.61.48.71.66.25.6.81-.08.74-.93-.09-1.48,0-1.26.22.29.29-2.71,1.76-3.21,1.57-.23-.09-.41-.38-.41-.66s-.38-.64-.85-.82l-.85-.32.71-.5c.54-.38.81-.41,1.14-.13.28.23.51.25.63.05.26-.42-.44-.84-1.39-.84s-1.27-.73-.46-.98c.32-.1.85-.33,1.18-.5.43-.23.74-.19,1.12.14,1.25,1.09,1.74-.29.75-2.09-.52-.95-.54-1.2-.14-2.57.24-.84.57-1.52.74-1.52s.3-.22.3-.48.26-.48.59-.48c.46,0,.58-.22.53-.97-.08-1.26-.69-1.93-1.16-1.26-.28.4-.31.39-.16-.08.11-.35.01-.56-.27-.56-.84,0-.92.73-.16,1.35.62.5.69.71.38,1.15-.21.3-.61,1.01-.91,1.59-.58,1.16-1.19,1.21-1.35.12-.06-.38-.25-.61-.43-.5s-.68.01-1.12-.22c-.67-.36-.84-.35-1.09.04-.26.41-.34.4-.62-.01-.18-.26-.3-.7-.28-.96.09-1.23-.05-1.46-.51-.84-.41.54-.5.55-.95.1-.65-.65-.63-.75.2-.97.55-.14.62-.27.32-.63-.5-.6-.16-.87,1.1-.87.97,0,1.07.1,1.25,1.2.3,1.83.35,1.91,1.32,2.07.5.09,1.16.26,1.47.39.39.17.56.09.56-.24,0-.29-.46-.59-1.15-.75-1.18-.28-1.52-.89-.52-.94.98-.06,1.02-.11.72-.91l-.3-.78h3.22c2.94-.02,3.27.04,3.81.69.62.74.82,1.83.33,1.83-.16,0-.36.29-.45.64-.22.85-1.19.84-1.19-.01,0-.56-.09-.6-.67-.29-.37.2-.58.44-.48.54s.02.38-.17.61c-.27.32-.26.43.04.43s.31.1.02.45c-.54.65-.09.8,2.44.77,2.65-.02,3.93.49,4.35,1.76.24.73.18.98-.29,1.33-.79.58-1.84.04-1.62-.82.26-1-.33-1.02-.83-.02-.41.83-.4,1,.16,1.76.34.47.46.85.27.85s-.35-.13-.35-.29-.27-.22-.61-.13c-.55.14-.6-.02-.56-1.55.05-1.62,0-1.7-.75-1.71-.63,0-.82.18-.9.85-.08.72,0,.83.56.68.56-.15.65-.04.59.69-.11,1.35-1.04,1.64-2.19.68-.59-.5-1.16-.73-1.49-.6-.34.13-.39.25-.15.33.66.22.42.93-.5,1.54-1.15.75-1.68,1.29-1.68,1.72s.54.45.8.02c.11-.18.31-.26.44-.18.13.08.48-.26.77-.75.48-.81.69-.89,2.22-.85,1.78.05,3.77.74,3.77,1.32,0,.19-.17.51-.38.72-.3.3-.3.38,0,.38.21,0,.38-.14.38-.32,0-.5,1.15-.38,1.6.17.22.27.89.72,1.48,1,1.26.6,1.43,1.4.3,1.4-.53,0-.81-.2-.88-.63-.07-.45-.23-.55-.54-.36-.36.22-.32.39.18.89.34.34.79.56,1,.49.21-.07.38.17.38.54s-.11.67-.24.67c-.57,0-.19,1.52.45,1.83.53.25.66.23.53-.09-.21-.55,1.26-1.49,1.93-1.23.69.27.67,1.3-.03,1.71-.49.29-.5.33-.04.34.29,0,.62.26.73.57.38,1.01.97,2,1.19,2,.24,0,.17-.53-.2-1.37-.14-.32-.16-.66-.05-.77.11-.11-.05-.47-.35-.8-.44-.49-.47-.72-.17-1.21.32-.51.27-.64-.28-.81-.46-.15-.61-.4-.49-.84.13-.5.05-.59-.37-.41-.3.12-.72.23-.94.24-.22,0-.4.35-.4.76,0,.47-.19.75-.52.75-.38,0-.47-.19-.32-.72.11-.4.19-.82.2-.93,0-.12.44-.31.96-.43.53-.12.96-.42.96-.67s.23-.45.51-.45c.32,0,.45.18.33.47-.1.26-.04.55.13.66.17.1.31.04.31-.15s.22-.34.49-.34.57-.22.68-.49c.12-.31.41-.42.79-.3.39.12.6.04.6-.25,0-.31-.32-.4-1.08-.31-.6.07-1.18-.03-1.3-.23-.23-.37.45-2.59.79-2.59.44,0,.61.44.3.81-.23.28-.14.44.32.56.36.09.65.04.65-.12,0-.46.84-.34,1.28.19.28.33.29.48.04.48-.2,0-.36.22-.36.48s.18.47.4.46c.92-.05,1.68-.56,1.68-1.13,0-.52.24-.61,1.6-.61s1.59.07,1.5.64c-.06.35-.09,1.05-.07,1.54.03.83-.06.9-1.02.81-.79-.07-1.02.02-.94.38.06.26.22.51.37.57.14.05.19.38.1.72-.09.36,0,.62.22.62.32,0,.21,1.13-.16,1.55-.24.27-1.42-.36-1.42-.76,0-.26-.19-.37-.47-.27-.26.1-.44.35-.4.55.04.2-.15.37-.41.37-.28,0-.44-.23-.39-.56.05-.31-.07-.86-.27-1.23l-.36-.67-.75.7c-.92.87-1.01,2.56-.13,2.56.34,0,.63.3.71.72.12.62.14.59.18-.16.05-1,.79-1.19,1.3-.32.29.5.33.48.34-.16,0-.47.2-.72.57-.72.98,0,1.4.51,1.58,1.84.14,1.08.07,1.32-.42,1.44-1.41.36-2.35.21-2.68-.42-.19-.35-.48-.56-.65-.45-.18.11-.04.57.33,1.09.73,1.02.59,1.3-.66,1.3-.81,0-.86-.07-.63-.88.14-.49.13-1.21-.01-1.6-.32-.87-.73-.97-.45-.1.11.34.06.69-.1.79-.16.1-.22.54-.14.99.18.95-.24,1.03-1.39.28-.44-.29-1.22-.52-1.73-.5-.84.02-.9-.04-.64-.73.23-.61.15-.84-.43-1.22-.97-.64-1.81-.05-1.59,1.11.12.63,0,.86-.49.99-.36.09-.73.09-.83,0-.1-.1-.55-.22-1.01-.27-.69-.07-.8.02-.67.53.2.75-.58.86-.86.12h0ZM217.7,16.73c-.11-.3-.77-1.1-1.48-1.76l-1.29-1.22-.74.87c-.83.96-.78,1.3.11.83.84-.44,2.02.07,1.83.8-.1.38.1.69.58.92.92.42,1.24.28,1-.43h0ZM228.8,14.85c0-.35-.14-.38-.64-.11-.35.19-.64.26-.64.15s-.15-.1-.33.01c-.57.35-.04.72.8.56.44-.08.81-.36.81-.61h0ZM230.4,13.78c0-.18-.06-.32-.14-.32s-.23.14-.34.32-.05.32.14.32.34-.14.34-.32ZM211.13,7.7c.3,0,.27-.21-.11-.79-.28-.43-.43-.93-.32-1.1.11-.17.05-.4-.13-.51-.18-.11-.33-.04-.33.17s-.29.73-.64,1.18c-.74.94-.54,1.51.43,1.25.38-.1.87-.19,1.09-.19ZM212.64.98c-.11-.18-.34-.32-.52-.32s-.23.14-.12.32c.11.18.34.32.52.32s.23-.14.12-.32ZM221.85,23.79c.31-.08.74-.08.96.01.22.09-.04.15-.57.15-.53,0-.71-.08-.39-.16h0ZM229.65,23.8c-.38-.38-.23-.64.6-1.02,1-.45,1.2-.47.94-.05-.26.42.26.41.68,0,.22-.22.59-.23,1.1-.02.46.19.58.33.29.37-.26.03-.98.11-1.6.18-.62.07-1.17.27-1.23.44-.12.37-.49.41-.8.1h0ZM241.47,23.75c-.25-.4.52-.85,2.01-1.17.84-.18,1.04-.13.93.2-.08.24-.39.41-.68.39-.29-.02-.53.1-.53.27s-.24.23-.53.11c-.29-.11-.64-.04-.76.16-.16.25-.29.26-.43.03h0ZM249.68,23.62c.07-.22.33-.4.56-.4s.49.18.56.4c.08.24-.15.4-.56.4s-.64-.16-.56-.4ZM255.28,23.8c.22-.09.58-.09.8,0s.04.16-.4.16-.62-.07-.4-.16h0ZM257.44,23.69c.11-.18.34-.24.5-.14.44.27.36.47-.2.47-.27,0-.41-.15-.3-.33ZM259.52,23.7c0-.18.14-.32.32-.32s.32.14.32.32-.14.32-.32.32-.32-.14-.32-.32ZM264.8,23.7c.11-.18.33-.32.5-.32s.3.14.3.32-.22.32-.5.32-.41-.14-.3-.32ZM268.68,23.54c-.19-.5-1.01-.66-1.25-.24-.07.13-.09.06-.04-.15.05-.21-.05-.48-.22-.58-.45-.28,0-.86.52-.66.24.09.67-.06.94-.34.28-.28.6-.41.72-.29s0,.34-.25.5c-.25.16-.35.4-.21.54s.4,0,.57-.3c.38-.68,1.11-.73,1.35-.09.1.27-.1.67-.48.93-.36.25-.57.62-.45.81.13.2-.05.35-.41.35-.34,0-.71-.22-.81-.48ZM270.85,23.65c-.12-.19-.02-.46.21-.6.46-.28.94-.12.94.32s-.92.66-1.15.29ZM274,23.62c.07-.22.4-.4.72-.4s.65.18.72.4c.08.25-.18.4-.72.4s-.8-.15-.72-.4ZM276.16,23.54c0-.26.2-.48.44-.48s.62.22.84.48c.34.41.27.48-.44.48-.53,0-.84-.18-.84-.48ZM281.28,23.68c0-.19.14-.25.32-.14s.32.26.32.34-.14.14-.32.14-.32-.15-.32-.34ZM283.67,23.71c.1-.17.4-.22.66-.13.66.25.58.43-.19.43-.36,0-.57-.14-.47-.31ZM286.61,23.52c.22-.57,1.11-.5,1.31.1.08.25-.17.4-.68.4-.61,0-.77-.13-.63-.5ZM289.6,23.54c0-.27-.29-.48-.67-.48s-.61-.16-.52-.4c.08-.22.46-.36.84-.32.41.05,1.01-.25,1.44-.72.76-.82,1.47-1.05,1.47-.48,0,.18-.14.32-.32.32s-.32.18-.32.4c0,.38-1.46,2.16-1.77,2.16-.08,0-.15-.22-.15-.48ZM297.92,23.5c0-.24.2-.44.44-.44s.61.2.81.44c.29.35.21.44-.44.44-.47,0-.81-.18-.81-.44ZM304.56,23.8c.22-.09.58-.09.8,0s.04.16-.4.16-.62-.07-.4-.16ZM307.36,23.7c.11-.18.26-.32.34-.32s.14.14.14.32-.15.32-.34.32-.25-.14-.14-.32ZM319.16,23.79c.37-.37,1.49-.44,1.49-.1,0,.17-.38.32-.85.32s-.75-.1-.63-.22h0ZM322.88,23.89c0-.07.22-.21.48-.31.26-.1.48-.04.48.13s-.22.31-.48.31-.48-.06-.48-.13ZM327.9,23.81c-.26-.26.03-.76.44-.76.17,0,.3.22.3.48,0,.49-.38.64-.74.28ZM332.16,23.68c0-.19.14-.25.32-.14s.32.26.32.34-.14.14-.32.14-.32-.15-.32-.34ZM335.04,23.06c0-.75.14-.96.64-.96.47,0,.64.21.64.79s.13.74.48.61c.26-.1.48-.02.48.17s-.5.35-1.12.35c-1.03,0-1.12-.08-1.12-.96h0ZM340.91,23.31c.13-.88.63-1.07,1.15-.44.49.59.18,1.14-.64,1.14-.46,0-.59-.18-.51-.7h0ZM362.4,23.7c.11-.18.34-.32.52-.32s.23.14.12.32-.34.32-.52.32-.23-.14-.12-.32ZM365.52,23.62c.07-.22.33-.4.56-.4s.49.18.56.4c.08.24-.15.4-.56.4s-.64-.16-.56-.4ZM373.12,23.54c0-.26.22-.48.49-.48.38,0,.42-.14.17-.59-.25-.47-.15-.74.46-1.27.64-.56.94-.62,1.62-.36.55.21.77.48.65.79-.1.26-.03.48.15.48s.28.25.23.56c-.19,1-1.05.64-1.16-.48-.11-1.12-.6-1.39-.91-.48-.53,1.57-.95,2.32-1.31,2.32-.22,0-.4-.22-.4-.48ZM379.6,23.62c.07-.22.33-.4.56-.4s.49.18.56.4c.08.24-.15.4-.56.4s-.64-.16-.56-.4ZM382.83,23.52c-.1-.27-.11-.57-.01-.67.32-.32,1.5.24,1.5.7,0,.62-1.25.59-1.49-.04h0ZM391.44,23.79c-.42-.08-.72-.37-.72-.7,0-.63.91-1.97,1-1.48.03.18.09.46.13.64.04.18.09.56.11.86.02.3.29.6.6.68.72.19-.14.18-1.12,0h0ZM394.82,23.8c.23-.09.51-.08.61.03.11.11-.08.18-.42.17-.37-.02-.45-.09-.19-.19ZM204.97,23.4c-.22-.35.29-.74.58-.44.3.3.25.74-.1.74-.17,0-.38-.13-.49-.3h0ZM245.44,23.37c0-.17.22-.31.48-.31s.48.06.48.13-.22.21-.48.31c-.26.1-.48.04-.48-.13ZM251.2,23.22c0-.39.25-.5,1.04-.42.57.06,1.04.24,1.04.42s-.47.37-1.04.42c-.79.08-1.04-.03-1.04-.42ZM293.12,23.12c0-.39.13-.7.29-.7.68,0,1.31.42,1.31.87,0,.37-.1.4-.42.13-.31-.26-.53-.25-.8.02-.29.29-.38.21-.38-.33ZM309.12,23.38c0-.18.22-.32.48-.32s.48.14.48.32-.22.32-.48.32-.48-.14-.48-.32ZM310.4,23.28c0-.54.65-1.18,1.18-1.18.6,0,.51.66-.14,1.15-.72.54-1.04.55-1.04.03h0ZM333.55,23.2c-.1-.27-.11-.57-.01-.67.28-.28.86.2.86.7,0,.61-.61.59-.85-.03h0ZM349.93,23.44c-.41-.41-.1-.72.64-.62.44.06.81.24.8.41,0,.32-1.16.49-1.44.21h0ZM364.68,23.47c-.35-.35-.23-1.7.15-1.7.19,0,.28.2.18.44-.09.24-.02.59.15.76.2.2.21.39.02.51-.17.1-.4.1-.51-.02h0ZM369.48,23.21c-.24-.63.62-.99,1.21-.5.24.2.59.33.76.28.18-.05.3.04.27.21-.09.55-2.04.55-2.25.01h0ZM378.24,23.03c0-.78.75-.67.9.13.06.32-.1.53-.4.53s-.5-.27-.5-.67h0ZM388.72,23.47c-.64-.17-.77-.95-.16-.97.22,0,.59-.07.83-.13.24-.07.56.2.71.6.29.75,0,.86-1.38.5ZM206.64,22.92c-.66-.48-.73-1.02-.16-1.25.32-.13.32-.17,0-.19-.72-.05-.44-1.31.37-1.61.42-.16.83-.47.9-.69.07-.22.3-.3.5-.17.46.28.15,1.17-.41,1.17-.27,0-.35.24-.24.67.1.39,0,.79-.27.96-.36.23-.33.28.11.29.31,0,.56.16.56.34s-.13.26-.3.16-.34.03-.4.28c-.09.38-.2.39-.66.05ZM209.15,22.87c-.29-.76-.24-.89.23-.5.31.26.53.25.8-.02.21-.21.38-.24.38-.06,0,.37-.66,1.09-.99,1.09-.12,0-.31-.23-.42-.51ZM236.16,23.06c0-.18.14-.32.32-.32s.32.14.32.32-.14.32-.32.32-.32-.14-.32-.32ZM238.4,23.07c0-.17.14-.39.32-.5.18-.11.32.03.32.3s-.14.5-.32.5-.32-.14-.32-.3ZM248.32,23.06c0-.2-.25-.34-.56-.31s-.99.03-1.52,0l-.96-.06.88-.32c1.04-.38,1.13-1.14.26-2.25-.61-.78-.61-.8,0-1.31.56-.48.63-.48.9,0,.16.28.22.79.13,1.12-.18.68.74,1.86,1.43,1.86.28,0,.41.26.35.69-.11.72-.9,1.24-.9.59h0ZM272.79,23.04c-.11-.18.14-.8.56-1.36,1.25-1.66,1.25-1.7.06-1.56-.97.11-1.1.04-1.1-.6,0-.4-.23-.99-.52-1.3-.29-.32-.43-.79-.33-1.07.21-.56.85-.67.85-.15,0,.19.11.27.25.18.14-.09.53.26.87.76.69,1.03,1.53,1.38,2.05.86.25-.25.35-.19.35.21,0,.3.22.64.48.74.59.22.64.76.07.76-.46,0-1.51,1.12-1.51,1.6,0,.17-.2.32-.45.32s-.53.22-.63.48c-.21.56-.71.63-1.01.15h0ZM322.88,22.67c0-.46.22-.92.5-1.02.4-.15.46-.04.28.53-.35,1.15-.78,1.42-.78.5h0ZM325.92,23.06c-.08-.13.14-.49.48-.8.51-.46.72-.49,1.11-.17.27.22.41.51.33.65-.21.35-1.75.6-1.92.32ZM329.92,22.58c0-.44.14-.8.32-.8s.32.36.32.8-.14.8-.32.8-.32-.36-.32-.8ZM345.02,22.82c.06-.31.25-.56.42-.56.17,0,.5-.12.72-.26.22-.14.4-.14.39,0-.02.46-.85,1.38-1.25,1.38-.21,0-.34-.25-.28-.56ZM348.16,22.9c0-.33.21-.49.56-.42.67.13.63.7-.06.84-.29.06-.5-.12-.5-.42ZM381.12,22.92c0-.28.23-.51.51-.51.57,0,.47.69-.13.89-.21.07-.38-.1-.38-.38ZM393.68,22.94c-.74-.36-1.05-1.37-.32-1.03.22.1.65.28.96.38.31.11.56.4.56.64,0,.51-.19.51-1.2,0h0ZM257.1,22.7c-.19-.31,1.78-1.28,2.14-1.06.15.1.28.44.28.76,0,.47-.23.58-1.14.56-.63-.02-1.2-.14-1.28-.26h0ZM261.72,22.53c-.39-.46-.36-.5.22-.32.44.14.89-.02,1.38-.47.83-.78,1.16-.64.84.36-.15.48-.4.65-.83.53-.34-.09-.61-.03-.61.13,0,.46-.52.34-1-.24h0ZM277.3,22.44c-.31-.34-.45-.79-.33-1,.17-.28.32-.24.53.14.41.74.77.65.75-.2-.02-1.07.57-1.17.92-.16.25.72.2.96-.31,1.35-.81.61-.9.6-1.56-.13h0ZM281.04,22.23c-1.2-.94-1.29-1.27-.42-1.5.45-.12.57-.35.44-.84-.1-.37-.03-.68.15-.68s.41.36.52.8c.11.44.41.8.67.8.63,0,.6.54-.04.9-.47.26-.47.31.02.49.29.11.45.35.34.53-.29.47-.53.4-1.68-.5h0ZM283.93,22.09c-.08-1.15.65-1.31,1.21-.28.28.53.27.74-.07.96-.77.49-1.07.3-1.14-.68h0ZM299.52,22.74c-.72-.45,0-.96.88-.63.4.15.72.42.72.61,0,.41-.96.42-1.6.02ZM317.12,22.74c0-.18.15-.32.34-.32s.25.14.14.32-.26.32-.34.32-.14-.14-.14-.32ZM318.46,22.67c-.59-.59-.46-.9.4-.9.93,0,1.4.6.78.99-.58.37-.72.36-1.18-.09ZM331.75,22.69c-.43-.24-.48-.45-.23-.92.39-.74,1.28-.5,1.28.34,0,.77-.36.97-1.05.58ZM338.4,22.74c-.27-.43.09-.96.66-.96.25,0,.46.29.46.64,0,.66-.77.88-1.12.32h0ZM355.42,22.85c-.42-.42-.22-.75.45-.75.37,0,.61.17.54.38-.16.47-.69.67-.99.37ZM200.65,22.27c-.51-.62-.11-1.21.65-.97.53.17.58.07.41-.79-.24-1.2.3-1.3,1.03-.19.5.76.48.82-.39,1.59-1.07.94-1.19.97-1.7.35h0ZM212.34,22.44c-.23-.37.12-1.31.5-1.31.4,0,.36.56-.07.82-.25.15-.22.3.08.49.29.18.31.28.05.28-.21,0-.46-.13-.56-.29h0ZM250.4,22.42c-.11-.18-.05-.32.14-.32s.34.14.34.32-.06.32-.14.32-.23-.14-.34-.32ZM297.6,22.41c0-.41.91-.78,1.2-.49.12.12,0,.35-.25.51-.62.39-.95.38-.95-.02h0ZM302.26,22.45c.17-.16.66-.38,1.1-.5.77-.2.78-.19.18.28-.65.52-1.82.72-1.28.21ZM371.69,22.44c-.22-.35.29-.74.58-.44.3.3.25.74-.1.74-.17,0-.38-.13-.49-.3h0ZM384.78,22.38c-.26-.43,1.77-2.25,2.21-1.98.17.1.02.42-.33.7-.35.28-.73.77-.83,1.07-.22.64-.71.73-1.04.2h0ZM398.4,22.42c0-.18.14-.32.3-.32s.39.14.5.32c.11.18-.03.32-.3.32s-.5-.14-.5-.32ZM195.69,22.12c-.24-.38.37-.76.79-.5.36.22.12.8-.33.8-.16,0-.37-.13-.47-.3ZM233.6,22.1c0-.18.14-.32.32-.32s.32.14.32.32-.14.32-.32.32-.32-.14-.32-.32ZM234.68,21.95c-.24-.64.12-1.14.82-1.14.32,0,.67-.22.77-.48.2-.53,1.16-.66,1.16-.16,0,.18-.14.32-.32.32s-.32.3-.32.67c0,.48-.15.62-.49.49-.28-.11-.57.02-.67.29-.23.61-.72.61-.95,0h0ZM239.54,22.18c-.13-.13-.55-.24-.93-.24-.48,0-.69-.2-.69-.64,0-.52.2-.63,1.07-.59,1.27.06,1.74.44,1.46,1.18-.22.58-.53.67-.91.29ZM244.58,21.87c-.12-.32-.43-.73-.69-.93-.41-.31-.38-.41.2-.72.88-.47,1.04-.46,1.04.08,0,.25.22.53.48.63.67.26.6.76-.16,1.17-.52.28-.69.24-.86-.23ZM305.92,22.1c0-.18.22-.32.48-.32s.48.14.48.32-.22.32-.48.32-.48-.14-.48-.32ZM312.8,21.78c-.53-.59-.53-.64-.04-.64.3,0,.62.22.73.49.3.78-.05.85-.69.15h0ZM325.01,22.2c-.1-.1.03-.4.3-.66.26-.26.56-.4.66-.3s-.03.4-.3.66c-.26.26-.56.4-.66.3h0ZM379.58,22.07c.06-.19.25-.34.42-.34s.36.15.42.34c.06.19-.13.34-.42.34s-.48-.15-.42-.34ZM395.52,21.94c-.32-.39-.29-.52.2-.7.33-.13.84-.52,1.15-.88.5-.59.55-.6.56-.09,0,.31.23.65.49.75.7.27.59.83-.11.61-.34-.11-.77.02-1,.3-.51.61-.78.61-1.28.01ZM204.48,21.78c0-.18.22-.32.48-.32s.48.14.48.32-.22.32-.48.32-.48-.14-.48-.32ZM213.79,21.66c-.29-.34-.29-.52-.02-.69.52-.32,1.17.39.74.82-.23.23-.45.19-.72-.13h0ZM219.52,21.78c0-.18.14-.32.32-.32s.32.14.32.32-.14.32-.32.32-.32-.14-.32-.32ZM241.71,21.06c.06-1.18.64-1.41.8-.32.06.4.24.64.4.54.16-.1.3.04.3.32,0,.31-.29.5-.77.5-.67,0-.77-.14-.72-1.04ZM252.31,21.76c-.3-.49.11-.81.52-.4.23.23.24.41.02.54-.18.11-.42.05-.54-.15h0ZM264.81,21.8c-.12-.19-.12-.49-.01-.66.11-.18-.03-.41-.3-.51-.28-.11-.5-.43-.49-.72,0-.47.05-.47.4-.03.45.57,1.43.46,2.23-.25.41-.36.56-.39.56-.09,0,.32.12.31.53-.03.46-.38.51-.37.38.04-.09.26-.77.77-1.52,1.13-.75.36-1.34.77-1.31.91.1.42-.24.58-.46.22h0ZM272.17,21.8c-.1-.16-.04-.39.14-.5.18-.11.33.02.33.3,0,.56-.19.64-.47.2ZM341.76,21.78c0-.18.15-.32.34-.32s.25.14.14.32-.26.32-.34.32-.14-.14-.14-.32ZM358.56,21.78c-.13-.21-.09-.52.09-.7.21-.21.4-.19.55.06.13.21.09.52-.09.7-.21.21-.4.19-.55-.06ZM366.94,21.21c.13-.48.22-1.2.2-1.61-.03-.66.07-.72.97-.52,1.2.26,1.29.32,1.03.75-.11.18-.4.25-.64.16-.24-.09-.53-.01-.65.17-.13.21.11.34.61.34.45,0,.82.14.82.32s-.36.32-.8.32-.8.13-.8.29-.22.37-.48.47c-.39.15-.44.02-.25-.69ZM197.93,21.43c.1-.16.03-.3-.15-.3s-.34-.2-.34-.45c0-.58,1-.96,1.29-.5.12.2.35.35.51.33.16-.02.28.21.28.5,0,.34-.32.56-.89.62-.49.05-.8-.04-.7-.2ZM210.43,21.17c-.28-.31-.43-.64-.34-.73.09-.09-.05-.35-.32-.57-.63-.52-.62-.85.04-1.1.3-.11.79.04,1.14.35.51.46.72.49,1.25.16.35-.22.78-.31.95-.2.46.29.02.82-.6.72-.37-.06-.57.17-.63.76-.12,1.07-.8,1.36-1.47.62h0ZM250.09,21.47c-.1-.15-.08-.51.02-.79.11-.28.03-.71-.17-.96-.23-.28-.26-.52-.06-.64.17-.11.41-.04.52.15.15.24.35.23.66-.03.25-.2.67-.29.93-.19.63.24.63,1.49,0,1.49-.26,0-.76.28-1.11.63s-.71.5-.8.35h0ZM254.45,21.25c.05-.33-.01-.78-.15-1-.28-.44-.02-1.04.45-1.04.17,0,.3.2.3.45s.18.52.4.6c.3.11.31.3.06.73-.48.82-1.17.99-1.05.26h0ZM256,20.98c0-.59.17-.8.64-.8.78,0,.88,1.12.13,1.41-.75.29-.77.27-.77-.61ZM285.51,21.24c.09-.42.38-.56,1.03-.51l.91.07-.67-.63c-.37-.34-.82-.63-1.01-.63s-.33-.16-.33-.35.22-.27.48-.17c.73.28,2.13-.46,1.92-1.01-.1-.26.08-.65.39-.88.54-.4.54-.43,0-.63-.31-.12-.56-.42-.56-.66,0-.61.54-.56.9.07.16.29.67.52,1.14.52s.92.12,1.02.27c.09.15.38.18.63.09.26-.1.47-.02.47.18s-.25.46-.56.57c-.31.12-.74.44-.95.71-.35.45-.39.44-.4-.06-.01-.65-.74-.74-1.23-.15-.22.26-.23.58-.04.88.54.86.38,1.33-.34.95-.59-.32-.64-.26-.56.71.08,1.01.03,1.06-1.14,1.15-1.04.09-1.21.01-1.11-.48h0ZM343.44,21.56c-.78-.31-.42-1.07.51-1.07,1.11,0,1.44.29.97.85-.37.44-.78.5-1.48.22h0ZM232.76,20.59c.03-.5.29-.82.76-.94.97-.24.92-.82-.05-.7-1.06.14-2.74-1.15-2.74-2.09,0-.66.15-.74,1.44-.76,1.21-.02,1.44.08,1.44.59,0,.34-.22.61-.48.61-1.13,0-.3,1.13,1.04,1.43,1.1.24,1.36.71.56,1.02-.26.1-.48.44-.48.75,0,.34-.3.63-.76.71-.64.12-.76.02-.72-.62h0ZM253.2,21.23c-.55-.2-.51-.73.06-.73.53,0,.95.53.58.73-.13.08-.43.07-.65,0h0ZM301.74,20.61c-.18-.46-.25-.91-.17-.99.26-.26.83.25.83.74,0,.25.14.46.32.46s.32.14.32.32c0,.68-.99.28-1.3-.52ZM304.7,20.92c.08-.44-.07-.56-.59-.49-.8.11-1.14-.27-.77-.86.19-.31.41-.33.86-.06.33.19,1.02.5,1.54.68.99.35.86.72-.39,1.1-.6.18-.72.12-.64-.36ZM313.92,21.14c0-.18.15-.32.34-.32s.25.14.14.32-.26.32-.34.32-.14-.14-.14-.32ZM334.08,20.98c0-.26.14-.48.32-.48s.32.22.32.48-.14.48-.32.48-.32-.22-.32-.48ZM355.06,21.17c-.21-.35.72-.75,1.13-.49.16.1.21.32.11.48-.23.38-1.01.39-1.25.01h0ZM362.24,21.12c0-.19.14-.25.32-.14s.32.26.32.34-.14.14-.32.14-.32-.15-.32-.34ZM372.48,20.66c0-.9.37-1.03.95-.33.44.54.19,1.13-.49,1.13-.28,0-.46-.32-.46-.8h0ZM376.85,20.89l-.91-.46.9-.94c.71-.74.81-1,.47-1.21-.34-.21-.28-.35.28-.65,1.09-.58,1.52.02,1.01,1.43-.45,1.26-.27,1.83.49,1.54.34-.13.47-.05.37.22-.2.59-1.54.63-2.62.08ZM393.14,21.17c-.21-.34.71-1.17.98-.9.27.27-.12,1.18-.5,1.18-.17,0-.39-.13-.49-.28ZM231.04,20.66c0-.29.15-.48.34-.42.19.06.34.25.34.42s-.15.36-.34.42c-.19.06-.34-.13-.34-.42ZM292.48,20.82c0-.18.14-.32.32-.32s.32.14.32.32-.14.32-.32.32-.32-.14-.32-.32ZM293.3,20.01c-.64-1.2-.54-1.64.32-1.31.31.12.45.4.34.7-.1.27-.06.42.09.32.39-.24,1.1.67.84,1.09-.39.63-.98.33-1.59-.79h0ZM315.22,20.52c-.24-.45-.23-.69.02-.85.33-.2.91.36.92.88.01.56-.64.53-.94-.03ZM318.4,20.82c0-.18.14-.32.32-.32s.32.14.32.32-.14.32-.32.32-.32-.14-.32-.32ZM320.03,20.83c-.48-.3-.26-1.3.29-1.3.47,0,.79.94.44,1.29-.16.16-.48.17-.73.01ZM323.84,20.66c-.33-.39-.3-.48.12-.48.29,0,.52.22.52.48s-.05.48-.12.48-.3-.22-.52-.48ZM329.75,20.8c-.32-.52.39-1.17.82-.74.23.23.19.45-.13.72-.34.29-.52.29-.69.02h0ZM348.16,20.66c0-.26.14-.48.32-.48s.32.22.32.48-.14.48-.32.48-.32-.22-.32-.48ZM365.4,21.06c-.16-.31-.15-1.52,0-1.52.33,0,.97,1.19.76,1.41-.19.19-.69.27-.77.11h0ZM382.72,20.63c0-.57.69-.47.89.13.07.21-.1.38-.38.38s-.51-.23-.51-.51h0ZM394.56,20.82c0-.18.22-.32.48-.32s.48.14.48.32-.22.32-.48.32-.48-.14-.48-.32ZM399.2,20.49c.15-.46.08-.81-.2-.98-.57-.35-.19-.69.49-.42.65.25.58,1.76-.09,1.98-.32.1-.37-.05-.21-.58ZM245.84,20.6c-.46-.18-.54-.75-.11-.75.16,0,.37.22.47.48s.15.47.11.45c-.04-.01-.25-.1-.47-.19ZM260.31,20.47c-.12-.19-.13-.42-.04-.51.23-.23.85.17.85.55,0,.41-.55.38-.81-.04h0ZM270.14,20.48c-.41-.16-.64-.45-.53-.64.12-.19.4-.27.63-.18.23.09.51-.07.62-.35.17-.44.27-.41.71.22.43.61.44.78.07,1.01-.53.33-.56.33-1.5-.05h0ZM296,20.48c0-.19.14-.25.32-.14s.32.26.32.34-.14.14-.32.14-.32-.15-.32-.34ZM327.84,20.5c.11-.18.26-.32.34-.32s.14.14.14.32-.15.32-.34.32-.25-.14-.14-.32ZM331.57,20.51c.14-.41.58-.49.62-.1.01.13-.15.29-.36.36-.21.07-.33-.04-.26-.26ZM337.76,20.5c-.11-.18-.05-.32.14-.32s.34.14.34.32-.06.32-.14.32-.23-.14-.34-.32ZM349.76,20.34c0-.26.14-.48.32-.48s.32.22.32.48-.14.48-.32.48-.32-.22-.32-.48ZM380.32,20.5c-.32-.51.14-.96.98-.96.57,0,.78.17.78.64s-.21.64-.78.64c-.43,0-.87-.14-.98-.32ZM203.92,20.14c.09-.25.33-.41.53-.37.24.05.3-.2.17-.72-.11-.44-.22-1.16-.25-1.6-.03-.44-.15-.8-.29-.8s-.24-.2-.24-.45-.22-.53-.48-.63c-.83-.32-.53-1.02.48-1.1.64-.05.96.07.96.37,0,.25.23.63.5.86.45.38.45.44,0,.7-.7.39-.62.67.3,1.1.69.32.86.28,1.27-.31.38-.55.55-.6.88-.27.32.33.29.49-.16.83-.34.25-.49.63-.37.94.26.69-.17.67-.69-.04-.35-.47-.48-.49-.84-.12-.33.35-.34.47-.02.59.22.08.4.35.4.6s-.18.46-.4.46c-.22,0-.74.1-1.16.21-.57.15-.72.09-.6-.24h0ZM279.19,20.05c-.46-.34-.52-.54-.25-.88.2-.24.41-.79.47-1.23.06-.45.32-.8.59-.8.32,0,.45.26.39.8-.05.44-.12,1.11-.16,1.49-.1.98-.35,1.13-1.04.62ZM299.52,20.18c0-.18-.22-.32-.48-.32s-.48-.14-.48-.31.44-.23,1.04-.11c1.31.25,1.46.38.87.76-.61.39-.95.38-.95-.01h0ZM322.42,20.2c-.1-.17-.05-.39.12-.49.17-.1.39-.05.49.12.1.17.05.39-.12.49-.17.1-.39.05-.49-.12ZM363.76,20.3c-.11-.11-.11-.4-.02-.65.13-.35.28-.37.62-.09.24.2.44.49.44.65,0,.32-.75.38-1.04.09h0ZM261.44,19.67c0-.57.69-.47.89.13.07.21-.1.38-.38.38s-.51-.23-.51-.51h0ZM277.12,19.86c0-.18.14-.32.3-.32s.39.14.5.32c.11.18-.03.32-.3.32s-.5-.14-.5-.32ZM313.34,19.83c.06-.19.25-.34.42-.34s.36.15.42.34c.06.19-.13.34-.42.34s-.48-.15-.42-.34ZM384.76,19.72c-.11-.28-.12-.69-.03-.93.1-.27-.23-.59-.91-.85-.59-.23-1-.54-.91-.69.26-.42,1.97-.31,2.18.13.15.32.22.32.37,0,.1-.22.39-.4.64-.4.38,0,.39.12.05.72-.22.4-.53.81-.69.93s-.2.43-.09.71c.11.28.05.59-.12.69-.17.1-.39-.03-.5-.31h0ZM387.66,19.83c-.27-.44.33-1.07.78-.8.37.23.13,1.15-.29,1.15-.15,0-.36-.16-.48-.35ZM236.59,19.63c-.77-.1-1.04-.31-1.16-.92-.29-1.54,1.91-1.67,2.46-.15.1.27.26.68.37.9.1.22,0,.38-.24.35-.23-.03-.88-.11-1.43-.18ZM248.64,19.5c0-.19-.31-.78-.68-1.3-.44-.62-.57-1.06-.37-1.27.36-.36,1.5,1.17,1.21,1.63-.1.16-.03.38.15.49.42.26.42.8,0,.8-.18,0-.32-.16-.32-.35h0ZM352.52,19.35c-.13-.33-.41-.43-.83-.3-.86.27-.85-.51,0-1.05.53-.33.78-.31,1.39.09.41.27.99.4,1.28.29.81-.31.62.37-.26.95-.99.65-1.33.65-1.58.01h0ZM213.83,19.16c.2-.59.89-.69.89-.13,0,.28-.23.51-.51.51s-.45-.17-.38-.38ZM239.42,19.19c.06-.19.25-.34.42-.34s.36.15.42.34c.06.19-.13.34-.42.34s-.48-.15-.42-.34ZM259.74,19.33c-.26-.26.03-.76.44-.76.17,0,.3.22.3.48,0,.49-.38.64-.74.28ZM264.97,19.14c0-.69.45-1.14,1.36-1.37.71-.18.88-.11.88.34,0,.66-.88,1.41-1.68,1.42-.31,0-.56-.17-.56-.39ZM282.64,18.98c-.5-.34-.72-.8-.72-1.54,0-.58-.14-1.42-.3-1.86-.4-1.06.5-3.48,1.24-3.32.33.07.49.41.45.97-.03.48.07.87.24.87.6,0,.28.66-.49,1.01-.64.29-.73.47-.47.95.18.33.5.59.72.59.37,0,1.5,1.09,1.5,1.44s-.96.12-1-.24c-.02-.22-.13.05-.24.6-.19.96-.23.98-.92.52h0ZM308.63,19.2c-.11-.18-.02-.56.2-.83.37-.44.45-.44.82.06.22.31.33.68.24.83-.23.38-1.01.34-1.26-.06ZM343.36,19.22c0-.18.15-.32.34-.32s.25.14.14.32-.26.32-.34.32-.14-.14-.14-.32ZM345.28,19.25c0-.15.19-.44.42-.63.47-.39,1.82-.14,1.82.34,0,.18-.29.24-.64.15-.35-.09-.64-.04-.64.12s-.22.29-.48.29-.48-.13-.48-.28h0ZM371.87,19.09c-.35-.42-.34-.54.09-.7.86-.33,1.23-.03.76.62-.39.53-.47.54-.85.08h0ZM375.68,19.22c0-.18.14-.32.32-.32s.32.14.32.32-.14.32-.32.32-.32-.14-.32-.32ZM389.92,19.22c.11-.18.26-.32.34-.32s.14.14.14.32-.15.32-.34.32-.25-.14-.14-.32ZM196.94,18.86c-.15-.24-.09-.46.12-.53.41-.14.52-1.22.14-1.43-.13-.07-.07-.09.13-.05.21.05.45-.11.54-.34.21-.56-.11-1.77-.47-1.77-.48,0-.32-.62.41-1.6.38-.51.81-.86.96-.77.15.09.27-.06.27-.33,0-.63.23-.63.87,0,.28.28.78.43,1.12.34.93-.24,1.08.67.29,1.73-.56.75-.6.94-.2.94.6,0,.67,1.61.11,2.18-.66.66-.96.42-.74-.58.16-.74.1-.96-.29-.96-.29,0-.61-.43-.76-1.02-.32-1.25-.89-1.5-1.15-.51-.11.4-.05.78.12.84.17.06.31.29.31.51s.29.66.64.98.64.84.64,1.17.14.59.32.59.32.15.32.33-.47.31-1.04.29c-.57-.02-1.35.06-1.72.18-.42.13-.78.06-.94-.19h0ZM201.92,18.78c0-.95.74-2.13,1.34-2.13.49,0,.54.11.27.62-.18.34-.24.84-.14,1.12.11.28.05.5-.13.5s-.56.09-.83.19c-.33.13-.51.02-.51-.3h0ZM241.04,18.77c-.4-.19-.72-.46-.72-.61s-.14-.18-.31-.07c-.58.36-1.68-.49-1.5-1.16.1-.38-.09-.86-.5-1.24l-.66-.61.82-.37c.7-.32.8-.53.68-1.5-.17-1.35-.34-1.68-.9-1.68-.35,0-.84-1.32-.79-2.16.02-.43.99-.05,1.83.72.66.61.74.85.43,1.22-.31.37-.28.5.13.66.28.11.46.37.39.59-.07.21.28.73.77,1.15,1.1.93,1.15,1.34.14,1.34-1.43,0-1.28,1.53.24,2.53.5.33,1.14.54,1.43.47.53-.13,1.6.37,1.32.62-.39.34-2.15.4-2.79.09h0ZM276.37,19c-.12-.12-.21-.4-.21-.64,0-.48.82-.58,1.1-.14.22.35-.6,1.07-.89.78ZM316.48,18.58c0-.62.34-.83.72-.45.26.26-.08,1.09-.44,1.09-.16,0-.29-.29-.29-.64h0ZM320,18.82c0-.68.54-1.29.92-1.06.25.16.26.4.02.84-.37.7-.95.83-.94.22ZM336.96,18.7c0-.41.1-.44.45-.15.29.24.49.26.56.05.13-.38,1.55-.08,1.55.34,0,.16-.58.28-1.28.28-.97,0-1.28-.13-1.28-.52ZM392.48,18.9c-.19-.3.03-.44.56-.36.13.02.24-.19.24-.46s.13-.42.29-.32c.16.1.35.01.42-.2.13-.38.89-.1.89.32,0,.23-1.69,1.33-2.03,1.33-.09,0-.26-.14-.37-.32ZM268.8,18.27c0-.74.49-1.1,1.15-.85.37.14.4.32.13.83-.44.82-1.28.84-1.28.02ZM278.13,18.59c.14-.41.58-.49.62-.1.01.13-.15.29-.36.36-.21.07-.33-.04-.26-.26ZM299.95,18.43c.11-.3.21-.6.21-.68s.22-.13.48-.13c.7,0,.59.56-.21.99-.59.32-.66.29-.48-.17ZM357.92,18.59c-.61-.25-.61-.28-.06-.5.38-.15.77-.05,1.11.29.43.43.44.52.06.5-.26-.01-.76-.14-1.11-.29ZM370.04,18.52c-.14-.22.06-.57.46-.84.38-.25.69-.64.69-.85s.38-.38.88-.36c1.15.04,1.27,1.26.14,1.42-.41.06-.82.31-.91.56-.21.55-.94.6-1.26.08h0ZM254.31,17.72c-.22-1.15-.06-1.31.41-.42.24.45.26.81.07,1.01-.2.2-.37-.02-.48-.59h0ZM261.12,17.94c0-.35.14-.64.32-.64s.32-.22.32-.48c0-.66.75-.6,1.39.11.66.73.67,1.01.05,1.01-.26,0-.48.14-.48.32s-.36.32-.8.32c-.59,0-.8-.17-.8-.64h0ZM297.66,17.46c.04-.62.17-1.12.3-1.12.31,0,.67,1.57.44,1.93-.42.67-.81.24-.74-.81h0ZM325.28,18.31c-.97-.18-1.5-.74-1.33-1.39.09-.36-.11-.77-.52-1.05-.37-.26-.56-.58-.43-.71.13-.13.36-.04.5.19.15.24.65.43,1.13.43.69,0,.83.12.71.6-.1.39.01.6.32.6.26,0,.56-.29.65-.64.18-.71.36-.77,1.01-.35.57.36.18.99-.6.99-.38,0-.64.27-.7.73-.07.53-.27.69-.74.61h0ZM340.32,18.26c.11-.18.26-.32.34-.32s.14.14.14.32-.15.32-.34.32-.25-.14-.14-.32ZM365.18,18.23c.06-.19.25-.34.42-.34s.36.15.42.34c.06.19-.13.34-.42.34s-.48-.15-.42-.34ZM388.4,18.32c-1.27-.16-1.17-1.06.11-.96.66.05,1.09-.11,1.3-.47.42-.75,1.24-.69,1.24.09,0,.35-.17.64-.37.64s-.6.18-.88.41-.9.36-1.39.3h0ZM398.23,18.23c-.12-.19-.13-.42-.04-.51.23-.23.85.17.85.55,0,.41-.55.38-.81-.04h0ZM243.76,17.91c-.6-.35-.77-1.25-.24-1.25.18,0,.32.14.32.32s.29.32.64.32.64.21.64.48c0,.55-.55.61-1.36.13ZM285.76,17.94c0-.18.14-.32.32-.32s.32.14.32.32-.14.32-.32.32-.32-.14-.32-.32ZM296.22,18.05c-.45-.45-.2-1.07.44-1.07.45,0,.63.17.56.53-.11.59-.66.88-1,.54ZM304,17.94c0-.18.14-.32.32-.32s.32.14.32.32-.14.32-.32.32-.32-.14-.32-.32ZM318.79,17.76c-.54-.61.03-1.75.87-1.75.77,0,1.07.81.49,1.29-.25.21-.38.51-.28.66.29.47-.63.29-1.07-.21ZM356.16,17.97c0-.15.2-.45.45-.66.37-.31.42-.26.28.28-.17.64-.74.93-.74.38h0ZM367.68,17.65c0-.33.22-.78.48-1,.43-.36.43-.44-.04-.78-.45-.33-.46-.48-.09-1.08.24-.38.69-.7,1-.7.61,0,.74.82.26,1.59-.19.3-.17.62.05.89.26.31.2.58-.23,1.05-.72.8-1.43.82-1.43.03ZM246.08,17.62c0-.18.22-.32.48-.32s.48.14.48.32-.22.32-.48.32-.48-.14-.48-.32ZM250.24,17.62c0-.18.14-.32.32-.32s.32.14.32.32-.14.32-.32.32-.32-.14-.32-.32ZM255.68,17.64c0-.84.47-1.31,1.31-1.31,1.1,0,1.13.11.29.96-.66.66-1.6.86-1.6.35ZM293.21,17.55c-.76-.37-1.22-1.32-.89-1.85.36-.58.8-.34.8.43,0,.64.13.73.83.6.77-.15.81-.1.47.52-.2.38-.4.67-.43.66-.04-.01-.39-.18-.78-.37h0ZM308.35,17.66c-.14-.22-.16-.49-.06-.6.29-.29.6.13.44.6-.11.33-.18.32-.39,0h0ZM311.89,17.35c-.41-.45-.44-.67-.15-.96.51-.51,1.05-.48,1.52.09.31.38.29.57-.1.96-.61.61-.64.61-1.28-.09h0ZM313.92,17.46c0-.26.14-.48.32-.48s.32.22.32.48-.14.48-.32.48-.32-.22-.32-.48ZM249.28,17.3c0-.18.14-.32.32-.32s.32.14.32.32-.14.32-.32.32-.32-.14-.32-.32ZM252,16.98c.3-1.02.43-1.15.77-.78.16.17.01.57-.36.94l-.64.64.24-.8ZM273.76,17.3c-.11-.18-.05-.32.14-.32s.34.14.34.32-.06.32-.14.32-.23-.14-.34-.32ZM314.94,17.27c.06-.19.25-.34.42-.34s.36.15.42.34c.06.19-.13.34-.42.34s-.48-.15-.42-.34ZM329.45,17.3c-.35-.57.17-1.01.9-.77.38.13,1.03.2,1.44.17.47-.03.7.09.61.34-.16.49-2.67.7-2.95.25ZM397.31,17.16c.15-.39.01-.6-.47-.72-.37-.1-.68-.38-.68-.62,0-.64.89-.55,1.02.11.09.48.19.46.79-.19,1.01-1.09,1.83-.79,1.95.71.08,1.03,0,1.2-.47,1.1-.37-.08-.54-.37-.49-.82.05-.45-.1-.71-.4-.71-.26,0-.48.2-.48.44s-.22.62-.49.85c-.41.34-.45.32-.28-.14h0ZM265.09,16.86c-.1-.26-.02-.79.19-1.17.31-.57.27-.77-.22-1.15-.55-.43-.56-.47-.03-.79.6-.36.77-1.26.24-1.26-.57,0-.37-2.24.22-2.47.3-.12.6-.04.67.17.07.21.49.38.94.38.65,0,.78.12.64.64-.09.35-.04.72.12.82.52.32.31.78-.35.78-.72,0-.76.11-.78,2.56-.02,1.58-.09,1.77-.74,1.86-.42.06-.8-.1-.9-.37ZM277.5,16.96c.08-.23.33-.48.56-.56.24-.08.36.04.28.28-.08.23-.33.48-.56.56-.24.08-.36-.04-.28-.28ZM284.72,16.91c-.25-.74.17-1.94.72-2.08.37-.1.5-.36.4-.76-.11-.41,0-.61.34-.61.82,0,1,.71.33,1.25-.34.28-.72.75-.83,1.05-.16.42-.04.52.56.48.42-.03.77.09.78.26,0,.18-.27.32-.61.33-.34,0-.72.11-.85.24-.34.34-.69.28-.84-.16ZM300.48,16.96c0-.19.14-.25.32-.14s.32.26.32.34-.14.14-.32.14-.32-.15-.32-.34ZM306.56,16.98c0-.18.14-.32.32-.32s.32.14.32.32-.14.32-.32.32-.32-.14-.32-.32ZM344,16.82c0-.26.14-.48.32-.48s.32.22.32.48-.14.48-.32.48-.32-.22-.32-.48ZM364.71,17.1c-.35-.35.07-.77.77-.77.38,0,.59.17.51.4-.15.46-.97.69-1.29.37ZM373.93,16.67c-.73-.81-.61-.94.73-.73.75.11,1.03.31.96.68-.15.77-1.01.8-1.68.05h0ZM234.24,16.25c0-.4-.29-.98-.64-1.28s-.64-.77-.64-1.03.28-.48.64-.48c.42,0,.64.21.64.62,0,.47.26.64,1.04.72.78.08,1.06.27,1.14.79.07.5.26.64.72.52.44-.11.62,0,.62.39,0,.55-.37.55-2.32-.03-.31-.09-.56-.01-.56.18s-.14.34-.32.34-.32-.33-.32-.73h0ZM244.21,16.69c-.47-.3-.23-1.64.3-1.64.16,0,.3-.2.3-.45s.22-.53.48-.63c.29-.11.48,0,.48.29,0,.26-.15.47-.34.47s-.24.15-.13.34c.25.4-.08,1.9-.42,1.9-.13,0-.43-.13-.67-.28h0ZM267.45,16.8c-.37-.37.14-1.1.77-1.1.43,0,.59.18.52.56-.11.57-.93.91-1.29.54h0ZM274.98,15.87c.17-1.07.13-1.17-.51-1.08-.39.05-.7-.05-.7-.22,0-.24,1.73-.28,1.97-.04.03.03.1.55.16,1.16.09.88-.01,1.14-.5,1.23-.53.11-.58-.02-.42-1.05ZM341.97,16.43c-.31-1.13-.07-2.49.47-2.59.43-.08.52.17.48,1.41-.05,1.51-.65,2.26-.95,1.18h0ZM381.84,16.58c.07-.22.41-.45.75-.52.34-.06.71-.26.82-.44.11-.18.37-.22.57-.1.51.31.12.82-.63.82-.34,0-.62.14-.62.32s-.23.32-.51.32-.45-.18-.37-.4h0ZM248.44,16.18c-.1-.26-.28-.42-.41-.34s-.22-.36-.22-.96.04-1.1.08-1.1.59.3,1.22.67c1.26.75,1.47,1.25.51,1.25-.43,0-.57.15-.45.48.1.26.02.48-.18.48s-.45-.22-.55-.48ZM254.72,15.99c0-.78.75-.67.9.13.06.32-.1.53-.4.53s-.5-.27-.5-.67ZM272.32,16.02c0-.36-.21-.64-.48-.64s-.48-.22-.48-.5-.13-.42-.29-.32c-.16.1-.37,0-.47-.22-.12-.28-.34-.18-.71.32-.93,1.27-1.83.81-1.09-.56.21-.4.21-.67,0-.8-.51-.31-.39-2.08.14-2.08.25,0,.5-.31.56-.69.06-.38.28-.75.5-.83.58-.19.5,1.18-.08,1.41-.52.2-.66,1.57-.19,1.86.16.1.69.03,1.17-.15.48-.18.96-.21,1.07-.06.1.15.45.37.78.5.46.17.55.41.38,1.07-.13.53-.07.94.17,1.08.51.31.13,1.26-.5,1.26-.28,0-.49-.28-.49-.64ZM271.94,13.29c-.1-.1-.42-.08-.73.04-.43.17-.46.27-.13.47.43.26,1.18-.19.85-.51ZM276.62,15.01c.01-1.27-.12-1.73-.61-2.07-.58-.4-.59-.48-.12-.95.79-.79,1.81-.31,1.93.93.07.74.28,1.05.74,1.12.35.05.89.59,1.19,1.2.54,1.07.53,1.1-.07,1.1-.34,0-.79-.31-.99-.68-.2-.38-.46-.56-.57-.4-.11.16-.5.53-.86.84-.65.55-.66.53-.64-1.08ZM295.43,16.28c.2-.59.89-.69.89-.13,0,.28-.23.51-.51.51s-.45-.17-.38-.38h0ZM307.76,16.43c-.31-.08-.56-.37-.56-.64,0-.32.18-.42.51-.3.28.11.71.19.96.19s.45.22.45.48c0,.48-.3.54-1.36.26ZM336.81,16.36c-.24-.38.37-.76.79-.5.36.22.12.8-.33.8-.16,0-.37-.13-.47-.3ZM349.12,16.34c-.34-.22-.38-.4-.13-.65.43-.43,1.41-.08,1.41.51,0,.51-.58.57-1.28.13h0ZM356.48,16.38c0-.15.36-.21.8-.12s.8.21.8.28-.36.12-.8.12-.8-.12-.8-.28ZM386,16.44c-.38-.15-.59-1.71-.23-1.71.46,0,1.75,1.09,1.75,1.48,0,.44-.74.55-1.52.23h0ZM208,16c0-.19.14-.25.32-.14.18.11.32.26.32.34s-.14.14-.32.14-.32-.15-.32-.34ZM208.96,15.88c0-.28.23-.51.51-.51s.45.17.38.38c-.2.59-.89.69-.89.13ZM253.44,15.87c0-.27.14-.5.32-.5s.32.14.32.3-.14.39-.32.5c-.18.11-.32-.03-.32-.3ZM258.13,15.75c-.57-.63-.7-1.33-.25-1.33.16,0,.7.22,1.2.48.5.26.74.48.52.48-.22,0-.4.22-.4.48,0,.65-.43.6-1.07-.11h0ZM260.48,16.02c0-.18.14-.32.32-.32s.32.14.32.32-.14.32-.32.32-.32-.14-.32-.32ZM289.84,15.69l-.72-.58.8-.19c1.78-.41,2.86.32,1.44.98-.66.31-.92.27-1.52-.21ZM301.63,16.1c-.13-.13-.62-.24-1.09-.24-1.12,0-1.12-.82,0-1.19.69-.23,1-.14,1.68.49.46.42.83.86.83.98,0,.28-1.12.25-1.42-.04h0ZM351.25,16.12c-.76-.76.25-.98,1.21-.26.6.45.59.47-.19.47-.44,0-.9-.1-1.02-.21ZM361.04,16.19c.13-.15.08-.47-.12-.71-.28-.34-.21-.43.32-.43.82,0,.87.41.12.99-.31.24-.45.3-.32.15ZM370.24,15.82c0-.31.18-.45.46-.34.6.23,1.21-.53.95-1.19-.22-.57-.12-.62.64-.33.87.34.57,1.3-.58,1.85-1.35.64-1.47.64-1.47,0h0ZM377.6,15.98c0-.19.78-.61,1.15-.61.07,0,.13.21.13.46s-.27.44-.64.41c-.35-.03-.64-.15-.64-.27h0ZM256.48,15.7c-.11-.18.03-.32.3-.32s.5.14.5.32-.14.32-.3.32-.39-.14-.5-.32ZM376,15.53c0-.27.32-.63.72-.8.6-.26.55-.28-.32-.12-.65.12-1.04.06-1.04-.16,0-.19.14-.35.31-.35s.24-.19.15-.42c-.09-.23-.48-.41-.87-.4-.66.02-.71-.12-.69-1.88.01-1.23.16-1.95.43-2.04.25-.08.37.09.3.46-.06.33.04.67.21.76.17.09.36-.24.42-.72.13-1.11.62-1.13,1.03-.06.46,1.22.39,1.42-.49,1.42-.47,0-.8.18-.8.45,0,.28.22.39.6.29.33-.09.7,0,.81.18.11.18.38.27.6.19.5-.19,1.21,1.33.96,2.04-.5,1.41-2.33,2.33-2.33,1.17h0ZM232.2,15.47c-.36-.36-.22-.74.28-.74.26,0,.48.14.48.3,0,.4-.5.69-.76.44ZM296.18,14.89c-.29-.44-.49-1.05-.43-1.35.06-.33-.16-.59-.55-.67-.35-.07-.89-.39-1.2-.72-.31-.33-.77-.51-1.02-.42-.93.36-1.16-.22-.46-1.2.65-.91.71-.93,1.29-.41.33.3.61.78.61,1.06s.27.68.59.88c.48.3.69.25,1.14-.27.44-.51.64-.56,1.01-.25.61.51.59.95-.05.95-.36,0-.45.17-.29.56.78,1.93.33,3.27-.61,1.83ZM332,14.98c-.47-1.47-.48-1.84-.04-1.84.24,0,.56.25.69.56.39.88.37,2-.05,2-.21,0-.48-.32-.61-.72h0ZM347.89,15.39c.14-.41.58-.49.62-.1.01.13-.15.29-.36.36-.21.07-.33-.04-.26-.26ZM355.9,15.2c.14-.7.71-.74.84-.06.07.35-.09.56-.42.56-.31,0-.48-.21-.42-.5ZM364.73,15.07c-.7-.69-.19-1.3,1.09-1.3.56,0,1.01-.24,1.23-.64.23-.43.24-.64.01-.64-.5,0-.39-.55.15-.76.33-.13.62.14.91.85.49,1.2.17,1.58-1.63,1.98-.57.12-.97.35-.87.5.33.53-.33.54-.88.01h0ZM379.42,15.49c-.26-.26.03-.76.44-.76.17,0,.3.22.3.48,0,.49-.38.64-.74.28ZM261.44,14.97c0-.22.29-.66.64-.96.73-.63.76-.58.33.54-.32.85-.97,1.13-.97.41ZM303.04,15.04c0-.19.14-.25.32-.14s.32.26.32.34-.14.14-.32.14-.32-.15-.32-.34ZM310.4,14.9c0-.26.14-.48.32-.48s.32.22.32.48-.14.48-.32.48-.32-.22-.32-.48ZM334.93,15.13c-.13-.2-.44-.29-.7-.19-.32.12-.47-.03-.47-.49,0-.37.11-.67.24-.66.52.02,1.42.93,1.29,1.31-.1.3-.19.31-.36.03ZM338.46,15.17c-.3-.3.06-.76.6-.76.25,0,.46.22.46.48,0,.48-.68.66-1.06.28ZM339.84,15.06c0-.18.15-.32.34-.32s.25.14.14.32-.26.32-.34.32-.14-.14-.14-.32ZM349.76,15.06c0-.18.15-.32.34-.32s.25.14.14.32-.26.32-.34.32-.14-.14-.14-.32ZM359.56,15.15c-.36-.36-.22-.74.28-.74.26,0,.48.14.48.3,0,.4-.5.69-.76.44ZM373.76,15.06c0-.18.28-.32.62-.32s.71.14.82.32c.11.18-.16.32-.62.32s-.82-.14-.82-.32ZM381.44,14.59c0-1.03.52-1.32.94-.53.5.93.41,1.31-.3,1.31-.47,0-.64-.21-.64-.78h0ZM393.59,14.89c-.22-.27-.31-.58-.2-.69.11-.11.21-.04.21.16s.22.28.48.18c.3-.12.48,0,.48.33,0,.65-.44.66-.97.03ZM205.18,14.72c.08-.23.33-.48.56-.56.24-.08.36.04.28.28-.08.23-.33.48-.56.56-.24.08-.36-.04-.28-.28ZM211.06,14.76c-.1-.17-.05-.39.12-.49.17-.1.39-.05.49.12.1.17.05.39-.12.49-.17.1-.39.05-.49-.12ZM242.72,14.74c-.1-.16.12-.6.48-.96s.58-.8.47-.97c-.11-.17-.09-.62.03-1l.22-.69.6.77.6.77.2-.72c.21-.77.6-.93.93-.39.25.41-1.24,2.21-2.44,2.94-.5.31-.98.42-1.09.25ZM313.6,14.6c0-.28.13-.5.3-.5s.34-.22.4-.5c.09-.44.18-.44.74-.02.71.52.48.94-.72,1.3-.53.16-.72.09-.72-.28ZM336.19,14.79c-.11-.18-.05-.42.15-.54.49-.3.81.11.4.52-.23.23-.41.24-.54.02ZM280.15,13.86c.26-1.05.35-1.16.74-.92.46.28.05,1.8-.49,1.8-.36,0-.42-.21-.26-.88ZM289.01,14.21c.06-.32.38-.64.7-.7.42-.08.55.05.47.47-.06.32-.38.64-.7.7-.42.08-.55-.05-.47-.47ZM318.14,13.93c-.87-1-.89-1.44-.06-1.44.35,0,.64.16.64.36s.24.54.53.75c.29.21.43.55.3.76-.34.55-.64.46-1.41-.43h0ZM320.32,13.97c0-.87.78-1.7,1.11-1.18.11.18.06.6-.12.93s-.23.7-.12.81-.04.2-.33.2c-.35,0-.53-.26-.53-.76h0ZM325.76,14.12c0-.36.06-.66.13-.66s.37-.09.67-.21c.42-.16.51-.04.43.56-.14.98-1.23,1.25-1.23.31ZM361.63,14.15c-.32-.59-.14-1.97.26-1.97.31,0,1,1.97.8,2.29-.28.45-.73.31-1.06-.32h0ZM386.93,14.43c.07-.21.23-.37.36-.36.38.04.31.48-.1.62-.21.07-.33-.04-.26-.26h0ZM220.74,13.98c-.22-.24-.68-.36-1.02-.27-.43.11-.57.02-.46-.29.09-.25-.11-.79-.44-1.21-.68-.88-.77-2.05-.19-2.52.49-.4,2.16-.42,2.16-.03,0,.15.36.28.8.28.5,0,.8-.18.8-.48,0-.26-.14-.48-.32-.48s-.32-.22-.32-.48c0-.32.32-.48.96-.48.87,0,.96.1.96,1.03,0,1.01.01,1.02.48.35.26-.38.4-.89.3-1.15-.14-.36.02-.43.66-.3.67.13.83.33.78,1-.09,1.43,0,1.64.68,1.64.39,0,.61.17.53.4-.07.22-.3.39-.51.37s-.73-.05-1.17-.08c-.49-.03-.8-.24-.8-.55,0-.37-.19-.44-.72-.28-.93.29-1.55.79-1.36,1.1.08.14-.06.43-.32.64-.69.57-.59,1.06.18.86.58-.15.61-.1.24.36-.86,1.1-1.31,1.24-1.92.58h0ZM220.7,11.29c-.47-.47-.86-.69-.86-.48,0,.46,1.33,1.75,1.56,1.51.09-.09-.22-.55-.7-1.03h0ZM235.2,14.1c0-.18.22-.32.5-.32s.41.14.3.32-.33.32-.5.32-.3-.14-.3-.32ZM251.94,14.16c-.55-.35.04-1.16.67-.92.28.11.51.42.51.69,0,.52-.56.64-1.18.24ZM260.28,13.94c-.19-.5.3-1.11.92-1.12.42,0,.26.86-.24,1.27-.39.32-.52.29-.69-.15h0ZM287.42,14.08c.08-.23.33-.48.56-.56.24-.08.36.04.28.28-.08.23-.33.48-.56.56-.24.08-.36-.04-.28-.28ZM316.16,14.1c0-.18.14-.32.32-.32s.32.14.32.32-.14.32-.32.32-.32-.14-.32-.32ZM323.73,14.2c-.37-.37-.23-.75.27-.75.26,0,.48.22.48.48,0,.5-.38.63-.75.27ZM382.72,13.96c0-.25-.14-.5-.31-.56-.17-.06-.35-.59-.39-1.17-.04-.59-.31-1.19-.6-1.34-.66-.35-.74-2.16-.12-2.78.4-.4.49-.4.65.04.11.28.1.9,0,1.38-.19.83-.17.84.28.27.26-.33.4-.72.32-.86-.3-.48.43-.6.82-.13.32.38.29.7-.15,1.62-.56,1.17-.45,2.64.22,3.06.37.23.07.92-.41.92-.17,0-.3-.2-.3-.45h0ZM202.75,13.82c-.14-.22-.16-.49-.06-.6.29-.29.6.13.44.6-.11.33-.18.32-.39,0h0ZM241.42,13.75c-.28-.45.34-1.07.79-.79.51.31.43,1.14-.11,1.14-.25,0-.56-.16-.68-.35ZM299.19,13.6c-.32-.38-.32-.58-.03-.87.29-.29.42-.22.56.32.1.38.42.76.71.84.38.1.34.15-.15.18-.37.02-.87-.18-1.09-.46h0ZM303.04,13.62c0-.26.22-.48.48-.48s.48.22.48.48-.22.48-.48.48-.48-.22-.48-.48ZM340.48,13.78c0-.18.14-.32.3-.32s.39.14.5.32c.11.18-.03.32-.3.32s-.5-.14-.5-.32ZM345.92,13.78c0-.18.16-.32.36-.32s.56-.25.79-.56c.25-.32.43-.4.44-.17,0,.24.23.31.57.18.48-.18.5-.14.14.31-.23.29-.63.44-.88.35-.25-.1-.46-.02-.46.18s-.22.35-.48.35-.48-.14-.48-.32h0ZM359.83,13.75c-.12-.19-.13-.42-.04-.51.23-.23.85.17.85.55,0,.41-.55.38-.81-.04h0ZM372.98,13.81c-.1-.16.04-.37.3-.47.29-.11.48,0,.48.29,0,.52-.5.64-.78.18ZM380.19,13.5c-.27-.51-.6-.7-1.01-.59-.4.1-.61,0-.61-.31,0-.26.14-.38.32-.27.18.11.32-.07.32-.4,0-.63.57-1.36,1.06-1.36.16,0,.19.52.07,1.17-.14.77-.09,1.25.16,1.4.21.13.32.43.24.67-.1.3-.27.2-.55-.31h0ZM384.82,13.8c-.1-.17-.05-.39.12-.49.17-.1.39-.05.49.12.1.17.05.39-.12.49-.17.1-.39.05-.49-.12ZM388.8,13.63c0-.29.19-.4.48-.29.26.1.4.31.3.47-.28.45-.78.33-.78-.18ZM391.68,13.76c0-.19.14-.25.32-.14s.32.26.32.34-.14.14-.32.14-.32-.15-.32-.34ZM399.21,13.8c-.1-.16-.02-.4.18-.52.26-.16.26-.28,0-.44-.25-.15-.21-.4.12-.84.44-.58.47-.53.48.74,0,1.27-.35,1.76-.78,1.06h0ZM253.51,12.82c-.03-.9.55-1.44.59-.56.01.22.15.06.32-.35.3-.74,1.18-.8,1.01-.07-.05.21.06.29.24.18,1.08-.67-.44-2.38-1.58-1.77-1,.53-1.29.38-1.29-.67,0-.9.08-.98.8-.79.94.23.97.11.3-.92-.29-.44-.7-.7-.96-.59-.28.11-.46-.03-.46-.36,0-.39.17-.48.64-.33.48.15.64.06.65-.38,0-.55.03-.55.34-.02.18.31.52.56.75.56.27,0,.37.27.27.79-.12.64,0,.82.7,1,.54.14.79.37.69.65-.09.24.19.82.62,1.29.55.6.79.7.79.36,0-.41,1.51-1.12,1.75-.82.04.05-.12.56-.36,1.14-.42,1-1.07,1.42-1.07.68,0-.25-.15-.24-.48.04-.26.22-.48.59-.48.82,0,.53-.92.74-1.84.41-.54-.19-.72-.13-.72.22,0,.26-.27.47-.59.47-.44,0-.6-.25-.62-.96h0ZM255.85,9.04c-.1-.1-.36,0-.57.22-.31.32-.28.35.18.18.32-.12.49-.3.39-.4ZM291.84,13.35c0-.66.38-.88.85-.49.62.51.53.92-.21.92-.35,0-.64-.19-.64-.43h0ZM301.76,13.46c0-.18.14-.32.32-.32s.32.14.32.32-.14.32-.32.32-.32-.14-.32-.32ZM344.37,13.47c.14-.41.58-.49.62-.1.01.13-.15.29-.36.36-.21.07-.33-.04-.26-.26ZM354.88,13.46c0-.4.34-.4.96,0,.39.25.34.31-.24.32-.4,0-.72-.14-.72-.32ZM357.6,13.46c-.11-.18-.05-.32.14-.32s.34.14.34.32-.06.32-.14.32-.23-.14-.34-.32ZM358.56,13.46c-.24-.38.06-.97.5-.97.39,0,.39.87,0,1.11-.16.1-.39.04-.5-.14h0ZM363.68,13.46c-.26-.42.12-1.02.5-.79.39.24.39,1.11,0,1.11-.17,0-.39-.14-.5-.32h0ZM235.87,13.02c-.52-.63.88-1.55,1.68-1.1.51.28.49.36-.23.93-.93.74-.98.74-1.45.18ZM250.1,13.22c-.34-.09-.83-.37-1.08-.62-.26-.26-.67-.39-.92-.29-.25.1-.42,0-.39-.22.04-.22-.1-.8-.31-1.3-.57-1.38-.46-1.65.67-1.71.57-.03.86.02.64.11-.22.09-.4.29-.4.44s.2.21.45.11c.56-.21.96.37.62.91-.59.94-.39,1.23.7,1.06.59-.09,1.15-.05,1.24.09.2.33-.13,1.66-.41,1.61-.11-.02-.48-.11-.82-.19h0ZM304.72,13c-.83-.39-1.01-1.32-.19-1.01.29.11.76,0,1.04-.26.46-.41.52-.37.58.44.07,1.04-.39,1.31-1.42.83ZM311.21,13.16c-.24-.38.37-.76.79-.5.36.22.12.8-.33.8-.16,0-.37-.13-.47-.3ZM336.64,13.14c0-.18.14-.32.32-.32s.32-.22.32-.5.14-.41.32-.3c.21.13.21.41-.01.82-.35.65-.95.84-.95.3ZM369.35,12.96l-.71-.5.95-.8c.56-.47.87-.99.77-1.26-.1-.26.05-.81.32-1.24.45-.69.45-.79,0-.96-.27-.1-.62-.12-.77-.02-.47.29-.65-.4-.32-1.25.28-.74.39-.79,1.12-.46.48.22.81.64.82,1.04.01.65.03.65.46.07.26-.35.66-.52.95-.41.73.28.6.83-.28,1.16-.58.22-.85.64-1.05,1.67-.18.93-.5,1.49-.99,1.73-1.06.53-1.16.71-.71,1.24.52.62.34.62-.56-.01h0ZM394.78,13.25c-.26-.26.03-.76.44-.76.17,0,.3.22.3.48,0,.49-.38.64-.74.28ZM193.29,12.9c.03-.6.96-1.42,1.41-1.25.31.12.5.01.5-.28,0-.26.29-.47.64-.47.9,0,.8.6-.17.96-.44.17-.89.53-.99.79-.19.48-1.41.7-1.39.24ZM262.08,12.82c-.7-.44-.74-1.96-.05-2.14.31-.08.69-.46.86-.85s.63-.75,1.03-.8c1.01-.14.9.31-.26,1.06-.85.56-.96.8-.87,1.84.11,1.28.04,1.36-.71.89h0ZM288.77,12.69c-.21-.54.07-1.16.53-1.16.4,0,.39,1.19-.02,1.44-.18.11-.41-.02-.51-.29h0ZM289.92,12.88c0-.47.9-1.5,1.12-1.28.35.35-.17,1.54-.66,1.54-.25,0-.46-.12-.46-.26ZM306.96,12.5c-.76-1.22-.21-1.79.77-.8.26.26.33.48.15.48s-.25.22-.15.48c.27.7-.3.59-.77-.16ZM325.44,12.85c0-.18.14-.41.32-.52s.32-.05.32.12-.14.41-.32.52-.32.05-.32-.12ZM387.72,12.66c.1-.26.31-.4.47-.3.45.28.33.78-.18.78-.29,0-.4-.19-.29-.48ZM203.2,12.39c0-.66-.86-1.28-1.35-.97-.71.44-1.21.4-1.21-.11,0-.33.21-.44.64-.32.75.2.87-.34.15-.62-.27-.1-.78.07-1.13.39-.49.44-.72.49-1.01.2-.29-.29-.47-.15-.78.58-.26.63-.63.96-1.06.96-.65,0-.68-.4-.17-2.12.06-.2-.24-.55-.67-.78-.7-.38-.94-1.03-.36-.97.13.01.59.02,1.03.02s.8.18.8.4c0,.64,1.21,1.23,2.08,1.01.44-.11.8-.31.8-.45s.37-.32.82-.4c.6-.12.77-.04.65.28-.22.58.12,1.44.48,1.22.16-.1.29-.53.29-.96s.12-.78.27-.78.58-.27.96-.6c.73-.63.56-.98-.69-1.43-.84-.3-.37-.81.66-.71,1.4.14,2.32.54,2.32,1.02,0,.24.3.44.66.44.46,0,.63.17.55.56-.06.31-.35.56-.64.56-.29,0-.65.12-.79.27-.14.14-.12.21.06.16.18-.06.39.04.48.21.09.18-.45.53-1.19.79-1.17.4-1.32.57-1.17,1.2.2.81-.16.95-.83.33-.35-.33-.4-.3-.24.15.11.3.06.63-.11.74-.17.1-.31-.02-.31-.27ZM204.16,10.9c0-.18-.14-.32-.32-.32s-.32.14-.32.32.14.32.32.32.32-.14.32-.32ZM216.95,12.17c-.62-.47-.71-.68-.4-.99.31-.31.43-.28.59.14.11.29.41.53.65.53s.45.14.45.3c0,.59-.51.6-1.29.01ZM273.6,12.18c0-.41.16-.64.4-.56.22.07.4.33.4.56s-.18.49-.4.56c-.24.08-.4-.15-.4-.56ZM286.4,12.66c0-.28,1.09-1.44,1.35-1.44.14,0,.25.22.25.48s-.22.48-.48.48-.48.14-.48.32-.14.32-.32.32-.32-.07-.32-.16h0ZM308.48,12.63c0-.1.29-.56.64-1l.64-.81v1c0,.79-.14,1-.64,1-.35,0-.64-.09-.64-.19ZM345.48,12.34c-.1-.26-.47-.48-.82-.48-.77,0-1.18-.58-.73-1.03.23-.23.69.03,1.49.83.67.67.97,1.16.7,1.16-.25,0-.54-.22-.64-.48ZM359.87,12.55c-.11-.18-.05-.42.15-.54.49-.3.81.11.4.52-.23.23-.41.24-.54.02ZM392.64,12.5c0-.18.22-.32.5-.32s.41.14.3.32-.33.32-.5.32-.3-.14-.3-.32ZM259.52,12.02c0-.26.13-.48.3-.48s.39-.29.5-.64.34-.64.5-.64.3.29.3.64-.21.64-.48.64-.48.22-.48.48-.14.48-.32.48-.32-.22-.32-.48h0ZM281.6,12.18c0-.18-.14-.32-.32-.32s-.59-.27-.93-.61c-.53-.53-.57-.8-.29-2.08.36-1.7,1.22-2.06,1.22-.51,0,.53.13.96.28.96.38,0,.67,1.57.33,1.78-.14.09-.18.37-.08.63.1.26.09.47-.01.47s-.19-.14-.19-.32h0ZM324.16,12.26c0-.44.6-1.18.79-1,.25.25-.15,1.24-.5,1.24-.16,0-.28-.11-.28-.24ZM329.35,12.09c-.23-.28-.21-.57.08-.96.62-.85,1.14-.67,1.14.4,0,1.01-.61,1.29-1.21.56h0ZM349.08,12.26c-.02-.13-.02-.35,0-.48s-.18-.24-.44-.24-.48.14-.48.32-.14.32-.32.32c-.52,0-.36-.46.31-.88.79-.5,1.61-.2,1.61.59,0,.57-.6.89-.68.37h0ZM371.84,12.09c0-.58,1.49-1.62,1.93-1.35.7.43.12,1.31-1.05,1.6-.66.17-.88.1-.88-.26ZM232.08,11.65c-.85-.42-1.13-.44-1.53-.1-.4.33-.57.33-.88,0-.3-.32-.3-.44,0-.55.22-.08.46-.1.55-.04.08.06.36-.18.61-.52.39-.54.53-.57.98-.19.29.24.61.34.73.23s.04-.21-.17-.21c-.4,0-.52-1.03-.16-1.38.12-.12.4-.05.64.15.32.26.43.26.43,0,0-.53.86-.44,1.08.12.1.26.11.68,0,.93-.1.25-.02.74.16,1.09.26.5.23.67-.16.83-.75.29-1.14.23-2.29-.33h0ZM235.2,11.23c0-.76.14-.97.64-.97.42,0,.64.21.64.63,0,.35-.29.78-.64.97-.57.31-.64.24-.64-.63ZM252.07,11.98c-.13-.13-.23-.45-.23-.72,0-.36.09-.4.36-.13.2.2.3.52.23.72-.07.2-.23.26-.36.13ZM270.83,11.5c.11-.42.21-.87.21-1,0-.13.16-.24.35-.24.5,0,.22,1.68-.31,1.86-.33.11-.4-.05-.24-.62h0ZM278.08,11.86c0-.18.14-.32.32-.32s.32.14.32.32-.14.32-.32.32-.32-.14-.32-.32ZM298.8,11.98c-.29-.29.11-1.11.44-.91.16.1.29.38.29.64,0,.47-.38.61-.72.27ZM300.6,11.71c-.1-.26-.08-.62.04-.82.31-.51,1.13.24.91.82-.23.59-.72.59-.95,0h0ZM316.04,11.95c-.38-.38-.21-1.06.28-1.06.26,0,.48.21.48.46,0,.53-.46.9-.76.6ZM320.8,11.86c-.13-.21-.09-.52.09-.7.21-.21.4-.19.55.06.13.21.09.52-.09.7-.21.21-.4.19-.55-.06ZM339.37,11.87c-.28-.45.08-.98.65-.98s.59.45.01.94c-.31.26-.52.27-.66.04h0ZM351.2,11.86c-.27-.43.09-.96.66-.96.25,0,.46.29.46.64,0,.66-.77.88-1.12.32h0ZM354.56,11.84c0-.19.14-.25.32-.14s.32.26.32.34-.14.14-.32.14-.32-.15-.32-.34ZM355.71,11.91c-.11-.18-.05-.42.15-.54.49-.3.81.11.4.52-.23.23-.41.24-.54.02ZM363.21,11.46c0-.58.06-.63.32-.24.4.62.4.96,0,.96-.18,0-.32-.32-.32-.72ZM365.44,11.7c0-.26.14-.48.32-.48s.32.22.32.48-.14.48-.32.48-.32-.22-.32-.48ZM239.68,11.54c0-.18.29-.32.64-.32s.64.14.64.32-.29.32-.64.32-.64-.14-.64-.32ZM241.92,11.54c0-.18.14-.32.32-.32s.32.14.32.32-.14.32-.32.32-.32-.14-.32-.32ZM313.12,11.54c.11-.18.41-.32.68-.32s.39.14.28.32-.41.32-.68.32-.39-.14-.28-.32ZM322.61,11.57c-.26-.17-.31-.35-.12-.47.17-.11.5.02.71.28.43.52.09.63-.6.19ZM353.28,11.39c0-.25.14-.55.32-.66s.32-.49.32-.85c0-.98.78-.53.91.51.08.71,0,.86-.4.71-.32-.12-.51-.02-.51.28,0,.26-.14.47-.32.47s-.32-.21-.32-.46ZM396.64,11.54c.11-.18.26-.32.34-.32s.14.14.14.32-.15.32-.34.32-.25-.14-.14-.32ZM272.62,11.04c-.2-.24-.27-.58-.15-.77.25-.41,1.13-.44,1.13-.04,0,.16.27.22.6.13,1.11-.29.99.43-.12.77-.85.26-1.18.24-1.46-.1ZM288.51,11.26c-.1-.17-.1-.54.01-.83.11-.29-.04-.78-.33-1.1-.69-.76-.06-1.37,1.01-.97.74.28.94.76.43,1.07-.16.1-.22.44-.14.76.17.65-.68,1.56-.98,1.06ZM327.68,10.58c0-.53.16-.96.35-.96s.27.22.17.48-.04.48.13.48.31.22.31.48-.22.48-.48.48c-.32,0-.48-.32-.48-.96ZM336.52,11.28c-.09-.14-.04-.44.1-.68.14-.23.19-.73.12-1.1-.14-.65-.12-.66.34-.1.32.4.7.52,1.14.38.39-.12.66-.07.66.13,0,.19-.18.34-.4.34s-.58.29-.8.64c-.42.67-.88.82-1.15.38h0ZM387.6,11.15c-.4-.19-.71-.58-.69-.86.01-.29.09-.35.18-.13.1.24.56.31,1.29.19.99-.16,1.12-.11,1.02.42-.14.72-.8.86-1.79.38h0ZM395.52,11.06c0-.26.14-.48.32-.48s.32.22.32.48-.14.48-.32.48-.32-.22-.32-.48ZM193.6,10.42c0-.89.47-1.07.77-.29.31.8.23,1.09-.29,1.09-.3,0-.48-.3-.48-.8ZM228.51,10.71c.02-.37.09-.45.19-.19.09.23.08.51-.03.61-.11.11-.18-.08-.17-.42h0ZM242.16,10.5c-.87-.68-.89-.68-1.36-.06-.48.62-.49.62-.96,0-.73-.95-.62-1.55.24-1.26.88.29,1.51.29,2.21-.01.38-.17.66.03,1.01.73.73,1.46.28,1.7-1.13.6h0ZM244.08,10.43c-.19-1.02.16-1.28,1.02-.74.66.41.9,1.21.36,1.21-.16,0-.5.08-.76.18-.31.12-.52-.09-.62-.65ZM285.44,10.72c0-.27-.13-.42-.28-.33-.34.21-2.28-.71-2.28-1.08,0-.14.29-.34.65-.43s.63-.29.6-.44c-.19-1.06.08-1.39,1.13-1.39.61,0,1.17.11,1.26.26.25.41-.3,1.08-.79.97-.49-.11-.62.09-.58.93.02.33.09.4.19.16.26-.65.94-.46,1.31.36.25.55.25.86-.01,1.12-.52.52-1.19.44-1.19-.14h0ZM302.91,10.94c-.14-.22-.16-.49-.06-.6.29-.29.6.13.44.6-.11.33-.18.32-.39,0h0ZM319.68,10.54c0-.52-.1-.6-.41-.34-.31.26-.43.16-.48-.42-.03-.42.07-.85.22-.94.48-.3,1.35.2,1.17.67-.09.24-.03.44.14.44s.31.29.31.64-.21.64-.48.64-.48-.29-.48-.68ZM345.6,10.88c0-.19.14-.25.32-.14s.32.26.32.34-.14.14-.32.14-.32-.15-.32-.34ZM349.52,10.8c-1.12-.34-1.39-1.04-.48-1.28.53-.14.53-.15,0-.18-.31-.02-.56-.25-.56-.52s-.14-.48-.32-.48-.32-.22-.32-.48c0-.68.4-.6,1.12.24.68.78,1.86,2.82,1.69,2.94-.05.04-.57-.07-1.14-.24h0ZM359.04,10.9c0-.18.14-.32.32-.32s.32.14.32.32-.14.32-.32.32-.32-.14-.32-.32ZM361.17,11c-.39-.39-.22-1.07.27-1.07.27,0,.77-.18,1.11-.39.47-.29.72-.3.99-.03.47.47.1,1.06-.67,1.06-.33,0-.69.14-.8.32-.23.37-.6.41-.91.11ZM368.17,10.92c-.22-.35.29-.74.58-.44.3.3.25.74-.1.74-.17,0-.38-.13-.49-.3h0ZM384.53,11c-.4-.4-.22-.71.39-.66.35.03.54.22.45.46-.17.45-.51.53-.84.2ZM393.39,10.72c-.1-.27-.11-.57-.01-.67.28-.28.86.2.86.7,0,.61-.61.59-.85-.03h0ZM249.92,10.61c0-.38.94-.73,1.31-.49.16.1.21.32.11.48-.24.38-1.43.39-1.43.01ZM290.4,10.57c-.11-.18.03-.41.3-.51.28-.11.5-.39.5-.64,0-.54.83-.59,1.15-.08.13.2-.11.62-.54.95-.88.68-1.13.73-1.41.28ZM294.88,10.58c-.11-.18.03-.32.3-.32s.5.14.5.32-.14.32-.3.32-.39-.14-.5-.32ZM296.96,10.58c0-.18.14-.32.32-.32s.32.14.32.32-.14.32-.32.32-.32-.14-.32-.32ZM297.81,10.43c-.23-.59.37-1,.82-.55.34.34.1,1.02-.37,1.02-.15,0-.35-.21-.45-.47ZM311.2,10.58c-.11-.18-.05-.32.14-.32s.34.14.34.32-.06.32-.14.32-.23-.14-.34-.32ZM356.65,10.6c-.1-.16-.04-.39.14-.5.18-.11.33.02.33.3,0,.56-.19.64-.47.2ZM366.08,10.58c0-.18.19-.32.42-.32s.58-.17.79-.37c.28-.28.18-.55-.43-1.12-.44-.41-.94-.75-1.11-.75s-.3-.22-.3-.48c0-.55.82-.65,1.13-.14.12.19.41.26.66.17.29-.11.45.05.45.46,0,.35.22.63.48.63.72,0,.58.64-.34,1.48-.84.78-1.74,1-1.74.44h0ZM398.29,10.29c.37-.43.68-.55.88-.35.37.37.27.49-.71.79-.72.22-.73.21-.17-.44ZM324.83,9.99c-.27-.5-.23-.76.16-1.15.28-.28.64-.5.8-.5s.3-.3.3-.66c0-.45.17-.63.53-.56.79.15.91.92.17,1.11-.54.14-.94.75-1.14,1.76-.12.58-.51.57-.82,0ZM331.53,9.96c-.7-1.31-.19-1.72.93-.76.47.4.54.65.28.96-.48.58-.83.52-1.22-.2ZM339.84,10.26c0-.18.15-.32.34-.32s.25.14.14.32-.26.32-.34.32-.14-.14-.14-.32ZM227.12,9.46c-.32-.44-.43-.85-.25-.96.17-.1.23-.4.13-.66-.23-.6.33-.61.83,0,.21.25.57.39.8.3.23-.09.49.13.58.48.12.44-.07.8-.59,1.14-.93.61-.83.63-1.5-.3h0ZM276.99,9.75c-.11-.28-.19-.78-.19-1.12s-.14-.61-.32-.61-.32-.22-.32-.48c0-.29.3-.48.75-.48.69,0,.75.12.72,1.6-.03,1.61-.28,2.03-.64,1.09h0ZM278.27,9.74c-.26-.68-.05-.9.62-.65.29.11.46.37.39.58-.2.61-.79.65-1.01.07ZM309.44,9.94c0-.18.14-.32.32-.32s.32.14.32.32-.14.32-.32.32-.32-.14-.32-.32ZM344.64,9.94c0-.18.15-.32.34-.32s.25.14.14.32-.26.32-.34.32-.14-.14-.14-.32ZM251.1,9.73c-.26-.26.03-.76.44-.76.17,0,.3.22.3.48,0,.49-.38.64-.74.28ZM257.36,9.14c.15-.77-.06-.94-.96-.82-.53.07-.89-.89-.49-1.29.74-.74,3.17,1.38,2.78,2.41-.11.28-.48.5-.84.5-.51,0-.61-.16-.49-.8ZM321.51,9.57c-.49-.27-.5-.37-.1-.77.64-.64,1-.58,1.06.17.06.8-.25,1-.96.6h0ZM352.16,9.62c-.11-.18-.05-.32.14-.32s.34.14.34.32-.06.32-.14.32-.23-.14-.34-.32ZM357.87,9.21c-.69-.79-.65-2.15.07-2.15.47,0,.57.3.48,1.44-.04.6-.02.61.4.08.24-.31.54-.56.65-.56.38,0,.21.54-.39,1.22l-.59.68-.62-.71ZM390.4,9.65c0-.15.22-.47.49-.69.56-.47,1.33.03.96.62-.26.41-1.46.47-1.46.07ZM245.2,9.14c-.52-.59-.51-.8.04-.8.24,0,.52.29.61.64.19.74-.08.81-.65.16h0ZM250.06,9.21c-.12-.31-.14-.84-.05-1.19.19-.74-.6-1.09-1.79-.79-.44.11-.88.06-.99-.12-.25-.41.3-1.87.94-2.51.27-.27.4-.58.29-.7-.11-.11-.39.05-.61.36-.45.61-1.31.74-1.62.24-.11-.18-.43-.32-.72-.32s-.87-.32-1.31-.72l-.79-.72.21.88c.13.53.08.88-.12.88s-.18.24.07.63c.33.52.31.72-.1,1.14-.45.45-.54.45-.93-.02-.33-.4-.35-.66-.07-1.11.43-.69-.09-1.03-1.16-.75-.56.15-.6.26-.27.8.32.52.28.7-.24,1.09-.88.65-1.14.58-1.14-.34,0-.44-.17-.8-.38-.8s-.11-.2.23-.45c.51-.38.54-.52.19-.95-.36-.44-.3-.55.43-.83,1.19-.45,1.22-.43.63.47l-.52.79.99-.49c.54-.27.99-.63.99-.79s.28-.3.62-.3.71-.29.82-.64c.37-1.18,1.76-.64,1.76.69,0,.88.05.91.72.54.4-.22.8-.38.89-.35.1.03.21-.38.25-.9.07-.87.02-.91-.57-.55-.51.32-.72.32-1.04,0-.33-.33-.31-.46.07-.71.26-.17.68-.23.92-.14.24.09.63,0,.85-.18.3-.25.59-.19,1.08.23l.67.57-.72.55c-.71.54-.71.55-.04.38.86-.22,2.03.38,2.03,1.05,0,.36-.2.45-.72.32-.66-.16-.72-.07-.67,1.01.06,1.56.35,2.21,1.07,2.4.45.12.62-.06.72-.72.11-.73.03-.85-.48-.72-.46.12-.58.02-.49-.44.06-.33.38-.65.71-.72.37-.07.51.02.38.24-.12.19-.07.35.1.35.49,0,.84-.75.41-.89-.61-.2-.43-1.03.23-1.03.6,0,1.64,1.24,1.64,1.95,0,.21-.43.79-.96,1.29-.53.5-.96,1.17-.97,1.47,0,.31-.28.92-.62,1.36-.55.71-.64.74-.83.24h0ZM265.39,9.12c-.24-.63.04-.92.67-.68.28.11.41.4.3.68-.24.63-.73.63-.97,0h0ZM301.12,9.3c0-.18.14-.32.32-.32s.32.14.32.32-.14.32-.32.32-.32-.14-.32-.32ZM313.32,9.18c-.28-.34-.26-.53.08-.81.34-.28.53-.26.81.08.28.34.26.53-.08.81-.34.28-.53.26-.81-.08ZM315.23,9.17c-.42-.51-.19-1.79.32-1.79.16,0,.3.24.3.54,0,.42.09.46.38.16.53-.53.9-.48.9.11,0,.27-.25.58-.56.7-.31.11-.64.33-.75.49-.1.15-.37.06-.59-.2ZM345.1,9.16c-.51-.38-.55-.53-.21-.88.34-.34.47-.33.72.06.29.45.42,1.28.21,1.28-.05,0-.38-.21-.72-.46ZM392.32,9.11c0-.28.17-.45.38-.38.59.2.69.89.13.89-.28,0-.51-.23-.51-.51ZM394.56,9.3c0-.18.14-.32.32-.32s.32.14.32.32-.14.32-.32.32-.32-.14-.32-.32ZM397.12,9.3c0-.18.14-.32.32-.32s.32.14.32.32-.14.32-.32.32-.32-.14-.32-.32ZM269.75,8.63c-.52-.98-.16-1.09.46-.14.29.45.39.81.21.81s-.48-.3-.67-.67ZM308.8,8.62c0-.39.23-.61.64-.61.35,0,.64-.18.64-.4,0-.47,1.53-1.25,1.75-.89.08.14-.28.58-.81.99-.53.41-.91.89-.83,1.08s-.21.36-.63.39c-.55.03-.76-.12-.76-.56h0ZM323.02,8.76c.11-.29.02-.65-.2-.78-.22-.14-.3-.35-.17-.48.13-.13.52.03.87.35.49.44.56.68.28,1.01-.5.61-1.03.54-.78-.1ZM339.04,8.98c-.11-.18-.05-.32.14-.32s.34.14.34.32-.06.32-.14.32-.23-.14-.34-.32ZM376.95,8.46c-.22-.59-.21-.97.05-1.28.56-.68,1.35-.56,1.16.18-.13.48.04.67.76.83.51.11.93.35.93.52s-.28.23-.61.12-.71-.04-.82.14c-.38.61-1.14.34-1.46-.51ZM398.22,8.95c-.12-.19-.05-.51.15-.72.28-.28.44-.26.65.09.3.49.15.97-.31.97-.16,0-.38-.16-.5-.35h0ZM236.64,8.65c-.14-.22,1.18-1.27,1.59-1.27.09,0,.17.27.17.6,0,.61-1.46,1.16-1.76.67ZM259.44,8.63c-.97-.56-.64-1.18.74-1.42,1.65-.28,1.88-.04.94.96-.84.89-.9.91-1.68.45ZM267.74,8.75c-.37-.1-.51-.33-.39-.64.1-.27.02-.69-.18-.94-.2-.25-.26-.55-.12-.68.14-.13.31-.07.38.13.07.2.41.29.75.2.53-.14.61,0,.57.99-.02.64-.13,1.14-.23,1.12-.1-.02-.45-.11-.77-.19h0ZM274.46,8.77c-.26-.26.03-.76.44-.76.17,0,.3.22.3.48,0,.49-.38.64-.74.28ZM296.99,8.67c-.54-.33-.17-.98.55-.97.5,0,1.66.7,1.66.99,0,.25-1.8.24-2.21-.02h0ZM333.47,8.26c-.23-.59-.49-.81-.82-.69-.27.1-.49.02-.49-.18s.13-.29.29-.2c.16.1.37-.04.47-.3.29-.75,1.13-.56,1.35.3.11.43.05,1.04-.13,1.36-.3.53-.36.5-.66-.29ZM343.87,8.7c-.14-.22-.16-.49-.06-.6.29-.29.6.13.44.6-.11.33-.18.32-.39,0h0ZM350.2,8.52c-.12-.32-.05-.67.18-.81.27-.17.19-.3-.27-.42-.86-.22-.86-1.09,0-1.36.88-.28,1.07-.04,1.03,1.33-.04,1.36-.6,2.12-.93,1.26h0ZM361.28,8.66c0-.18.14-.32.32-.32s.32.14.32.32-.14.32-.32.32-.32-.14-.32-.32ZM384.96,8.59c0-.24.16-.6.36-.8.43-.43.11-1.05-.54-1.05s-.57-.29.26-.96c.86-.69,1.2-.55,1.2.48,0,.42.15.85.33.96.46.29.06.8-.46.6-.27-.11-.42.04-.39.38.03.3-.13.61-.35.69-.22.08-.4-.06-.4-.3ZM388.99,8.47c-.11-.28-.11-.65,0-.82.24-.4,1.09.29,1.09.88s-.85.56-1.09-.07h0ZM229.79,8.22c-.2-.24-.28-.67-.17-.95.12-.32-.11-.78-.62-1.24-.88-.79-1.48-2.49-.88-2.49.2,0,.35-.14.35-.32s-.22-.32-.48-.32-.48.29-.48.65c0,.85-.81,1.14-1.43.52-.44-.44-.41-.57.27-1.31.85-.91,2.45-1.14,2.45-.34,0,.26.13.48.28.48s.37.54.48,1.2c.25,1.55.44,2.46.53,2.56.04.04.08.21.11.37.02.16.15.4.28.53.33.33.3,1.09-.04,1.09-.15,0-.44-.2-.65-.44ZM240.51,8.15c-.33-.86-.23-.97.93-1,1.14-.03,1.27.1.93,1-.25.66-1.6.66-1.85,0h0ZM272.75,7.94c.09-.6.53-.93.53-.4v.64c0,.26-.14.48-.32.48s-.27-.32-.21-.72ZM293.95,8.38c-.11-.18-.42-.25-.68-.15-.29.11-.47-.01-.47-.31,0-.27.18-.55.4-.63.22-.08-.03-.34-.56-.57-.53-.23-1.01-.46-1.07-.49-.06-.04.05-.37.25-.74.41-.76,1.61-.91,1.61-.2,0,.26.29.63.65.82.36.19.57.47.47.63s-.02.38.17.5c.19.12.42-.08.52-.46.16-.62,1.07-.99,1.06-.43-.02.86-.47,1.68-.93,1.68-.3,0-.7.16-.89.35-.24.24-.41.24-.55.01ZM302.4,8.34c0-.18.22-.32.48-.32s.48.14.48.32-.22.32-.48.32-.48-.14-.48-.32ZM308.03,8.38c-.14-.22-.16-.49-.06-.6.29-.29.6.13.44.6-.11.33-.18.32-.39,0h0ZM328,8.18c0-.29.15-.48.34-.42.19.06.34.25.34.42s-.15.36-.34.42c-.19.06-.34-.13-.34-.42ZM329.45,8.36c-.1-.16-.04-.38.13-.49.17-.11.23-.44.14-.74-.13-.4-.1-.44.12-.13.16.23.43.39.59.36.73-.14.82.07.29.66-.64.7-.99.8-1.27.34ZM340.93,7.87c.11-.43.05-.87-.13-.98-.56-.35-.35-.81.52-1.14,1.02-.39,1.32-.18.74.52-.24.29-.4.94-.36,1.45.05.67-.07.93-.45.93s-.47-.19-.32-.78ZM374.19,8.15c-.11-.28.01-.71.26-.96.4-.4.54-.4,1.08,0,.62.46.62.47-.01.95-.82.63-1.09.63-1.33,0h0ZM201.03,7.78c-.13-.31-.52-.56-.87-.56-.49,0-.64-.21-.64-.93,0-1.1.76-1.51,1.02-.54.1.37.31.59.47.49.53-.33,1.14.49.99,1.31-.18.93-.64,1.04-.97.24ZM232.42,7.94c-.14-.22-.47-.4-.74-.4-.46,0-.52-.42-.36-2.74.06-.91.59-.5.85.67.12.53.35.87.52.77.17-.11.22-.61.11-1.12-.13-.58-.07-.93.14-.93.19,0,.35.11.35.24,0,.37,1.6,1.02,2.07.84.23-.09.52,0,.64.18.28.45.81.44.81-.02,0-.2.22-.52.49-.72.27-.2.51-.9.53-1.57.05-1.37.39-1.74,1.07-1.17.6.5.59,1.1-.02,1.71-.31.31-.42.77-.29,1.27.17.68.03.87-1.03,1.36-.68.31-1.3.65-1.39.75-.4.45-1.94,1.06-2.15.86-.13-.13-.04-.52.18-.88.23-.36.33-.74.24-.83-.1-.1-.27.06-.38.35-.11.29-.48.53-.83.53-.48,0-.58.15-.42.64.23.72,0,.85-.38.24h0ZM301.12,7.86c0-.26.14-.48.32-.48s.32.22.32.48-.14.48-.32.48-.32-.22-.32-.48ZM311.52,8.02c.11-.18.26-.32.34-.32s.14.14.14.32-.15.32-.34.32-.25-.14-.14-.32ZM195.84,7.38c-.19-.35-.66-.65-1.05-.67-.39-.01-.54-.1-.33-.18.21-.09.31-.34.22-.57-.29-.75,1.12-.83,1.63-.09l.47.67.75-.7c.96-.9,1.19-.88,1.19.08,0,.43.14.87.32.98.4.25.42.8.02.8-.16,0-.52-.22-.79-.49-.45-.45-.55-.43-1.05.16-.7.82-.95.82-1.38.01h0ZM245.02,7.81c-.26-.26.03-.76.44-.76.17,0,.3.22.3.48,0,.49-.38.64-.74.28ZM246.4,7.7c0-.18.22-.32.48-.32s.48.14.48.32-.22.32-.48.32-.48-.14-.48-.32ZM305.28,7.73c0-.16.21-.37.46-.46.31-.12.4-.02.29.29-.19.51-.75.64-.75.18ZM354.24,7.7c0-.18.14-.32.32-.32s.32.14.32.32-.14.32-.32.32-.32-.14-.32-.32ZM228.48,7.38c0-.18.14-.32.32-.32s.32.14.32.32-.14.32-.32.32-.32-.14-.32-.32ZM243.52,7.19c0-.28.17-.45.38-.38.59.2.69.89.13.89-.28,0-.51-.23-.51-.51ZM262.21,6.89c-.42-.63-.44-.9-.14-1.27.21-.26.29-.62.17-.81-.12-.19-.04-.56.17-.81.27-.33.28-.47.03-.47-.2,0-.36-.23-.36-.52,0-.42.22-.49,1.12-.34,1.06.17,1.5-.15.8-.58-.55-.34-.35-1.17.32-1.35.35-.09.64-.29.64-.45,0-.44.84-.33,1.24.15.27.33.26.53-.07.8-.24.2-.53.27-.64.15-.11-.11-.17.34-.13,1.01.07,1.12,0,1.24-1.04,1.63-.99.37-1.03.42-.32.44.59.02.68.1.35.31-.77.48.65.61,1.61.14.88-.43,1.24-.31,1.24.42,0,.23-.28.43-.61.43s-.66.15-.73.34c-.08.24-.38.24-1.03,0-1.09-.41-1.93.09-1.69,1,.22.84-.33.71-.94-.22h0ZM274.24,7.38c0-.18.14-.32.3-.32s.39.14.5.32c.11.18-.03.32-.3.32s-.5-.14-.5-.32ZM287.9,7.49c-.26-.26.03-.76.44-.76.17,0,.3.22.3.48,0,.49-.38.64-.74.28ZM298.78,6.82c-.1-.48-.02-1.02.17-1.2.24-.22.29-.16.16.21-.12.35.02.58.43.69.41.11.55.33.42.67-.31.81-1,.59-1.19-.37h0ZM302.56,7.43c-.43-.43-.05-.69.96-.69.72,0,1.12.15,1.12.43,0,.41-1.72.63-2.08.27ZM320.06,7.35c.06-.19.25-.34.42-.34s.36.15.42.34c.06.19-.13.34-.42.34s-.48-.15-.42-.34ZM359.36,7.38c0-.18.14-.32.32-.32s.32.14.32.32-.14.32-.32.32-.32-.14-.32-.32ZM361.6,7.38c0-.18.15-.32.34-.32s.25.14.14.32-.26.32-.34.32-.14-.14-.14-.32ZM387.52,7.09c0-.8.81-1.09,1.32-.47.33.39.32.54-.06.78-.74.47-1.26.34-1.26-.31ZM265.76,7.06c.11-.18.34-.32.52-.32s.23.14.12.32-.34.32-.52.32-.23-.14-.12-.32ZM270.48,7.16c-.44-.18-.56-1.07-.14-1.07.33,0,1.02.69,1.02,1.02,0,.28-.26.29-.88.04h0ZM282.72,7.05c-.22-.36.4-.72.8-.47.18.11.32-.03.32-.3s.22-.5.48-.5.48.18.48.41c0,.49-1.84,1.25-2.08.86h0ZM305.97,6.54c-.41-.4-.66-.88-.54-1.06.34-.56.81-.38.81.3,0,.36.21.64.48.64s.48.14.48.3c0,.6-.5.53-1.23-.18h0ZM335.68,6.9c0-.29.15-.48.34-.42.19.06.34.25.34.42s-.15.36-.34.42c-.19.06-.34-.13-.34-.42ZM343.21,7.08c-.22-.35.29-.74.58-.44.3.3.25.74-.1.74-.17,0-.38-.13-.49-.3h0ZM353.46,7.08c-.1-.17-.05-.39.12-.49.17-.1.39-.05.49.12.1.17.05.39-.12.49-.17.1-.39.05-.49-.12ZM367.72,6.81c-.26-.48-.26-.73-.01-.89.56-.35,1.05.35.68,1-.29.52-.34.51-.67-.11h0ZM382.02,6.98c-.28-.22-.6-.81-.71-1.31-.17-.72-.11-.88.3-.8.28.06.47.18.42.27-.05.09.16.52.46.95.87,1.24.61,1.74-.47.89ZM396.16,6.91c0-.81.68-.92,1.38-.22l.68.68h-1.03c-.68,0-1.03-.16-1.03-.46h0ZM226.44,6.8c-.09-.14-.03-.46.12-.7.23-.37.36-.37.78-.03.28.23.42.54.33.7-.22.35-1.01.37-1.22.03ZM347.33,6.8c-.19-.12-.43-.48-.55-.79-.25-.69-1.05-.73-1.3-.08-.23.6-.86.61-1.66.02-.49-.36-.54-.54-.23-.85.3-.31.49-.31.85,0,.59.49.9-.17.47-1-.18-.34-.16-.79.03-1.16.18-.33.22-.71.09-.84-.13-.13.1-.05.5.2.5.3.68.65.57,1.08-.18.75.11,1.28.71,1.28s1.56,1.67,1.17,2.06c-.17.17-.47.21-.65.09h0ZM220.29,6.36c-.45-.72-.38-2.82.09-2.82.23,0,.43.22.43.48s.22.48.48.48c.58,0,.64-.52.08-.75-.28-.11-.29-.17-.02-.19.51-.03,1.38.87,1.38,1.44,0,.59.56.58,1.17-.02.56-.56,1.58-.63,1.89-.13.35.57-.67,1.33-1.91,1.43-.82.06-1.15-.04-1.15-.36,0-.25-.22-.45-.48-.45s-.59,0-.72,0c-.13,0-.24.24-.24.53,0,.67-.66.91-1,.37h0ZM256.52,6.32c-.52-.38-.53-.46-.07-.84.64-.53,1.55-.2,1.42.51-.14.72-.65.85-1.35.33h0ZM259.2,6.42c-.38-.23-.39-.37-.08-.69.31-.31.48-.31.78-.01.52.52-.06,1.1-.7.7h0ZM274.13,6.48c-.15-.23-.53-.33-.88-.22-.66.21-.71.07-.41-1.06.15-.56.29-.65.62-.37.5.41,1.09.14,1.09-.5,0-.24.17-.55.37-.67.25-.16.31-.01.19.46-.1.38-.05.61.11.51s.29-.04.29.13-.2.38-.46.48c-.25.1-.5.51-.56.91-.08.53-.18.62-.37.33h0ZM300.8,6.45c0-.16-.3-.36-.67-.46-.37-.1-.58-.33-.46-.52.26-.43,1.13-.45,1.13-.03,0,.17.21.23.46.13.32-.12.45.03.41.49-.05.63-.87.99-.87.38h0ZM312.24,6.55c-.25-.25.13-1.74.41-1.57.14.09.49-.08.78-.36.64-.64.84-.49.6.43-.18.68-1.5,1.79-1.79,1.5ZM323.66,6.39c-.12-.19.08-.62.44-.96s.79-.85.95-1.14c.51-.91,1.05-.22.61.77-.6,1.37-1.58,2.01-2.01,1.32ZM326.4,6.42c0-.18.15-.32.34-.32s.25.14.14.32-.26.32-.34.32-.14-.14-.14-.32ZM348.83,6.23c.02-.37.09-.45.19-.19.09.23.08.51-.03.61-.11.11-.18-.08-.17-.42h0ZM356.16,6.42c0-.18.14-.32.32-.32s.32.14.32.32-.14.32-.32.32-.32-.14-.32-.32ZM389.18,6.18c.16-.83,1.22-.93,1.22-.11,0,.46-.21.66-.66.66s-.63-.17-.56-.56ZM393.8,6.26c.2-.53.94-.64,1.21-.19.1.16-.05.37-.33.48-.81.31-1.08.23-.89-.29ZM192.3,5.91c-.38-.46-.16-1.1.38-1.1.18,0,.53-.21.78-.46.4-.4.37-.47-.24-.56-.94-.14-1.05-.66-.25-1.16.83-.52,4.46.1,4.46.76,0,.6-.52.84-1.79.84-.73,0-1.21.19-1.41.57-.17.31-.25.62-.18.69.07.07-.22.29-.64.49-.6.28-.85.27-1.12-.07h0ZM218.24,6.09c-.26-.15-.88-.36-1.36-.47-.6-.13-.88-.39-.88-.82,0-.73.38-.8,1.3-.23.55.34.72.31,1.09-.19.59-.79.96-.49.96.77,0,1.11-.34,1.39-1.12.94h0ZM244.16,6.11c0-.48,1.21-1.03,1.44-.65.11.18.11.46,0,.64-.25.41-1.44.42-1.44.01ZM260.53,6.11c.14-.41.58-.49.62-.1.01.13-.15.29-.36.36-.21.07-.33-.04-.26-.26ZM319.12,6.2c-.22-.09-.4-.43-.4-.76s-.14-.68-.32-.79c-.51-.32-.37-.8.24-.8.31,0,.74.29.96.64.43.69,1.35.87,1.35.27,0-.21.08-.3.17-.2.09.09.02.55-.15,1.01-.31.8-.92,1.01-1.86.63ZM322.07,6.07c-.29-.48.05-.74.66-.5.28.11.42.34.31.52-.26.42-.71.41-.97-.02ZM330.24,6.08c0-.19.14-.25.32-.14.18.11.32.26.32.34s-.14.14-.32.14-.32-.15-.32-.34ZM338.72,6.1c.11-.18.33-.32.5-.32s.3.14.3.32-.22.32-.5.32-.41-.14-.3-.32ZM357.92,6.1c.11-.18.34-.32.52-.32s.23.14.12.32-.34.32-.52.32-.23-.14-.12-.32ZM360.64,5.62c0-.58.17-.8.62-.8.82,0,1.13.55.65,1.13-.61.73-1.27.56-1.27-.33ZM382.71,5.59c-.17-.45-.23-.96-.13-1.12.27-.44,1.1-.35,1.11.11,0,.22.09.72.2,1.12.28,1.05-.77.95-1.17-.11ZM269.33,5.88c-.12-.12-.21-.36-.21-.54,0-.2.15-.18.38.05.21.21.3.45.21.54-.09.09-.26.07-.38-.05ZM289.06,5.49c-.2-.75-.45-.84-.96-.33-.72.72-.65-.23.09-1.15.42-.53.77-.79.77-.59,0,.2.27.3.61.21.64-.17,1.27.47.8.81-.15.11-.28.48-.28.82,0,.86-.81,1.04-1.02.22h0ZM327.92,5.38c.29-1.13,1.36-1.66,1.36-.68,0,.48-.84,1.36-1.33,1.39-.12,0-.13-.31-.03-.71h0ZM352.38,5.75c.06-.19.25-.34.42-.34s.36.15.42.34c.06.19-.13.34-.42.34s-.48-.15-.42-.34ZM373.08,5.82c-.4-.16-.45-.38-.23-.98.22-.59.38-.69.66-.4.21.21.67.39,1.03.4.47.02.52.08.18.21-.26.1-.62.36-.8.58s-.55.3-.84.19h0ZM391.36,5.81c-.44-.12-.65-.31-.48-.42.43-.27,2.07.07,2.07.42,0,.32-.44.32-1.6,0h0ZM189.44,5.52c0-.5,1.87-2.05,2.21-1.84.61.38.37.96-.64,1.54-1.07.61-1.57.71-1.57.3h0ZM202.4,5.46c-.11-.18.02-.32.28-.32s.57.14.68.32-.02.32-.28.32-.57-.14-.68-.32ZM205.66,5.57c-.11-.11-.13-.32-.04-.47.2-.32,1.1,0,1.1.38,0,.33-.75.39-1.06.08h0ZM281.12,5.45c.11-.18.34-.24.5-.14.44.27.36.47-.2.47-.27,0-.41-.15-.3-.33ZM282.44,5.55c-.36-.36-.22-.74.28-.74.26,0,.48.14.48.3,0,.4-.5.69-.76.44ZM296,5.14c0-.36.21-.64.48-.64s.48-.14.48-.32c0-.59.59-.33.81.36.23.73-.25,1.23-1.21,1.24-.35,0-.56-.24-.56-.64h0ZM309.76,5.3c0-.29.15-.48.34-.42.19.06.34.25.34.42s-.15.36-.34.42c-.19.06-.34-.13-.34-.42ZM353.49,5.56c-.47-.47-.17-1,.67-1.16,1.18-.23,1.71.32.9.92-.67.5-1.23.58-1.57.25h0ZM378.24,5.28c0-.27.14-.41.32-.3.18.11.32.33.32.5s-.14.3-.32.3-.32-.22-.32-.5ZM186.72,5.13c.11-.18.34-.24.5-.14.44.27.36.47-.2.47-.27,0-.41-.15-.3-.33ZM204.16,5.14c0-.18.14-.32.32-.32s.32.14.32.32-.14.32-.32.32-.32-.14-.32-.32ZM277.76,5.14c0-.18.14-.32.32-.32s.32.14.32.32-.14.32-.32.32-.32-.14-.32-.32ZM326.14,4.92c.13-.7,1.06-.8,1.06-.11,0,.26-.27.53-.59.59-.43.08-.56-.05-.48-.48ZM348.8,4.8c0-.62.63-.85,1.09-.39.13.13.41.24.61.24.21,0,.45.15.54.32.09.18-.37.35-1.04.39-1,.06-1.2-.04-1.2-.56ZM399.36,4.99c0-.25.14-.55.32-.66s.32.1.32.46-.14.66-.32.66-.32-.21-.32-.46ZM188.03,4.63c-.27-.69-.24-1.17.11-1.71.24-.38.38-.39.8-.04.42.35.5.34.5-.1,0-.29.22-.52.48-.52.72,0,.58.5-.29,1.07-.54.35-.72.7-.6,1.16.21.79-.69.92-.99.14h0ZM200.19,4.9c-.17-.17,1.17-1.37,1.53-1.37.1,0,.06.31-.08.69-.24.66-1.08,1.04-1.45.67ZM255.54,4.78c.24-.39-.45-1.89-.87-1.89-.15,0-.27.21-.27.46s-.12.54-.27.63c-.41.25-.01-1.53.4-1.81.21-.14.07-.24-.33-.24-.74,0-1.25-.82-.73-1.14.18-.11.52-.03.76.17.33.28.6.27,1.09-.04.54-.34.75-.31,1.25.14.33.3.76.55.94.55.44,0,.79.92.52,1.35-.13.22.15.28.8.19.55-.08.93-.08.85,0-.09.09,0,.34.19.57.62.74-.03,1.17-1.52,1-.77-.09-1.48-.03-1.58.12s-.46.28-.81.28c-.38,0-.55-.14-.42-.35h0ZM256,2.58c0-.18-.15-.32-.34-.32s-.25.14-.14.32c.11.18.26.32.34.32s.14-.14.14-.32ZM302.88,4.82c-.24-.38.06-.97.5-.97.39,0,.39.87,0,1.11-.16.1-.39.04-.5-.14h0ZM304.32,4.5c0-.36.21-.64.48-.64.54,0,.56.06.29.77-.27.72-.77.63-.77-.13h0ZM362.72,4.82c.11-.18.26-.32.34-.32s.14.14.14.32-.15.32-.34.32-.25-.14-.14-.32ZM369.28,4.2c0-.54-.15-.98-.34-.98s-.29-.25-.24-.56c.17-.87,1.05-.68,1.09.24.06,1.3.1,1.38.59.97.49-.41,1.78-.17,1.78.32,0,.16-.4.38-.88.49-.48.11-1.13.26-1.44.35-.44.12-.56-.05-.56-.83ZM267.97,3.78c-.13-.57-.21-1.29-.17-1.6.05-.33-.13-.56-.42-.56s-.5-.27-.5-.62c0-.89.65-1.17.86-.37.1.37.66.97,1.26,1.34.6.37,1.08.78,1.08.91,0,.49-.43.65-.84.31-.68-.56-1.25-.19-.64.42.64.64.68,1.21.07,1.21-.25,0-.56-.47-.7-1.04h0ZM286.72,4.54c0-.18-.22-.54-.48-.81-.3-.3-.36-.56-.16-.68.18-.11.32-.06.32.1s.3.38.67.48c.37.1.61.36.54.58-.17.5-.89.77-.89.33ZM333.2,4.6c-.5-.2-.52-.95-.04-1.25.38-.23.91.39.92,1.06,0,.42-.2.46-.88.19h0ZM341.12,4.34c0-.26.22-.48.48-.48s.48.22.48.48-.22.48-.48.48-.48-.22-.48-.48ZM342.88,4.5c.11-.18.26-.32.34-.32s.14.14.14.32-.15.32-.34.32-.25-.14-.14-.32ZM363.66,4.28c.11-.29.02-.65-.2-.79-.27-.17-.3-.36-.09-.57.18-.18.51-.2.76-.05.51.31.24,1.94-.33,1.94-.19,0-.26-.24-.14-.53ZM385.63,3.99c-.81-.93-.7-2.1.13-1.41.26.22.39.52.3.68-.1.16.11.28.45.28.62,0,1.14.73.78,1.09-.39.39-.95.17-1.65-.64ZM389.97,4.6c-.29-.29.16-1.07.62-1.07.58,0,.58.84,0,1.06-.25.09-.52.1-.62,0h0ZM392.16,4.5c-.13-.21-.09-.52.09-.7.21-.21.4-.19.55.06.13.21.09.52-.09.7-.21.21-.4.19-.55-.06ZM396.12,4.58c-.11-.69.15-1.58.6-2.08,1.06-1.19,1.39-.39.54,1.31-.47.94-1.05,1.33-1.13.77ZM223.84,4.18c-.11-.18-.05-.32.14-.32s.34.14.34.32-.06.32-.14.32-.23-.14-.34-.32ZM235.07,4.22c-.19-.31.96-1.65,1.42-1.65s.38.39-.19,1.21c-.52.74-.95.9-1.23.44ZM294.4,4.11c0-.26.37-.64.83-.85,1.04-.47.95.13-.13.85-.62.41-.7.41-.7,0h0ZM314.7,3.3c-1.16-2.72-1.15-2.63-.27-2.97,1.28-.49,1.84-.4,1.58.25-.53,1.3-.75,2.32-.46,2.15.17-.1.44.19.62.65.42,1.11.42,1.12-.32,1.12-.43,0-.8-.39-1.15-1.2h0ZM316.97,3.82c.13-.41.06-.78-.18-.92-.22-.13-.29-.41-.17-.62.17-.28.36-.27.74.04.28.23.43.27.32.09-.27-.45.59-1.55,1.01-1.29.48.3.43,1.45-.07,1.45-.23,0-.57.43-.77.96-.41,1.1-1.23,1.35-.89.28h0ZM321.6,4.19c0-.16.26-.37.58-.48.34-.11.57-.47.56-.87-.01-.38.15-.75.37-.82.46-.16,1.19,1.5.81,1.84-.41.37-2.33.64-2.33.32ZM366.61,4.03c-.12-.31-.02-.4.29-.29.51.19.64.75.18.75-.16,0-.37-.21-.46-.46ZM367.68,3.99c0-.28.17-.45.38-.38.59.2.69.89.13.89-.28,0-.51-.23-.51-.51ZM374.64,4.25c-.6-.13-.79-1.04-.22-1.04.2,0,.25-.27.14-.64-.15-.47-.06-.64.33-.64.41,0,.49.19.34.8-.15.59-.07.8.29.8.27,0,.49.13.49.29,0,.38-.66.59-1.36.43ZM199.27,3.54c.18-.69-.21-.85-.75-.31-.23.23-.46.18-.75-.17-.62-.74-.03-1.16,1.89-1.34,1.36-.13,1.63-.07,1.63.37,0,.51-1.46,2.09-1.94,2.09-.13,0-.17-.29-.08-.64h0ZM214.84,3.7c-.11-.29-.05-.68.14-.87.49-.49,1.41-.04,1.28.62-.14.74-1.17.91-1.42.25ZM291,3.46c.11-.4.19-.88.2-1.09,0-.2.33-.36.72-.35.4,0,.97-.09,1.28-.23.39-.17.56-.1.56.24,0,.27-.43.63-.96.82-.53.18-1.05.56-1.15.83-.3.78-.86.58-.64-.22ZM301.44,3.69c0-.27.21-.57.46-.67.25-.1.38-.38.29-.63-.11-.28.03-.45.34-.45.63,0,.63-.01.01,1.23-.53,1.07-1.1,1.34-1.1.52ZM311.63,3.18l-.85-.89-.2.78c-.26,1.02-.7,1-.97-.06-.27-1.09.07-1.4,1.71-1.55,1.02-.09,1.39,0,1.54.4.11.29.02.58-.19.65-.26.09-.29.25-.08.51.17.21.22.53.09.72-.14.21-.55,0-1.07-.55ZM329.6,3.73c0-.24-.22-.62-.48-.84-.26-.22-.48-.55-.48-.73s.09-.24.21-.12c.12.12.4.06.63-.13.7-.58,1.2.01.58.7-.5.55-.5.62-.02.8.66.25.69.77.04.77-.26,0-.48-.2-.48-.44h0ZM378.14,3.96c-.12-.12-.05-.4.15-.64.27-.33.23-.43-.18-.43-.3,0-.45-.14-.35-.31.34-.54,1.05,0,1.05.8s-.25.98-.66.57ZM380.8,3.71c0-.25.14-.55.32-.66s.32.1.32.46-.14.66-.32.66-.32-.21-.32-.46ZM388.38,3.73c-.22-.56.04-.83.8-.83.37,0,.59.23.59.64,0,.75-1.11.9-1.38.19ZM232.8,3.54c-.32-.51.14-.96.98-.96.57,0,.78.17.78.64s-.21.64-.78.64c-.43,0-.87-.14-.98-.32ZM273.6,2.94c0-.79.12-.91.97-.94.53-.02.88.11.78.28-.1.17-.31.23-.45.14-.15-.09-.35.2-.46.63-.27,1.09-.83,1.01-.83-.11ZM281.28,3.54c0-.18.22-.32.48-.32s.48.14.48.32-.22.32-.48.32-.48-.14-.48-.32ZM284.8,3.36c0-.27.14-.41.32-.3s.32.33.32.5-.14.3-.32.3-.32-.22-.32-.5ZM335.41,3.55c.07-.21.23-.37.36-.36.38.04.31.48-.1.62-.21.07-.33-.04-.26-.26h0ZM223.25,3.32c-.44-.44-.19-.65.59-.5.44.08.8.28.8.44,0,.33-1.07.38-1.39.07ZM306.62,3.15c-.53-.53-.48-1.22.1-1.22.3,0,.48.3.48.8,0,.91-.05.95-.58.42h0ZM339.52,2.93c0-.33.21-.78.48-1,.39-.32.51-.3.68.12.2.53-.36,1.47-.87,1.47-.15,0-.28-.27-.28-.6ZM347.04,3.22c.11-.18.33-.32.5-.32s.3.14.3.32-.22.32-.5.32-.41-.14-.3-.32ZM349.82,3.19c.06-.19.25-.34.42-.34s.36.15.42.34c.06.19-.13.34-.42.34s-.48-.15-.42-.34ZM367.04,2.9c0-.61.63-.87,1.06-.43.24.24-.36,1.07-.78,1.07-.15,0-.28-.29-.28-.64ZM372.56,3.32c-.55-.22-.5-1.24.08-1.82.26-.26.39-.71.29-.98-.12-.31-.02-.5.25-.5.24,0,.47.36.51.8.05.57-.09.8-.49.8-.46,0-.47.06-.1.29.25.16.48.59.51.96.05.65-.24.78-1.04.45h0ZM217.73,2.51c.15-.65.05-.95-.4-1.19-.33-.18-.66-.29-.73-.25-.07.04.05-.13.26-.38.32-.37.48-.38.89-.04.39.32.6.33.96.02.26-.21.62-.29.8-.18.42.26.44,1.13.03,1.13-.17,0-.69.4-1.16.88l-.85.88.2-.87ZM230.29,3c-.47-.47-.2-1.39.42-1.39s1.43,1.03,1.07,1.4c-.27.27-1.21.26-1.48-.01h0ZM279.68,2.93c0-.2-.22-.35-.48-.35s-.48-.15-.48-.33.33-.24.77-.13c.42.11,1.06.04,1.42-.15.7-.38,1.33.11.81.62-.48.47-2.04.74-2.04.35ZM298.88,2.74c0-.26.14-.48.32-.48s.32.22.32.48-.14.48-.32.48-.32-.22-.32-.48ZM304.96,2.88c0-.19.14-.25.32-.14s.32.26.32.34-.14.14-.32.14-.32-.15-.32-.34ZM351.68,3.02c0-.09.22-.4.5-.67s.42-.69.33-.93c-.09-.24-.03-.51.14-.62.46-.28.99.16.72.59-.13.21-.24.58-.25.82,0,.4-1.45,1.2-1.45.8h0ZM393.16,2.74c-.11-.29,0-.48.29-.48.26,0,.47.22.47.48s-.13.48-.29.48-.37-.22-.47-.48ZM286.72,2.58c0-.18.15-.32.34-.32s.25.14.14.32c-.11.18-.26.32-.34.32s-.14-.14-.14-.32ZM296.13,2.45c-.27-.71.09-1.07.58-.58.29.29.29.47,0,.75-.28.28-.42.24-.58-.17h0ZM300.23,2.58c.09-.26.03-.73-.12-1.04-.34-.66-.01-.71.77-.12.52.4.52.46-.13,1.03-.5.44-.64.48-.52.13ZM313.12,2.58c.11-.18.33-.32.5-.32s.3.14.3.32-.22.32-.5.32-.41-.14-.3-.32ZM319.36,2.49c0-.22.3-.67.68-.99.53-.45.76-.49,1.04-.19.27.29.26.42-.04.53-.22.08-.4.35-.4.6,0,.25-.29.45-.64.45s-.64-.18-.64-.41ZM337.8,2.42c.24-.62,1.08-.62,1.08,0,0,.26-.28.48-.63.48-.43,0-.57-.15-.45-.48h0ZM391.35,2.41c-.62-.75-.18-.89.48-.15.32.35.43.64.25.64s-.51-.22-.74-.49ZM190.36,1.64c-.19-.54-.54-.98-.79-.98s-.45-.14-.45-.32c0-.45.93-.4,1.4.08.55.55.84,1.8.48,2.02-.16.1-.45-.26-.64-.8ZM252.31,2.24c-.3-.49.11-.81.52-.4.23.23.24.41.02.54-.18.11-.42.05-.54-.15h0ZM282.45,2.36c-.34-.34-.25-1.07.13-1.07s1.26.78,1.26,1.1c0,.25-1.13.23-1.39-.03ZM382.72,2.07c0-.33.23-.47.69-.4,1.02.15,1.13.9.13.9-.54,0-.83-.18-.83-.5h0ZM216.64,1.94c0-.18.15-.32.34-.32s.25.14.14.32-.26.32-.34.32-.14-.14-.14-.32ZM250.6,1.83c-.42-.51-.16-.85.65-.85.65,0,.67.05.39.77-.24.62-.57.64-1.04.08ZM258.4,1.94c-.11-.18.03-.32.3-.32s.5.14.5.32-.14.32-.3.32-.39-.14-.5-.32ZM260.48,1.92c0-.19.14-.25.32-.14.18.11.32.26.32.34s-.14.14-.32.14-.32-.15-.32-.34ZM308.32,1.94c.11-.18.26-.32.34-.32s.14.14.14.32-.15.32-.34.32-.25-.14-.14-.32ZM324.47,1.59c-.48-.9-.17-1.58.72-1.57.54,0,.62.08.29.29-.29.19-.37.56-.23,1.12.25,1-.27,1.12-.78.17ZM325.91,1.92c-.36-.58.15-1.9.74-1.9.39,0,.56.26.56.88.01,1.15-.82,1.8-1.3,1.02ZM378.13,1.78c-.26-.26-.71-.39-.98-.29-.64.24-.66-.31-.03-.83.39-.32.51-.3.67.12.11.28.4.52.64.52s.45.22.45.48c0,.6-.15.6-.75,0h0ZM192.96,1.62c0-.18.14-.32.32-.32s.32.14.32.32-.14.32-.32.32-.32-.14-.32-.32ZM232.38,1.4c.13-.7,1.06-.8,1.06-.11,0,.26-.27.53-.59.59-.43.08-.56-.05-.48-.48ZM236.93,1.67c-.52-.37-1.12-1.65-.77-1.65.18,0,.32.12.32.28s.57.23,1.27.17c1.32-.11,2.08.38,1.07.7-.32.1-.81.3-1.09.45s-.64.17-.8.06ZM239.9,1.73c-.33-.33.09-.76.76-.76.75,0,.82.49.11.77-.62.24-.62.24-.87-.01h0ZM269.68,1.59c-.49-.28-.81-1.25-.42-1.25.53,0,1.78.82,1.78,1.17,0,.51-.58.54-1.36.08ZM276.16,1.62c0-.18.22-.32.5-.32s.41.14.3.32-.33.32-.5.32-.3-.14-.3-.32ZM289.6,1.46c0-.26.14-.48.32-.48s.32.22.32.48-.14.48-.32.48-.32-.22-.32-.48ZM293.92,1.62c-.26-.41.41-1.6.89-1.6s1.19,1.09.92,1.47c-.3.41-1.58.5-1.81.13ZM330.88,1.46c0-.26.14-.48.32-.48s.32.22.32.48-.14.48-.32.48-.32-.22-.32-.48ZM365.57,1.57c-.27-.44.35-1.05.8-.78.19.12.35.34.35.48,0,.43-.92.66-1.15.29ZM215.04.98c0-.35.14-.64.32-.64s.32.29.32.64-.14.64-.32.64-.32-.29-.32-.64ZM224.74,1.17c.09-.24,0-.6-.19-.8-.27-.27-.06-.36.77-.36,1.43,0,1.7.27,1.03,1.01-.63.7-1.86.81-1.61.14ZM227.37,1.32c-.1-.16-.04-.39.14-.5.18-.11.33.02.33.3,0,.56-.19.64-.47.2h0ZM234.72,1.3c-.23-.38.07-.96.5-.96.17,0,.3.29.3.64,0,.67-.47.86-.8.32ZM241.6,1.3c0-.18.14-.32.32-.32s.32.14.32.32-.14.32-.32.32-.32-.14-.32-.32ZM287.25,1.4c-.37-.37-.23-.75.27-.75.26,0,.48.22.48.48,0,.5-.38.63-.75.27ZM297.98,1.08c.13-.7,1.06-.8,1.06-.11,0,.26-.27.53-.59.59-.43.08-.56-.05-.48-.48ZM302.78,1.27c.15-.44.69-.44.84,0,.06.19-.13.34-.42.34s-.48-.15-.42-.34ZM306.24,1.14c0-.57-.53-.65-.71-.1-.07.21-.3.27-.52.13-.3-.19-.31-.35-.02-.7.49-.59,3.61-.64,3.42-.05-.07.22-.34.4-.59.4s-.57.18-.71.4c-.35.55-.86.5-.86-.08ZM322.38,1.26c-.2-.32.35-.91.87-.92.46-.01.52.92.07,1.09-.65.25-.68.24-.94-.17h0ZM342.88,1.29c.11-.18.34-.24.5-.14.44.27.36.47-.2.47-.27,0-.41-.15-.3-.33ZM355.4,1.14c.1-.26.31-.4.47-.3.45.28.33.78-.18.78-.29,0-.4-.19-.29-.48ZM369.01,1.16c.06-.29.25-.53.43-.52.47.03.39.74-.11.91-.27.09-.39-.06-.32-.39ZM161.98.95c.15-.44.69-.44.84,0,.06.19-.13.34-.42.34s-.48-.15-.42-.34ZM222.08.82c0-.33.21-.49.56-.42.67.13.63.7-.06.84-.29.06-.5-.12-.5-.42ZM228.48.66l-.8-.63h1.17c1.01-.01,1.15.07,1,.63-.21.79-.36.79-1.37,0h0ZM231.36.66c0-.57.2-.63,1.68-.59,1.41.05,1.49.07.46.18-.67.07-1.3.33-1.39.59-.26.68-.75.56-.75-.18ZM242.88.98c0-.18.15-.32.34-.32s.25.14.14.32-.26.32-.34.32-.14-.14-.14-.32ZM251.52.64l-.8-.61h1.24c1.13-.01,1.2.03.81.55-.24.31-.44.59-.44.62,0,.03-.37-.22-.81-.55h0ZM257.35.92c.2-.59.89-.69.89-.13,0,.28-.23.51-.51.51s-.45-.17-.38-.38h0ZM259.96.92c-.11-.17-.05-.47.14-.65.37-.37,1.34-.12,1.34.34,0,.42-1.24.69-1.48.31ZM271.87.77c-.11-.29-.13-.59-.05-.68.3-.3,1.14.23,1.14.72,0,.66-.84.63-1.09-.04h0ZM337.28.84c0-.25-.18-.53-.4-.61-.22-.09-.08-.17.32-.19.52-.02.72.16.72.61,0,.35-.14.64-.32.64s-.32-.2-.32-.45ZM344.22,1.09c-.26-.26.03-.76.44-.76.17,0,.3.22.3.48,0,.49-.38.64-.74.28ZM380.07.68c-.1-.36-.05-.66.1-.66.46,0,.72.68.39,1.01-.2.2-.37.08-.49-.35h0ZM389.12.82c0-.26.14-.48.32-.48s.32.22.32.48-.14.48-.32.48-.32-.22-.32-.48ZM398.15.92c.2-.59.89-.69.89-.13,0,.28-.23.51-.51.51s-.45-.17-.38-.38h0ZM191.58.46c.09-.24.45-.44.79-.44.76,0,.52.5-.34.73-.44.11-.57.03-.45-.28ZM196.06.77c-.53-.53-.11-.75,1.38-.75.88,0,1.6.13,1.6.29,0,.47-.96.69-1.57.37-.36-.19-.68-.19-.88,0-.17.17-.41.21-.53.09h0ZM278.32.74c-.85-.19-.67-.72.24-.72.44,0,.8.14.8.3,0,.42-.38.57-1.04.42h0ZM284.16.68c0-.36,1.25-.8,1.52-.53.1.1-.05.19-.34.19s-.53.14-.53.32-.14.32-.32.32-.32-.13-.32-.3ZM309.47.58c-.02-.39.22-.56.77-.56.44,0,.8.16.8.36s-.28.28-.62.19c-.34-.09-.69,0-.77.2-.08.2-.16.11-.18-.19ZM349.6.66c-.11-.18-.05-.32.12-.32s.41.14.52.32c.11.18.05.32-.12.32s-.41-.14-.52-.32ZM358.16.76c-.66-.26-.46-.6.4-.67.52-.04.8.1.8.41,0,.47-.44.57-1.2.26h0ZM378.77.76c-.37-.37-.23-.75.27-.75.26,0,.48.22.48.48,0,.5-.38.63-.75.27ZM390.4.5c0-.26.22-.48.48-.48s.48.22.48.48-.22.48-.48.48-.48-.22-.48-.48ZM239.52.34c-.11-.18.1-.32.46-.32s.66.14.66.32-.21.32-.46.32-.55-.14-.66-.32ZM319.04.34c0-.18.14-.32.32-.32s.32.14.32.32-.14.32-.32.32-.32-.14-.32-.32ZM347.68.34c.11-.18.34-.32.52-.32s.23.14.12.32-.34.32-.52.32-.23-.14-.12-.32ZM384.8.34c.11-.18.34-.32.52-.32s.23.14.12.32-.34.32-.52.32-.23-.14-.12-.32ZM391.84.34c-.11-.18.04-.32.32-.32s.43.14.32.32-.25.32-.32.32-.21-.14-.32-.32ZM282.5.12c.23-.09.51-.08.61.03.11.11-.08.18-.42.17-.37-.02-.45-.09-.19-.19ZM320.9.12c.23-.09.51-.08.61.03.11.11-.08.18-.42.17-.37-.02-.45-.09-.19-.19ZM397.38.12c.23-.09.51-.08.61.03.11.11-.08.18-.42.17-.37-.02-.45-.09-.19-.19Z" ></path>
    </g>  
</svg>
