<!-- SVG Sprite -->
<svg id="BG-Dots" xmlns="http://www.w3.org/2000/svg" viewBox="0 0 752.51 74.88">
    <g id="Gradient">
      <path id="Dots" fill="currentColor" d="M322.94,74.19c.97-.25,2.32-.24,3,.04.68.27-.12.48-1.77.46s-2.2-.24-1.23-.5ZM344.92,74.19c.96-.25,2.54-.25,3.5,0s.17.46-1.75.46-2.71-.21-1.75-.46ZM366.58,73.79c1.53-.61,3.36-.62,5-.02,2.23.82,1.9.95-2.41.97-4.21.01-4.62-.14-2.59-.95ZM387.67,73.88c.83-.53,2.62-.97,4-.97s3.17.44,4,.97c1.07.69-.08.97-4,.97s-5.07-.28-4-.97ZM409.17,73.88c.34-.55,2.36-1,4.5-1s4.16.45,4.5,1c.38.62-1.34,1-4.5,1s-4.88-.38-4.5-1ZM431.47,73.68c.66-.66,2.78-1.2,4.7-1.2s4.04.54,4.7,1.2c.93.93-.11,1.2-4.7,1.2s-5.63-.27-4.7-1.2ZM454.17,73.28c2.14-1.65,7.98-1.31,9.86.57.72.72-.96,1.03-5.41,1-6.01-.03-6.31-.14-4.45-1.57ZM476.11,73.35c1.07-.81,3.12-1.47,4.56-1.47s3.49.66,4.56,1.47c1.77,1.34,1.37,1.47-4.56,1.47s-6.33-.13-4.56-1.47ZM498.11,73.35c1.07-.81,3.34-1.47,5.06-1.47s3.99.66,5.06,1.47c1.77,1.34,1.31,1.47-5.06,1.47s-6.83-.13-5.06-1.47ZM520.11,73.35c1.07-.81,3.34-1.47,5.06-1.47s3.99.66,5.06,1.47c1.77,1.34,1.31,1.47-5.06,1.47s-6.83-.13-5.06-1.47ZM543.11,73.35c1.07-.81,3.12-1.47,4.56-1.47s3.49.66,4.56,1.47c1.77,1.34,1.37,1.47-4.56,1.47s-6.33-.13-4.56-1.47ZM564.14,73.92c1.16-1.88,7.2-2.28,10.16-.67,2.83,1.53,2.78,1.55-3.95,1.59-4.11.02-6.57-.34-6.21-.92ZM587.47,73.68c.66-.66,2.78-1.2,4.7-1.2s4.04.54,4.7,1.2c.93.93-.11,1.2-4.7,1.2s-5.63-.27-4.7-1.2ZM610.17,73.88c.34-.55,2.36-1,4.5-1s4.16.45,4.5,1c.38.62-1.34,1-4.5,1s-4.88-.38-4.5-1ZM634.33,73.7c1.49-.72,3.04-.73,5-.01,2.62.95,2.45,1.03-2.16,1.05-4.19,0-4.65-.16-2.84-1.03ZM657.43,74.17c1.24-.24,3.04-.23,4,.02s-.06.45-2.26.43c-2.2-.01-2.98-.22-1.74-.46ZM422.67,67.17c-3.37-1.23-6-4.69-6-7.89,0-4.62.85-6.28,4.07-7.94,4.2-2.17,6.75-1.8,10.01,1.46,4.8,4.8,3.59,11.06-2.63,13.66-1.86.78-3.51,1.38-3.67,1.34s-.96-.33-1.78-.63ZM441.74,65.29c-6.3-5.3-2.74-15.41,5.42-15.41,4.82,0,8.5,3.63,8.5,8.37s-.82,6.48-4.07,8.16c-4.04,2.09-6.35,1.82-9.85-1.13ZM463.74,65.29c-6.22-5.23-2.62-15.41,5.45-15.41,4.79,0,9.47,4.45,9.47,9,0,2.15-.93,4.08-2.92,6.08-3.73,3.73-7.83,3.84-12,.33ZM485.59,64.96c-3.73-3.73-3.84-7.83-.33-12,2.09-2.48,3.35-3.08,6.55-3.08,5.49,0,8.87,3.43,8.87,9,0,8.38-9.1,12.05-15.08,6.07h0ZM507.99,65.49c-2.19-1.89-2.78-3.25-2.78-6.44,0-5.72,3.37-9.16,8.95-9.16s8.95,3.44,8.95,9.16c0,7.84-9.03,11.69-15.13,6.44h0ZM530.12,65.43c-1.81-1.81-2.45-3.54-2.45-6.55s.65-4.74,2.45-6.55c5.51-5.51,15.55-1.46,15.55,6.26s-10.09,12.29-15.55,6.83ZM552.59,64.96c-3.73-3.73-3.84-7.83-.33-12,5.39-6.41,15.45-2.72,15.38,5.63-.07,8.56-9.06,12.36-15.05,6.37ZM576.52,66.36c-3.74-2.03-5.2-6.72-3.42-10.99,3.76-9.01,16.61-6.52,16.53,3.21-.06,7.51-6.54,11.35-13.11,7.78h0ZM599.99,66.41c-6.01-2.6-7.12-8.89-2.41-13.61,1.61-1.61,3.88-2.92,5.05-2.92,2.9,0,7.65,2.57,8.41,4.54,3.04,7.92-3.66,15.19-11.05,11.99ZM355.67,66.17c-5.64-2.07-6.98-9.59-2.37-13.22,1.45-1.14,3.72-2.07,5.05-2.07,3.32,0,7.32,4.24,7.32,7.77,0,2.72-3.09,7.23-4.96,7.23-.48,0-1.48.19-2.21.42-.73.23-2.01.17-2.83-.13ZM375.3,64.81c-5.6-4.41-1.99-13.98,5.25-13.9,7.46.09,10.33,9.29,4.37,13.98-3.23,2.54-6.31,2.52-9.62-.09ZM396.84,64.57c-2.84-3.02-2.93-8.93-.17-11.69,4.87-4.87,14-1.04,14,5.86s-9.06,10.89-13.83,5.83ZM620.12,64.43c-5.06-5.06-1.64-13.55,5.44-13.55,4.91,0,8.1,3.24,8.1,8.24,0,6.95-8.55,10.3-13.55,5.3ZM644.98,65.87c-4.92-1.98-5.91-9.6-1.68-12.92,1.45-1.14,3.72-2.07,5.05-2.07,3.42,0,7.32,4.24,7.32,7.95,0,2.89-2.9,7.05-4.92,7.05-.51,0-1.52.2-2.25.44s-2.31.04-3.52-.44ZM309.3,63.81c-3.22-2.54-3.51-7.05-.63-9.93,4.21-4.21,11.33-1.06,11.33,5,0,2.24-.74,3.91-2.28,5.16-2.95,2.39-5.17,2.33-8.42-.23h0ZM330.67,63.88c-4.33-4.33-1.13-12,5-12,3.85,0,7,3.15,7,7s-3.15,7-7,7c-1.67,0-3.89-.89-5-2ZM665.67,63.88c-2.8-2.8-2.68-8.41.22-10.44,3.41-2.39,7.32-1.95,9.7,1.08,2.72,3.46,2.62,5.91-.38,8.91-2.97,2.97-6.84,3.16-9.55.45ZM264.67,62.88c-2.4-2.4-2.54-4.79-.44-7.78,3.03-4.33,10.44-1.77,10.44,3.61,0,2.72-3.35,6.17-6,6.17-1.1,0-2.9-.9-4-2ZM286.32,63.05c-3.68-4.07-.63-10.42,5-10.42,2.92,0,6.34,3.31,6.34,6.14,0,.92-.7,2.67-1.56,3.89-1.96,2.8-7.41,3.02-9.79.39ZM688.25,62.97c-1.1-1.21-1.61-3.12-1.41-5.24.72-7.46,11-7.21,11.62.28.36,4.34-1.74,6.87-5.72,6.87-1.53,0-3.55-.86-4.5-1.91ZM711.89,63.32c-4.26-2.98-1.79-10.44,3.45-10.44,2.57,0,5.33,3.02,5.33,5.83,0,2.38-3.25,6.17-5.28,6.17-.7,0-2.28-.7-3.5-1.56ZM198.67,61.88c-2.41-2.41-2.45-2.92-.44-5.78,1.89-2.7,4.56-2.85,6.79-.39,2.27,2.51,2.07,4.76-.57,6.61-2.86,2-3.37,1.96-5.78-.44h0ZM220.22,61.66c-2.02-2.88-1.96-4.1.27-6.12,2.64-2.39,5.87-2.04,7.76.85,1.52,2.32,1.52,2.68,0,5-2.07,3.15-5.93,3.29-8.04.28ZM242.24,62.31c-2.14-2.14-1.97-5.03.43-7.43,2.41-2.41,3.84-2.5,6.78-.44,2.45,1.71,3.01,6.25,1.02,8.24-1.7,1.7-6.37,1.49-8.23-.37ZM733.07,61.38c-1.52-2.32-1.52-2.68.04-5.06,2.36-3.6,7.6-3.14,8.97.78,1.98,5.67-5.7,9.33-9.01,4.28h0ZM154.71,61.43c-2.65-3.19,1.26-8.2,4.38-5.62,1.88,1.56,2.05,4.2.38,5.87-1.6,1.6-3.29,1.51-4.76-.25ZM176.08,61.52c-.32-.82-.43-2.54-.24-3.82.26-1.82.96-2.32,3.22-2.32,3.56,0,5.61,2.68,4,5.25-1.43,2.28-6.21,2.89-6.98.89ZM110.82,61c-1.97-1.25-.97-4.57,1.48-4.92,2.51-.36,3.93,2.42,2.26,4.43-1.32,1.59-1.89,1.66-3.74.49h0ZM132.05,60.45c-1-2.59.4-4.74,2.86-4.39,1.65.23,2.25.99,2.25,2.82s-.6,2.59-2.25,2.82c-1.35.19-2.5-.31-2.86-1.25ZM44.11,59.79c-.86-1.39,1.04-3.35,2.42-2.49,1.15.71.41,3.58-.92,3.58-.46,0-1.14-.49-1.51-1.09ZM66.17,59.88c-.84-1.35.29-3,2.06-3,.79,0,1.44.9,1.44,2,0,2.07-2.41,2.76-3.5,1ZM88.02,59.35c-.73-1.91,1.27-3.55,3.36-2.75,1.89.72,1.19,3.68-.97,4.09-.96.18-2.03-.42-2.38-1.34h0ZM.17,58.88c-.34-.55-.14-1,.44-1s1.06.45,1.06,1-.2,1-.44,1-.72-.45-1.06-1ZM21.86,58.81c.2-.59.79-1.08,1.31-1.08s1.11.48,1.31,1.08-.39,1.08-1.31,1.08-1.51-.48-1.31-1.08ZM455.02,44.89c-3.1-1.25-5.36-4.95-5.36-8.78,0-7.91,10.22-11.32,15.41-5.16,1.42,1.69,2.59,3.96,2.59,5.05,0,3.54-2.86,7.63-6.12,8.77-3.65,1.27-3.66,1.27-6.52.12ZM477.02,44.93c-4.91-2.07-6.95-9.33-3.85-13.75,2.39-3.41,7.73-4.75,11.41-2.85,3.6,1.86,5.09,4.33,5.09,8.43,0,5.89-7.12,10.49-12.64,8.17ZM499.67,45.17c-7.12-2.62-7.7-13.33-.91-16.84,3.85-1.99,6.17-1.82,9.35.68,3.74,2.95,4.88,6.36,3.51,10.53-1.58,4.79-7.12,7.4-11.95,5.63ZM520.97,44.73c-2.89-1.46-5.61-7.27-4.75-10.13,1.8-5.95,8.12-8.97,13.23-6.33,5.37,2.78,6.63,11.11,2.28,15.05-2.33,2.11-7.93,2.84-10.76,1.41h0ZM544.02,44.93c-7.72-3.25-6.59-15.74,1.58-17.53,3.38-.74,8.46,1.5,10.03,4.43,3.96,7.4-3.95,16.33-11.61,13.1ZM566.14,44.51c-2.89-1.28-5.48-5.12-5.48-8.13,0-5.11,6.03-9.81,11.27-8.8,6.25,1.22,9.09,10.74,4.48,15.05-3.04,2.83-6.63,3.49-10.27,1.88ZM387.98,43.87c-3.67-1.48-5.43-6.93-3.69-11.45.94-2.44,5.98-4.68,8.89-3.95,3.19.8,6.49,4.93,6.49,8.12,0,2.9-5.06,8.32-7.67,8.22-1-.03-2.81-.46-4.01-.94h0ZM408.12,42.43c-5.13-5.13-1.6-14.55,5.44-14.55,4.59,0,8.5,3.91,8.5,8.5,0,7.39-8.79,11.2-13.95,6.05ZM430.12,42.43c-5.39-5.39-1.59-14.55,6.05-14.55,4.88,0,8.5,3.62,8.5,8.5s-3.62,8.5-8.5,8.5c-2.48,0-4.35-.76-6.05-2.45ZM586.12,42.43c-5.39-5.39-1.59-14.55,6.05-14.55s11.62,9.72,6.19,14.83c-3.27,3.07-9.01,2.94-12.23-.28h0ZM609.12,42.6c-6.17-5.31-1.52-15.63,6.47-14.35,4.44.71,7.08,3.8,7.08,8.29,0,7.22-8.02,10.81-13.54,6.06ZM634.02,43.89c-2.73-1.1-5.36-4.83-5.36-7.6,0-1.18.93-3.33,2.07-4.78,4.43-5.63,13.93-2.1,13.93,5.18,0,3.03-2.85,7.19-4.92,7.19-.51,0-1.52.2-2.25.44-.73.24-2.3.05-3.47-.43h0ZM320.37,41.86c-3.27-2.57-3.71-7.77-.88-10.33,2.74-2.48,8.71-2.16,10.61.57,4.72,6.74-3.32,14.81-9.74,9.76ZM341.84,41.57c-3.08-3.27-2.87-7.99.46-10.61,4.34-3.41,8.53-2.59,10.98,2.15,3.86,7.46-5.72,14.55-11.44,8.46ZM363.67,41.88c-1.24-1.24-2-3.33-2-5.5s.76-4.26,2-5.5c2.65-2.65,8.35-2.65,11,0,1.24,1.24,2,3.33,2,5.5s-.76,4.26-2,5.5c-1.24,1.24-3.33,2-5.5,2s-4.26-.76-5.5-2ZM654.12,41.43c-1.35-1.35-2.45-3.62-2.45-5.05,0-3.33,4.17-7.5,7.5-7.5s7.5,4.17,7.5,7.5-4.17,7.5-7.5,7.5c-1.43,0-3.7-1.1-5.05-2.45ZM275.67,40.88c-5.25-5.25,1.36-13.62,7.55-9.56,3.3,2.16,3.43,7.76.23,10-2.99,2.1-5.37,1.96-7.78-.44ZM297.67,40.88c-3.96-3.96-1.08-11,4.5-11,3.12,0,6.5,3.26,6.5,6.28,0,6.01-6.79,8.93-11,4.72ZM676.67,40.88c-4.12-4.12-1.04-11,4.93-11,2.93,0,7.07,3.81,7.07,6.5,0,.68-.93,2.42-2.07,3.87-2.54,3.22-7.05,3.51-9.93.63ZM700.3,40.81c-1.47-1.15-2.63-3.08-2.63-4.35,0-4.94,7.84-7.89,10.67-4.02,2.07,2.83,1.64,7.1-.89,8.88-2.92,2.04-3.99,1.97-7.14-.52ZM231.05,39.34c-2.12-3.24-.62-7.11,3.13-8.05,5.18-1.3,8.64,5.34,4.66,8.94-2.66,2.4-5.87,2.04-7.79-.89ZM253.32,40.05c-2.2-2.43-2.09-5.46.26-7.59,2.73-2.47,7.18-1.7,9,1.55,1.32,2.36,1.29,2.91-.24,5.25-2.06,3.14-6.53,3.53-9.01.79ZM722.32,40.05c-3.23-3.57-.77-9.17,4.02-9.17,2.51,0,5.33,3,5.33,5.67,0,4.58-6.25,6.92-9.34,3.5ZM746.6,40.54c-2.86-1.42-3.74-5.75-1.55-7.57.82-.68,2.75-1.09,4.3-.91,2.45.28,2.85.8,3.12,4.01.38,4.54-2.03,6.38-5.87,4.48ZM166.26,39.57c-1.1-.8-1.65-2.25-1.44-3.75.28-1.95.93-2.44,3.24-2.44,4.02,0,5.61,2.73,3.16,5.44-2.19,2.42-2.59,2.48-4.96.75h0ZM187.24,38.68c-1.32-1.88-1.34-2.51-.19-4.25,2.59-3.91,7.62-2.68,7.62,1.88s-4.78,6.15-7.43,2.37h0ZM208.65,38.84c-.6-1.12-.81-2.92-.47-4,.74-2.33,5.14-3.67,7.39-2.26,2.04,1.28,2.6,4.98,1.05,6.85-1.81,2.18-6.68,1.82-7.97-.59h0ZM121.88,38.69c-1.64-1.64-1.52-3.31.34-4.85,2.22-1.84,5.42,1.27,3.86,3.75-1.4,2.23-2.73,2.57-4.2,1.1h0ZM143.05,38.44c-1.07-2.78.07-5.06,2.52-5.06,3.15,0,4.94,2.78,3.16,4.92-1.64,1.98-4.95,2.06-5.69.14ZM55.35,38.23c-1.42-1.42-.61-3.35,1.39-3.35,1.4,0,1.97.54,1.75,1.67-.36,1.84-2.06,2.76-3.14,1.69ZM77.05,37.43c-.7-1.82.32-3.55,2.07-3.55,1.52,0,2.84,2.72,1.99,4.09-.87,1.41-3.45,1.07-4.06-.54ZM99,37.31c-.33-.86-.12-2.05.46-2.63,1.56-1.56,4.2-.19,4.2,2.17s-3.75,2.84-4.66.46ZM11.22,36.97c-.32-.52-.16-1.21.36-1.53.52-.32,1.21-.16,1.53.36.32.52.16,1.21-.36,1.53-.52.32-1.21.16-1.53-.36ZM33.36,37.24c-.8-.8.1-2.36,1.37-2.36.52,0,.94.67.94,1.5,0,1.55-1.18,1.99-2.31.86ZM488.93,22.69c-6.35-1.69-8.21-10.01-3.34-14.89,5.88-5.88,14.97-2.2,15.05,6.1.06,6.58-5.19,10.52-11.71,8.78ZM511.05,22.92c-2.77-1.15-6.39-5.81-6.39-8.23,0-2.77,2.71-7.59,4.94-8.79,5.61-3,12.67.65,13.7,7.08.48,3.03.11,4.12-2.28,6.71-3.14,3.41-6.72,4.56-9.97,3.21h0ZM533.94,23.18c-3.32-.64-6.27-5-6.24-9.18.04-3.97,1.33-6.18,4.65-7.95,7.85-4.18,16.51,5.01,12.24,12.99-.88,1.64-7.07,5.23-8.14,4.71-.16-.07-1.29-.33-2.51-.57h0ZM399.17,21.73c-3.25-1.78-4.5-3.99-4.5-7.96,0-7.07,8.5-10.48,13.55-5.43,4.39,4.39,2.98,11.47-2.67,13.44-3.81,1.33-3.85,1.33-6.37-.05h0ZM420.98,21.87c-4.76-1.92-5.95-10.11-2-13.82,3.27-3.07,9.01-2.94,12.23.28,3.44,3.44,3.26,7.89-.47,11.62-2.97,2.97-5.78,3.52-9.76,1.92h0ZM441.12,20.43c-3.43-3.43-3.39-9.32.07-12.57,5.62-5.28,14.47-1.45,14.47,6.25,0,5.17-3.5,8.78-8.5,8.78-2.48,0-4.35-.76-6.05-2.45ZM463.12,20.43c-3.6-3.6-3.35-8.8.59-12.75,2.63-2.63,3.55-2.97,6.75-2.46,8.37,1.33,10.97,11.25,4.29,16.38-2.82,2.16-8.91,1.55-11.63-1.17h0ZM553.9,22.21c-1.82-.73-4.23-5.78-4.23-8.86,0-1.57,1.18-3.8,2.92-5.55,3.73-3.73,7.83-3.84,12-.33,6.42,5.4,2.71,15.51-5.63,15.33-2.09-.04-4.37-.31-5.07-.59ZM576.32,21.75c-1.01-.59-2.49-2.62-3.28-4.51-1.27-3.03-1.25-3.83.14-6.76,2.78-5.87,8.49-7.15,13.4-3.01,6.16,5.19,2.74,15.45-5.13,15.38-1.81-.02-4.13-.51-5.14-1.1ZM597.47,19.83c-2.63-2.63-2.97-3.55-2.45-6.75.74-4.65,3.79-7.2,8.59-7.2,7.49,0,11.02,9.14,5.61,14.55-3.49,3.49-7.89,3.26-11.75-.59ZM353.3,19.81c-5.44-4.28-2.31-12.93,4.69-12.93s10.05,7.72,5.22,12.55c-3,3-6.42,3.13-9.91.38h0ZM374.84,19.57c-4.18-4.45-2-11.91,3.87-13.19,6.03-1.32,11.25,4.99,8.87,10.73-2.17,5.23-8.91,6.54-12.73,2.46ZM619.74,19.25c-6.35-8.07,4.24-18.14,11.47-10.91,3.09,3.09,3.28,8.28.42,11.36-3.03,3.25-9.16,3.02-11.89-.45ZM643.3,19.81c-5.51-4.33-2.3-12.93,4.83-12.93s9.99,7.64,5.08,12.55c-3,3-6.42,3.13-9.91.38h0ZM287.3,18.81c-2.98-2.35-3.37-5.44-1.08-8.7,3.04-4.33,11.44-1.53,11.44,3.82,0,2.33-4.2,6.95-6.32,6.95-.78,0-2.6-.93-4.05-2.07h0ZM308.61,18.82c-2.84-2.84-2.26-7.63,1.25-10.24,2.33-1.73,3.08-1.83,5.62-.78,3.28,1.36,5.46,5.14,4.51,7.82-1.9,5.37-7.61,6.97-11.38,3.2h0ZM330.22,18.66c-2.23-3.18-1.92-7.09.76-9.6,3-2.82,6.78-2.77,9.51.14,4.53,4.82,1.69,11.69-4.83,11.69-2.88,0-4.29-.57-5.44-2.22ZM665.37,19.1c-2.13-2.35-2.2-7.58-.13-9.65,6.1-6.1,15.82,1.39,10.71,8.26-2.54,3.41-8.09,4.14-10.58,1.38ZM688.89,19.32c-2.8-1.96-3.02-7.41-.39-9.79,4.19-3.79,10.17-.78,10.17,5.12,0,3.22-2.9,6.23-6,6.23-.86,0-2.56-.7-3.78-1.56ZM242.67,17.88c-1.1-1.1-2-2.83-2-3.85,0-4.06,6.91-6.85,9.8-3.95,1.79,1.79,1.45,6.27-.63,8.15-2.43,2.2-4.74,2.09-7.17-.35ZM264.32,18.05c-.91-1.01-1.65-2.81-1.65-4,0-2.72,3.35-6.17,6-6.17s6,3.48,6,6.35c0,4.97-6.98,7.55-10.35,3.83ZM711.24,18.31c-1.86-1.86-2.07-6.53-.37-8.23,1.95-1.95,7.58-1.48,8.76.73,3.24,6.06-3.66,12.23-8.39,7.49h0ZM177.31,17.7c-1.92-1.07-2.17-4.89-.44-6.62,2.96-2.96,7.48-.03,6.42,4.17-.67,2.68-3.5,3.84-5.98,2.45ZM198.12,16.45c-2.21-3.37-.48-6.57,3.55-6.57,4.39,0,6.44,4.42,3.43,7.43-2.28,2.28-5.15,1.93-6.98-.86h0ZM220.24,17.31c-2.05-2.05-1.98-3.7.26-6.47,3.81-4.7,11.03.55,7.72,5.61-1.84,2.81-5.62,3.22-7.98.86ZM733.11,16.44c-1.56-2.37-1.56-2.74-.04-5.06,3.31-5.05,10.99-1.39,9.01,4.28-1.37,3.92-6.61,4.37-8.97.78h0ZM132.71,16.43c-1.75-2.11-.86-5,1.65-5.36,3.05-.44,4.89,3.09,2.73,5.24-1.95,1.95-2.85,1.97-4.39.12h0ZM154.33,17.21c-1.33-1.33-.62-5.29,1.11-6.21,2.47-1.32,5.22.43,5.22,3.32s-4.36,4.87-6.33,2.89h0ZM88.03,15.39c-.35-.9-.15-2.12.44-2.71,1.52-1.52,4.41-.13,4.01,1.94-.44,2.3-3.65,2.86-4.45.77h0ZM110,15.3c-.33-.87.13-2.31,1.03-3.21,1.47-1.47,1.79-1.48,3.17-.1.87.87,1.26,2.27.89,3.21-.81,2.12-4.3,2.19-5.1.1h0ZM22.31,15.19c-1.13-1.13-.69-2.31.86-2.31.83,0,1.5.42,1.5.94,0,1.26-1.56,2.16-2.36,1.37ZM44.13,14.81c-.92-1.49.15-2.3,2.06-1.56.88.34,1.33,1.07.98,1.62-.81,1.31-2.22,1.28-3.05-.06h0ZM65.86,14.13c.19-.96,1-1.75,1.81-1.75s1.62.79,1.81,1.75c.24,1.23-.3,1.75-1.81,1.75s-2.05-.52-1.81-1.75ZM.17,13.88c.34-.55.82-1,1.06-1s.44.45.44,1-.48,1-1.06,1-.78-.45-.44-1ZM434.94.19c.97-.25,2.32-.24,3,.04.68.27-.12.48-1.77.46-1.65-.02-2.2-.24-1.23-.5h0ZM456.92.19c.96-.25,2.54-.25,3.5,0s.17.46-1.75.46-2.71-.21-1.75-.46ZM478.92.19c.96-.25,2.54-.25,3.5,0s.17.46-1.75.46-2.71-.21-1.75-.46ZM501.43.17c1.24-.24,3.04-.23,4,.02.96.25-.06.45-2.26.43-2.2-.01-2.98-.22-1.74-.46h0ZM523.43.17c1.24-.24,3.04-.23,4,.02.96.25-.06.45-2.26.43-2.2-.01-2.98-.22-1.74-.46h0ZM545.43.17c1.24-.24,3.04-.23,4,.02.96.25-.06.45-2.26.43-2.2-.01-2.98-.22-1.74-.46h0ZM568.43.17c1.24-.24,3.04-.23,4,.02.96.25-.06.45-2.26.43-2.2-.01-2.98-.22-1.74-.46h0ZM590.94.19c.97-.25,2.32-.24,3,.04.68.27-.12.48-1.77.46-1.65-.02-2.2-.24-1.23-.5h0Z" ></path>
    </g>  
</svg>