<?xml version="1.0" encoding="UTF-8"?>
<svg id="Layer_1" data-name="Layer 1" xmlns="http://www.w3.org/2000/svg" viewBox="0 0 104 115.76">
  <polygon id="Left_Border" data-name="Left Border" points="52.05 56.31 51.88 113.76 5 83.09 2 27.4 52.05 56.31" fill="none" stroke="#013369" stroke-linecap="round" stroke-linejoin="round" stroke-width="4"/>
  <g id="Upper_B-L_Group" data-name="Upper B-L Group">
    <path id="Upper_B-L" data-name="Upper B-L" d="M23.49,82.6l-.31-9.98c1.65,1.06,3.11,1.99,4.36,2.79s2.3,1.48,3.14,2.03,1.48.97,1.9,1.25.64.44.64.46l-.03-.02c.28.22.53.46.77.72s.45.56.64.88.36.66.51,1.03.27.76.37,1.18c.05.2.09.4.13.6s.07.39.09.59.05.39.06.58.02.39.03.58c0,.13,0,.27,0,.4s0,.26-.02.4-.02.26-.04.39-.03.26-.05.39c-.01.23-.05.43-.1.61s-.13.34-.23.47-.22.24-.36.33-.3.15-.48.19c-.16.04-.33.06-.51.06s-.36-.02-.54-.06-.38-.1-.58-.18-.4-.18-.61-.3c-.21-.1-.55-.29-1.02-.57s-1.08-.64-1.81-1.1-1.59-.99-2.58-1.61-2.1-1.33-3.34-2.11M22.83,63.19l-.35-9.48c.16.1.36.21.59.35s.5.29.79.47.63.37,1,.59.77.45,1.21.71l1.07.64c.25.15.49.3.72.44s.45.28.66.41.41.26.6.38.37.24.54.35c.22.14.43.29.64.46s.41.35.61.54.39.4.58.62.37.45.55.7c.19.28.36.55.52.82s.28.54.39.81.2.54.26.8.11.53.13.79c.03.14.05.27.07.41s.04.26.05.39.02.25.03.38.01.24.02.36c0,.19,0,.37-.01.55s-.03.35-.06.52-.07.33-.11.48-.1.3-.16.45c-.11.25-.23.46-.37.62s-.31.29-.49.37-.38.12-.6.12-.46-.04-.72-.13c-.04-.01-.16-.08-.38-.2s-.52-.3-.91-.54-.88-.53-1.45-.87-1.23-.75-1.97-1.2l-3.45-2.1M31.32,50.62l-22.16-12.99.33,7.13c.11.1.24.21.38.34s.29.26.46.41.34.31.53.48.39.36.6.55c.21.19.41.37.59.54s.35.32.51.47.3.28.44.4.25.23.36.32c.04.83.1,2.06.18,3.7s.17,3.66.27,6.08.23,5.19.36,8.35.28,6.64.44,10.5c-.41-.12-.79-.24-1.15-.34s-.69-.21-.99-.3-.59-.17-.84-.25-.49-.14-.7-.2l.3,6.52,21.59,13.98c1.3.76,2.5,1.37,3.6,1.83s2.11.77,3.01.92,1.71.15,2.4-.01,1.3-.48,1.79-.96c.27-.35.52-.72.73-1.13s.39-.84.55-1.3.27-.95.36-1.47.15-1.06.18-1.64c0-.07,0-.15.01-.22s0-.15,0-.23,0-.15,0-.23,0-.15,0-.23c0-.55-.03-1.1-.1-1.66s-.15-1.12-.27-1.7-.27-1.15-.45-1.74-.39-1.18-.62-1.78c-.21-.54-.48-1.11-.78-1.7s-.67-1.21-1.07-1.86-.85-1.32-1.35-2.01-1.04-1.42-1.63-2.17c.7.01,1.32-.07,1.85-.25s1-.46,1.38-.84.68-.86.89-1.43.35-1.25.4-2.03c0-1.23-.08-2.42-.21-3.57s-.32-2.25-.57-3.31-.57-2.08-.94-3.05-.81-1.9-1.31-2.78c-.53-.92-1.13-1.8-1.78-2.65s-1.38-1.64-2.16-2.41-1.62-1.48-2.53-2.16-1.86-1.32-2.88-1.92" fill="#d50a0a" stroke="#013369" stroke-linecap="round" stroke-linejoin="round" stroke-width="2"/>
  </g>
  <polygon id="Right_Border" data-name="Right Border" points="52.05 56.31 102 27.26 98.69 82.91 51.88 113.76 52.05 56.31" fill="none" stroke="#013369" stroke-linecap="round" stroke-linejoin="round" stroke-width="4"/>
  <g id="Upper_B-R_Group" data-name="Upper B-R Group">
    <path id="Upper_B-R" data-name="Upper B-R" d="M72.93,86.75l.28-9.87c1.64-1,3.07-1.88,4.29-2.62s2.23-1.35,3.03-1.83,1.41-.84,1.81-1.07.6-.33.6-.32l-.03.02c.26-.12.5-.19.71-.21s.4.01.57.1.31.22.43.41.22.43.29.72c.04.14.07.29.09.44s.04.31.06.47.02.33.02.51,0,.36,0,.54c0,.13-.01.26-.02.4s-.02.28-.04.42-.04.29-.06.43-.05.3-.07.45c-.03.24-.07.49-.14.73s-.15.5-.25.75-.23.51-.37.77-.3.52-.48.79c-.16.24-.33.48-.5.7s-.35.43-.53.62-.37.37-.56.54-.39.32-.59.47c-.2.16-.53.39-.98.71s-1.03.7-1.74,1.17-1.55,1.02-2.51,1.64-2.07,1.34-3.3,2.13M73.43,67.62l.21-9.31c.16-.1.36-.22.59-.35s.49-.3.79-.48.63-.38.99-.6.76-.47,1.19-.73l1.04-.63c.24-.15.48-.29.7-.42s.44-.26.64-.37.4-.23.58-.33.36-.2.52-.29c.21-.11.41-.21.6-.29s.39-.13.57-.17.36-.06.54-.06.34.02.5.05c.17.05.33.13.46.22s.24.22.33.36.16.31.21.49.08.4.09.63c.02.11.03.22.04.33s.02.22.03.33,0,.22,0,.34,0,.23,0,.34c0,.18-.02.37-.05.56s-.05.39-.09.59-.08.4-.14.61-.11.42-.18.63c-.12.37-.25.73-.4,1.06s-.32.65-.5.95-.38.58-.6.84-.45.51-.7.73c-.03.03-.16.11-.36.25s-.5.32-.88.56-.84.53-1.4.87-1.19.74-1.92,1.19l-3.41,2.09M82.74,44.73l-22.39,13.22-.09,7.18c.12-.04.26-.08.4-.13s.31-.1.48-.15.36-.11.56-.17.41-.12.63-.18c.22-.06.42-.12.61-.17s.37-.11.53-.15.31-.09.45-.13.26-.08.37-.11c0,.82-.02,2.04-.04,3.68s-.05,3.65-.09,6.06-.08,5.19-.14,8.35-.11,6.64-.18,10.5c-.44.42-.85.81-1.23,1.18s-.74.71-1.07,1.03-.64.62-.92.89-.53.52-.76.74l-.08,6.55,21.77-14.18c1.24-.88,2.37-1.78,3.42-2.7s1.99-1.86,2.84-2.82,1.61-1.95,2.28-2.95,1.24-2.04,1.72-3.1c.27-.67.52-1.32.74-1.97s.41-1.28.58-1.91.31-1.25.42-1.85.2-1.21.26-1.8c0-.08.02-.15.02-.23s.01-.15.02-.23.01-.15.02-.23,0-.15.01-.22c.03-.53.03-1.02,0-1.49s-.08-.91-.16-1.33-.18-.8-.32-1.16-.29-.69-.48-1c-.17-.28-.38-.53-.63-.74s-.55-.41-.89-.57-.73-.29-1.15-.39-.9-.18-1.42-.22c.66-.8,1.25-1.61,1.76-2.41s.96-1.6,1.33-2.41.68-1.61.91-2.41.39-1.62.48-2.43c.06-1.18.06-2.26,0-3.23s-.17-1.83-.35-2.57-.41-1.39-.71-1.91-.65-.94-1.07-1.24c-.45-.31-.96-.51-1.53-.6s-1.21-.07-1.92.05-1.47.36-2.31.71-1.74.81-2.7,1.38" fill="#d50a0a" stroke="#013369" stroke-linecap="round" stroke-linejoin="round" stroke-width="2"/>
  </g>
  <polygon id="Top_Border" data-name="Top Border" points="2 27.4 52 2 102 27.26 52.05 56.31 2 27.4" fill="none" stroke="#013369" stroke-linecap="round" stroke-linejoin="round" stroke-width="4"/>
  <g id="Upper_S_Group" data-name="Upper S Group">
    <path id="Upper_S" data-name="Upper S" d="M34.3,15.44c-.71.37-1.42.75-2.1,1.15s-1.37.81-2.03,1.24-1.32.87-1.95,1.33-1.27.94-1.88,1.43c-.44.36-.83.73-1.19,1.09s-.67.74-.95,1.11-.52.75-.71,1.13-.36.76-.47,1.15c-.13.44-.2.87-.21,1.29s.05.82.16,1.22.29.78.54,1.14.55.73.91,1.07c.26.21.53.42.8.62s.54.4.81.58.55.37.83.54.56.34.84.5c.92.52,1.86.96,2.81,1.33s1.92.66,2.91.88,1.99.36,3,.42,2.04.05,3.08-.04c.91-.09,1.84-.22,2.81-.39s1.96-.39,2.98-.66,2.07-.57,3.15-.92,2.18-.74,3.31-1.18c1.58-.61,2.99-1.15,4.24-1.62s2.34-.88,3.27-1.22,1.7-.62,2.32-.83,1.07-.36,1.37-.45c.41-.14.83-.24,1.25-.31s.84-.09,1.27-.07.86.07,1.29.16.88.22,1.32.39c.07.03.15.06.22.09s.14.06.21.09.13.06.2.09.12.06.18.09c.29.15.54.32.76.49s.39.35.53.53.23.38.29.58.08.41.06.63c-.07.25-.18.49-.32.73s-.31.48-.52.72-.45.48-.73.71-.59.47-.94.7c-.25.15-.5.3-.74.44s-.49.29-.73.43-.48.28-.72.42-.48.27-.71.4c-.81.45-1.59.88-2.34,1.27s-1.47.75-2.16,1.07-1.35.62-1.97.88-1.22.49-1.78.68c-.08-.02-.22-.06-.41-.12s-.45-.13-.75-.22-.67-.2-1.09-.32-.9-.27-1.43-.43c-.37-.11-.73-.22-1.07-.32s-.66-.2-.97-.28-.6-.17-.88-.25-.54-.15-.79-.21c-.37.22-.79.46-1.26.73s-.99.56-1.56.88-1.2.67-1.87,1.04-1.4.78-2.18,1.21l11.6,6.54c1.61-.34,3.21-.75,4.8-1.23s3.16-1.01,4.72-1.62,3.1-1.27,4.63-2,3.03-1.52,4.52-2.37c.37-.21.74-.43,1.11-.65s.74-.44,1.1-.67.73-.46,1.1-.69.73-.47,1.09-.71c1.39-1,2.55-1.97,3.48-2.9s1.62-1.83,2.09-2.71.71-1.71.72-2.52-.19-1.58-.62-2.33c-.17-.34-.42-.69-.74-1.04s-.72-.71-1.18-1.08-1.01-.74-1.62-1.12-1.29-.76-2.05-1.15c-.19-.1-.38-.19-.58-.29s-.4-.2-.61-.3-.42-.2-.64-.3-.44-.21-.67-.31c-.41-.18-.83-.34-1.27-.48s-.89-.27-1.35-.39-.94-.21-1.43-.29-1-.14-1.51-.19c-.52-.05-1.04-.07-1.55-.08s-1.02,0-1.52.02-1,.06-1.49.12-.98.13-1.46.22c-.7.14-1.44.31-2.22.51s-1.6.44-2.45.71-1.75.58-2.69.91-1.91.71-2.93,1.12c-1.2.48-2.32.92-3.34,1.32s-1.96.75-2.8,1.06-1.6.58-2.26.8-1.23.4-1.71.54c-.23.07-.47.13-.71.18s-.48.08-.72.1-.49.03-.74.03-.5-.02-.76-.05c-.23-.02-.45-.06-.67-.1s-.43-.09-.64-.16-.41-.13-.61-.21-.39-.17-.58-.27l-.06-.03c-.41-.22-.74-.45-1-.69s-.44-.47-.55-.72-.14-.49-.1-.75.15-.51.34-.78c.49-.34.97-.67,1.44-.98s.94-.61,1.41-.9.92-.56,1.37-.82.9-.5,1.34-.74c.59-.31,1.17-.6,1.74-.86s1.13-.5,1.69-.71,1.1-.4,1.63-.57,1.06-.31,1.58-.43c.24.02.5.06.77.11s.55.1.84.17.59.14.9.23.64.18.97.29c.48.15.92.28,1.3.4s.71.22,1,.3.51.15.69.2.31.09.39.1l6.42-3.42-10.95-5.69c-1.51.29-2.99.62-4.42.99s-2.83.78-4.19,1.23-2.68.94-3.95,1.48-2.52,1.11-3.72,1.73" fill="#d50a0a" stroke="#013369" stroke-linecap="round" stroke-linejoin="round" stroke-width="2"/>
  </g>
</svg>