<!-- SVG Sprite -->
<svg >
  <symbol id="Icon-KDL-Logo" xmlns="http://www.w3.org/2000/svg" viewBox="0 0 72.05 98.54">
    <path id="Text_Board" d="M65.82,41.84v31.99l-.48.99c-.27.54-1.02,1.52-1.68,2.17-2.16,2.14-5.28,3.42-10.82,4.44-4.68.86-7.91,1.83-10.71,3.22-1.58.77-4.14,2.5-5.2,3.49-.45.43-.85.79-.89.79-.02,0-.48-.41-1.02-.9-2.56-2.3-6.46-4.3-10.71-5.49-.95-.27-3.2-.75-4.99-1.08-6.22-1.14-9.97-2.86-11.81-5.43-1.3-1.81-1.22-.71-1.22-18.28v-16.01l29.76.05,29.77.05Z" fill="#fff" stroke="#013369" stroke-miterlimit="10" stroke-width=".5"></path>
    <path id="Outside_Border" d="M68.98,10.76c-2.19,1.75-5.69,3.89-10.22,4.31-8.77.83-17.82-5.12-22.84-15.01-.29.67-5.95,13.17-18.64,14.69-6.98.84-12.4-2.68-14.38-3.89H.02v63.33c.28,1.58.93,3.98,2.67,6.22.74.96,2.98,3.56,11.51,6.19,6.07,1.86,6.89,1.15,10.37,2.44,3.12,1.15,7.27,3.75,11.63,9.46,3.98-5.42,8.23-8.05,11.12-9.26,5.21-2.19,8.41-1.2,15.75-4.68,3.74-1.76,5.57-3.28,6.87-5.27,1.78-2.72,2.06-5.57,2.08-7.19V10.76h-3.04ZM69.67,44.16c-.1,30.12-.1,30.27-.51,31.36-1.06,2.8-3.54,5.37-6.71,6.96-1.69.85-4.87,1.87-7.22,2.31-1.23.23-3.18.6-4.32.82-3.78.71-7.38,2.16-9.95,4-1.2.87-3.52,3.17-4.48,4.46l-.52.68-.23-.44c-.51-.95-2.61-3.17-4-4.23-3.47-2.64-6.71-3.85-13.4-5-4.68-.8-8.21-2.05-10.79-3.8-1.55-1.05-3.45-3.11-4.11-4.44-1.15-2.35-1.09-.62-1.09-33.06V13.93l1.33.78c3.68,2.16,8.58,3.22,12.69,2.75,7.34-.83,14.77-5.15,18.67-10.87l.93-1.36,1,1.42c3.58,5.14,10.24,9.32,16.91,10.63,1.79.35,6.28.3,8.05-.09,2.61-.58,6.4-2.12,7.37-3,.17-.16.35-.29.4-.29.04,0,.04,13.62-.02,30.26Z" fill="#fff" stroke="#013369" stroke-miterlimit="10" stroke-width=".05"></path>
    <path id="Inner_Blue" d="M69.69,13.9s-.23.13-.4.29c-.97.88-4.76,2.42-7.37,3-1.77.39-6.26.44-8.05.09-6.67-1.31-13.33-5.49-16.91-10.63l-1-1.42-.93,1.36c-3.9,5.72-11.33,10.04-18.67,10.87-4.11.47-9.01-.59-12.69-2.75l-1.33-.78v29.85c0,32.44-.06,30.71,1.09,33.06.66,1.33,2.56,3.39,4.11,4.44,2.58,1.75,6.11,3,10.79,3.8,6.69,1.15,9.93,2.36,13.4,5,1.39,1.06,3.49,3.28,4,4.23l.23.44.52-.68c.96-1.29,3.28-3.59,4.48-4.46,2.57-1.84,6.17-3.29,9.95-4,1.14-.22,3.09-.59,4.32-.82,2.35-.44,5.53-1.46,7.22-2.31,3.17-1.59,5.65-4.16,6.71-6.96.41-1.09.41-1.24.51-31.36.06-16.64.06-30.26.02-30.26ZM48.16,22.99l1.64-.1.47-1.43c.26-.79.54-1.43.61-1.43s.34.67.6,1.48l.47,1.48h3.21s-.78.64-.78.64c-.44.35-1.01.83-1.28,1.06l-.5.43.44,1.36c.24.76.44,1.44.44,1.52s-.59-.26-1.3-.76l-1.3-.91-1.28.9c-.7.49-1.31.89-1.35.89s.14-.69.4-1.53c.27-.84.48-1.55.48-1.56,0-.02-.58-.47-1.3-.99l-1.3-.96,1.63-.09ZM48.16,33.45l1.64-.1.47-1.43c.26-.79.54-1.43.61-1.43.07.01.34.67.6,1.48l.47,1.48h1.6s1.61.02,1.61.02l-.78.63c-.42.35-1,.83-1.27,1.06l-.51.42.44,1.37c.24.75.44,1.43.44,1.52,0,.08-.59-.26-1.3-.76l-1.3-.91-1.28.89c-.7.49-1.31.9-1.35.9s.14-.69.4-1.53c.27-.85.48-1.55.48-1.57s-.58-.46-1.3-.99l-1.3-.95,1.63-.1ZM27.68,26.24c1.54-4.45,4.91-7.76,9.41-9.25,1.56-.52,4.5-.99,5.46-.88.54.07.51.1-.51.63-.59.31-1.53.87-2.09,1.24-.85.56-1.1.64-1.52.49-.37-.15-.62-.11-1.01.15l-.52.34.98.35c.54.2,1.32.6,1.73.9l.76.55.48-.38c.39-.32.42-.42.18-.56-1.13-.65-1.14-.62.62-2.03.91-.73,1.74-1.29,1.85-1.26.71.23,1.49,3.53,1.49,6.29s-.4,4.61-1.47,6.78c-2.19,4.45-6.44,7.28-12.74,8.48-.9.17-1.66.31-1.7.31-.65,0,.98-5.13,2.77-8.67.39-.77.75-1.4.82-1.4.06,0,.36.17.67.39l.55.39.31-.48c.32-.48.31-.49-.61-1.03-.52-.3-1.38-.7-1.93-.89-.98-.34-.99-.34-1.35.09-.36.42-.36.43.3.66.36.12.63.31.61.4-.02.09-.36.94-.74,1.88-.64,1.56-1.72,5.54-1.99,7.33-.06.41-.18.7-.27.64-.09-.05-.38-.83-.64-1.73-.4-1.42-.65-2.31-.65-4.89,0-3.04.23-3.36.75-4.84ZM18.5,22.99h1.55l.55-1.49c.29-.8.56-1.42.62-1.42.04.05.28.69.54,1.44l.46,1.37,1.66.1,1.66.09-1.29.98c-.7.53-1.3.98-1.33,1-.02.02.18.68.45,1.48.27.8.45,1.49.4,1.54s-.65-.31-1.34-.81l-1.25-.89-1.18.86c-1.02.75-1.48,1.01-1.47.83,0-.03.21-.72.47-1.54l.46-1.49-1.25-.88c-.68-.48-1.25-.94-1.25-1.03,0-.08.7-.14,1.54-.14ZM18.51,33.45h1.56l.54-1.48c.29-.8.55-1.42.61-1.42.05.04.28.69.54,1.44l.46,1.36,3.32.2-1.29.97c-.7.54-1.3.99-1.32,1s.18.72.45,1.57c.27.85.47,1.57.44,1.6-.06,0-.66-.39-1.34-.9l-1.28-.95-1.25.89c-.69.49-1.29.86-1.33.81-.05-.04.12-.73.38-1.51l.47-1.44-1.11-.87c-.61-.48-1.18-.87-1.26-.87s-.15-.09-.15-.2c0-.12.65-.2,1.56-.2ZM6.85,22.99h1.55l.44-1.24c.24-.68.47-1.36.52-1.51.14-.4.24-.22.75,1.28l.46,1.37,1.66.1,1.66.09-1.29.98c-.7.53-1.3.98-1.32.99-.02.01.17.71.43,1.55.26.83.42,1.52.36,1.52s-.65-.39-1.32-.87l-1.22-.87-1.23.87c-1.32.93-1.52,1.02-1.37.61.06-.14.26-.82.46-1.51l.35-1.26-.68-.57c-.37-.31-.92-.72-1.22-.9-.3-.18-.54-.39-.54-.48,0-.08.7-.15,1.55-.15ZM5.31,33.6c0-.08.7-.15,1.54-.15h1.55l.44-1.23c.24-.68.47-1.36.52-1.51.14-.41.24-.23.75,1.28l.46,1.36,1.66.1,1.66.1-1.29.97c-.7.54-1.3.99-1.32,1-.02.01.18.72.44,1.58.26.86.46,1.58.44,1.6-.06,0-.65-.4-1.33-.91l-1.29-.95-1.24.89c-.69.49-1.29.86-1.33.82-.04-.05.09-.66.31-1.36.21-.7.39-1.38.39-1.52s-.53-.62-1.18-1.08c-.64-.47-1.18-.91-1.18-.99ZM65.82,73.83l-.48.99c-.27.54-1.02,1.52-1.68,2.17-2.16,2.14-5.28,3.42-10.82,4.44-4.68.86-7.91,1.83-10.71,3.22-1.58.77-4.14,2.5-5.2,3.49-.45.43-.85.79-.89.79-.02,0-.48-.41-1.02-.9-2.56-2.3-6.46-4.3-10.71-5.49-.95-.27-3.2-.75-4.99-1.08-6.22-1.14-9.97-2.86-11.81-5.43-1.3-1.81-1.22-.71-1.22-18.28v-16.01l29.76.05,29.77.05v31.99ZM65.64,34.5c-1.45,1.06-1.41.92-.69,3.05.2.57.31,1.04.25,1.04-.05,0-.66-.41-1.35-.9l-1.25-.89-1.28.89c-.7.49-1.32.9-1.37.9-.04,0,.12-.64.38-1.41.25-.78.46-1.48.46-1.58,0-.09-.6-.61-1.32-1.15l-1.31-1h3.35l.46-1.48c.26-.81.52-1.48.58-1.48s.35.64.63,1.43l.51,1.43,1.63.1,1.62.1-1.3.95ZM65.64,24.04c-1.45,1.06-1.41.92-.69,3.04.2.57.32,1.04.28,1.04-.05,0-.66-.41-1.37-.9l-1.29-.9-1.26.9c-.7.49-1.31.9-1.35.9-.05,0,.11-.63.37-1.41.25-.77.46-1.48.46-1.57s-.6-.61-1.32-1.16l-1.31-.99h3.35l.46-1.49c.26-.81.52-1.48.58-1.48s.35.65.63,1.44l.51,1.43,1.63.1,1.62.09-1.3.96Z" fill="#013369" stroke="#013369" stroke-miterlimit="10" stroke-width=".05"></path>
    <g id="Stars">
      <path id="Bottom_Right_Fill" d="M64.95,37.55c.2.57.31,1.04.25,1.04-.05,0-.66-.41-1.35-.9l-1.25-.89-1.28.89c-.7.49-1.32.9-1.37.9-.04,0,.12-.64.38-1.41.25-.78.46-1.48.46-1.58,0-.09-.6-.61-1.32-1.15l-1.31-1h3.35l.46-1.48c.26-.81.52-1.48.58-1.48s.35.64.63,1.43l.51,1.43,1.63.1,1.62.1-1.3.95c-1.45,1.06-1.41.92-.69,3.05Z" fill="#fff" stroke="#fff" stroke-miterlimit="10" stroke-width=".1"></path>
      <path id="Bottom_Right_Outline" d="M64.95,37.55c.2.57.31,1.04.25,1.04-.05,0-.66-.41-1.35-.9l-1.25-.89-1.28.89c-.7.49-1.32.9-1.37.9-.04,0,.12-.64.38-1.41.25-.78.46-1.48.46-1.58,0-.09-.6-.61-1.32-1.15l-1.31-1h3.35l.46-1.48c.26-.81.52-1.48.58-1.48s.35.64.63,1.43l.51,1.43,1.63.1,1.62.1-1.3.95c-1.45,1.06-1.41.92-.69,3.05Z" fill="none" stroke="#013369" stroke-miterlimit="10" stroke-width=".1"></path>
      <path id="Top_Right_Fill" d="M64.95,27.08c.2.57.32,1.04.28,1.04-.05,0-.66-.41-1.37-.9l-1.29-.9-1.26.9c-.7.49-1.31.9-1.35.9-.05,0,.11-.63.37-1.41.25-.77.46-1.48.46-1.57s-.6-.61-1.32-1.16l-1.31-.99h3.35l.46-1.49c.26-.81.52-1.48.58-1.48s.35.65.63,1.44l.51,1.43,1.63.1,1.62.09-1.3.96c-1.45,1.06-1.41.92-.69,3.04Z" fill="#fff" stroke="#fff" stroke-miterlimit="10" stroke-width=".1"></path>
      <path id="Top_Right_Outline" d="M64.95,27.08c.2.57.32,1.04.28,1.04-.05,0-.66-.41-1.37-.9l-1.29-.9-1.26.9c-.7.49-1.31.9-1.35.9-.05,0,.11-.63.37-1.41.25-.77.46-1.48.46-1.57s-.6-.61-1.32-1.16l-1.31-.99h3.35l.46-1.49c.26-.81.52-1.48.58-1.48s.35.65.63,1.44l.51,1.43,1.63.1,1.62.09-1.3.96c-1.45,1.06-1.41.92-.69,3.04Z" fill="none" stroke="#013369" stroke-miterlimit="10" stroke-width=".1"></path>
      <path id="Bottom_Right_Mid_Fill" d="M53.11,35.16l-.51.42.44,1.37c.24.75.44,1.43.44,1.52,0,.08-.59-.26-1.3-.76l-1.3-.91-1.28.89c-.7.49-1.31.9-1.35.9s.14-.69.4-1.53c.27-.85.48-1.55.48-1.57s-.58-.46-1.3-.99l-1.3-.95,1.63-.1,1.64-.1.47-1.43c.26-.79.54-1.43.61-1.43.07.01.34.67.6,1.48l.47,1.48h1.6s1.61.02,1.61.02l-.78.63c-.42.35-1,.83-1.27,1.06Z" fill="#fff" stroke="#fff" stroke-miterlimit="10" stroke-width=".1"></path>
      <path id="Bottom_Right_Mid_Outline" d="M53.11,35.16l-.51.42.44,1.37c.24.75.44,1.43.44,1.52,0,.08-.59-.26-1.3-.76l-1.3-.91-1.28.89c-.7.49-1.31.9-1.35.9s.14-.69.4-1.53c.27-.85.48-1.55.48-1.57s-.58-.46-1.3-.99l-1.3-.95,1.63-.1,1.64-.1.47-1.43c.26-.79.54-1.43.61-1.43.07.01.34.67.6,1.48l.47,1.48h1.6s1.61.02,1.61.02l-.78.63c-.42.35-1,.83-1.27,1.06Z" fill="none" stroke="#013369" stroke-miterlimit="10" stroke-width=".1"></path>
      <path id="Top_Right_Mid_Fill" d="M53.1,24.69l-.5.43.44,1.36c.24.76.44,1.44.44,1.52s-.59-.26-1.3-.76l-1.3-.91-1.28.9c-.7.49-1.31.89-1.35.89s.14-.69.4-1.53c.27-.84.48-1.55.48-1.56,0-.02-.58-.47-1.3-.99l-1.3-.96,1.63-.09,1.64-.1.47-1.43c.26-.79.54-1.43.61-1.43s.34.67.6,1.48l.47,1.48h3.21s-.78.64-.78.64c-.44.35-1.01.83-1.28,1.06Z" fill="#fff" stroke="#fff" stroke-miterlimit="10" stroke-width=".1"></path>
      <path id="Top_Right_Mid_Outline" d="M53.1,24.69l-.5.43.44,1.36c.24.76.44,1.44.44,1.52s-.59-.26-1.3-.76l-1.3-.91-1.28.9c-.7.49-1.31.89-1.35.89s.14-.69.4-1.53c.27-.84.48-1.55.48-1.56,0-.02-.58-.47-1.3-.99l-1.3-.96,1.63-.09,1.64-.1.47-1.43c.26-.79.54-1.43.61-1.43s.34.67.6,1.48l.47,1.48h3.21s-.78.64-.78.64c-.44.35-1.01.83-1.28,1.06Z" fill="none" stroke="#013369" stroke-miterlimit="10" stroke-width=".1"></path>
      <path id="Bottom_Left_Mid_Fill" d="M24.25,34.52c-.7.54-1.3.99-1.32,1s.18.72.45,1.57c.27.85.47,1.57.44,1.6-.06,0-.66-.39-1.34-.9l-1.28-.95-1.25.89c-.69.49-1.29.86-1.33.81-.05-.04.12-.73.38-1.51l.47-1.44-1.11-.87c-.61-.48-1.18-.87-1.26-.87s-.15-.09-.15-.2c0-.12.65-.2,1.56-.2h1.56l.54-1.48c.29-.8.55-1.42.61-1.42.05.04.28.69.54,1.44l.46,1.36,3.32.2-1.29.97Z" fill="#fff" stroke="#fff" stroke-miterlimit="10" stroke-width=".1"></path>
      <path id="Bottom_Left_Mid_Outline" d="M24.25,34.52c-.7.54-1.3.99-1.32,1s.18.72.45,1.57c.27.85.47,1.57.44,1.6-.06,0-.66-.39-1.34-.9l-1.28-.95-1.25.89c-.69.49-1.29.86-1.33.81-.05-.04.12-.73.38-1.51l.47-1.44-1.11-.87c-.61-.48-1.18-.87-1.26-.87s-.15-.09-.15-.2c0-.12.65-.2,1.56-.2h1.56l.54-1.48c.29-.8.55-1.42.61-1.42.05.04.28.69.54,1.44l.46,1.36,3.32.2-1.29.97Z" fill="none" stroke="#013369" stroke-miterlimit="10" stroke-width=".1"></path>
      <path id="Top_Left_Mid_Fill" d="M24.25,24.06c-.7.53-1.3.98-1.33,1-.02.02.18.68.45,1.48.27.8.45,1.49.4,1.54s-.65-.31-1.34-.81l-1.25-.89-1.18.86c-1.02.75-1.48,1.01-1.47.83,0-.03.21-.72.47-1.54l.46-1.49-1.25-.88c-.68-.48-1.25-.94-1.25-1.03,0-.08.7-.14,1.54-.14h1.55l.55-1.49c.29-.8.56-1.42.62-1.42.04.05.28.69.54,1.44l.46,1.37,1.66.1,1.66.09-1.29.98Z" fill="#fff" stroke="#fff" stroke-miterlimit="10" stroke-width=".1"></path>
      <path id="Top_Left_Mid_Outline" d="M24.25,24.06c-.7.53-1.3.98-1.33,1-.02.02.18.68.45,1.48.27.8.45,1.49.4,1.54s-.65-.31-1.34-.81l-1.25-.89-1.18.86c-1.02.75-1.48,1.01-1.47.83,0-.03.21-.72.47-1.54l.46-1.49-1.25-.88c-.68-.48-1.25-.94-1.25-1.03,0-.08.7-.14,1.54-.14h1.55l.55-1.49c.29-.8.56-1.42.62-1.42.04.05.28.69.54,1.44l.46,1.37,1.66.1,1.66.09-1.29.98Z" fill="none" stroke="#013369" stroke-miterlimit="10" stroke-width=".1"></path>
      <path id="Bottom_Left_Fill" d="M12.6,34.52c-.7.54-1.3.99-1.32,1-.02.01.18.72.44,1.58.26.86.46,1.58.44,1.6-.06,0-.65-.4-1.33-.91l-1.29-.95-1.24.89c-.69.49-1.29.86-1.33.82-.04-.05.09-.66.31-1.36.21-.7.39-1.38.39-1.52s-.53-.62-1.18-1.08c-.64-.47-1.18-.91-1.18-.99s.7-.15,1.54-.15h1.55l.44-1.23c.24-.68.47-1.36.52-1.51.14-.41.24-.23.75,1.28l.46,1.36,1.66.1,1.66.1-1.29.97Z" fill="#fff" stroke="#fff" stroke-miterlimit="10" stroke-width=".1"></path>
      <path id="Bottom_Left_Outline" d="M12.6,34.52c-.7.54-1.3.99-1.32,1-.02.01.18.72.44,1.58.26.86.46,1.58.44,1.6-.06,0-.65-.4-1.33-.91l-1.29-.95-1.24.89c-.69.49-1.29.86-1.33.82-.04-.05.09-.66.31-1.36.21-.7.39-1.38.39-1.52s-.53-.62-1.18-1.08c-.64-.47-1.18-.91-1.18-.99s.7-.15,1.54-.15h1.55l.44-1.23c.24-.68.47-1.36.52-1.51.14-.41.24-.23.75,1.28l.46,1.36,1.66.1,1.66.1-1.29.97Z" fill="none" stroke="#013369" stroke-miterlimit="10" stroke-width=".1"></path>
      <path id="Top_Left_Fill" d="M12.6,24.06c-.7.53-1.3.98-1.32.99-.02.01.17.71.43,1.55.26.83.42,1.52.36,1.52s-.65-.39-1.32-.87l-1.22-.87-1.23.87c-1.32.93-1.52,1.02-1.37.61.06-.14.26-.82.46-1.51l.35-1.26-.68-.57c-.37-.31-.92-.72-1.22-.9-.3-.18-.54-.39-.54-.48,0-.08.7-.15,1.55-.15h1.55l.44-1.24c.24-.68.47-1.36.52-1.51.14-.4.24-.22.75,1.28l.46,1.37,1.66.1,1.66.09-1.29.98Z" fill="#fff" stroke="#fff" stroke-miterlimit="10" stroke-width=".1"></path>
      <path id="Top_Left_Outline" d="M12.6,24.06c-.7.53-1.3.98-1.32.99-.02.01.17.71.43,1.55.26.83.42,1.52.36,1.52s-.65-.39-1.32-.87l-1.22-.87-1.23.87c-1.32.93-1.52,1.02-1.37.61.06-.14.26-.82.46-1.51l.35-1.26-.68-.57c-.37-.31-.92-.72-1.22-.9-.3-.18-.54-.39-.54-.48,0-.08.7-.15,1.55-.15h1.55l.44-1.24c.24-.68.47-1.36.52-1.51.14-.4.24-.22.75,1.28l.46,1.37,1.66.1,1.66.09-1.29.98Z" fill="none" stroke="#013369" stroke-miterlimit="10" stroke-width=".1"></path>
    </g>
    <g id="Football">
      <path id="Football_Fill" d="M44.99,22.82c0,2.77-.4,4.61-1.47,6.78-2.19,4.45-6.44,7.28-12.74,8.48-.9.17-1.66.31-1.7.31-.65,0,.98-5.13,2.77-8.67.39-.77.75-1.4.82-1.4.06,0,.36.17.67.39l.55.39.31-.48c.32-.48.31-.49-.61-1.03-.52-.3-1.38-.7-1.93-.89-.98-.34-.99-.34-1.35.09-.36.42-.36.43.3.66.36.12.63.31.61.4-.02.09-.36.94-.74,1.88-.64,1.56-1.72,5.54-1.99,7.33-.06.41-.18.7-.27.64-.09-.05-.38-.83-.64-1.73-.4-1.42-.65-2.31-.65-4.89,0-3.04.23-3.36.75-4.84,1.54-4.45,4.91-7.76,9.41-9.25,1.56-.52,4.5-.99,5.46-.88.54.07.51.1-.51.63-.59.31-1.53.87-2.09,1.24-.85.56-1.1.64-1.52.49-.37-.15-.62-.11-1.01.15l-.52.34.98.35c.54.2,1.32.6,1.73.9l.76.55.48-.38c.39-.32.42-.42.18-.56-1.13-.65-1.14-.62.62-2.03.91-.73,1.74-1.29,1.85-1.26.71.23,1.49,3.53,1.49,6.29Z" fill="#fff" stroke="#003664" stroke-miterlimit="10" stroke-width=".1"></path>
      <path id="Football_Outline" d="M44.99,22.82c0,2.77-.4,4.61-1.47,6.78-2.19,4.45-6.44,7.28-12.74,8.48-.9.17-1.66.31-1.7.31-.65,0,.98-5.13,2.77-8.67.39-.77.75-1.4.82-1.4.06,0,.36.17.67.39l.55.39.31-.48c.32-.48.31-.49-.61-1.03-.52-.3-1.38-.7-1.93-.89-.98-.34-.99-.34-1.35.09-.36.42-.36.43.3.66.36.12.63.31.61.4-.02.09-.36.94-.74,1.88-.64,1.56-1.72,5.54-1.99,7.33-.06.41-.18.7-.27.64-.09-.05-.38-.83-.64-1.73-.4-1.42-.65-2.31-.65-4.89,0-3.04.23-3.36.75-4.84,1.54-4.45,4.91-7.76,9.41-9.25,1.56-.52,4.5-.99,5.46-.88.54.07.51.1-.51.63-.59.31-1.53.87-2.09,1.24-.85.56-1.1.64-1.52.49-.37-.15-.62-.11-1.01.15l-.52.34.98.35c.54.2,1.32.6,1.73.9l.76.55.48-.38c.39-.32.42-.42.18-.56-1.13-.65-1.14-.62.62-2.03.91-.73,1.74-1.29,1.85-1.26.71.23,1.49,3.53,1.49,6.29Z" fill="none" stroke="#013369" stroke-miterlimit="10" stroke-width=".1"></path>
    </g>
    <g id="Stripes">
      <path id="Stripe_Bottom" d="M34.43,26.32c-.43-.31-1.28-.72-1.88-.91-.6-.19-1.11-.35-1.14-.37-.03-.02.05-.27.18-.55.25-.54.48-.55,1.75-.09.67.24,2.57,1.39,2.57,1.56,0,.07-.16.31-.35.53-.34.39-.35.39-1.14-.17h0Z" fill="#003664" stroke="#003664" stroke-miterlimit="10" stroke-width=".1"></path>
      <path id="Stripe_Middle" d="M36.03,24.16c-.42-.32-1.29-.77-1.93-1s-1.16-.47-1.16-.53.14-.26.31-.45c.26-.28.43-.31,1.04-.14.79.22,2.28.96,2.88,1.43.35.28.35.32.04.79-.18.28-.35.5-.37.49-.02,0-.39-.27-.81-.59h0Z" fill="#003664" stroke="#003664" stroke-miterlimit="10" stroke-width=".1"></path>
      <path id="Stripe_Top" d="M37.59,22c-.43-.31-1.25-.72-1.82-.91-.97-.33-1.01-.37-.71-.71.18-.2.51-.36.74-.36.44,0,2.53.95,3.18,1.44.39.29.39.31.02.71-.46.5-.43.51-1.4-.18h0Z" fill="#003664" stroke="#003664" stroke-miterlimit="10" stroke-width=".1"></path>
    </g>
    <g id="KDL">
      <path id="Star" d="M34.92,85.55l1.15-.8,1.17.82c.64.44,1.17.76,1.17.67s-.18-.69-.39-1.36l-.39-1.22.44-.37c.25-.21.76-.64,1.15-.96l.71-.57h-2.87l-.43-1.33c-.23-.73-.48-1.33-.53-1.33-.07,0-.32.57-.55,1.28l-.43,1.28-1.47.09-1.47.09,1.17.85c.64.48,1.17.87,1.17.89s-.19.66-.43,1.4c-.23.74-.39,1.38-.35,1.38,0,0,.55-.37,1.17-.8h0Z" fill="#d50a0a" stroke-width="0"></path>
      <path id="Star-2" d="M25.79,80.87l1.15-.8,1.17.82c.64.44,1.17.76,1.17.67s-.18-.69-.39-1.36l-.39-1.22.44-.37c.25-.21.76-.64,1.15-.96l.71-.57h-2.87l-.43-1.33c-.23-.73-.48-1.33-.53-1.33-.07,0-.32.57-.55,1.28l-.43,1.28-1.47.09-1.47.09,1.17.85c.64.48,1.17.87,1.17.89s-.19.66-.43,1.4c-.23.74-.39,1.38-.35,1.38,0,0,.55-.37,1.17-.8h0Z" fill="#d50a0a" stroke-width="0"></path>
      <path id="Star-3" d="M44,80.87l1.15-.8,1.17.82c.64.44,1.17.76,1.17.67s-.18-.69-.39-1.36l-.39-1.22.44-.37c.25-.21.76-.64,1.15-.96l.71-.57h-2.87l-.43-1.33c-.23-.73-.48-1.33-.53-1.33-.07,0-.32.57-.55,1.28l-.43,1.28-1.47.09-1.47.09,1.17.85c.64.48,1.17.87,1.17.89s-.19.66-.43,1.4c-.23.74-.39,1.38-.35,1.38,0,0,.55-.37,1.17-.8h0Z" fill="#d50a0a" stroke-width="0"></path>
      <path id="Upper_L" d="M46.9,71.47v-2.43l.56-.12c.31-.06.97-.43.63-.27s.21-.06.35-.15c.56-.41.58.12.58-9.71v-9.29l-.28-.25c-.15-.14-.47-.31-.71-.37-.24-.07-.59-.24-.78-.37l-.34-.25.03-2.22.03-2.22h9.54l.03,2.23c.03,2.01.01,2.24-.19,2.33-.12.05-.33.17-.47.25-.14.08-.44.2-.68.26-.24.06-.56.23-.71.36l-.28.25.03,9.2.03,9.2h5.45l.23-1.05c.12-.58.29-1.36.37-1.74l.15-.7h3.47l.03,4.75.03,4.75h-17.11v-2.43Z" fill="#d50a0a" stroke-width="0"></path>
      <path id="Upper_D" d="M46.83,50.88c-.69-2.97-1.93-4.77-4.19-6.11-.35-.2-.79-.33-2.46-.69-.79-.17-11.25-.26-11.55-.09-.12.07-.16.6-.15,2.27.02,2.46.02,2.47,1.08,2.76.98.27.9-.7.86,9.96l-.03,9.5-.36.13c-.2.07-.61.22-.92.32-.67.23-.66.17-.61,2.92l.04,2.14,5.66-.08c7.87-.11,8.76-.35,10.99-3.07.41-.5,1.29-2.46,1.46-3.24.08-.37.19-.82.24-1.01.79-2.67.75-12.19-.07-15.71ZM42.16,63.31c-.1.47-.18.99-.18,1.17,0,1.1-1.19,2.76-2.36,3.31-.63.29-3.74.43-3.92.17-.15-.22-.09-17.88.06-18.11.33-.48,3.29-.19,4.26.42.21.13.43.24.49.24.15,0,1.03,1.37,1.23,1.9.59,1.6.87,8.78.43,10.9Z" fill="#d50a0a" stroke-width="0"></path>
      <path id="Upper_K" d="M8.25,71.57v-2.43l.5-.12c.27-.06.35-.12.56-.27.06-.04.18-.07.31-.15.51-.33.51.12.51-9.69v-9.27l-.25-.25c-.14-.14-.42-.3-.63-.37-.21-.07-.52-.24-.69-.37l-.31-.25.03-2.21.03-2.21,4.23-.04c4.96-.05,4.47-.32,4.4,2.37l-.05,2.16-.6.31c-.33.17-.71.32-.83.32-.66.03-.71.28-.71,3.67,0,3.73-.02,3.7,1.08,2.06,3.57-5.34,3.64-5.49,2.93-6.03l-.5-.38.03-2.22.03-2.22h8.36v4.47l-.44.24c-.24.13-.51.24-.61.24-.38,0-.97.78-3.01,3.95-2.41,3.75-2.3,3.38-1.52,5.14.28.64.76,1.74,1.07,2.44.3.7.86,1.95,1.24,2.8.38.84.69,1.57.69,1.61s.26.65.58,1.34.68,1.49.8,1.77.37.58.55.65c1.86.73,1.7.44,1.7,3.11v2.25h-10.01l.03-2.38.03-2.38.73-.36c.94-.46.93-.45.58-1.34-.85-2.14-2.13-5.15-2.27-5.33-.12-.16-.35.1-1.11,1.27l-.96,1.47v1.63c0,2.01-.09,1.86,1.4,2.39.84.3.87.41.82,2.9l-.04,2.13h-8.67v-2.43Z" fill="#d50a0a" stroke-width="0"></path>
    </g>
  </symbol>
</svg>