<?xml version="1.0" encoding="UTF-8"?>
<svg id="Layer_1" data-name="Layer 1" xmlns="http://www.w3.org/2000/svg" viewBox="0 0 72.01 79.02">
  <defs>
    <style>
       svg {
        color: green;
      }
    </style>
  </defs>
  <path id="Background" fill="currentColor" d="m0,69.16C0,51.65,0,34.14,0,16.63c.03.17.06.34.09.51.03,0,.05,0,.08,0,.02-.29.02-.58.06-.87.38-2.76,1.41-5.25,3.29-7.33,1.26-1.39,2.83-2.24,4.75-2.29,1.65-.05,3.3-.04,4.95-.05.23,0,.47.05.72.08,0,.38-.04.72,0,1.06.09.59.14,1.21.38,1.74.8,1.77,2.19,2.74,4.16,2.74,1.88,0,3.17-.99,4-2.62.43-.84.45-1.75.4-2.66-.01-.25.04-.36.32-.35.86.02,1.72,0,2.58,0,.14,0,.28.03.42.04.17.02.23.12.23.28,0,.31.03.62.05.93.14,2.59,1.93,4.35,4.46,4.38,1.66.02,2.92-.7,3.79-2.1.58-.94.74-1.98.71-3.07,0-.4,0-.39.41-.4.8-.01,1.6-.03,2.4-.05.15,0,.3.01.45.01.21,0,.25.11.26.31,0,.5,0,1,.07,1.49.34,2.46,2.77,4.2,5.21,3.75,1.81-.34,3.22-1.72,3.59-3.57.11-.53.11-1.09.16-1.63.01-.14,0-.29.21-.29,1-.02,2-.04,3-.05.21,0,.3.12.31.35,0,.49,0,.98.07,1.46.24,1.8,1.76,3.41,3.48,3.72,2.02.37,3.85-.47,4.82-2.18.51-.9.65-1.87.62-2.88-.01-.41,0-.43.41-.43,1.02,0,2.04.01,3.06.02.87,0,1.68.21,2.44.62,1.61.87,2.81,2.15,3.69,3.74,1.39,2.51,1.95,5.21,1.94,8.07-.01,15.65,0,31.31,0,46.96,0,1.69-.06,3.36-.49,5.01-.56,2.13-1.46,4.08-3,5.7-1.39,1.46-3.08,2.25-5.11,2.25-2.19,0-4.38-.02-6.57-.02-16.1,0-32.2,0-48.3.01-1.58,0-2.96-.51-4.17-1.5-1.12-.91-1.97-2.04-2.62-3.31-.9-1.75-1.53-3.59-1.52-5.59,0-.26,0-.51,0-.77-.02,0-.03,0-.05,0C.12,68.29.06,68.72,0,69.16Zm36.21-.58h0c6.01,0,12.02,0,18.03,0,1.21,0,2.42,0,3.63-.07,1.57-.09,2.9-.71,3.87-1.99,1.01-1.33,1.38-2.88,1.49-4.5.09-1.41.11-2.83.11-4.24,0-8.95,0-17.91,0-26.86,0-1.78,0-3.57-.04-5.35-.03-1.51-.2-3-.77-4.42-.66-1.64-1.82-2.72-3.61-2.96-.93-.13-1.89-.1-2.84-.1-11.38,0-22.76,0-34.14,0-2.55,0-5.1-.03-7.65.02-1.45.03-2.67.65-3.53,1.85-.93,1.3-1.29,2.8-1.39,4.36-.09,1.52-.09,3.05-.08,4.57.02,9.02.05,18.05.07,27.07,0,1.76.02,3.53,0,5.29-.01,1.12.13,2.21.38,3.29.38,1.7,1.29,2.98,2.96,3.65.87.35,1.78.41,2.71.41,6.94,0,13.88,0,20.82,0Z" />
    <g id="Binders">
      <path id="Right" d="m56.4,0c.07.04.14.11.21.13,1.09.27,1.85,1.04,1.97,2.18.09.88.07,1.77.09,2.65,0,.44-.02.87-.02,1.31,0,.75.02,1.5-.22,2.22-.38,1.11-1.52,1.81-2.71,1.66-1.11-.14-2.21-1.17-2.24-2.25-.05-1.86-.05-3.72,0-5.59.03-1,.92-1.93,1.91-2.16.08-.02.15-.1.22-.15.26,0,.52,0,.78,0Z" />
      <path id="R-Mid" d="m43.92,0c.09.05.17.13.27.15,1.01.28,1.71,1.09,1.82,2.14.06.57.1,1.15.1,1.73,0,1.2-.01,2.41-.05,3.61-.05,1.63-1.51,2.79-3.09,2.47-1.01-.2-2-1.22-2.03-2.25-.05-1.8-.06-3.61-.01-5.41.03-1.11,1.01-2.18,2.04-2.33.04,0,.07-.08.11-.12.28,0,.56,0,.84,0Z" />
      <path id="L-Mid" d="m31.5,0c.22.09.45.16.66.26,1.05.49,1.58,1.32,1.59,2.46,0,1.72.02,3.45-.04,5.17-.05,1.2-1.2,2.22-2.4,2.27-1.29.05-2.46-.82-2.61-2.07-.14-1.15-.15-2.32-.17-3.49-.01-.82-.02-1.66.12-2.47.17-1.05.88-1.71,1.91-2,.1-.03.19-.09.28-.14.22,0,.44,0,.66,0Z" />
      <path id="Left" d="m20.76,5.34c0,.89.05,1.78-.01,2.66-.08,1.31-1.12,2.28-2.44,2.4-1.06.09-2.27-.8-2.58-1.94-.11-.39-.16-.8-.16-1.21,0-1.48-.03-2.97.04-4.45.06-1.46,1.34-2.63,2.69-2.55,1.41.08,2.47,1.2,2.5,2.67.01.81,0,1.61,0,2.42-.01,0-.02,0-.04,0Z" />
    </g>
    <g id="Day">
      <path id="4" d="m61.58,60.05c-.79-.03-1.56-.05-2.32-.08-.32-.01-.64-.02-.96-.04-.22-.02-.3.04-.31.29-.04.89-.11,1.79-.17,2.7-.17.03-.34.07-.5.07-1.07.04-2.14.06-3.2.11-1.58.07-3.15.15-4.73.25-.69.04-.68.06-.71-.63-.03-1-.08-1.99-.13-2.99-.03-.53-.03-.53-.57-.55-.16,0-.32,0-.48,0-1.92-.04-3.83-.09-5.75-.13-1.22-.02-2.44-.03-3.66-.05-.45,0-.9-.04-1.35-.05-.17,0-.24-.06-.27-.24-.13-.97-.26-1.93-.4-2.9-.1-.75-.19-1.5-.32-2.24-.06-.33.01-.58.2-.86,1.56-2.31,3.11-4.63,4.66-6.95,1.15-1.72,2.3-3.45,3.46-5.17.05-.08.19-.15.29-.15,1.37,0,2.74.02,4.11.04,3.26.04,6.51.08,9.77.13.2,0,.44,0,.57.1.09.07.03.34.03.52-.02,1.2-.03,2.39-.06,3.59-.07,2.61-.16,5.22-.23,7.83-.01.45,0,.45.45.48.83.06,1.65.12,2.48.16.21.01.25.1.24.28-.02.78-.04,1.55-.06,2.33-.03,1.38-.06,2.77-.09,4.18Zm-11.88-12.72s-.06-.02-.09-.02c-.12.23-.24.47-.36.7-.76,1.39-1.51,2.78-2.27,4.16-.11.19-.08.3.15.31.76.04,1.53.08,2.36.13.07-1.77.14-3.52.21-5.28Z" />
      <path id="2" d="m28.12,55.16c.46,0,.93-.01,1.39,0,1.38.04,2.76.08,4.14.13.57.02,1.14.06,1.71.07.21,0,.23.1.21.27-.09.85-.18,1.7-.26,2.56-.16,1.7-.31,3.39-.46,5.09,0,.06-.02.11-.03.14-1.56-.04-3.11-.08-4.65-.13-2.09-.07-4.17-.16-6.26-.24-2.09-.08-4.17-.16-6.26-.24-1.84-.07-3.67-.16-5.51-.23-.23,0-.25-.12-.26-.3-.02-1.06-.04-2.11-.07-3.17-.03-1.04-.06-2.07-.1-3.11-.01-.29.08-.43.37-.54,2.01-.73,4.02-1.44,5.91-2.45.51-.27.99-.61,1.44-.96.69-.53.96-1.47.71-2.29-.15-.47-.52-.73-.96-.88-.35-.12-.72-.22-1.08-.23-.92-.03-1.84-.07-2.75.01-1.18.1-2.35.32-3.52.49-.19.03-.3,0-.31-.23-.13-1.66-.28-3.32-.42-4.97-.06-.7-.12-1.41-.21-2.11-.03-.21.08-.27.23-.3,1.05-.19,2.1-.39,3.15-.55,2.64-.41,5.3-.62,7.97-.69,2.39-.06,4.78-.1,7.16.19,1.13.14,2.25.32,3.32.74.64.25,1.22.59,1.72,1.07.73.7,1.02,1.6,1.05,2.56.05,1.6-.16,3.16-.88,4.62-.68,1.38-1.69,2.49-2.96,3.35-1.03.7-2.12,1.31-3.18,1.96-.13.08-.26.17-.39.26,0,.04.02.07.03.11Z" />
    </g>
    <g id="Month">
      <path id="P" d="m42.85,21.76c.84,0,1.64,0,2.44,0,2.36-.03,4.71-.08,7.07-.1,1.08,0,2.16-.01,3.23.07,1.51.11,2.34.81,2.7,2.2.1.37.14.76.18,1.15.1,1.08.09,2.15-.13,3.21-.28,1.37-1.13,2.25-2.4,2.76-1.2.48-2.45.7-3.73.84-.55.06-1.09.11-1.64.15-.23.02-.28.12-.27.33.05.81.08,1.61.13,2.42.02.26-.06.32-.31.33-2.1.06-4.19.12-6.29.19-.66.02-.68.03-.7-.63-.05-1.88-.08-3.76-.12-5.65-.03-1.5-.04-3.01-.08-4.51-.02-.75-.06-1.49-.09-2.24,0-.15,0-.3,0-.51Zm7.73,6.7c.65-.07,1.06-.35,1.15-.88.09-.47.09-.97.08-1.45,0-.26-.16-.52-.45-.57-.24-.04-.5-.02-.74,0-.16,0-.2.11-.19.27.04.58.06,1.15.09,1.73.02.3.04.59.06.91Z" />
      <path id="E" d="m35.79,25.84c.05.36.1.67.15,1.02.3-.02.58-.05.87-.07,1.31-.12,2.63-.24,3.94-.38.21-.02.29.05.3.25.08,1.04.17,2.09.25,3.13,0,.03-.01.06-.02.11-1.65.1-3.3.19-4.99.29-.02.22-.04.43-.06.65.62.03,1.21.07,1.79.08,1.19.03,2.38.06,3.57.07.25,0,.34.06.34.34-.01,1.24,0,2.47,0,3.71,0,.25-.08.32-.33.32-2.25-.06-4.5-.11-6.74-.16-1.86-.04-3.72-.07-5.58-.09-.24,0-.29-.07-.28-.31.02-.46-.02-.92-.03-1.37-.03-1.7-.05-3.41-.07-5.11-.02-1.46-.03-2.93-.05-4.39,0-.6-.03-1.2-.06-1.79-.01-.21.07-.27.27-.28,2.22-.03,4.44-.05,6.65-.09,1.55-.03,3.1-.09,4.64-.13.5-.01,1,0,1.5-.01.18,0,.24.06.25.24.05,1.19.11,2.39.17,3.58.01.25-.12.28-.31.28-.73,0-1.46,0-2.19.01-1.32.03-2.63.07-3.99.11Z" />
      <path id="S" d="m14.15,30.36c.75.2,1.49.41,2.23.59,1.43.35,2.88.53,4.35.61.09,0,.2.02.26-.02.13-.09.29-.2.32-.33.02-.09-.16-.28-.28-.31-.5-.11-1-.18-1.5-.26-1.18-.2-2.36-.41-3.49-.83-1.32-.49-1.97-1.44-2.07-2.82-.06-.86-.06-1.71.11-2.56.22-1.08.88-1.78,1.9-2.17.82-.31,1.69-.4,2.55-.47,1.94-.15,3.88-.18,5.81.01,1.33.13,2.64.39,3.96.6.07.01.18.15.17.21-.25,1.41-.52,2.82-.79,4.22,0,.05-.04.09-.04.08-1.14-.21-2.26-.46-3.38-.59-1-.12-2.01-.13-3.02-.17-.22,0-.5.03-.52.29-.02.27.28.31.48.35.94.18,1.89.32,2.83.52.76.16,1.51.36,2.26.59,1.16.36,1.83,1.15,1.87,2.38.02.71.04,1.42-.04,2.12-.17,1.47-1.1,2.31-2.5,2.61-.81.18-1.63.28-2.46.35-2.71.2-5.41,0-8.08-.52-.37-.07-.74-.18-1.09-.3-.09-.03-.2-.18-.2-.26.1-1.25.21-2.5.32-3.75,0-.05.03-.09.04-.13Z" />
    </g>
</svg>