<?xml version="1.0" encoding="UTF-8"?>
<svg id="Icon-Lineup" data-name="Layer 1" xmlns="http://www.w3.org/2000/svg" viewBox="0 0 81.45 72">
  <defs>
    <style>
      svg {
        color: green;
      }
    </style>
  </defs>
   <path fill="currentColor"
      d="m69.9,18.65c-.79,1.12-1.57,2.25-2.36,3.37-.88,1.24-1.98,1.53-3.02.82-1.06-.73-1.19-1.96-.3-3.21,2.04-2.85,4.09-5.69,6.16-8.53,1.11-1.53,2.51-1.57,3.69-.07,2.27,2.87,4.51,5.77,6.75,8.67.9,1.17.82,2.38-.13,3.14-.99.79-2.18.52-3.14-.71-.99-1.26-1.98-2.53-3.2-4.1-.05.73-.09,1.09-.09,1.45,0,11.98-.04,23.95-.01,35.93.01,6.96-4.84,11.99-11.79,12.04-5.63.04-11.27.01-16.9,0-1.3,0-2.14-.7-2.27-1.78-.11-.94.54-1.91,1.49-2.14.38-.09.78-.07,1.18-.07,5.4,0,10.79,0,16.19,0,4.99,0,8.1-3.16,8.09-8.14-.02-11.74,0-23.48,0-35.22,0-.46,0-.91,0-1.37-.11-.03-.22-.06-.33-.09Z" />
    <path fill="currentColor"
      d="m27.56,5.58c-1.18.25-2.36.52-3.55.75-1.48.3-2.46-.26-2.71-1.52-.23-1.17.43-2.06,1.87-2.38,3.57-.81,7.14-1.6,10.72-2.37,1.65-.35,2.75.69,2.42,2.33-.73,3.66-1.52,7.32-2.32,10.97-.27,1.21-1.36,1.89-2.47,1.66-.98-.21-1.63-1.2-1.44-2.38.21-1.35.52-2.68.85-4.3-.45.36-.69.52-.9.72-4.46,4.45-8.92,8.91-13.38,13.36-1.09,1.09-1.62,2.37-1.61,3.92.03,2.6,0,5.2,0,7.8,0,.98-.32,1.79-1.28,2.2-1.29.55-2.74-.31-2.75-1.82-.04-3.3-.03-6.62.17-9.91.12-2.09,1.38-3.72,2.84-5.17,4.25-4.21,8.5-8.44,12.75-12.66.3-.3.59-.61.88-.92-.03-.09-.07-.19-.1-.28Z" />
    <path fill="currentColor"
      d="m20.26,45.95c-.04,4.03-3.31,7.3-7.29,7.29-3.89,0-7.25-3.41-7.19-7.28.06-4.09,3.38-7.35,7.43-7.28,3.84.06,7.09,3.41,7.06,7.27Zm-7.21-3.18c-1.81,0-3.24,1.41-3.25,3.2,0,1.71,1.42,3.18,3.13,3.22,1.79.04,3.34-1.49,3.32-3.3-.01-1.71-1.46-3.12-3.21-3.12Z" />
    <path fill="currentColor"
      d="m43.79,45.94c.06-4.08,3.4-7.34,7.44-7.26,3.83.08,7.1,3.47,7.04,7.3-.06,4.06-3.45,7.37-7.45,7.26-3.87-.1-7.09-3.45-7.04-7.3Zm7.29-3.17c-1.85,0-3.33,1.46-3.3,3.26.03,1.67,1.52,3.15,3.18,3.16,1.82,0,3.28-1.47,3.27-3.3-.01-1.73-1.42-3.12-3.16-3.12Z" />
    <path fill="currentColor"
      d="m24.83,45.96c.06-4.08,3.39-7.35,7.43-7.27,3.81.07,7.16,3.52,7.09,7.28-.08,4.06-3.47,7.37-7.46,7.28-3.86-.09-7.11-3.45-7.06-7.29Zm7.26-3.19c-1.81,0-3.23,1.39-3.25,3.18-.03,1.72,1.48,3.25,3.21,3.25,1.82,0,3.25-1.49,3.23-3.34-.02-1.74-1.42-3.09-3.18-3.09Z" />
    <path d="m32.05,72c-3.84.03-7.17-3.25-7.22-7.11-.05-4.09,3.17-7.36,7.27-7.4,3.82-.04,7.2,3.27,7.25,7.09.05,4.01-3.28,7.39-7.31,7.42Zm-.02-4.05c1.82,0,3.26-1.47,3.24-3.32-.02-1.72-1.44-3.12-3.17-3.12-1.78,0-3.23,1.42-3.26,3.18-.03,1.74,1.45,3.25,3.19,3.25Z" />
    <path
      d="m6.53,9.06c-1.15,1.27-1.98,2.27-2.89,3.19-1.09,1.09-2.19,1.12-3.08.18-.83-.88-.75-1.94.33-3,.92-.91,1.93-1.73,3.11-2.79-1.21-1.13-2.17-1.99-3.09-2.9C-.18,2.64-.27,1.57.61.64,1.44-.23,2.62-.15,3.7.95c.9.92,1.72,1.93,2.81,3.16,1.16-1.29,2.02-2.31,2.95-3.26.97-1,2.16-1.04,3.01-.2.81.8.78,1.97-.17,2.94-.94.95-1.96,1.82-3.07,2.83,1.11,1.13,2.04,2.07,2.96,3.01,1.03,1.06,1.11,2.25.22,3.1-.87.84-1.96.77-3-.29-.91-.92-1.74-1.92-2.89-3.18Z" />
    <path
      d="m34.63,25.1c1.27,1.19,2.27,2.08,3.21,3.03.97.98,1,2.06.16,2.91-.84.85-1.97.85-2.93-.09-.97-.96-1.87-2-3.01-3.23-1.06,1.16-1.9,2.14-2.81,3.05-1.08,1.08-2.21,1.15-3.11.27-.88-.86-.78-1.99.32-3.1.89-.89,1.84-1.71,2.91-2.7-1.14-1.15-2.11-2.16-3.11-3.14-.69-.68-.93-1.46-.52-2.35.61-1.33,2.07-1.56,3.23-.52.53.47,1.04.97,1.5,1.5.46.53.85,1.13,1.46,1.95,1.2-1.31,2.05-2.29,2.95-3.22,1.1-1.12,2.13-1.19,3.08-.28.9.86.84,1.98-.28,3.1-.91.91-1.9,1.74-3.07,2.8Z" />
    <path
      d="m50.97,22.58c1.17-1.26,2.05-2.27,2.98-3.21,1.03-1.03,2.08-1.05,3-.14.85.85.83,1.88-.18,2.91-.93.95-1.96,1.81-3.07,2.82,1.19,1.22,2.22,2.23,3.19,3.28,1.06,1.14.73,2.73-.65,3.27-.87.34-1.61.07-2.25-.57-.95-.94-1.91-1.86-2.87-2.79-.02-.02-.08-.01-.32-.23-.87.95-1.71,1.93-2.62,2.85-1.06,1.08-2.22,1.14-3.11.26-.84-.84-.77-1.98.26-3.01.92-.91,1.91-1.75,2.99-2.75-1.17-1.19-2.15-2.18-3.12-3.19-.82-.86-.92-1.79-.31-2.65.73-1.04,1.96-1.19,2.95-.23,1.02.98,1.92,2.07,3.11,3.38Z" />
</svg>