<?xml version="1.0" encoding="UTF-8"?>
<svg id="Drop" xmlns="http://www.w3.org/2000/svg" viewBox="0 0 72 131.1">
  <defs>
    <style>
       svg {
        color: green;
      }
    </style>
  </defs>
  <g id="Drop_Player">
      <g id="Player">
        <path d="m52.96,130.91c-1.55-.35-2.39-.75-3.79-1.8-1.17-.88-1.18-1.2-.11-2.33.77-.81,2.2-1.47,4.07-1.86,1.61-.34,3.04-1.03,3.96-1.9l.67-.63-.43-.88c-.37-.74-.4-1-.2-1.66.13-.43.42-1.41.65-2.17.4-1.36.42-1.38.57-.7.08.38.04,1.24-.1,1.9-.26,1.27-.17,2.04.35,2.84l.32.49,1.23-.65c2.68-1.43,5.35-4.18,5.85-6.01.12-.45.21-2.26.2-4.02-.02-3.48.11-4.35,1.13-7.34l.68-1.99-.5-.53c-.28-.29-.92-.74-1.43-.98-1.11-.54-1.17-.66-.23-.48,1.03.2,1.67.58,2.63,1.57.85.87.85.89.51,1.49-.31.54-.31.66-.02,1.14.22.37.28.78.18,1.32-.12.65-.24.79-.67.79-.82,0-1.06,1.23-1.01,5.26.02,1.89-.06,3.79-.17,4.22-.2.73-.15.89.62,2.05.46.69,1.06,1.88,1.34,2.63.32.86.68,1.45.97,1.58.25.12.56.44.69.72.36.78.95,3.93.81,4.3-.07.18,0,.52.14.76.22.37.2.48-.15.75-.94.7-4.34,1.24-10.01,1.58-1.95.12-3.85.31-4.21.41-1.3.38-3.2.44-4.53.15h0Z"></path>
        <g id="Feet">
          <path fill="currentColor" d="m55.86,129.72c.24,0,.46-.39.72-1.26.2-.69.7-1.73,1.1-2.31.7-1.01.77-1.05,1.67-1.01l.94.04-.57-.42c-.39-.29-.54-.55-.46-.85.21-.82-.51-.7-1.91.33-1.8,1.33-2.66,1.75-3.95,1.94-.59.09-1.31.25-1.61.36-.68.25-1.72,1.23-1.72,1.62,0,.64,3.51,1.84,4.81,1.65.34-.05.78-.09.97-.09h0Z"></path>
          <path fill="currentColor" d="m60.71,119.62c.98-1.33,1.63-2.98,1.63-4.13v-.61l-.59.43c-.53.39-2.41.95-2.59.78-.04-.04.27-.28.7-.54,1.16-.72,1.27-1.07.77-2.57-.56-1.66-.61-4.31-.09-4.31.7,0,2.52-1.2,3.23-2.12.72-.94,1.58-3.25,1.58-4.23,0-.5,0-.5.66-.14.66.36.66.38.53,1.73-.13,1.38-.88,3.66-1.51,4.62-.26.4-.29.66-.13,1.1.79,2.07.69,4.94-.23,6.9-.6,1.29-2.34,3.02-3.83,3.84l-1.12.61.98-1.33Z"></path>
          <path fill="currentColor" d="m63.78,124.56c.48,0,.51-.04.25-.36-.58-.71-1.98-1.58-2.54-1.58-.31,0-.76.14-.99.31-.41.31-.41.32.03.77.51.52,1.99,1.1,2.42.96.16-.05.53-.1.83-.1h0Z"></path>
          <path fill="currentColor" d="m69.08,123c.14-.05.1-.26-.11-.55l-.33-.47-.87.63c-.79.58-1.99,1.91-1.99,2.23,0,.07.69-.3,1.54-.82.85-.52,1.64-.98,1.76-1.02h0Z"></path>
          <path fill="currentColor" d="m63.84,125.77s-.43,0-.96.04c-.86.07-.94.12-.75.48.21.39.24.39.96-.04.41-.24.75-.46.75-.48h0Z"></path>
        </g>
        <path d="m56.36,114.88c-.26-.24-.76-1.01-1.11-1.7-.37-.73-1.01-1.56-1.53-1.98-1.93-1.55-2.61-2.22-3.1-3.06-.54-.93-1.11-2.85-.9-3.06.07-.07.83.32,1.69.86.86.54,2.12,1.23,2.8,1.54,1.15.53,1.22.6,1.1,1.18-.1.48,0,.74.43,1.17.3.3.7.55.88.55s.33.07.33.16c0,.5.42,3.72.55,4.21.12.48.07.58-.27.58-.23,0-.63-.2-.89-.44Z"></path>
        <path id="Background" d="m64.27,61.83c.39-1.21.98-2.59,1.32-3.06.52-.71.62-1.06.62-2.15,0-2.96-1.2-5.95-2.82-7.04l-.86-.59.13-1.29c.54-5.24.74-6.51,1.21-7.52.44-.96.5-1.47.58-4.87.09-4-.12-5.76-.78-6.49-.27-.29-.38-.87-.43-2.15-.08-2.42-.15-2.62-1.04-3.14-.92-.54-2.87-1.09-3.89-1.09-.7,0-.72-.02-.59-.72.12-.62.05-.79-.45-1.18-.89-.71-3.08-1.29-5.75-1.54-5.53-.52-7.48-.98-7.64-1.83-.26-1.36-1.98-2.41-4.95-3.01-1.43-.29-2.55-.34-5.58-.26-2.09.06-4,.18-4.25.26-.42.14-.47.05-.62-1.1-.83-6.64-4.54-11.6-9.57-12.77-1.93-.45-4.6-.37-6.34.2-3.3,1.07-5.67,2.72-7.19,4.99-.9,1.35-1.73,3.63-1.73,4.73,0,.39-.12.62-.3.62-.62,0-.91,1.7-1.13,6.59-.14,3.33.04,4.86.89,7.58l.53,1.66-.65,1.54c-.36.85-.76,2.31-.9,3.24-.22,1.54-.2,1.85.26,3.54.65,2.44.55,3.43-.48,4.46-.51.51-.82,1.05-.91,1.61-.15.92-.19,1.01-.65,1.82-.34.58-.43,2.72-.13,3.18.15.24.21.23.31-.05.07-.18.26-.28.42-.22.22.08.26-.08.19-.68-.1-.91.22-1.22.99-.92.46.17.51.15.37-.18-.54-1.27-.6-2.2-.21-3.21l.39-1.02.33.69c.18.38.38.69.45.69.06,0,.12-.71.12-1.56,0-1.03.12-1.8.36-2.26.35-.68.34-.73-.2-1.7-1.01-1.8-.91-4.43.28-7.26l.34-.82.58.53c1.17,1.09,1.54,1.22,2.91,1,.69-.11,1.6-.34,2.01-.52.42-.17.79-.31.82-.31.04,0,.13.31.22.69.26,1.24,1.1,2.62,2.21,3.66l1.09,1.02h-.81c-1.11,0-2.83-.91-3.88-2.05-1.09-1.18-1.12-.99-.09.5.46.67,1.19,1.38,1.77,1.72.9.53,1.17.58,3.02.55,2.29-.04,2.6-.22,3.01-1.77.24-.87,1.16-1.87,1.84-1.99.37-.07.45-.31.57-1.86.18-2.15.88-3.82,1.95-4.64,1.46-1.11,1.5-.78.26,2.02-.39.88-.83,2.07-.97,2.64-.3,1.19-.15,3.52.24,3.88.21.19.24.17.15-.1-.2-.55.21-3.24.71-4.74.47-1.42,2.03-4.12,2.75-4.77.32-.29.4-.57.31-1.19-.15-1.12.31-1.91,2.27-3.89,1.84-1.86,3.15-2.51,5.5-2.73,1.85-.17,4.95.26,6.13.84,1.51.75,1.58,1.25.48,3.56-.57,1.19-.95,2.34-1.03,3.07l-.12,1.17.54-1.12c.71-1.47,2.14-2.99,3.41-3.63,1.19-.61,1.48-.63,2.32-.2,1.11.58,3.05.97,5.83,1.18,2.62.2,4.5.67,5.42,1.35.32.24.33.37.06,1.26-.17.55-.37,1.56-.46,2.26-.11.91-.33,1.48-.77,2.05-1.34,1.7-3.34,6.62-3.76,9.21l-.14.89-.65-.8c-1.1-1.32-2.41-1.64-4.64-1.13-1.32.3-4.02.02-7.77-.81-2.46-.55-3.54-1.08-4.27-2.09-.26-.35-.48-.39-1.61-.28-4.18.41-4.15.41-4.94.03-.43-.2-1.12-.75-1.53-1.21l-.76-.84v.81c0,1.05.57,2.14,1.5,2.88.84.66,2.84,1.26,4.22,1.26.89,0,.9.01,1.03.91.21,1.36.98,2.55,2.14,3.33,1.27.86,2.31,1.16,4.58,1.33l1.76.13-2.57,2.76c-1.41,1.51-3.24,3.56-4.06,4.55-1.15,1.38-1.71,1.87-2.46,2.15-1.23.47-2.79.35-4.53-.34-1.27-.52-1.28-.53-1.43-1.55-.23-1.6-.95-2.83-2.51-4.26-1.1-1-1.69-1.79-2.54-3.37l-1.12-2.06.12,1.27.11,1.28h-2.2s-2.2-.02-2.2-.02l-.82-1.63-.82-1.62-1.12-.13c-1.71-.21-3.76-.97-4.86-1.8l-.98-.75.09,1.25c.06.74.31,1.69.62,2.3.49.98,2.99,3.58,3.44,3.58.11,0,.21.11.21.24,0,.36-2.33.14-3.21-.3-.4-.21-.77-.34-.81-.29-.22.22,1.95,1.86,2.76,2.09l.93.25-.6.21c-1.13.39-2.66-.17-4.11-1.51-.43-.38-.77-.64-.77-.58,0,.22.69,1.49,1,1.85.28.31.24.37-.29.5-.69.18-2,.94-2,1.17,0,.08.63.11,1.41.06,1.67-.1,2.95.31,3.85,1.25l.61.63-1.16-.44c-.96-.37-1.52-.43-3.2-.36-2.8.12-3.27.39-3.88,2.24-.67,1.99-.53,3.5.4,4.46.56.57.68.87.68,1.66,0,2.08,2.18,4.28,4.24,4.28.45,0,1.49.15,2.32.32,4.06.85,6.95.62,8.24-.66.48-.49.93-.73,1.34-.73,1.8,0,3.85-.88,3.85-1.66,0-.18.4-.76.88-1.28.84-.91,1.91-2.86,1.92-3.48,0-.17.13-.24.33-.16,1.07.4,3.09.78,5.2.96,1.32.11,2.69.35,3.04.52.35.17.87.27,1.16.22.41-.08.64.05,1,.55.25.36.98.9,1.63,1.2,1.25.59,1.83,1.22,1.83,1.98,0,.26.1.54.21.61.12.08.22.56.22,1.08v.94l-3.39,2.85c-1.86,1.57-4.22,3.68-5.25,4.69-2.11,2.08-2.36,2.68-1.93,4.72.23,1.11.21,1.21-.45,2.47-.47.88-1.43,2.05-2.97,3.58-2.98,2.97-3.53,4.02-3.53,6.76,0,1.58.09,2.1.48,2.84.27.5.48,1.16.48,1.46,0,1.15,1.4,2.8,3.34,3.97.47.28,1.5,1.02,2.28,1.65,2.03,1.61,2.23,1.62,4.06.28.26-.19,1.01.05,3.44,1.09,6.14,2.62,13.3,6.42,18.73,9.92,2.09,1.35,2.27,1.52,2.17,2.04-.11.55-.09.56.72.41,2.31-.43,4.93-1.99,6.25-3.72,1.25-1.64,1.53-5.21.4-5.21-1.28,0-5.08-1.52-6.07-2.43-.57-.52-.62-.34-.14.48.49.83,1.74,1.59,3.34,2.03.75.21,1.61.44,1.9.53,1.17.32.72,2.87-.8,4.56-.91,1.01-3.19,2.35-4.01,2.35s.26-1.77,1.27-2.02c.54-.14.54-.15.19-.74l-.35-.61-.77.4c-.87.44-1.92.51-2.67.17-.44-.21-.5-.38-.49-1.56,0-.74-.08-1.61-.17-1.94-.17-.6-.18-.59-.82.7-.68,1.36-.81,1.45-1.5,1.08-.38-.2-.39-.28-.11-.81.43-.83.63-2.45.46-3.63l-.15-1-.49,1.19c-.61,1.5-1.33,2.67-1.74,2.83-.55.22-1.01-.09-.87-.59.6-2.09.77-2.96.75-3.99v-1.19s-.4,1.07-.4,1.07c-.62,1.76-1.54,3.57-1.87,3.7-.23.08-7.9-2.92-8.43-3.3-.05-.03.37-.56.92-1.18,1.74-1.94,3.56-5.55,3.56-7.07,0-.62.48-.73,2.06-.47,2.79.46,4.54,1.64,6.69,4.49,1.03,1.37,2.57,2.86,2.95,2.86.34,0,.1-2.33-.33-3.12-.36-.67-.48-1.34-.56-3.11-.12-2.76.21-4.2,1.58-6.92.52-1.05,1.11-2.52,1.3-3.25.39-1.51.45-4.9.1-6.38l-.22-.96,1.24-1.3c2.38-2.49,3.69-4.82,4.97-8.88ZM21.28,18.02c-.35.93-1.6,1.29-2.25.64-.81-.81-.57-2.12.42-2.37,1.27-.31,2.25.62,1.83,1.73Zm-13.38,6.54c.05.15.32.36.61.47.66.25.65.59-.04.86-.85.32-1.71.25-2.1-.19-.49-.54-.48-.56.54-1.02.69-.31.92-.34.99-.12Zm1.22-4.96c-1.66.82-1.82.84-1.82.21.01-.78.33-1.08,1.43-1.37,2.16-.57,2.41.17.39,1.16Zm-1.73-2.83c-.08.46-.34,1.21-.57,1.68-.24.47-.42,1.22-.42,1.68.01.69-.07.86-.52,1.03-.82.31-.8.34-1.04-1.12-.11-.67.2-3.58.4-3.78.04-.04.57-.13,1.19-.2l1.12-.13-.16.84Zm3.09,6.5l1.36-.61-.07.78c-.04.57-.24.91-.73,1.29-.55.42-.7.46-.8.21-.06-.17-.34-.35-.62-.39-.88-.12-.52-.66.86-1.28Zm10.46,31.61c-.18.18-4.31.16-5.78-.04-1.26-.16-1.27-.16-.89.26.56.62,2.15,1.11,4.05,1.25.92.07,1.63.16,1.58.21-.05.06-.8.29-1.67.53-3.56.97-11.67.58-11.89-.57-.32-1.61-.31-1.83.01-1.83.18,0,.62-.15.98-.34.56-.29.63-.41.51-.96-.21-.92.21-1.95,1.13-2.82,1.23-1.18,4.45-3.44,4.53-3.2.15.48-.46,1.75-1.08,2.24-.62.48-.64.55-.41,1.25.32.97,1.63,2.2,2.69,2.54.58.19,1.64.24,3.38.16l2.52-.12.23.66c.13.36.18.71.11.78Zm35.81-28.14c0-1.33.35-2.82.72-3.06.33-.23,2.48.04,3.16.39.31.15.68.42.82.6.23.28.17.32-.4.3-.98-.02-1.38.49-1.36,1.75l.02,1.06-1.48.07-1.48.07v-1.18Zm-.15,48.29c-.87.72-4,2.31-5.83,2.96-.86.31-1.64.56-1.71.56,0-.05,1.09-.75,2.5-1.6,1.45-.88,3.29-2.08,4.08-2.67l1.43-1.07.07.66c.05.52-.07.78-.54,1.16Zm.28-12.75c-.42,1-1.88,2.34-3.56,3.26-1.53.84-2.26,1.73-1.61,1.98.6.23,1.91-.13,2.84-.79.51-.35.97-.65,1.02-.65.22,0,.09,1.45-.17,1.76-.14.19-.91.5-1.71.69-2.39.58-3.54.41-5.27-.77-.85-.58-.92-.69-.92-1.59,0-1.03.44-2.3,1.02-2.94.2-.21.92-.69,1.61-1.06,1.19-.63,2.24-1.59,2.97-2.72.27-.41.51-.51,1.27-.5.51,0,1.02.1,1.13.21.28.28-.72,2.4-1.47,3.09-.34.32-1.33,1.01-2.2,1.55-1.78,1.09-2.71,2.2-2.31,2.74.4.55,1.62,1.11,1.31.61-.08-.13-.02-.52.12-.88.2-.48.66-.84,1.8-1.41,1.79-.9,3.19-2,3.91-3.06.57-.84.68-.6.22.48Z"></path>
        <g id="Pants">
          <path fill="currentColor" d="m39.59,95.37c.4-.45,1.04-1.26,1.42-1.81.8-1.16,2.62-4.83,2.62-5.28,0-.99-2.18-2.53-3.9-2.75l-.94-.12-.64,1.46c-.76,1.72-2.36,4.24-3.67,5.79-.87,1.03-.91,1.12-.57,1.43.65.57,4,2.06,4.7,2.09.13,0,.57-.36.98-.8Z"></path>
          <path fill="currentColor" d="m30.72,94.64c.4-.25.39-.29-.22-.98-.81-.92-1.78-2.85-2.25-4.47-.2-.7-.56-1.65-.8-2.1-1.31-2.51-.08-6.58,3.25-10.73.79-.98,1.71-2.27,2.05-2.86,2.06-3.57,6.12-7.23,11.74-10.6,1.36-.81,3-1.65,3.65-1.87,1.75-.57,3.12-1.31,3.63-1.96.39-.49.45-.87.45-2.69,0-1.17-.05-2.12-.1-2.12s-.83.29-1.72.64c-3.92,1.56-8.48,4.25-11.94,7.04-3.28,2.65-8.26,7.84-8.45,8.82-.06.33-.06,1.2,0,1.94.18,2.02-.64,3.53-3.5,6.42-2.72,2.75-3.43,4.02-3.43,6.1,0,.99.14,1.68.47,2.36.26.53.52,1.31.59,1.74.18,1.13.95,2.02,2.85,3.32.93.64,1.93,1.4,2.21,1.7.57.61.89.67,1.5.29h0Z"></path>
          <path fill="currentColor" d="m31.62,91.15c-.64-1.3-2.03-2.94-1.65-1.96,1.83,4.8,1.67,4.5,2,3.87.28-.53.25-.69-.35-1.91Z"></path>
          <path fill="currentColor" d="m34.51,89.16c-.2-1.04-.76-2.43-.99-2.43-.41,0-.37.45.16,1.8.62,1.56,1.06,1.9.82.64Z"></path>
          <path fill="currentColor" d="m37.12,86.67c.61-1.26.79-2.09.44-2.09-.15,0-.88.29-1.61.63-1.39.66-1.5.89-.79,1.73.15.18.34.59.42.93l.15.6.47-.45c.26-.25.67-.86.92-1.36h0Z"></path>
          <path fill="currentColor" d="m29.15,85.24c.02-1.3.14-1.73,1.01-3.49.54-1.11,1.64-2.86,2.45-3.89,4.21-5.39,5.11-6.45,6.98-8.23,1.98-1.89,4.23-3.56,5.8-4.3.55-.26.84-.58,1-1.1.29-.93.13-.93-1.65.06-3.94,2.19-7.97,5.54-10.09,8.42-1.37,1.86-5.57,8.49-6.08,9.6-.49,1.08-.51,2.66-.04,3.65.2.42.42.76.48.76.07,0,.13-.67.14-1.48Z"></path>
          <path fill="currentColor" d="m33.1,84.28c0-1.34.67-2.88,2.01-4.61,1.32-1.7,5.21-5.46,7.66-7.39,2.99-2.37,4.28-3.93,3.71-4.51-.13-.13-.35.02-.6.4-.74,1.14-3.01,3.35-5.69,5.55-5.58,4.58-7.95,7.74-7.95,10.6,0,1.14.1,1.35.56,1.18.2-.08.3-.47.3-1.22Z"></path>
          <path fill="currentColor" d="m36.48,83.27c.54-.01.56-.04.2-.27-1.22-.79-1.18-.83.64-.7l1.75.13.15-.59c.22-.88.93-1.95,2.14-3.24,1.45-1.55,2.52-2.29,5.93-4.11,2.66-1.43,7.53-4.44,7.53-4.67,0-.17-2.68.19-2.89.38-.48.44-1.59.17-2.88-.7-.73-.49-1.35-.85-1.38-.81-1.48,2.36-2.41,3.32-5.13,5.31-3.04,2.22-6.57,6.08-7.62,8.32-.7,1.5-.67,1.66.24,1.28.41-.17,1.01-.32,1.34-.32Z"></path>
          <path fill="currentColor" d="m43.79,54.87c.78-.38,1.93-1.16,2.54-1.72,1.07-.98,1.82-2.18,1.53-2.47-.07-.07-.74.17-1.49.54-1.2.59-3.26,2.27-5.16,4.22l-.63.64-.41-.5c-.89-1.1-.19-3.12,1.59-4.6,3.96-3.29,4.85-4.57,4.7-6.76-.05-.77-.31-.56-.94.76-.76,1.6-2.17,3.28-3.69,4.42-.67.5-1.46,1.27-1.75,1.7-.45.67-2.08,1.88-2.53,1.88-.07,0-.24-.2-.37-.44-.2-.37-.13-.56.42-1.19.97-1.11.81-1.22-.57-.4-.67.41-1.5.74-1.83.74s-.6.08-.6.17c0,.3.5.69.89.69.2,0,.58.3.84.66.26.36,1,.96,1.65,1.32,1.34.76,1.99,1.65,2,2.75v.75s1.19-1.23,1.19-1.23c.74-.76,1.73-1.49,2.61-1.93h0Z"></path>
        </g>
        <path id="Right-Arm" fill="currentColor" d="m5.26,56.44c-.32-2.14-.27-2.61.29-2.61.53,0,1.24-.56,1.38-1.09.1-.39.05-.44-.35-.31-.94.29-2.46.38-2.6.15-.08-.13.05-.6.29-1.04.26-.49.44-1.22.44-1.84,0-.91-.07-1.05-.55-1.24-.9-.34-1.38-.24-2.04.42-.56.56-.63.77-.63,2,0,1.65.38,2.36,1.04,1.95.6-.36.71.04.44,1.67-.19,1.21-.17,1.39.25,2,.46.66,2.13,2.15,2.26,2.01.04-.04-.07-.97-.23-2.07Z"></path>
        <path id="Football" fill="#9e6847" d="m21.28,52.27c1.72-.9,2.77-2.24,2.4-3.06-.33-.73-1.49-1.4-2.41-1.39-.96,0-2.41.66-3.59,1.63-1.05.86-1.14.81-.43-.24.99-1.46,2.57-2.25,4.48-2.25h1.05l-.37-.57c-.36-.55-.41-.56-2.1-.45-.95.06-2.09.27-2.53.46-1.86.8-3.09,2.63-3.33,4.98l-.12,1.14.73.21c.4.12,1.66.22,2.8.23,1.95.02,2.16-.03,3.41-.68Z"></path>
        <path id="Football2" fill="#9e6847" d="m12.42,47.06c1.76-1.27,1.97-1.26,1.98.07v.72s.99-.87.99-.87c1.16-1.02,2.92-1.74,4.66-1.9l1.24-.12-.6-.36c-1.18-.72-3.54-1.36-5.02-1.36-1.76,0-3.01.61-3.89,1.89-.55.8-1.38,3.12-1.12,3.12.06,0,.85-.53,1.75-1.18Z"></path>
        <path d="m15.84,45.7c.44-.77.26-1.26-.63-1.66l-.7-.32.75.14c1.01.19,1.65.44,1.82.71.22.35-.26,1.06-.95,1.41l-.63.33.35-.61Z"></path>
        <path id="Facemask" fill="currentColor" d="m14.81,10.83c-.35,0-.63.12-.64.27-.01.15-.06.68-.13,1.18-.1.82-.07.92.34.92.64,0,.56.61-.12.87-.44.16-.62.14-.81-.12-.21-.29-.56-.31-2.71-.12-1.36.12-2.87.22-3.36.22-.87.01-.89-.01-1.29-1.12-.4-1.12-.41-1.13-1.4-1.2l-.99-.06-.13.92c-.37,2.57-.59,6.28-.46,7.81.27,3.38,1.28,6.09,2.71,7.3.8.67,1.52.63,3.84-.24,1.54-.57,3.11-1.51,3.84-2.29.45-.48.46-.59.25-2.09-.25-1.77-.28-1.84-.59-1.45-.13.17-.16.73-.06,1.42l.15,1.15-1.09.82c-1.45,1.07-2.36,1.52-3.75,1.85-1.36.32-1.95.16-2.57-.71-.86-1.2-.79-1.29,1.89-2.4,4.39-1.83,7.53-3.64,7.53-4.35,0-.22-.05-.41-.11-.41s-.75.44-1.54.99c-2.82,1.92-8.23,4.27-8.72,3.78-.33-.33-.07-.56,1.01-.89,1.38-.42,6.33-2.95,7.74-3.95,1.11-.79,1.29-1.01,1.26-1.55-.04-.6.26-4.34.45-5.85.09-.65.05-.7-.54-.7Zm-5.69,8.77c-1.66.82-1.82.84-1.82.21.01-.78.33-1.08,1.43-1.37,2.16-.57,2.41.17.39,1.16Zm-3.88-3.34s.57-.13,1.19-.2l1.12-.13-.16.84c-.08.46-.34,1.21-.57,1.68-.24.47-.42,1.22-.42,1.68.01.69-.07.86-.52,1.03-.82.31-.8.34-1.04-1.12-.11-.67.2-3.58.4-3.78Z"></path>
        <path d="m12.3,14.78c-.21.05-2.09.22-4.17.37l-3.8.28-.13.63c-.16.83-.16,4.33.01,5.36.08.44.22.81.33.81.42,0,2.9-.93,4.14-1.55.72-.36,1.91-1.08,2.65-1.61l1.35-.95v-1.72c0-1.54-.05-1.72-.38-1.62Zm-5.9,5.35c.01.69-.07.86-.52,1.03-.82.31-.8.34-1.04-1.12-.11-.67.2-3.58.4-3.78.04-.04.57-.13,1.19-.2l1.12-.13-.16.84c-.08.46-.34,1.21-.57,1.68-.24.47-.42,1.22-.42,1.68Zm2.72-.53c-1.66.82-1.82.84-1.82.21.01-.78.33-1.08,1.43-1.37,2.16-.57,2.41.17.39,1.16Z"></path>
        <g id="Left_Arm">
          <path fill="currentColor" d="m56.75,57.28c.89,0,1.92.08,2.3.19.63.18.69.15.8-.38.3-1.52.76-4.61.9-6.03l.15-1.59-3.31.12c-1.82.07-3.53.19-3.79.27-.47.14-.48.23-.48,2.97,0,1.55.06,3.32.13,3.92l.13,1.09.78-.28c.43-.15,1.51-.28,2.39-.29h0Z"></path>
          <path fill="currentColor" d="m58.06,48.62s.28-1.88.61-4.11l.6-4.05-.87.12c-.48.06-1.43.41-2.12.76l-1.26.65.44-.62c.24-.34.84-.96,1.32-1.37,1.34-1.15,2.74-1.33,5.16-.68.55.15.57.12.85-1.32.3-1.57.38-6.33.13-7.63-.13-.67-.28-.83-.95-1.06-1.72-.57-4.67-.27-6.97.71-.94.4-1.06.54-1.65,1.97-.73,1.77-1.23,3.48-1.42,4.89-.15,1.12.19,2.92.65,3.43.54.6,1.17,2.81,1.4,4.92.12,1.13.27,2.37.33,2.75l.11.7h1.82c1,0,1.82-.02,1.83-.05Z"></path>
        </g>
        <path id="Helmet" fill="currentColor" d="m26.15,13.28c-.47-6.74-3.78-11.06-9.08-11.88-1.34-.21-1.72-.18-3.12.21-4.45,1.23-7.74,4.35-8.56,8.09-.19.9-.18.92.38.92.5,0,.62.15,1.07,1.39.35.98.61,1.4.86,1.39.19,0,1.51-.13,2.93-.27l2.58-.26.07-1.42.06-1.43,1.44.11c.79.06,1.45.13,1.47.14,0,.09-.17,1.41-.38,2.99-.36,2.75-.37,3.01-.04,3.51.27.41.29.64.12,1.03-.15.33-.16.79-.04,1.34.16.69.13.87-.18,1.09-1.33.93-1.27.82-.78,1.48,1.39,1.88,4.2,2.31,6.28.98,1.14-.74,1.78-1.73,2.18-3.34.36-1.52.94-2.52,1.96-3.45l.91-.82-.13-1.8Zm-4.87,4.74c-.35.93-1.6,1.29-2.25.64-.81-.81-.57-2.12.42-2.37,1.27-.31,2.25.62,1.83,1.73Z"></path>
        <path d="m18.12,33.41c.04-1.01.12-1.21.57-1.44.39-.19.6-.2.82-.02.24.2.19.32-.25.69-.3.25-.68.79-.86,1.2l-.32.75.04-1.18Z"></path>
        <path d="m48.49,34.28c-.07-.11.06-.62.28-1.13.57-1.34.69-1.94.89-4.4.2-2.47.87-4.3,1.8-4.91.57-.37,1-1.32,1-2.19,0-.37.12-.51.46-.51.43,0,.45.08.34,1.28-.08.83-.31,1.6-.67,2.2-1.05,1.75-1.46,2.79-1.66,4.22-.53,3.74-1.77,6.51-2.44,5.43Z"></path>
        <path d="m44.5,33.33c0-.94.37-2.02.97-2.83,1.1-1.49,1.26-2.05,1.31-4.51.05-2.8.59-5.27,1.15-5.27.32,0,.35.24.3,1.93-.04,1.06-.1,2.8-.13,3.85-.06,1.87-.1,1.98-1.45,4.71-.96,1.94-1.5,2.8-1.76,2.81-.29.01-.38-.15-.38-.7Z"></path>
      </g>
    </g>
    <g id="Arrow">
      <path id="Outline" d="m28.8,129.69c-.17.03-.47,0-.65-.05-.19-.06-4.7-1.97-10.02-4.24-7.53-3.22-9.75-4.2-9.97-4.4-.72-.65-.97-1.74-.58-2.48q.15-.29,3.85-2.3l3.7-2.01-.24-.35c-.66-.98-1.2-1.87-2.04-3.35-4.36-7.69-6.57-16.04-6.22-23.58.44-9.69,4.92-18.31,13.32-25.63,1.23-1.07,3.03-2.49,3.31-2.6.78-.31,1.62.08,2.11.97.47.85.4,1.41-.32,2.56-2.09,3.36-4.07,7.73-5.2,11.5-3.04,10.15-1.98,20.53,3.05,29.9.91,1.69,1.61,2.84,2.53,4.16l.53.75,3.96-2.08c4.38-2.31,4.08-2.19,4.74-1.89.8.36,1.36,1.36,1.23,2.22-.08.56-6.07,22.1-6.2,22.32-.19.33-.5.54-.86.6h0Z"></path>
      <path id="Interior" fill="currentColor" d="m29.34,117.63l2.11-7.64-2.54,1.32q-2.69,1.4-3.26,1.24c-.57-.16-.97-.58-2.29-2.38-1.6-2.19-3.5-5.48-4.62-8.02-3.24-7.36-4.43-14.88-3.56-22.56.18-1.63.82-4.94,1.23-6.43.27-.98,1.11-3.6,1.39-4.33.07-.19.07-.19-.16.07-1.44,1.59-3.47,4.6-4.55,6.71-1.46,2.88-2.27,5.33-2.83,8.52-1.2,6.87.02,14.13,3.7,21.94,1.02,2.18,2.95,5.45,4.14,7.05.64.85,1.02,1.52,1.08,1.88.08.48,0,.91-.21,1.27l-.2.32-2.8,1.51-2.8,1.51,6.98,2.98c6.13,2.62,6.98,2.96,7.03,2.84.03-.08,1-3.58,2.16-7.78Z"></path>
    </g>
</svg>