<?xml version="1.0" encoding="UTF-8"?>
<svg id="Icon-Add-Drop" xmlns="http://www.w3.org/2000/svg" viewBox="0 0 72.16 72">
  <defs>
    <style>
      svg {
        color: green;
      }
    </style>
  </defs>
  <g id="Player">
      <path id="Right_Shoulder" fill="currentColor" d="m11.62,44.09c-2.45.21-4.76,1.1-7.11,1.73-2.42-.96-5.86-4.4-3.81-6.88-.53-1.16-1.41-2.41.39-2.75-.19-1.84-.25-3.79.94-5.31.93.1-.32.48-.16.98.78.24-.19,2.06.94,3.42-.06.62,1.01,2.24,1.49,2.75-.22.78-1.09.77-1.69.39-.38-.24-1.47-1.69-1.61-1.45.57,4.33-.99,5.09,2.79,6.33,1.91.63,4.4,1.03,6.37.63.16.46.89-.13,1.45.16Z"></path>
      <path id="Left_Shoulder" fill="currentColor" d="m71.53,39.1c1.87,2.25-1.16,5.39-3.18,6.56-1.11-.63-3.59-1.19-4.91-1.41-.08-.54,1.21-.17,2-.24,1.54-.12,5.17-1.04,5.94-2.48,1.01-1.88-1.03-.62-.79-2.28.58-.83.77-2.62,1.26-2.56.02.01.29.05.32.12.08.22-.63,1.85-.63,2.28Z"></path>
      <path id="Arms_Outline" fill="currentColor" d="m17.71,64.92c-.08-.04-1.72-.35-1.81-.31-.27.11-.3.92.87,1.18,1.36.3,1.42-.64.94-.87Zm0,0c-.08-.04-1.72-.35-1.81-.31-.27.11-.3.92.87,1.18,1.36.3,1.42-.64.94-.87Zm0,0c-.08-.04-1.72-.35-1.81-.31-.27.11-.3.92.87,1.18,1.36.3,1.42-.64.94-.87Zm0,0c-.08-.04-1.72-.35-1.81-.31-.27.11-.3.92.87,1.18,1.36.3,1.42-.64.94-.87Zm0,0c-.08-.04-1.72-.35-1.81-.31-.27.11-.3.92.87,1.18,1.36.3,1.42-.64.94-.87Zm0,0c-.08-.04-1.72-.35-1.81-.31-.27.11-.3.92.87,1.18,1.36.3,1.42-.64.94-.87Zm0,0c-.08-.04-1.72-.35-1.81-.31-.27.11-.3.92.87,1.18,1.36.3,1.42-.64.94-.87Zm0,0c-.08-.04-1.72-.35-1.81-.31-.27.11-.3.92.87,1.18,1.36.3,1.42-.64.94-.87Zm48.08-17.8c0-.07.52-.36.63-.44.1-.07.38-.27.39-.39-1.77-.19-3.51-.55-5.31-.63-2.36-.11-4.85-.05-7.19.24-.12.01.04.25-.55.08-.34.73-.82,1.6-1.18,2.43-.85,1.98-1.32,2.57-1.38,4.96-1.04-.15-3.16.04-4.2.23-1.72.32-1.86.74-2.52.79-.91-.1-5.42-.36-5.74.67-.07.23.13.81-.12.98q-4.32.82-8.65,1.65c-.3-.01.33-1.16.48-1.18,3.51,1.58.74-.8.66-1.06-.06-.24-.04-.7-.07-.98-.88-.36-1.68-.92-2.52-1.34-.49-.24-2.6-1.24-2.91-1.34-.18-.05-1.04-.31-1.1-.31-1.42-.13-2.97.74-3.11.63-.16-1.88-.57-3.95-1.92-5.35-.17-.17-.41-.24-.43-.55-.68-.1-.48-.22-.52-.23-1.76-.67-9.44-.27-11.63.55.02,0,.27.21.31.23,1.67.81-.57-.21-1.41,3.26-1.16,4.75,1.48,11.91,3.77,16.12.94,1.74,2.9,5.22,4.6,5.86.06-.18.71-.54.79-.55,3.48-.69,7.17,2.19,15.88-2.36,1.73-.9,3.75-2.29,5.58-3.3.87-.48,6.83-3.78,7.23-3.78.16,0,.33.15.16.32-.38.38-8.14,4.4-9.28,5.27,4.65,1.48,10.48,3.79,15.34,4.01,2.71.12,6.46-.65,8.56.23,2.98-.91,5.09-5.93,6.33-8.76,2.05-4.69,5.14-11.73,1.03-15.96Zm-16.16,6.95c1.98-.21,3.23,2.94,3.38,4.56q-.77.06-1.53.12c-.21-1.8-.96-3.33-2.28-4.56.32-.02.41-.11.43-.12Zm-2.67.55c2.77-.09,3.95,4.17,3.53,4.41q-.82.19-1.65.39c-.34-.13.56-3.48-3.02-4.52.01-.06,1.04-.27,1.14-.28Zm-26.18,2.68s.9.3,1.06.12c.1-.13-.38-1.78-.32-3.15.08-.29,2.06-.94,2.4-.98,2.63-.3,2.82.88,4.52,1.53q-.02.73-.04,1.46c.25.12-.19-2.04,1.77.11,0,.11-1.31,1.41-1.45,1.46-.37.12-7.34.36-7.71.23-.2-.06-.39-.67-.23-.78Zm-10.78,4.95q-.84-1.75-1.69-3.5c1.35.06,3.3,1.96,3.5,1.93.08-.02.29-.4.28-.51-.07-.84-5.32-5.82-2.36-9.91,1.63-2.25,4.04-1.31,4.24-1.57l-2-2.24c.93-.02,1.9-.16,2.83-.16.5,0,2.77.08,3.03.28,2.12,4.38,1.76,6.2.23,10.61-2.83,1.17-4.38,2.79-5.93,5.38-2.33-.93-1.33-1.3-2.6-2.9q.24,1.29.47,2.59Zm32.83-1.3c-.23.7-9.34,3.08-10.58,3.66-3.4.99-7.02,1-10.45,1.89-1.48.38-4.93,1.84-5.58,1.96-3.58.64-3.67-2.9-5.08-5.15.01-.15.03-.11.2-.04.44.2,3.06,2.68,3.34,1.22.15-.76-1.19-.96-1.57-1.41,2.49-5.63,9.33-3.38,16.31-4.05,3.33-.32,6.58-1.41,9.83-2.13,1.07.41,3.96,2.86,3.58,4.05Zm-.98-4.36c-1-.71-3.03-1.07-.32-1.26,2.46-.17,7.17.73,6.57,4.13q-1.71.88-3.42,1.77c.02-1.68-1.52-3.7-2.83-4.64Zm18.43,12.23c-.88.9-5.9-.8-7.19-1.22-4.29.97-8.02.86-12.27-.24-.26-.19-.05-1.54.24-1.65,2.28.14,4.56.09,6.84-.08-6.33-.52-8.12.23-1.57-3.38,4.69-2.59,6.84-3.63,12.14-1.22-.21-.51-.78-.91-.78-1.41.22-.61,1.21-4.48,1.18-4.72,0-.03-.09-.07-.12-.12-.31.53-3.61,3.63-3.85,3.54-2-5.02-2.61-6.94.31-11.87.52-.01,1.06-.13,1.57-.16,2.05-.1,5.45.59,7.24,1.65,2.79,1.66,2.9,4.76,2.08,7.59-.38,1.3-5.29,12.74-5.82,13.29Zm-42.57-3.9c-.08-.04-1.72-.35-1.81-.31-.27.11-.3.92.87,1.18,1.36.3,1.42-.64.94-.87Zm0,0c-.08-.04-1.72-.35-1.81-.31-.27.11-.3.92.87,1.18,1.36.3,1.42-.64.94-.87Zm0,0c-.08-.04-1.72-.35-1.81-.31-.27.11-.3.92.87,1.18,1.36.3,1.42-.64.94-.87Zm0,0c-.08-.04-1.72-.35-1.81-.31-.27.11-.3.92.87,1.18,1.36.3,1.42-.64.94-.87Zm0,0c-.08-.04-1.72-.35-1.81-.31-.27.11-.3.92.87,1.18,1.36.3,1.42-.64.94-.87Zm0,0c-.08-.04-1.72-.35-1.81-.31-.27.11-.3.92.87,1.18,1.36.3,1.42-.64.94-.87Zm0,0c-.08-.04-1.72-.35-1.81-.31-.27.11-.3.92.87,1.18,1.36.3,1.42-.64.94-.87Z"></path>
      <path id="Right_Upper_Arm" d="m18.06,57.18c-2.84,1.17-4.38,2.79-5.94,5.38-2.33-.93-1.33-1.3-2.59-2.91q.24,1.3.47,2.6-.85-1.75-1.69-3.5c1.35.06,3.3,1.96,3.5,1.93.08-.01.28-.4.27-.51-.07-.84-5.32-5.82-2.36-9.91,1.63-2.25,4.04-1.31,4.24-1.57q-1-1.12-2-2.24c.93-.02,1.9-.16,2.83-.16.5,0,2.77.08,3.03.28,2.12,4.38,1.76,6.21.23,10.61Z"></path>
      <path id="Left_Arm" d="m64.02,47.94c-1.79-1.06-5.19-1.75-7.24-1.65-.51.03-1.05.15-1.57.16-2.92,4.93-2.31,6.85-.31,11.87.24.09,3.54-3.01,3.85-3.54.03.05.11.09.12.12.03.24-.96,4.11-1.18,4.72,0,.5.57.9.78,1.41-5.3-2.41-7.45-1.37-12.14,1.22-6.55,3.61-4.76,2.86,1.57,3.38-2.28.17-4.56.22-6.84.08-.29.11-.5,1.46-.24,1.65,4.25,1.1,7.98,1.21,12.27.24,1.29.42,6.31,2.12,7.19,1.22.53-.55,5.44-11.99,5.82-13.29.82-2.83.71-5.93-2.08-7.59Zm-4.56,16.35c-1.38,1.14-3.81,1.54-3.42.52.09-.25,2.85-1.75,4.01-3.46.13-.2.55-1.35.66-1.38.74-.19.7,2.72-1.25,4.32Z"></path>
      <path id="Left_Elbow" fill="currentColor" d="m59.46,64.3c-1.38,1.14-3.8,1.54-3.42.51.09-.25,2.85-1.75,4.01-3.46.13-.2.56-1.35.67-1.38.73-.19.69,2.72-1.26,4.32Z"></path>
      <path id="Right_Arm" d="m39.25,56.9c-3.25.72-6.5,1.81-9.83,2.13-6.98.67-13.82-1.58-16.31,4.05.38.45,1.72.65,1.57,1.41-.28,1.46-2.9-1.02-3.34-1.22-.17-.07-.19-.11-.2.04,1.41,2.25,1.5,5.79,5.08,5.15.65-.12,4.1-1.58,5.58-1.96,3.43-.89,7.05-.9,10.45-1.89,1.24-.58,10.35-2.96,10.58-3.66.38-1.19-2.51-3.64-3.58-4.05Zm-22.48,8.89c-1.17-.26-1.14-1.07-.87-1.18.09-.04,1.73.27,1.81.31.48.23.42,1.17-.94.87Z"></path>
      <path id="Right_Elbow" fill="currentColor" d="m16.77,65.79c-1.17-.26-1.14-1.06-.87-1.18.09-.04,1.73.27,1.81.31.48.23.42,1.17-.94.87Z"></path>
      <path id="Jersey" d="m71.84,36.7c-.22-.14-.5-.16-.63-.43-.13-2.95.3-4.22-2.16-6.25-4.25-3.52-11.54-2.5-16.63-2.36,0,.05.02.14-.04.15-1.23.32-2.49.51-3.7.95-2.17.8-5.07,3.1-7.03,4.56-1.68,1.25-3.01,2.31-4.64,3.62q-3.16-2.32-6.33-4.64c-.46-.12-1.67-.53-2.16-.79-1.21-.63-2.42-1.47-3.66-2.04-1.33-.62-2.77-1.01-4.12-1.58-.01.01.07.21-.2.16-3.04-.93-10.67-.81-13.6-.08-1.59.4-3.9,1.61-4.92,2.91.93.1-.32.48-.15.98.78.25-.19,2.06.94,3.42-.06.62,1.01,2.25,1.49,2.75-.21.79-1.09.78-1.69.4-.37-.24-1.46-1.69-1.61-1.46.57,4.33-.98,5.09,2.79,6.33,1.91.63,4.4,1.03,6.37.63.16.46.89-.13,1.46.16,1.63-.14,6.8-.14,6.91,1.89.04.01-.16.13.52.23.02.31.26.38.43.55,1.35,1.4,1.76,3.47,1.92,5.35.14.11,1.69-.76,3.11-.63.06,0,.92.26,1.1.31.31.1,2.42,1.1,2.91,1.34.84.42,1.64.98,2.52,1.34.03.28.01.74.07.98.08.26,2.85,2.64-.66,1.06-.15.02-.78,1.17-.48,1.18q4.33-.83,8.65-1.65c.25-.17.05-.75.12-.98.32-1.03,4.83-.77,5.74-.67.66-.05.8-.47,2.52-.79,1.04-.19,3.16-.38,4.2-.23.06-2.39.53-2.98,1.38-4.96.36-.83.84-1.7,1.18-2.43.59.17.43-.07.55-.08.04-.31.21-.58.31-.87.01.14.05.05.16,0,3.34-1.38,5.07-1.4,8.65-.78-.08-.54,1.21-.18,2-.24,1.55-.12,5.17-1.04,5.94-2.48,1-1.87-1.03-.62-.79-2.28.58-.82.77-2.61,1.26-2.55Z"></path>
      <path id="Right_Dot" d="m33.24,14.84c-.09-.02-1.12.3-.55-1.34.09.04,1.26-.21.55,1.34Z"></path>
      <path id="Left_Dot" d="m39.65,15.24c-.06,0-.03-.16-.04-.16.12-.15.6-.56.55-.75-.16-.57-1.14.54-.79-.24.18-.4.71-.53.94-.12.3.52-.3.97-.67,1.26Z"></path>
      <path id="Helmet_Stripe" fill="currentColor" d="m38.43,5.25c-.02,2.21-.1,4.4-.16,6.6-.46-.02-3.89.13-4.01-.04q-.24-4.79-.47-9.59c.15-.31,2.78-.39,3.18-.35,2.17.17,1.48.55,1.45,3.38Z"></path>
      <path id="Facemask" fill="currentColor" d="m49.12,17.16c1.19-1.05.28-2.12.23-2.43-.41-3.05-.48-5.38-2.12-8.18C45.49,3.58,40.97.35,37.52.06c-3.85-.32-6.58.62-9.51,3.07-2.4,2-3.91,4.77-4.52,7.82-.26,1.29-.25,2.57-.4,3.85-.01.12-.82,1.23.04,2.17.02.01.32.02.36.11.06.17-.53,2.16.23,3.54-.89,1.1.05,2.58,1.26,2.99.09.14.22,2.4.32,2.87.06.32.21.65.23.98.39.14.3.25.32.28,1.36,2.12,3.82,2.75,6.13,3.3.19.04.97.34,1.06.31.05-.02.12-.08.19-.15,0,.01,0,.02.01.03.04.08.23.18.31.2.16.04.88-.01,1.26,0,1.2.04,2.41-.02,3.62,0,.51.01.61.2,1.06.16.13-.63,1.58-.5,2.67-.79,2.03-.54,3.09-.99,4.21-2.83.01-.02.06-.05.15-.23.2-.38.45-.77.55-1.18.22-.84.22-2,.24-2.87,2.57-1.11,1.47-2.7,1.49-2.91.02-.19.7-1.6.32-3.62Zm-24.85,1.69c.19-.07.75-.58.95-.43.12.09.83,2.52.94,2.87-1.11-.51-1.67-.75-1.97-2.01-.07-.33.09-.41.08-.43Zm15.92-2.83c.98.18-1.19.01-1.33,0-.93-.04-6.3-.05-6.68,0-1.04.15-.37.48-.71.63-.09.04-.66-.02-.91,0-2.46.25-5.9-.06-6.37,1.57.01-.43,0-.86,0-1.29.32-1,6.31-1.28,7.36-1.22.07,0,0,.23.07.23,2.18.11,6.4-.31,8.57.08Zm-7.5-2.51c.08.04,1.25-.22.55,1.33-.1-.02-1.12.31-.55-1.33Zm6.68.58c.18-.39.7-.52.94-.11.3.52-.29.97-.66,1.26-.07,0-.04-.16-.04-.16.12-.15.6-.56.55-.75-.17-.57-1.15.54-.79-.24Zm1.18,10.86c.05-.21.04-1.21.12-1.3.16-.18,4.02-.66,4.56-1.18.22-.07-.12,1.13-.16,1.18-.16.17-4.38,1.5-4.52,1.3Zm3.06,2.86c-.75.62-1.24.3-1.25-.62-.01-.44.26-1.2.31-1.69q1.12-.46,2.24-.91c.18.13-.33,2.44-1.3,3.22Zm-2.94-4.95c-.19.06-.3.37-.4.39-.36.1-.17-.29-.23-.31-.1-.03-1.79.35-2.13.08-.42.55-3.15.28-4.32.16-1.08-.12-5.63-.9-6.33-1.5q-.75-1.86-1.49-3.73c1.56-.27,3.14-.4,4.72-.51,3.57-.26,7.35-.32,10.92-.08,1.71.11,3.42.3,5.11.55q.08.06.16.12c-.27.59-.95,3.32-1.22,3.57-1.5.77-4.21,1.08-4.79,1.26Zm-8.45,2.09c-.7.22-4.3-.99-4.53-1.22-.18-.19-.19-.82-.35-1.06l.12-.12c1.29.84,4.4.92,4.56,1.1.07.07.1,1.04.2,1.3Zm-7.44-3.5q.85.35,1.69.7c.19.7.15.98.16,1.03-1.1-.53-1.97-.36-1.85-1.73Zm4.52,7.94c-.96-.51-2.33-.84-2.9-2.32-.23-.58-1.01-3.85.39-3.27.18.73.73,3.31.87,3.58.28.59,1.36,1.2,1.64,1.93v.08Zm-1.53-4.8q.81.34,1.61.67.1,1.75.2,3.5c-1.52-.47-1.48-2.78-1.81-4.17Zm4.89,4.58s-.01-.02-.01-.02q-1.2-.25-2.4-.51-.12-1.53-.24-3.07,1.16.18,2.32.36c.26,1.16.42,2.34.6,3.51-.11-.13-.2-.23-.27-.27Zm6.71-.22l-5.7.12c-.22-.1-.45-2.57-.47-2.99,2.14.14,4.3.28,6.45,0q-.14,1.44-.28,2.87Zm.43-3.81c-.42.34-5.8.28-6.76.08q-.14-.69-.27-1.38c2.33.38,6.13-.15,6.88-.11.11,0,.22-.03.27.03-.04.3.1,1.21-.12,1.38Zm.2,3.85c.15-.47.3-2.81.51-2.98q.94-.24,1.89-.48c.1.09-.16,1.42-.2,1.66-.07.38-.06,1.16-.27,1.33q-.97.24-1.93.47Zm5.82-1.49c-.79,1.53-2.18,2.08-3.78,2.44.34-.14.81-.53,1.1-.79,2.7-1.6,2.39-4.51,2.52-4.83.03-.08.21-.14.31-.2.05-.03.46-.14.47-.12.07,1.2-.06,2.41-.62,3.5Zm.07-4.32c.23-1.05.23-.9.79-1.18,1.45-.75,1.33.62-.79,1.18Zm.48-2.05c.07-.28.76-2.47.86-2.55.07-.06.66.31.79.35,0,.01.16.02.15.2,0,1.16-.78,1.64-1.8,2Zm1.88-2.87c-.03.1-.14-.08-.15-.04-.15-.81-2.36-1.74-2.48-1.65-.12.1.1.47-.24.4l-4.12-.48c-.05-.14-.17-.61-.04-.7.29-.21,6.79.47,7.03,1.22-.04.34.06,1.09,0,1.25Zm.12-2.32c-.42-.12-.87-.31-1.3-.39-1.9-.36-3.85-.49-5.78-.55-.06-.04-.12-.65-.27-1.1-.17-.51-.27-1.11-.67-1.49h-.82c-2.1-.04-4.22.13-6.33.07-.02,0-.21-.19-.32-.23-.3.16-.65.4-.82.71-.41.72-.15,1.11-.28,1.88-2.59.13-5.32.13-7.74,1.14-.25-5.2,1.45-11,6.56-13.24.69-2.22,10.36-2.3,10.93-.08,5.41,2.58,6.99,7.47,6.96,13.16l-.12.12Z"></path>
      <path id="Helmet" d="m41.53,2.66c-.57-2.22-10.24-2.14-10.93.08-5.11,2.24-6.81,8.04-6.56,13.24,2.42-1.01,5.15-1.01,7.74-1.14.13-.77-.13-1.16.28-1.88.17-.31.52-.55.82-.71.11.04.3.23.32.23,2.11.06,4.23-.11,6.33-.07h.82c.4.38.5.98.67,1.49.15.45.21,1.06.27,1.1,1.93.06,3.88.19,5.78.55.43.08.88.27,1.3.39l.12-.12c.03-5.69-1.55-10.58-6.96-13.16Zm-3.1,2.59c-.02,2.21-.11,4.4-.16,6.6-.46,0-3.89.13-4.01-.04q-.24-4.79-.47-9.59c.14-.3,2.78-.38,3.18-.35,2.17.17,1.48.55,1.46,3.38Z"></path>
      <path id="Plus" fill="currentColor" d="m19.7,13.2v1.96c0,1.02-.83,1.85-1.85,1.85h-4.68v4.67c0,1.02-.83,1.85-1.85,1.85h-1.96c-1.02,0-1.85-.83-1.85-1.85v-4.67H2.85c-1.02,0-1.85-.83-1.85-1.85v-1.96c0-1.02.83-1.85,1.85-1.85h4.68v-4.67c0-1.02.83-1.85,1.85-1.85h1.96c1.02,0,1.85.83,1.85,1.85v4.67h4.68c1.02,0,1.85.83,1.85,1.85Z"></path>
      <rect id="Minus" fill="currentColor" x="59.39" y="4.83" width="5.66" height="18.7" rx="2.19" ry="2.19" transform="translate(48.04 76.4) rotate(-90)"></rect>
  </g>
</svg>