<?xml version="1.0" encoding="UTF-8"?>
<svg id="svg10" xmlns="http://www.w3.org/2000/svg" viewBox="0 0 72 116.86">
  <defs>
    <style>
      svg {
        color: green;
      }
    </style>
  </defs>
  <g id="Body">
      <path id="Inside_Body" fill="currentColor" d="m51.71,61.35c.05.74.05,1.58,0,2.32-.22,3.03-1.31,5.94-3.13,8.37-2.6,3.45-6.45,5.69-10.7,6.23-.5.06-1.03.11-1.47.12-.46.01-.62.01-.94,0-1.02-.03-2.04-.15-3.02-.37-2.07-.46-4.04-1.33-5.76-2.55-3.49-2.49-5.81-6.2-6.49-10.4-.14-.86-.2-1.66-.2-2.57s.06-1.7.2-2.56c.41-2.51,1.41-4.87,2.93-6.91,2.6-3.49,6.47-5.75,10.74-6.29,1.81-.23,3.67-.14,5.44.24,2.48.55,4.78,1.67,6.74,3.31,3.33,2.77,5.37,6.75,5.68,11.04Z"></path>
      <path id="Outside_Body" d="m71.6,51.5c-1.13.25-7.55,1.33-7.6,1.28-.16-.16-.59-3.22-.46-3.33.08-.07,1.92-.43,4.08-.8,2.17-.37,4.04-.72,4.16-.77.27-.1.31-1.48.04-1.48-.1,0-1.99.32-4.2.72-2.21.39-4.14.72-4.29.72-.17,0-.28-.16-.28-.42,0-.41.13-.44,4.43-1.21l4.43-.79.06-1.15c.08-1.75-.45-3.23-1.98-5.52-1.72-2.56-2.92-3.76-4.6-4.58-1.63-.8-2.05-.88-7.15-1.39-3.33-.33-4.19-.37-5.01-.19-.75.16-2.08.86-5.56,2.96-5.43,3.27-5.63,3.38-7.58,3.95-1.97.57-4.11.74-5.94.46-2.78-.42-3.95-.95-9.31-4.17-4.06-2.45-5.2-3.06-6.02-3.21-.8-.15-1.81-.11-4.92.2-4.88.49-5.58.62-7.15,1.37-1.64.78-2.76,1.9-4.51,4.52-1.5,2.25-1.93,3.36-2.13,5.48-.1,1.12-.09,1.17.32,1.27.57.13,8.44,1.53,8.62,1.53.07,0,.14.2.14.45s-.1.45-.23.45-2.04-.32-4.25-.71c-2.21-.39-4.16-.72-4.33-.72-.24,0-.31.15-.31.7,0,.82-.5.66,4.65,1.56,2.12.37,3.91.73,3.99.8.13.11-.3,3.16-.46,3.33-.03.03-1.63-.22-3.54-.56-1.91-.34-3.74-.66-4.06-.72-.68-.12-.7-.03-.3,1.33.19.65.52,1.19,1.06,1.73.73.73.77.82.61,1.37-.1.32-.38,1.55-.63,2.74-.59,2.8-.79,7.95-.38,9.75.15.64.48,2.11.73,3.26l.47,2.1-.62,2.56c-.92,3.78-1.36,6.56-1.47,9.28l-.1,2.43.5.39h0c.56.44.79.47,1.41.19.63-.29.79-.85.89-3.2.1-2.22.7-5.75,1.58-9.31l.55-2.24-.32-1.61c-.17-.89-.51-2.38-.74-3.31-.69-2.79-.59-6.24.31-10.49l.39-1.86,1.81.97c2.01,1.08,3.03,1.85,3.4,2.57.14.26.62,2.01,1.08,3.88.96,3.91,1.25,4.6,2.81,6.79.63.88,1.11,1.72,1.08,1.88-.03.16-.42,1.41-.87,2.79-.63,1.96-.97,3.53-1.57,7.25-.49,3.03-.71,4.88-.62,5.13.17.46.84.96,1.27.96.17,0,.51-.18.77-.4.42-.37.51-.75,1.17-4.88.62-3.93,1.67-8.33,1.97-8.32.15,0,2.25,3.06,2.65,3.85.51,1.02.72,1.88,1.1,4.64.4,2.89.7,3.57,1.9,4.31l.86.54,12.18.05c12.98.06,13.29.04,14.4-.81.85-.64,1.19-1.59,1.53-4.17.34-2.64.68-3.92,1.31-5,.47-.81,2.19-3.23,2.3-3.23.03,0,.3.79.6,1.75.31,1.01.85,3.68,1.27,6.31.67,4.19.76,4.59,1.18,4.96.51.45.76.49,1.39.2.89-.41.89-.69.03-5.94-.62-3.78-.98-5.43-1.61-7.37-.44-1.37-.81-2.56-.81-2.64s.49-.8,1.09-1.61c1.6-2.16,2.03-3.15,2.93-6.79.9-3.63,1.19-4.41,1.82-5.01.61-.58,4.07-2.48,4.22-2.33.19.19.79,3.22,1.04,5.29.26,2.14.12,5.36-.29,6.71-.16.53-.48,1.86-.7,2.94-.4,1.96-.41,1.98-.08,3.24.98,3.76,1.73,8.07,1.89,10.89.13,2.3.34,2.7,1.4,2.7.5,0,.77-.11,1.03-.44.33-.4.35-.61.25-2.5-.14-2.51-.63-5.61-1.49-9.34l-.65-2.81.49-2.12c.95-4.1,1.02-4.64.93-7.4-.09-2.48-.49-5.27-1.1-7.6-.26-1.01-.26-1.08.04-1.3,1.23-.88,2.01-2.13,2.02-3.23,0-.51-.04-.57-.4-.5Zm-16.25,19.35c-.39.92-.9,1.9-1.42,2.73-2.31,3.75-5.7,6.68-9.73,8.41-2.63,1.13-5.5,1.71-8.4,1.7-.23,0-.52,0-.65,0-.66-.02-1.31-.07-1.98-.16-3.22-.41-6.3-1.55-9.02-3.35-2.95-1.96-5.37-4.62-7.03-7.77-.27-.5-.59-1.19-.82-1.73-1.34-3.21-1.87-6.74-1.53-10.24.34-3.45,1.5-6.73,3.42-9.62,2.48-3.74,6.08-6.59,10.27-8.16,3.2-1.19,6.69-1.59,10.12-1.15,2.9.37,5.67,1.34,8.19,2.85,2.47,1.48,4.64,3.49,6.32,5.85,1.09,1.52,1.97,3.17,2.62,4.93.88,2.35,1.32,4.85,1.32,7.39,0,2.88-.58,5.72-1.7,8.34Z"></path>
    </g>
    <path id="Plus" d="m46.89,61.89c-.23-.96-1-1.73-1.96-1.96-.3-.07-.01-.06-3.37-.07h-3.04v-2.99c0-2.6,0-3-.02-3.12-.12-1.01-.81-1.87-1.77-2.2-.29-.1-.51-.14-.86-.14s-.57.03-.86.14c-.96.33-1.66,1.19-1.77,2.2-.01.12-.02.52-.02,3.12v2.98h-3.04c-3.36,0-3.08,0-3.37.07-.96.23-1.73,1-1.96,1.96-.05.23-.07.34-.07.62,0,.35.03.57.14.86.33.96,1.19,1.66,2.2,1.77.12.01.52.02,3.12.02h2.98v2.99c0,2.6,0,3,.02,3.12.14,1.17,1.04,2.12,2.21,2.3.07.01.15.02.18.03.03,0,.16,0,.29,0,.33,0,.54-.04.82-.14.96-.33,1.65-1.19,1.76-2.19.01-.12.02-.53.02-3.12v-2.99h2.99c2.6,0,3,0,3.12-.02,1.1-.13,2.01-.94,2.27-2.02.05-.21.06-.33.06-.61s-.01-.39-.06-.62Zm0,0c-.23-.96-1-1.73-1.96-1.96-.3-.07-.01-.06-3.37-.07h-3.04v-2.99c0-2.6,0-3-.02-3.12-.12-1.01-.81-1.87-1.77-2.2-.29-.1-.51-.14-.86-.14s-.57.03-.86.14c-.96.33-1.66,1.19-1.77,2.2-.01.12-.02.52-.02,3.12v2.98h-3.04c-3.36,0-3.08,0-3.37.07-.96.23-1.73,1-1.96,1.96-.05.23-.07.34-.07.62,0,.35.03.57.14.86.33.96,1.19,1.66,2.2,1.77.12.01.52.02,3.12.02h2.98v2.99c0,2.6,0,3,.02,3.12.14,1.17,1.04,2.12,2.21,2.3.07.01.15.02.18.03.03,0,.16,0,.29,0,.33,0,.54-.04.82-.14.96-.33,1.65-1.19,1.76-2.19.01-.12.02-.53.02-3.12v-2.99h2.99c2.6,0,3,0,3.12-.02,1.1-.13,2.01-.94,2.27-2.02.05-.21.06-.33.06-.61s-.01-.39-.06-.62Zm0,0c-.23-.96-1-1.73-1.96-1.96-.3-.07-.01-.06-3.37-.07h-3.04v-2.99c0-2.6,0-3-.02-3.12-.12-1.01-.81-1.87-1.77-2.2-.29-.1-.51-.14-.86-.14s-.57.03-.86.14c-.96.33-1.66,1.19-1.77,2.2-.01.12-.02.52-.02,3.12v2.98h-3.04c-3.36,0-3.08,0-3.37.07-.96.23-1.73,1-1.96,1.96-.05.23-.07.34-.07.62,0,.35.03.57.14.86.33.96,1.19,1.66,2.2,1.77.12.01.52.02,3.12.02h2.98v2.99c0,2.6,0,3,.02,3.12.14,1.17,1.04,2.12,2.21,2.3.07.01.15.02.18.03.03,0,.16,0,.29,0,.33,0,.54-.04.82-.14.96-.33,1.65-1.19,1.76-2.19.01-.12.02-.53.02-3.12v-2.99h2.99c2.6,0,3,0,3.12-.02,1.1-.13,2.01-.94,2.27-2.02.05-.21.06-.33.06-.61s-.01-.39-.06-.62Z"></path>
    <path id="Helmet" fill="currentColor" d="m49.19,10.29c-.84-3.98-3.53-7.48-7.14-9.26-.9-.45-1.94-.86-2.31-.92l-.67-.11v6.59c0,8.12.29,7.42-3.05,7.42-1.97,0-2.33-.05-2.7-.34l-.42-.34-.05-6.64c-.04-5.64-.09-6.64-.31-6.64-.49,0-2.64.9-3.7,1.54-2.2,1.33-4.27,3.68-5.32,6-1.41,3.15-1.54,5.88-.75,15.8.59,7.41.66,7.78,1.69,8.99.63.75,5.49,3.54,7.14,4.1.72.24,1.83.51,2.46.59,3.47.45,6.04-.18,9.91-2.44,4.54-2.64,4.3-2.17,4.96-9.97.58-6.85.68-12.37.26-14.38Zm-20.28,21.25c-.36-.03-2.05-1.15-2.24-1.49-.25-.45-.47-2.8-.26-2.8.41,0,1.85.43,2.03.6.17.17.61,2.69.61,3.47,0,.12-.06.22-.13.21Zm5.86,2.34h-.49c-.57-.03-2.21-.5-2.44-.71-.16-.15-.82-4.48-.71-4.68.03-.06.64.03,1.36.21.71.18,1.52.37,1.79.43l.49.11v4.65Zm5.3-.73c-.11.09-.63.29-1.17.45-1.71.51-1.62.63-1.62-2.13,0-2.39,0-2.42.4-2.42.22,0,1-.16,1.74-.35.73-.19,1.37-.32,1.41-.28.14.14-.57,4.57-.75,4.73Zm5.04-3.03c-.12.19-.62.57-1.12.85-.49.27-.97.53-1.05.56-.08.03-.1-.21-.05-.54.05-.33.18-1.2.29-1.93.11-.73.21-1.35.23-1.36.09-.06,1.74-.44,1.93-.44.27,0,.08,2.35-.23,2.86Zm.89-8.22l-.23,2.75-4.03,1.04c-5.73,1.48-5.82,1.48-11.28.12-2.41-.6-4.4-1.1-4.41-1.12-.08-.1-.44-5.53-.37-5.6.05-.05.64.08,1.31.28,2.72.81,4.4.99,8.92.99,4.52,0,6.45-.22,9.01-1.01.63-.19,1.17-.32,1.21-.28s-.03,1.31-.15,2.83Z"></path>
</svg>