<?xml version="1.0" encoding="UTF-8"?>
<svg id="Layer_1" data-name="Layer 1" xmlns="http://www.w3.org/2000/svg" viewBox="0 0 72 94.98">
  <defs>
    <style>
     svg {
        color: green;
      }
    </style>
  </defs>
  <rect id="Background" fill="currentColor" x="6.13" y="8.58" width="59.75" height="63.63"/>
  <path d="m35.91,94.98c-.67-1.23-1.28-2.34-1.89-3.46-1.47-2.71-2.97-5.42-4.4-8.15-.3-.57-.65-.74-1.26-.74-4.03.02-8.06-.04-12.09.02-5.33.09-9.41-2.22-12.53-6.37C1.28,73.02.05,69.27.04,65.19,0,49.46,0,33.73,0,18.01c0-5.28,1.73-9.92,5.5-13.68C8.29,1.57,11.64.02,15.6.02,29.2,0,42.79-.01,56.38.02c4.83.01,8.61,2.23,11.55,5.94,2.78,3.52,4.04,7.59,4.04,12.05,0,15.79.08,31.58-.07,47.37-.06,6.21-2.67,11.36-7.91,14.94-2.39,1.63-5.07,2.37-7.98,2.33-4.22-.05-8.44,0-12.65-.02-.56,0-.85.2-1.11.69-1.97,3.68-3.97,7.34-5.97,11.01-.1.18-.21.36-.38.66Zm8.76-49.16v-6.67h5.78v-6.81h-5.76v-6.32h5.75v-6.82h-5.83v-6.62h-5.88v6.59h-5.53v-6.57h-5.9v6.63h-5.79v6.79h5.77v6.34h-5.75v6.8h5.79v6.65h5.94v-6.62h5.49v6.63h5.91Zm-8.58,24.29c3.7.11,7.35-.45,10.84-1.85,7.17-2.87,12.33-7.96,16.05-14.63.49-.88.72-1.82.71-2.82,0-1.41-.64-2.44-1.89-3.07-1.23-.61-2.44-.43-3.45.43-.65.56-1.24,1.25-1.68,1.99-1.94,3.28-4.53,5.94-7.68,8.04-4.91,3.28-10.27,4.95-16.19,3.92-7.53-1.31-13.27-5.37-17.36-11.81-.53-.83-1.16-1.67-1.93-2.26-1.79-1.37-4.24-.52-4.98,1.61-.46,1.32-.19,2.58.42,3.75,2.42,4.63,5.76,8.48,10.01,11.52,5.1,3.64,10.8,5.34,17.12,5.17Z"/>
  <path d="m38.69,32.33h-5.41v-6.23h5.41v6.23Z"/>
</svg>