<?xml version="1.0" encoding="UTF-8"?>
<svg id="Icon-Add-Drop" xmlns="http://www.w3.org/2000/svg" viewBox="0 0 87.98 72">
  <defs>
    <style>
      svg {
        color: green;
      }
    </style>
  </defs>
  <g id="Player">
      <path id="Bottom_of_Jersey" d="m63.64,71.84c0,.07.09.08.08.15-12.67.01-25.34.01-38.01,0v-.08l37.93-.08Z"></path>
      <path id="Arm_Outline_Bottom" d="m28.71,55.94c.18-.02.73.23.77.23-.52.62-1,1.33-1.04,2.15,2.17.55,4.38.93,6.6,1.15.32.68-.63.52.38,1.07.68.37,5.92,2.73,7.22,3.3,2.62,1.15,10.17,4.3,12.52,4.91,2.86.74,5.85.88,8.79.61,0,.82-.23,1.65-.31,2.46l-37.93.08-.38-2.46c1.99.04,4.02.68,6.03.84,4.16.34,9.6-.02,13.28-2-3.22-.7-5.24-2.81-7.72-4.68-3.09-2.35-5.11-3.94-9.1-4.91-3.32-.53-5.53-.72-.54-.77.21-.45.92-1.93,1.42-2Z"></path>
      <path id="V-Neck" fill="currentColor" d="m59.72,34.83c-5.88,2.36-10.38,7.02-15.62,10.44-4.86-3.51-8.95-8.38-14.7-10.44,1.96.3,3.85.42,5.83.46,2.12,3.35,5.78,5.6,8.87,7.99,3.68-2.29,7.5-4.57,10.25-7.99,1.82-.03,3.58-.19,5.37-.46Z"></path>
      <path id="Left_Arm" fill="#AB6634" d="m44.64,68.31c-3.69,1.97-9.12,2.34-13.29,1.99-2-.16-4.04-.8-6.02-.84-.02-.23-.98-.32-1.35-.38-1.04-.17-6.37-.56-6.68-.7-.24-.17-.18-.29-.19-.3-.46-.43-1-1.64-1.23-2.27-1.57-4.21-1.31-6.9-1.53-10.79.4-4.55,4.65-5.81,8.63-5.29,1.45.19,2.65.74,3.65,1.8.23.24,1.36,1.8,1.46,2.04.26.6.35,1.7.61,2.38-.5.06-1.2,1.54-1.42,1.99-4.99.05-2.78.24.54.77,2.74.67,4.55,1.63,6.42,2.93.34.24.68.49,1.03.74.18.13.35.27.53.4.36.27.73.55,1.12.85.48.36.94.74,1.4,1.1,1.91,1.53,3.72,3.02,6.32,3.58Z"></path>
      <path id="Right_Arm" fill="#AB6634" d="m74.93,58.75c-.17,1.75-1.92,9.23-3.73,9.71-2.31.06-5.07.73-7.25.92-2.94.27-5.93.13-8.79-.61-2.35-.61-9.9-3.76-12.52-4.92-1.3-.57-6.54-2.92-7.22-3.3-1.01-.56-.06-.39-.38-1.07-2.23-.22-4.44-.61-6.6-1.15.04-.83.51-1.53,1.03-2.15.08,0,.21.03.37.06.24.05.56.14.93.24.18.05.38.11.58.16.2.06.42.11.63.17.43.11.88.23,1.3.33.27.06.53.12.78.16.09.02.17.03.25.04.16.03.31.05.45.06.14.01.27.02.38.02.07,0,.15,0,.21-.01.52-.05,1.05-.11,1.57-.18.02.01.03,0,.04,0,3.65-.47,7.34-1.34,10.98-1.74,3.54-.4,7.57-2.64,10.25-1.85l1,1.04q-.06.06-.12.11c-4.51.95-9.03,1.88-13.59,2.61q8.68-.19,17.35-.38c.67.11,1.34.11,2,.23,1.12.21,4.83,1.64,1.61-.08-1.53-.81-3.05-.98-4.76-1.15-.17-.08-1.03-1.9-2.34-2.57,2.83-5.26,15.46-5.98,15.67,1.73-.09,1.18.03,2.38-.08,3.57Z"></path>
      <path id="Upper_Jersey" d="m71.32,34.29c-.22.16-.45.33-.67.52-.22.18-.44.38-.66.58-.22.21-.44.43-.65.66-.22.22-.43.46-.65.71-.28.33-.57.68-.85,1.03-.28.36-.55.73-.83,1.12-.27.38-.54.77-.81,1.18-.4.6-.79,1.22-1.19,1.85h0c-.19.32-.39.64-.58.97-.38.64-.75,1.29-1.12,1.94-.31.54-.61,1.08-.9,1.62-.23.43-.46.85-.69,1.27-.23.42-.45.83-.67,1.24-.33.61-.65,1.2-.96,1.76s-.61,1.1-.9,1.6c.01.54-.63,1.28-1,1.3-2.62.08-5.71,1.45-9.25,1.85-3.66.4-8.12,1.27-11.98,1.74-.01,0-.02.01-.04,0-.52.07-1.05.13-1.57.18-.06.01-.14.01-.21.01-.12,0-.25-.01-.38-.02-.15-.01-.3-.03-.45-.06-.08-.01-.16-.02-.25-.04-.25-.04-.51-.1-.78-.16-.42-.1-.87-.22-1.3-.33-.21-.06-.43-.11-.63-.17-.2-.05-.4-.11-.58-.16-.37-.1-.69-.18-.93-.24-.16-.03-.29-.06-.37-.06-.04-.01-.58-.26-.77-.23-.26-.68-.35-1.78-.61-2.38,0-.07.07-.08.08-.16-1.46-3.7-.62-5.12-3-9.56-1.11-2.07-5.24-8.03-7.22-9.48,1.97-.7,6.34-1.01,8.14.08-.34-.65,2.02.18,3.31.38,5.75,2.06,9.84,6.93,14.7,10.44.43-.28.85-.57,1.27-.86,1.5-1.05,2.96-2.19,4.42-3.32.7-.54,1.41-1.08,2.12-1.61.37-.28.74-.55,1.11-.81.5-.37,1.01-.72,1.53-1.06.66-.44,1.32-.85,2-1.23.34-.2.68-.38,1.03-.56.34-.18.7-.36,1.05-.52.36-.17.72-.32,1.09-.47h.01c1.05-.16,2.57-.63,3.41-.69.43-.03.71-.13.5.23,2.39-.85,5.3-.86,7.68-.08Z"></path>
      <path id="Right_Sleeve" fill="currentColor" d="m75.47,53.3c-.06.08.12.47-.16.42.66-6.51-9.61-6.25-13.47-4.22.16-.39.98-1.45,1.25-1.69h.01c1.55-1.3,4.67-2,6.65-1.92,1.55.06,5.06.92,5.87,2.38.47.85.68,4.1.23,4.87-.05.09-.35.1-.38.16Z"></path>
      <path id="Right_Shoulder" d="m75.62,48.27c-.81-1.46-4.32-2.32-5.87-2.38-1.98-.08-5.1.62-6.65,1.92h-.01c-.06,0-.08-.06-.06-.12.13-.52,4.39-8.52,4.99-9.44.53-.82,1.44-2.15,2.19-2.73.62-.48,1.59-.75,1.65-1.07,4.83,2.02,8.24,9.94,3.76,13.82Z"></path>
      <path id="Left_Shoulder" d="m26.52,50.19c-.05,0-.31-.36-.35-.39-2.08-3.71-7.67-4.47-11.17-2.53-.26.14-1.22.85-1.35,1.07-4.17-4.16-1.22-11.39,3.61-13.66,3.31,2.01,8.9,11.63,9.26,15.51Z"></path>
      <path id="Left_Sleeve" fill="currentColor" d="m26.17,49.8c-3.14-2.37-12.62-2.16-12.13,3.77-.54.05.12-.74-.54-.96.05-.9-.22-3.6.15-4.27.13-.22,1.09-.93,1.35-1.07,3.5-1.94,9.09-1.18,11.17,2.53Z"></path>
      <path id="Main_Helmet" d="m42.68.2c-.19,3.88-.44,7.79-.19,11.67l4.42-.12c0-3.84.05-7.69-.38-11.52.19-.12.36.02.54.04,7.23.76,11.61,6.96,11.36,13.97-2.12.85-.94,1.62-1,2.15,0,.08-.36.64-.54.61-1.28-.97-5.03-1.61-6.68-1.77-.44-1.44.05-3.06-1.88-3.3-.38-.05-7.31-.09-7.68,0-.99.25-1.1,2.5-1.11,3.3-.82.07-3.76.5-4.49.69-1.02.27-2.46,1.13-3.03,1.23.08-.18.06-.35.08-.54.06-.53.06-1.05.15-1.57l-1.23-.88c-.08-7.51,4.11-12.92,11.67-13.97Z"></path>
      <path id="Left_Snap" fill="currentColor" d="m32.24,15.06c-.1.52-.1,1.05-.15,1.57-.02.18,0,.36-.08.54-.08.01-.09.08-.15.08-.5.01-.94-.19-1.42-.23-.26-.18-.16-.3-.19-.46-.22-1.18-.18-1.7.77-2.38q.61.44,1.23.88Z"></path>
      <path id="Right_Snap" fill="currentColor" d="m59.11,16.86l-1.84.46c-.06-.07-.29-.23-.38-.31.18.03.53-.53.54-.61.06-.53-1.12-1.3,1-2.15,1.3.94.84.95.69,2.61Z"></path>
      <path id="Left_Eye" d="m43.3,21.43c-1.37.53-1.72,1.58-3.19.35q-.25.02-.5.04c.45-.11,1.61-.55,1.88-.58.18-.02,1.79.02,1.8.19Z"></path>
      <path id="Left_Eyebrow" d="m43.99,20.97c-.7.05-5.31.29-5.57.19-.66-.26,1.72-1.1,2.15-1.15.77-.1,3.55-.13,3.42.96Z"></path>
      <path id="Nose" d="m45.33,26.54c-.48,2.06-.56.09-.69,0-.09-.06-1.95-.17-2.03-.5-.06-.23.31-.55.5-.58.21-.04,4.13.02,4.3.15.94.73-1.68.95-2.07.92Z"></path>
      <path id="Right_Eye" d="m47.02,21.39c.4.13,3.03-.02,3.8,0,.13.6-1.23.28-1.57.38-.24.08-.33.89-1.23.69-.26-.06-.64-.75-1.46-.77-.26-.34-.77-1.06-.31-1.46,1.06-.91,7.28.46,4.34.92-.6.09-2.75,0-3.65.08-.08.02.04.14.08.15Z"></path>
      <path id="Facemask" fill="currentColor" d="m57.27,17.32c-.07-.07-.28-.22-.38-.3h-.01c-1.27-.98-5.03-1.61-6.68-1.77-2.29-.22-8.34-.2-10.67,0-.82.07-3.76.5-4.49.69-1.02.27-2.46,1.13-3.03,1.23-.08.01-.09.08-.16.08.12.35-.38,1.15-.53,1.72-1.87,6.72.97,6.69,1.07,7.07-.5,5.18,2.57,4.85,3.07,5.37.38.95.84,1.89,1.54,2.65,1.08,1.19,3.03,2.31,4.64,2.46.63,2.03,4.16,2.47,5.6,1.04.13-.13.24-.27.33-.43.04-.06.07-.14.1-.21.03-.07.06-.15.08-.22.01-.04.03-.07.04-.1,1.82-.23,3.42-1.27,4.56-2.69.57-.71,1.02-1.52,1.39-2.34.33-.4,2.02-.7,2.76-1.85.62-.95.63-2.59.46-3.68.03-.13,1.32-.73,1.61-1.69.41-1.36-.35-5.92-1.3-7.03Zm-16.4,11.14l.12,2.88q-1.17-.1-2.34-.19l-1.46-3.38c1.18.42,2.45.48,3.68.69Zm-7.64-8.95c0-.15-.02-.25.12-.34q1.04,3.68,2.07,7.37c-.46-.84-2.17-6.66-2.19-7.03Zm2.35,7.87c.18-.07.79,2.99,1.03,3.27-.16.91-1.21-3.2-1.03-3.27Zm1.15,4.23c.33-.08.75,1.23.84,1.53-.22-.18-1.14-1.47-.84-1.53Zm2.95,1.84c-.32-.16-1.45-1.11-1.57-1.54q1.46.19,2.92.39c.13.08.23,1.18.27,1.42.02.17-.16.1-.16.11,0,.08.31.31.31,1.5-1.64-.29-2.28-.41-1.77-1.88Zm2.46.53c-.02-.22-.2-1.54-.11-1.61,2.88.01,2.15-.24,2.26,1.69.03.53.07,1.05.08,1.58-2.35.09-2.04.25-2.23-1.66Zm-.31-2.64q.06-1.41.12-2.81,1.21.1,2.42.2-.06,1.4-.12,2.8-1.21-.1-2.42-.19Zm1.44,5.23c.07-.02,2.94,0,3.01-.03.26,1.45-2.77,1.43-3.01.03Zm3.94-2.66c-.02.29,0,1.45-.08,1.65-2.31.5-1.86.33-1.92-1.5-.02-.51-.14-1.05-.07-1.57,3.03-.39,2.16-.05,2.07,1.42Zm.23-2.57q-1.1.09-2.19.19-.06-1.4-.11-2.8c.04-.1,1.67-.2,1.88-.2.18.01.37-.06.5.12q-.04,1.34-.08,2.69Zm-9.06-4.11c-.29-1.52-.73-3.04-.92-4.57-.15-1.18-.09-2.39-.23-3.57,2.67-.23,1.74.55,2.19.69.17.06,3.1-.47,3.6-.54.09-.01-.03-.25,1.69-.3,2.81-.1,4.23.72,4.46.69.21-.03.16-.35.23-.39.21-.11,2.24.2,2.72.16,0,.03.12.15.08.73-.17,2.3-.49,4.6-.92,6.87-2.48.81-10.51,1.02-12.9.23Zm13.47,5.76c-.91-.46-1.2.56-2.34.84,0,.33-.93,2.02-1.42,1.69-.15-.1.1-1.52.12-1.77.02-.25-.1-1.44.11-1.53,1.5.04,2.97-.38,4.42-.58q-.44.68-.89,1.35Zm.5-3.8c-.87,2.32-1.74,2.09-4.07,2.07q.06-1.44.12-2.88c1.34.07,3.57-.7,4.15-.77.06-.01.23-.02.26.04-.21.49-.27,1.04-.46,1.54Zm.5,1.65q.42-1.35.85-2.69c.23.04-.7,2.74-.85,2.69Zm2.5-8.41c-.11.42-1.13,4.24-1.5,4.03q1-3.65,2-7.29c.49-.34-.45,3.05-.5,3.26Z"></path>
      <path d="m49.98,17.24c.26.07.12-.43.15-1,1.99.22,6.2.64,7.06,2.57-2.29-1.03-4.74-1.36-7.22-1.57Z"></path>
      <path id="Left_Bottom_Helmet" d="m39.46,16.32v.92c-2.42.18-4.91.39-7.1,1.54l-.12-.12c1.59-2.05,4.83-2.09,7.22-2.34Z"></path>
      <path id="Left_Mid_Helmet" d="m39.46,17.24v-.92s.05-.15.12-.15c1.68-.17,3.38-.11,5.07-.23.15.06.15.99.12,1.04-.16.21-3.74.15-5.3.27Z"></path>
      <path id="Right_Mid_Helmet" d="m50.13,16.25c-.03.57.11,1.07-.15,1-1.78-.15-4.16-.03-4.34-.15-.1-.07,0-.86-.04-1.04,1.52-.18,3.03.03,4.53.19Z"></path>
      <path id="Right_Face_Pad" d="m51.82,26.88c-.23.18-.46.09-.54.12.43-2.27.75-4.57.92-6.87.04-.57-.08-.69-.08-.73.03-.37.16-.78.19-1.15.46,2.86-.05,5.8-.5,8.64Z"></path>
      <path id="Left_Face_Pad" d="m38.38,27.23c-.18-.06-.37-.09-.54-.19-.53-2.84-1.26-5.84-.73-8.72.19.24.08.51.12.77.14,1.18.08,2.39.23,3.57.19,1.53.63,3.05.92,4.57Z"></path>
      <path id="Left_Eye-2" d="m43.3,21.43c-1.37.53-1.72,1.58-3.19.35q-.25.02-.5.04c.45-.11,1.61-.55,1.88-.58.18-.02,1.79.02,1.8.19Z"></path>
      <path id="Left_Eyebrow-2" d="m43.99,20.97c-.7.05-5.31.29-5.57.19-.66-.26,1.72-1.1,2.15-1.15.77-.1,3.55-.13,3.42.96Z"></path>
      <path id="Nose-2" d="m45.33,26.54c-.48,2.06-.56.09-.69,0-.09-.06-1.95-.17-2.03-.5-.06-.23.31-.55.5-.58.21-.04,4.13.02,4.3.15.94.73-1.68.95-2.07.92Z"></path>
      <path id="Right_Eye-2" d="m47.02,21.39c.4.13,3.03-.02,3.8,0,.13.6-1.23.28-1.57.38-.24.08-.33.89-1.23.69-.26-.06-.64-.75-1.46-.77-.26-.34-.77-1.06-.31-1.46,1.06-.91,7.28.46,4.34.92-.6.09-2.75,0-3.65.08-.08.02.04.14.08.15Z"></path>
      <path id="Helmet_Stripe" fill="currentColor" d="m47.06.28c-.18-.02-.35-.16-.54-.04.44,3.83.39,7.68.38,11.52l-4.42.12c-.25-3.88,0-7.79.19-11.67,0,0-.03-.15.04-.15.62-.08,3.79-.05,4.3.08.06.01.04.1.04.15Z"></path>
      <path id="Mid_Helmet" d="m48.32,11.95c-.38-.05-7.3-.09-7.68,0-.99.24-1.1,2.5-1.11,3.3,2.33-.2,8.38-.22,10.67,0-.44-1.44.06-3.06-1.88-3.3Zm-7.02,3.07c-.83.29-1.47-1.71-.16-1.92,1.21-.19.92,1.65.16,1.92Zm7.25,0c-.79.1-1.32-1.76-.23-1.92,1.3-.19.96,1.82.23,1.92Z"></path>
      <path id="Left_Dot" fill="currentColor" d="m41.3,15.02c-.83.29-1.46-1.71-.15-1.92,1.21-.19.92,1.65.15,1.92Z"></path>
      <path id="Right_Dot" fill="currentColor" d="m48.56,15.02c-.8.1-1.32-1.76-.23-1.92,1.29-.2.96,1.82.23,1.92Z"></path>
      <path id="Plus" fill="currentColor" d="m14.94,30.75c1.83-.34,3.31-1.85,3.61-3.69.06-.34.1-1.85.1-3.36v-2.74h2.96c3.91,0,4.45-.14,5.7-1.49,2.21-2.39,1.01-6.22-2.22-7.08-.38-.1-1.36-.14-3.48-.14h-2.95s0-2.79,0-2.79c0-3.9-.2-4.67-1.5-5.88-.89-.83-1.55-1.06-2.96-1.06-1.2,0-1.68.14-2.6.78-.6.41-1.3,1.41-1.55,2.22-.19.62-.21.99-.21,3.71v3.02h-2.96c-3.22,0-3.78.07-4.69.61C.66,13.74-.22,15.57.05,17.27c.3,1.88,1.72,3.34,3.61,3.7.31.06,1.82.11,3.36.11h2.8v2.97c0,2.65.02,3.04.21,3.65.49,1.59,1.68,2.67,3.3,3.03.75.16.92.17,1.61.04h0Z"></path>
      <path id="Minus" fill="currentColor" d="m85.41,20.9c.46-.18.81-.44,1.35-.98.98-.98,1.22-1.56,1.22-3,0-.99-.01-1.07-.38-1.82-.63-1.27-1.7-2.08-3.11-2.34-.79-.14-19.4-.16-20.28-.01-1.87.31-3.28,1.7-3.6,3.57-.35,2.05,1.14,4.28,3.18,4.76.23.06,4.72.09,10.7.08l10.3-.02.62-.25Z"></path>
    </g>
    </svg>