<?xml version="1.0" encoding="utf-8"?>
<svg id="Keeper" xmlns="http://www.w3.org/2000/svg" viewBox="0 0 99.4 72">
 <defs>
    <style>
      svg {
        color: green;
      }
    </style>
  </defs>
<g>
	<path id="F-Body" d="M24.9,71.7c-1.2-0.4-2.2-1.4-2.6-2.7c-0.3-1.1-0.4-4.2-0.1-6.9c0.7-6.6,2.5-11.4,6.2-16.3
		c4.9-6.5,9.6-9.7,16.4-11c2.5-0.5,7.7-0.4,10.2,0.1c4.2,0.9,8.5,3.2,11.2,6l0.8,0.9l-2.7,2.8c-1.5,1.6-3.6,3.8-4.7,4.9l-2,2.1
		L54.1,48c-4-3.9-4.7-4.5-6.4-4.5c-1.3,0-2.4,0.6-4.3,2.4c-1.9,1.8-2.3,2.7-2.2,4.5c0.1,2,0.7,2.7,7.2,9.4c3.2,3.4,6.3,6.3,6.7,6.6
		c1.8,1.1,3.5,1.1,5.4-0.1c0.4-0.2,3.5-3.4,7-7C71,55.8,73.9,53,74,53c0.3,0.3,1.3,3.8,1.8,6.3c1,4.9,1.1,7.8,0.4,9.4
		c-0.5,1.2-1.5,2.2-2.7,2.8l-1,0.5l-23.3,0C26.7,72,25.9,72,24.9,71.7L24.9,71.7z"/>
	<path id="Check" fill="currentColor" d="M57.2,63.8c-0.4-0.2-4.1-3.9-10.6-10.7c-1.8-1.9-2.2-2.6-1.9-3.5c0.2-0.5,2.7-2.7,3.1-2.7c0.3,0,1.9,1.5,5,4.6
		c3.8,3.8,4.7,4.6,5,4.5c0.2-0.1,5.4-5.4,11.5-11.8s11.5-12,11.9-12.4c0.5-0.5,0.8-0.7,1.1-0.6c0.5,0.2,3.6,3.6,3.6,4
		c0,0.4,0.8-0.4-15.5,16.4c-6.9,7.1-11.9,12.1-12.1,12.2C57.9,64,57.6,64,57.2,63.8z"/>
	<path id="L-Body" fill="currentColor" d="M2.3,52.7c-1.1-0.2-1.9-1.1-2.2-2.4c-0.4-2,0.1-6.9,1.2-10c0.8-2.3,1.6-3.9,3.2-6.1c3.5-4.7,7.3-7.2,12.1-8
		c2.2-0.4,6.1-0.1,8,0.4c3.5,1,6.4,3,8.7,6c1.7,2.2,1.7,2,0.3,3c-4.6,3.2-9.7,9.5-12,14.8c-0.4,1-0.8,2-0.8,2.1
		C20.9,53,3.4,53,2.3,52.7L2.3,52.7z"/>
	<path id="R-Body" fill="currentColor" d="M77.1,51.6c-0.5-1.3-0.5-1.4-0.2-1.7c0.2-0.2,2.8-3,5.9-6.1c4.2-4.4,5.7-6,6-6.6c0.6-1.2,0.6-2.6,0-3.8
		c-0.5-1.1-4.1-4.8-5-5.2c-0.9-0.4-2.4-0.4-3.4,0c-1,0.5-1.3,0.7-9.1,8.9l-2,2.1l-1.3-1.2c-0.7-0.7-1.8-1.6-2.5-2l-1.2-0.8l1-1.3
		c3.2-4.3,7.1-6.7,11.8-7.5c2.2-0.4,6.1-0.1,8,0.4c4.3,1.3,7.8,4.1,10.5,8.5c1.8,3,3.1,7.3,3.7,11.9c0.3,2.7-0.3,4.3-2.1,5.2
		l-0.9,0.4L87,52.9l-9.4,0.1L77.1,51.6z"/>
	<path id="F-Head" d="M46.9,31.8c-5.2-1-9.7-5.6-11.2-11.5c-0.6-2.2-0.6-6.2,0-8.5c1.5-6,6-10.5,11.3-11.5
		c7.3-1.4,14.2,3.6,16.2,11.5c0.6,2.2,0.6,6.2,0,8.5C61.2,28.2,54.2,33.2,46.9,31.8L46.9,31.8z"/>
	<path id="L-Head" fill="currentColor" d="M18.1,24.2c-3.5-0.6-6.4-3.1-7.8-6.7c-2.9-7.5,2-15.8,9.3-15.8c2.7,0,5.1,1.1,7,3.2c4,4.4,4,11.9,0,16.2
		C24.3,23.5,21.1,24.7,18.1,24.2L18.1,24.2z"/>
	<path id="R-Head" fill="currentColor" d="M78.6,24.2c-3.5-0.6-6.4-3.1-7.8-6.7c-2.9-7.5,2-15.8,9.3-15.8c2.7,0,5.1,1.1,7,3.2c4,4.4,4,11.9,0,16.2
		C84.8,23.5,81.6,24.7,78.6,24.2L78.6,24.2z"/>
</g>
</svg>
