<?xml version="1.0" encoding="UTF-8"?>
<svg id="Icon-Auction" xmlns="http://www.w3.org/2000/svg" viewBox="0 0 72.4 72" >
 <defs>
    <style>
      svg {
        color: green;
      }
      </style>
  </defs>
  <path id="Sound_Block_Base" fill="currentColor" d="m2.21,71.97c-1.02-.04-1.89-.11-1.94-.16-.27-.27-.36-3.01-.16-4.88.15-1.42.37-1.88.91-1.99,1.28-.25,4.94-.36,14.68-.41,12.19-.07,20.06.11,22.5.5.82.13.87.35.85,3.87,0,1.63-.04,2.98-.06,3.01-.08.08-34.87.15-36.78.07Z"></path>
    <path d="m61.84,54.91c-2.29-6.89-10.04-10.22-16.59-7.12-.58.27-1.3.67-1.6.87-4.99,3.43-6.73,9.96-4.08,15.32.66,1.34,1.21,2.11,2.28,3.2,1.67,1.7,3.63,2.78,5.99,3.3.8.18,1.32.21,2.87.17,1.64-.04,2.03-.08,2.92-.35,3.43-1.02,6.04-3.2,7.59-6.32,1.35-2.73,1.58-6.15.62-9.07Zm-7.06,10.32c-.85.85-1.8,1.27-3.63,1.62-.31.06-.32.07-.32.98v.92h-1.15v-1.83l-.43-.07c-2.77-.45-4.44-1.7-4.69-3.53-.15-1.09.54-2.21,1.51-2.48.62-.17.84-.16,1.39.09.68.31,1.11.92,1.17,1.66.06.73-.15,1.22-.76,1.76l-.42.38.27.22c.29.24,1.27.57,1.7.57h.27v-1.95c0-1.27.04-1.95.12-1.95.07,0,.32.1.57.23l.45.23v1.72c0,1.69,0,1.72.25,1.72.39,0,1.2-.44,1.52-.82.71-.84.64-1.87-.19-2.66-.29-.28-1.12-.76-2.24-1.3-.98-.47-2.11-1.07-2.51-1.32-1.82-1.15-2.84-3.07-2.64-4.98.25-2.41,1.78-4.22,4.09-4.82l.52-.13.11-1.71.55-.04.55-.03v1.69l.85.13c2.17.34,3.66,1.44,3.97,2.94.3,1.45-.49,2.48-1.92,2.48-1.09,0-1.76-.6-1.84-1.66-.04-.53,0-.73.26-1.22.17-.32.28-.66.25-.75-.08-.22-.77-.5-1.21-.5h-.35v1.72c0,.95-.04,1.72-.09,1.72-.05,0-.29-.12-.55-.26l-.46-.26-.03-1.4c-.04-1.64-.1-1.7-.9-.9-.46.46-.5.55-.5,1.1,0,1.22.46,1.63,3.58,3.18,1.89.94,2.46,1.28,2.94,1.76,1,.98,1.51,2.3,1.51,3.84s-.52,2.85-1.56,3.89Z"></path>
    <path d="m4.78,63.36c-1.21-.06-1.61-.11-1.69-.24-.41-.67-.21-4.91.27-5.57.4-.54,3.65-.69,15.22-.69,10.67,0,15.86.18,17.12.58.4.13.5.79.48,3.36,0,1.35-.04,2.47-.06,2.49-.08.08-29.73.15-31.35.07h0Z"></path>
    <path d="m65.06,54.74c-.88-.88-1.6-1.64-1.6-1.69s1.21-1.3,2.7-2.78l2.7-2.7,1.78,1.77,1.78,1.77-1.46,1.49c-2.27,2.32-3.81,3.74-4.06,3.74-.14,0-.84-.61-1.83-1.6Z"></path>
    <g id="Bang">
      <path fill="currentColor" d="m10.09,53.04c-1.11-1.13-3.44-3.9-4.02-4.78-.51-.76-.56-1.16-.21-1.61.25-.31,1-.76,1.28-.76.48,0,1.53,1.16,3.75,4.13,1.94,2.6,2.03,2.88,1.13,3.55-.74.54-.93.49-1.93-.53Z"></path>
      <path fill="currentColor" d="m24.47,53.71c-1.04-.63-.8-1.42.96-3.11,1.35-1.3,3.86-3.34,4.52-3.67.61-.31.91-.23,1.36.38.46.63.52.9.31,1.32-.28.55-4.15,4.14-5.29,4.92-.67.46-1.29.51-1.86.16h0Z"></path>
      <path fill="currentColor" d="m17.67,51.42c-.65-.17-.91-1.61-.92-4.95,0-1.99.13-3.14.4-3.68.22-.43,1.09-.77,1.49-.59.62.28.82,1.19.99,4.44.13,2.35.08,3.91-.12,4.29-.19.36-1.26.65-1.84.49Z"></path>
    </g>
    <path d="m29.3,40.92c-.63-.2-1.56-.83-2.71-1.84-2.58-2.27-8.47-8.27-9.67-9.86-1.11-1.47-1.32-2.29-.85-3.27.15-.31.79-1.04,1.64-1.87.76-.75,1.42-1.37,1.45-1.37.03,0,3.43,3.37,7.55,7.49l7.49,7.49-1.39,1.41c-1.78,1.81-2.45,2.16-3.5,1.82h0Z"></path>
    <path d="m50.07,39.72c-.3-.24-.87-.8-1.26-1.24l-.71-.8,2.72-2.72,2.72-2.72,1.32,1.33,1.32,1.33-2.52,2.5c-1.39,1.38-2.64,2.56-2.77,2.63-.22.12-.32.08-.8-.31h0Z"></path>
    <g id="Gavel">
      <path fill="currentColor" d="m62.56,50.24c-1.89-1.78-10.12-10.02-10.12-10.13,0-.15,3.35-3.5,3.5-3.5.06,0,2.61,2.5,5.67,5.56l5.56,5.56-1.02,1.07c-1.3,1.37-2.31,2.27-2.54,2.27-.1,0-.57-.37-1.06-.83h0Z"></path>
      <path fill="currentColor" d="m31.65,32.77c-1.98-1.92-5.34-5.24-7.47-7.38l-3.88-3.89,1.66-1.63c1.25-1.23,1.73-1.63,1.95-1.63.18,0,.52.2.9.52.33.28.72.52.85.52.52,0,1.49-.85,5.05-4.41,3.53-3.53,4.41-4.54,4.41-5.03,0-.12-.23-.51-.52-.85-.31-.37-.52-.74-.52-.91,0-.22.41-.7,1.64-1.94l1.64-1.65,7.52,7.52,7.52,7.52-1.61,1.61c-1.92,1.91-1.93,1.91-3.03,1.03-.39-.32-.78-.57-.87-.57-.22,0-1.14.77-2.17,1.83l-.92.93,4.07,4.07,4.07,4.07-1.81,1.81-1.81,1.81-4.07-4.07-4.07-4.07-1.09,1.09c-.6.6-1.23,1.28-1.4,1.52-.36.51-.31.67.41,1.5.67.78.64,1-.3,2.05-.93,1.04-2.16,2.15-2.38,2.15-.09,0-1.78-1.57-3.75-3.49h0Z"></path>
    </g>
    <path d="m51.54,16.3c-1.05-1.01-4.42-4.33-7.47-7.4l-5.56-5.57,1-1.05c1.23-1.3,1.97-1.94,2.45-2.14.83-.35,1.76-.08,3.02.87,1.74,1.31,8.94,8.48,10.57,10.53,1.52,1.91,1.65,2.97.54,4.28-.44.52-2.4,2.3-2.53,2.3-.05,0-.96-.82-2.02-1.83h0Z"></path>
</svg>