<?xml version="1.0" encoding="UTF-8"?>
<svg id="Icon-Add-Drop" xmlns="http://www.w3.org/2000/svg" viewBox="0 0 57.95 72">
  <defs>
    <style>
      svg {
        color: green;
      }
    </style>
  </defs>
  <g id="Player">
      <g id="Body">
        <g id="Arms">
          <path id="Right_Arm" fill="#C89D7C" d="m2.66,46.54l4.42,1.38c.06.22-2.49,1.34-1.99,3.7-.03.07-.68.39-.95.85-.4.68-1.1,4.61-.09,6.08,1.99,2.91,6.56-.31,8.98-1.09,4.88-1.57,9.53-1.2,14.53-1.52,4.33-.27,4.74-1.81,4.32,2.99l-.24.33c-9.56,4.81-13.48,9.66-25.46,10.45-4.28-5.15-6.79-17.15-3.51-23.18Z"></path>
          <path id="Left_Arm" fill="#C89D7C" d="m55.19,46.54c3.4,6.07.81,17.93-3.51,23.18-7-.16-13.3-3.75-19.23-7.17l6.41-3.75c1.17-.19,4.34.51,5.51.95,2.68,1,3.26,2.93,6.55,2.56,3.66-.4,3.46-4.47,1.85-6.89-1.49-2.25-5.28-3.53-7.69-4.56,3-2.32,6.45-3.48,10.12-4.32Z"></path>
          <path id="Right_Hand" fill="currentColor" d="m36,51.77c2.06-.19,15.7,1.3,15.96,4.46-1.25-.7-2.63-1.3-4.04-1.57,1.34.62,3.26,1.82,4.08,3.04,1.21,1.79-.11.23-1.66-.62-.79-.43-1.83-.86-2.71-1.09,1.27.66,3.25,1.91,3.99,3.13,1.37,2.27-.91-.28-2.52-1.19-.29-.17-1.55-.77-1.8-.85-2.69-.89.09.3,1.47,1.95.17.2,1.09,1.36.9,1.47-2.29-1.05-4.55-2.38-7.03-2.94-6.26-1.42-4.98.84-10.26,2.66.48-3.46-1.21-8.01,3.61-8.45Z"></path>
          <path id="Left_Hand" fill="currentColor" d="m17.67,54.9c-4.76.8-9.72,3.56-10.26,3.61-.3.02-2.48-.47-2.61-.9-.46-1.51,1.6-.44,3.61-.76q-1.92-.59-3.85-1.19c-.25-.05.13-1.11.19-1.14.25-.13,4.86.96,5.51,1.14.41-.02.81-.71,1.09-.95-.73-.17-5.92-1-6.13-1.23-.09-.09.33-.93.38-.95.32-.11,5.86,1.19,6.7,1.33.33-.35.64-.72,1-1.04l-6.84-1.23c-.29-.1,0-1,.09-1.04.36-.17,7,1.09,7.79,1.71.67-.31,1.02-.48,1.36-.63-1.07-.18-2.7-.77-3.26-.89-1.28-.27-3.74-.84-5.03-1.04.03-.12.82-1.5.85-1.52.51-.29,7.14,2.17,8.25,3.07.19-.09.41-.19.68-.32,1.04.67,2.05,1.43,2.8,2.42,1.49,1.96.84,1.04-2.33,1.57Z"></path>
        </g>
        <g id="Jersey">
          <path d="m28.69,62.69c4.31,2.33,8.37,5.13,12.97,6.89-6.27,2.86-15.42,3.05-21.99,1.28-.24-.06-3.68-1.2-3.42-1.33.05-.03.62-.07,1.14-.28,4.03-1.68,7.56-4.35,11.3-6.55Z"></path>
          <path d="m11.5,31.06c9.1-.41,9.78,4.77,15.53,10.02l-1.8,1.52c1.83,1.54,1.83-1.12,3.66.43,1.83-1.5,1.83,1.16,3.66-.33l-1.71-1.61c2.03-1.73,5.78-6.78,7.27-7.93,3.43-2.64,9.53-2.57,13.39-.95,4.36,1.83,8.65,7.48,5.22,11.97-5.02.98-10.36,2.26-13.96,6.17-11.69-2.6-11.58,2.96-12.54,3.51-2.09.49-4.23.51-6.36.47-3.62-3.88-8.14-8.07-13.87-7.5-2.86-1.09-5.78-2.13-8.74-2.94-.26-.07-.34.26-.43.14-3.29-7.2,4.03-12.67,10.69-12.97Z"></path>
          <path id="V-Neck" fill="currentColor" d="m24.76,36.2c4.13,5.07,4.84,4.96,8.92-.83.92-1.31,3.38-3.01,4.42-2.84.12.02.16.17.07.25l-2.06,1.92s0,0,0,0c-.51.55-1.01,1.17-1.35,1.59-1.74,2.12-3.5,4.22-5.51,6.09-.2.19-.53.18-.73,0-1.91-1.85-3.61-3.88-5.33-5.91-.34-.4-.62-.72-1.05-1.26,0,0-.01-.01-.02-.02l-2.3-2.07c-.85-1.2,3.01.7,4.94,3.07Z"></path>
        </g>
      </g>
      <g id="Head">
        <path id="Mid_Helmet" fill="currentColor" d="m31.04,13.89c-1.37-.07-2.85-.05-4.22,0q.02-1.12.04-2.23h4.05q.06,1.12.12,2.23Z"></path>
        <path id="Facemask" d="m42.78,23.65s-.29-.12-.25-.34c0-.02.01-.03.02-.05.97-1.09.52-7.04.15-7.92-.18-.36-.45-.49-.74-.7-.03-.02-.55-.27-.66-.33-2.26-1.14-4.84-1.41-7.32-1.74-.76.26,1.51,1.84-2.81,1.57-.17-.12-.11-.25-.12-.25-1.37-.07-2.85-.05-4.22,0-.04,0-.21.22-.7.25-3.89.22-1.15-1.59-2.73-1.57-1.24.02-5.59,1.06-6.74,1.65-.03.02-.48.34-.58.41-.24.17-.53.3-.73.53,0,0-.01.02-.02.02-.34.64-.55,4.74-.49,5.61.17,2.69,1.39,2.23,0,3.1-.19.25,0,.33,0,.41.69.47.7.47,1.36.92.03.02.05.05.05.09.08,4.04-.87,4.63,3.1,6.52,2.14,1.02,4.51,1.68,6.92,1.97,1.35,1.51,3.96,1.55,5.26.04.63-.06,1.26-.16,1.88-.28,1.58-.31,5.01-1.48,6.37-2.32,2.87-1.75,1.98-2.93,1.94-5.94,0-.04.02-.07.05-.09.59-.35.63-.37,1.22-.72.03-.02.05-.06.05-.09,0-.19.11-.03-.24-.77Zm-3.59-6.23c.13-.63.23-1.19.3-1.6.82.21,1.45.4,1.6.55.02.02.03.06.02.09l-1.23,4.98s0,.03-.02.04c-.14.14-.9.38-1.66.59.16-.79.43-2,.68-3.19.11-.5.21-1,.3-1.47Zm-15.15-2.53c.16.07.09.31.22.4.02.01.04.01.06,0,1.34-.3,8.89.2,9.32,0,.2-.09.06-.44.25-.5.21-.07,2.67.35,4.67.8-.17,1.55-.45,4.95-.51,6.52-.64.18-1.26.33-1.47.38-5.01,1.24-10.37,1.24-15.39,0-.15-.04-.69-.19-1.28-.36.02-.23.03-.56.04-1.01,0-.51-.35-3.55-.65-5.52,2-.44,4.47-.84,4.75-.72Zm-7.12,1.37c.28-.12.82-.28,1.48-.44.08.51.17,1.09.27,1.7.11.7.23,1.43.36,2.11h0c.18.98.35,1.87.51,2.41-.62-.18-1.21-.37-1.37-.46-.02-.01-.04-.04-.05-.06-.63-2.56-.63-2.6-1.25-5.13-.01-.05.01-.1.06-.12Zm-1.09,5.81s-.02-.03-.02-.05c-.15-1.44-.13-2.9.12-4.32.02-.11.17-.11.2,0,.41,1.93.45,2.1.92,4.31,0,.03.02.05.04.06.5.34.61,1.68.87,2.52.02.07-.04.14-.11.13-1.19-.17-1.31-1.78-2.02-2.65Zm2.34,7.8c-.07,0-.89-.72-1.09-.92-.02-.02-.03-.05-.03-.07.02-1.6.02-1.65.04-3.2,0-.06.06-.11.12-.1.3.07,1.07.35,1.16.52.15.29.63,3.65-.21,3.77Zm.89-4.77c-.29-.93-.3-.98-.58-1.9-.02-.06.02-.12.08-.13.52-.06,2.82.63,3.19.83,0,0,.02,0,.03,0,4.17.83,10.1,1.19,14.17,0,.06-.02.73-.55,1.17-.35.02,0,.05.01.07,0,.65-.21,1.36-.29,2-.58.07-.03.15.02.14.1-.2,2.57-.89,2.2-3.42,2.72-4.68.97-9.3.92-13.98,0-.95-.19-1.89-.33-2.8-.65-.03,0-.06-.04-.06-.07Zm16.73,1.88s.02-.03.02-.03c.02,0,0,0-.02.03Zm-15.49,3.92c-2.14-.74-.78-.91-.69-1.66.02-.2-.31-2.01-.37-2.73,0-.06.06-.12.12-.1l2.66.55s.03,0,.04.02c-.47.8-1.3,2.71-1.64,3.86-.02.06-.08.09-.13.07Zm16.34.51s-.03.02-.05.02c-.59.14-1.17.32-1.75.49-3.79,1.15-8.03,1.11-11.83,0-.29-.08-1.54-.44-1.84-.65-.04-.03-.05-.07-.04-.12.58-1.69.93-2.83,1.12-3.54.05.06.13.09.2.1,2.67.32,5.36.62,8.05.49.71-.04,4.7-.42,5.15-.84.36,1.24,1.06,2.99,1.02,3.66,0,.02-.01.21-.03.23v.16Zm2.21-1.11c-.52.27-.59.31-1.14.59-.05.03-.11,0-.14-.05-.3-.68-1.27-2.65-1.8-3.77,0,0,0-.01,0-.02,0,0,0,0,0,0,.91-.19,1.81-.43,2.72-.63.06-.01.12.03.12.09.11,1.27-.79,2.68.25,3.64.05.05.04.13-.02.16Zm.99-.48s-.1.02-.13-.02c-.93-1.02-.16-2.44-.15-3.67,0-.03,0-.05.03-.07.18-.17,1.03-.51,1.09-.5.08,0,.16-.03.21.04-.18,2.17.63,3.18-1.04,4.22Zm2-6.95s-.1.04-.14,0c-.03-.04-.08-.08-.11-.13-.05-.06-.14-.04-.17.04-.15.41-.1,1.82-1.33,1.95-.07,0-.13-.06-.11-.13.74-2.26,1.34-4.56,1.86-6.88.02-.1.17-.1.19,0,.31,1.29.24,4.72-.2,5.16Z"></path>
        <path id="Left_Dot" d="m25.78,13.31s-.75.02-.79-.04c-.05-.07-.03-1.65.04-1.7.03-.02.74-.02.79.04.05.07.03,1.65-.04,1.7Z"></path>
        <path id="Right_Dot" d="m32.82,13.31s-.66.02-.7-.04c-.05-.07-.03-1.65.04-1.7.03-.02.66-.02.7.04.05.07.03,1.65-.04,1.7Z"></path>
        <path id="Helmet" fill="currentColor" d="m41.29,14.31c.35-1.27-.26-1.5-1.28-1.99-1.85-.89-4.18-1.17-6.2-1.32-.1-.04-.07-.7-1.99-.58-1.32.7-6.8-.12-7.36.08-.21.07-.19.44-.33.5-.3.13-3.83.16-6.29,1.32-1.11.52-1.34.53-1.2,1.9-.03.02-.48.34-.58.41.08-4.66.36-7.19,3.64-10.63,5.32-5.59,13.87-5.25,18.95.5,3.08,3.49,3.08,5.59,3.31,10.14-.03-.02-.55-.27-.66-.33Z"></path>
      </g>
      <g id="Plus-Minus">
        <path id="Plus" fill="currentColor" d="m20.06,37.96v1.52c0,.79-.64,1.43-1.43,1.43h-3.61v3.61c0,.79-.64,1.43-1.43,1.43h-1.52c-.79,0-1.43-.64-1.43-1.43v-3.61h-3.61c-.79,0-1.43-.64-1.43-1.43v-1.52c0-.79.64-1.43,1.43-1.43h3.61v-3.61c0-.79.64-1.43,1.43-1.43h1.52c.79,0,1.43.64,1.43,1.43v3.61h3.61c.79,0,1.43.64,1.43,1.43Z"></path>
        <rect id="Minus" fill="currentColor" x="43" y="31.49" width="4.37" height="14.45" rx="2.19" ry="2.19" transform="translate(6.47 83.9) rotate(-90)"></rect>
      </g>
    </g>
    </svg>