<?xml version="1.0" encoding="UTF-8"?>
<svg id="Trade" xmlns="http://www.w3.org/2000/svg" viewBox="0 0 92.43 72">
  <defs>
    <style>
       svg {
        color: green;
      }
    </style>
  </defs>
  <path id="Thumb" fill="currentColor" d="m47.94,6.04c3.43.06,6.35.65,9.27,1.25,1.57.32,3.15.66,4.73.88,2.76.37,5.44-.27,8.12-.97.19-.05.37-.11.55-.19.44-.19.7-.06.91.47,3.11,8,6.24,15.99,9.37,23.98.26.67.29,1.22-.07,1.88-.66,1.24-1.25,2.54-1.85,3.82-.88,1.87-2.25,2.62-4.04,2.7-2.65.12-5.01-.77-7.21-2.4-5.58-4.13-11.16-8.27-16.74-12.41-1.15-.86-2.33-1.67-3.46-2.57-.5-.4-.85-.29-1.29.07-1.2.98-2.38,2-3.65,2.84-3.06,2.04-6.36,2.94-9.89,2.41-1.97-.3-3.68-1.32-5.07-2.97-1.23-1.46-1.3-3.94-.04-5.53.77-.97,1.75-1.76,2.73-2.45,1.7-1.19,3.56-2.08,5.2-3.37,2.05-1.62,3.97-3.48,5.9-5.3,1.24-1.18,2.61-1.88,4.2-1.99.92-.06,1.84-.13,2.32-.16Z"/>
  <path d="m57.78,67.55c-.4.75-.72,1.45-1.12,2.08-1.36,2.11-3.22,2.65-5.35,2.25-2.23-.42-4.18-1.64-6.1-2.96-.5-.34-1-.68-1.48-1.06-.12-.1-.26-.38-.22-.51.41-1.26.85-2.5,1.31-3.83.87.61,1.66,1.19,2.48,1.72,1.03.67,2.05,1.35,3.12,1.9.58.3,1.26.37,1.9.51,1.16.26,1.95-1.52,1.82-2.55-.03-.24-.25-.5-.44-.66-3.24-2.83-6.49-5.65-9.74-8.47-.18-.16-.35-.33-.62-.6.96-.88,1.85-1.73,2.78-2.51.12-.1.47.05.65.2,1.91,1.6,3.8,3.24,5.71,4.83,2.04,1.7,4.07,3.41,6.15,5.04.7.55,1.5.92,2.27,1.31.73.37,1.51.36,2.26.02,1.35-.61,1.62-2.34.47-3.36-2.56-2.28-5.15-4.52-7.74-6.74-1.97-1.7-3.96-3.37-5.95-5.02-.44-.36-.48-.69-.18-1.16.59-.94,1.17-1.89,1.8-2.91.64.55,1.24,1.07,1.85,1.57,4.14,3.45,8.29,6.89,12.44,10.33.9.75,1.86,1.19,2.98.88,1.15-.32,1.87-1.43,1.84-2.82-.02-.72-.35-1.21-.82-1.62-3-2.53-5.99-5.07-8.99-7.6-2.03-1.71-4.07-3.41-6.12-5.1-.36-.3-.46-.59-.31-1.07.38-1.18.74-2.37,1.14-3.65.21.16.4.3.57.44,5.14,4.26,10.28,8.52,15.41,12.8.76.63,1.52.87,2.37.34.89-.55,1.24-1.52,1.14-2.61-.08-.92-.38-1.82-.6-2.73-.06-.23-.16-.45-.28-.77.22-.05.4-.08.57-.12.92-.21,1.85-.38,2.76-.64.35-.1.56-.11.65.32.2.91.42,1.81.55,2.73.08.55.01,1.12.02,1.69.04,3.18-1.49,5.13-3.73,6.49-.36.22-.48.49-.53.93-.12.93-.19,1.89-.46,2.77-.89,2.83-2.69,4.36-5.23,4.72-.32.05-.58.04-.64.56-.39,3.26-2.47,5.56-5.27,5.89-1.42.17-2.76-.15-4.06-.79-.33-.17-.67-.33-1.02-.51Z"/>
  <path id="Fingers" fill="currentColor" d="m37.14,57.32c.67-.04,1.32-.19,1.94-.08,1.49.27,2.56,1.77,2.77,3.68.13,1.23.01,2.45-.38,3.59-.42,1.2-.86,2.43-1.47,3.5-1.36,2.34-3.96,2.86-5.98,1.33-1.3-.98-1.71-2.27-1.26-4.02.06-.23.13-.47.24-.87-.44.14-.77.25-1.11.37-1.39.5-2.7.29-3.93-.6-1.3-.94-1.7-2.33-1.16-4.02.14-.44.3-.86.52-1.5-.38.17-.6.24-.81.36-1.31.7-2.64.79-3.98.17-1.1-.5-1.6-1.4-1.55-2.77.04-.97.13-1.93.21-2.99-.21.05-.42.09-.62.16-1.56.53-2.93,0-4.07-1.2-.92-.96-.92-2.37-.54-3.6.85-2.71,1.96-5.3,3.55-7.54.41-.58,1.01-1.07,1.6-1.39,1.45-.79,2.88-.23,3.63,1.44.33.73.43,1.61.59,2.44.07.34.01.71.01,1.2.19-.2.3-.3.4-.41.26-.31.49-.64.76-.93,1.08-1.17,2.32-1.53,3.67-.76,1.34.77,2.1,2.06,2.03,3.84-.04,1.11-.26,2.21-.4,3.36.13-.1.28-.18.39-.32,1.23-1.57,3.89-1.12,4.85,1.22.72,1.75.63,3.54.28,5.35-.06.29-.12.57-.17.86,0,.06.02.13.02.09Z"/>
  <path id="Sleeve" fill="currentColor" d="m79.16,0c1.13-.05,1.9.6,2.4,1.69.63,1.37,1.2,2.77,1.75,4.19,2.92,7.54,5.79,15.1,8.74,22.61.88,2.25.14,4.16-1.53,5.07-1.05.57-2.11,1.1-3.19,1.56-1.03.44-1.48.26-2.01-.87-.83-1.75-1.62-3.54-2.33-5.36-3-7.62-5.97-15.25-8.94-22.88-.23-.59-.41-1.21-.58-1.84-.2-.78,0-1.47.56-1.91,1.57-1.2,3.28-1.96,5.13-2.26Z"/>
  <path d="m13.55,0c1.63.33,3.38,1.05,4.94,2.31.66.53.75,1.11.41,2.02-2.14,5.7-4.26,11.4-6.46,17.07-1.61,4.15-3.31,8.24-5,12.34-.67,1.63-1.25,1.89-2.68,1.22-1.07-.5-2.14-1.04-3.13-1.72C-.02,32.1-.39,30.71.39,28.65c1.96-5.18,3.93-10.34,5.93-15.49,1.37-3.53,2.78-7.04,4.2-10.54.25-.62.62-1.19.99-1.73C11.96.23,12.6-.02,13.55,0Z"/>
  <path d="m21.78,5.08c.4.08.84.2,1.27.24,1.88.16,3.75.39,5.63.43,3.19.06,6.39,0,9.58,0,.19,0,.38,0,.68,0-.16.21-.24.36-.34.46-1.22,1.21-2.44,2.41-3.67,3.6-.17.16-.4.29-.61.31-4.57.43-9.11.17-13.61-.84-.09-.02-.17-.08-.33-.15.46-1.33.91-2.63,1.4-4.05Z"/>
  <path d="m14.82,43.52c-.53-.89-1.05-1.7-1.52-2.54-.99-1.74-1.96-3.5-2.96-5.24-.2-.34-.21-.62-.06-.99.54-1.31,1.05-2.64,1.6-4.06.17.25.31.43.42.63,1.44,2.53,2.88,5.06,4.33,7.58.2.35.2.6,0,.96-.61,1.17-1.18,2.37-1.82,3.67Z"/>
</svg>