<?xml version="1.0" encoding="UTF-8"?>
<svg id="Message" xmlns="http://www.w3.org/2000/svg" viewBox="0 0 72.05 72">
  <defs>
    <style>
      svg {
        color: green;
      }
    </style>
  </defs>
  <g id="MB">
    <path id="Background" fill="currentColor" d="m67.81,18.36v35.32l-.33.7c-.4.83-1.07,1.51-1.85,1.86-.47.21-1.13.26-4.16.32-3.97.08-4.07.1-4.64,1.03-.25.41-.27.73-.27,3.79,0,1.84-.05,3.34-.11,3.34s-1.85-1.74-3.98-3.88c-2.12-2.13-3.99-3.95-4.14-4.04-.21-.12-3.41-.18-12.39-.24l-12.1-.07-.67-.33c-.75-.37-1.29-.95-1.67-1.78l-.25-.56,2.21-2.22,2.21-2.21h11.28c7.61,0,11.53-.05,12.04-.16,1.04-.21,2.59-1,3.44-1.75.85-.74,1.72-1.99,2.18-3.13l.33-.8.14-28h4.92c3.82,0,5.05.04,5.47.19.77.27,1.62,1.09,2.01,1.92l.33.7Z"></path>
      <path d="m15.01,24.67c-.04,1.15,1.26,1.7,2.11.9.23-.21.32-.46.32-.84,0-1.62-2.39-1.68-2.43-.06Zm12.53-1.17c-1.35,0-1.73,1.89-.48,2.39q.4.16.92-.02c1.28-.45.93-2.37-.44-2.37Zm0,0c-1.35,0-1.73,1.89-.48,2.39q.4.16.92-.02c1.28-.45.93-2.37-.44-2.37Zm-12.53,1.17c-.04,1.15,1.26,1.7,2.11.9.23-.21.32-.46.32-.84,0-1.62-2.39-1.68-2.43-.06Zm0,0c-.04,1.15,1.26,1.7,2.11.9.23-.21.32-.46.32-.84,0-1.62-2.39-1.68-2.43-.06Zm12.53-1.17c-1.35,0-1.73,1.89-.48,2.39q.4.16.92-.02c1.28-.45.93-2.37-.44-2.37Zm11.3,0c-1.42.01-1.76,1.85-.43,2.38.48.19.99.06,1.37-.36.7-.79.13-2.03-.94-2.02Zm-11.3,0c-1.35,0-1.73,1.89-.48,2.39q.4.16.92-.02c1.28-.45.93-2.37-.44-2.37Zm11.3,0c-1.42.01-1.76,1.85-.43,2.38.48.19.99.06,1.37-.36.7-.79.13-2.03-.94-2.02Zm-23.83,1.17c-.04,1.15,1.26,1.7,2.11.9.23-.21.32-.46.32-.84,0-1.62-2.39-1.68-2.43-.06Zm0,0c-.04,1.15,1.26,1.7,2.11.9.23-.21.32-.46.32-.84,0-1.62-2.39-1.68-2.43-.06Zm12.53-1.17c-1.35,0-1.73,1.89-.48,2.39q.4.16.92-.02c1.28-.45.93-2.37-.44-2.37Zm11.3,0c-1.42.01-1.76,1.85-.43,2.38.48.19.99.06,1.37-.36.7-.79.13-2.03-.94-2.02Zm-11.3,0c-1.35,0-1.73,1.89-.48,2.39q.4.16.92-.02c1.28-.45.93-2.37-.44-2.37Zm11.3,0c-1.42.01-1.76,1.85-.43,2.38.48.19.99.06,1.37-.36.7-.79.13-2.03-.94-2.02Zm-23.83,1.17c-.04,1.15,1.26,1.7,2.11.9.23-.21.32-.46.32-.84,0-1.62-2.39-1.68-2.43-.06Zm0,0c-.04,1.15,1.26,1.7,2.11.9.23-.21.32-.46.32-.84,0-1.62-2.39-1.68-2.43-.06Zm12.53-1.17c-1.35,0-1.73,1.89-.48,2.39q.4.16.92-.02c1.28-.45.93-2.37-.44-2.37Zm11.3,0c-1.42.01-1.76,1.85-.43,2.38.48.19.99.06,1.37-.36.7-.79.13-2.03-.94-2.02Zm0,0c-1.42.01-1.76,1.85-.43,2.38.48.19.99.06,1.37-.36.7-.79.13-2.03-.94-2.02Zm-11.3,0c-1.35,0-1.73,1.89-.48,2.39q.4.16.92-.02c1.28-.45.93-2.37-.44-2.37Zm-12.53,1.17c-.04,1.15,1.26,1.7,2.11.9.23-.21.32-.46.32-.84,0-1.62-2.39-1.68-2.43-.06Zm0,0c-.04,1.15,1.26,1.7,2.11.9.23-.21.32-.46.32-.84,0-1.62-2.39-1.68-2.43-.06Zm12.53-1.17c-1.35,0-1.73,1.89-.48,2.39q.4.16.92-.02c1.28-.45.93-2.37-.44-2.37Zm11.3,0c-1.42.01-1.76,1.85-.43,2.38.48.19.99.06,1.37-.36.7-.79.13-2.03-.94-2.02Zm0,0c-1.42.01-1.76,1.85-.43,2.38.48.19.99.06,1.37-.36.7-.79.13-2.03-.94-2.02Zm-11.3,0c-1.35,0-1.73,1.89-.48,2.39q.4.16.92-.02c1.28-.45.93-2.37-.44-2.37Zm-12.53,1.17c-.04,1.15,1.26,1.7,2.11.9.23-.21.32-.46.32-.84,0-1.62-2.39-1.68-2.43-.06Zm0,0c-.04,1.15,1.26,1.7,2.11.9.23-.21.32-.46.32-.84,0-1.62-2.39-1.68-2.43-.06Zm12.53-1.17c-1.35,0-1.73,1.89-.48,2.39q.4.16.92-.02c1.28-.45.93-2.37-.44-2.37Zm11.3,0c-1.42.01-1.76,1.85-.43,2.38.48.19.99.06,1.37-.36.7-.79.13-2.03-.94-2.02Zm0,0c-1.42.01-1.76,1.85-.43,2.38.48.19.99.06,1.37-.36.7-.79.13-2.03-.94-2.02Zm-11.3,0c-1.35,0-1.73,1.89-.48,2.39q.4.16.92-.02c1.28-.45.93-2.37-.44-2.37Zm-12.53,1.17c-.04,1.15,1.26,1.7,2.11.9.23-.21.32-.46.32-.84,0-1.62-2.39-1.68-2.43-.06ZM50.63,6.46c-.36-.79-1.11-1.55-1.88-1.91l-.71-.33h-20.41c-22.94,0-21.2-.08-22.35,1.06-1.14,1.15-1.07-.23-1.07,19.4,0,11.59.05,17.64.15,17.98.21.75.96,1.67,1.69,2.08.61.35.71.36,4.28.43,5.32.1,5.14-.08,5.14,5.01v3.35l3.97-3.95c2.19-2.18,4.14-4.05,4.33-4.15.29-.16,2.59-.21,12.52-.26,11.17-.07,12.21-.1,12.62-.32.66-.36,1.32-1.08,1.65-1.79.3-.64.3-.69.3-18.37,0-16.06-.02-17.77-.23-18.23Zm-29.16,19.82c-.77,2.59-3.49,4.28-6.16,3.83-2.62-.44-4.52-2.7-4.5-5.35.01-2.25,1.12-4.03,3.11-4.98.83-.4,1.04-.43,2.32-.43s1.51.04,2.22.37c1.14.54,2.23,1.62,2.72,2.69.5,1.09.62,2.75.29,3.87Zm11.04.67c-1.01,2.26-3.43,3.55-5.92,3.14-2.44-.4-4.33-2.53-4.48-5.04-.13-2.33,1.06-4.34,3.18-5.33.7-.33.98-.37,2.21-.37s1.49.03,2.32.43c2.73,1.29,3.9,4.42,2.69,7.17Zm10.38,1.39c-1.31,1.44-3.11,2.08-4.96,1.76-1.64-.27-3.25-1.48-4-2.98-1.19-2.4-.38-5.44,1.84-6.9,1.88-1.23,4.18-1.27,6-.11,2.85,1.83,3.38,5.76,1.12,8.23Zm-4.05-4.84c-1.42.01-1.76,1.85-.43,2.38.48.19.99.06,1.37-.36.7-.79.13-2.03-.94-2.02Zm-11.3,0c-1.35,0-1.73,1.89-.48,2.39q.4.16.92-.02c1.28-.45.93-2.37-.44-2.37Zm-12.53,1.17c-.04,1.15,1.26,1.7,2.11.9.23-.21.32-.46.32-.84,0-1.62-2.39-1.68-2.43-.06Zm0,0c-.04,1.15,1.26,1.7,2.11.9.23-.21.32-.46.32-.84,0-1.62-2.39-1.68-2.43-.06Zm12.53-1.17c-1.35,0-1.73,1.89-.48,2.39q.4.16.92-.02c1.28-.45.93-2.37-.44-2.37Zm11.3,0c-1.42.01-1.76,1.85-.43,2.38.48.19.99.06,1.37-.36.7-.79.13-2.03-.94-2.02Zm0,0c-1.42.01-1.76,1.85-.43,2.38.48.19.99.06,1.37-.36.7-.79.13-2.03-.94-2.02Zm-11.3,0c-1.35,0-1.73,1.89-.48,2.39q.4.16.92-.02c1.28-.45.93-2.37-.44-2.37Zm-12.53,1.17c-.04,1.15,1.26,1.7,2.11.9.23-.21.32-.46.32-.84,0-1.62-2.39-1.68-2.43-.06Zm0,0c-.04,1.15,1.26,1.7,2.11.9.23-.21.32-.46.32-.84,0-1.62-2.39-1.68-2.43-.06Zm12.53-1.17c-1.35,0-1.73,1.89-.48,2.39q.4.16.92-.02c1.28-.45.93-2.37-.44-2.37Zm11.3,0c-1.42.01-1.76,1.85-.43,2.38.48.19.99.06,1.37-.36.7-.79.13-2.03-.94-2.02Zm0,0c-1.42.01-1.76,1.85-.43,2.38.48.19.99.06,1.37-.36.7-.79.13-2.03-.94-2.02Zm-11.3,0c-1.35,0-1.73,1.89-.48,2.39q.4.16.92-.02c1.28-.45.93-2.37-.44-2.37Zm-12.53,1.17c-.04,1.15,1.26,1.7,2.11.9.23-.21.32-.46.32-.84,0-1.62-2.39-1.68-2.43-.06Zm0,0c-.04,1.15,1.26,1.7,2.11.9.23-.21.32-.46.32-.84,0-1.62-2.39-1.68-2.43-.06Zm23.83-1.17c-1.42.01-1.76,1.85-.43,2.38.48.19.99.06,1.37-.36.7-.79.13-2.03-.94-2.02Zm-11.3,0c-1.35,0-1.73,1.89-.48,2.39q.4.16.92-.02c1.28-.45.93-2.37-.44-2.37Zm11.3,0c-1.42.01-1.76,1.85-.43,2.38.48.19.99.06,1.37-.36.7-.79.13-2.03-.94-2.02Zm-11.3,0c-1.35,0-1.73,1.89-.48,2.39q.4.16.92-.02c1.28-.45.93-2.37-.44-2.37Zm-12.53,1.17c-.04,1.15,1.26,1.7,2.11.9.23-.21.32-.46.32-.84,0-1.62-2.39-1.68-2.43-.06Zm0,0c-.04,1.15,1.26,1.7,2.11.9.23-.21.32-.46.32-.84,0-1.62-2.39-1.68-2.43-.06Zm23.83-1.17c-1.42.01-1.76,1.85-.43,2.38.48.19.99.06,1.37-.36.7-.79.13-2.03-.94-2.02Zm-11.3,0c-1.35,0-1.73,1.89-.48,2.39q.4.16.92-.02c1.28-.45.93-2.37-.44-2.37Zm11.3,0c-1.42.01-1.76,1.85-.43,2.38.48.19.99.06,1.37-.36.7-.79.13-2.03-.94-2.02Zm-11.3,0c-1.35,0-1.73,1.89-.48,2.39q.4.16.92-.02c1.28-.45.93-2.37-.44-2.37Zm-12.53,1.17c-.04,1.15,1.26,1.7,2.11.9.23-.21.32-.46.32-.84,0-1.62-2.39-1.68-2.43-.06Zm0,0c-.04,1.15,1.26,1.7,2.11.9.23-.21.32-.46.32-.84,0-1.62-2.39-1.68-2.43-.06Zm23.83-1.17c-1.42.01-1.76,1.85-.43,2.38.48.19.99.06,1.37-.36.7-.79.13-2.03-.94-2.02Zm-11.3,0c-1.35,0-1.73,1.89-.48,2.39q.4.16.92-.02c1.28-.45.93-2.37-.44-2.37Zm11.3,0c-1.42.01-1.76,1.85-.43,2.38.48.19.99.06,1.37-.36.7-.79.13-2.03-.94-2.02Zm-11.3,0c-1.35,0-1.73,1.89-.48,2.39q.4.16.92-.02c1.28-.45.93-2.37-.44-2.37Zm-12.53,1.17c-.04,1.15,1.26,1.7,2.11.9.23-.21.32-.46.32-.84,0-1.62-2.39-1.68-2.43-.06Zm12.53-1.17c-1.35,0-1.73,1.89-.48,2.39q.4.16.92-.02c1.28-.45.93-2.37-.44-2.37Zm0,0c-1.35,0-1.73,1.89-.48,2.39q.4.16.92-.02c1.28-.45.93-2.37-.44-2.37Z"></path>
      <path d="m71.83,17.41c-.31-1.47-1.18-2.94-2.33-4.01-.44-.42-.91-.78-1.42-1.06-1.75-.97-1.87-.99-7.75-1.05l-5.3-.06-.05-2.63c-.04-2.29-.09-2.73-.36-3.46-.36-.96-.94-1.85-1.66-2.61-1.14-1.22-2.64-2.1-4.2-2.38C48.19.05,41.37,0,27.44,0,4.87,0,6.11-.05,4.22.88c-1.24.61-2.74,2.11-3.35,3.35C-.06,6.13-.02,5.14.02,25.15l.04,18.12.37.93c.5,1.3,1.13,2.23,2.12,3.15h0c1.72,1.59,3.12,2.04,6.39,2.04h2.28l.05,4.89c.04,4.62.05,4.91.32,5.37.54.91,1.86,1.32,2.76.85.19-.1,1.1-.93,2.04-1.86l1.71-1.68.29.47c.73,1.17,2.43,2.4,4.11,2.97.9.31,1,.31,12.45.35l11.54.04,5.41,5.41c1.21,1.21,2.37,2.35,3.33,3.27,1.4,1.37,2.37,2.29,2.51,2.36.54.29,1.52.2,2.02-.18.21-.15.5-.49.66-.75.15-.25.22-.47.25-1.43.04-.73.05-1.89.07-3.85l.04-4.8,2.42-.08c2.7-.09,3.42-.24,4.87-1.04.51-.28.98-.64,1.42-1.06,1.15-1.08,2.02-2.55,2.33-4.01.3-1.42.3-35.8,0-37.22ZM15.47,53.53v-3.35c0-5.09.18-4.91-5.14-5.01-3.57-.07-3.67-.08-4.28-.43-.73-.41-1.48-1.33-1.69-2.08-.1-.34-.15-6.39-.15-17.98,0-19.63-.07-18.25,1.07-19.4,1.15-1.14-.59-1.06,22.35-1.06h20.41l.71.33c.77.36,1.52,1.12,1.88,1.91.21.46.23,2.17.23,18.23,0,17.68,0,17.73-.3,18.37-.33.71-.99,1.43-1.65,1.79-.41.22-1.45.25-12.62.32-9.93.05-12.23.1-12.52.26-.19.1-2.14,1.97-4.33,4.15l-3.97,3.95Zm52.34.15l-.33.7c-.4.83-1.07,1.51-1.85,1.86-.47.21-1.13.26-4.16.32-3.97.08-4.07.1-4.64,1.03-.25.41-.27.73-.27,3.79,0,1.84-.05,3.34-.11,3.34s-1.85-1.74-3.98-3.88c-2.12-2.13-3.99-3.95-4.14-4.04-.21-.12-3.41-.18-12.39-.24l-12.1-.07-.67-.33c-.75-.37-1.29-.95-1.67-1.78l-.25-.56,2.21-2.22,2.21-2.21h11.28c7.61,0,11.53-.05,12.04-.16,1.04-.21,2.59-1,3.44-1.75.85-.74,1.72-1.99,2.18-3.13l.33-.8.14-28h4.92c3.82,0,5.05.04,5.47.19.77.27,1.62,1.09,2.01,1.92l.33.7v35.32Z"></path>
      <path d="m27.97,25.87c-.51.18-.52.18-.92.02-1.24-.5-.86-2.39.48-2.39s1.72,1.93.44,2.38Z"></path>
      <path d="m15.01,24.67c-.04,1.15,1.26,1.7,2.11.9.23-.21.32-.46.32-.84,0-1.62-2.39-1.68-2.43-.06Zm23.83-1.17c-1.42.01-1.76,1.85-.43,2.38.48.19.99.06,1.37-.36.7-.79.13-2.03-.94-2.02Zm0,0c-1.42.01-1.76,1.85-.43,2.38.48.19.99.06,1.37-.36.7-.79.13-2.03-.94-2.02Zm-23.83,1.17c-.04,1.15,1.26,1.7,2.11.9.23-.21.32-.46.32-.84,0-1.62-2.39-1.68-2.43-.06Zm0,0c-.04,1.15,1.26,1.7,2.11.9.23-.21.32-.46.32-.84,0-1.62-2.39-1.68-2.43-.06Zm23.83-1.17c-1.42.01-1.76,1.85-.43,2.38.48.19.99.06,1.37-.36.7-.79.13-2.03-.94-2.02Zm0,0c-1.42.01-1.76,1.85-.43,2.38.48.19.99.06,1.37-.36.7-.79.13-2.03-.94-2.02Zm-23.83,1.17c-.04,1.15,1.26,1.7,2.11.9.23-.21.32-.46.32-.84,0-1.62-2.39-1.68-2.43-.06Zm0,0c-.04,1.15,1.26,1.7,2.11.9.23-.21.32-.46.32-.84,0-1.62-2.39-1.68-2.43-.06Zm23.83-1.17c-1.42.01-1.76,1.85-.43,2.38.48.19.99.06,1.37-.36.7-.79.13-2.03-.94-2.02Zm0,0c-1.42.01-1.76,1.85-.43,2.38.48.19.99.06,1.37-.36.7-.79.13-2.03-.94-2.02Zm-23.83,1.17c-.04,1.15,1.26,1.7,2.11.9.23-.21.32-.46.32-.84,0-1.62-2.39-1.68-2.43-.06Zm0,0c-.04,1.15,1.26,1.7,2.11.9.23-.21.32-.46.32-.84,0-1.62-2.39-1.68-2.43-.06Zm23.83-1.17c-1.42.01-1.76,1.85-.43,2.38.48.19.99.06,1.37-.36.7-.79.13-2.03-.94-2.02Zm0,0c-1.42.01-1.76,1.85-.43,2.38.48.19.99.06,1.37-.36.7-.79.13-2.03-.94-2.02Zm-23.83,1.17c-.04,1.15,1.26,1.7,2.11.9.23-.21.32-.46.32-.84,0-1.62-2.39-1.68-2.43-.06ZM50.63,6.46c-.36-.79-1.11-1.55-1.88-1.91l-.71-.33h-20.41c-22.94,0-21.2-.08-22.35,1.06-1.14,1.15-1.07-.23-1.07,19.4,0,11.59.05,17.64.15,17.98.21.75.96,1.67,1.69,2.08.61.35.71.36,4.28.43,5.32.1,5.14-.08,5.14,5.01v3.35l3.97-3.95c2.19-2.18,4.14-4.05,4.33-4.15.29-.16,2.59-.21,12.52-.26,11.17-.07,12.21-.1,12.62-.32.66-.36,1.32-1.08,1.65-1.79.3-.64.3-.69.3-18.37,0-16.06-.02-17.77-.23-18.23Zm-29.16,19.82c-.77,2.59-3.49,4.28-6.16,3.83-2.62-.44-4.52-2.7-4.5-5.35.01-2.25,1.12-4.03,3.11-4.98.83-.4,1.04-.43,2.32-.43s1.51.04,2.22.37c1.14.54,2.23,1.62,2.72,2.69.5,1.09.62,2.75.29,3.87Zm11.04.67c-1.01,2.26-3.43,3.55-5.92,3.14-2.44-.4-4.33-2.53-4.48-5.04-.13-2.33,1.06-4.34,3.18-5.33.7-.33.98-.37,2.21-.37s1.49.03,2.32.43c2.73,1.29,3.9,4.42,2.69,7.17Zm10.38,1.39c-1.31,1.44-3.11,2.08-4.96,1.76-1.64-.27-3.25-1.48-4-2.98-1.19-2.4-.38-5.44,1.84-6.9,1.88-1.23,4.18-1.27,6-.11,2.85,1.83,3.38,5.76,1.12,8.23Zm-4.05-4.84c-1.42.01-1.76,1.85-.43,2.38.48.19.99.06,1.37-.36.7-.79.13-2.03-.94-2.02Zm-23.83,1.17c-.04,1.15,1.26,1.7,2.11.9.23-.21.32-.46.32-.84,0-1.62-2.39-1.68-2.43-.06Zm0,0c-.04,1.15,1.26,1.7,2.11.9.23-.21.32-.46.32-.84,0-1.62-2.39-1.68-2.43-.06Zm23.83-1.17c-1.42.01-1.76,1.85-.43,2.38.48.19.99.06,1.37-.36.7-.79.13-2.03-.94-2.02Zm0,0c-1.42.01-1.76,1.85-.43,2.38.48.19.99.06,1.37-.36.7-.79.13-2.03-.94-2.02Zm-23.83,1.17c-.04,1.15,1.26,1.7,2.11.9.23-.21.32-.46.32-.84,0-1.62-2.39-1.68-2.43-.06Zm0,0c-.04,1.15,1.26,1.7,2.11.9.23-.21.32-.46.32-.84,0-1.62-2.39-1.68-2.43-.06Zm23.83-1.17c-1.42.01-1.76,1.85-.43,2.38.48.19.99.06,1.37-.36.7-.79.13-2.03-.94-2.02Zm0,0c-1.42.01-1.76,1.85-.43,2.38.48.19.99.06,1.37-.36.7-.79.13-2.03-.94-2.02Zm-23.83,1.17c-.04,1.15,1.26,1.7,2.11.9.23-.21.32-.46.32-.84,0-1.62-2.39-1.68-2.43-.06Zm0,0c-.04,1.15,1.26,1.7,2.11.9.23-.21.32-.46.32-.84,0-1.62-2.39-1.68-2.43-.06Zm23.83-1.17c-1.42.01-1.76,1.85-.43,2.38.48.19.99.06,1.37-.36.7-.79.13-2.03-.94-2.02Zm0,0c-1.42.01-1.76,1.85-.43,2.38.48.19.99.06,1.37-.36.7-.79.13-2.03-.94-2.02Zm-23.83,1.17c-.04,1.15,1.26,1.7,2.11.9.23-.21.32-.46.32-.84,0-1.62-2.39-1.68-2.43-.06Zm0,0c-.04,1.15,1.26,1.7,2.11.9.23-.21.32-.46.32-.84,0-1.62-2.39-1.68-2.43-.06Zm0,0c-.04,1.15,1.26,1.7,2.11.9.23-.21.32-.46.32-.84,0-1.62-2.39-1.68-2.43-.06Z"></path>
      <path d="m17.44,24.73c0,.38-.09.63-.32.84-.86.8-2.15.25-2.12-.9.05-1.62,2.43-1.56,2.43.06Z"></path>
      <path d="m17.44,24.73c0,.38-.09.63-.32.84-.86.8-2.15.25-2.12-.9.05-1.62,2.43-1.56,2.43.06Z"></path>
      <path d="m27.97,25.87c-.51.18-.52.18-.92.02-1.24-.5-.86-2.39.48-2.39s1.72,1.93.44,2.38Z"></path>
      <path d="m27.97,25.87c-.51.18-.52.18-.92.02-1.24-.5-.86-2.39.48-2.39s1.72,1.93.44,2.38Z"></path>
      <path d="m39.77,25.52c-.37.42-.88.55-1.37.35-1.32-.53-.98-2.36.44-2.38,1.07,0,1.64,1.23.93,2.02Z"></path>
      <path d="m39.77,25.52c-.37.42-.88.55-1.37.35-1.32-.53-.98-2.36.44-2.38,1.07,0,1.64,1.23.93,2.02Z"></path>
  </g>
</svg>