<?xml version="1.0" encoding="UTF-8"?>
<svg id="svg10" xmlns="http://www.w3.org/2000/svg" viewBox="0 0 75.73 72">
  <defs>
    <style>
      svg {
        color: green;
      }
    </style>
  </defs>
  <g id="Player">
      <path id="Bottom_Jersey" d="m75.66,56.44c-.07-.33-1.8-3.1-2.02-3.24-.05-.03.02.38.16.9.37,1.46.51,3.27.36,4.64-.12,1.1-.52,2.72-.71,2.91-.33.33-3.43.45-5.21.2-.9-.13-1.02-.18-1.87-.73-2.31-1.53-7.56-6.44-12.5-11.7-.6-.64-1.16-1.17-1.25-1.17s-.38-.12-.66-.26c-.39-.19-.6-.39-.85-.81-.3-.5-.85-1.63-1.08-2.25-.08-.22-.11-.23-.22-.1-.26.33-1.51,1.3-2.26,1.77-2.37,1.48-5.24,2.4-8.33,2.69-4.36.41-9.83-1.32-12.75-4.03l-.62-.57-.12.35c-.21.61-1.1,2.31-1.34,2.57-.23.25-.97.63-1.22.63-.08,0-.61.5-1.19,1.12-1.94,2.07-6.35,6.47-7.87,7.87-1.97,1.81-3.57,3.15-4.68,3.88-.84.56-.95.6-1.87.74-1.97.28-4.96.13-5.25-.27-.19-.26-.54-1.68-.67-2.74-.18-1.49.01-3.63.48-5.22.08-.27.11-.48.07-.45-.14.09-1.54,2.17-1.82,2.72-.23.44-.29.71-.34,1.66-.07,1.31.09,3.14.38,4.38.3,1.28.41,1.44,1.06,1.58,1.97.43,4.7.56,6.31.31.84-.13,1.23-.36,3.28-1.86.51-.38.99-.72,1.07-.77.09-.05.51.28,1.25.98,6.1,5.79,13.81,9.19,22.25,9.8,1.19.09,5.3-.04,6.53-.19,7.77-.99,14.64-4.24,20.29-9.61l1.12-1.07.44.32c.24.18,1.07.76,1.84,1.3,1.33.93,1.44.98,2.18,1.1,1.98.31,6.54-.06,6.94-.55.15-.18.5-1.47.65-2.35.14-.87.19-3.9.06-4.48Zm-54.33,7.99s-1.96-1.23-2.79-1.86c-1.18-.89-2.5-2.02-3.24-2.77l-.62-.63.41-.34c.94-.77,2.36-2.06,3.52-3.21.68-.67,1.25-1.21,1.27-1.19.02.02.36,2.27.75,5.01.39,2.74.71,4.99.7,5Zm36.8-2.55c-.54.43-1.43,1.09-1.97,1.46-1.48,1.01-1.77,1.17-1.77.99,0-.22,1.45-9.87,1.49-9.91.02-.02.64.56,1.38,1.29.74.73,1.88,1.78,2.54,2.35.66.56,1.21,1.05,1.22,1.1.04.12-1.78,1.85-2.88,2.72Z"></path>
      <path id="Top_Jersey" d="m8.35,50.93c.04-.07.27-.43.51-.81l.44-.68,3.18-1.55c1.75-.85,3.18-1.59,3.18-1.63,0-.13-.93-.84-1.81-1.39-.87-.54-2.18-1.1-3.2-1.37l-.68-.18-1.7,1.62c-.93.89-1.71,1.61-1.72,1.6-.01-.01.24-.93.55-2.04l.57-2.02-.11-1.25c-.37-4.07.14-6.98,1.53-8.8,1.08-1.42,3.64-2.72,6.47-3.3,1.66-.34,3.45-.47,4.47-.33,1.09.15,2.55.84,3.86,1.82.5.37.91.66.91.63s-.31-.59-.68-1.25c-.37-.66-.67-1.21-.65-1.23.03-.03,4.06-1.3,5-1.58.4-.12.49-.18.43-.33-.52-1.27-.79-2.31-.93-3.57-.21-1.88-.2-1.92.21-1.02,1.02,2.19,1.91,3.63,2.47,4,.33.21,2.02.82,3.05,1.09,2.69.71,5.73.69,8.54-.04,1.28-.33,2.76-.92,3.09-1.23.55-.51,1.55-2.25,2.49-4.34.16-.37.16-.15-.03,1.58-.13,1.19-.24,1.67-.57,2.56-.22.6-.39,1.11-.37,1.13s1.24.41,2.72.87c1.48.46,2.7.85,2.72.87s-.27.58-.65,1.25c-.37.67-.68,1.24-.68,1.26s.2-.11.44-.31c.78-.63,1.75-1.23,2.63-1.65,1.18-.55,2.14-.68,3.86-.52,2.48.23,4.47.77,6.26,1.69,2.24,1.15,3.3,2.51,3.85,4.97.27,1.2.37,3.88.2,5.6l-.13,1.31.52,1.9c.29,1.04.55,2,.59,2.13.04.13-.66-.47-1.64-1.4-.94-.9-1.79-1.64-1.88-1.64-.34,0-1.93.56-2.79.99-1.3.64-2.93,1.8-2.77,1.97.02.02,1.47.74,3.21,1.59l3.17,1.55.48.77c.26.42.47.78.46.8s-.47-.17-1-.4c-1.6-.7-3.64-1.48-5.96-2.27-2.55-.87-3.49-1.25-5.02-2.02l-1.12-.56-.13-1.23c-.27-2.54-.82-5.83-1.19-7.1-.16-.56-.33-.68-2.4-1.8-1.58-.85-3.91-1.91-4.85-2.21-.33-.1-.6-.21-.6-.25s.43-.36.96-.73c1.07-.75,3.37-2.91,3.27-3.07-.04-.06-.41-.21-.82-.34l-.76-.24-.83.79c-.94.9-2.07,1.73-3.08,2.29l-.7.38-.94-.17-.94-.17.85-.51c1.06-.64,1.74-1.16,2.5-1.93l.59-.6-.32-.49-.32-.49-.49.15c-4.6,1.42-7.9,1.42-12.5,0l-.49-.15-.32.49-.32.49.54.55c.7.72,1.58,1.4,2.59,2l.81.48-.94.17-.94.17-.73-.4c-.96-.52-2.15-1.41-3.09-2.33l-.76-.74-.78.24c-.43.13-.8.29-.83.34-.13.22,2.68,2.77,3.84,3.49.21.13.39.27.39.32s-.27.16-.6.26c-.95.3-3.28,1.36-4.85,2.21q-2.2,1.19-2.39,1.82c-.39,1.29-.93,4.47-1.21,7.12l-.13,1.18-1.12.56c-1.54.77-2.6,1.2-5.02,2.02-2.21.75-4.37,1.57-5.97,2.27-1.1.48-1.09.48-.98.3h0Z"></path>
      <path id="Left_Stripe" fill="currentColor" d="m19.93,44.64s.1-.17.13-.29c.05-.18-.04-.31-.44-.64-2.02-1.69-5.8-3.58-9.06-4.53-1.22-.36-1.25-.35-1.25.18,0,.24.03.69.07.99.06.54.07.55.49.65,2.84.72,5.84,2.25,8.06,4.13l.36.31.78-.36c.43-.2.81-.39.85-.43h0Z"></path>
      <path id="Right_Stripe" fill="currentColor" d="m59.69,43.74c1.73-1.16,4.21-2.26,6.19-2.75.42-.1.43-.12.49-.65.04-.3.07-.74.07-.99,0-.56-.01-.56-1.73-.01-3.28,1.05-5.95,2.37-8.16,4.05q-.92.7-.84,1.02c.05.18.28.34.9.63l.84.39.68-.54c.37-.3,1.08-.81,1.56-1.14h0Z"></path>
      <path id="Football BG" fill="#825736" d="m35.81,48.24c-3.03-.31-6.3-1.68-8.67-3.62-1.16-.95-1.23-1.05-1.17-1.61.03-.26.1-.53.15-.58.12-.12,1.32.3,2.34.8.87.44,1.24.45,1.65.05.17-.17.3-.35.3-.4,0-.14-1.42-.92-3.27-1.8-1.5-.71-1.89-1-1.67-1.22.04-.04,1.36-.08,2.94-.11,3.19-.05,3.39-.08,3.71-.69.32-.59.22-.65-1.22-.73-.7-.04-2.17-.02-3.25.04-1.87.1-1.98.1-2.17-.08-.19-.19-.18-.2.36-.35.95-.27,1.74-.46,3.51-.85,2-.44,2.26-.54,2.64-.98.31-.36.39-1.01.14-1.1-.16-.06-3.32.73-4.75,1.19-1.16.37-1.4.39-1.54.12-.1-.18,0-.24,1.06-.62.64-.23,1.91-.64,2.83-.9,1.62-.47,2.03-.65,2.03-.94s1.66-.83,3.48-1.14c1.39-.24,3.91-.24,5.3,0,1.82.31,3.48.85,3.48,1.14,0,.27.36.47,1.35.74,1.53.42,2.56.75,3.66,1.16.93.34,1,.39.9.58-.14.26-.39.23-2.01-.27-1.54-.48-3.51-.98-4-1.02-.35-.03-.36-.01-.39.35-.02.29.04.46.25.72.38.45.64.55,2.62.98,1.97.43,3.74.87,3.93.98.11.06.1.11-.05.25-.17.15-.41.16-2.37.06-1.31-.06-2.62-.07-3.27-.02l-1.09.09.02.31c.01.18.15.44.34.62l.32.32,3.01.06c1.65.03,3.04.09,3.07.12.22.22-.17.51-1.68,1.22-1.85.87-3.26,1.65-3.26,1.79,0,.05.14.23.3.4.4.4.77.39,1.65-.05,1.03-.52,2.22-.92,2.34-.8.06.06.12.33.15.61l.05.51-.71.65c-3.38,3.07-8.28,4.56-13.33,4.05h0Z"></path>
      <path id="Football_Stitch" fill="currentColor" d="m40.32,42.13c1.82-.13,3.47-.35,5.15-.68,2.25-.44,2.74-.66,2.37-1.04-.12-.12-.26-.11-.92.06-2.05.53-4.41.88-7.17,1.04-3.4.2-7.7-.21-10.89-1.04-.79-.21-1.04-.17-1.04.17,0,.22.53.4,2.19.75,3.53.73,7,.98,10.33.74Z"></path>
      <path id="Football_Laces" fill="currentColor" d="m34.94,37.02c.04-.07.07-.32.05-.56l-.03-.43.45-.05c.25-.03.46-.04.48-.03.02.01.06.23.11.48.07.39.11.46.33.46s.26-.05.29-.48l.03-.48.46-.04.46-.04.03.47c.03.42.06.47.29.47s.27-.05.31-.47c.03-.26.09-.46.13-.44.04.01.24.03.44.03.35,0,.36,0,.39.49.03.45.06.49.29.49s.27-.06.35-.5c.07-.37.13-.49.24-.44.08.03.29.06.45.06.29,0,.3.02.33.55.03.47.06.55.26.58.18.02.24-.03.29-.23.03-.15.08-.38.11-.51.05-.23.07-.24.51-.14.57.13.82.05.77-.26-.03-.19-.13-.25-.55-.34-.44-.09-.52-.15-.55-.36-.07-.53-.64-.6-.64-.09,0,.21-.13.23-.75.13-.35-.06-.39-.1-.39-.37,0-.17-.07-.33-.16-.36-.2-.08-.47.14-.47.39,0,.16-.08.19-.52.19-.5,0-.52,0-.52-.3,0-.34-.25-.5-.48-.31-.08.07-.14.23-.14.37,0,.23-.04.25-.52.25-.44,0-.52-.03-.52-.19,0-.25-.26-.47-.47-.39-.09.03-.16.19-.16.36,0,.28-.04.31-.47.37-.49.07-.68.02-.68-.19,0-.07-.05-.18-.12-.25-.18-.18-.5.04-.5.34,0,.14-.06.28-.13.3-.07.02-.33.09-.58.16-.37.1-.44.16-.42.35.03.21.09.23.65.23s.62.03.65.21c.09.57.14.68.33.68.11,0,.23-.06.28-.13h0Z"></path>
      <path id="Left_Circle" fill="currentColor" d="m3.48,45.17c-.82-3.31-1.06-5.6-.98-9.45.04-2.1.11-3.14.28-4.23,1.55-10.12,7.05-18.82,15.43-24.41,2.8-1.87,5.95-3.4,8.76-4.26l.45-.14-.29.38c-.62.81-1.17,1.73-1.6,2.68l-.45.99-1.73.87c-1.82.92-4.23,2.46-5.67,3.62-6.48,5.23-10.66,12.51-11.88,20.67-.29,1.93-.38,5.36-.2,7.54l.13,1.63-.85,2.74c-.47,1.51-.89,2.78-.93,2.82s-.24-.61-.45-1.45h0Z"></path>
      <path id="Right_Circle" fill="currentColor" d="m71.81,46.44c-.03-.11-.44-1.52-.9-3.13l-.83-2.92.1-.87c.13-1.15.13-4.67,0-6.03-1.11-11.28-7.98-21.15-18.15-26.1l-1.27-.62-.67-1.35c-.37-.74-.9-1.66-1.18-2.03-.28-.37-.5-.69-.49-.7.05-.05,2.24.76,3.34,1.23,2.99,1.27,5.76,2.94,8.5,5.13,1.32,1.05,4.13,3.86,5.16,5.15,5.59,7.02,8.32,15.39,7.87,24.12-.14,2.65-.74,6.36-1.29,7.95-.11.32-.14.35-.19.17h0Z"></path>
      <g id="Facemask_Holes">
        <path fill="currentColor" d="m36.14,26.82c-.42-.07-.8-.18-.84-.25-.11-.19-.67-3.34-.6-3.41.03-.03.47,0,.98.06s1.09.12,1.3.12h.38v3.63h-.23c-.13-.02-.58-.08-.99-.15h0Z"></path>
        <path fill="currentColor" d="m38.4,25.16v-1.8l.8-.06c.44-.03,1.07-.09,1.39-.13l.58-.07-.34,1.73c-.18.95-.37,1.76-.4,1.8-.06.06-1.5.32-1.85.33-.17,0-.18-.15-.18-1.8h0Z"></path>
        <path fill="currentColor" d="m34.09,26.39c-.06-.02-.51-.15-1.01-.3l-.9-.27-.2-.7c-.57-1.94-.73-2.56-.69-2.6.04-.04,2.2.38,2.31.45.07.04.72,3.39.67,3.42-.04.02-.11.02-.17,0h0Z"></path>
        <path fill="currentColor" d="m41.49,26.36s.12-.82.32-1.74l.36-1.67,1.13-.24c.62-.13,1.15-.22,1.18-.2.03.03-.16.77-.41,1.65-.43,1.52-.47,1.61-.77,1.73-.55.22-1.78.54-1.82.46h0Z"></path>
        <path fill="currentColor" d="m30.53,24.53c-.56-.63-1.38-2.27-1.22-2.43.02-.02.23-.01.45.03l.41.07.38,1.3c.21.72.36,1.32.34,1.35s-.19-.12-.36-.32Z"></path>
        <path fill="currentColor" d="m44.84,24.82c0-.07.74-2.56.77-2.6.01-.01.22-.05.46-.09l.44-.07-.07.3c-.1.41-.4,1.01-.91,1.78-.37.56-.69.89-.69.69Z"></path>
        <path fill="currentColor" d="m35.7,22.17c-.6-.05-1.12-.13-1.16-.17-.04-.04-.12-.32-.17-.63l-.1-.56.48.07c.26.04.88.09,1.36.12,1.42.09,1.37.07,1.33.7-.03.52-.04.54-.34.56-.17,0-.8-.03-1.4-.08h0Z"></path>
        <path fill="currentColor" d="m38.42,21.7l.03-.6.88-.06c.49-.03,1.17-.1,1.53-.14l.65-.08-.07.35c-.17.87-.16.86-.77.93-.31.04-.95.1-1.43.13l-.86.07.03-.6Z"></path>
        <path fill="currentColor" d="m32.74,21.76c-.23-.05-.75-.17-1.16-.25l-.74-.16-.07-.53c-.04-.29-.05-.55-.02-.58.06-.06,2.26.39,2.37.48.04.03.11.31.17.61.11.6.13.58-.55.43h0Z"></path>
        <path fill="currentColor" d="m42.48,21.33c.05-.3.13-.57.17-.61.07-.06,2.15-.51,2.34-.51.07,0,0,1.03-.09,1.12-.02.03-2.38.54-2.48.54-.02,0,0-.25.06-.55h0Z"></path>
      </g>
      <path id="Face" fill="currentColor" d="m46.24,14.55c-2.2-.92-6.92-1.46-10.38-1.19-2.58.2-4.22.49-5.79,1-.58.19-.81.31-.81.44,0,.3.85,4.11.94,4.21.18.2,3.17.79,4.98.99,1.25.14,5.24.05,6.51-.14,1.3-.2,3.01-.54,3.53-.71l.39-.13.96-4.33-.34-.14Zm-1.39,2.81c-.12.46-.26.89-.31.97-.1.17-.99.36-2.69.58-1.68.22-2.36.22-2.45,0-.15-.4-.18-1.24-.05-1.41.13-.16.23-.14,1.25.19l1.11.36.6-.27c.62-.28,1.28-.74,1.28-.88,0-.04-.23-.19-.52-.32-.29-.13-.52-.29-.52-.34,0-.06.37-.08.93-.05.51.03.93.01.93-.04,0-.16-.83-.7-1.39-.91-.45-.17-.65-.18-1.31-.1-.95.11-2.16.43-2.72.72l-.42.21.04,1.55.04,1.55h-1.56l.04-1.55.04-1.55-.42-.21c-.56-.29-1.77-.61-2.72-.72-.66-.08-.86-.06-1.31.1-.55.2-1.39.75-1.39.9,0,.05.45.07,1,.04,1.11-.06,1.17,0,.35.39-.29.14-.53.28-.53.33,0,.14.66.59,1.28.88l.6.27,1.11-.36c1.37-.44,1.42-.42,1.33.54-.04.37-.1.72-.14.78-.09.13-.57.11-2.36-.1-1.73-.21-2.65-.4-2.76-.58-.05-.08-.19-.51-.31-.96-.22-.82-.22-.83-.03-1.55l.19-.73.58-.13c1.75-.39,3.04-.5,6.17-.5,3.11,0,3.87.05,5.9.43,1.01.19.96.15,1.21,1.12.12.46.11.61-.09,1.35Z"></path>
      <path id="Leftside_Facemask" fill="currentColor" d="m28.7,18.66c-.03-.05-.18-.41-.32-.78-.27-.71-.34-1.85-.15-2.29.05-.11.09-.17.1-.13,0,.04.15.74.32,1.55s.31,1.53.31,1.61c0,.16-.17.19-.26.04h0Z"></path>
      <path id="Rightside_Facemask" fill="currentColor" d="m46.82,18.63c0-.08.09-.56.2-1.07.11-.51.26-1.21.33-1.55.16-.78.29-.55.3.53,0,.58-.05.89-.28,1.45-.27.66-.54.98-.54.65Z"></path>
      <path id="Helmet_BG" d="m26.58,15.57c-.42-.88-.43-.95-.43-1.95,0-2.23.52-5.09,1.24-6.77.33-.78.75-1.53,1.26-2.27.77-1.11,2.48-2.5,3.52-2.84.3-.1.52-.25.62-.44.47-.83,3.92-1.5,6.31-1.23,2.16.24,3.57.69,3.88,1.23.11.18.34.35.68.47,1.27.45,2.76,1.74,3.73,3.23,1.38,2.11,2.08,4.66,2.2,8.01l.06,1.66-.47.93-.47.93-.13-.78c-.32-1.95-.65-3.36-.85-3.66-.12-.17-.37-.37-.55-.44-.58-.24-2.05-.59-3.49-.82l-1.4-.22-.05-.67-.05-.67-.52-.09c-.68-.12-6.91-.12-7.58,0l-.52.09-.05.67-.05.67-1.44.24c-1.77.29-3.32.69-3.7.97-.41.29-.58.8-.95,2.83-.18.98-.33,1.8-.35,1.81-.01.01-.22-.38-.46-.88h0Z"></path>
      <path id="Top_of_Helmet" fill="currentColor" d="m30.52,5.01c.58-.26,2.2-.79,2.39-.79.07,0,.09.16.04.47-.04.26-.05.47-.02.47s.21-.09.4-.2c.28-.17.39-.35.6-.95.24-.69.29-.76.68-.94,1.69-.75,4.84-.75,6.54,0,.41.18.46.24.68.94.21.67.28.77.64.95l.4.2-.07-.47c-.05-.31-.03-.47.04-.47.19,0,1.81.54,2.39.79.31.14.59.25.62.25s-.15-.21-.4-.48c-.55-.57-1.51-1.27-2.23-1.63-.31-.15-.58-.38-.65-.54-.23-.51-2.29-1.15-4.07-1.27-2.08-.14-5.06.6-5.33,1.31-.07.18-.24.33-.46.41-.54.19-1.79,1.08-2.36,1.66-.28.29-.49.53-.45.53s.31-.11.62-.25Z"></path>
      <path id="Top_Facemask" d="m28.7,13.4c.21-.86.46-1.02,2.17-1.37,4.52-.93,9.32-.95,13.73-.06,1.76.35,2.08.5,2.32,1.02.3.65.27.69-.35.52-1.99-.54-4.36-.91-6.96-1.08-1.98-.13-4.24-.02-6.67.32-1.28.18-3.61.68-4.13.88-.16.06-.18.03-.12-.23h0Z"></path>
      <path id="Right_Dot" d="m34.66,10.76c-.3-.3-.27-.77.07-1.03.15-.12.35-.22.45-.22s.3.1.45.22c.53.42.23,1.24-.45,1.24-.17,0-.4-.09-.52-.21h0Z"></path>
      <path id="Left_Dot" d="m40.07,10.76c-.28-.28-.26-.68.05-.99.31-.31.57-.32.93-.04.53.42.23,1.24-.45,1.24-.17,0-.4-.09-.52-.21h0Z"></path>
      <path id="Plus" fill="currentColor" d="m49.01,60.91c0,.28-.01.4-.06.61-.26,1.09-1.16,1.89-2.27,2.02-.12.01-.52.02-3.12.02h-2.98v2.99c0,2.6,0,3-.02,3.12-.12,1-.81,1.86-1.76,2.19-.28.1-.5.13-.82.14-.13,0-.27,0-.29,0-.03,0-.11-.01-.18-.03-1.17-.19-2.07-1.13-2.21-2.3-.01-.12-.02-.53-.02-3.12v-2.99h-2.98c-2.6,0-3,0-3.12-.02-1.01-.12-1.87-.81-2.2-1.77-.1-.29-.13-.51-.13-.86,0-.28.01-.39.06-.62.23-.96,1-1.73,1.96-1.96.29-.07.01-.06,3.37-.07h3.04v-2.99c0-2.6,0-3,.02-3.12.12-1.01.81-1.86,1.77-2.2.29-.1.51-.14.86-.14s.57.03.86.14c.96.33,1.66,1.19,1.77,2.2.01.12.02.53.02,3.12v2.99h3.04c3.36,0,3.08,0,3.37.07.96.23,1.73,1,1.96,1.96.05.23.07.34.07.62Z"></path>
    </g>
    </svg>