<?xml version="1.0" encoding="UTF-8"?>
<svg id="Doctor" xmlns="http://www.w3.org/2000/svg" viewBox="0 0 88.91 72">
  <defs>
    <style>
       svg {
        color: green;
      }
      </style>
    </defs>
  <g id="Doc">
    <path id="Body" d="m6.5,69.2c.23-5.81.85-12.63,1.37-14.92.47-2.11,1.05-3.06,2.49-4.04,1.38-.94,4.45-2.56,4.57-2.41.04.05.22,1.31.4,2.8.43,3.53,1.26,6.15,2.76,8.63.91,1.5,1.22,2.34,1.22,3.31.01,1.56.49,2.49,1.66,3.26,2.86,1.88,6.55-.86,5.47-4.07-.53-1.58-1.7-2.37-3.79-2.55l-1.71-.15-1.11-2.26c-1.83-3.72-2.76-10.23-1.52-10.62.29-.09,2.06-.71,3.92-1.39,1.87-.67,3.57-1.22,3.77-1.22s.66.58,1,1.3c1.02,2.11,4.19,5.8,7.2,8.39,1.62,1.4,2.72,2.56,2.61,2.75-.11.19-.78,1.09-1.5,2.01s-1.3,1.77-1.3,1.89c0,.35,2.41-.98,5.11-2.83,5.34-3.66,10.49-8.85,12.12-12.21.35-.71.8-1.3,1-1.3s1.9.55,3.77,1.22c1.87.67,3.64,1.3,3.92,1.39.42.13.53.51.52,1.86,0,.93-.08,2.17-.18,2.75l-.17,1.05h-1.85c-3.04,0-4.88,1.23-9.26,6.19-1.26,1.43-2.46,3.1-2.66,3.71-.48,1.44-.19,2.9.75,3.78.41.39.75.89.75,1.11,0,.73,1.43,1.89,2.32,1.89,1.39,0,2.19-.76,2.19-2.1s-1.05-2.41-2.46-2.41c-1.03,0-1.37-.63-.9-1.66.55-1.21,5.04-6.01,6.55-7.02,1.67-1.11,3.11-1.22,4.54-.35,2.14,1.3,2.35,3.34.83,8.13-1.27,4.03-2.16,5.71-3,5.71-.45,0-.78-.22-.9-.6-.2-.62-1.58-1.5-2.35-1.5-.23,0-.78.28-1.22.62-.97.76-1.09,2.39-.23,3.24.67.67,4.89,1.15,6.1.69,1.31-.5,2.24-1.97,3.51-5.54,2.13-6.01,2.28-8.59.64-11.17l-.86-1.35.34-2.64c.19-1.45.37-2.68.41-2.74.11-.16,3.19,1.47,4.56,2.41.7.48,1.47,1.25,1.7,1.7,1.02,1.97,1.76,8.07,2.16,17.71l.2,4.89H6.29l.21-5.34Z"></path>
    <path id="Resonator" fill="currentColor" d="m21.77,63.94c-.32-.39-.46-.99-.4-1.65.02-.2.36-.58.77-.85.84-.55,1.73-.24,2.29.79.73,1.36-1.67,2.9-2.66,1.7h0Z"></path>
    <path id="Face" fill="currentColor" d="m58.04,24.04c-.09-1.55-.3-2.32-.88-3.21-.66-1-.73-1.32-.48-2.22.33-1.24.1-6.36-.4-8.72-.63-2.97-2.38-5.41-3.88-5.41-.17,0-.96-.49-1.74-1.1-1.89-1.45-4.01-2.37-6.8-2.94-3.74-.77-6.86-.55-11.02.79-6.55,2.11-9.76,5.36-10.95,11.15-.49,2.37-.58,5.22-.2,6.53.16.55.01,1.06-.55,1.92-.58.89-.79,1.66-.88,3.21-.19,3.29.92,5.71,3.14,6.85.37.19.91,1.05,1.29,2.07,2.33,6.23,7.04,11.24,11.64,12.4.64.16,2.23.24,3.54.18,1.98-.09,2.73-.29,4.55-1.19,3.71-1.84,7.28-6.25,9.2-11.39.38-1.01.92-1.88,1.29-2.07,2.22-1.14,3.33-3.56,3.14-6.85Zm-5.32,4.49c-.47,0-.71.36-1.08,1.65-.77,2.66-3.1,6.89-4.87,8.84-1.1,1.21-2.26,2.12-3.53,2.74-4.23,2.08-8.32,1.08-11.86-2.9-1.66-1.86-3.98-6.12-4.72-8.69-.37-1.29-.61-1.65-1.08-1.65-1.6,0-2.67-1.61-2.67-4.03,0-1.83.44-1.96,1.07-.33.34.88.7,1.36,1.03,1.36.42,0,.55-.39.7-2.18.22-2.58,1.15-5.45,2.88-8.89.96-1.9,1.38-2.46,1.73-2.32.26.1,1.1.33,1.86.52,1.82.44,2.12.75.97,1-2.66.58.07,1.25,3.81.93,4.23-.36,7.87-1.17,10.95-2.42.41-.17.76.29,1.77,2.3,1.76,3.5,2.69,6.35,2.89,8.89.14,1.79.27,2.18.69,2.18.34,0,.7-.47,1.04-1.36.62-1.63,1.07-1.5,1.07.33,0,2.42-1.06,4.03-2.66,4.03Z"></path>
    <path id="Glasses" d="m51.47,21.32c-.74-1.44-1.81-1.8-5.26-1.8-3.15,0-4.67.38-5.42,1.33-.44.55-.9.77-1.64.77s-1.2-.21-1.64-.77c-.76-.95-2.28-1.32-5.42-1.33-3.46,0-4.53.36-5.26,1.8-.81,1.6-.77,3.68.11,5.57.69,1.48,1.57,2.32,2.76,2.62,1.38.35,5.04.21,5.98-.24,1.19-.56,2.26-2.38,2.53-4.29.18-1.25.29-1.42.94-1.42s.77.16.95,1.42c.28,1.96,1.34,3.72,2.6,4.32,1.46.69,5.85.49,7.09-.33,2-1.32,2.88-5.32,1.69-7.66Zm-16.27,5.74c-.46.46-1,.57-2.75.56-1.2,0-2.42-.15-2.71-.32-1.23-.71-1.88-3.69-1.12-5.11.28-.52.65-.58,3.28-.58,3.42,0,3.87.12,4.24,1.1.37.96-.22,3.61-.95,4.34Zm13.28.26c-.32.17-1.53.31-2.7.31-2.56,0-3.11-.41-3.59-2.67-.36-1.68-.1-2.84.72-3.15.27-.11,1.84-.19,3.47-.19,2.63,0,3.01.07,3.28.58.78,1.45.09,4.44-1.17,5.12Z"></path>
    <path id="Circle" fill="red" d="m20.99,29.61c-1.69-2.54-4.31-4.29-7.28-4.88-1.5-.3-2.99-.3-4.5,0-3.8.75-6.99,3.42-8.41,7.03-1.22,3.09-1.03,6.54.5,9.49,1.79,3.44,5.28,5.79,9.1,6.11.2.02.41.04.47.04.24.02,1.45-.01,1.82-.06.96-.11,1.89-.33,2.72-.63,3.76-1.4,6.5-4.61,7.28-8.51.59-2.99-.01-6.07-1.7-8.59Zm.51,7.2c-.25,2.38-1.24,4.47-2.9,6.13-1.66,1.66-3.77,2.67-6.1,2.92-.36.04-1.6.05-1.86.02-.05,0-.21-.02-.36-.04-.39-.04-.88-.13-1.28-.23-3.62-.91-6.44-3.74-7.35-7.35-.19-.78-.26-1.31-.28-2.19-.02-1.07.06-1.83.31-2.79.97-3.76,4.12-6.7,7.94-7.39.78-.14,1.9-.2,2.64-.13,3.44.3,6.4,2.22,8.06,5.23.59,1.07.97,2.25,1.15,3.54.07.51.09,1.74.03,2.28Z"></path>
    <path id="Cross" fill="red" d="m19.62,33.3v5.04h-5.64v2.83s-.01,2.83-.01,2.83h-2.39c-1.32,0-2.45,0-2.51,0h-.12v-5.65H3.29v-5.04h5.64v-5.64h5.04v5.64h5.64Z"></path>
  </g>
</svg>