<?xml version="1.0" encoding="UTF-8"?>
<svg id="AddDrop" xmlns="http://www.w3.org/2000/svg" viewBox="0 0 72 82.74">
  <defs>
    <style>
      svg {
        color: green;
      }
    </style>
  </defs>
  <path id="Body" d="m71.39,57.79c-.1-.81-.03-2.02.16-2.95.57-2.81.59-5.78.07-8.07-.27-1.18-.47-2.66-.59-4.45-.1-1.36-.23-2.38-.37-2.83-.16-.53-.59-1.12-1.3-1.8-1.07-1.03-2.16-1.75-4.01-2.67-3.06-1.51-4.33-1.75-10-1.9-4.02-.1-5.56-.16-6.5-.27-.16.15-.34.28-.49.44-1.28,1.45-4.67,4.13-8.47,5.34-2.28.72-4.63.76-7.46-.12-5.18-1.61-7.35-3.45-9.29-5.51-1.18.18-2.83.26-3.43.14-.98-.21-4.97.42-7.93,1.24-4.28,1.19-7.11,2.58-9.06,4.44-1.13,1.1-1.41,1.86-1.57,4.27-.12,1.87-.38,3.64-.73,5.05-.28,1.08-.38,1.78-.41,2.86-.07,1.95.17,3.62,1.2,8.26l.49,2.18-.37,1.41c-.55,2.13-.64,2.94-.46,4.05.22,1.36.94,3.08,3.02,7.22,2.81,5.64,3.65,6.89,4.81,7.2,1.12.3,4.41.79,8.56,1.25.6.07,1.2.14,1.31.15.36.05,3.9-.01,4.85-.08,2.46-.17,3.92-.36,5.58-.71,2.77-.59,5.18-1.37,9.67-3.14,2.85-1.13,3.69-1.4,4.87-1.58,1.41-.22,2.43-.09,6.05.76,2.38.55,1.98.53,8,.53,4.82,0,5.35.01,5.76.11.66.15.92.14,1.21-.07.78-.56,1.75-2.04,3.33-5.02,2.18-4.13,3.5-7.51,3.85-9.85.14-.96.09-2.68-.13-4.2-.08-.61-.18-1.37-.22-1.68Zm-60.26-1.83c.47.02,2.2,1.52,4.07,1.3.95-.12,1.24.15.98-.19-.27-.33-.09-.34.66-.05,1.08.42,1.44.67,1.91,1.34,1.44,2.04,2.49,7,1.62,7.58-.18.11-.68.08-1.16-.09-.39-.13-.85-.59-1.16-1.15-.59-1.08-1.17-1.91-1.84-2.64l-.34-.37.4.86c.8,1.68.88,1.85.95,2.11.07.22.07.27-.02.36-.1.09-.14.09-.69-.04-.33-.08-.78-.16-1-.18-.37-.03-.4-.02-.33.07.05.05.22.13.4.17.72.17.94.33.87.63-.08.3.28.41,2.12.62,1.64.2,2.49.34,3.89.66,1.59.35,3.35.84,5,1.39,2.32.77,3.43,1.26,4.23,1.87,1.02.79,2.21,1.34,7.25,3.41,2.42,1,3.48,1.49,3.48,1.61-.04.14-1.57.86-3.18,1.5-3.8,1.51-8.11,2.96-10.3,3.46-1.42.32-2.68.44-5.8.55-1.91.07-5.82.08-5.87.03-.06-.05-1.89-.2-3.43-.27-3.52-.17-4.25-.34-5.22-1.22-.62-.57-1.12-1.37-2.11-3.36-1.26-2.54-1.97-4.29-2.31-5.74-.1-.43-.22-.83-.27-.89-.07-.11-.1-.09-.37.21-.36.39-.44.38-.66-.07-.33-.68-.38-1.02-.37-2.95,0-1.99.08-2.7.45-3.82.5-1.55,1.27-2.62,3.08-4.31,1.4-1.31,2.02-2.03,1.36-1.58-.25.16-.6.46-1.61,1.37-.83.75-1.13.91-1.69.91h-.43l.02.29c.03.49-.21.78-.58.71-.17-.03-.38-.52-.52-1.19-.15-.71-.12-.96.14-1.32.76-1.05,1.96-1.8,3.39-2.12.91-.2,2.88-.11,3.82.17.62.2-.41-.01.51.12m59.02,10.83c-.7,2.15-1.25,3.44-1.94,4.57-.24.39-.68,1.16-.97,1.72-1.21,2.27-1.36,2.53-1.64,2.91-.36.47-.71.74-1.12.86-.41.12-.68.11-1.57-.07-.96-.19-1.68-.24-2.27-.15-.25.03-.74.1-1.07.15-.81.13-2.58.27-3.81.31-2.08.08-2.41.08-3.03.03-1.2-.08-3.3-.58-5.34-1.27-1.87-.62-3.69-1.35-6.72-2.7-2.06-.91-3.58-1.56-6.15-2.62-2.37-.97-3.47-1.45-4.67-2.05-1.73-.87-2.6-1.53-2.4-1.84.06-.1.76-.28,1.65-.41.41-.06.74-.13.74-.15s-1.03-.18-2.29-.36c-2.96-.42-3.32-.49-3.34-.66-.02-.15.66-.86,1.46-1.53.69-.58,1.03-.8,1.33-.88.16-.04.31-.14.4-.25.08-.1.2-.26.28-.36.19-.25.78-.53,1.52-.72.5-.13.8-.17,1.63-.19,2.25-.07,4.02.35,9.47,2.23,3.12,1.08,5.72,1.86,5.94,1.78.11-.03-.65-.4-1.83-.87-.57-.23-1.06-.43-1.08-.45,0-.05,7.7-1.79,8.57-1.94,1.76-.3,4.68-.29,6.19.03.31.06.69.14.86.16.49.07.32-.1-.37-.36-.89-.34-1.17-.48-1.33-.64-.24-.26-.04-.42.81-.65l.53-.14-.4-.02c-.39-.01-.71.01-2.43.21-1.03.12-1.84.1-2.08-.06-.15-.09-.16-.13-.14-.36.02-.14.08-.41.13-.59.06-.19.13-.62.16-.97.03-.35.09-.74.12-.86.16-.58.77-.97,2.39-1.49,2.15-.7,2.97-.84,5.31-.92,1.8-.06,2.41-.14,2.91-.39.99-.5,2.45-.43,3.59.16.64.35,1.1,1.06,1.09,1.72,0,.26.02.3.17.38.52.27.97,1.28,1.33,3,.12.6.16.99.19,1.95.05,1.82-.07,2.56-.78,4.75Z"/>
  <g>
    <path id="Plus" fill="currentColor" d="m17.77,55.5c1.31-.24,2.36-1.32,2.58-2.64.04-.24.07-1.32.07-2.4v-1.96h2.11c2.8,0,3.18-.1,4.07-1.07,1.58-1.7.72-4.45-1.59-5.06-.27-.07-.97-.1-2.49-.1h-2.11s0-2,0-2c0-2.78-.14-3.34-1.08-4.2-.64-.59-1.11-.76-2.12-.76-.86,0-1.2.1-1.86.55-.43.3-.93,1.01-1.11,1.59-.14.45-.15.71-.15,2.65v2.16h-2.11c-2.3,0-2.71.05-3.35.43-1.08.63-1.71,1.94-1.52,3.16.21,1.35,1.23,2.39,2.58,2.64.22.04,1.3.08,2.4.08h2v2.12c0,1.9.02,2.17.15,2.61.35,1.13,1.2,1.91,2.36,2.16.54.12.65.12,1.15.03h0Z"/>
    <path id="Minus" fill="currentColor" d="m63.07,48.39c.34-.14.59-.32,1-.72.72-.72.9-1.15.9-2.22,0-.73,0-.79-.28-1.34-.46-.93-1.26-1.53-2.29-1.72-.58-.11-14.32-.12-14.97,0-1.38.23-2.42,1.26-2.65,2.63-.26,1.51.84,3.16,2.35,3.52.17.04,3.48.06,7.9.06h7.6s.46-.19.46-.19Z"/>
  </g>
  <g>
    <path id="Helmet" d="m51.33,15.32c-.26-.59-.46-1.42-.65-2.66-.4-2.59-1.02-4.17-2.51-6.4-.32-.47-.81-1.13-1.1-1.47-2.24-2.68-5.22-4.25-8.93-4.71-.99-.12-3.71-.1-4.63.04-3.07.45-5.54,1.76-7.89,4.19-1.2,1.23-2.13,2.51-2.89,3.97-.57,1.1-.8,1.84-1.03,3.26-.41,2.57-.54,3.11-.9,3.76-.33.58-.68,1.01-.68,2.85,0,2.24.33,2.5,1.03,3.94.48,1.02.95,2.24,1.22,3.22.56,2.06.71,2.54.95,3.16.14.37.36.87.48,1.11.11.23.26.57.32.75.07.21.63.86,1,1.35.3.38.67.68,1.11.89.95.44,2.79,1.1,5.08,1.18,2.23.09,4,.18,7.71-.02,1.57-.09,3.41.2,6.57-1.14.51-.21.89-.63,1.35-.98.17-.13.33-.29.45-.47.22-.34.53-.7.56-.75.56-1.39,1.03-2.73,1.41-3.98.54-1.83.75-2.7,1.3-3.62.81-1.37,1.25-1.67,1.35-3.9.09-2.07-.35-2.81-.68-3.57Zm-3.17,4.71c-.22,1.78-.62,2.38-1.8,2.7-1.77.48-8.75.82-14.4.7-2.1-.05-3.92-.21-5.18-.46-.94-.19-1.78-.51-2.12-.81-.02-.01-.04-.03-.06-.06-.02-.02-.04-.04-.05-.06-.01-.02-.03-.05-.05-.07-.01-.03-.02-.06-.04-.1-.03-.08-.06-.17-.09-.28-.02-.08-.05-.17-.07-.27s-.05-.22-.08-.34c-.05-.21-.1-.44-.14-.69-.03-.19-.06-.39-.1-.6-.06-.38-.12-.78-.17-1.19-.13-1.13-.11-1.63.11-1.87.04-.05.09-.09.15-.12.35-.18,1.23-.22,5.84-.28,4.81-.06,15.11.01,16.72.12.71.04,1.72.2,1.79.27.02.02-.2,2.98-.26,3.41Zm-.72,5.32c-.43,1.98-.81,2.99-1.43,3.8-.46.6-1.49,1.58-1.88,1.79-.3.16-.37.17-1.31.19-.55.01-1,0-1-.03s.05-.52.12-1.1c.11-.96.15-1.46.3-4.05.08-1.35-.03-1.24,1.56-1.62,1.57-.38,3.68-.86,3.79-.86s.03,1-.15,1.88Zm-6.79,5.91c-.09.15-1.86.27-5.5.37-1.28.03-2.61.07-2.96.09-.37.02-.56.01-.63-.02-.01-.01-.02-.02-.02-.03-.23-.7-.79-5.69-.75-6.64l.02-.43h5.22c2.88.01,5.25.03,5.27.05.04.04-.24,3.67-.37,4.86-.12,1-.22,1.65-.28,1.75Zm-13.7-1.01c-.1-.1-.2-.21-.29-.32-.1-.12-.19-.24-.29-.36-.09-.11-.17-.23-.25-.36-.01-.01-.02-.02-.02-.04-.1-.13-.18-.27-.25-.42-.17-.3-.32-.6-.46-.92-.23-.5-.4-1.03-.52-1.56-.02-.06-.03-.11-.04-.17-.12-.56-.34-2.56-.29-2.61.04-.01.27.04.53.1.28.08,1.39.34,2.47.59.74.17,1.4.33,1.75.42.09.02.16.04.2.06.03.01.05.02.05.02.03.03.08.29.15.66.01.09.03.19.05.3.03.21.07.44.09.68,0,.12.03.25.04.37.08.64.4,4.42.4,4.64,0,0,0,.01-.01.02-.07.07-.94.02-1.46-.09-.64-.13-.77-.19-1.19-.46-.12-.08-.25-.17-.37-.28-.1-.08-.19-.17-.29-.27Z"/>
    <g id="Stripes">
      <path id="L-Stripe" fill="currentColor" d="m33.53,10.21c.51-.27.24-1.28.24-3.66,0-2.78.16-5.27,0-5.46-.1-.11-.89-.41-1.12-.27-.47.29-.32,1.37-.32,5.66,0,2.91,0,3.43.09,3.52.18.22.39.51.67.36l.45-.15Z"/>
      <path id="R-Stripe" fill="currentColor" d="m39.3,10.15c.38-.1.6-.05.67-.67.08-.73.05-3.94-.03-5.43-.07-1.26-.23-2.7-.4-2.97-.13-.2-.85-.28-1.08-.2-.32.11-.17,2.61-.2,3.78-.05,1.84.15,4.93.28,5.27.04.1.34.28.49.28.03,0,.16-.03.28-.06h0Z"/>
    </g>
    <path id="Facemask" fill="currentColor" d="m50.27,15.15c-.35-.54-.75-1.07-.87-1.18-.68-.59-2.03-.97-4.42-1.23-1.42-.16-3.24-.28-3.54-.23l-.23.04.12-.31c.18-.45.16-.76-.05-.98-.35-.35-1.13-.43-4.39-.44-3.04-.01-5.23.12-5.82.36-.41.16-.44.36-.17.91.1.2.16.39.13.41-.08.08-.89.17-1.55.17-1.48,0-4.71.25-5.31.41-.52.13-.78.31-1.4.95-.66.68-.88.99-1.2,1.67-.44.96-.58,1.85-.53,3.47.02,1,.05,1.21.19,1.69.18.6.35.93.73,1.41.4.52.69,1.29,1.15,3.11.98,3.91,2.49,6.33,4.39,7.04.6.23,2.12.47,3.67.58.63.05,8.88-.02,9.97-.08,1.74-.1,2.64-.18,3.01-.29,1.28-.36,2.69-1.66,3.49-3.21.35-.68.83-2.03,1.18-3.34.63-2.33.94-3.22,1.38-3.93.73-1.19,1.11-2.72,1.05-4.31-.04-1.14-.14-1.42-.98-2.69Zm-20.01,16.2c-.07.07-.94.02-1.46-.09-.64-.13-.77-.19-1.19-.46-.12-.08-.25-.17-.37-.28-.1-.08-.19-.17-.29-.27-.1-.1-.2-.21-.29-.32-.1-.12-.19-.24-.29-.36-.09-.11-.17-.23-.25-.36-.01-.01-.02-.02-.02-.04-.1-.13-.18-.27-.25-.42-.17-.3-.32-.6-.46-.92-.23-.5-.4-1.03-.52-1.56-.02-.06-.03-.11-.04-.17-.12-.56-.34-2.56-.29-2.61.04-.01.27.04.53.1.28.08,1.39.34,2.47.59.74.17,1.4.33,1.75.42.09.02.16.04.2.06.03.01.05.02.05.02h.01s.08.29.14.66c.01.09.03.19.05.3.03.21.07.44.09.68.02.12.04.24.05.37.08.64.4,4.42.4,4.64,0,.01,0,.01-.02.02Zm10.67-1.84c-.12,1-.22,1.65-.28,1.75-.09.15-1.86.27-5.5.37-1.28.03-2.61.07-2.96.09-.37.02-.56.01-.63-.02-.01-.01-.02-.02-.02-.03-.23-.7-.79-5.69-.75-6.64l.02-.43h5.22c2.88.01,5.25.03,5.27.05.04.04-.24,3.67-.37,4.86Zm6.51-4.16c-.43,1.98-.81,2.99-1.43,3.8-.46.6-1.49,1.58-1.88,1.79-.3.16-.37.17-1.31.19-.55.01-1,0-1-.03s.05-.52.12-1.1c.11-.96.15-1.46.3-4.05.08-1.35-.03-1.24,1.56-1.62,1.57-.38,3.68-.86,3.79-.86s.03,1-.15,1.88Zm.72-5.32c-.22,1.78-.62,2.38-1.8,2.7-1.77.48-8.75.82-14.4.7-2.1-.05-3.92-.21-5.18-.46-.94-.19-1.78-.51-2.12-.81-.02-.01-.04-.03-.06-.06-.02-.02-.04-.04-.05-.06-.01-.02-.03-.05-.05-.07-.01-.03-.02-.06-.04-.1-.03-.08-.06-.17-.09-.28-.02-.08-.05-.17-.07-.27s-.05-.22-.08-.34c-.05-.21-.1-.44-.14-.69-.03-.19-.06-.39-.1-.6-.06-.38-.12-.78-.17-1.19-.13-1.13-.11-1.63.11-1.87.04-.05.09-.09.15-.12.35-.18,1.23-.22,5.84-.28,4.81-.06,15.11.01,16.72.12.71.04,1.72.2,1.79.27.02.02-.2,2.98-.26,3.41Z"/>
    <g id="Mask_Holes" data-name="Mask Holes">
      <path id="R-Hole" d="m38.63,12.85c-.25-.06-.56-.41-.61-.68-.06-.34.09-.69.38-.86.71-.43,1.54.27,1.22,1.03-.16.37-.6.6-.99.51h0Z"/>
      <path id="L-Hole" d="m32.72,12.57c-.72-.72.11-1.77,1.02-1.3.25.13.39.41.39.77,0,.4-.4.78-.83.78-.26,0-.36-.05-.58-.26Z"/>
    </g>
    <path id="R-Mask" d="m49.18,21.52c-.13-.13-.2-1.15-.07-2.07-.08-1.02-.03-2.37.2-2.53.25-.18.56-.11.69.16.19.36.79,2.1.25,3.3-.14.26.41.74-1.08,1.15Z"/>
    <path id="L-Mask" d="m22.07,20.71s-.19-1.08-.27-2.09c-.08-.98.33-1.46.53-1.66.24-.24.58-.18.74.12.19.37.59,3.81.34,4.3-.14.26-1.04.1-1.21-.07l-.13-.61Z"/>
    <path id="Stripe" d="m26.64,14.96c-.08-.08-.04-.33.08-.39.08-.04,3.12-.87,9.43-.87,10.02,0,9.57.79,9.53,1.12l-.02.15-9.48.02c-5.22,0-9.5,0-9.53-.03h0Z"/>
  </g>
</svg>