<?xml version="1.0" encoding="UTF-8"?>
<svg id="Icon-Logo-MMH" xmlns="http://www.w3.org/2000/svg" viewBox="0 0 72.05 98.54">
  <defs>
    <style>
      svg {
        color: green;
      }
    </style>
  </defs>
  <path id="Text_Board" fill="#FFFFFF" d="M65.8,41.8v32l-0.5,1c-0.3,0.5-1,1.5-1.7,2.2c-2.2,2.1-5.3,3.4-10.8,4.4
	c-4.7,0.9-7.9,1.8-10.7,3.2c-1.6,0.8-4.1,2.5-5.2,3.5c-0.5,0.4-0.8,0.8-0.9,0.8c0,0-0.5-0.4-1-0.9c-2.6-2.3-6.5-4.3-10.7-5.5
	c-1-0.3-3.2-0.8-5-1.1c-6.2-1.1-10-2.9-11.8-5.4c-1.3-1.8-1.2-0.7-1.2-18.3v-16l29.8,0.1L65.8,41.8z"></path>
    <path id="Outside_Border" stroke="#FFFFFF" fill="#FFFFFF" d="M69,10.8c-2.2,1.8-5.7,3.9-10.2,4.3c-8.8,0.8-17.8-5.1-22.8-15C35.6,0.7,30,13.2,17.3,14.7
	c-7,0.8-12.4-2.7-14.4-3.9H0v63.3c0.3,1.6,0.9,4,2.7,6.2c0.7,1,3,3.6,11.5,6.2c6.1,1.9,6.9,1.1,10.4,2.4c3.1,1.1,7.3,3.8,11.6,9.5
	c4-5.4,8.2-8,11.1-9.3c5.2-2.2,8.4-1.2,15.8-4.7c3.7-1.8,5.6-3.3,6.9-5.3c1.8-2.7,2.1-5.6,2.1-7.2V10.8H69z M69.7,44.2
	c-0.1,30.1-0.1,30.3-0.5,31.4c-1.1,2.8-3.5,5.4-6.7,7c-1.7,0.9-4.9,1.9-7.2,2.3c-1.2,0.2-3.2,0.6-4.3,0.8c-3.8,0.7-7.4,2.2-9.9,4
	c-1.2,0.9-3.5,3.2-4.5,4.5L36,94.7l-0.2-0.4c-0.5-1-2.6-3.2-4-4.2c-3.5-2.6-6.7-3.9-13.4-5c-4.7-0.8-8.2-2-10.8-3.8
	c-1.5-1.1-3.4-3.1-4.1-4.4c-1.1-2.4-1.1-0.6-1.1-33.1V13.9l1.3,0.8c3.7,2.2,8.6,3.2,12.7,2.8c7.3-0.8,14.8-5.2,18.7-10.9L36,5.2
	l1,1.4c3.6,5.1,10.2,9.3,16.9,10.6c1.8,0.3,6.3,0.3,8-0.1c2.6-0.6,6.4-2.1,7.4-3c0.2-0.2,0.4-0.3,0.4-0.3
	C69.7,13.9,69.7,27.5,69.7,44.2z"></path>
    <g id="Letters">
      <g>
        <path fill="#D50A0A" d="M9,69.2c0.8-0.1,0.9-0.8,0.9-1.8c0-4.8,0-9.1,0-16.2c0-1.6-0.1-2-0.9-2.2c0-1.4,0-2.1,0-3.6
			c2.3,0,3.4,0,5.7,0c1.2,7.2,1.8,10.8,3,18.1c0,0,0,0,0.1,0c1.3-7.2,1.9-10.8,3.1-18.1c2.2,0,3.4,0,5.6,0c0,1.4,0,2.1,0,3.6
			c-0.8,0.2-0.9,0.7-0.9,2.2c0,7.2,0,10.1,0,19.5c0,2.1,0.1,2.3,0.9,2.7c0,1.7,0,2.9,0,4.3c-2.1-0.5-3.7-1.1-5.4-1.5
			c0-1.3,0-2.4,0-4c0.7-0.1,0.9-0.3,0.9-2.1c0-7.3,0-10.2,0-16.5c0,0-0.1,0-0.1,0c-0.1,1.1-0.3,2.3-0.5,3.9
			c-1.3,7-1.2,11.9-3.1,18.6c-1-0.2-1.1-0.2-1.7-0.3c-1.3-7.7-1.9-11.8-3.2-19.1c-0.1-0.8-0.3-2.1-0.5-3c0,0,0,0-0.1,0
			c0,6.3,0,9.4,0,15.5c0,1.6,0.1,2.1,0.9,2.4c0,1.5,0,2.2,0,3.6C12,74,11,73.8,9,72.8C9,71.3,9,70.6,9,69.2z"></path>
        <path fill="#D50A0A" d="M29.1,74c0.7,0,0.8-0.3,0.8-2.4c0-9.7,0-13.2,0-20.4c0-1.6-0.1-2-0.9-2.2c0-1.4,0-2.1,0-3.6
			c2.3,0,3.4,0,5.7,0c1.2,7.2,1.8,10.1,3,20.4c0,0,0,0,0.1,0c1.3-10.8,1.9-13.1,3.1-20.3c2.2,0,3.4,0,5.6,0c0,1.4,0,2.1,0,3.6
			c-0.8,0.2-0.9,0.7-0.9,2.2c0,7.2,0,11,0,20.7c0,2.2,0.1,2.2,0.9,2.1c0,1.5,0,2.3,0,3.7c-2.1,0.6-3.2,1.6-5.3,2.1
			c0-1.5,0-2.6,0-4.4c0.8-0.4,0.9-0.6,0.9-2.7c0-8.5,0-13,0-19.3c0,0-0.1,0-0.1,0c-0.1,1.1-0.3,2.2-0.5,4.3
			c-1.3,9-1.9,15.4-3.2,23.3c-0.7,0.4-1,0.7-1.6,0.8c-1.3-7.3-1.9-17.3-3.2-25.3c-0.1-0.9-0.3-2.1-0.5-3.1c0,0,0,0-0.1,0
			c0,6.3,0,10.3,0,18.6c0,2.1,0.1,2.4,0.9,3.1c0,2.3,0,4.1,0,5.6c-1.9-1.2-2.7-0.7-4.4-1.7C29.2,77.4,29.2,76,29.1,74z"></path>
        <path fill="#D50A0A" d="M49.2,72.5c0.7-0.5,0.9-0.8,0.9-2.6c0-8.4,0-11.6,0-18.8c0-1.5-0.1-2-0.9-2.2c0-1.4,0-2.1,0-3.6
			c2.1,0,3.2,0,5.3,0c0,1.4,0,2.1,0,3.6c-0.7,0.2-0.8,0.5-0.8,1.8c0,2.7,0,4.1,0,6.8c2.1,0,3.1,0,5.2,0c0-2.7,0-4.1,0-6.8
			c0-1.2-0.1-1.6-0.8-1.8c0-1.4,0-2.1,0-3.6c2.1,0,3.2,0,5.3,0c0,1.4,0,2.1,0,3.6c-0.8,0.2-0.9,0.7-0.9,2.2c0,7.2,0,11.4,0,16.2
			c0,1,0.1,1.8,0.9,1.8c0,1.4,0,2.1,0,3.6c-1.6,1.5-3.6,2-5.2,2c0-1.4-0.1-2.2-0.1-3.6c0.6-0.2,0.7-0.5,0.7-1.7c0-3.2,0-4.7,0-7.9
			c-2.1,0-3.1,0-5.2,0c0,3.2,0,4.8,0,8c0,1.1,0,1.7,0.8,1.8c0,1.7,0.1,2.9,0.1,4.3c-4,1.3-3.3,0.8-5.5,1.1
			C49.2,75.4,49.2,74.3,49.2,72.5z"></path>
      </g>
    </g>
    <path id="Inner_Blue" fill="#013369" d="M69.7,13.9c0,0-0.2,0.1-0.4,0.3c-1,0.9-4.8,2.4-7.4,3c-1.8,0.4-6.3,0.4-8,0.1
	C47.2,16,40.5,11.8,37,6.6l-1-1.4L35,6.6c-3.9,5.7-11.3,10-18.7,10.9c-4.1,0.5-9-0.6-12.7-2.8l-1.3-0.8v29.9
	c0,32.4-0.1,30.7,1.1,33.1c0.7,1.3,2.6,3.4,4.1,4.4c2.6,1.8,6.1,3,10.8,3.8c6.7,1.1,9.9,2.4,13.4,5c1.4,1.1,3.5,3.3,4,4.2l0.2,0.4
	l0.5-0.7c1-1.3,3.3-3.6,4.5-4.5c2.6-1.8,6.2-3.3,9.9-4c1.1-0.2,3.1-0.6,4.3-0.8c2.4-0.4,5.5-1.5,7.2-2.3c3.2-1.6,5.6-4.2,6.7-7
	c0.4-1.1,0.4-1.2,0.5-31.4C69.7,27.5,69.7,13.9,69.7,13.9z M48.2,23l1.6-0.1l0.5-1.4c0.3-0.8,0.5-1.4,0.6-1.4s0.3,0.7,0.6,1.5L52,23
	h1.6l1.6,0l-0.8,0.6c-0.4,0.3-1,0.8-1.3,1.1l-0.5,0.4l0.4,1.4c0.2,0.8,0.4,1.4,0.4,1.5s-0.6-0.3-1.3-0.8l-1.3-0.9l-1.3,0.9
	c-0.7,0.5-1.3,0.9-1.3,0.9s0.1-0.7,0.4-1.5c0.3-0.8,0.5-1.5,0.5-1.6c0,0-0.6-0.5-1.3-1l-1.3-1L48.2,23z M48.2,33.4l1.6-0.1l0.5-1.4
	c0.3-0.8,0.5-1.4,0.6-1.4c0.1,0,0.3,0.7,0.6,1.5l0.5,1.5l1.6,0l1.6,0l-0.8,0.6c-0.4,0.3-1,0.8-1.3,1.1l-0.5,0.4l0.4,1.4
	c0.2,0.8,0.4,1.4,0.4,1.5c0,0.1-0.6-0.3-1.3-0.8l-1.3-0.9l-1.3,0.9c-0.7,0.5-1.3,0.9-1.3,0.9s0.1-0.7,0.4-1.5
	c0.3-0.8,0.5-1.5,0.5-1.6c0,0-0.6-0.5-1.3-1l-1.3-1L48.2,33.4z M27.7,26.2c1.5-4.4,4.9-7.8,9.4-9.2c1.6-0.5,4.5-1,5.5-0.9
	c0.5,0.1,0.5,0.1-0.5,0.6C41.5,17,40.5,17.6,40,18c-0.9,0.6-1.1,0.6-1.5,0.5c-0.4-0.2-0.6-0.1-1,0.1L36.9,19l1,0.3
	c0.5,0.2,1.3,0.6,1.7,0.9l0.8,0.5l0.5-0.4c0.4-0.3,0.4-0.4,0.2-0.6c-1.1-0.7-1.1-0.6,0.6-2c0.9-0.7,1.7-1.3,1.8-1.3
	c0.7,0.2,1.5,3.5,1.5,6.3c0,2.8-0.4,4.6-1.5,6.8c-2.2,4.4-6.4,7.3-12.7,8.5c-0.9,0.2-1.7,0.3-1.7,0.3c-0.7,0,1-5.1,2.8-8.7
	c0.4-0.8,0.8-1.4,0.8-1.4c0.1,0,0.4,0.2,0.7,0.4l0.5,0.4l0.3-0.5c0.3-0.5,0.3-0.5-0.6-1c-0.5-0.3-1.4-0.7-1.9-0.9
	c-1-0.3-1-0.3-1.3,0.1c-0.4,0.4-0.4,0.4,0.3,0.7c0.4,0.1,0.6,0.3,0.6,0.4c0,0.1-0.4,0.9-0.7,1.9c-0.6,1.6-1.7,5.5-2,7.3
	c-0.1,0.4-0.2,0.7-0.3,0.6c-0.1,0-0.4-0.8-0.6-1.7c-0.4-1.4-0.7-2.3-0.7-4.9C26.9,28,27.2,27.7,27.7,26.2z M18.5,23h1.5l0.5-1.5
	c0.3-0.8,0.6-1.4,0.6-1.4c0,0,0.3,0.7,0.5,1.4l0.5,1.4l1.7,0.1l1.7,0.1l-1.3,1c-0.7,0.5-1.3,1-1.3,1c0,0,0.2,0.7,0.5,1.5
	c0.3,0.8,0.5,1.5,0.4,1.5s-0.7-0.3-1.3-0.8l-1.2-0.9L20,27.2c-1,0.8-1.5,1-1.5,0.8c0,0,0.2-0.7,0.5-1.5l0.5-1.5l-1.2-0.9
	c-0.7-0.5-1.2-0.9-1.2-1C17,23,17.7,23,18.5,23z M18.5,33.4h1.6l0.5-1.5c0.3-0.8,0.5-1.4,0.6-1.4c0,0,0.3,0.7,0.5,1.4l0.5,1.4
	l3.3,0.2l-1.3,1c-0.7,0.5-1.3,1-1.3,1s0.2,0.7,0.5,1.6c0.3,0.8,0.5,1.6,0.4,1.6c-0.1,0-0.7-0.4-1.3-0.9l-1.3-1L20,37.7
	c-0.7,0.5-1.3,0.9-1.3,0.8c0,0,0.1-0.7,0.4-1.5l0.5-1.4l-1.1-0.9c-0.6-0.5-1.2-0.9-1.3-0.9c-0.1,0-0.1-0.1-0.1-0.2
	C17,33.5,17.6,33.4,18.5,33.4z M6.9,23h1.6l0.4-1.2c0.2-0.7,0.5-1.4,0.5-1.5c0.1-0.4,0.2-0.2,0.8,1.3l0.5,1.4l1.7,0.1l1.7,0.1
	l-1.3,1c-0.7,0.5-1.3,1-1.3,1c0,0,0.2,0.7,0.4,1.6c0.3,0.8,0.4,1.5,0.4,1.5s-0.7-0.4-1.3-0.9l-1.2-0.9l-1.2,0.9
	c-1.3,0.9-1.5,1-1.4,0.6C7,27.7,7.2,27,7.4,26.3l0.3-1.3l-0.7-0.6c-0.4-0.3-0.9-0.7-1.2-0.9c-0.3-0.2-0.5-0.4-0.5-0.5
	C5.3,23.1,6,23,6.9,23z M5.3,33.6c0-0.1,0.7-0.2,1.5-0.2h1.6l0.4-1.2c0.2-0.7,0.5-1.4,0.5-1.5c0.1-0.4,0.2-0.2,0.8,1.3l0.5,1.4
	l1.7,0.1l1.7,0.1l-1.3,1c-0.7,0.5-1.3,1-1.3,1c0,0,0.2,0.7,0.4,1.6c0.3,0.9,0.5,1.6,0.4,1.6c-0.1,0-0.6-0.4-1.3-0.9l-1.3-1l-1.2,0.9
	C7.6,38.2,7,38.6,7,38.5c0,0,0.1-0.7,0.3-1.4c0.2-0.7,0.4-1.4,0.4-1.5c0-0.1-0.5-0.6-1.2-1.1C5.9,34.1,5.3,33.7,5.3,33.6z
	 M65.8,73.8l-0.5,1c-0.3,0.5-1,1.5-1.7,2.2c-2.2,2.1-5.3,3.4-10.8,4.4c-4.7,0.9-7.9,1.8-10.7,3.2c-1.6,0.8-4.1,2.5-5.2,3.5
	c-0.5,0.4-0.8,0.8-0.9,0.8c0,0-0.5-0.4-1-0.9c-2.6-2.3-6.5-4.3-10.7-5.5c-1-0.3-3.2-0.8-5-1.1c-6.2-1.1-10-2.9-11.8-5.4
	c-1.3-1.8-1.2-0.7-1.2-18.3v-16l29.8,0.1l29.8,0V73.8z M65.6,34.5c-1.5,1.1-1.4,0.9-0.7,3c0.2,0.6,0.3,1,0.2,1c0,0-0.7-0.4-1.4-0.9
	l-1.2-0.9l-1.3,0.9c-0.7,0.5-1.3,0.9-1.4,0.9c0,0,0.1-0.6,0.4-1.4c0.2-0.8,0.5-1.5,0.5-1.6c0-0.1-0.6-0.6-1.3-1.2l-1.3-1h3.4L62,32
	c0.3-0.8,0.5-1.5,0.6-1.5s0.4,0.6,0.6,1.4l0.5,1.4l1.6,0.1l1.6,0.1L65.6,34.5z M65.6,24c-1.5,1.1-1.4,0.9-0.7,3c0.2,0.6,0.3,1,0.3,1
	c0,0-0.7-0.4-1.4-0.9l-1.3-0.9l-1.3,0.9c-0.7,0.5-1.3,0.9-1.3,0.9c-0.1,0,0.1-0.6,0.4-1.4c0.2-0.8,0.5-1.5,0.5-1.6
	c0-0.1-0.6-0.6-1.3-1.2l-1.3-1h3.4l0.5-1.5c0.3-0.8,0.5-1.5,0.6-1.5s0.4,0.6,0.6,1.4l0.5,1.4l1.6,0.1l1.6,0.1L65.6,24z"></path>
    <g id="Stars">
      <path id="Bottom_Right_Fill" fill="#FFFFFF" d="M65,37.5c0.2,0.6,0.3,1,0.2,1c0,0-0.7-0.4-1.4-0.9l-1.2-0.9l-1.3,0.9
		c-0.7,0.5-1.3,0.9-1.4,0.9c0,0,0.1-0.6,0.4-1.4c0.2-0.8,0.5-1.5,0.5-1.6c0-0.1-0.6-0.6-1.3-1.2l-1.3-1h3.4L62,32
		c0.3-0.8,0.5-1.5,0.6-1.5s0.4,0.6,0.6,1.4l0.5,1.4l1.6,0.1l1.6,0.1l-1.3,1C64.2,35.6,64.2,35.4,65,37.5z"></path>
      <path id="Bottom_Right_Outline" fill="#FFFFFF" d="M65,37.5c0.2,0.6,0.3,1,0.2,1c0,0-0.7-0.4-1.4-0.9l-1.2-0.9l-1.3,0.9
		c-0.7,0.5-1.3,0.9-1.4,0.9c0,0,0.1-0.6,0.4-1.4c0.2-0.8,0.5-1.5,0.5-1.6c0-0.1-0.6-0.6-1.3-1.2l-1.3-1h3.4L62,32
		c0.3-0.8,0.5-1.5,0.6-1.5s0.4,0.6,0.6,1.4l0.5,1.4l1.6,0.1l1.6,0.1l-1.3,1C64.2,35.6,64.2,35.4,65,37.5z"></path>
      <path id="Top_Right_Fill" fill="#FFFFFF" d="M65,27.1c0.2,0.6,0.3,1,0.3,1c0,0-0.7-0.4-1.4-0.9l-1.3-0.9l-1.3,0.9
		c-0.7,0.5-1.3,0.9-1.3,0.9c-0.1,0,0.1-0.6,0.4-1.4c0.2-0.8,0.5-1.5,0.5-1.6c0-0.1-0.6-0.6-1.3-1.2l-1.3-1h3.4l0.5-1.5
		c0.3-0.8,0.5-1.5,0.6-1.5s0.4,0.6,0.6,1.4l0.5,1.4l1.6,0.1l1.6,0.1l-1.3,1C64.2,25.1,64.2,25,65,27.1z"></path>
      <path id="Top_Right_Outline" fill="#FFFFFF" d="M65,27.1c0.2,0.6,0.3,1,0.3,1c0,0-0.7-0.4-1.4-0.9l-1.3-0.9l-1.3,0.9
		c-0.7,0.5-1.3,0.9-1.3,0.9c-0.1,0,0.1-0.6,0.4-1.4c0.2-0.8,0.5-1.5,0.5-1.6c0-0.1-0.6-0.6-1.3-1.2l-1.3-1h3.4l0.5-1.5
		c0.3-0.8,0.5-1.5,0.6-1.5s0.4,0.6,0.6,1.4l0.5,1.4l1.6,0.1l1.6,0.1l-1.3,1C64.2,25.1,64.2,25,65,27.1z"></path>
      <path id="Bottom_Right_Mid_Fill" fill="#FFFFFF" d="M53.1,35.2l-0.5,0.4l0.4,1.4c0.2,0.8,0.4,1.4,0.4,1.5c0,0.1-0.6-0.3-1.3-0.8
		l-1.3-0.9l-1.3,0.9c-0.7,0.5-1.3,0.9-1.3,0.9s0.1-0.7,0.4-1.5c0.3-0.8,0.5-1.5,0.5-1.6c0,0-0.6-0.5-1.3-1l-1.3-1l1.6-0.1l1.6-0.1
		l0.5-1.4c0.3-0.8,0.5-1.4,0.6-1.4c0.1,0,0.3,0.7,0.6,1.5l0.5,1.5l1.6,0l1.6,0l-0.8,0.6C54,34.4,53.4,34.9,53.1,35.2z"></path>
      <path id="Bottom_Right_Mid_Outline" fill="#FFFFFF" d="M53.1,35.2l-0.5,0.4l0.4,1.4c0.2,0.8,0.4,1.4,0.4,1.5c0,0.1-0.6-0.3-1.3-0.8
		l-1.3-0.9l-1.3,0.9c-0.7,0.5-1.3,0.9-1.3,0.9s0.1-0.7,0.4-1.5c0.3-0.8,0.5-1.5,0.5-1.6c0,0-0.6-0.5-1.3-1l-1.3-1l1.6-0.1l1.6-0.1
		l0.5-1.4c0.3-0.8,0.5-1.4,0.6-1.4c0.1,0,0.3,0.7,0.6,1.5l0.5,1.5l1.6,0l1.6,0l-0.8,0.6C54,34.4,53.4,34.9,53.1,35.2z"></path>
      <path id="Top_Right_Mid_Fill" fill="#FFFFFF" d="M53.1,24.7l-0.5,0.4l0.4,1.4c0.2,0.8,0.4,1.4,0.4,1.5s-0.6-0.3-1.3-0.8l-1.3-0.9
		l-1.3,0.9c-0.7,0.5-1.3,0.9-1.3,0.9s0.1-0.7,0.4-1.5c0.3-0.8,0.5-1.5,0.5-1.6c0,0-0.6-0.5-1.3-1l-1.3-1l1.6-0.1l1.6-0.1l0.5-1.4
		c0.3-0.8,0.5-1.4,0.6-1.4s0.3,0.7,0.6,1.5L52,23h1.6l1.6,0l-0.8,0.6C53.9,24,53.4,24.5,53.1,24.7z"></path>
      <path id="Top_Right_Mid_Outline" fill="#FFFFFF" d="M53.1,24.7l-0.5,0.4l0.4,1.4c0.2,0.8,0.4,1.4,0.4,1.5s-0.6-0.3-1.3-0.8l-1.3-0.9
		l-1.3,0.9c-0.7,0.5-1.3,0.9-1.3,0.9s0.1-0.7,0.4-1.5c0.3-0.8,0.5-1.5,0.5-1.6c0,0-0.6-0.5-1.3-1l-1.3-1l1.6-0.1l1.6-0.1l0.5-1.4
		c0.3-0.8,0.5-1.4,0.6-1.4s0.3,0.7,0.6,1.5L52,23h1.6l1.6,0l-0.8,0.6C53.9,24,53.4,24.5,53.1,24.7z"></path>
      <path id="Bottom_Left_Mid_Fill" fill="#FFFFFF" d="M24.3,34.5c-0.7,0.5-1.3,1-1.3,1s0.2,0.7,0.5,1.6c0.3,0.8,0.5,1.6,0.4,1.6
		c-0.1,0-0.7-0.4-1.3-0.9l-1.3-1L20,37.7c-0.7,0.5-1.3,0.9-1.3,0.8c0,0,0.1-0.7,0.4-1.5l0.5-1.4l-1.1-0.9c-0.6-0.5-1.2-0.9-1.3-0.9
		c-0.1,0-0.1-0.1-0.1-0.2c0-0.1,0.6-0.2,1.6-0.2h1.6l0.5-1.5c0.3-0.8,0.5-1.4,0.6-1.4c0,0,0.3,0.7,0.5,1.4l0.5,1.4l3.3,0.2
		L24.3,34.5z"></path>
      <path id="Bottom_Left_Mid_Outline" fill="#FFFFFF" d="M24.3,34.5c-0.7,0.5-1.3,1-1.3,1s0.2,0.7,0.5,1.6c0.3,0.8,0.5,1.6,0.4,1.6
		c-0.1,0-0.7-0.4-1.3-0.9l-1.3-1L20,37.7c-0.7,0.5-1.3,0.9-1.3,0.8c0,0,0.1-0.7,0.4-1.5l0.5-1.4l-1.1-0.9c-0.6-0.5-1.2-0.9-1.3-0.9
		c-0.1,0-0.1-0.1-0.1-0.2c0-0.1,0.6-0.2,1.6-0.2h1.6l0.5-1.5c0.3-0.8,0.5-1.4,0.6-1.4c0,0,0.3,0.7,0.5,1.4l0.5,1.4l3.3,0.2
		L24.3,34.5z"></path>
      <path id="Top_Left_Mid_Fill" fill="#FFFFFF" d="M24.3,24.1c-0.7,0.5-1.3,1-1.3,1c0,0,0.2,0.7,0.5,1.5c0.3,0.8,0.5,1.5,0.4,1.5
		s-0.7-0.3-1.3-0.8l-1.2-0.9L20,27.2c-1,0.8-1.5,1-1.5,0.8c0,0,0.2-0.7,0.5-1.5l0.5-1.5l-1.2-0.9c-0.7-0.5-1.2-0.9-1.2-1
		c0-0.1,0.7-0.1,1.5-0.1h1.5l0.5-1.5c0.3-0.8,0.6-1.4,0.6-1.4c0,0,0.3,0.7,0.5,1.4l0.5,1.4l1.7,0.1l1.7,0.1L24.3,24.1z"></path>
      <path id="Top_Left_Mid_Outline" fill="#FFFFFF" d="M24.3,24.1c-0.7,0.5-1.3,1-1.3,1c0,0,0.2,0.7,0.5,1.5c0.3,0.8,0.5,1.5,0.4,1.5
		s-0.7-0.3-1.3-0.8l-1.2-0.9L20,27.2c-1,0.8-1.5,1-1.5,0.8c0,0,0.2-0.7,0.5-1.5l0.5-1.5l-1.2-0.9c-0.7-0.5-1.2-0.9-1.2-1
		c0-0.1,0.7-0.1,1.5-0.1h1.5l0.5-1.5c0.3-0.8,0.6-1.4,0.6-1.4c0,0,0.3,0.7,0.5,1.4l0.5,1.4l1.7,0.1l1.7,0.1L24.3,24.1z"></path>
      <path id="Bottom_Left_Fill" fill="#FFFFFF" d="M12.6,34.5c-0.7,0.5-1.3,1-1.3,1c0,0,0.2,0.7,0.4,1.6c0.3,0.9,0.5,1.6,0.4,1.6
		c-0.1,0-0.6-0.4-1.3-0.9l-1.3-1l-1.2,0.9C7.6,38.2,7,38.6,7,38.5c0,0,0.1-0.7,0.3-1.4c0.2-0.7,0.4-1.4,0.4-1.5
		c0-0.1-0.5-0.6-1.2-1.1c-0.6-0.5-1.2-0.9-1.2-1c0-0.1,0.7-0.2,1.5-0.2h1.6l0.4-1.2c0.2-0.7,0.5-1.4,0.5-1.5
		c0.1-0.4,0.2-0.2,0.8,1.3l0.5,1.4l1.7,0.1l1.7,0.1L12.6,34.5z"></path>
      <path id="Bottom_Left_Outline" fill="#FFFFFF" d="M12.6,34.5c-0.7,0.5-1.3,1-1.3,1c0,0,0.2,0.7,0.4,1.6c0.3,0.9,0.5,1.6,0.4,1.6
		c-0.1,0-0.6-0.4-1.3-0.9l-1.3-1l-1.2,0.9C7.6,38.2,7,38.6,7,38.5c0,0,0.1-0.7,0.3-1.4c0.2-0.7,0.4-1.4,0.4-1.5
		c0-0.1-0.5-0.6-1.2-1.1c-0.6-0.5-1.2-0.9-1.2-1c0-0.1,0.7-0.2,1.5-0.2h1.6l0.4-1.2c0.2-0.7,0.5-1.4,0.5-1.5
		c0.1-0.4,0.2-0.2,0.8,1.3l0.5,1.4l1.7,0.1l1.7,0.1L12.6,34.5z"></path>
      <path id="Top_Left_Fill" fill="#FFFFFF" d="M12.6,24.1c-0.7,0.5-1.3,1-1.3,1c0,0,0.2,0.7,0.4,1.6c0.3,0.8,0.4,1.5,0.4,1.5
		s-0.7-0.4-1.3-0.9l-1.2-0.9l-1.2,0.9c-1.3,0.9-1.5,1-1.4,0.6C7,27.7,7.2,27,7.4,26.3l0.3-1.3l-0.7-0.6c-0.4-0.3-0.9-0.7-1.2-0.9
		c-0.3-0.2-0.5-0.4-0.5-0.5C5.3,23.1,6,23,6.9,23h1.6l0.4-1.2c0.2-0.7,0.5-1.4,0.5-1.5c0.1-0.4,0.2-0.2,0.8,1.3l0.5,1.4l1.7,0.1
		l1.7,0.1L12.6,24.1z"></path>
      <path id="Top_Left_Outline" fill="#FFFFFF" d="M12.6,24.1c-0.7,0.5-1.3,1-1.3,1c0,0,0.2,0.7,0.4,1.6c0.3,0.8,0.4,1.5,0.4,1.5
		s-0.7-0.4-1.3-0.9l-1.2-0.9l-1.2,0.9c-1.3,0.9-1.5,1-1.4,0.6C7,27.7,7.2,27,7.4,26.3l0.3-1.3l-0.7-0.6c-0.4-0.3-0.9-0.7-1.2-0.9
		c-0.3-0.2-0.5-0.4-0.5-0.5C5.3,23.1,6,23,6.9,23h1.6l0.4-1.2c0.2-0.7,0.5-1.4,0.5-1.5c0.1-0.4,0.2-0.2,0.8,1.3l0.5,1.4l1.7,0.1
		l1.7,0.1L12.6,24.1z"></path>
    </g>
    <g id="Football">
      <path id="Football_Fill" fill="#FFFFFF" d="M45,22.8c0,2.8-0.4,4.6-1.5,6.8c-2.2,4.4-6.4,7.3-12.7,8.5c-0.9,0.2-1.7,0.3-1.7,0.3
		c-0.7,0,1-5.1,2.8-8.7c0.4-0.8,0.8-1.4,0.8-1.4c0.1,0,0.4,0.2,0.7,0.4l0.5,0.4l0.3-0.5c0.3-0.5,0.3-0.5-0.6-1
		c-0.5-0.3-1.4-0.7-1.9-0.9c-1-0.3-1-0.3-1.3,0.1c-0.4,0.4-0.4,0.4,0.3,0.7c0.4,0.1,0.6,0.3,0.6,0.4c0,0.1-0.4,0.9-0.7,1.9
		c-0.6,1.6-1.7,5.5-2,7.3c-0.1,0.4-0.2,0.7-0.3,0.6c-0.1,0-0.4-0.8-0.6-1.7c-0.4-1.4-0.7-2.3-0.7-4.9c0-3,0.2-3.4,0.8-4.8
		c1.5-4.4,4.9-7.8,9.4-9.2c1.6-0.5,4.5-1,5.5-0.9c0.5,0.1,0.5,0.1-0.5,0.6C41.5,17,40.5,17.6,40,18c-0.9,0.6-1.1,0.6-1.5,0.5
		c-0.4-0.2-0.6-0.1-1,0.1L36.9,19l1,0.3c0.5,0.2,1.3,0.6,1.7,0.9l0.8,0.5l0.5-0.4c0.4-0.3,0.4-0.4,0.2-0.6c-1.1-0.7-1.1-0.6,0.6-2
		c0.9-0.7,1.7-1.3,1.8-1.3C44.2,16.8,45,20.1,45,22.8z"></path>
      <path id="Football_Outline" fill="#FFFFFF" d="M45,22.8c0,2.8-0.4,4.6-1.5,6.8c-2.2,4.4-6.4,7.3-12.7,8.5c-0.9,0.2-1.7,0.3-1.7,0.3
		c-0.7,0,1-5.1,2.8-8.7c0.4-0.8,0.8-1.4,0.8-1.4c0.1,0,0.4,0.2,0.7,0.4l0.5,0.4l0.3-0.5c0.3-0.5,0.3-0.5-0.6-1
		c-0.5-0.3-1.4-0.7-1.9-0.9c-1-0.3-1-0.3-1.3,0.1c-0.4,0.4-0.4,0.4,0.3,0.7c0.4,0.1,0.6,0.3,0.6,0.4c0,0.1-0.4,0.9-0.7,1.9
		c-0.6,1.6-1.7,5.5-2,7.3c-0.1,0.4-0.2,0.7-0.3,0.6c-0.1,0-0.4-0.8-0.6-1.7c-0.4-1.4-0.7-2.3-0.7-4.9c0-3,0.2-3.4,0.8-4.8
		c1.5-4.4,4.9-7.8,9.4-9.2c1.6-0.5,4.5-1,5.5-0.9c0.5,0.1,0.5,0.1-0.5,0.6C41.5,17,40.5,17.6,40,18c-0.9,0.6-1.1,0.6-1.5,0.5
		c-0.4-0.2-0.6-0.1-1,0.1L36.9,19l1,0.3c0.5,0.2,1.3,0.6,1.7,0.9l0.8,0.5l0.5-0.4c0.4-0.3,0.4-0.4,0.2-0.6c-1.1-0.7-1.1-0.6,0.6-2
		c0.9-0.7,1.7-1.3,1.8-1.3C44.2,16.8,45,20.1,45,22.8z"></path>
    </g>
    <g id="Stripes">
      <path id="Stripe_Bottom" fill="#013369" d="M34.4,26.3c-0.4-0.3-1.3-0.7-1.9-0.9c-0.6-0.2-1.1-0.4-1.1-0.4c0,0,0-0.3,0.2-0.5
		c0.2-0.5,0.5-0.6,1.8-0.1c0.7,0.2,2.6,1.4,2.6,1.6c0,0.1-0.2,0.3-0.3,0.5C35.2,26.9,35.2,26.9,34.4,26.3L34.4,26.3z"></path>
      <path id="Stripe_Middle" fill="#013369" d="M36,24.2c-0.4-0.3-1.3-0.8-1.9-1c-0.6-0.2-1.2-0.5-1.2-0.5s0.1-0.3,0.3-0.4
		c0.3-0.3,0.4-0.3,1-0.1c0.8,0.2,2.3,1,2.9,1.4c0.4,0.3,0.4,0.3,0,0.8c-0.2,0.3-0.3,0.5-0.4,0.5C36.8,24.7,36.5,24.5,36,24.2
		L36,24.2z"></path>
      <path id="Stripe_Top" fill="#013369" d="M37.6,22c-0.4-0.3-1.3-0.7-1.8-0.9c-1-0.3-1-0.4-0.7-0.7c0.2-0.2,0.5-0.4,0.7-0.4
		c0.4,0,2.5,0.9,3.2,1.4c0.4,0.3,0.4,0.3,0,0.7C38.5,22.7,38.6,22.7,37.6,22L37.6,22z"></path>
    </g>
</svg>