<?xml version="1.0" encoding="UTF-8"?>
<svg id="Layer_1" data-name="Layer 1" xmlns="http://www.w3.org/2000/svg" viewBox="0 0 84.11 72">
  <defs>
    <style>
      svg {
        color: green;
      }
    </style>
  </defs>
  <rect id="Front" fill="currentColor" x="2.49" y="47.36" width="79.08" height="16.18"/>
  <rect id="Sign" fill="currentColor" x="21.8" y="2.46" width="41.05" height="12.05"/>
  <path d="m0,49.89s0-.03,0-.04c.01-.02.03-.04.04-.06.16-.83.32-1.65.47-2.48.29-1.54.78-3.01,1.51-4.4.57-1.06,1.26-2.04,2.11-2.88.59-.58,1.25-1.09,1.88-1.63.25-.21.5-.42.76-.63-.44-.26-.85-.51-1.27-.76-.99-.59-1.95-1.23-2.71-2.12-.37-.44-.72-.89-.95-1.43-.19-.45-.24-.9-.08-1.37.21-.62.67-1,1.23-1.28.48-.24,1-.4,1.54-.44.53-.04,1.06-.12,1.6-.15.39-.02.79-.03,1.18,0,.31.03.62.13.79.43.12.22.24.45.35.67.27.52.54,1.03.81,1.55.03.06.12.14.15.13.08-.03.17-.09.19-.16.11-.32.19-.64.3-.96.35-1.09.7-2.18,1.05-3.27.34-1.05.68-2.1,1.03-3.15.41-1.25.8-2.5,1.22-3.75.41-1.23.95-2.41,1.62-3.53.47-.79,1.01-1.53,1.72-2.13.58-.5,1.22-.89,1.95-1.13.26-.09.47-.26.53-.55.03-.14.06-.29.06-.44,0-3.06-.02-6.11-.04-9.17,0-.39,0-.79,0-1.18,0-.5.12-.97.34-1.42.21-.44.52-.81.89-1.14.37-.33.79-.59,1.25-.76.31-.11.63-.19.95-.28.01,0,.03,0,.04,0,.08.01.16.04.24.04,12.85,0,25.7,0,38.55,0,.08,0,.16,0,.24,0,.02.01.03.03.05.03.54.09,1.03.28,1.51.55.77.43,1.28,1.07,1.6,1.87.29.73.38,1.48.36,2.26-.02.65-.01,1.3-.01,1.95,0,2.53,0,5.06.01,7.59,0,.06,0,.11,0,.18.26,0,.5,0,.75,0,.44.02.88.03,1.32.08.76.08,1.46.37,2.1.78.37.23.71.5,1.05.77.56.44,1.01.98,1.43,1.55.57.77,1.02,1.61,1.32,2.51.24.73.42,1.47.62,2.21.26.98.53,1.97.78,2.96.27,1.05.53,2.1.8,3.15.3,1.17.6,2.33.9,3.5.08.3.15.6.23.89.02,0,.03,0,.05.01.1-.17.21-.34.31-.52.28-.48.54-.96.83-1.43.18-.29.43-.52.76-.61.29-.08.6-.12.9-.12.42,0,.85.03,1.27.07.36.03.72.05,1.07.13.63.14,1.23.35,1.72.8.49.45.9.93.86,1.66-.02.3.02.59-.33.71,0,0,0,0-.01.01-.41.44-.81.88-1.23,1.31-.59.59-1.16,1.22-1.82,1.72-.8.6-1.68,1.08-2.53,1.62.03.05.09.13.14.21.53.79,1.08,1.57,1.69,2.3.41.48.81.98,1.17,1.5.63.91,1.18,1.87,1.59,2.91.28.71.49,1.45.66,2.2.15.66.29,1.33.43,1.99.08.35.22.7.22,1.04-.03,2.83.11,5.67-.06,8.5-.02.37-.07.73-.12,1.09-.09.73-.2,1.46-.27,2.2-.05.56-.08,1.12-.08,1.67-.01,1.54,0,3.07,0,4.61,0,.04,0,.08,0,.12.11.69,0,1.35-.35,1.96-.57,1-1.46,1.45-2.58,1.47-.4,0-.79-.03-1.19-.03-1.21,0-2.42-.01-3.62,0-1.9,0-3.81.02-5.71.02-.16,0-.33,0-.49-.04-.58-.13-1.08-.4-1.45-.89-.29-.38-.47-.81-.48-1.28-.02-.72,0-1.44-.01-2.17,0-.06,0-.11,0-.16H16.45c-.02.26-.05.51-.06.75,0,.2,0,.41,0,.61,0,.27.07.55.03.82-.12.77-.49,1.41-1.12,1.87-.42.31-.88.49-1.42.49-1.37-.01-2.74-.01-4.12-.02-.61,0-1.22,0-1.83,0-1.46,0-2.92,0-4.37,0-.33,0-.65,0-.97-.04-.85-.1-1.4-.6-1.8-1.32-.24-.43-.23-.9-.27-1.36-.03-.38-.03-.76-.04-1.13-.01-.4-.03-.81-.04-1.21-.01-.38-.03-.77-.04-1.15-.01-.4-.03-.81-.04-1.21-.01-.38-.03-.77-.04-1.15-.03-.8-.05-1.6-.08-2.4-.01-.36-.03-.73-.04-1.09-.01-.45-.04-.9-.04-1.35,0-.27-.02-.54-.12-.79,0-2.57,0-5.14,0-7.7,0-.05-.02-.1-.04-.14Zm72.49-14.27c-.19-.74-.38-1.46-.56-2.19-.3-1.19-.59-2.37-.88-3.56-.22-.89-.43-1.77-.66-2.66-.32-1.23-.65-2.46-.98-3.69-.24-.89-.57-1.74-1.1-2.5-.46-.65-1.03-1.18-1.72-1.57-1.05-.6-2.19-.85-3.38-.85-10.53-.01-21.06-.01-31.59-.01-2.59,0-5.19,0-7.78,0-.63,0-1.26.03-1.89.09-.58.06-1.14.24-1.66.5-.71.34-1.34.8-1.82,1.44-.28.37-.57.74-.8,1.14-.48.84-.8,1.76-1.12,2.66-.23.63-.43,1.26-.63,1.9-.24.76-.49,1.52-.72,2.29-.22.73-.43,1.47-.64,2.2-.24.83-.48,1.66-.73,2.49-.23.77-.46,1.54-.69,2.31h35.37c.6-1.88,1.68-3.44,3.21-4.66,1.52-1.21,3.27-1.93,5.22-2.07,2.09-.15,4.07.28,5.87,1.38,2.05,1.26,3.46,3.05,4.2,5.35h5.5Zm-7.25,20.55c.08,0,.14,0,.2,0,1.89,0,3.78,0,5.67-.01.31,0,.6-.05.87-.19.59-.31,1.11-.7,1.54-1.22.55-.67.94-1.41,1.16-2.24.2-.72.36-1.46.5-2.19.05-.26.09-.54-.09-.79-.21-.3-.53-.37-.85-.38-.63,0-1.27,0-1.9.04-.62.03-1.23.07-1.84.12-.41.03-.83.07-1.24.12-.47.06-.93.13-1.4.19-.57.07-1.14.12-1.71.2-.71.1-1.41.2-2.11.32-.9.15-1.78.34-2.58.83-.77.47-1.3,1.14-1.62,1.97-.19.49-.35,1-.46,1.51-.1.47-.02.92.34,1.29.45.46,1,.62,1.62.62,1.27,0,2.55,0,3.82,0,.02,0,.04,0,.07-.01,0-.04,0-.09.02-.15Zm-47.43.16s0,0,0,.01c.35,0,.71,0,1.06,0,1.09,0,2.18.01,3.27,0,.36,0,.73-.05,1.09-.12.38-.07.73-.24.99-.53.31-.35.38-.76.34-1.22-.06-.56-.22-1.08-.44-1.59-.45-1.01-1.21-1.71-2.21-2.16-.94-.42-1.94-.57-2.95-.64-.3-.02-.6-.05-.91-.08-.41-.05-.83-.11-1.24-.15-.4-.05-.79-.08-1.19-.12-.54-.06-1.08-.13-1.63-.19-.44-.05-.87-.08-1.31-.12-.53-.05-1.05-.11-1.58-.16-.18-.02-.36-.03-.54-.04-.34-.03-.68-.1-1-.07-.6.07-.91.43-.83,1.03.06.44.18.88.31,1.31.26.85.54,1.7.92,2.5.28.58.64,1.11,1.14,1.52.63.51,1.38.72,2.18.8.41.04.82.02,1.24.02,1.1,0,2.21,0,3.31,0ZM43.65,14.44c0-.19.03-.37,0-.55-.13-.57-.28-1.13-.43-1.7-.36-1.39-.72-2.78-1.08-4.17-.15-.59-.3-1.18-.46-1.77-.15-.58-.31-1.17-.46-1.75-.08-.3-.42-.6-.75-.57-.3.02-.6,0-.9,0-1.25,0-2.51,0-3.76,0-.04,0-.12.06-.13.11-.12.44-.23.87-.34,1.31-.22.82-.44,1.63-.65,2.45-.29,1.14-.57,2.28-.87,3.41-.27,1.03-.55,2.06-.82,3.1,1.01,0,2,0,2.99,0,.22,0,.4-.08.57-.19.06-.04.11-.13.13-.2.05-.16.07-.33.12-.48.08-.24.25-.4.5-.43.28-.02.56,0,.84,0,.41,0,.81.01,1.22,0,.35-.02.56.24.55.56-.01.55.33.97.92.94.54-.02,1.08-.05,1.62-.06.39,0,.79,0,1.18,0Zm5.79-7.49c-.39-.97-.76-1.88-1.13-2.8-.05-.13-.11-.17-.26-.17-1.2,0-2.39,0-3.59,0h-.18c.11.26.21.51.32.75.12.27.23.53.35.8.16.35.32.69.47,1.03.18.39.34.79.52,1.18.18.39.38.77.52,1.17.07.19.06.44-.01.63-.28.72-.61,1.43-.91,2.14-.37.87-.74,1.73-1.12,2.62.08,0,.14,0,.21,0,.91,0,1.83,0,2.74,0,.4,0,.71-.18.87-.53.29-.63.56-1.27.84-1.9.05-.12.11-.25.18-.4.1.24.18.44.27.63.23.55.46,1.1.7,1.65.17.38.44.57.89.57,1.05-.02,2.1,0,3.16,0,0-.03,0-.05-.01-.07-.62-1.46-1.23-2.92-1.86-4.38-.19-.44-.25-.86-.05-1.3.52-1.15,1.04-2.31,1.56-3.46.17-.37.34-.75.5-1.12-.11,0-.21,0-.31,0-.99,0-1.98,0-2.98,0-.24,0-.45.06-.56.3-.08.16-.16.33-.23.5-.19.46-.38.91-.57,1.37-.11.25-.23.51-.36.81Zm1.09,28.67h14.42c-.78-2.16-3.08-4.55-6.56-4.84-3.88-.32-6.78,2.05-7.86,4.84ZM24.48,3.95c0,.72,0,1.42,0,2.12,0,.09.04.18.09.26.19.34.51.44.87.44.44,0,.88,0,1.32,0,.25,0,.32.07.32.32,0,2.32,0,4.64,0,6.95v.22h.22c.97,0,1.93,0,2.9,0,.26,0,.31-.05.31-.32,0-2.38,0-4.77,0-7.15v-.23h2.44v-2.62h-8.48Zm31.61.08v10.29h3.36V4.03h-3.36ZM8.7,62.52c1.58,0,3.16,0,4.75,0,.55,0,.91-.35.92-.9,0-.22,0-.45,0-.67,0-.67-.34-1.01-1.01-1.01-2.98,0-5.96,0-8.94,0-.14,0-.28,0-.41,0-.6.01-.91.32-.91.92,0,.24,0,.49,0,.73-.03.58.36.94.93.93,1.56-.01,3.12,0,4.69,0Zm66.52,0c1.59,0,3.18,0,4.77,0,.53,0,.91-.48.89-.89-.01-.24-.02-.47,0-.71.04-.55-.38-.99-.99-.98-3.11,0-6.21,0-9.32,0-.11,0-.22.01-.33.03-.39.08-.64.39-.64.79,0,.34,0,.68,0,1.02,0,.06.02.12.04.18.15.4.45.55.87.55,1.57,0,3.14,0,4.71,0Zm-46.32-6.21h0v.67c0,.89,0,1.77,0,2.66,0,.4.24.76.73.74.53-.02,1.06,0,1.6,0,.11,0,.22-.02.31-.07.29-.14.39-.39.39-.7,0-.67,0-1.34,0-2.01,0-1.48,0-2.95,0-4.43,0-.56-.26-.8-.71-.82-.57-.03-1.14-.03-1.71,0-.34.02-.6.28-.6.62,0,1.12,0,2.23,0,3.35Zm6.21,0c0,1.12,0,2.23,0,3.35,0,.42.28.72.72.72.53,0,1.06,0,1.59,0,.41,0,.72-.3.72-.71,0-2.19,0-4.38,0-6.58,0-.45-.29-.76-.71-.77-.55-.01-1.1,0-1.65,0-.34,0-.69.32-.68.71.03,1.1,0,2.19,0,3.29Zm6.19-.01c0,1.11,0,2.22,0,3.33,0,.4.22.77.75.75.51-.01,1.02,0,1.54,0,.38,0,.74-.24.74-.73,0-2.2.01-4.4,0-6.6,0-.42-.2-.68-.61-.71-.62-.05-1.25-.04-1.87,0-.3.02-.55.27-.55.59,0,1.12,0,2.24,0,3.37Zm11.65.09c0,1.08,0,2.15,0,3.23,0,.52.24.76.75.76.51,0,1.03-.01,1.54,0,.48.02.72-.37.74-.74,0-.14,0-.29,0-.43,0-2.01,0-4.02,0-6.03,0-.61-.34-.88-.84-.85-.48.02-.96,0-1.44,0-.51,0-.75.24-.75.75,0,1.1,0,2.21,0,3.31Zm-5.47-.08h0c0,1.11,0,2.22,0,3.33,0,.38.27.77.74.75.52-.03,1.04-.03,1.56,0,.4.02.74-.31.74-.74,0-2.21,0-4.43,0-6.64,0-.36-.3-.67-.66-.67-.6,0-1.2,0-1.79,0-.28,0-.58.32-.58.59,0,1.13,0,2.26,0,3.39Z"/>
  <path id="Mirror" fill="currentColor" d="m42.03,23.84c-1.35,0-2.71,0-4.06,0-.51,0-.94-.2-1.34-.51-.49-.39-.74-.92-.84-1.51-.1-.6.08-1.16.43-1.66.3-.43.72-.73,1.24-.85.24-.05.49-.09.73-.09,2.57,0,5.15-.01,7.72,0,.98,0,1.74.43,2.16,1.34.54,1.19.08,2.58-1.22,3.13-.28.12-.57.17-.88.17-1.31,0-2.63,0-3.94,0Z"/>
  <path d="m37.56,10.17c.25-.94.49-1.86.74-2.78.19-.03.26.04.3.21.14.69.3,1.38.45,2.07.03.16.06.33.09.5h-1.57Z"/>
</svg>