<?xml version="1.0" encoding="UTF-8"?>
<svg id="svg866" xmlns="http://www.w3.org/2000/svg" viewBox="0 0 80.62 72">
  <defs>
    <style>
      svg {
        color: green;
      }
    </style>
  </defs>
  <path d="m76.92,18.31c-2.35-4.35-6.24-8.85-10.1-11.7-11.8-8.68-28.53-8.83-40.38-.36-3.49,2.49-7.61,6.97-9.76,10.6-.71,1.2-1.23,1.75-1.78,1.86-1.09.22-6.55,5.52-6.81,6.62-.11.49-.04,1.32.17,1.9.31.86.3,1.11-.09,1.53-.89.99-1.12,2.11-.67,3.2.23.55.7,1.16,1.03,1.33.34.18,2.2.33,4.18.33h3.58l2.3,4.87c1.27,2.69,2.3,5.1,2.3,5.37-.01,1.05-.94,2.7-1.69,2.98-.41.16-4.27.29-8.56.29-8.64,0-9.12.09-10.09,1.88-.75,1.4-.73,8.72.03,12.05,1.05,4.51,3.8,9.88,5.45,10.63,1.16.53,2.9.39,7.05-.57,5.63-1.31,10.16-2.9,14.94-5.24l4.31-2.11,2.48.82c1.36.46,3.44,1,4.62,1.2l2.15.37,1.16-.89c.64-.48,2.37-1.79,3.84-2.91,1.47-1.11,4.03-2.7,5.68-3.52,2.9-1.44,3.12-1.5,6.82-1.81,4.12-.35,9.26-.06,13,.73,1.24.25,2.3.32,2.7.17.84-.32,3.44-4.66,3.44-5.74,0-.56-.38-1.18-1.19-1.96l-1.2-1.15.73-2.37c.85-2.71,1.96-8.92,1.96-10.91,0-1.09.19-1.56,1.06-2.56.9-1.06,1.05-1.45,1.04-2.75,0-2.96-1.66-8.4-3.7-12.18Zm-5.18-2.63c.27-.26,1.69,3.27,2.45,6.08.41,1.48.82,3.6.92,4.7.17,1.74.11,2.14-.47,3.08-.37.59-.89,1.2-1.17,1.35-.46.26-.52-.16-.68-4.72-.1-2.76-.41-6.21-.69-7.67-.28-1.46-.44-2.73-.36-2.82Zm-50.04,22.8c-1.11-2.36-2.02-4.41-2.02-4.57s1.07-.29,2.42-.29h2.42l1.94,4.08c1.06,2.24,1.93,4.24,1.93,4.43,0,.29-3.89,2.51-4.52,2.58-.09,0-.16-.43-.16-.96,0-.58-.82-2.72-2.01-5.27Zm-1.68-9c2.15.07,2.5.16,2.89.76l.45.67h-2.71c-2.19,0-2.74-.09-2.89-.47-.37-.96-.16-1.05,2.26-.96Zm-9.43.69c.45-.62.79-.74,2.1-.75,1.25,0,1.63.11,1.88.58.17.31.31.65.31.75,0,.09-1.09.16-2.42.16h-2.41l.54-.74Zm16.04,18.35c-1.94,2.68-2.05,2.77-4.09,3.51-2.25.81-2.56.89-2.56.64,0-.09.41-.96.91-1.95.89-1.77.94-1.81,4.23-3.46,1.84-.92,3.37-1.63,3.42-1.58.05.05-.81,1.33-1.91,2.84Zm-9.5,3.41l-1.06,2.1H6.69l.19-1.39c.11-.77.2-1.71.2-2.1v-.71h11.11l-1.06,2.1Zm-13.01.12c-.09,1.87-.14,1.98-.83,1.98s-.72-.04-.53-1.73c.18-1.68.7-2.7,1.21-2.39.14.09.21,1.05.15,2.14Zm-.5,4.68c.65,0,.75.14.75,1.02,0,1.79,1.41,6.64,2.67,9.15.86,1.73,1.09,2.44.79,2.44-.23,0-.76-.44-1.18-.98-1.7-2.24-3.78-8.07-3.78-10.62,0-.87.1-1.01.75-1.01Zm6.01,9.15c-1.14-2.23-2.55-6.95-2.55-8.48,0-.65.08-.67,3.82-.67h3.83l-.1,1.29c-.08.96.25,2.24,1.31,5.12.78,2.1,1.35,3.89,1.28,3.96-.31.31-4.66,1.3-5.48,1.25-.8-.05-1.02-.32-2.11-2.47Zm9.03-3.43c-1.51-4.09-1.52-4.17-1.05-5.21.25-.54.88-.89,2.6-1.43l2.26-.71.48.74c1.12,1.71,3.01,3.81,4.45,4.94.85.66,1.55,1.29,1.57,1.4.03.29-8.68,4.28-8.88,4.06-.03-.03-.67-1.73-1.43-3.79ZM37.37,7.24c1.1-.37,5.62-.41,7.08-.05l.9.21-.84.35c-.47.19-1.01.35-1.21.35s-1.03.33-1.85.73c-1.24.6-1.99.73-4.28.75-1.57.01-2.78-.1-2.78-.27,0-.42,1.81-1.68,2.98-2.07Zm14.75,38.78c-2.82,2.66-6.21,5.01-7.22,5.01-.45,0-1.38-.41-2.07-.91-1.94-1.41-2.08-1.99-1.01-4.28,1.18-2.5,1.97-3.03,5.46-3.63,5.06-.87,6.93-.6,6.93.99,0,.67-.46,1.28-2.09,2.82Zm24.69,4.59c.61.58,1.11,1.27,1.11,1.54,0,.45-.74,1.86-2.3,4.36-.81,1.28-.85,1.29-4.3.66-3.28-.6-10.03-.87-12.84-.52-1.2.15-2.08.17-1.95.04.38-.37,5.86-2.29,8.49-2.96,1.33-.34,3.8-.83,5.49-1.07,3.35-.51,4.27-.93,4.82-2.23l.36-.87,1.12,1.05Z"></path>
    <path fill="currentColor" d="m77.92,52.15c0,.45-.74,1.86-2.3,4.36-.81,1.28-.85,1.29-4.3.66-3.28-.6-10.03-.87-12.84-.52-1.2.15-2.08.17-1.95.04.38-.37,5.86-2.29,8.49-2.96,1.33-.34,3.8-.83,5.49-1.07,3.35-.51,4.27-.93,4.82-2.23l.36-.87,1.12,1.05c.61.58,1.11,1.27,1.11,1.54Z"></path>
    <path id="Facemask" fill="currentColor" d="m.89,49.29c.85-1.65,1.11-1.69,10.39-1.86l8.56-.16,4.4-2.18c2.42-1.2,4.48-2.38,4.57-2.62.15-.4-5.14-12.06-5.88-12.98-.23-.28-1.92-.38-6.56-.38-5.6,0-6.28-.05-6.54-.52-.18-.33-.19-.71,0-1.05.26-.48.85-.53,6.46-.53,7.71,0,7.77.02,9.32,3.26,5.5,11.49,5.71,12.09,4.73,13.49-.56.81-8.34,4.78-10.48,5.35-1.07.29-3.69.4-9.05.41-6.31,0-7.6.08-7.92.45-.2.25-.44,1.33-.53,2.4l-.16,1.95h15.01l5.97-2.13c6.46-2.3,7.84-2.53,8.93-1.51.53.5.9.6,1.65.45,1.14-.23,3.56.57,4.3,1.43.47.53.47.71.05,2.15-.25.86-.78,1.91-1.17,2.32-.49.52-.66.97-.54,1.43.51,1.95-1.3,3.46-8.37,6.97-4.52,2.24-9.75,4.06-15.54,5.39-4.28.98-5.26,1.06-6.27.5-1.75-.97-4.32-6.23-5.29-10.84-.69-3.28-.71-9.89-.03-11.2Zm6.94,20.06c.3,0,.07-.71-.79-2.44-1.25-2.51-2.66-7.36-2.66-9.15,0-.88-.1-1.01-.75-1.01s-.75.14-.75,1c0,2.55,2.08,8.39,3.78,10.62.41.54.94.98,1.17.98Zm10.83-6.89c.76,2.05,1.4,3.76,1.43,3.79.2.22,8.91-3.77,8.88-4.06-.01-.11-.71-.74-1.56-1.4-1.44-1.13-3.33-3.23-4.45-4.94l-.48-.74-2.27.71c-1.72.54-2.35.89-2.6,1.43-.47,1.04-.46,1.12,1.05,5.21Zm-2.72.68c-1.06-2.87-1.39-4.15-1.31-5.12l.1-1.28h-3.83c-3.75,0-3.83.02-3.83.66,0,1.54,1.42,6.25,2.55,8.48,1.09,2.15,1.32,2.42,2.11,2.47.82.05,5.17-.93,5.48-1.24.08-.08-.5-1.86-1.28-3.97Z"></path>
    <path d="m9.24,56.43c3.85,0,7.6-.15,8.34-.32.74-.17,3.88-1.2,6.97-2.28,3.43-1.2,5.84-1.89,6.16-1.77.44.17.34.31-.59.84-1.14.65-2.03,2.07-2.03,3.22,0,2.5,3.03,4.09,5.42,2.86.83-.43.89-.42.89.11,0,.39-.68.98-2.18,1.87-5.99,3.56-12.9,6.3-19.89,7.89-4.56,1.04-5.05,1.02-5.99-.2-1.71-2.24-3.38-6.84-3.91-10.79l-.2-1.43h7Zm19.73,5.75c-.01-.11-.71-.74-1.56-1.4-1.44-1.13-3.33-3.23-4.45-4.94l-.48-.74-2.27.71c-1.72.54-2.35.89-2.6,1.43-.47,1.04-.46,1.12,1.05,5.21.76,2.05,1.4,3.76,1.43,3.79.2.22,8.91-3.77,8.88-4.06Zm-17.23,6.17c.82.05,5.17-.93,5.48-1.24.08-.08-.5-1.86-1.28-3.97-1.06-2.87-1.39-4.15-1.31-5.12l.1-1.28h-3.83c-3.75,0-3.83.02-3.83.66,0,1.54,1.42,6.25,2.55,8.48,1.09,2.15,1.32,2.42,2.11,2.47Zm-5.08.01c.41.54.94.98,1.17.98.3,0,.07-.71-.79-2.44-1.25-2.51-2.66-7.36-2.66-9.15,0-.88-.1-1.01-.75-1.01s-.75.14-.75,1c0,2.55,2.08,8.39,3.78,10.62Z"></path>
    <path fill="currentColor" d="m7.24,66.27c-1.26-2.71-2.01-5.2-2.43-8.13l-.21-1.45.99.1c.99.1,1,.1,1.38,2.4.44,2.65,1.51,5.65,2.81,7.92.95,1.66.89,1.86-.55,1.91-.59.02-.89-.4-1.99-2.75h0Z"></path>
    <path fill="currentColor" d="m16.3,62.96c-1.87-5.19-1.88-6.23-.06-6.23.97,0,.99.03.83,1.03-.17,1.04-.02,1.57,1.67,6.11l.93,2.49-.67.27c-.37.15-.81.28-.97.29-.17,0-.94-1.77-1.73-3.96h0Z"></path>
    <path fill="currentColor" d="m22.99,54.96c0-.11.9-.5,2.01-.86l2.01-.65-1.48,1.5-1.48,1.5-.53-.65c-.29-.36-.53-.74-.53-.85h0Z"></path>
    <path d="m32.44,58.81c.5-.15,1.71-.71,2.7-1.25,1.58-.86,1.86-1.15,2.34-2.44.3-.8.46-1.7.37-1.99-.18-.57-2.3-1.5-3.4-1.5-.97,0-4.73,1.96-5.29,2.76-.98,1.4-.39,3.53,1.19,4.28.54.26,1.03.45,1.08.44.06-.01.51-.15,1.01-.3h0Z"></path>
    <path fill="currentColor" d="m29.91,57.45c-.83-1.05-.79-2.07.11-2.98.9-.9,1.93-.94,2.98-.11.99.78,1.08,2.39.19,3.28s-2.5.8-3.28-.19Z"></path>
    <path fill="currentColor" d="m32.72,57.17c1.21-1.21-.22-3.29-1.78-2.58-.4.18-.82.68-.92,1.11-.38,1.51,1.6,2.59,2.71,1.48Z"></path>
    <path d="m31.25,56.73c-.11.18-.33.24-.48.14s-.18-.34-.06-.53c.12-.19.18-.62.13-.94-.08-.49-.02-.52.34-.22.24.2.65.29.91.19.44-.17.49.22.23,1.63-.01.06-.21-.05-.44-.24-.29-.24-.48-.25-.62-.03h0Z"></path>
    <path fill="currentColor" d="m43.29,57.92c-1.12-.88-1.12-2.68,0-3.56.44-.34,1.09-.62,1.46-.62s1.03.28,1.46.62c1.12.88,1.12,2.68,0,3.56-.44.34-1.09.62-1.46.62s-1.03-.28-1.46-.62Z"></path>
    <path d="m45.79,56.76c.17-.32.22-.82.12-1.13-.13-.38-.1-.46.13-.25.18.17.38.64.45,1.05.12.66.14.64.18-.18.08-1.8-2.06-2.66-3.36-1.36-.35.35-.49.64-.31.64s.5-.2.7-.45c.42-.51,1.67-.61,1.95-.15.11.18-.16.23-.72.11-.77-.15-.96-.06-1.26.6-.28.61-.27.88.03,1.24.53.64,1.73.57,2.1-.12h0Z"></path>
    <path fill="currentColor" d="m44.15,56.14c0-.86.95-1.22,1.23-.47.27.71-.11,1.43-.71,1.32-.33-.06-.53-.37-.53-.84Z"></path>
    <path fill="currentColor" d="m45.01,56.53c.34-.34.21-.69-.26-.69-.25,0-.45.13-.45.28,0,.38.47.65.71.41Z"></path>
    <path fill="currentColor" d="m4.48,52.91c.1-.62.19-1.57.19-2.12,0-.94.06-.99.98-.9.54.05.94.2.9.32-.04.12-.08,1.04-.08,2.03v1.8h-2.18l.19-1.13Z"></path>
    <path fill="currentColor" d="m17.64,51.8c.71-1.45,1.15-1.98,1.72-2.12.42-.1,1.01-.25,1.3-.34.91-.27-1.22,3.71-2.17,4.06-1.78.66-1.88.47-.86-1.6h0Z"></path>
    <path fill="currentColor" d="m32.23,45.7l4.59-4.42-.75-.9c-1.2-1.43-.87-2.55.74-2.55,1.26,0,2.78-1.21,3.22-2.56.36-1.11,1.06-1.94,1.62-1.94.13,0,.6.41,1.05.91l.81.91,1.59-1.57,1.59-1.57.78.73.78.73-1.73,1.54-1.73,1.54.81.97c.45.53.81,1.06.81,1.17-.01.58-.65,1.03-1.83,1.29-1.62.36-2.9,1.53-3.15,2.87-.2,1.05-1.07,1.77-1.7,1.41-.2-.11-.64-.45-.97-.74-.59-.52-.68-.46-4.05,2.73-2.73,2.59-3.64,3.28-4.35,3.3-.5.02-1.17.15-1.5.29-1.41.61-.96.05,3.39-4.14h0Z"></path>
    <path d="m40.63,43.48c.2-.2.37-.55.37-.77,0-1.42,1.83-3.08,3.4-3.08.4,0,.9-.2,1.1-.45.45-.54.18-1-2.17-3.58-1.81-1.99-2.43-2.07-2.75-.37-.23,1.25-1.95,2.9-3.02,2.9-2.19,0-2.15.79.19,3.45,1.97,2.25,2.31,2.47,2.88,1.9h0Z"></path>
    <path fill="currentColor" d="m21.1,45.04l.47-1.18-3.23-6.85c-1.77-3.77-3.3-7.02-3.38-7.24-.12-.29.13-.37.94-.3l1.09.1,3.15,6.6c3.67,7.69,3.84,8.48,2.03,9.44-1.54.81-1.59.79-1.06-.56Z"></path>
    <path fill="currentColor" d="m18.83,32.56c-.19-.42-.35-.86-.35-.98,0-.16,3.86-.23,4.83-.09.17.03.87,1.4.87,1.69,0,.07-1.13.14-2.5.14-2.39,0-2.52-.03-2.85-.76Z"></path>
    <path fill="currentColor" d="m8.41,32.58c-.92-.92-.96-2.21-.1-3.29.58-.74.68-.77,1.15-.34.28.26.7.47.92.47.26,0,.14.28-.32.77-1.02,1.08-.43,1.36,2.67,1.26,2.39-.07,2.52-.04,2.92.67.23.41.42.85.43.97,0,.12-1.55.23-3.46.23-3.28,0-3.51-.04-4.2-.74Z"></path>
    <path fill="currentColor" d="m8.6,25.16c.51-1.24,6.32-6.61,6.72-6.21.06.06-.29,1.06-.78,2.22s-1.11,2.88-1.38,3.83l-.48,1.73h-1.45c-1.13,0-1.53.13-1.83.61-.36.59-.39.57-.77-.34-.31-.76-.32-1.14-.03-1.82h0Z"></path>
</svg>