<?xml version="1.0" encoding="UTF-8"?>
<svg id="Player" xmlns="http://www.w3.org/2000/svg" viewBox="0 0 76.29 72">
  <defs>
    <style>
      svg {
        color: green;
      }
    </style>
  </defs>
  <g id="Research">
    <path d="m23.04,35.68v10.28h7.3v-10.28h-7.3Zm9.29,2.99v7.3h7.3v-7.3h-7.3Zm14.4-20.32c-.05-.04-9.8,1.59-9.89,1.66-.07.05.47,3.12.57,3.22.07.07,2.48-.29,4.11-.61.42-.08,0,.47-3.05,4.04-1.94,2.27-3.63,4.23-3.74,4.36-.17.19-.92,0-4.54-1.22l-4.33-1.44-2.23,1.08c-1.23.6-2.23,1.13-2.23,1.18,0,.09,1.32,2.77,1.42,2.88.03.03.8-.29,1.71-.72l1.66-.78,4.7,1.58,4.7,1.58.62-.69c.34-.38,2.32-2.68,4.4-5.12,2.08-2.44,3.82-4.43,3.87-4.44.05,0,.23.76.39,1.69.47,2.72.2,2.44,2.01,2.12.86-.15,1.6-.32,1.65-.36.08-.08-1.66-9.92-1.77-10.01Zm-5.28,15.17v12.44h7.3v-12.44h-7.3Zm0,0v12.44h7.3v-12.44h-7.3Zm3-8.62c.05,0,.23.76.39,1.69.47,2.72.2,2.44,2.01,2.12.86-.15,1.6-.32,1.65-.36.08-.08-1.66-9.92-1.77-10.01-.05-.04-9.8,1.59-9.89,1.66-.07.05.47,3.12.57,3.22.07.07,2.48-.29,4.11-.61.42-.08,0,.47-3.05,4.04-1.94,2.27-3.63,4.23-3.74,4.36-.17.19-.92,0-4.54-1.22l-4.33-1.44-2.23,1.08c-1.23.6-2.23,1.13-2.23,1.18,0,.09,1.32,2.77,1.42,2.88.03.03.8-.29,1.71-.72l1.66-.78,4.7,1.58,4.7,1.58.62-.69c.34-.38,2.32-2.68,4.4-5.12,2.08-2.44,3.82-4.43,3.87-4.44Zm-12.12,21.06h7.3v-7.3h-7.3v7.3Zm-9.29,0h7.3v-10.28h-7.3v10.28Zm53.08-27.16c-.16-1.28-.74-3.83-.9-4-.04-.04-.85,0-1.81.07l-1.73.15-.58-1.25c-.32-.68-.77-1.55-1-1.92l-.42-.67,1.08-1.28c.76-.91,1.05-1.37.98-1.59-.17-.53-2.76-3.08-4.23-4.16-1.26-.93-2.98-1.94-3.06-1.8-.04.07-1.77,2.15-2.01,2.43-.16.18-.35.15-1.06-.12-.48-.19-1.4-.48-2.06-.65l-1.2-.31-.14-1.74-.14-1.75-.6-.1c-1.85-.31-6.08.03-8.13.65l-.89.27.12,1.77.12,1.78-1.04.49c-.57.27-1.43.73-1.9,1.01l-.85.51-1.36-1.15-1.36-1.14-.62.49c-1.1.87-3.31,3.28-4.1,4.47l-.77,1.15-2.02.1c-1.95.09-4.28.55-6.04,1.17-.38.14-1.31.27-2.07.28l-1.37.04-.64-1.06c-.35-.58-.8-1.23-1-1.44l-.35-.38.6-1.22.6-1.22-.36-.33c-1.1-1-3.44-2.19-4.79-2.45l-.61-.11-.59,1.18-.59,1.18h-1.31c-.72,0-1.52.04-1.79.1-.46.09-.54.02-1.2-1-.39-.6-.8-1.09-.9-1.09-.71,0-3.82,1.91-4.82,2.97l-.48.51.75,1.12.75,1.13-.4.6c-.22.33-.58,1.04-.8,1.58l-.39.97-1.27.1c-.7.06-1.35.19-1.46.3-.31.32-.24,4.22.1,5.33l.28.92,1.38-.07,1.38-.07.32.72c.18.4.6,1.08.95,1.51l.62.79-.6,1.2-.6,1.2.48.39c1.22.99,3.38,2.06,4.89,2.43.37.09.47.03.64-.4.33-.79.32-.52-.02,1-.18.78-.37,2.42-.42,3.67l-.1,2.26-.56.3-.56.3-1.22-1.22-1.22-1.21-1.13.8c-1.45,1.03-3.59,3.16-4.61,4.61l-.8,1.13,1.2,1.21,1.2,1.21-.29.56c-.16.31-.53,1.16-.81,1.89l-.52,1.33-1.68.05q-1.67.05-1.77.5c-.54,2.59-.54,5.61,0,8.21l.1.46h3.4l.3.95c.17.53.52,1.39.79,1.93l.49.98-1.2,1.21-1.2,1.21.81,1.13c1.04,1.46,2.99,3.43,4.47,4.51l1.16.85,1.19-1.19,1.19-1.18,1.13.51c.62.28,1.46.62,1.88.76l.75.25.05,1.74.05,1.74,1.11.18c2.12.35,3.76.4,5.6.2,2.72-.31,2.57-.18,2.57-2.13v-1.64l1.04-.38c.57-.21,1.4-.56,1.85-.78l.81-.41,1.21,1.2,1.21,1.21.94-.63c1.26-.83,3.7-3.2,4.72-4.58.45-.61.82-1.18.82-1.26s-.51-.66-1.14-1.28l-1.14-1.13.5-1.12.5-1.12,1.88-.19c4.22-.43,8.01-1.89,11.43-4.42.64-.47,1.26-.98,1.39-1.13.35-.42.55-.35,1.4.53.71.72.76.83.52,1.03-.44.37-.74,1.1-.74,1.81,0,.81-.53.14,8.01,10.11,3.56,4.16,6.67,7.7,6.91,7.86.52.35,1.37.38,1.97.06.25-.13,1.75-1.54,3.33-3.14l2.88-2.91-.08-.87c-.08-.8-.16-.94-.98-1.71-1.74-1.62-15.94-13.94-16.29-14.14-.79-.44-1.77-.23-2.64.59l-.46.43-1.69-1.69.85-1.08c.46-.59,1.25-1.78,1.75-2.63.5-.86.98-1.64,1.07-1.74.08-.1.59-.23,1.12-.29.53-.06,1.56-.27,2.27-.46l1.3-.35-.1-1.18c-.06-.65-.14-1.45-.19-1.77-.08-.58-.07-.59.79-.95.48-.2,1.36-.66,1.95-1.01l1.07-.64,1.33,1.13c1.15.97,1.38,1.1,1.67.95.18-.1,1.01-.86,1.84-1.68,1.53-1.53,2.93-3.37,3.65-4.77l.4-.78-1.32-1.1c-.73-.61-1.32-1.13-1.32-1.16s.26-.84.58-1.79c.32-.95.58-1.85.58-1.99,0-.33.26-.4,2.09-.53l1.51-.11.1-.85c.15-1.27.13-3.18-.06-4.7Zm-63.95-3.05c0-.93.07-1.21.5-1.9,1.26-2.04,3.93-2.48,5.73-.93.88.75,1.3,1.68,1.3,2.85,0,1.55-.93,2.97-2.35,3.56-.75.31-2.18.32-2.87.03-1.47-.64-2.31-1.94-2.32-3.6Zm12.65,40.66c-.55.36-1.48.81-2.07,1-2.06.64-4.58.35-6.42-.73-2.64-1.55-4.25-4.95-3.76-7.97.26-1.59,1.11-3.29,2.18-4.33.79-.77.87-.81,1.05-.52,2.41,3.97,4.53,6.29,7.61,8.34,1.06.7,2.91,1.73,3.44,1.91.37.12-.85,1.51-2.02,2.29Zm30.79-17.29c-1.38,4.6-4.51,8.71-8.67,11.4-2.51,1.62-5.78,2.73-8.99,3.06-1.86.19-2.15.19-4,0-7.94-.84-14.78-6.31-17.3-13.82-.66-1.98-.94-3.52-1.03-5.82-.51-12.88,11.13-23.07,23.85-20.88,7.38,1.27,13.63,6.61,15.98,13.67.76,2.28,1.01,3.88,1,6.47,0,2.56-.17,3.74-.83,5.94Zm7.38-16.02c-.42,2.03-1.88,4.15-3.61,5.26-.94.6-1.02.62-1.02.2,0-.8-.94-3.45-1.91-5.41-1.32-2.67-2.72-4.54-4.99-6.69l-1.76-1.66.88-.51c2.55-1.47,5.54-1.56,8.14-.24.48.24,1.36.93,1.96,1.54,2.04,2.04,2.87,4.76,2.29,7.52Zm-21.55,22.86h7.3v-12.44h-7.3v12.44Zm3-21.06c.05,0,.23.76.39,1.69.47,2.72.2,2.44,2.01,2.12.86-.15,1.6-.32,1.65-.36.08-.08-1.66-9.92-1.77-10.01-.05-.04-9.8,1.59-9.89,1.66-.07.05.47,3.12.57,3.22.07.07,2.48-.29,4.11-.61.42-.08,0,.47-3.05,4.04-1.94,2.27-3.63,4.23-3.74,4.36-.17.19-.92,0-4.54-1.22l-4.33-1.44-2.23,1.08c-1.23.6-2.23,1.13-2.23,1.18,0,.09,1.32,2.77,1.42,2.88.03.03.8-.29,1.71-.72l1.66-.78,4.7,1.58,4.7,1.58.62-.69c.34-.38,2.32-2.68,4.4-5.12,2.08-2.44,3.82-4.43,3.87-4.44Zm-12.12,21.06h7.3v-7.3h-7.3v7.3Zm-9.29,0h7.3v-10.28h-7.3v10.28Z"/>
    <path id="Handle" fill="currentColor" d="m72.52,64.7c-.16-.15-3.54-3.09-7.51-6.54-3.97-3.45-7.39-6.42-7.59-6.61l-.38-.34-1.16,1.15c-.64.63-1.16,1.21-1.16,1.28s3.04,3.68,6.75,8.02l6.75,7.89,2.29-2.29c2.15-2.15,2.27-2.3,2-2.56Z"/>
    <rect x="23.04" y="35.68" width="7.3" height="10.28"/>
    <rect x="32.33" y="38.67" width="7.3" height="7.3"/>
    <path d="m40.58,29.34c-2.08,2.43-4.05,4.74-4.4,5.12l-.62.69-4.7-1.58-4.7-1.58-1.66.78c-.91.43-1.68.76-1.71.72-.1-.11-1.42-2.79-1.42-2.88,0-.05,1.01-.58,2.23-1.18l2.23-1.08,4.33,1.44c3.63,1.21,4.37,1.41,4.54,1.22.11-.12,1.8-2.09,3.74-4.36,3.05-3.56,3.47-4.12,3.05-4.04-1.63.32-4.05.68-4.11.61-.1-.1-.64-3.17-.57-3.22.09-.07,9.84-1.7,9.89-1.66.11.09,1.85,9.93,1.77,10.01-.05.05-.79.21-1.65.36-1.81.32-1.55.6-2.01-2.12-.16-.93-.33-1.69-.39-1.69-.05,0-1.79,2-3.87,4.44Z"/>
    <rect x="41.45" y="33.52" width="7.3" height="12.44"/>
    <g id="Stats">
      <rect fill="currentColor" x="23.04" y="35.68" width="7.3" height="10.28"/>
      <rect fill="currentColor" x="32.33" y="38.67" width="7.3" height="7.3"/>
      <rect fill="currentColor" x="41.45" y="33.52" width="7.3" height="12.44"/>
      <path fill="currentColor" d="m48.5,28.36s-.79.21-1.65.36c-1.81.32-1.55.6-2.01-2.12-.16-.93-.33-1.69-.39-1.69-.05,0-1.79,2-3.87,4.44-2.08,2.43-4.05,4.74-4.4,5.12l-.62.69-4.7-1.58-4.7-1.58-1.66.78c-.91.43-1.68.76-1.71.72-.1-.11-1.42-2.79-1.42-2.88,0-.05,1.01-.58,2.23-1.18l2.23-1.08,4.33,1.44c3.63,1.21,4.37,1.41,4.54,1.22.11-.12,1.8-2.09,3.74-4.36,3.05-3.56,3.47-4.12,3.05-4.04-1.63.32-4.05.68-4.11.61-.1-.1-.64-3.17-.57-3.22.09-.07,9.84-1.7,9.89-1.66.11.09,1.85,9.93,1.77,10.01Z"/>
    </g>
  </g>
</svg>