<?xml version="1.0" encoding="UTF-8"?>
<svg id="Icon-Add-Drop" xmlns="http://www.w3.org/2000/svg" viewBox="0 0 72 82.53">
  <defs>
    <style>
      svg {
        color: green;
      }
    </style>
  </defs>
  <g id="Player">
      <g id="Body">
        <g id="Arms">
          <path id="Right_Arm" fill="#C89D7C" d="m6.7,53.98l4.95,1.54c.07.24-2.79,1.5-2.24,4.15-.03.08-.76.44-1.07.96-.45.77-1.23,5.17-.11,6.82,2.23,3.27,7.35-.35,10.07-1.23,5.47-1.76,10.69-1.35,16.3-1.7,4.85-.31,5.31-2.03,4.85,3.36l-.27.37c-10.72,5.39-15.12,10.83-28.55,11.72-4.8-5.78-7.62-19.24-3.94-25.99Z"></path>
          <path id="Left_Arm" fill="#C89D7C" d="m65.61,53.98c3.81,6.81.91,20.11-3.94,25.99-7.85-.18-14.92-4.21-21.57-8.04l7.19-4.21c1.31-.21,4.86.57,6.18,1.07,3.01,1.12,3.66,3.28,7.35,2.88,4.1-.45,3.88-5.02,2.08-7.72-1.68-2.52-5.92-3.95-8.63-5.11,3.37-2.61,7.24-3.9,11.35-4.85Z"></path>
          <path id="Right_Hand" fill="currentColor" d="m44.09,59.84c2.31-.21,17.61,1.45,17.9,5.01-1.4-.79-2.94-1.45-4.53-1.76,1.5.7,3.65,2.04,4.58,3.41,1.36,2.01-.12.26-1.86-.69-.89-.48-2.05-.96-3.04-1.23,1.43.74,3.65,2.14,4.47,3.52,1.53,2.55-1.02-.31-2.82-1.33-.33-.19-1.74-.87-2.02-.96-3.02-1,.1.34,1.65,2.18.19.23,1.22,1.52,1.01,1.65-2.57-1.18-5.11-2.67-7.88-3.3-7.02-1.59-5.58.95-11.51,2.98.54-3.88-1.36-8.99,4.05-9.48Z"></path>
          <path id="Left_Hand" fill="currentColor" d="m23.53,63.35c-5.34.89-10.9,4-11.51,4.05-.34.03-2.78-.52-2.93-1.01-.51-1.69,1.79-.49,4.05-.85q-2.16-.67-4.31-1.33c-.28-.06.15-1.25.21-1.28.28-.15,5.45,1.07,6.18,1.28.46-.02.91-.79,1.23-1.07-.82-.19-6.63-1.13-6.87-1.38-.1-.1.37-1.05.43-1.07.36-.13,6.57,1.34,7.51,1.49.37-.4.72-.8,1.12-1.17l-7.67-1.38c-.33-.11.01-1.13.11-1.17.4-.2,7.85,1.23,8.74,1.92.75-.35,1.14-.53,1.52-.71-1.2-.21-3.03-.86-3.65-1-1.44-.3-4.2-.95-5.65-1.17.04-.13.92-1.68.96-1.7.57-.33,8,2.43,9.25,3.45.21-.1.46-.21.76-.36,1.17.75,2.29,1.6,3.14,2.72,1.67,2.19.94,1.16-2.61,1.76Z"></path>
        </g>
        <g id="Jersey">
          <path d="m35.89,72.09c4.83,2.61,9.39,5.76,14.54,7.72-7.03,3.21-17.3,3.42-24.66,1.44-.27-.07-4.13-1.34-3.84-1.49.06-.03.69-.07,1.28-.32,4.52-1.89,8.48-4.88,12.68-7.35Z"></path>
          <path d="m16.61,36.61c10.21-.46,10.97,5.35,17.42,11.24l-2.02,1.7c2.05,1.73,2.05-1.25,4.1.48,2.05-1.68,2.05,1.31,4.1-.37l-1.92-1.81c2.27-1.94,6.48-7.61,8.15-8.9,3.85-2.96,10.69-2.89,15.02-1.07,4.89,2.06,9.7,8.38,5.86,13.42-5.63,1.09-11.62,2.54-15.66,6.92-13.11-2.92-12.99,3.31-14.06,3.94-2.35.55-4.74.57-7.14.53-4.06-4.36-9.13-9.05-15.55-8.42-3.21-1.23-6.49-2.39-9.8-3.3-.3-.08-.38.29-.48.16-3.69-8.08,4.52-14.21,11.98-14.54Z"></path>
          <path id="V-Neck" fill="currentColor" d="m31.49,41.38c4.63,5.69,5.43,5.56,10.01-.93,1.03-1.46,3.79-3.37,4.95-3.19.13.02.18.19.08.29l-2.31,2.16s0,0,0,0c-.57.61-1.13,1.31-1.51,1.78-1.95,2.37-3.93,4.73-6.18,6.83-.23.21-.6.21-.82,0-2.14-2.07-4.05-4.36-5.97-6.63-.38-.45-.7-.81-1.18-1.41,0,0-.01-.01-.02-.02l-2.58-2.32c-.95-1.35,3.38.79,5.54,3.45Z"></path>
        </g>
      </g>
      <g id="Head">
        <path id="Mid_Helmet" fill="currentColor" d="m38.57,15.58c-1.54-.08-3.19-.06-4.73,0q.02-1.25.05-2.51h4.55q.07,1.25.14,2.51Z"></path>
        <path id="Facemask" d="m51.74,26.53s-.32-.14-.28-.39c0-.02.01-.04.03-.05,1.08-1.23.58-7.89.17-8.89-.2-.4-.51-.55-.84-.79-.03-.02-.62-.31-.74-.37-2.53-1.28-5.43-1.59-8.21-1.95-.85.29,1.7,2.06-3.16,1.76-.19-.13-.12-.28-.14-.28-1.54-.08-3.19-.06-4.73,0-.04,0-.24.25-.79.28-4.37.25-1.29-1.78-3.06-1.76-1.39.02-6.27,1.19-7.56,1.86-.04.02-.53.38-.65.46-.27.19-.6.34-.82.59,0,0-.01.02-.02.03-.38.72-.61,5.32-.55,6.3.2,3.02,1.56,2.51,0,3.48-.21.28,0,.37,0,.46.77.52.79.53,1.53,1.03.03.02.05.06.05.1.09,4.53-.98,5.2,3.48,7.32,2.4,1.14,5.06,1.89,7.76,2.21,1.51,1.69,4.44,1.73,5.9.05.71-.07,1.41-.18,2.11-.31,1.77-.35,5.61-1.66,7.15-2.6,3.22-1.97,2.22-3.28,2.18-6.66,0-.04.02-.08.06-.1.66-.39.7-.42,1.37-.81.03-.02.06-.06.06-.1,0-.21.12-.03-.27-.86Zm-4.03-6.99c.14-.71.26-1.33.33-1.79.92.23,1.63.45,1.8.61.03.03.04.07.03.1l-1.37,5.58s-.01.03-.02.05c-.16.16-1.01.43-1.86.66.18-.88.48-2.24.76-3.57.12-.56.23-1.13.34-1.64Zm-16.99-2.84c.17.07.1.35.24.45.02.01.05.01.07,0,1.51-.33,9.98.23,10.45.01.22-.1.06-.49.28-.56.23-.07,3,.39,5.23.89-.19,1.73-.5,5.56-.57,7.31-.72.2-1.41.37-1.65.43-5.62,1.39-11.63,1.39-17.26,0-.17-.04-.78-.21-1.43-.4.03-.26.04-.63.04-1.13,0-.57-.4-3.98-.73-6.2,2.24-.49,5.01-.94,5.32-.81Zm-7.99,1.54c.31-.14.92-.32,1.66-.5.09.57.19,1.23.3,1.91.13.78.26,1.6.4,2.36h0c.2,1.1.4,2.09.57,2.7-.7-.21-1.36-.42-1.53-.51-.03-.01-.04-.04-.05-.07-.7-2.87-.71-2.92-1.41-5.76-.01-.05.01-.11.06-.13Zm-1.23,6.52s-.02-.04-.02-.06c-.17-1.62-.14-3.25.13-4.85.02-.12.2-.12.22,0,.46,2.17.5,2.36,1.03,4.84,0,.03.03.06.05.07.56.38.68,1.88.98,2.83.02.08-.04.16-.12.14-1.33-.19-1.47-2-2.26-2.97Zm2.62,8.74c-.08,0-1-.81-1.22-1.03-.02-.02-.03-.05-.03-.08.02-1.79.02-1.85.04-3.58,0-.07.07-.13.14-.11.34.08,1.2.39,1.3.59.17.33.71,4.09-.23,4.22Zm1-5.35c-.32-1.05-.34-1.1-.65-2.13-.02-.07.02-.14.09-.14.59-.07,3.17.71,3.58.93.01,0,.02,0,.03.01,4.67.93,11.33,1.33,15.9,0,.07-.02.82-.61,1.31-.39.03.01.05.01.08,0,.73-.23,1.53-.32,2.24-.65.08-.04.17.02.16.11-.22,2.88-1,2.47-3.84,3.06-5.25,1.09-10.43,1.04-15.68,0-1.06-.21-2.12-.37-3.14-.72-.03-.01-.06-.04-.07-.08Zm18.76,2.11s.02-.03.03-.03c.03,0,0,.01-.03.03Zm-17.37,4.4c-2.41-.82-.87-1.02-.77-1.86.02-.22-.35-2.25-.41-3.06,0-.07.06-.13.13-.12l2.98.61s.03,0,.04.02c-.53.9-1.45,3.03-1.84,4.33-.02.06-.09.1-.14.07Zm18.32.57s-.03.02-.05.03c-.66.15-1.31.35-1.96.55-4.25,1.29-9.01,1.25-13.27,0-.32-.09-1.73-.5-2.07-.73-.04-.03-.06-.08-.04-.13.65-1.9,1.04-3.17,1.25-3.98.06.06.14.11.22.12,3,.35,6.01.69,9.03.55.79-.04,5.27-.48,5.77-.95.4,1.39,1.19,3.35,1.14,4.11,0,.03-.01.24-.03.26v.18Zm2.47-1.25c-.59.3-.66.34-1.27.66-.06.03-.13,0-.15-.06-.33-.76-1.42-2.97-2.02-4.23,0,0,0-.01-.01-.02,0,0,0,0,.01,0,1.02-.22,2.03-.48,3.05-.71.07-.01.13.03.14.1.12,1.43-.88,3,.28,4.08.06.05.04.14-.03.18Zm1.11-.54s-.11.02-.15-.02c-1.04-1.14-.18-2.74-.17-4.12,0-.03.01-.06.03-.08.2-.19,1.16-.57,1.22-.56.09,0,.18-.04.23.05-.2,2.43.71,3.57-1.17,4.73Zm2.24-7.8s-.12.04-.16,0c-.04-.04-.09-.09-.13-.14-.06-.06-.16-.04-.19.04-.16.46-.12,2.04-1.49,2.18-.08.01-.14-.07-.12-.14.83-2.54,1.5-5.11,2.09-7.72.03-.12.19-.12.22,0,.35,1.44.26,5.29-.22,5.78Z"></path>
        <path id="Left_Dot" fill="currentColor" d="m32.68,14.93s-.84.02-.88-.05c-.06-.08-.03-1.85.05-1.9.04-.03.84-.02.88.05.05.08.03,1.85-.05,1.9Z"></path>
        <path id="Right_Dot" fill="currentColor" d="m40.56,14.93s-.74.02-.79-.05c-.06-.08-.03-1.85.05-1.9.03-.02.74-.02.79.05.05.08.03,1.85-.05,1.9Z"></path>
        <path id="Helmet" fill="currentColor" d="m50.07,16.04c.4-1.42-.29-1.68-1.44-2.23-2.07-.99-4.69-1.32-6.96-1.49-.12-.04-.08-.78-2.23-.65-1.48.78-7.62-.13-8.26.09-.24.08-.21.49-.37.56-.33.14-4.3.18-7.05,1.49-1.25.59-1.5.59-1.35,2.13-.04.02-.53.38-.65.46.09-5.22.4-8.06,4.08-11.92,5.97-6.26,15.55-5.88,21.25.56,3.46,3.91,3.46,6.27,3.71,11.37-.03-.02-.62-.31-.74-.37Z"></path>
      </g>
      <path id="Plus" fill="currentColor" d="m18.62,25.3v1.95c0,1.02-.82,1.84-1.84,1.84h-4.66v4.65c0,1.02-.82,1.84-1.84,1.84h-1.95c-1.02,0-1.84-.82-1.84-1.84v-4.65H1.84c-1.01,0-1.84-.82-1.84-1.84v-1.95c0-1.01.82-1.84,1.84-1.84h4.66v-4.65c0-1.01.82-1.84,1.84-1.84h1.95c1.02,0,1.84.82,1.84,1.84v4.65h4.66c1.01,0,1.84.82,1.84,1.84Z"></path>
      <rect id="Minus" fill="currentColor" x="59.88" y="16.97" width="5.63" height="18.62" rx="2.82" ry="2.82" transform="translate(36.42 88.97) rotate(-90)"></rect>
    </g>
    </svg>