<?xml version="1.0" encoding="UTF-8"?>
<svg id="Icon-Add-Drop" xmlns="http://www.w3.org/2000/svg" viewBox="0 0 75.44 93.54">
  <defs>
    <style>
      svg {
        color: green;
      }
    </style>
  </defs>
  <g id="Player">
      <path id="Bottom_Jersey" d="m48.87,91.2c-3.79-.33-2.22-.2-6.44-.1-3.08.07-7.06.16-10.14.12-4.96-.07-3.9,1.97-8.63-.02-2.79-1.17-4.8-2.54-3.61-5.09-.09-3.08-.09,3.92-.18.84,7.18.31,11.5-1.95,16.87-3.35,7.34-1.91,6.12-.11,12.44,1.79,2.06.62,6.09-.81,6.34,1.32.43,3.57,1.74,2.63.18,3.76-2.84,2.07-4.76.91-6.85.73Z"></path>
      <path id="Upper_Jersey" d="m18.81,52.25c-.66-.88-1.31-2.05-2.41-2.56-2.13-1.01-10.45-1.04-13.78-4.1-.2.12-.34.36-.46.66,1.17-5.7,4.82-10.59,11.02-11.7,3.49-.63,7.2-.53,10.47.84,4.83,4.72,9.42,9.7,14.54,14.11,3.72-2.87,6.53-6.63,9.75-9.99.63-.65,3.82-3.47,3.95-3.71.05-.08-.01-.18-.11-.18,7.71-3.68,17.78-.44,20.81,7.84.22.59.42,1.31.59,2.08-.07-.11-.16-.2-.25-.26-3.33,3.06-11.65,3.1-13.78,4.1-1.1.51-1.75,1.68-2.41,2.56-1.34,1.78-1.37,1.73-2.16,3.8-.2.52-.44,1.12-.58,1.57-1.69,2.93-.54,4-1.81,6.43-.5.14-.97.34-1.41.57-.29.16-.57.34-.84.53-.27.19-.53.39-.78.61-.38.32-.75.66-1.11,1.01-.25.23-.49.47-.73.71-.48.47-.96.94-1.47,1.36-.12.04-.24.07-.38.1-.14.03-.29.07-.44.11-.31.07-.65.15-1,.23-.23.05-.47.11-.71.17-1.36.32-2.75.71-3.31,1.24l-.1.1c-.06.07-.1.14-.13.21-.01.04-.02.07-.03.11-.47-.12-.95-.23-1.43-.33-.48-.11-.96-.2-1.44-.29-.96-.18-1.93-.35-2.88-.57-.06-.01-.13-.03-.19-.05-.06-.02-.14-.04-.21-.05-.28-.08-.58-.16-.9-.24h0c-.16-.05-.32-.09-.48-.14-2.03-.58-4.41-1.34-4.67-1.32-.32.02-.13.85-3.47-.12-.02-.02-.04-.06-.06-.12-.02-.06-.05-.14-.07-.24-.01-.05-.03-.11-.04-.17-.04-.18-.09-.4-.13-.64-.04-.25-.09-.53-.14-.82-.04-.29-.09-.6-.14-.93-.01-.11-.03-.22-.05-.33-.03-.22-.06-.44-.09-.66h0c-.03-.23-.06-.45-.09-.67-.05-.44-.11-.87-.15-1.26-.04-.29-.07-.56-.09-.81-.05-.51-.08-.9-.08-1.07"></path>
      <path id="V-Neck" fill="currentColor" d="m37.37,46.8c-.11-.27.65.32.56.05.09.17.97-.17.97-.22,3.08-2.84,1.21-.92,3.71-3.58,1.28-1.2.68-.72,2.19-2.3,0,0,.82-1.11,2.46-2.87,1.69-1.04,1.29-1.06,3.07-1.67.18-.12,1.1-.44,1.44-.6.11-.01.17.1.12.18-.13.24-3.32,3.06-3.95,3.71-3.22,3.36-6.03,7.11-9.75,9.99-5.12-4.42-9.71-9.39-14.54-14.12.09.04,2.74,1.09,3.2,1.36l10.52,10.06Z"></path>
      <path id="Outline" fill="currentColor" d="m56.89,57.02c-.45.11-.9.24-1.34.4h-.01c-.23.3-.02-.26-.21.06m-.2.12s.03-.04.04-.06c-.41.14-.8.29-1.2.45-.17.04-.12-.25.03-.68-1.69,2.93-.54,4-1.81,6.43-.5.14-.97.34-1.41.57-.29.16-.57.34-.84.53-.27.19-.53.39-.78.61-.38.32-.75.66-1.11,1.01-.25.23-.49.47-.73.71-.48.47-.96.93-1.47,1.35-.12.03-.24.07-.38.11-.14.03-.29.07-.44.11-.31.07-.65.15-1,.23-.23.05-.47.11-.71.17-1.36.32-2.75.71-3.31,1.24l-.1.1c-.06.07-.1.14-.13.21-.01.04-.02.07-.03.11-.47-.12-.95-.23-1.43-.33-.48-.11-.96-.2-1.44-.29-.96-.19-1.92-.37-2.87-.58-.06-.01-.13-.03-.2-.04-.06-.02-.14-.04-.21-.05-.28-.08-.58-.16-.9-.24h0c-.16-.05-.32-.09-.48-.14-2.03-.58-4.41-1.34-4.67-1.32-.32.02-.13.85-3.47-.12-.02-.02-.04-.06-.06-.12-.02-.06-.05-.14-.07-.24-.01-.05-.03-.11-.04-.17-.04-.18-.08-.4-.13-.64-.04-.25-.09-.53-.14-.82-.04-.29-.09-.6-.14-.93-.01-.11-.03-.22-.05-.33-.03-.22-.06-.44-.09-.66h0c-.03-.23-.06-.45-.09-.67-.05-.44-.11-.87-.15-1.26-.04-.29-.07-.56-.09-.81-.05-.51-.08-.9-.08-1.07-.07-.41.04-.25-.9-1.76-1.6-.65-.95-.37-1.27-.45-.82-.34-.84-.09-1.69-.33.08.07-.85.15-.77.24.13.12,1.26.25,1.39.39h.01c-.4-.39-.01.08-.03.08-.01.02-.03.02-.04.02-.02,0-.04,0-.06-.01-.06-.02-1.13-1.06-1.21-1.1-.12-.07.73.83.56.72-.07-.05-.14-1.1-.21-1.14-.14-.11-.29.79-.45.7-.08-.06-.15-.1-.23-.15h-.01s-.06-.04-.08-.05c0-.01-.02-.01-.03-.01h-.01c-.09-.06-.17-.1-.25-.14-.19-.09-.37-.15-.53-.18-.12-.02-.32-.04-.5-.01-.05-.01-.09,0-.14.01h-.02s-.09.01-.12.03c-.06.02-.11.05-.15.08-.04.03-.07.08-.08.13.31.11.6.23.87.36.27.13.53.27.77.42.36.22.68.46.97.72.26.22.48.45.69.7.19.23.36.47.52.72t0,.02c.06.08.11.16.15.24.14.23.26.47.36.71.05.11.1.22.14.33.01,0,.02.02.02.04.09.22.17.44.24.67.08.24.15.48.21.73.1.37.18.75.25,1.14.08.39.14.79.2,1.19.06.41.12.82.17,1.23.06.41.11.83.17,1.25-.17.21-1.97-.53-3.96-.43-.11.01-.23.02-.35.03-.14.02-.28.03-.42.06-.11.02-.23.04-.34.07-.08.02-.17.04-.26.07-.14.04-.27.08-.41.14-1.13.44-2.19,1.34-2.88,3.05-.81,2-.75,3.1-.4,3.72.03.07.07.13.11.18.04.06.08.11.13.15.07.07.15.13.22.18s.15.09.22.13c.34.17.67.19.74.25.01.01.03.03.04.06.02.03.04.07.06.11.11.24.29.65.61.93.09.08.19.15.31.2.08.04.16.07.24.08.07.01.14.02.21.02.6,0,1.43-.43,2.6-1.76-.29.93-.2,1.5.09,1.8.22.24.57.3.97.22.12,0,.25-.05.38-.09.09-.03.17-.06.26-.11.06-.02.12-.05.19-.09.2-.11.41-.24.6-.4.11-.09.22-.18.32-.29.21-.2.39-.43.54-.68,2.64,1.21,5.58.32,8.25-.36.17.13.34.25.49.35.3.22.56.41.79.59.92.68,1.44,1.06,2.18,1.6.07.06.14.11.22.16.11.09.22.17.34.25.13.11.28.21.43.32.29.22.62.46,1,.74-1.27.49-2.49.93-3.68,1.31-.37.12-.73.24-1.09.34-.36.11-.72.22-1.07.32-.79.22-1.57.42-2.35.59-1.26.29-2.52.53-3.8.7-.43.06-.86.11-1.29.16s-.87.09-1.31.12c-.44.04-.88.07-1.33.09-.45.02-.91.04-1.37.05-.46,0-.93.02-1.41.02-.79,0-1.59-.02-2.42-.05-.21-.05-.44-.19-.66-.42-.1-.1-.2-.21-.31-.34-.11-.14-.22-.28-.32-.44-.43-.65-.87-1.53-1.31-2.52-.21-.49-.43-1.01-.63-1.55-.02-.02-.02-.04-.03-.06-.13-.33-.26-.68-.38-1.02-.76-2.09-1.42-4.29-1.83-5.93-.04-.16-.08-.31-.11-.46-.18-.73-.3-1.32-.34-1.68-.08-.7-.13-1.37-.13-2.02,0-.21.01-.42.02-.63.01-.19.02-.38.05-.57.01-.16.04-.32.07-.48.02-.16.06-.32.1-.48.03-.16.07-.31.12-.47.16-.54.39-1.07.71-1.6.08-.14.17-.28.27-.42.04-.05.07-.1.11-.15-.05-.1-.12-.24-.21-.41-.04-.08-.09-.17-.13-.27-.08-.16-.17-.34-.26-.52-.24-.5-.51-1.07-.77-1.6-.16-.31-.31-.61-.44-.87-.22-.43-.4-.74-.47-.82-.07-.08-.15-.14-.24-.19h-.01c-.09-.06-.19-.1-.3-.13-.08-.02-.15-.04-.24-.05-.38-.06-.83-.03-1.25.02h-.01c-.25.03-.49.08-.7.11.93,1.21,2.12,1.72,3.23,4.97-2.68,4.41.08,18.99,2.87,22.73,2.93,3.92,7.32.95,7.78,2.63.15.55.96,2.43,1.24,3.63.63,1.48-.23,1.15,1.2,3.14.03.11,13.15-.86,18.37-1.22h.04c4.26.15,11.14.41,12.92.37-.28.06,1.74-.04,4.18-.07,0-3.24.46-2.98.46-6.21.63-1.41,6.07,2.88,9.57-4.78,1.52-3.31,2.69-13.69,2.28-17.23-.14-1.13-.84-2.21-.96-3.35,1.33-3.31,2.36-3.42,3.58-4.96h.01c-.26.01-.73.1-1.23.23-.83.2-1.77.49-2,.72-.03.03-.11.16-.2.35-.04.05-.07.11-.09.17-.03.04-.05.09-.07.14-.07.14-.15.29-.23.46-.08.16-.16.32-.24.5-.06.12-.11.24-.17.36-.47.98-.96,2.03-1.16,2.39.22.38.46.81.68,1.27.23.45.43.93.57,1.39.09.31.16.63.19.93.04.43.04.94,0,1.53,0,.08-.01.16-.02.24-.02.24-.05.49-.09.76-.02.13-.04.25-.06.38-.05.32-.1.65-.17.99-.06.31-.13.63-.2.96-.42,1.9-1.04,4.01-1.76,5.94-.1.27-.2.53-.3.79-.07.18-.15.37-.22.55-.08.19-.15.37-.23.54-.15.36-.3.69-.46,1.02-.46.98-.94,1.83-1.42,2.47-.07.11-.15.21-.23.31-.08.09-.15.18-.23.26-.17.19-.34.34-.51.45-.17.12-.33.19-.49.22-.29.04-.61.06-.95.06-.22,0-.45-.01-.69-.03-.06,0-.13,0-.19-.01-.23-.02-.46-.04-.7-.07-.25-.03-.5-.07-.75-.11-.33-.05-.67-.12-1.02-.18-.69-.15-1.39-.32-2.1-.5-2.65-.69-5.26-1.62-6.72-2.09-.19-.07-.36-.12-.51-.16-.31-.1-.52-.15-.61-.15-.04,0-.08.01-.12.02-.07,0-.13.03-.18.06-.09.03-.16.09-.21.15-.03.03-.05.07-.07.11-.02.03-.03.06-.03.09-.02.09,0,.19.04.29.01.04.03.07.05.11.05.08.12.16.21.24.09.09.19.17.33.25.07.04.14.08.22.12.08.04.18.09.29.14.59.26,1.6.61,2.77.97.25.08.5.16.77.24.92.29,1.89.57,2.81.81.33.09.65.18.95.25.22.06.44.12.64.16.2.05.39.1.58.14.21.05.4.1.59.13.18.04.35.07.5.1.15.02.28.04.39.05.22.02.44.05.64.07h.01c1.18.1,2.13.11,2.91.01.19-.02.36-.05.53-.09.16-.04.32-.09.47-.14.17-.06.33-.12.48-.19.12-.06.23-.13.34-.2.1-.07.2-.14.3-.22.01,0,.01-.01.01-.01.07-.05.13-.1.19-.16.23-.21.43-.45.63-.73.07-.09.13-.18.19-.28.01-.02.03-.04.04-.06.09-.14.17-.3.26-.46.1-.18.19-.37.29-.58.06-.11.11-.24.17-.36.48-1.05.98-2.38,1.63-4.01.02.27,0,.59-.04.94-.01.13-.04.26-.06.39-.05.3-.12.62-.21.96-.05.19-.1.39-.16.58-.04.14-.09.27-.13.41-.06.16-.11.33-.17.49-.04.11-.08.21-.12.31-.1.27-.21.53-.32.79-.23.52-.48,1.02-.74,1.48-.06.11-.12.22-.19.32-.05.09-.1.17-.16.25-.03.05-.06.1-.09.15-.03.03-.05.06-.06.09-.07.09-.13.17-.18.24-.04.04-.07.08-.1.12-.09.12-.19.23-.28.32-.15.17-.31.3-.46.41-2.2,1.55-9.28.47-11.96-.24-.5-.13-1-.27-1.5-.43-.49-.16-.98-.32-1.46-.5-.42-.15-.83-.3-1.24-.47-.31-.13-.61-.26-.91-.39-.36-.15-.71-.31-1.06-.47-.35-.16-.7-.33-1.04-.5-.93-.46-1.83-.95-2.73-1.45-.45-.25-.9-.52-1.34-.78-3.54-2.12-6.94-4.52-10.38-6.74h0c-.1.22-.25.42-.45.6-.05.05-.1.1-.16.14-.06.05-.12.1-.18.14,0,0-.01.01-.02.01-.13.09-.27.17-.41.25-.28.15-.59.28-.91.39-.16.06-.34.11-.51.15-.17.04-.35.08-.52.11-.54.09-1.09.13-1.62.1-.05-.01-.11-.01-.17-.01-.14-.01-.28-.02-.41-.05-.13-.02-.26-.04-.39-.08-.27-.07-.53-.17-.75-.29-.34-.18-.62-.43-.8-.74-.65.46-1.69,1.91-2.04,2.16-.65.47-.92.3-.92-.14,0-.08.01-.18.03-.28.02-.1.04-.2.08-.31.02-.09.06-.18.09-.27,0,0,.01-.01.01-.02.04-.11.09-.21.15-.32.04-.08.08-.15.12-.22.04-.07.08-.15.13-.22.14-.22.31-.43.5-.61.1-.09.19-.17.29-.24.7-.49,3.95-1.55-.24-.72-.09.02-.18.04-.27.07-.08,0-.15.03-.22.06-.09.02-.18.05-.26.09-.06.02-.12.04-.17.07-.45.19-.83.45-1.14.74-.05.03-.09.07-.13.12-.08.06-.15.14-.22.22-.09.08-.16.16-.24.25-.33.4-.59.79-.83,1.07-.03.04-.07.08-.1.12-.04.05-.08.09-.12.13-.08.08-.16.14-.24.17-.13.06-.24.1-.34.12-.14.03-.26.04-.35.02-.03.01-.05,0-.08-.01-.04-.02-.08-.05-.11-.08-.09-.1-.11-.25-.07-.45,0-.03.01-.06.02-.09,0-.06.03-.12.06-.19.02-.08.06-.16.1-.25.05-.11.11-.22.17-.33.06-.1.13-.2.19-.3.27-.42.63-.86,1.06-1.28.07-.08.15-.15.23-.22.38-.37.81-.7,1.27-.97.26-.16.52-.29.79-.39.14-.05.27-.1.41-.13.11-.03.28-.05.47-.07.09-.01.19-.02.29-.03s.2-.02.29-.03c.1-.01.19-.02.28-.03.17-.02.31-.04.38-.07.03,0,.04-.02.05-.03.04-.06-.1-.12-.57-.22-2.86-.58-5.96,3.77-6.34,3.83-.3.06-.82-.12-.9-.41-.01-.04-.02-.09-.02-.14,0-.06.01-.12.03-.19.02-.09.06-.18.1-.28.05-.1.12-.22.22-.34.05-.06.1-.13.14-.19.11-.13.22-.25.35-.38.46-.46,1.07-.96,1.76-1.43.19-.13.4-.27.61-.39.27-.16.55-.32.83-.47.15-.08.31-.16.46-.24.6-.3,1.2-.54,1.77-.72.09-.03.18-.06.27-.08.18-.05.35-.09.51-.12.18-.03.34-.06.5-.07.12-.01.23-.02.34-.02-.01-.01-.03-.01-.04-.01-.34-.03-.66-.02-.98.01-.08,0-.15,0-.23.02-.19.02-.38.05-.57.09h-.02c-.17.04-.33.08-.49.12h-.01c-.19.05-.36.11-.54.17-.24.09-.48.18-.71.29-.19.08-.36.16-.53.25-.44.23-.84.47-1.2.71-.27.17-.5.34-.72.49-.54.39-.9.68-1.05.7-.14.02-.2-.05-.2-.18,0-.05.01-.1.03-.16.02-.06.04-.13.07-.2.02-.07.05-.14.1-.22.04-.08.09-.17.14-.25.31-.5.82-1.11,1.41-1.55.1-.08.21-.15.31-.22.06-.04.12-.08.18-.11.06-.04.13-.08.21-.11.08-.04.17-.08.26-.11,1.81-.65,6.29-.16,6.58,0,.02.01.04.04.05.09.01.04.02.09.04.14,0,.01,0,.03,0,.04.01.05.02.11.04.17.04.12.1.24.2.32.04.03.09.05.14.07.93-.02,1.84.07,2.74.23.84.13,1.67.32,2.49.53.41.11.82.22,1.23.33.2.06.41.11.62.17.21.06.41.11.62.17.82.22,1.64.44,2.47.61.36.08.74.16,1.12.23.76.16,1.56.33,2.39.49,1.12.23,2.3.45,3.51.67.58.11,1.17.21,1.77.31.34.06.69.12,1.04.17.31.05.63.1.95.15s.64.1.96.14c.31.05.63.09.95.13.55.08,1.09.15,1.64.21.41.05.81.1,1.21.13.63.06,1.25.11,1.86.16.31.03.61.05.91.06,1.51.09,2.95.11,4.27.04.31-.01.62-.03.92-.06.27-.02.53-.05.79-.08.85-.1,1.43-.21,1.81-.32.08-.02.16-.05.22-.07.11-.04.19-.08.25-.12.13-.08.18-.16.18-.25,0-.07-.04-.15-.09-.22-.03-.04-.06-.08-.09-.12-.08-.08-.16-.16-.22-.24-.11-.12-.19-.25-.2-.39-.01-.25.65-1.58.65-2.95,0-.15-.01-.31-.03-.46-.02-.16-.05-.31-.09-.46-.02-.08-.05-.16-.08-.25-.03-.08-.06-.16-.11-.24-.01-.04-.03-.08-.06-.11-.02-.05-.04-.1-.08-.14-.04-.07-.09-.14-.14-.2-.19-.24-.43-.47-.73-.67-.22-.14-.48-.26-.78-.37-.15-.06-.31-.11-.48-.16-1.01-.28-2.4-.39-4.29-.22h.15c.14,0,.29.01.44.02.22.02.45.03.68.05.2.02.41.04.61.07.19.02.38.05.58.09.44.08.88.18,1.29.32.1.03.2.07.3.11.15.06.29.12.43.18.13.06.27.13.39.21.09.05.17.11.26.17.1.06.18.13.27.21.09.08.18.17.26.26.17.19.3.4.4.64.04.1.07.2.1.3h0c.03.12.05.24.06.37.21,2.47-1.07-2.15-5.03-.72,0,.02.02.04.05.05.05.02.14.04.25.07.06.01.12.02.19.03.07.02.14.03.22.04.12.02.25.04.39.07.11.02.22.04.34.06.34.07.7.16,1.05.28.15.04.29.1.42.16.14.06.28.12.4.2.13.07.25.15.37.24.02.02.04.03.06.05.11.09.21.19.3.29.06.06.11.13.16.2.07.09.12.19.17.31.04.07.07.15.09.22.03.09.05.19.07.3.03.16.03.35.02.54,0,.01-.02.02-.03.02-.08.04-.28-.02-.39-.06-.03-.01-.05-.01-.06-.02-.06-.03-.22-.21-.5-.42-.09-.06-.2-.14-.33-.21-.09-.05-.2-.11-.31-.16s-.23-.1-.36-.14c-.18-.06-.37-.11-.58-.16-.1-.02-.22-.04-.33-.05-.14-.02-.28-.03-.43-.04-.07,0-.14,0-.2-.01-.16,0-.32,0-.48.01-.18,0-.36.01-.55.04.01,0,.01.01.02.01.33.16.66.3,1,.44.35.13.69.26,1.03.41.68.29,1.34.62,1.9,1.12.05,1.32-3.92-.52-4.37-.36,0,0-.02.01-.03.02-.02.02-.03.05-.04.09-.01.05-.02.1-.05.16,0,.03-.03.05-.04.08-.01.01-.02.02-.03.04,0,.01-.02.02-.04.04-.04.04-.1.08-.17.11-.38.19-1.2.36-3.07.31-.18,0-.38-.01-.59-.02-.74-.03-1.48-.11-2.21-.22-.24-.03-.47-.07-.7-.11-.05,0-.09-.02-.13-.03-.27-.04-.55-.09-.82-.15-1.28-.25-2.56-.53-3.84-.72-.37-.06-.73-.1-1.1-.14q2.01-.57,4.01-1.14.54.54,1.08,1.08c.19-.15-.04-1.53.06-1.85.01-.02.03-.05.06-.09.01-.02.03-.05.06-.06.03-.04.05-.07.08-.08.07-.06.14-.13.22-.2.08-.07.16-.14.26-.22.36-.31.82-.69,1.31-1.07.2-.16.41-.33.62-.49.34-.27.68-.53.99-.76.31-.24.57-.44.77-.57.04-.03.08-.05.11-.08.11-.09.19-.14.24-.16.34-.18.67-.34,1-.48.32-.13.64-.25.96-.34.16-.06.32-.1.47-.12.16-.05.31-.08.46-.09.43-.07.85-.09,1.26-.06.12,0,.24,0,.36.04.19.02.39.06.59.12.1.02.2.05.3.09.1.03.19.06.29.1.14.05.27.11.4.18.04.02.07.04.11.05.21.11.42.24.63.39.18.13.35.27.53.43.09.07.18.15.26.24.43.41.85.91,1.24,1.49-.02-.16-.06-.32-.1-.47-.01-.06-.03-.12-.05-.17-.03-.11-.07-.22-.12-.32-.01-.06-.04-.11-.06-.15-.05-.11-.1-.21-.16-.3,0-.01,0-.02-.02-.03-.02-.04-.04-.08-.07-.11-.63-.96-1.69-1.54-2.85-1.89-.1-.03-.21-.06-.31-.08-.13-.04-.26-.07-.39-.09-.23-.05-.45-.1-.68-.13-.59-.09-1.17-.13-1.71-.15.01-.09.02-.17.04-.25.01-.09.03-.18.06-.27.02-.14.06-.28.11-.42,0-.03,0-.05.02-.08.04-.14.08-.27.13-.4.04-.13.09-.25.15-.37.05-.14.11-.27.18-.41.03-.07.06-.14.1-.21.08-.16.16-.31.25-.46.02-.04.05-.08.07-.12.15-.25.33-.5.51-.73.21-.28.43-.54.68-.79.11-.12.24-.24.36-.36.26-.23.52-.45.8-.64.17-.12.34-.24.52-.34.1-.07.21-.13.32-.18.15-.09.32-.18.48-.25-.47-.19-1.09-1.02-1.67-.75-.41.18-.81.41-1.13.58m-37.74,28.21c-.7-.02-1.4-.04-2.03-.06-.25-.01-.48-.02-.7-.03-.76-.03-1.31-.05-1.42-.07-.08-.01-.16-.03-.24-.06-.02,0-.05-.01-.08-.02-.31-.1-.62-.26-.91-.48-.16-.12-.31-.25-.46-.39-.3-.29-.58-.64-.85-1.02-.09-.14-.19-.29-.29-.44-.1-.16-.19-.32-.28-.48-.27-.49-.51-1-.73-1.52h0c-.15-.36-.3-.72-.42-1.07-.09-.25-.17-.49-.24-.72-.05-.17-.09-.33-.14-.5-.19-.71-.32-1.35-.37-1.87h0s-.01-.04-.01-.05c.21.36.42.82.64,1.34h0c.15.34.3.7.45,1.07h0c.14.33.28.66.43.99.07.17.15.33.23.5.17.35.35.69.54,1.01.08.14.16.27.25.4.07.11.14.22.22.32.22.3.46.57.73.8.39.32.81.55,1.29.63.03.01.08.01.15.01.11,0,.26.01.46.01.65.02,1.72.01,2.88-.01.41,0,.83-.01,1.24-.02,1.09-.02,2.14-.04,2.87-.06.07-.01.14-.01.2-.01.11,0,.2,0,.29,0,.18-.02.32-.02.41-.03.26-.02.52-.04.77-.07.26-.03.52-.06.78-.09,1.02-.14,2.04-.32,3.06-.54.46-.1.92-.21,1.38-.33.4-.1.79-.2,1.18-.32.2-.06.4-.11.59-.17.2-.05.4-.11.59-.18.39-.11.77-.23,1.16-.36.58-.19,1.16-.38,1.73-.58.58-.19,1.15-.4,1.72-.61.43-.15.85-.3,1.28-.46.02,0,.04,0,.07.01.02,0,.04.01.07.01s.08.01.12.04c.04.01.08.03.12.05.04.02.08.04.12.07.26.15.53.4.79.66.06.06.13.12.19.19l.26.26c.08.07.16.15.23.21-5.31,1.76-10.8,3.94-16.45,4.13-.19.01-.72,0-1.44-.02-.25-.01-.53-.01-.82-.02h-.01c-.4,0-.83-.02-1.27-.03-.11,0-.22,0-.33,0Zm36.47,5.7h0c-.97.31-2.61.41-4.57.41-3.13.01-7.04-.22-10.23-.19-.21-.03-.46-.05-.71-.07h-.13c-1.15-.07-2.59-.03-4.15.05-.03.01-.07.01-.1.01h-.57c-1.62.07-3.33.17-4.92.25h-.04c-1.99.09-3.78.15-4.96.04h-.01c-.77-.06-1.28-.19-1.41-.41-.04-.08-.09-.16-.13-.23h0c-1.52-2.66-.85-.99-2.04-3.9,0-.01-.01-.02-.01-.03.31.02.62.03.91.03h.19c5.62.04,8.8-1.56,12.92-2.85.07-.02.14-.04.22-.06.26-.08.53-.16.8-.24.28-.08.55-.16.83-.23,1.11-.29,2.01-.49,2.79-.62,4.35-.74,4.27.81,9.65,2.42,2.06.61,4.23.97,6.34,1.31h0c.09,3.37.09.38.18,3.77-.13.23-.42.4-.84.54Z"></path>
      <path id="Right_Arm" fill="#C89D7C" d="m68.17,57.04s-.11.16-.2.35c-.04.05-.07.11-.09.17-.03.04-.05.09-.07.14-.07.14-.15.29-.23.46-.08.16-.16.32-.24.5-.06.12-.11.24-.17.36-.47.98-.96,2.03-1.16,2.39.22.38.46.81.68,1.27.22.45.42.92.57,1.39.09.31.16.63.19.93.04.43.04.94,0,1.53,0,.08-.01.16-.02.24-.02.24-.05.49-.09.76-.02.13-.04.25-.06.38-.05.32-.1.65-.17.99-.06.31-.13.63-.2.96-.42,1.9-1.04,4.01-1.76,5.94-.1.27-.2.53-.3.79-.07.18-.15.37-.22.55-.08.19-.15.37-.23.54-.15.36-.3.69-.46,1.02-.46.98-.94,1.83-1.42,2.47-.07.11-.15.21-.23.31-.08.09-.15.18-.23.26-.17.19-.34.34-.51.45-.17.12-.33.19-.49.22-.29.04-.61.06-.95.06-.22,0-.45-.01-.69-.03-.06,0-.13,0-.19-.01-.23-.02-.46-.04-.7-.07-.25-.03-.5-.07-.75-.11-.33-.05-.67-.12-1.02-.18-.69-.15-1.39-.32-2.1-.5-2.65-.69-5.26-1.62-6.72-2.09-.19-.07-.36-.12-.51-.16-.31-.09-.52-.14-.61-.14-.04,0-.08.01-.12.01-.07,0-.13.03-.18.06-.09.03-.16.09-.21.15-.03.03-.06.07-.07.11-.02.03-.03.06-.03.09-.02.09,0,.19.04.29.01.04.03.07.05.11.05.08.12.16.21.24.09.08.2.16.33.25.07.04.14.08.22.12.08.04.18.09.29.14.59.26,1.6.61,2.77.97.25.08.5.16.77.24.92.29,1.89.57,2.81.81.33.09.65.18.95.25.22.06.44.12.64.16.2.06.39.1.58.14.21.05.4.1.59.13.18.04.35.08.5.1.15.03.28.05.39.06.22.02.43.04.64.06h.01c1.18.11,2.13.12,2.91.01.19-.02.36-.05.53-.09.17-.04.32-.08.47-.14.17-.05.33-.12.48-.19.12-.06.23-.13.34-.2.11-.06.21-.14.3-.22.01,0,.01-.01.01-.01.07-.05.13-.1.19-.16.23-.21.43-.45.63-.73.07-.09.13-.18.19-.28.01-.02.03-.04.04-.06.09-.14.17-.3.26-.46.1-.18.19-.37.29-.58.06-.11.12-.24.17-.36.48-1.05.98-2.38,1.63-4.01.02.27,0,.59-.04.94-.01.13-.04.26-.06.39-.05.3-.12.62-.21.96-.05.19-.1.39-.16.58-.04.14-.09.27-.13.41-.06.16-.11.33-.17.49-.04.11-.08.21-.12.31-.1.27-.21.53-.32.79-.23.52-.48,1.02-.74,1.48-.06.11-.12.22-.19.32-.05.09-.1.17-.16.25-.03.05-.06.1-.09.15-.03.03-.05.06-.06.09-.07.09-.13.17-.18.24-.04.04-.07.08-.1.12-.09.12-.19.23-.28.32-.15.17-.31.3-.46.41-2.2,1.55-9.28.47-11.96-.24-.5-.13-1-.27-1.5-.43-.49-.16-.98-.32-1.46-.5-.42-.15-.83-.3-1.24-.47-.31-.13-.61-.26-.91-.39-.36-.15-.71-.31-1.06-.47-.35-.16-.7-.33-1.04-.5-.93-.45-1.83-.94-2.73-1.45-.45-.25-.9-.52-1.34-.78-3.54-2.11-6.94-4.51-10.38-6.73-.1.21-.25.41-.45.59-.05.05-.1.1-.16.14-.06.05-.12.1-.18.14,0,0-.01.01-.02.01-.13.09-.27.17-.41.25-.28.15-.59.28-.91.39-.16.06-.34.11-.51.15-.17.04-.35.08-.52.11-.54.1-1.1.14-1.62.1-.05-.01-.11-.01-.17-.01-.14-.01-.28-.02-.41-.05-.13-.02-.26-.04-.39-.08-.27-.07-.53-.17-.75-.29-.34-.18-.62-.43-.8-.74-.65.46-1.69,1.91-2.04,2.16-.65.47-.92.3-.92-.14,0-.08.01-.18.03-.28.02-.1.04-.2.08-.31.02-.09.06-.18.09-.27,0,0,.01-.01.01-.02.04-.11.09-.21.15-.32.04-.08.08-.15.12-.22.04-.07.08-.15.13-.22.15-.22.32-.44.5-.61.1-.09.19-.17.29-.24.7-.49,3.95-1.55-.24-.72-.09.02-.18.04-.27.07-.08,0-.15.03-.22.06-.09.02-.18.05-.26.09-.06.02-.12.04-.17.07-.45.19-.83.45-1.14.74-.05.03-.09.07-.13.12-.08.06-.15.14-.22.22-.09.08-.16.16-.24.25-.33.4-.59.79-.83,1.07-.03.04-.07.08-.1.12-.04.05-.08.09-.12.13-.08.08-.16.14-.24.17-.13.06-.24.1-.34.12-.14.03-.26.04-.35.02-.03.01-.05,0-.08-.01-.04-.02-.08-.05-.11-.08-.09-.1-.11-.25-.07-.45,0-.03.01-.06.02-.09,0-.06.03-.12.06-.19.03-.08.06-.16.1-.25.05-.11.11-.22.17-.33.06-.1.13-.2.19-.3.27-.42.63-.86,1.06-1.28.07-.08.15-.15.23-.22.38-.37.81-.7,1.27-.97.26-.16.52-.29.79-.39.14-.05.27-.1.41-.13.11-.03.28-.05.47-.07.09-.01.19-.02.29-.03s.2-.02.29-.03c.1-.01.19-.02.28-.03.17-.02.31-.04.38-.07.03,0,.04-.02.05-.03.04-.06-.1-.12-.57-.22-2.86-.58-5.96,3.77-6.34,3.83-.3.06-.82-.12-.9-.41-.01-.04-.02-.09-.02-.14,0-.06.01-.12.03-.19.02-.09.06-.18.1-.28.06-.1.13-.22.22-.34.05-.06.1-.13.14-.19.11-.13.22-.25.35-.38.46-.46,1.07-.96,1.76-1.43.2-.13.4-.26.61-.39.27-.16.55-.32.83-.47.15-.08.31-.16.46-.24.6-.3,1.2-.54,1.77-.72.09-.03.18-.06.27-.08.18-.05.35-.09.51-.12.18-.03.34-.06.5-.07.12-.01.23-.02.34-.02.14,0,.27,0,.39.03-.15-.02-.29-.04-.43-.04-.34-.03-.66-.02-.98.01-.08,0-.15,0-.23.02-.19.02-.38.05-.57.09h-.02c-.17.04-.33.08-.49.12h-.01c-.19.05-.36.11-.54.17-.24.09-.48.18-.71.29-.19.08-.36.16-.53.25-.44.23-.84.47-1.2.71-.27.17-.5.34-.72.49-.54.39-.9.68-1.05.7-.14.02-.2-.05-.2-.18,0-.05.01-.1.03-.16.02-.06.04-.13.07-.2.02-.07.05-.14.1-.22.04-.08.09-.17.14-.25.31-.5.82-1.11,1.41-1.55.1-.08.21-.15.31-.22.06-.04.12-.08.18-.11.06-.04.13-.08.21-.11.08-.04.17-.08.26-.11,1.81-.65,6.29-.16,6.58,0,.02.01.04.04.05.09.01.04.02.09.04.14,0,.01,0,.03,0,.04.01.05.02.11.04.17.04.12.1.24.2.32.04.04.09.06.14.08.93-.01,1.84.07,2.74.22.84.13,1.67.32,2.49.53.41.11.82.22,1.23.33.2.06.41.11.62.17.21.06.41.11.62.17.82.22,1.64.44,2.47.61.36.08.74.16,1.12.23.76.16,1.56.33,2.39.49,1.12.23,2.3.45,3.51.67.58.11,1.17.21,1.77.31.34.06.69.12,1.04.17.31.05.63.1.95.15s.64.1.96.14c.31.05.63.09.95.13.55.08,1.09.15,1.64.21.41.05.81.1,1.21.13.63.07,1.25.12,1.86.16.31.03.61.05.91.06,1.51.09,2.95.11,4.27.04.32-.01.62-.03.92-.06.27-.02.53-.05.79-.08.85-.1,1.43-.21,1.81-.32.08-.02.16-.05.22-.07.11-.04.19-.08.25-.12.13-.08.18-.16.18-.25,0-.07-.04-.15-.09-.22-.03-.04-.06-.08-.09-.12-.07-.08-.15-.16-.22-.24-.11-.12-.19-.25-.2-.39-.01-.25.65-1.58.65-2.95,0-.15-.01-.31-.03-.46-.02-.16-.04-.31-.09-.46-.02-.08-.05-.16-.08-.25-.03-.08-.06-.16-.11-.24-.01-.04-.03-.08-.06-.11-.02-.05-.04-.1-.08-.14-.04-.07-.08-.14-.14-.2-.19-.24-.43-.47-.73-.67-.22-.14-.48-.26-.78-.37-.15-.06-.31-.11-.48-.16-.99-.27-2.33-.37-4.14-.22-.05,0-.1.01-.15.01.18,0,.38.01.59.01.22.02.45.03.68.05.2.02.41.04.61.07.19.02.38.05.58.09.44.08.88.18,1.29.32.1.03.2.07.3.11.15.06.29.12.43.18.13.06.27.13.39.21.09.05.17.11.26.17.1.06.18.13.27.21.09.08.18.17.26.26.17.19.3.4.4.64.04.1.07.2.1.3h0c.03.12.05.24.06.37.21,2.47-1.07-2.15-5.03-.72,0,.02.02.04.05.05.05.03.14.05.25.07.06.01.12.02.19.03.07.02.14.03.22.04.12.02.25.04.39.07.11.02.22.04.34.06.34.07.7.16,1.05.28.15.05.29.1.42.16.14.06.28.13.4.2.13.07.25.15.37.24.02.02.04.03.06.05.11.09.21.19.3.29.06.06.11.13.16.2.07.09.12.19.17.31.04.07.07.15.09.22.03.09.05.19.07.3.03.16.03.35.02.54,0,.01-.02.02-.03.02-.08.04-.28-.02-.39-.06-.03-.01-.05-.01-.06-.02-.06-.03-.22-.21-.5-.42-.09-.06-.2-.14-.33-.21-.09-.05-.2-.11-.31-.16s-.23-.1-.36-.14c-.17-.06-.37-.12-.58-.16-.1-.02-.22-.04-.33-.05-.14-.02-.28-.03-.43-.04-.07,0-.14,0-.2-.01-.16,0-.32,0-.48.01-.17.01-.34.03-.53.05h-.02c.33.16.67.3,1.02.44.34.14.69.27,1.03.41.68.29,1.34.62,1.9,1.12.05,1.32-3.92-.52-4.37-.36,0,0-.02.01-.03.02-.02.02-.03.05-.04.09-.01.05-.02.1-.05.16,0,.03-.03.05-.04.08-.01.01-.02.02-.03.04,0,0-.03.02-.04.04-.05.03-.1.07-.17.11-.38.19-1.2.36-3.07.31-.18,0-.38,0-.59-.01-.74-.03-1.48-.11-2.21-.23-.24-.03-.47-.07-.7-.11-.05,0-.09-.02-.13-.03-.27-.04-.55-.09-.82-.15-1.28-.25-2.56-.53-3.84-.72-.37-.06-.73-.1-1.1-.14q2.01-.57,4.01-1.14.54.54,1.08,1.08c.19-.15-.04-1.53.06-1.85.01-.02.03-.05.06-.09l.14-.14c.07-.06.14-.13.22-.2.08-.07.16-.14.26-.22.36-.31.82-.69,1.31-1.07.2-.16.41-.33.62-.49.34-.27.68-.53.99-.76.3-.22.57-.42.77-.57.04-.03.08-.05.11-.08.11-.07.2-.12.24-.15.34-.19.67-.35,1-.49.32-.13.64-.25.96-.34.16-.05.31-.09.47-.12.15-.04.31-.07.46-.09.43-.07.85-.09,1.26-.06.12,0,.24.02.36.04.19.02.39.06.59.12.1.02.2.05.3.09.1.03.19.06.29.1.14.05.27.11.4.18.04.02.07.04.11.05.21.12.42.25.63.39.18.13.35.27.53.43.09.07.18.15.26.24.43.41.85.91,1.24,1.49-.02-.16-.06-.32-.1-.47-.01-.06-.03-.12-.05-.17-.03-.11-.07-.22-.12-.32-.01-.06-.04-.11-.06-.15-.05-.11-.1-.21-.16-.3,0-.01,0-.02-.02-.03-.02-.04-.04-.08-.07-.11-.63-.96-1.69-1.54-2.85-1.89-.1-.03-.21-.06-.31-.08-.13-.04-.26-.07-.39-.09-.23-.06-.45-.1-.68-.13-.59-.09-1.17-.13-1.71-.15h-.01c.01-.08.03-.17.05-.25.01-.09.03-.18.06-.27.02-.14.06-.28.11-.42,0-.03,0-.05.02-.08.04-.14.08-.27.13-.4.04-.13.09-.25.15-.37.05-.14.11-.27.18-.41.03-.07.06-.14.1-.21.08-.16.16-.31.25-.46.02-.04.05-.08.07-.12.16-.25.33-.5.51-.73.21-.27.44-.54.68-.79.11-.12.24-.24.36-.36.26-.23.52-.45.8-.64.17-.12.34-.24.52-.34.1-.07.21-.13.32-.18.15-.09.32-.18.48-.25,2.31-1.04,6.99-1.7,9.22-.24Z"></path>
      <path id="Bottom_Left_Arm" fill="#C89D7C" d="m38.73,81.27c-5.31,1.76-10.8,3.93-16.45,4.13-.77.03-7.62-.18-8.02-.24-2.76-.44-4.78-6.14-5.03-8.62,1.14,1.94,2.22,6.64,4.79,7.06.47.08,7.51-.04,8.49-.12,4.93-.38,9.63-2.04,14.24-3.71.6-.01,1.47,1.05,1.97,1.49Z"></path>
      <path id="Left_Arm" fill="#C89D7C" d="m35.38,78.76c-1.27.49-2.49.93-3.68,1.31-.37.12-.73.23-1.09.34s-.72.22-1.07.32c-.79.22-1.57.42-2.35.59-1.26.29-2.52.53-3.8.7-.43.06-.86.11-1.29.16s-.87.09-1.31.12c-.44.04-.88.07-1.33.09-.45.02-.91.04-1.37.05-.46,0-.93.02-1.41.02-.79,0-1.59-.02-2.42-.05-.21-.05-.44-.19-.66-.42-.1-.1-.2-.21-.31-.34-.11-.14-.22-.28-.32-.44-.43-.65-.87-1.53-1.31-2.52-.21-.49-.43-1.01-.63-1.55-.02-.02-.02-.04-.03-.06-.13-.33-.26-.68-.38-1.02-.76-2.09-1.42-4.29-1.83-5.93-.04-.16-.08-.31-.11-.46-.18-.73-.3-1.32-.34-1.68-.08-.7-.13-1.37-.13-2.02,0-.21.01-.42.02-.63.01-.19.02-.38.05-.57.01-.16.04-.32.07-.48.02-.16.06-.32.1-.48.03-.16.07-.31.12-.47.16-.54.39-1.07.71-1.6.08-.14.17-.28.27-.42.03-.05.06-.1.1-.15-.05-.1-.12-.24-.2-.41-.04-.08-.09-.17-.13-.27-.08-.16-.17-.34-.26-.52-.24-.5-.51-1.07-.77-1.6-.16-.31-.31-.61-.44-.87-.22-.43-.4-.74-.47-.82,2.63-.5,6.18-.56,8.74.36.31.11.6.23.87.36.27.14.53.27.77.42.36.22.68.46.97.72.26.22.48.45.69.7.19.23.36.47.52.72t0,.02c.06.08.11.16.15.24.14.23.26.47.36.71.05.11.1.22.14.33.01,0,.02.02.02.04.09.22.17.44.24.67.08.24.15.48.21.73.1.37.18.75.25,1.14.08.39.14.79.2,1.19.06.41.12.82.17,1.23.06.41.11.83.17,1.25-.17.21-1.97-.53-3.96-.43-.11.01-.23.02-.35.03-.14.02-.28.03-.42.06-.11.02-.23.04-.34.07-.08.02-.17.04-.26.07-.14.04-.27.08-.41.14-1.13.44-2.19,1.34-2.88,3.05-.81,2-.75,3.1-.4,3.72.03.07.07.13.11.18.04.06.08.11.13.15.07.07.15.13.22.18s.15.09.22.13c.34.17.67.19.74.25.01.01.03.03.04.06.02.03.04.07.06.11.11.24.29.65.61.93.09.09.19.16.31.2.08.04.16.07.24.08.07.01.14.02.21.02.6,0,1.43-.43,2.6-1.76-.29.93-.2,1.5.09,1.8.22.24.57.3.97.22.12,0,.25-.05.38-.09.09-.03.17-.06.26-.11.06-.02.12-.05.19-.09.2-.11.41-.24.6-.4.11-.09.22-.18.32-.29.21-.2.39-.43.54-.68,2.64,1.21,5.58.32,8.25-.36.17.13.34.25.49.35.3.23.56.42.79.59.92.68,1.44,1.06,2.18,1.6.07.06.14.11.22.16.11.09.22.17.34.25.13.11.28.21.43.32.29.22.62.46,1,.74Z"></path>
      <g id="Helmet">
        <path id="Facemask_Hole" d="m40.78,19.27c-.12.05-1.32-.02-1.73,0-.84.04-3.68.07-4.19,0-1.05-.15-.59-.76-.42-.84.29-.13,6.05-.13,6.34,0,.26.12.26.72,0,.84Z"></path>
        <path id="Facemask_Plate" stroke="silver" fill="currentColor" d="m42.41,19.52c-.18.09-2.59-.21-2.77-.3-.04-.02-.56.18-.59.05.42-.02,1.61.05,1.73,0,.26-.12.26-.72,0-.84-.29-.13-6.05-.13-6.34,0-.17.07-.63.69.42.84-1.62.25-1.52.31-1.62.25-.14-.1-.02.04-.06-.13-.04-.2.05-.56,0-.66-.18-.37-.85.39-.72-2.22.17-3.23,2.14-1.79,2.33-1.79,1.82,0,3.68-.24,5.51.12,2.26-.92,2.48-.14,2.57,1.8,0,.05-.24.76-.24.9,0,.11.46.83.36.96-.05.06-1.37-.08-.84.96.13.24.85.15,1.08.18-.07.13-.65-.21-.83-.11Z"></path>
        <path id="Facemask" fill="currentColor" d="m53.29,24c.47-1.28,1.47-2.99,2.03-4.31.04-.4-1.27-1.07-1.68-1.26-3.23-1.49-7.28-1.5-10.77-1.8,0,.05-.24.76-.24.9,0,.11.46.83.36.96-.05.06-1.37-.08-.84.96.02.04.05.06.09.09.01,0,.03.01.04.02s.03.01.05.02c.01,0,.03,0,.04.01,0,0,.02,0,.03,0,.02,0,.04,0,.07.01.04,0,.07,0,.11.01.02,0,.04,0,.06,0,.11,0,.22,0,.32,0h0c.06,0,.12,0,.17,0,.02,0,.03,0,.05,0,.01,0,.03,0,.04,0,.94.13,2.4-.03,3.11.3-6.21.68-12.58.66-18.79-.12q2.81-.21,5.62-.42c-.04-.2.05-.56,0-.66-.18-.37-.85.39-.72-2.22-2.57.19-8.25.75-10.41,1.68-.27.12-1.41.97-1.92,1.26.55,1.02,3.3,7.37,3.11,7.9-.1.29-.61.14-.66.18-1.15,1,.74,1.37.9,1.73.8,1.84-1.82,4.72,5.21,7.66,0-.03,0-.05,0-.05.55.17,1.08.44,1.62.75.95.54,1.92,1.22,3.02,1.74.01,0,.02.01.04.01.93.44,1.95.77,3.12.83.14,0,.29,0,.44,0,.04.04.17.05.35.04.49-.02,1.31-.14,1.42-.04v.04c.66-.15,2.43-.19,4.68-1.48.22-.13.99-.84,2.02-1.29,0,0,0,0,0,0,.3-.13,1.13-.5,1.53-.6-.64.31-.89.41-.21.22l.28-.23s-.04,0-.07.01c1.09-.52,3.32-1.62,4.16-2.83,1.3-1.88.79-4.5.96-4.91.13-.32,1.81-.37,1.2-1.32-.43-.67-1.7.8,0-3.83Zm-4.01-1.02c-.11.56-.61,3.69-1.44,3.23-.15-.09,1.31-2.95,1.44-3.23Zm1.2,6.1c1.01-.04-2.33,1.48-2.45,1.26-.29-.55,2.3-1.25,2.45-1.26Zm-3.35-1.44c1.11-.48.14,1.37-.24,1.08-.18-.14.04-.99.24-1.08Zm-19.26-.12c.4-.1.71.66.48.84-.27.21-.84-.75-.48-.84Zm-.24-1.32c-.71.44-.93-2.23-1.08-2.63.37.33,1.2,2.56,1.08,2.63Zm-5.08-4.73q.09-.15.18-.3c.39.06.79-.25.84-.24.39.07,2.02,4.35,2.33,4.97-1.84.64-2.09-2.59-3.35-4.43Zm2.21,5.44c.09-.06,1.8.43,1.62,1.02-.43.29-2.4-.5-1.62-1.02Zm2.45,3.29c-.09.15-2.41-1.04-2.57-1.26.42.15,2.98.53,2.57,1.26Zm-2.22.66c.57.62,2.74.67,3.05,1.02q.39,1.71.78,3.41c-1.82-.67-4.38-2.17-3.83-4.43Zm4.31-.12c-.33.25-.7-.82-.48-.96.19-.12.79.71.48.96Zm7.84-1.5c-.16.34-7.03-.36-7.36-.54-.25-.14-.55-1.13-.24-1.2,1.27.36,7.03.42,7.42.6.23.1.24,1,.18,1.14Zm0,2.39c-.14.3-6.26-.45-6.52-.66-.04-.04-.38-1-.24-1.08.97.32,6.28.46,6.58.6.23.1.24,1,.18,1.13Zm-7.6.54c.36-.29,1.4,3.9,1.73,4.13-1.77.58-1.57-2.78-1.73-4.13Zm7.36,6.64c-.08.15-2.55-.44-2.93-.78,1.22.1,3.6-.41,2.93.78Zm-4.13-2.09c-.27-.11-1.64-4.33-1.32-4.43q2.81.36,5.62.72.09,1.83.18,3.65-2.24.03-4.49.06Zm-3.47-10.29c-.26-.15-.69-5.21-.48-5.38,6,.38,12.07.38,18.07,0q-.33,2.66-.66,5.32c-5.62.79-11.3.62-16.93.06Zm9.33,1.67c.4-.18,5.62-.15,6.82-.48.35.12.05,1.16,0,1.2-.28.22-6.8.71-7,.42-.03-.05-.08-1.02.18-1.14Zm0,2.27c.27-.14,5.26.05,6.1-.36,1.84,1.72-6.13,1.85-6.28,1.49-.08-.17.08-1.08.18-1.14Zm-.06,8.43c-.37-.87.87-.94,2.93-.9,1.1.02-2.74,1.35-2.93.9Zm4.01-1.97q-2.06-.09-4.13-.18.03-1.83.06-3.65,2.63-.3,5.27-.6c.48.16-.91,4.31-1.2,4.43Zm3.05-1.14c-.19.72-.72.42-1.26.78.05-.62,1.02-4.22,1.31-4.31,1.13-.33-.03,1.75-.06,3.53Zm.54-4.73c-.27-.06.03-1,.36-1.08.71-.17.25,1.21-.36,1.08Zm.84,4.31q-.09-.09-.18-.18c.9-5.11.88-2.11,3.89-4.37.29,2.33-1.84,3.72-3.71,4.55Zm2.51-7.3c-.35-.18.57-1.11.96-1.08.81.06-.17,1.49-.96,1.08Zm1.49-2.45c-.25.24-.69.27-1.02.3.09-.61,1.66-4.71,1.91-4.78.09-.03,1.12.2,1.14.54.01.22-1.87,3.8-2.03,3.95Z"></path>
        <path id="Left_Dot" d="m33.6,15.56c1-.38.93,1.53.6,1.68-1.16.52-1.07-1.5-.6-1.68Z"></path>
        <path id="Right_Dot" d="m41.14,15.44c.98-.45,1.22,1.46.6,1.68-1.15.4-.84-1.57-.6-1.68Z"></path>
        <path id="Left_Eye" d="m36.3,24.24c-.17.43-1.41-.29-1.62-.3-2.39-.17-6.01,1.77-1.67-.84,1.95.12,3.96-.55,3.29,1.14Z"></path>
        <path id="Right_Eye" d="m40.78,23.82c-.8.12-1.16,1.43-1.67-.72q1.85.06,3.71.12c3.41,1.86-.91.43-2.03.6Z"></path>
        <path id="Top_Helmet" d="m53.65,18.43c-3.23-1.49-7.29-1.5-10.77-1.79-.09-1.93-.31-2.72-2.57-1.79-1.82-.36-3.68-.12-5.5-.12-.19,0-2.16-1.44-2.33,1.79-2.57.19-8.25.75-10.41,1.68C18.7.15,41.56-5.36,50.66,5.69c2.89,3.51,3.63,8.34,2.99,12.74Z"></path>
      </g>
      <path id="Plus" fill="currentColor" d="m10.97,22.91c1.34-.25,2.43-1.36,2.65-2.71.04-.25.07-1.36.07-2.47v-2.01h2.17c2.88,0,3.27-.1,4.19-1.1,1.62-1.75.74-4.57-1.63-5.2-.28-.08-1-.1-2.56-.11h-2.17s0-2.05,0-2.05c0-2.86-.15-3.43-1.11-4.32-.66-.61-1.14-.78-2.17-.78-.88,0-1.23.1-1.91.57-.44.3-.95,1.04-1.14,1.63-.14.46-.16.73-.16,2.73v2.22h-2.17c-2.36,0-2.78.05-3.45.44C.48,10.41-.16,11.76.04,13.01c.22,1.38,1.26,2.45,2.65,2.72.23.04,1.34.08,2.47.08h2.06v2.18c0,1.95.02,2.23.15,2.68.36,1.16,1.23,1.96,2.42,2.22.55.12.67.12,1.18.03h0Z"></path>
      <path id="Minus" fill="currentColor" d="m73.49,15.6c.35-.14.61-.33,1.02-.74.74-.74.92-1.19.93-2.28,0-.75,0-.81-.29-1.38-.47-.96-1.29-1.58-2.36-1.77-.6-.11-14.72-.12-15.39,0-1.42.23-2.49,1.29-2.73,2.71-.27,1.56.86,3.25,2.42,3.62.18.04,3.58.07,8.12.06h7.81s.47-.2.47-.2Z"></path>
      <path id="Left_Sleeve" fill="currentColor" d="m20.29,54.98c0,.23-.27-.51-.17-.48.03,0-.24-.35-.23-.35.38.76-.44-1.15-.05-.38-.59-.81.29.26-1.05-1.52-.66-.88-1.31-2.05-2.41-2.56-2.13-1.01-10.45-1.04-13.78-4.1-.2.12-.34.36-.46.66-.15.76-.26,1.54-.33,2.32-.03.27-.05.55-.06.82v.04c0,.08-.01.17-.01.25-.12,3.52.93,4.24,2.87,6.76.21-.03.45-.08.7-.11h.01c.42-.05.87-.08,1.25-.02.09.01.16.03.24.05.11.03.21.07.3.13h.01c.09.05.17.11.24.19,2.63-.5,6.18-.56,8.74.36,0-.05.04-.1.08-.13.04-.03.09-.06.15-.08.03-.02.07-.03.12-.03h.02s.09-.02.14-.01c.18-.03.38-.01.5.01.16.03.34.09.53.18.08.04.16.08.25.14h.01s.02,0,.03.01c.37.09.74.18,1.11.29,0,0,.02,0,.02.01.85.24,2.01.53,2.83.87.32.08-.5-1.11-.87-2.09m-4.32-2.76h0s.02,0,.03.01c-.01-.01-.02-.01-.03-.01Zm3.81,3.88s-.04-.08-.06-.14c.04.06.06.12.08.15t-.02-.01Z"></path>
      <path id="Right_Sleeve" fill="currentColor" d="m55.54,57.42c-.13.03-.25.08-.37.12-.41.14-.8.29-1.2.45-.17.04-.12-.25.03-.68.14-.45.38-1.05.58-1.57.79-2.07.82-2.02,2.16-3.8.66-.88,1.31-2.05,2.41-2.56,2.13-1,10.45-1.04,13.78-4.1.09.06.18.15.25.26.2.87.36,1.82.46,2.76.06.58.1,1.15.1,1.7v.05c.02.83-.04,1.61-.19,2.26-.16.7-1.64,3.12-2.15,3.77-.26.02-.73.11-1.23.24-.83.2-1.77.49-2,.72-2.23-1.46-6.91-.8-9.22.24-.47-.19-.46-.22-1.09-.26"></path>
    </g>
    </svg>