<?xml version="1.0" encoding="UTF-8"?>
<svg id="Icon-Doctor" xmlns="http://www.w3.org/2000/svg" viewBox="0 0 72 88.88">
  <defs>
    <style>
      svg {
        color: green;
      }
    </style>
  </defs>
  <g id="Doctor">
    <path id="Body_Outline" data-name="Body Outline" fill="currentColor" d="m3.59,88.52c-1.29-.64-2.57-1.85-3.09-2.92-.48-.98-.53-1.53-.48-4.97.14-8.84,1.02-16.44,2.37-20.56.82-2.49,1.75-3.82,3.49-4.97,1.2-.8,3.89-2.16,6.99-3.54,4.61-2.05,7.24-3.41,9.65-4.98,1.61-1.05,2.04-1.21,2.48-.9.34.24.54.76,1.02,2.69.9,3.58,2.14,6.98,3.58,9.87.89,1.77,2.29,4.19,2.46,4.24.16.05,1.21-3.4,1.21-3.98,0-.13-.1-.37-.23-.51-.13-.15-.32-.47-.43-.71-.18-.4-.2-.58-.2-1.89,0-1.33.02-1.49.22-1.93.28-.62,1.11-1.4,1.71-1.6,1-.34,2.88-.27,3.68.14.44.23,1.11.9,1.34,1.36.26.52.36,1.43.27,2.58-.09,1.14-.16,1.37-.63,2l-.34.45.3,1.13c.45,1.66.87,2.99.95,2.99.19,0,1.57-2.35,2.63-4.46,1.37-2.74,2.68-6.4,3.49-9.73.54-2.22.82-2.77,1.46-2.77.38,0,.82.22,1.88.95,2.3,1.59,4.7,2.82,10.08,5.2,4.97,2.2,7.49,3.67,8.53,4.99,2.1,2.66,3.5,9.79,3.94,20.07.12,2.86.12,7.21,0,7.82-.18.88-.68,1.67-1.62,2.61-.69.69-1.03.95-1.69,1.29l-.83.43h-31.73s-31.73,0-31.73,0l-.71-.35Z"/>
    <path id="Background" d="m67.66,86.1c.89-.46,1.3-.86,1.69-1.65l.24-.49-.02-2.51c-.02-2.56-.13-5.56-.29-7.91-.55-7.9-1.68-13.24-3.24-15.38-.46-.63-2.57-1.95-4.71-2.95-1.35-.63-5.63-2.53-5.69-2.53-.03,0-.04.58-.03,1.28l.03,1.28.69.25c.97.34,1.63.76,2.4,1.51,1,.98,1.91,2.47,2.38,3.91.39,1.18,2.16,9.09,2.88,12.86.38,1.97.37,2.41-.01,3.21-.14.28-.48.74-.75,1.01-.48.48-.7.61-2.36,1.4-.37.18-.84.44-1.04.59-.44.32-1.05.49-1.51.41-.46-.08-1.09-.51-1.39-.95-.21-.3-.25-.46-.25-.93,0-1.67,1.32-2.5,2.94-1.84.31.12.65.23.76.23s.46-.17.78-.39l.58-.39v-.68c-.02-.72-.67-4.06-1.73-8.89-1.02-4.65-1.26-5.4-2.18-6.77-1.02-1.53-2.38-2.31-3.83-2.18-.74.06-1.1.21-1.79.73-.94.71-1.85,2.01-2.25,3.22-.68,2.06-3.04,12.81-3.04,13.86,0,.72.41,1.21,1.15,1.37.27.06.46.05.72-.05,1.11-.42,1.12-.42,1.62-.31.67.15,1.17.55,1.45,1.14.27.56.29.87.1,1.4-.31.87-.95,1.37-1.79,1.38-.58,0-.98-.14-1.56-.59-.23-.18-.6-.37-.81-.43-.89-.24-2.16-1.05-2.7-1.73-.63-.8-.77-1.72-.49-3.25.88-4.84,2.49-12.28,2.91-13.47.79-2.23,2.39-4.2,4.11-5.08.43-.22.92-.44,1.1-.5.42-.13.44-.26.44-2.32v-1.54s-.79-.38-.79-.38c-.43-.21-1.48-.79-2.33-1.29s-1.55-.9-1.56-.88-.17.58-.34,1.26c-1.03,4.01-3.2,9.08-5.47,12.77-1.44,2.34-3.1,4.52-4.93,6.48-1.48,1.58-1.84,1.61-3.19.2-2.66-2.77-5.19-6.41-7.08-10.22-1.36-2.72-2.2-4.91-3.33-8.64-.31-1.01-.57-1.85-.59-1.87-.02-.02-.2.09-.42.24-.53.36-2.36,1.43-3.45,2.01l-.88.47v18.84l.82.42c2.52,1.3,3.42,4.01,2.16,6.5-.55,1.08-1.83,2.09-2.96,2.33-.61.13-1.64.13-2.34,0-1.51-.28-2.94-1.67-3.43-3.34-.16-.56-.19-1.75-.05-2.36.3-1.29,1.34-2.55,2.6-3.14l.75-.35v-6.31c0-7.79-.07-11.34-.23-11.34-.24,0-3.45,1.44-6.12,2.75-3.91,1.92-4.63,2.74-5.58,6.35-1.15,4.4-1.95,12.7-1.95,20.35v1.74s.31.53.31.53c.42.71.89,1.14,1.69,1.57l.67.36h30.87s30.87,0,30.87,0l.81-.42h0Z"/>
    <path id="Face" d="m54.41,23.39c-.19-.54-.21-.84-.29-3.49-.12-4.38-.27-5.66-.91-7.71-.78-2.53-2.05-4.52-3.65-5.73-.77-.59-2.01-1.16-3.14-1.44-.52-.13-1-.28-1.06-.33s-.29-.47-.51-.93c-.67-1.37-1.84-2.36-3.57-3.06-1-.39-1.63-.51-3.2-.63-2.01-.15-3.78-.07-5.12.23-2.12.48-4.49,1.45-6.36,2.61-4.16,2.58-7.06,6.69-8.16,11.56-.41,1.84-.52,2.97-.53,5.79l-.02,2.63-.25.61c-.15.36-.27.86-.3,1.27-.15,1.73.6,4.49,1.75,6.43.41.7.93,1.29,1.99,2.26.37.33.51.57.84,1.36,2.2,5.23,5.3,8.84,9.27,10.79,1.04.51,2.01.83,3.12,1.04.89.16,2.79.12,3.72-.08,3.91-.86,7.51-3.63,10.05-7.74.6-.97,1.42-2.6,1.97-3.92.39-.93.43-.99,1.37-1.91,1.82-1.79,2.69-3.54,3.12-6.3.2-1.27.15-2.5-.13-3.31Zm-4.9,2.55c-.36,4.26-1.58,8.27-3.46,11.39-1.95,3.22-4.95,5.75-7.84,6.61-1.04.3-2.74.38-3.71.17-2.55-.57-5.2-2.33-7.05-4.68-3.39-4.3-5.21-10.39-5.04-16.86.06-2.44.22-2.89,1.61-4.62,1.24-1.53,2.19-2.27,3.48-2.7.67-.22.86-.24,2.1-.24,1.12,0,1.55.04,2.49.24,2.69.58,5.03.58,7.89.01,3.83-.76,5.81-.07,8.16,2.86.69.86,1.03,1.46,1.24,2.2.19.69.27,3.96.13,5.62Z"/>
    <path id="Eyes" fill="currentColor" d="m48.89,26.62l-.02.16c-.04.25-1.27.43-1.52.4l-2.55-.35c-.22,2.02-1.93,3.59-4.01,3.59s-3.7-1.5-3.99-3.44h-1.67c-.28,1.94-1.96,3.44-3.99,3.44s-3.82-1.6-4.02-3.64l-2.49.33c-.25.03-1.48-.14-1.52-.39l-.02-.17c-.03-.25,1.15-.48,1.39-.52l2.69-.36c.33-1.89,1.98-3.32,3.97-3.32s3.71,1.49,3.99,3.44h1.67c.29-1.95,1.96-3.44,3.99-3.44s3.68,1.46,3.99,3.39l2.72.36c.24.03,1.42.27,1.39.52Z"/>
  </g>
  <path id="Glasses" d="m47.5,26.1l-2.72-.36c-.31-1.93-1.98-3.39-3.99-3.39s-3.7,1.49-3.99,3.44h-1.67c-.28-1.95-1.96-3.44-3.99-3.44s-3.64,1.43-3.97,3.32l-2.69.36c-.24.04-1.42.27-1.39.52l.02.17c.04.25,1.27.42,1.52.39l2.49-.33c.2,2.04,1.92,3.64,4.02,3.64s3.71-1.5,3.99-3.44h1.67c.29,1.94,1.96,3.44,3.99,3.44s3.79-1.57,4.01-3.59l2.55.35c.25.03,1.48-.15,1.52-.4l.02-.16c.03-.25-1.15-.49-1.39-.52Zm-16.36,3.29c-1.66,0-3.01-1.35-3.01-3.01s1.35-3.01,3.01-3.01,3.01,1.35,3.01,3.01-1.35,3.01-3.01,3.01Zm9.65,0c-1.66,0-3.01-1.35-3.01-3.01s1.35-3.01,3.01-3.01,3.01,1.35,3.01,3.01-1.35,3.01-3.01,3.01Z"/>
</svg>