<?xml version="1.0" encoding="UTF-8"?>
<svg id="Icon-Add-Drop" xmlns="http://www.w3.org/2000/svg" viewBox="0 0 73.14 72">
  <defs>
    <style>
      svg {
        color: green;
      }
    </style>
  </defs>
  <g id="Player">
      <g id="Head">
        <g id="Helmet_Top">
          <path fill="currentColor" d="m35.18,2.31c-.97-.19-.81-1.17.09-1.28,1.46-.18,1.38,1.57-.09,1.28Z"></path>
          <path fill="currentColor" d="m37.23,2.31c-.76-.14-.81-1.14,0-1.28,1.41-.25,1.45,1.55,0,1.28Z"></path>
          <path fill="currentColor" d="m29.96,3.42c-.71-.16-.56-1.24.09-1.37,1.34-.28,1.23,1.67-.09,1.37Z"></path>
          <path fill="currentColor" d="m42.62,3.42c-.74-.08-.76-1.15-.09-1.28,1.14-.24,1.2,1.41.09,1.28Z"></path>
        </g>
        <g id="Facemask_Holes">
          <path fill="currentColor" d="m42.66,20.44c-.08.13-.25.31-.38.34-.54.12-10.41.17-10.95.09-.18-.03-.77-.28-.9-.43-.38-.45-.22-.73-.17-1.2.05-.41.12-.65.26-1.03.19-.51.39-1.22,1.07-1.37.4-.08,5.65.23,8.13.17,1.02-.03,1.98-.95,2.78,1.2.05.13.33,1.05.34,1.11.04.36.04.79-.17,1.11Z"></path>
          <path id="_2" d="m40.48,18.22c.76-.14,1.22,2.55-.09,1.8-.43-.25-.44-1.7.09-1.8Z"></path>
          <path id="_1" d="m32.27,18.22c.9-.51.69,1.65.6,1.71-.05.03-.91.02-.98-.13-.04-.07.31-1.54.38-1.58Z"></path>
        </g>
        <path id="Helmet" d="m49.93,6.63c-3.11-3.99-4.53-3.74-4.74-3.98-.33-.37.55-1.35-2.82-2.14-3.21-.75-9.67-.74-12.75.43-2.3.87-1.72,1.5-2.05,1.8-.19.17-1.62.36-3.98,3.04-2.27,2.57-3.94,5.73-3.85,9.24q.68.38,1.37.77v2.18s.16.17.21.17c3.03.22,6.16-.23,9.19.09.19-.51.39-1.22,1.07-1.37.4-.08,5.65.23,8.13.17,1.02-.03,1.98-.95,2.78,1.2,3.05-.33,6.22.23,9.23-.26-.18-3.29,1.45-2.63,1.63-2.95-.23-3.48-1.32-5.68-3.42-8.38Zm-19.97-3.21c-.71-.16-.56-1.24.09-1.37,1.34-.28,1.23,1.67-.09,1.37Zm5.22-1.11c-.97-.19-.81-1.17.09-1.28,1.46-.18,1.38,1.57-.09,1.28Zm2.05,0c-.76-.14-.81-1.14,0-1.28,1.41-.25,1.45,1.55,0,1.28Zm5.39,1.11c-.74-.08-.76-1.15-.09-1.28,1.14-.24,1.2,1.41.09,1.28Z"></path>
        <g id="Face">
          <path id="Facemask" fill="currentColor" d="m54.46,27.75c-.22-2.62,1.3-4.32-1.37-5.9.24-1.02,1.23-1.91.86-3,.04-.14,1.08-.53,1.11-.6.05-.11-.47-2.2-.51-2.31-.21-.55-1.24.11-1.28.17-.25.38.11,1.42-.21,1.67-.15.11-1.07.13-1.33.17-3.01.49-6.18-.08-9.23.26.05.13.33,1.05.34,1.11,2.78-.05,5.6-.08,8.38,0,.21,0,1.31-.05,1.37.04q-.22.82-.43,1.63c-.21.28-1.15-.1-1.62-.13-1.51-.1-7.28-.19-7.65-.26-.05,0-.12-.17-.22-.17-.08.13-.25.31-.38.34-.54.12-10.41.17-10.95.09-.18-.03-.77-.28-.9-.43-2.32.49-6.02.22-8.04.43-.1,0-1.21.5-1.37.38q-.34-.94-.68-1.88c.11-.3.97-.03,1.2-.04,2.91-.12,5.81-.09,8.72-.09.05-.41.12-.65.26-1.03-3.03-.32-6.16.13-9.19-.09-.05,0-.2-.17-.21-.17-.93-.1-1.44.81-1.29-1.67-1.62-1.06-.98-.32-2.13,1.71,1.97.98.86,2.22,1.92,2.52.85,3.1-1.67,1.24-1.33,4.15.03.2.26.4.26.43.27,2.21.51,2.22-.68,3.42.41.45.87,2.04,1.03,2.23.58.65,1.02-.93,2.14,4.02.08.27-.69.31-.77.77-.11.59.49.86.51.94.02.07-.25.91-.09,1.45.24.77,1.87,1.34,2.14,1.8.05.08-.13.48.26.47.69.02,1.37.11,2.05.17-.16-1.96.2-1.2,2.44-.34,1.22,4.04,1.76,6.04,6.24,6.76,5.6.89,10.85-.18,11.33-6.71q1.24-.45,2.48-.9.09-.02.17-.05c.32,2.47,2.38.67,3.51.05,2.13-2,.71-2.04.85-2.69.03-.11,1.27-.81-.26-1.63.73-1.6.5-3.68,2.4-4.28.33-1.89,1.52-1.76.17-2.82Zm-34.68,1.75c-.12-.15-.98-1-.98-1.07,0-.1.52-.64.56-.64.44-.04.62,1.67.43,1.71Zm1.07-2.1c-.11-.23-.65-.54-.77-.77-.28-.52-.77-3.35.39-2.95.33.11,1.81,5.84,2.05,6.59-2.02-.08-1.22-1.85-1.67-2.87Zm2.61,11.33c-.21-.16-1.64-.97-1.67-1.07,0-.04.12-.78.22-.81.12-.04,1.76,1.01,1.45,1.88Zm-1.41-3.72c-.06-.16-.45-2.71-.55-3.29.32.07,1.15.23,1.32.47.1.13.95,3,.94,3.16-.03.97-1.52.12-1.71-.34Zm3.85,1.37c.14-.71-.9-3.74-.86-3.93,0-.03.1-.08.13-.13.27.14.55.06.6.09.28.16,1.48,5.4,1.71,6.16-3.52-1.18-1.72-1.47-1.58-2.18Zm2.91,2.22c-.23-.38-1.53-4.95-1.67-5.94q.81.08,1.63.17.11.11.21.22c.04.87,1.23,5.68,1.2,5.99-.03.32-1.04.11-1.37-.43Zm.55,1.84c1.42.09,1.18,1.7,2.65,2.65q.05-1.03.09-2.05,1.03.08,2.05.17c.36.16.22,3.61.38,4.14-3.18.16-5.15-1.65-5.18-4.91Zm1.03-7.53q1.74.15,3.47.3c0,.77.65,6.35.38,6.54-.5-.02-2.65-.1-2.87-.38-.19-.74-1.25-6.26-.98-6.45Zm6.76,12.74c-.12.05-1.43-.04-1.5-.13l-.13-4.23q1.18.06,2.35.13c-.1.54-.49,4.12-.72,4.23Zm-1.75-5.94l-.3-6.54q1.82.02,3.64.04-.32,3.27-.64,6.54-1.35-.02-2.69-.04Zm5,5.51c-3.16.9-1.65.05-1.24-3.89q.96-.15,1.92-.3c-.42,1.98-.22,2.85,1.07.81.33-.51.25-1.45,1.32-1.41.13,0,.25-.03.3.04-.25,2.29-1.02,4.08-3.38,4.74Zm-.55-11.93q.11-.11.21-.22c.69.11,1.38-.15,2.06-.17.45-.02.88-.05.81.13-.24.86-.91,6.21-1.33,6.45q-1.11.13-2.22.26c-.31-.1.59-5.72.47-6.45Zm4.7,5.39c-.14.25-1.1.38-1.41.47q.45-3.1.9-6.2c.08-.11.65-.2.81-.22.31-.03.63.02.94,0q.02.11.05.22c-.4.79-1.14,5.48-1.28,5.73Zm2.78-1.92c.12.16,1.76.35-1.54,1.63-.01-.73.96-5.1,1.07-5.34.11-.23.33-.38.55-.38.13,0,.41-.01.43,0,.27.18-1.11,3.29-.51,4.1Zm1.07-6.03c-.33.1-.98.32-1.03.04,0,.01-.08-.04-.13.26-.22,0-.75.05-.9.09-4.15,1-13.12.99-17.4.43-.71-.1-1.4-.37-2.09-.51-.06-.01-.35.09-1.29-.17-.3-.09-.92-.13-1.11-.38-.09-.8-2.57-6.77-2.27-6.97,1.12-.22,1.22.3,1.84,1.88-.44-2.13-1.29-1.71.09-1.8.55-.03.92-.01,1.45,0,4.04.12,8.07.58,12.11.51,3.29-.05,6.58-.57,9.87-.6.76,0,1.46,0,2.23.08.17.02.87-.05.94.05-.22,2.51-1.65,4.69-2.31,7.1Zm.94,7.35c.04-.1,1.57-1.27,1.67-1.24,1.11.34-2.2,2.74-1.67,1.24Zm.05-1.92q.4-1.99.81-3.98c0-.2,1.01-.47,1.07-.47.09,0,.17,0,.26,0-.52,2.57.05,3.63-2.13,4.45Zm2.61-8.59c-.07,1.84.32,2.54-1.41,2.61.24-2.27,1.57-4.23,1.88-6.5.6-.22,1.93,2.07-.47,3.89Zm1.33,1.75c-.2-.05-.29-1.69.26-1.71.17,0,.65.92.64.98-.02.12-.77.57-.9.72Z"></path>
          <path d="m30.43,20.44c-2.32.49-6.02.22-8.04.43q-.43-.77-.86-1.54c2.91-.12,5.81-.09,8.72-.09-.05.47-.21.75.17,1.2Z"></path>
          <path d="m51.21,19.33q-.34.77-.68,1.54c-1.51-.1-7.28-.19-7.65-.26-.05,0-.12-.17-.22-.17.21-.33.21-.75.17-1.11,2.78-.05,5.6-.08,8.38,0Z"></path>
          <path d="m47.54,23.52c-.11.33-.18.68-.26,1.03-7.13.6-14.37,1.23-21.46,0,0-.05-.27-.55-.26-.94,4.04.12,8.07.58,12.11.51,3.29-.05,6.58-.57,9.87-.6Z"></path>
          <path d="m26.84,31.05c-.06-.01-.35.09-1.29-.17-.47-1.81-.85-3.73-1.54-5.47-.44-2.13-1.29-1.71.09-1.8.55-.03.92-.01,1.45,0,0,.39.25.89.26.94.37,1.94.48,3.95.85,5.9.04.2.09.41.17.6Z"></path>
          <path d="m49.76,23.6c-.85,1.12-2.18,6.84-2.4,7.19,0,.01-.08-.04-.13.26-.22,0-.75.05-.9.09.28-2.2.48-4.42.94-6.59.07-.35.15-.69.26-1.03.76,0,1.46,0,2.23.08Z"></path>
          <path d="m38.26,22.83c-2.24-.44-4.5.71-3.68-1.03,2.15.12,5.23-.5,3.68,1.03Z"></path>
          <path d="m25,21.98c1.03.12,7.34-.15,7.7,0,.09.04.18.23.13.3-.32.38-8.77-.25-9.92-.17l2.1-.13Z"></path>
          <path d="m40.4,21.9c.41-.29,8.77.22,9.96.21l-9.96.21c-.07-.05-.07-.38,0-.43Z"></path>
        </g>
      </g>
      <g id="Body">
        <path id="Bottom_Outline" fill="currentColor" d="m54.89,70.03c-.86.17-1.75.49-2.61.68-1.47.06-2.92.17-4.36.34-.03,0-.4.24-.51.26-.2.02-.43-.13-.86-.09-.03,0-.38.24-.6.26-.44.05-.64-.1-.77-.08-.42.04-1.56.53-2.56.08-.66.44-1.43-.04-2.06.43-1.09-.09-2.2-.15-3.25.08-.75.03-1.99-.16-2.65-.17-.04,0-.28.18-.86.17-.03,0-.57-.17-.6-.17-1.84-.05-3.73,0-5.56-.17-.83-.07-1.78-.54-2.56-.26-.29-.18-.54.1-.94-.51-2.04.11-4.1-.62-6.16-.77-.08-.04-.16-.23-.22-.34-.06-.13-.13-.76-.17-.86,2.24.8,4.8.76,6.97,1.63,2.34.15,5.77.71,7.95.77,3.37.09,6.86-.61,10.18-.09,2.47-.63,5.07-.69,7.61-.94q2.48-.56,4.96-1.11c.5.76-.28.45-.38.86Z"></path>
        <path id="Left_Outline" fill="currentColor" d="m17.69,67.51q-.3.11-.6.22c-.11-.19-.11-.45-.3-.6-.91-.15-2.5-1.83-3-2.65-2.24-1.23-9.35-3.18-10.35-3.68-.43-.21-.88-.64-1.15-1.03-.85-.55-1.17,2.03-1.07,2.14.25,0,.5.07.73.17-.1.22-.38.71-.34.9.14.62,6.32,3.04,7.23,3.38,1.93.71,5.07,1.56,6.11,1.96.76.29,1.17.33.86,1.28-.09,0-.14.23-.47.17-4.77-1.7-10.48-2.94-14.58-5.94-2.13-4.01,1.07-3.99-.6-6.54q.47-.82.94-1.63s.3.11.34.22c-.49,1.02-.91,1.61.38,1.41.12-.02.61-.75-.13.55.08.46.19.88.34,1.32,3.85,2.03,8.33,2.51,12.01,4.88.97-.7-.33.65.26.68.43.03,1.48-2.27.64-.13.94.88,1.8,2.62,2.74,2.91Z"></path>
        <path id="Right_Outline" fill="currentColor" d="m71.65,64.09c0,.15.47.05.04.38-1.23.99-7.09,3.12-8.89,3.68-.17.05-.38.33-.6.43-1.05.02-4.14.58-4.66,1.2-.36-1.34.31-1.33,1.37-1.88-.09.11-.09.17-.26.22,2.41-.26,10.78-3.37,12.27-4.75.5-.46.69-.82.81-1.45,0-.03.24.02.17-.55-.04-.36-.7-2.43-1.2-1.58-.2.35-.61.88-.98,1.03-2.18.67-9.16,2.83-10.61,3.85-.55.39-1.4,1.84-1.5,1.92-.38.33-.48.19-.51.21-.26-.25.72-1.75.94-2.01.67-.8,1.46-1.16,2.4-1.58.31-.14,1.22-.42,1.88-.68,1.26-.51,2.58-.66,2.52-1.54.19.8,4.18-.57,4.53-.77.19-.11,1.31-1.15,1.5-1.37.71-.85.94-1.69,1.45-2.65.11.21.42.48.51.68.08.17.21.16.17.47-1.32,2.18-.03,3.11.09,3.85.28,1.83-1.46,2.73-1.45,2.91Z"></path>
        <path id="Right_Stripe" fill="currentColor" d="m71.74,61.91c-.12.64-.31.99-.81,1.45-1.49,1.38-9.86,4.49-12.27,4.75.16-.05.17-.1.26-.22.71-.96.64-1.56,1.15-1.88q5.84-2.05,11.67-4.1Z"></path>
        <path id="Left_Stripe" fill="currentColor" d="m14.95,68.32c-1.05-.4-4.19-1.25-6.11-1.96-.91-.34-7.09-2.76-7.23-3.38-.04-.19.25-.68.34-.9,3.65,1.56,7.61,2.39,11.24,4.02.35.9.96,1.68,1.75,2.22Z"></path>
        <path id="Right_Neck" fill="currentColor" d="m48.3,42.36c.02.08-.16.71-.34.98-.02.03-.2.15-.43.43-.16.19-1.52,1.53-1.63,1.36.03-.58-.08-1.13-.08-1.71-.01-.97-.14-1.94-.05-2.91,1.08.34,1.19,1.16,1.5,1.54.58.7.96-.05,1.03.3Z"></path>
        <path id="Left_Neck" fill="currentColor" d="m27.27,42.24c-.02,1.03-.12,2.05-.09,3.08-.63-.58-1.72-1.31-2.14-2.05-.11-.21-.19-.42-.26-.65.24-.27.9-.68.94-.72.49-.47.94-.97,1.5-1.37.13.04.05,1.44.04,1.71Z"></path>
        <path id="Jersey" d="m72.34,56.18c-.51.96-.74,1.8-1.45,2.65-.19.22-1.31,1.25-1.5,1.37-.35.2-4.35,1.57-4.53.77.05.88-1.26,1.03-2.52,1.54-.66.27-1.57.54-1.88.68-.93.42-1.72.78-2.4,1.58-.22.26-1.2,1.76-.94,2.01-.17.12-.33.08-.47.17-.47.3-1.13,2.28-1.07,2.9-.34.06-.54.14-.68.17.1-.41.88-.1.38-.86q-2.48.55-4.96,1.11c-2.54.25-5.14.31-7.61.94-3.32-.53-6.81.18-10.18.09-2.18-.06-5.61-.62-7.95-.77-2.17-.87-4.74-.82-6.97-1.63-.11-.28-.42-1.03-.51-1.2q.3-.11.6-.22c-.93-.28-1.8-2.03-2.74-2.91.84-2.14-.22.16-.64.13-.59-.04.71-1.38-.26-.68-3.69-2.37-8.17-2.85-12.01-4.88-.15-.44-.26-.87-.34-1.32.74-1.31.25-.57.13-.55-1.29.2-.87-.39-.38-1.41-.04-.1-.34-.2-.34-.22-.59-2.22.21-4.85,1.71-6.54,1.46-1.64,2.79-1.84,2.95-1.93.23-.13.83-.71,1.28-.94,2.71-1.35,4.95-1.67,7.87-1.11q1.31.6,2.61,1.2c.87-.68,1.38-.04,3-.6.52-.18,4.04-1.94,4.53-2.48.42.74,1.51,1.47,2.14,2.05.8.72,1.69,1.35,2.44,2.13q1.15.73,2.31,1.46c1.47,1.43,3.39,2.5,4.45,4.27.54-.41.76-1.06,1.24-1.54.52-.51,1.31-.9,1.88-1.36.94-.76,6.29-4.58,6.41-5.13.11.17,1.47-1.17,1.63-1.36.23-.28.41-.4.43-.43,1.43.93,3.1,1.41,4.45,2.48q.32.13.64.26c1.03.02,2.09-.1,3.08.26,1.08-.84,2.37-1.25,3.72-1.37,1.64-.15,3.91.17,5.43.86.54.24,1.09.74,1.15.77.92.48,1.86.91,2.69,1.54,3.74,3.34,2.62,6.31,2.86,7.48,0,.03.22.33.34.55Z"></path>
      </g>
      <g id="Plus-Minus">
        <path id="Plus" fill="currentColor" d="m16.99,62.79c1.39-.26,2.52-1.41,2.74-2.81.04-.26.08-1.41.08-2.55v-2.08h2.25c2.98,0,3.38-.11,4.34-1.14,1.68-1.81.77-4.73-1.69-5.39-.29-.08-1.04-.11-2.65-.11h-2.25s0-2.12,0-2.12c0-2.96-.15-3.55-1.14-4.47-.68-.63-1.18-.81-2.25-.81-.92,0-1.28.11-1.98.59-.46.32-.99,1.08-1.18,1.69-.15.48-.16.75-.16,2.82v2.3h-2.25c-2.45,0-2.88.06-3.57.46-1.15.67-1.82,2.07-1.62,3.36.23,1.43,1.31,2.54,2.74,2.81.23.04,1.38.08,2.56.08h2.13v2.26c0,2.02.02,2.31.16,2.77.37,1.21,1.27,2.03,2.51,2.3.57.12.7.13,1.22.03h0Z"></path>
        <path id="Minus" fill="currentColor" d="m65.21,55.22c.36-.14.63-.34,1.06-.77.77-.77.96-1.23.96-2.36,0-.78,0-.84-.3-1.43-.49-1-1.34-1.63-2.44-1.84-.62-.11-15.24-.12-15.93,0-1.47.24-2.58,1.34-2.83,2.8-.28,1.61.89,3.36,2.5,3.74.18.04,3.71.07,8.4.06h8.09s.49-.21.49-.21Z"></path>
      </g>
    </g>
</svg>