<?xml version="1.0" encoding="UTF-8"?>
<svg id="Lockers" xmlns="http://www.w3.org/2000/svg" viewBox="0 0 72 80.08">
  <defs>
    <style>
      svg {
        color: green;
      }
    </style>
  </defs>
  <g id="Locker-Group">
      <path id="Outline" fill="currentColor" d="m69.5,0H2.5C1.12,0,0,1.12,0,2.5v75.08c0,1.38,1.12,2.5,2.5,2.5h67c1.38,0,2.5-1.12,2.5-2.5V2.5c0-1.38-1.12-2.5-2.5-2.5Zm-2.29,72.64c0,1.47-1.2,2.67-2.67,2.67h-26.94c-.57,0-1.11-.19-1.57-.52-.45.33-1,.51-1.56.52H7.44c-1.47,0-2.67-1.2-2.67-2.67V7.44c0-1.47,1.2-2.67,2.67-2.67h27c.56.01,1.11.19,1.56.52.45-.33,1-.51,1.56-.52h27c1.47,0,2.67,1.2,2.67,2.67l-.02,65.2Z"></path>
    <g id="Lockers-2">
        <path id="Right-Locker" d="m64.6,6.98h-27c-.26,0-.47.2-.47.46v65.2c0,.26.21.46.47.46h27c.25,0,.46-.2.46-.46V7.44c0-.26-.21-.46-.46-.46Zm-20.03,41.57v-11.39c0-.87.71-1.58,1.58-1.58s1.57.71,1.57,1.58v11.39c0,.87-.7,1.58-1.57,1.58s-1.58-.71-1.58-1.58Zm2.05,11.45v1.9c-.03.2-.19.36-.39.39-.26.04-.5-.13-.54-.39v-1.9c-.74-.21-1.25-.88-1.25-1.65,0-.95.77-1.72,1.72-1.72.77,0,1.43.51,1.64,1.25.26.91-.26,1.86-1.18,2.12Zm13.89-32.16h-19.1c-.61,0-1.1-.5-1.1-1.11s.49-1.1,1.1-1.1h19.1c.61,0,1.1.5,1.1,1.1s-.49,1.11-1.1,1.11Zm0-5.62h-19.1c-.61,0-1.1-.5-1.1-1.11s.49-1.1,1.1-1.1h19.1c.61,0,1.1.5,1.1,1.1s-.49,1.11-1.1,1.11Zm0-5.62h-19.1c-.61,0-1.1-.5-1.1-1.11s.49-1.1,1.1-1.1h19.1c.61,0,1.1.5,1.1,1.1s-.49,1.11-1.1,1.11Z"></path>
        <path id="Left-Locker" d="m34.44,6.98H7.44c-.26,0-.46.2-.46.46v65.2c0,.26.2.46.46.46h27c.25,0,.46-.2.46-.46V7.44c0-.26-.21-.46-.46-.46ZM14.89,48.55v-11.39c0-.87.7-1.58,1.57-1.58s1.58.71,1.58,1.58v11.39c0,.87-.71,1.58-1.58,1.58s-1.57-.71-1.57-1.58Zm2.02,11.45v1.9c-.03.2-.19.36-.39.39-.26.04-.5-.13-.54-.39v-1.9c-.74-.21-1.25-.88-1.25-1.65,0-.95.77-1.72,1.72-1.72.77,0,1.43.51,1.65,1.25.26.91-.27,1.86-1.19,2.12Zm13.61-32.16H11.38c-.61,0-1.1-.5-1.1-1.11s.49-1.1,1.1-1.1h19.1c.61,0,1.1.5,1.1,1.1s-.47,1.09-1.06,1.11Zm0-5.62H11.38c-.61,0-1.1-.5-1.1-1.11s.49-1.1,1.1-1.1h19.1c.61,0,1.1.5,1.1,1.1s-.47,1.09-1.06,1.11Zm0-5.62H11.38c-.61,0-1.1-.5-1.1-1.11s.49-1.1,1.1-1.1h19.1c.61,0,1.1.5,1.1,1.1s-.47,1.09-1.06,1.11Z"></path>
    </g>
      <path id="Right-Lock" fill="currentColor" d="m51.59,54.36h-10.85c-.67-.06-1.25.44-1.31,1.1v7.72c.06.66.64,1.15,1.31,1.1h10.84c.67.05,1.25-.44,1.31-1.1v-7.72c-.04-.66-.63-1.16-1.3-1.1Zm-4.97,5.64v1.9c-.03.2-.19.36-.39.39-.26.04-.5-.13-.54-.39v-1.9c-.74-.21-1.25-.88-1.25-1.65,0-.95.77-1.72,1.72-1.72.77,0,1.43.51,1.64,1.25.26.91-.26,1.86-1.18,2.12Z"></path>
      <path id="L-R-Lock" fill="currentColor" d="m43.11,48.85c-.28.48-.43,1.03-.43,1.59v2.66h-1.87v-2.66c-.02-1.74.85-3.36,2.3-4.32v2.73Z"></path>
      <path id="R-R-Lock" fill="currentColor" d="m49.19,48.85v-2.68c1.43.95,2.29,2.55,2.29,4.26v2.66h-1.88v-2.66c.02-.57-.12-1.14-.4-1.64v.06Z"></path>
      <path id="Left-Lock" fill="currentColor" d="m21.88,54.36h-10.85c-.67-.06-1.25.44-1.31,1.1v7.72c.06.66.64,1.15,1.31,1.1h10.85c.67.05,1.26-.44,1.32-1.1v-7.72c-.06-.66-.65-1.16-1.32-1.1Zm-4.97,5.64v1.9c-.03.2-.19.36-.39.39-.26.04-.5-.13-.54-.39v-1.9c-.74-.21-1.25-.88-1.25-1.65,0-.95.77-1.72,1.72-1.72.77,0,1.43.51,1.65,1.25.26.91-.27,1.86-1.19,2.12Z"></path>
      <path id="R-L-Lock" fill="currentColor" d="m13.42,48.85c-.28.48-.43,1.03-.43,1.59v2.66h-1.84v-2.66c-.04-1.72.79-3.34,2.2-4.32v2.44c0,.08,0,.15.06.23v.07Z"></path>
      <path id="L-L-Lock" fill="currentColor" d="m19.5,48.85v-2.68c1.43.95,2.29,2.55,2.29,4.26v2.66h-1.83v-2.66c0-.58-.17-1.15-.47-1.64v.06Z"></path>
  </g>
</svg>