<?xml version="1.0" encoding="UTF-8"?>
<svg id="Doctor" xmlns="http://www.w3.org/2000/svg" viewBox="0 0 72 82.24">
  <defs>
    <style>
       svg {
        color: green;
      }
      </style>
    </defs>
  <g id="Doctor">
      <path id="Body" d="m24.63,81.77c-9.57-1.36-19-4.66-23.08-8.07l-1.55-1.3v-5.46c.02-6.02.38-8.17,1.87-11.14,2.22-4.41,5.87-7.55,11.71-10.04,5.2-2.23,4.86-2.29,4.78.86l-.06,2.72-1.7.84c-2.1,1.04-3.62,2.8-4.16,4.81-.32,1.2-.24,2.27.39,4.85.44,1.82.93,4.13,1.08,5.12.37,2.46,1.35,3.36,3.68,3.36,1.59,0,1.86-.12,1.86-.83,0-.97-.12-.99-1.91-.34-1.93.7-2.42.1-3.19-3.91-1.16-6.01-1.23-7.09-.57-8.67,2.21-5.3,11.68-5.95,13.78-.94.66,1.58,2.24,8.63,2.24,9.99,0,1.1-1.37,1.97-2.61,1.64-1.14-.3-2.12.48-1.52,1.21.36.43.65.42,1.56-.05.61-.32,1.32-.58,1.57-.59.25,0,.79-.37,1.2-.83.71-.78.71-1.01.08-4.45-.37-1.99-.78-4.41-.92-5.38-.53-3.59-3.42-6-7.26-6.08-1.88-.04-2.03-.12-2.31-1.28-.68-2.83-.14-4.44,1.7-5.11.82-.3,2.32-1.17,3.34-1.95s1.86-1.33,1.86-1.23.72,3.5,1.6,7.55c.88,4.05,2.32,10.72,3.21,14.82l1.61,7.45.27-3.31c.15-1.82.4-6.59.57-10.59.28-6.87.25-7.39-.58-9.26-.48-1.09-.88-2.05-.88-2.13s.48.04,1.06.26c.58.22,1.88.4,2.87.4s2.29-.18,2.87-.4c1.28-.49,1.27-.56.19,1.92-.8,1.83-.85,2.49-.62,7.8.39,8.91.76,14.73.93,14.56.12-.12,5.94-28.67,5.94-29.14,0-.06.8.5,1.79,1.25.98.75,2.38,1.61,3.09,1.91,1.71.71,2.95,3.94,3.28,8.56.26,3.72-.02,5.56-.85,5.56-.96,0-2.34,1.87-2.34,3.16,0,3.36,5.01,4.23,6.12,1.06.47-1.35-.23-3.53-1.27-3.92-.49-.19-.66-1.26-.8-4.93-.11-2.86-.44-5.41-.86-6.54-.37-1.02-.64-1.88-.59-1.92.05-.04,1.86.65,4.02,1.54,6.84,2.8,10.67,5.91,13.02,10.59,1.59,3.17,2.01,5.9,1.79,11.67-.2,5.1-.21,5.18-1.4,6.13-1.99,1.61-8.02,4.53-11.75,5.7-6.34,1.99-12.23,2.79-21.54,2.95-5.83.1-9.79-.04-12.63-.45h0Z"></path>
      <path id="Chestpiece" fill="currentColor" d="m52.4,60.89c-.86-.95-.66-1.85.56-2.5.68-.36,1.01-.29,1.71.42.78.78.81.96.27,1.77-.8,1.21-1.64,1.31-2.54.31Z"></path>
      <path id="Face" fill="currentColor" d="m53.99,20.94c-.09-8.4-1.38-12.56-5.01-16.19-3.09-3.09-7.75-4.75-13.39-4.75s-12.41,2.86-12.41,5.43c0,.39-.65,1.12-1.44,1.61-1.11.69-1.59,1.38-2.07,3.01-.35,1.16-.63,2.8-.63,3.64s-.28,2.32-.62,3.29c-1.19,3.37-.65,7.78,1.21,9.94.49.57,1.78,2.85,2.86,5.06,2.91,5.97,6.81,9.93,11.17,11.33,5.56,1.78,12.15-3.3,16.73-12.9.65-1.35,1.73-3.28,2.4-4.29,1.12-1.67,1.22-2.13,1.19-5.18Zm-28.49-8.89c1.33-1.05,2.47-1.08,7.01-.19,3.39.67,3.54.66,6.11-.21,3.28-1.11,3.45-1.11,5.82.09,1.81.91,1.93.93,1.93.21,0-1.8,1.9.15,2.83,2.91.79,2.31.71,2.41-1.69,2.1-2.36-.31-7.87.18-9.63.84-1.33.51-1.92.47-4.55-.27-1.14-.32-3.98-.6-6.31-.6-2.41-.01-4.24-.19-4.24-.42,0-.87,1.7-3.65,2.73-4.46Zm21,13.53c-1.03.53-3.02.81-4.28.6-3.03-.5-5.54-5.95-3.29-7.15.47-.25,2.48-.56,4.47-.69,3.06-.2,3.73-.12,4.32.47,1.33,1.33.51,5.88-1.23,6.77Zm-14.66-.27c-.55.39-1.56.8-2.25.9-2.97.45-4.82-.77-5.55-3.65-.6-2.4-.59-2.55.37-3.51.96-.96,4-1.11,7.4-.39,1.81.39,2.1.6,2.34,1.67.32,1.47-.81,3.91-2.31,4.98Zm17.97.95c-.45.14-1.55,1.9-2.7,4.31-2.16,4.55-4.69,7.51-7.49,8.78-3.9,1.77-7.96.62-11.61-3.29-1.92-2.06-4.42-6.57-4.42-7.99,0-.39-.58-1.25-1.29-1.91-.85-.79-1.4-1.81-1.64-3.02-.44-2.26-.09-4.51.7-4.51.7,0,1.18,1.17,1.57,3.86.19,1.3.69,2.44,1.45,3.29,1.03,1.15,1.45,1.31,3.8,1.44,2.1.12,2.91-.02,3.96-.68,1.73-1.08,2.63-2.51,2.91-4.6.19-1.43.36-1.67,1.09-1.57.65.1.93.52,1.11,1.64.53,3.24,2.99,5.31,6.31,5.31,3.62,0,5.41-1.67,5.94-5.58.51-3.71,2.21-4.17,2.21-.59,0,2.45-.87,4.75-1.93,5.1Z"></path>
      <polygon id="Plus" fill="red" points="56.07 69.89 56.07 74.17 51.78 74.17 51.78 78.45 47.51 78.45 47.51 74.17 43.23 74.17 43.23 69.89 47.51 69.89 47.51 65.61 51.78 65.61 51.78 69.89 56.07 69.89"></polygon>
    </g>
</svg>