<?xml version="1.0" encoding="UTF-8"?>
<svg id="Touchdown" xmlns="http://www.w3.org/2000/svg" viewBox="0 0 72.24 73.82">
  <defs>
    <style>
      .cls-1 {
        fill: green;
      }

      .cls-2 {
        stroke: #000;
        stroke-miterlimit: 10;
        stroke-width: .24px;
      }
    </style>
  </defs>
  <g id="TD">
    <path id="L-Hand" class="cls-1" d="m10.1,7.52c0,.21,0,.42-.02.63,0,.21-.01.41-.03.61h0c-.33,4.5-2.41,7.96-4.92,7.96-1.21,0-2.32-.8-3.19-2.13.03-.08.07-.14.11-.2.32-.45.23-1.05-.86-6.09-.32-1.49-.57-2.77-.76-3.78C.75,2.78,1.35,1.28,2.12.19c.18-.05.37-.07.55-.07,1.55,0,2.33.9,2.9,3.35.45,1.95,1.22,3.62,1.67,3.62.12,0,.32-.2.46-.45.26-.49,1.4-.98,2.3-.99.06.6.1,1.23.1,1.87Z"/>
    <path id="R-Hand" class="cls-1" d="m70.1,13.54l.93-4.74s.01-.07.02-.11c0-.02.01-.04.01-.06v-.02c.02-.17.02-.35.02-.53,0-3.29-.93-6.17-2.34-7.8h-.01c-.77.27-1.39.91-1.61,1.81-.58,2.37-1.07,3.84-1.5,4.55q-.46.76-.82.24c-.45-.63-1.56-1.23-2.3-1.23-.41,0-.85.16-1.24.43-.08.64-.12,1.31-.12,2,0,5.08,2.22,9.2,4.97,9.2.07,0,.14,0,.21-.01.34-.02.68-.12,1.01-.27l2.77-3.46Z"/>
    <path id="Face" class="cls-1" d="m45.65,47.51c-1.64,4.28-5.29,7.25-9.53,7.25s-7.91-2.99-9.54-7.29c1.16.42,2.18.71,2.44.65.62-.16,1.39-1.16,1.62-2.11.22-.9-.16-1.75-1.4-3.12-1.21-1.35-2.08-3-2.75-5.24h0c1.59-4.43,5.31-7.53,9.63-7.53s8.28,3.3,9.78,7.94c-.62,1.98-1.42,3.39-2.71,4.84-1.57,1.77-1.84,2.72-1.15,4.05s1.15,1.49,3.61.56Z"/>
    <path id="Referee" class="cls-2" d="m70.97.48c-.76-.39-1.55-.44-2.23-.2h0c-.77.27-1.39.91-1.61,1.81-.58,2.37-1.07,3.84-1.5,4.55q-.46.76-.82.24c-.45-.63-1.56-1.23-2.3-1.23-.41,0-.85.16-1.24.43-.51.33-.95.84-1.13,1.39-.26.79-.21,1.15.38,3.16.63,2.14.65,2.31.29,3.05-.2.43-1.37,5.38-2.58,10.99-1.22,5.61-2.46,10.8-2.75,11.53-.52,1.28-1.58,3.06-4.5,7.59l-1.33,2.06c-.05.08-.13.14-.22.18l-2.78,1.1c-.36.14-.69.27-.99.38-2.46.93-2.92.77-3.61-.56s-.42-2.28,1.15-4.05c1.29-1.45,2.09-2.86,2.71-4.84.09-.25.16-.52.24-.8.46-1.68.65-1.9,1.79-2.14.98-.2,1.04-.95.46-5.28-.29-2.13-.58-4.84-.66-6.03-.18-3.03-.23-3.17-1.32-3.86-1.78-1.13-1.66-1.42-1.66,4.04,0,3.69.08,5.09.33,5.62.18.38.39,1.1.46,1.6q.18,1.15-4.04-.1c-5.08-1.52-6.95-1.4-14.4.91-.38.12-.42.04-.3-.61.08-.41.21-1.08.29-1.48.09-.48.35-.81.72-.96l.28-.1c.18-.07.3-.25.3-.44v-4.74c0-2.78-.07-5.05-.16-5.05-.44,0-2.97,1.87-3.19,2.35-.14.31-.26,1.07-.26,1.7,0,1.25-.8,8.04-1.19,10.1-.35,1.86-.1,2.21,1.79,2.5.37.05.58.48.98,1.91.04.15.08.3.13.44h0c.67,2.25,1.54,3.9,2.75,5.25,1.24,1.37,1.62,2.22,1.4,3.12-.23.95-1,1.95-1.62,2.11-.26.06-1.28-.23-2.44-.65-1.7-.61-3.7-1.48-4.03-1.85-.2-.22-1.61-2.44-3.13-4.93-2.31-3.76-2.85-4.82-3.18-6.25-.22-.95-1.3-5.94-2.41-11.09-1.26-5.82-2.17-9.51-2.41-9.78-.36-.39-.34-.58.24-2.46.88-2.89.84-3.77-.23-4.71-.47-.41-1.1-.75-1.41-.75h-.02c-.9.01-2.04.5-2.3.99-.14.25-.34.45-.46.45-.45,0-1.22-1.67-1.67-3.62C5,1.02,4.22.12,2.67.12c-.18,0-.37.02-.55.07C1.19.41.32,1.16.14,2.02c-.06.25.05,1.12.29,2.5.19,1.01.44,2.29.76,3.78,1.09,5.04,1.18,5.64.86,6.09-.04.06-.08.12-.11.2-.15.29-.25.7-.25,1.01,0,.81,3.45,19.75,3.99,21.92.53,2.11.48,1.98,5.86,13.23l4.9,10.24c.03.07.05.14.04.21l-.08,5.73c-.08,5.32-.05,5.89.34,6.32.54.6,1.42.6,2.03-.01.38-.38.49-.82.5-1.99.01-.83.1-3.4.2-5.73l.18-4.09c0-.09.03-.17.08-.24l1.69-2.46c.98-1.41,1.86-2.57,1.97-2.57.1,0,.19,3.84.19,8.54v8.07c0,.26.21.47.47.47h5.08c.25,0,.46-.21.46-.47v-8.91c0-6.03.09-9.38.24-9.38.13,0,.94.27,1.8.62,1.5.6,1.55.65,1.7,1.62.08.55.11,4.47.07,8.7l-.07,7.23c-.01.26.2.47.45.48l2.61.05,2.59.06c.26.01.47-.2.47-.47l.06-8.24.06-8.4c0-.19.12-.37.3-.43l2.45-.94c.3-.12.63.1.63.43l.11,8.62.12,8.85c0,.26.2.46.45.47l2.5.05,2.47.06c.26,0,.48-.21.48-.47v-7.83c0-4.56.08-8.3.18-8.3s.91,1.09,1.8,2.42c1.41,2.1,1.63,2.56,1.64,3.54.01.63.1,3.16.2,5.64.15,3.87.24,4.57.62,4.99.52.57,1.29.63,1.94.14.45-.32.47-.68.47-6.43v-5.98c0-.07.02-.14.05-.21l5.03-10.48c2.79-5.82,5.2-10.96,5.34-11.43.23-.7,3.72-19.22,4.25-22.54.12-.75.05-1.19-.26-1.72-.18-.3-.28-.5-.24-1.04.05-.71.33-1.99.95-4.85,0-.02.01-.04.01-.06v-.02c1.44-6.66,1.43-7.34-.09-8.13ZM2.69,2.28c.29,0,.61.82.92,2.36.3,1.56.83,2.6,2.28,4.57,1.4,1.91,1.88,1.93,2.86.11.54-1.01,1.2-1.56,1.33-1.17.02.04.03.1.03.18,0,.09-.02.24-.06.43h0c-.3,1.31-1.47,4.57-1.72,4.67-.18.07-1.09.2-2.01.29l-1.27.13c-.24.02-.46-.14-.51-.37l-.41-1.85c-.28-1.24-.82-3.64-1.2-5.34-.66-2.94-.73-4.01-.24-4.01Zm16.28,54.61c-.29.39-.59.71-.67.71-.25,0-9.36-19.33-9.63-20.44-.14-.6-1.05-5.4-2.02-10.67-1.45-7.9-1.7-9.6-1.42-9.71.19-.07.44-.03.55.08.11.12,1.14,4.92,2.29,10.67l2.07,10.38s.03.09.05.13l4.64,8.78c2.56,4.86,4.66,8.95,4.66,9.1,0,.14-.23.58-.52.97Zm5.55-6.16l-1.35,1.25c-1.03.96-1.93,1.75-1.99,1.76-.14,0-8.5-15.92-8.77-16.7-.15-.42-4.22-20.2-4.22-20.49,0-.06.24-.08.53-.03.39.05.59.3.72.92.1.46,1.06,4.9,2.13,9.86,2.22,10.36,2.08,9.99,6.3,16.71l2.64,4.21c.05.08.13.14.22.18l2.09.89,1.56.66c.31.14.38.55.14.78Zm9.8.54l-1.64-1.81c-.12-.12-.16-.31-.1-.47l.54-1.46.52-1.41c.07-.19.25-.32.46-.31l2.05.06,2.09.06c.18,0,.35.12.42.29l.61,1.46.62,1.47c.07.17.04.36-.08.5l-1.48,1.62c-.92,1.02-1.78,1.89-1.92,1.94-.14.04-1.08-.83-2.09-1.94Zm-5.29-15.77l-.03-.69c0-.21.13-.4.34-.46l2.06-.62c3.65-1.1,5.9-1.06,9.44.14,1.48.51,2.75,1.01,2.82,1.11.17.28-.98,3.53-1.66,4.7-.87,1.48-2.33,2.69-3.78,3.12-2.58.76-4.7.24-6.56-1.63-1.42-1.41-2.57-3.91-2.63-5.67ZM62.77,8.05c.25.13.58.61.73,1.06.33.99,1.02,1.66,1.61,1.55.24-.04,1.06-.99,1.82-2.1,1.1-1.63,1.45-2.36,1.77-3.84.43-2,.92-2.84,1.21-2.09.15.38-1.89,10.47-2.22,11-.23.37-3.56.07-3.89-.36-.37-.47-1.5-4.08-1.5-4.8,0-.59.06-.64.47-.42Zm-11.51,45.54c-.1.1-1.02-.59-2.04-1.54-1.02-.96-1.77-1.81-1.66-1.91.11-.09.97-.47,1.92-.84.95-.36,1.99-.95,2.31-1.29.73-.79,6.13-9.46,6.61-10.6.29-.69,4.62-20.14,4.62-20.75,0-.1.26-.19.58-.19.27,0,.47.22.47.47,0,.04,0,.07-.01.1l-2,9.84-2.09,10.33s-.03.09-.05.13l-4.22,8c-2.34,4.43-4.34,8.14-4.44,8.25Zm14.19-25.86l-1.88,10.11s-.02.08-.04.11l-4.62,9.7c-2.55,5.36-4.72,9.79-4.82,9.85-.21.14-1.17-1.19-1.16-1.62,0-.35,5.95-11.85,7.49-14.46.52-.9,1.17-2.25,1.43-3.01.32-.9,3.91-17.97,4.47-21.14.04-.27.07-.44.07-.49,0-.03.22-.06.48-.06.24,0,.41.1.46.28.01.04.02.09.02.14-.01.23-.86,4.99-1.9,10.59Z"/>
    <path id="R-Hat" d="m42.7,28.47c-.92-.29-3.51-.86-4.99-1.05l-.65-.09c-.28-.04-.49-.28-.49-.56v-10.43c0-.34.3-.61.64-.56l.5.07c.63.09,2.36.74,3.85,1.46l2.04.98c.23.11.18.42.18.67v4.71c0,5.45.3,5.23-1.08,4.79Z"/>
    <path id="L-Hat" d="m29.3,23.64c-.04-2.69-.03-5.03.03-5.22.2-.67,4.71-2.66,6.21-2.67h0c.3,0,.3.24.3.54v10.48c0,.28.03.51-.24.54l-1.14.11c-1.45.14-3.81.64-4.92.98-.38.12-.18-.28-.24-4.76Z"/>
  </g>
</svg>