<?xml version="1.0" encoding="UTF-8"?>
<svg id="Record_Player" data-name="Record Player" xmlns="http://www.w3.org/2000/svg" viewBox="0 0 91.5 72">
  <defs>
    <style>
       svg {
        color: green;
      }
    </style>
  </defs>
  <g id="Turntable">
      <path id="Background" fill="currentColor" d="m91.22,6.63c-.78-2.69-2.48-4.71-4.87-5.82C84.46-.06,87.8,0,45.75,0S7.03-.06,5.18.8C2.74,1.94,1.07,3.92.29,6.63l-.29.98v56.76l.29.99c.94,3.26,3.39,5.67,6.54,6.43,1.13.28,76.63.28,77.79.01,3.19-.75,5.64-3.15,6.6-6.44l.28-.99V7.61l-.28-.98ZM6.5,62.69c-1.81,0-3.27-1.47-3.27-3.28s1.46-3.27,3.27-3.27,3.28,1.47,3.28,3.27-1.47,3.28-3.28,3.28Zm6.55,6.55c-1.81,0-3.27-1.47-3.27-3.28s1.46-3.27,3.27-3.27,3.27,1.46,3.27,3.27-1.46,3.28-3.27,3.28Zm36.54-6.05c-3,1.47-5.86,2.35-9.19,2.83-1.61.23-5.19.32-6.73.17-9.86-.95-18.39-6.33-23.46-14.8-1.96-3.26-3.31-7.14-3.94-11.24-.3-2-.3-6.31,0-8.31,1.48-9.72,7.03-17.75,15.52-22.44,4.41-2.44,9.19-3.65,14.46-3.66,4.91-.01,8.98.92,13.34,3.06,6.94,3.4,12.16,9.08,14.98,16.31,2.68,6.84,2.68,14.93,0,21.77-2.82,7.23-8.04,12.91-14.98,16.31Zm22.97-9.62c.49.41.67,1.06.46,1.66-.13.36-3.26,5.76-4.07,7.02-.16.25-.12.3.84.93.56.37,1.1.79,1.2.93.3.43.23,1.13-.15,1.51-.54.54-1.16.45-2.29-.32l-.94-.64-.39.46c-.42.49-1.05.74-1.57.62-.45-.1-4.12-2.52-4.42-2.91-.17-.21-.25-.51-.25-.92,0-.61.04-.67,3.49-5.27,2.27-3.02,3.63-4.73,3.88-4.86.37-.2,1.12-.21,1.57-.01.14.06.62-.68,2.03-3.16,1.01-1.78,1.96-3.58,2.12-3.99.42-1.14.49-2.93.5-11.27v-7.5l-.89-.22c-4.63-1.2-7.48-6.05-6.29-10.7.79-3.09,3.29-5.59,6.33-6.36l.92-.24.06-1.12c.07-1.25.18-1.48.86-1.76.37-.16.47-.15.88.05.6.29.83.92.73,2.02-.07.77-.07.78.27.86,1.02.23,1.43.36,2.23.74,3.01,1.39,4.89,4.21,5.06,7.55.12,2.43-.71,4.67-2.38,6.43-1.31,1.38-3.19,2.45-4.67,2.65l-.55.08-.08,1.59c-.05.87-.09,4.63-.09,8.34,0,4.12-.05,7.14-.13,7.73-.22,1.58-.71,2.7-2.73,6.25-1.06,1.85-1.92,3.4-1.92,3.44s.17.21.38.39Zm14.12,8.99c-.36,2.08-1.72,3.68-3.65,4.27-2.87.89-5.82-.65-6.7-3.5-.74-2.41.29-4.97,2.5-6.22.56-.32.66-.43.6-.65-.05-.15-.12-.64-.16-1.1-.07-.79-.05-.86.25-1.16.41-.42.88-.53,1.35-.33.48.2.62.46.87,1.63l.2.94.56.1c2.66.45,4.64,3.32,4.18,6.02Z"></path>
      <path id="Speed_Control" d="m86.68,62.56c-.36,2.08-1.72,3.68-3.65,4.27-2.87.89-5.82-.65-6.7-3.5-.74-2.41.29-4.97,2.5-6.22.56-.32.66-.43.6-.65-.05-.15-.12-.64-.16-1.1-.07-.79-.05-.86.25-1.16.41-.42.88-.53,1.35-.33.48.2.62.46.87,1.63l.2.94.56.1c2.66.45,4.64,3.32,4.18,6.02Z"></path>
      <path id="Record" d="m64.57,25.11c-2.82-7.23-8.04-12.91-14.98-16.31-4.36-2.14-8.43-3.07-13.34-3.06-5.27.01-10.05,1.22-14.46,3.66-8.49,4.69-14.04,12.72-15.52,22.44-.3,2-.3,6.31,0,8.31.63,4.1,1.98,7.98,3.94,11.24,5.07,8.47,13.6,13.85,23.46,14.8,1.54.15,5.12.06,6.73-.17,3.33-.48,6.19-1.36,9.19-2.83,6.94-3.4,12.16-9.08,14.98-16.31,2.68-6.84,2.68-14.93,0-21.77Zm-27.16,12.56c-.38.29-1.39.4-1.85.2-1.14-.47-1.63-1.93-.98-2.88.49-.72.91-.95,1.73-.95,1.23,0,1.95.73,1.95,1.95,0,.79-.2,1.2-.85,1.68Z"></path>
      <path id="Bot-Reflection" fill="currentColor" d="m32.79,60.59c-5.19-.75-10.08-3.18-13.86-6.87-4.38-4.28-7.13-10.33-7.37-16.22-.08-2.07-.02-2.3.66-2.59.52-.22.94-.13,1.32.28.26.27.3.48.38,1.91.33,5.92,2.62,10.91,6.88,15.02,3.93,3.79,8.83,5.93,14.29,6.26,1.82.11,2.02.18,2.29.83.19.45.05,1.05-.33,1.36-.22.18-.51.22-1.67.21-.77,0-1.94-.09-2.6-.19h0Z"></path>
      <path id="Bot-M-Reflection" fill="currentColor" d="m34.11,54.86c-1.31-.15-3.4-.67-4.59-1.14-2.54-1-4.68-2.4-6.6-4.32-3.33-3.32-5.27-7.64-5.56-12.33-.08-1.37-.08-1.39.25-1.78.18-.22.47-.43.65-.47.42-.11,1.17.22,1.31.58.06.16.17,1,.25,1.86.5,5.85,3.79,10.81,8.92,13.44,2.2,1.13,4.15,1.65,6.88,1.85,1.07.08,1.29.13,1.54.38.4.4.4,1.17,0,1.64-.27.31-.39.35-1.16.37-.48.01-1.32-.03-1.87-.09h0Z"></path>
      <path id="Record_Label" fill="currentColor" d="m46.03,33.29c-.81-2.8-2.66-5.02-5.25-6.3-1.68-.83-2.45-1-4.53-1-1.5,0-1.9.04-2.7.29-3.34,1.05-5.7,3.32-6.83,6.57-.4,1.15-.41,1.26-.41,3.14s.01,2,.41,3.15c1.23,3.53,4.07,6.03,7.71,6.79.83.18,3.58.07,4.46-.17,1.1-.3,2.91-1.23,3.81-1.96,1.53-1.25,2.76-3.13,3.33-5.11.41-1.43.41-3.96,0-5.4Zm-8.62,4.38c-.38.29-1.39.4-1.85.2-1.14-.47-1.63-1.93-.98-2.88.49-.72.91-.95,1.73-.95,1.23,0,1.95.73,1.95,1.95,0,.79-.2,1.2-.85,1.68Z"></path>
      <path id="Top-M--Reflection" fill="currentColor" d="m53.6,37.07c-.22-.1-.45-.28-.52-.41s-.19-.94-.26-1.8c-.38-4.36-2-7.8-5.07-10.77-2.85-2.76-6.11-4.23-10.18-4.59-1.83-.16-2.05-.23-2.32-.75-.27-.52-.14-1.04.36-1.46.39-.33.42-.33,1.66-.25,4.82.31,9.13,2.24,12.45,5.56,3.36,3.36,5.45,8.11,5.52,12.58.02,1.25,0,1.33-.29,1.62-.41.4-.85.49-1.34.27h0Z"></path>
      <path id="Top-Reflection" fill="currentColor" d="m59.52,37.13c-.61-.25-.76-.65-.84-2.29-.21-4.24-1.62-8.32-4.09-11.81-1.09-1.54-3.77-4.23-5.31-5.31-3.61-2.54-8.36-4.13-12.39-4.13-.81,0-.98-.04-1.31-.32-.48-.4-.6-.92-.34-1.43.28-.55.54-.64,1.82-.64,4.8,0,10.22,1.93,14.43,5.14,1.07.82,3.23,2.93,4.13,4.05,3.37,4.17,5.49,9.89,5.5,14.83,0,1.34-.1,1.61-.7,1.86-.48.2-.52.2-.89.05h0Z"></path>
      <path id="Needle" d="m84.73,16.67c-.17-3.34-2.05-6.16-5.06-7.55-.8-.38-1.21-.51-2.23-.74-.34-.08-.34-.09-.27-.86.1-1.1-.13-1.73-.73-2.02-.41-.2-.51-.21-.88-.05-.68.28-.79.51-.86,1.76l-.06,1.12-.92.24c-3.04.77-5.54,3.27-6.33,6.36-1.19,4.65,1.66,9.5,6.29,10.7l.89.22v7.5c-.01,8.34-.08,10.13-.5,11.27-.16.41-1.11,2.21-2.12,3.99-1.41,2.48-1.89,3.22-2.03,3.16-.45-.2-1.2-.19-1.57.01-.25.13-1.61,1.84-3.88,4.86-3.45,4.6-3.49,4.66-3.49,5.27,0,.41.08.71.25.92.3.39,3.97,2.81,4.42,2.91.52.12,1.15-.13,1.57-.62l.39-.46.94.64c1.13.77,2.75,1.86,3.29,1.32.38-.38.78-.84.48-1.27-.1-.14-1.97-1.8-2.53-2.17-.96-.63-1-.68-.84-.93.81-1.26,3.94-6.66,4.07-7.02.21-.6.03-1.25-.46-1.66-.21-.18-.38-.35-.38-.39s.86-1.59,1.92-3.44c2.02-3.55,2.51-4.67,2.73-6.25.08-.59.13-3.61.13-7.73,0-3.71.04-7.47.09-8.34l.08-1.59.55-.08c1.48-.2,3.36-1.27,4.67-2.65,1.67-1.76,2.5-4,2.38-6.43Zm-11.22,6.35c-.79-.32-1.23-.63-2.06-1.42-2.53-2.43-2.53-6.5-.01-9.03.79-.79,2.39-1.67,2.9-1.6l.3.04v6.02c-.01,6.93.08,6.48-1.13,5.99Zm5.2-.18c-.89.43-1.36.54-1.54.36-.1-.11-.11-11.78,0-12.05.22-.59,2,.22,3.27,1.49,1.02,1.02,1.48,1.89,1.78,3.33.55,2.7-.95,5.64-3.51,6.87Z"></path>
      <path id="Bass" d="m16.32,65.96c0,1.81-1.46,3.28-3.27,3.28s-3.27-1.47-3.27-3.28,1.46-3.27,3.27-3.27,3.27,1.46,3.27,3.27Z"></path>
      <path id="Treble" d="m9.78,59.41c0,1.81-1.47,3.28-3.28,3.28s-3.27-1.47-3.27-3.28,1.46-3.27,3.27-3.27,3.28,1.47,3.28,3.27Z"></path>
  </g>
</svg>