<?xml version="1.0" encoding="UTF-8"?>
<svg id="svg10" xmlns="http://www.w3.org/2000/svg" viewBox="0 0 72 116.86">
  <defs>
    <style>
      svg {
        color: green;
      }
    </style>
  </defs>
  <g id="Player">
    <path d="m71.35,42.42c-.26-1.36-1.19-3.3-2.2-4.58-1.01-1.29-1.13-1.71-.83-2.78.13-.46.35-1.23.49-1.72.15-.53.26-1.71.26-2.88,0-3.35-1-6.42-3.14-9.64-1.98-3-3.48-4.48-5.52-5.44-1.12-.54-1.26-.56-4.58-.68-1.88-.07-3.8-.18-4.26-.25l-.85-.13-.1-1.11c-.05-.6-.14-1.75-.2-2.54-.25-3.37-1.13-5.31-3.48-7.66C44.73.81,42.15-.17,39.09.03c-2.72.18-4.82,1.24-6.92,3.49-1.98,2.12-2.96,4.5-3.18,7.69l-.1,1.62h-4.52c-4.06.01-4.66.05-5.89.4-3.76,1.06-5.9,2.93-7.91,6.92-1.05,2.1-1.55,3.81-1.77,6.03-.15,1.58-.22,1.78-1.42,4.05-.69,1.31-1.44,2.87-1.66,3.47-.22.59-.66,1.44-.98,1.88-.74,1.03-1.2,1.95-1.72,3.42-.41,1.15-.41,1.31-.44,9.44l-.03,8.28-1.28,3.24c-1.57,3.95-1.59,4.22-.55,7.01.94,2.54,1.14,2.75,2.79,2.89l1.29.1.49-.64c.42-.56.59-.64,1.25-.64.45,0,.86-.11.98-.26.38-.46.45-2.14.12-3.09-.16-.48-.34-1.3-.4-1.81-.14-1.17.18-1.74,1.25-2.23,1.18-.53,1.42-.46,2.02.57.29.51.76,1.08,1.04,1.28.86.62,2.82.43,2.82-.27,0-.11-.57-1.35-1.26-2.76-1.31-2.67-1.97-3.51-3.02-3.86-.94-.31-1.35-1.32-1.34-3.31.01-2.3.55-4.34,1.91-7.26.63-1.35,1.54-3.42,2.01-4.6l.87-2.14,2.15-1.41c1.19-.77,2.3-1.41,2.47-1.41.33,0,.81.51,2.19,2.31.46.61,1.18,1.35,1.6,1.65.72.52,1.06.65,2.82,1.09.53.13,1.04.45,1.57.99.72.72.8.87.8,1.67s-.13,1.06-1.19,2.62c-1.65,2.44-1.73,2.67-1.73,5.22,0,1.56-.09,2.45-.32,3.16-.67,2.11-.8,3.14-.81,6.29,0,3.36.19,4.66,1.11,7.74.37,1.23.48,2.05.55,4.15.12,3.51-.08,4.24-1.64,5.9-.9.95-1.22,1.46-1.52,2.37-1.02,3.1-1.47,6.29-1.47,10.55-.01,1.97-.12,4.13-.27,5.18-.14.99-.26,1.9-.26,2.03-.01.13-.37.56-.8.96-.91.82-1.36,1.79-1.37,2.9-.01,1.42-.31,2.08-2.43,5.29-2.86,4.33-3.01,4.7-2.59,6.21.27.97,1.09,1.7,2.38,2.11,1.34.42,3.75.48,5.07.13,1.71-.46,2.15-.74,2.56-1.58,1.94-3.93,2.46-5.77,2.74-9.54.25-3.35.45-4.4,1.2-6.35,1.15-2.98,2.3-4.78,4.68-7.33,1.47-1.57,2.08-2.52,2.73-4.25.4-1.04.46-1.51.48-3.65.02-1.91.09-2.56.32-2.9.15-.24,1.25-1.34,2.44-2.46,2.34-2.18,2.56-2.53,3.29-5.15.44-1.55.49-3.13.25-6.68-.17-2.52.06-2.67.72-.45.26.86.54,1.8.64,2.09.25.8.2,1.33-.29,2.86-.36,1.15-.44,1.76-.44,3.45,0,2.23-.26,3.63-1.02,5.6-1.28,3.32-.05,7.26,2.5,7.97,1.15.32,1.93.04,2.79-1.02.37-.45.84-1.02,1.05-1.28l.38-.46.5.35c1.1.79,1.83,1.16,2.27,1.16,1.02.01,3.06-1.26,4.79-2.96,1.93-1.91,2.32-2.65,2.59-4.9.33-2.75.5-3.37,1.35-4.83,1.26-2.18,1.33-2.32,1.51-3.45.15-.96,1.07-9.71,1.07-10.23s1.07-1.4,3.2-2.6c6.05-3.42,7.83-5.29,7.85-8.26.01-1.58-.37-5.96-.65-7.37Zm-56.69-6.05c-.13.49-.77.75-3.02,1.19l-1.01.2.61.91c1.01,1.5.87,2.46-.75,5.12-1.97,3.26-2.68,5.64-2.69,9.06,0,3.05.18,3.5,1.77,4.43,1.28.75,1.45.94,1.85,2.14.16.49.65,1.44,1.08,2.11l.78,1.21h-.5c-.73,0-1.24-.44-1.83-1.62-.6-1.18-.75-1.31-1.45-1.29-.42.01-.52-.08-.58-.47-.07-.44-.08-.43-.1.09-.03.57-.05.58-.97.63l-.95.06v2.87c0,1.59.07,3.17.15,3.51.1.47.07.72-.14.99q-.28.36-.61-.03c-.2-.24-.52-1.33-.83-2.88-.29-1.37-.58-2.56-.65-2.64-.28-.32-.44,1.29-.4,4.07.02,1.55.01,2.83-.02,2.83s-.3-.55-.6-1.22c-.71-1.56-1.01-3.08-.88-4.44.1-.98.08-1.05-.16-.74-.51.67-.55,1.93-.15,5.09.16,1.3-.14,1.22-.86-.24-1.09-2.23-.87-5.13.64-8.13,1.06-2.11,1.44-5.13,1.39-11.05-.03-2.85.06-5.18.24-7.01.26-2.52.34-2.82.85-3.65,1.49-2.37,1.74-2.87,2.31-4.59.68-2.01,1.06-2.46,1.82-2.18.47.18,3.25,2.62,4.81,4.22.81.83.95,1.07.85,1.45Zm17.8,46.72c-.59.36-1.61.41-2.91.15-1.84-.36-4.2-1.85-4.77-3-.43-.88-.36-1.21.4-2,.43-.44.71-.57,1.21-.56.91.02,6.93,2.71,7.01,3.14.14.69-.37,1.92-.94,2.27Zm7.01-10.98c-.59,2.95-1.82,4.78-3.87,5.79-.65.32-1.17.41-2.53.44-1.78.04-2.4-.09-4.57-.92-1.69-.65-2.36-1.09-2.63-1.75-.27-.66-.27-2.46,0-4.12.37-2.31.27-3.05-.63-4.76-.99-1.89-1.34-3.17-1.34-4.94s.23-3.15,1.02-6.17l.65-2.47h.69c.39,0,.7-.05.7-.12,0-.06-.21-.47-.46-.9-.43-.73-.43-.87,0-.79.1.02.65-.02,1.23-.08.76-.09,1.15-.24,1.44-.55.59-.62,1.2-.8,1.93-.54.35.11,1.96.99,3.59,1.94,1.63.95,3.19,1.83,3.46,1.95.56.26.59.34.27.75-.14.18-.88.39-2.02.58-.98.17-1.81.32-1.84.35,0,.03.63.51,1.42,1.05,1.6,1.11,1.61,1.06-.18,1.3-1.05.14-1.71.51-1.97,1.08-.12.26-.22.53-.22.61,0,.07.89.57,1.99,1.11,2.08,1.03,2.35,1.36,1.34,1.66-1.63.47-4.64-.46-8.02-2.47-1.41-.84-2.3-1.27-2.4-1.16-.24.23.16,1.69.64,2.35.57.81,1.49,1.16,4.17,1.58,3.97.64,5.04,1.04,6.48,2.44,1.69,1.64,2.24,3.89,1.66,6.76Zm19.1.26c-.1.19-.57.77-1.05,1.27-1,1.08-1.17,1.58-1.4,4.33-.14,1.65-.27,2.21-.73,3.17-.6,1.26-2.25,2.97-3.65,3.8-.96.56-2.03.8-2.81.63-1.87-.39-3.3-3.75-3.65-8.6-.22-3.14-.76-5.36-1.76-7.37-1.04-2.06-1.33-3.31-1.34-5.78-.02-3.8.05-4.85.29-4.85.13,0,.65,1.15,1.2,2.65,1.45,3.98,1.88,4.92,3.07,6.85,1.19,1.95,1.8,3.49,1.8,4.56,0,.39.13.95.28,1.25.16.3.24.59.19.64s-.54.02-1.09-.08c-.55-.09-1-.11-1-.03,0,.29,1.12,1.05,2.07,1.41,1.82.68,4.82.39,5.94-.58l.47-.4h-1.89c-2.19,0-2.64-.2-3.3-1.53-.38-.76-.4-1.06-.45-5.85-.05-4.6-.02-5.08.27-5.54.54-.82.98-.92,2.77-.59,1.21.22,2.13.27,3.86.18l2.27-.12.13.76c.23,1.33-.17,9.18-.49,9.82Zm12.2-21.4c-.1.54-.37.93-1.08,1.61-1.15,1.09-5.6,4.27-8.2,5.86-1.04.63-2.28,1.41-2.75,1.73-.48.32-1.17.67-1.53.77-.94.26-3.52.2-4.8-.1-3.93-.94-8.54-3.34-9.19-4.78-.17-.38-.26-.74-.21-.8.06-.05.72.31,1.47.82s1.36.84,1.36.75c0-.1-.6-.68-1.34-1.29-1.34-1.1-2.07-2.18-2.07-3.02,0-.5.08-.49.87.13.36.28,1.18.78,1.82,1.1.65.32,1.41.76,1.71.98,1.99,1.49,4,1.39,5.63-.28.44-.45.58-.75.58-1.26,0-.81-.43-2.72-.82-3.66-.16-.37-.24-.71-.2-.76.17-.17,1.94.92,2.46,1.51.3.34.68,1.13.9,1.88.45,1.51,1.36,3.57,1.58,3.57.2,0,3.31-3.2,3.7-3.8.16-.25.41-.92.56-1.48.51-1.95,1.46-3.02,3.55-3.97.77-.35,1.4-.71,1.4-.8s-.78.08-1.73.37c-.95.29-1.74.51-1.77.47-.44-.62-.82-1.21-.82-1.28,0-.04.38-.18.84-.29.46-.12,1.08-.34,1.37-.49.88-.45,2.25-1.84,2.93-2.97.67-1.09,1.13-1.37,1.95-1.16.94.24,1.14.97,1.57,5.62.22,2.5.33,4.6.26,5.02Z"/>
    <path id="Right_Shoe" fill="currentColor" d="m19.35,115.06c.91-.16,1.28-.32,1.74-.79.67-.67.82-1.28.82-3.42,0-1.32.04-1.46.41-1.62.37-.16.4-.3.39-1.45-.02-2.14-.77-2.91-2.89-2.94-.68-.01-1.05.09-1.4.36-.52.41-1.26,1.7-1.11,1.95.05.08.62.25,1.27.37,1.93.36,1.65.63-.57.54-.83-.03-2.56.63-2.29.88.09.08,1.08.3,2.19.47,1.43.23,2.02.39,2.02.56,0,.26-.26.29-2.1.25-1.45-.03-2.46.25-3.17.9l-.58.53h2.82s2.82.01,2.82.01l.12.58c.06.32.16.74.21.93.07.26.03.31-.18.23-.15-.06-1.34-.12-2.63-.14-2.04-.03-2.4,0-2.71.29-.61.56-.45.93.59,1.33,1.08.41,2.53.48,4.23.18h0Z"/>
    <path d="m22.27,103.79c.34-1.22.24-2-.32-2.56-1.48-1.48-3.44-.48-3.44,1.76,0,1.08-.02,1.07,1.63,1.28,1.98.26,1.93.27,2.13-.48h0Z"/>
    <path id="Right_Sock" fill="currentColor" d="m23.84,101.9c.3-.42.93-1.82,1.4-3.1s1.1-2.82,1.39-3.42c.75-1.52,2.28-3.47,3.68-4.7,1.39-1.22,2.07-2.48,2.4-4.41.12-.69.18-1.28.15-1.31-.03-.03-.91-.19-1.95-.34-3.2-.48-3.93-.81-7.21-3.27l-.83-.62-.56,1.93c-1.13,3.94-1.34,5.39-1.25,8.77.08,2.99-.06,6.34-.32,7.69-.12.66-.11.67.41.67.74,0,1.43.74,1.77,1.92.15.53.3.96.33.96s.29-.34.59-.76h0Z"/>
    <path id="Left_Shoe" fill="currentColor" d="m42.83,85.8c-.26-.81-.42-1.52-.35-1.59.07-.07.33.06.58.29.71.67.72.3,0-.91-.73-1.25-.7-1.63.07-.75.94,1.07,1,.65.11-.74-.34-.53-.57-1.02-.51-1.08.06-.06.32-.11.58-.11,1.44,0,1.59-.45.69-2.09-.54-.97-.58-1.19-.58-2.68,0-1.21.08-1.77.32-2.2.51-.93.09-2.57-.65-2.57-.48,0-.84,1.4-.84,3.3,0,2.08-.18,3.25-.85,5.59-.39,1.38-.45,1.86-.38,3.42.1,2.21.39,2.87,1.45,3.34.41.18.77.31.79.29.02-.02-.17-.7-.44-1.51h0Z"/>
    <path d="m29.98,75.89c-1.37-.87-1.95-1.97-1.95-3.71,0-1.15.44-2.7.98-3.43.23-.31.24-.26.07.46-.1.45-.15,1.46-.1,2.25.1,1.7.65,3.09,1.66,4.2.79.88.52.97-.66.22h0Z"/>
    <g id="Football">
      <path fill="#9e6847" d="m51.46,54.64c.72-.2,1.04-.6,1.04-1.3v-.44l-2.7.66c-1.48.36-2.74.71-2.8.77-.06.06.53.16,1.3.22.77.07,1.49.15,1.59.18.35.12.91.09,1.57-.1h0Z"/>
      <path fill="#9e6847" d="m50.62,52.65c.81-.21,1.56-.44,1.67-.51.13-.08,0-.59-.43-1.55-.69-1.59-.76-2.08-.35-2.5.37-.37.34-.38,1.79.41,1.46.79,2.33,1.81,2.52,2.93.16.95.83,1.67,1.39,1.5,1.36-.4,2.5-1.78,3.27-3.97.24-.68.56-1.59.72-2.01.39-1.06.09-1.72-1.31-2.88-1.23-1.02-2.54-1.58-4.43-1.87-3.34-.52-8.62,1.53-11.05,4.28-1.1,1.25-2.03,3.27-1.96,4.24l.06.77.38-.63c.21-.35.84-1.51,1.41-2.58,1.26-2.37,1.68-2.36.65,0-.98,2.27-1.16,2.99-.91,3.74.27.82.55,1.01,1.66,1.15,1.23.15,3.08-.05,4.92-.53h0Z"/>
    </g>
    <path d="m37.38,46.82c0-.15-.22-.32-.49-.39s-2.07-.55-4-1.07c-2.47-.66-3.54-.88-3.63-.74-.28.45,1.26,1.52,2.73,1.91.67.18,2.5.37,4.99.53.25.02.4-.08.4-.24h0Z"/>
    <path id="Jersey" fill="currentColor" d="m41.26,45.64c1.37-.25,2.25-.71,4.67-2.43l1.98-1.41-.72-.13c-.4-.07-2.07-.18-3.73-.25-2.86-.11-3.56-.27-2.25-.51.32-.06,3.02-.39,6-.74,6.99-.81,7.9-.95,8.94-1.29,1.41-.46,1.95-1.17,2.72-3.51.93-2.84,1.01-4.28.39-6.99-.6-2.63-.59-2.71.05-2.09,1.08,1.04,1.99,3.44,2,5.3,0,.92.25.93.86.03.55-.82.54-2.43-.05-4.84-.25-1.03-.42-1.9-.38-1.94.16-.16.82,1,1.16,2.02.52,1.54.65,3.05.39,4.6-.31,1.87-.77,3.12-2.18,5.96-1.01,2.02-1.23,2.63-1.23,3.33,0,1.42.19,1.49,1.25.43,1.55-1.55,2.24-3.4,3.12-8.3.04-.25.09.84.1,2.41q.02,2.86.39,2.53c.2-.18.62-.84.93-1.47.72-1.46,1-1.23.49.41-.65,2.11-1.47,3.55-2.98,5.21-.18.2-.8.72-1.37,1.14s-.99.85-.93.93c.16.25,1.47.19,2.19-.12,1.58-.66,2.56-1.87,3.63-4.47.48-1.16.6-1.73.67-3.15.05-.95.25-2.53.46-3.52.34-1.63.36-1.95.16-3.58-.12-.98-.38-2.33-.58-2.98-.82-2.69-2.7-5.74-5.01-8.12-1.49-1.54-2.46-2.09-3.95-2.27-1.13-.13-4.8.26-5.42.58-.58.3-.75.67-2.05,4.31-.56,1.58-1.38,3.87-1.81,5.09-1.02,2.84-1.32,3.43-2.24,4.26-3,2.71-10.6,2.85-13.88.25-1.04-.82-1.43-1.56-2.64-4.98-.6-1.7-1.59-4.47-2.19-6.17-1.27-3.59-1.69-4.3-2.84-4.87-.73-.36-1.1-.41-2.9-.4-5.57.04-8.53,1.88-11.04,6.87-1.18,2.34-1.79,4.42-1.8,6.15-.01,2.21.34,2.79,3.49,5.78,1.4,1.32,2.65,2.43,2.77,2.46.36.08.73-1.03.72-2.16,0-.9-.15-1.32-1.14-3.29-.63-1.24-1.09-2.31-1.04-2.36.27-.27.69.3,2.17,2.98.88,1.6,1.67,2.9,1.75,2.9.32,0,.14-1.98-.3-3.33-.25-.77-.43-1.49-.39-1.59.09-.27,1.06,1.1,2.72,3.86,2.85,4.73,4.13,5.38,12.88,6.53,1.83.24,4,.49,4.81.56,1,.08,1.48.2,1.48.35,0,.26-.25.3-4.77.83-1.88.22-3.49.46-3.57.53-.18.16,1.13.58,3.09.98,1.93.4,4.44.61,7.22.62,2.81,0,2.92.2.42.71-3.23.66-5.31.65-9.37-.07-2.58-.46-2.52-.25.15.51,1.33.38,3.12.93,3.97,1.22,1.33.45,2.62.78,3.32.85.11.01.67-.07,1.25-.18h0Z"/>
    <path d="m41.61,31.01c.25-.16.46-.38.46-.47,0-.11-.9-.18-2.25-.18-1.91,0-2.25.04-2.25.28,0,.77,3.01,1.05,4.04.37Z"/>
    <path d="m36.84,30.51c0-.13-2.64-1.05-3.01-1.05-.58,0-.09.36,1.26.94,1.38.59,1.74.61,1.75.11h0Z"/>
    <path d="m45.98,29.74c.05-.05.04-.15-.03-.22-.11-.11-3.17.78-3.17.93,0,.04.05.19.1.34.09.23.34.17,1.55-.34.8-.34,1.49-.65,1.54-.71h0Z"/>
    <g id="Helmet">
      <path fill="currentColor" d="m42.05,29.62c.57-.2.91-.73.91-1.43,0-.33-.16-.35-3.15-.35-2.23,0-3.15.06-3.15.2,0,.11.09.51.21.89l.21.69,2.18.06c1.2.03,2.18.07,2.19.1,0,.02.28-.05.6-.16h0Z"/>
      <path fill="currentColor" d="m36.49,29.15c0-.36-1.21-1.54-1.98-1.93-1.06-.54-2.74-1.19-2.83-1.09-.16.16.7,1.53,1.24,1.99.68.57,1.2.8,2.31.99,1.13.2,1.26.2,1.26.04Z"/>
      <path fill="currentColor" d="m45.84,28.8c.81-.33,1.39-.88,1.82-1.72.51-1,.43-1.08-.61-.62-.52.23-1.36.56-1.87.72-1.07.36-1.45.72-1.61,1.53l-.12.59.88-.13c.48-.07,1.16-.24,1.51-.38Z"/>
      <path fill="currentColor" d="m43.34,26.78c.19-.24.33-.56.3-.72-.05-.25-.55-.29-3.78-.33-2.33-.03-3.73.02-3.73.13,0,.44.46,1.1.88,1.26.26.1,1.71.16,3.23.14,2.68-.04,2.77-.05,3.11-.47Z"/>
      <path fill="currentColor" d="m35.22,25.94c-.34-.36-1.28-1.09-2.09-1.62s-1.8-1.35-2.2-1.81c-.62-.7-.73-.77-.73-.44,0,.46.58,1.66,1.2,2.49.71.95,2.76,2,3.92,2.02h.53s-.62-.64-.62-.64Z"/>
      <path fill="currentColor" d="m46.71,25.81c1.55-.93,2.73-2.52,2.71-3.66,0-.48-.09-.43-1.39.96-1.37,1.46-2.37,2.21-2.94,2.21-.35,0-.6.29-.78.88-.13.42-.11.43.65.31.43-.07,1.22-.38,1.75-.7h0Z"/>
      <path fill="currentColor" d="m34.46,24.2c-.05-.12-.48-1.42-.96-2.88s-.94-2.65-1.01-2.65c-.21,0-.17.39.23,2.27.32,1.48.36,2.13.1,1.85-.27-.29-1.56-3.15-1.82-4.03-.38-1.28-.56-1.05-.27.33.25,1.18,1.21,3.23,1.9,4.05.75.89,2.05,1.64,1.83,1.05Z"/>
      <path fill="currentColor" d="m45.8,24.17c1.62-.85,3.3-3.94,3.26-6.03q-.02-.95-.54,1.03c-.36,1.38-1.66,3.83-1.9,3.59-.05-.05.03-.52.19-1.04.29-.99.39-2.88.13-2.58-.08.09-.5,1.22-.93,2.51-.43,1.29-.81,2.44-.86,2.56-.11.29.04.28.64-.03h0Z"/>
      <path fill="currentColor" d="m30.3,20.34c-.05-.17-.22-.96-.39-1.75-.16-.79-.34-1.58-.39-1.76-.08-.29,0-.31.78-.23.48.05,1.56.13,2.4.18,1.51.08,1.52.08.69-.15-.46-.13-1.66-.34-2.65-.46-1.99-.24-2.35-.15-2.35.63,0,.74.66,2.54,1.16,3.21.53.69.9.86.75.34Z"/>
      <path fill="currentColor" d="m50.56,19.19c.72-1.43.9-2.41.51-2.88l-.31-.38-2.51.31c-3.54.43-4.08.65-1.34.53,1.24-.05,2.47-.14,2.74-.19.61-.12.61-.09.04,2.09-.24.94-.44,1.78-.45,1.87,0,.42.86-.49,1.3-1.35Z"/>
      <path fill="currentColor" d="m43.86,15.77v-1.78h-7.91v3.59l3.46.05c1.9.03,3.68.02,3.96-.02l.49-.07v-1.78Z"/>
      <path fill="currentColor" d="m47.02,15.97c1.85,0,2.17-.3,2.45-2.31.56-4.04-1.18-8.52-4.17-10.72-2.85-2.1-6.37-2.43-9.51-.89-2.36,1.16-4.4,3.64-5.29,6.45-.33,1.04-.4,1.67-.4,3.69,0,3.2.14,3.5,1.72,3.66.61.06,1.63.12,2.26.12h1.14v-1.16c0-.95.06-1.17.31-1.25.17-.05,2.26-.08,4.63-.06l4.32.04.05,1.32.05,1.32.55-.11c.3-.06,1.15-.11,1.87-.11Z"/>
    </g>
    <path d="m32.05,15.49c-.61-.12-1.26-.89-1.38-1.63-.3-1.81,0-4.6.64-6.07.21-.48.25-.13.33,2.94.09,3.39.1,3.49.52,3.82.48.39,1.62.46,1.73.12.04-.12.12-.69.19-1.26l.12-1.03h1.7c1.01,0,1.7.07,1.7.18s-.53.18-1.24.18c-.77,0-1.31.08-1.42.22-.1.12-.24.63-.31,1.12-.2,1.39-.32,1.53-1.3,1.5-.47-.01-1.02-.06-1.24-.1h0Z"/>
    <path d="m45.25,15.49c-.22-.06-.32-.26-.32-.65,0-.31-.05-.87-.11-1.25l-.11-.67h-1.42c-1.1,0-1.42-.06-1.42-.26,0-.28.41-.39,2.2-.56,1.37-.13,1.35-.15,1.44,1.62l.05.9h.9c1.09,0,1.23-.21,1.52-2.32.22-1.58.02-3.84-.44-5.16-.37-1.06-.23-1.05.34,0,.62,1.13,1.01,2.95,1,4.68-.01,2.99-.5,3.79-2.29,3.76-.56-.01-1.17-.06-1.34-.1h0Z"/>
  </g>
  <g id="Plus-Sign">
    <path id="Circle" class="cls-1" d="m70.1,95c-.5-1.31-1.17-2.55-1.99-3.69-1.28-1.76-2.94-3.27-4.81-4.38-1.92-1.13-4.03-1.86-6.23-2.14-2.61-.33-5.27-.03-7.7.86-3.19,1.17-5.93,3.31-7.82,6.11-1.46,2.16-2.35,4.62-2.61,7.21-.26,2.62.14,5.27,1.16,7.67.17.41.42.92.62,1.3,1.27,2.35,3.11,4.35,5.35,5.82,2.07,1.35,4.41,2.21,6.86,2.51.51.06,1,.1,1.51.12.1,0,.32,0,.5,0,2.2,0,4.39-.43,6.39-1.27,3.07-1.3,5.65-3.49,7.41-6.3.39-.63.78-1.36,1.08-2.05.86-1.96,1.3-4.09,1.3-6.24,0-1.9-.34-3.78-1.01-5.53Zm-3.06,6.4c-.17,2.27-1,4.45-2.39,6.27-1.98,2.58-4.91,4.26-8.14,4.66-.38.05-.79.08-1.12.09-.35,0-.47,0-.72,0-.77-.02-1.55-.11-2.3-.27-1.58-.34-3.08-1-4.38-1.91-2.66-1.86-4.42-4.65-4.94-7.78-.11-.65-.15-1.24-.15-1.92s.05-1.27.15-1.92c.31-1.88,1.07-3.65,2.23-5.17,1.98-2.61,4.92-4.31,8.18-4.71,1.38-.17,2.79-.11,4.14.18,1.89.41,3.63,1.25,5.13,2.48,2.53,2.08,4.09,5.05,4.32,8.27.04.55.04,1.18,0,1.74Z"/>
    <path id="Plus" fill="currentColor" d="m63.42,100.53c0,.21,0,.3-.05.46-.2.81-.89,1.42-1.73,1.51-.09.01-.4.01-2.38.01h-2.27v2.24c0,1.94,0,2.25-.01,2.34-.09.75-.61,1.39-1.34,1.64-.21.07-.38.1-.63.1-.1,0-.2,0-.22,0-.02,0-.08-.01-.14-.02-.89-.14-1.58-.85-1.68-1.73-.01-.09-.01-.39-.01-2.34v-2.24h-2.27c-1.98,0-2.29,0-2.38-.01-.77-.09-1.42-.61-1.67-1.33-.08-.22-.1-.38-.1-.64,0-.21,0-.29.05-.46.17-.72.76-1.3,1.49-1.47.22-.05,0-.05,2.57-.05h2.32v-2.24c0-1.94,0-2.25.01-2.34.09-.76.62-1.4,1.35-1.64.22-.08.39-.1.65-.1s.43.03.65.1c.73.25,1.26.89,1.35,1.64.01.09.01.39.01,2.34v2.24h2.32c2.56,0,2.34,0,2.57.05.73.17,1.32.75,1.49,1.47.04.17.05.25.05.46Z"/>
  </g>
</svg>