<?xml version="1.0" encoding="UTF-8"?>
<svg id="BSB_Draft_Icon" data-name="BSB Draft Icon" xmlns="http://www.w3.org/2000/svg" viewBox="0 0 76.08 72">
  <path id="Bottom_Background" data-name="Bottom Background" d="M36.84,71.42c-2.54-1.42-4.32-2.57-6.51-4.19-4.57-3.39-9.56-8.18-13-12.46-.67-.84-1.31-1.65-1.42-1.81-.22-.32-.16-.31-10.03-1.41-1.95-.22-4.06-.46-4.71-.53l-1.17-.14v-1.11h76.08v.57c0,.31-.02.57-.05.57-.09,0-5.8.63-7.4.82-.87.1-2.92.33-4.56.51-3.98.43-3.71.37-4.08.93-.81,1.23-3.8,4.62-6.09,6.92-4.14,4.15-7.79,7.12-12.01,9.78-1.38.87-3.75,2.16-3.93,2.14-.06,0-.57-.27-1.13-.58h0Z" fill="#000" stroke-width="0"/>
  <path id="Bottom_Border" data-name="Bottom Border" d="M39.02,69.38c3.51-1.76,7-4.41,12.07-9.17,2.49-2.34,7.09-7.31,6.9-7.45-.03-.02-.49,0-1.02.04l-.98.07-.6.7c-1.31,1.52-3.43,3.69-5.74,5.88-3.93,3.73-7.68,6.62-10.71,8.25l-.93.5-1.16-.64c-1.16-.64-2.95-1.82-4.24-2.8-.37-.28-.83-.63-1.01-.76-2.3-1.72-7.93-7.05-10.37-9.8-.58-.66-1.12-1.24-1.2-1.28-.17-.1-1.97-.2-1.97-.11,0,.23,2.62,3.12,4.88,5.38,5.64,5.67,10.15,9.23,14.33,11.32.38.19.71.35.73.35.02,0,.48-.21,1.01-.48h0Z" fill="green" stroke-width="0"/>
  <g id="Draft">
    <polygon id="Letters_Background" data-name="Letters Background" points="0 39.72 0 31.32 38.04 31.32 76.08 31.32 76.08 39.72 76.08 48.13 38.04 48.13 0 48.13 0 39.72" fill="#000" stroke-width="0"/>
    <path id="Capital_D" data-name="Capital D" d="M12.5,45.16c1.67-.35,2.85-1.32,3.18-2.62.11-.44.17-1.43.17-2.88,0-2.71-.13-3.22-1.08-4.1-1.3-1.22-2.34-1.45-6.34-1.45h-2.75s0,1.01,0,1.01v1.01l.41.11.41.11v6.8l-.53.1-.53.1-.04.95c-.02.52-.02.98.01,1.01.03.03,1.43.05,3.12.05,2.23,0,3.31-.05,3.96-.19h0Z" fill="green" stroke-width="0"/>
    <path id="Middle_of_D" data-name="Middle of D" d="M9.48,39.72v-3.35h.95c1.06,0,1.61.18,2.08.69.31.33.32.39.36,2.58.04,2.16.03,2.25-.26,2.67-.36.54-.95.74-2.22.75h-.92s0-3.34,0-3.34Z" fill="#000" stroke-width="0"/>
    <path id="Capital_R" data-name="Capital R" d="M23.95,44.34v-.95l-.54-.17-.54-.17.04-1.08.04-1.08h.66s.66-.02.66-.02l.71,1.12c.55.87.67,1.14.54,1.23-.09.06-.24.11-.33.11-.11,0-.16.29-.16,1.01v1.01h4.8v-1.99l-.48-.08c-.44-.07-.55-.18-1.33-1.33-.47-.69-.85-1.28-.85-1.31s.17-.13.38-.22c.51-.21,1.19-.99,1.41-1.6.09-.27.17-.92.16-1.44,0-1.14-.35-1.95-1.05-2.54-.83-.69-1.34-.76-5.33-.72l-3.59.03-.04.97-.04.97.48.11.48.11.03,3.37.03,3.37-.57.14-.57.14v2l2.5-.03,2.5-.03v-.95Z" fill="green" stroke-width="0"/>
    <path id="Middle_of_R" data-name="Middle of R" d="M22.95,38.8c-.05-.08-.08-.71-.06-1.41l.03-1.26h1.43c1.8,0,1.94.09,1.94,1.31s-.13,1.34-1.85,1.43c-.98.05-1.43.03-1.49-.07Z" fill="#000" stroke-width="0"/>
    <path id="Capital_A" data-name="Capital A" d="M36.62,44.3c.02-.54-.01-.98-.07-.98-.31,0-.55-.34-.47-.67l.09-.34h3.64l.13.34c.11.28.09.37-.09.51-.12.09-.27.16-.32.16s-.1.45-.1,1.01v1.01h4.42v-2.01l-.45-.08c-.25-.05-.5-.18-.56-.3-.12-.23-.37-.91-1.9-5.32-.54-1.56-1.05-3-1.13-3.19l-.14-.35-1.6.04-1.6.04-.23.63c-.28.77-1.74,4.85-2.33,6.51-.24.66-.46,1.33-.51,1.48-.05.19-.24.33-.58.43l-.5.15v1.99l2.12-.03,2.12-.03.04-.98Z" fill="green" stroke-width="0"/>
    <path id="Middle_of_A" data-name="Middle of A" d="M36.95,39.76c.33-1.08,1.03-3,1.09-3,.08,0,1.13,3.15,1.13,3.38,0,.11-.34.15-1.19.15h-1.19l.16-.54Z" fill="#000" stroke-width="0"/>
    <path id="Capital_F" data-name="Capital F" d="M51.43,44.36v-.99l-.51-.15-.51-.15v-2.14h.79c.65,0,.82.04.95.25.13.21.29.25.98.25h.82v-3.16h-.81c-.72,0-.83.03-1.01.32-.18.28-.3.32-.96.32h-.76v-2.54l1.41.04,1.41.04.18.54.18.54,1.13-.04,1.13-.04v-1.64s.02-1.64.02-1.64h-9.07l-.04.96-.04.96.42.12.42.12v6.81l-.47.11-.47.11v2h4.8v-.99Z" fill="green" stroke-width="0"/>
    <path id="Capital_T" data-name="Capital T" d="M67.29,44.34v-.95l-.44-.14-.44-.14-.03-3.36-.03-3.36h1.75l.09.63c.1.74.2.79,1.46.73l.82-.04.04-1.8.04-1.8h-11.26l.04,1.8.04,1.8h2.15l.11-.66.11-.66h1.75l-.03,3.38-.03,3.38-.47.11-.47.11v2l2.43-.03,2.43-.03v-.95Z" fill="green" stroke-width="0"/>
  </g>
  <g id="Background">
    <path id="Upper_Background" data-name="Upper Background" d="M0,28.92v-.76h2.08c1.14,0,2.11-.05,2.15-.11.04-.06-.01-.57-.11-1.14-.1-.56-.25-1.74-.33-2.61-.13-1.37-.13-1.61.03-1.77.23-.23,4.03-1.99,5.8-2.68,5.41-2.12,11.16-3.76,15.61-4.46.83-.13,1.61-.24,1.73-.24.19,0,.22.28.25,3,.04,2.97.04,3.01.38,3.64.42.8,1.26,1.58,2.21,2.06.96.48,1.39.61,2.76.85,2.67.46,4.05,1.25,5.11,2.91l.37.58.41-.61c1.13-1.67,2.39-2.42,4.8-2.82,2.22-.37,4.03-1.25,4.88-2.38.69-.92.8-1.51.8-4.55v-2.71l.66.08c4.89.62,11.8,2.53,17.28,4.78,1.65.68,3.89,1.71,4.78,2.2l.8.45-.08.96c-.05.53-.19,1.76-.33,2.73s-.24,1.78-.24,1.8.97.04,2.15.04h2.15v1.52H0v-.76Z" fill="#000" stroke-width="0"/>
    <path id="Up_Right_Border" data-name="Up Right Border" d="M7.74,28.09s0-.39-.09-.79c-.09-.4-.2-1.03-.25-1.41-.05-.38-.11-.84-.14-1.02-.06-.3.01-.36.8-.71,2.62-1.18,5.02-2.09,8.11-3.07,1.92-.61,5.49-1.55,7.38-1.95l.98-.21v-.75c0-.41-.01-.75-.03-.75-.02,0-.61.11-1.31.25-5.3,1.03-11.91,3.23-16.48,5.48l-1.07.53.04.7c.04.84.4,3.11.55,3.51.09.25.2.28.78.28.37,0,.71-.03.75-.07h0Z" fill="green" stroke-width="0"/>
    <path id="Up_Left_Border" data-name="Up Left Border" d="M70.03,27.02c.34-1.68.47-3.2.31-3.37-.08-.08-.85-.47-1.72-.87-4.07-1.86-8.41-3.37-12.66-4.42-1.37-.34-4.15-.94-4.37-.94-.02,0-.03.34-.03.75v.75l.98.21c5.09,1.08,11.99,3.32,15.47,5.04l.8.39-.04.58c-.02.32-.14,1.1-.26,1.74s-.19,1.19-.15,1.23.38.05.77.03l.7-.04.21-1.07Z" fill="green" stroke-width="0"/>
    <path id="Background_Blue" data-name="Background Blue" d="M37.43,26.27c-.55-.64-1.67-1.35-2.69-1.71-.31-.11-1.27-.34-2.14-.51-2.42-.48-3.65-1.16-4.4-2.44l-.34-.58-.04-9.19c-.02-6.44,0-9.19.1-9.19.07,0,.42.14.76.32,1.31.66,2.78.84,4.23.5,2-.46,3.65-1.57,4.94-3.31.11-.14.2-.18.27-.1.06.07.33.4.6.74.54.68,1.69,1.58,2.63,2.06.77.39,2.37.8,3.14.8.86,0,2.21-.34,2.98-.76.47-.25.69-.32.73-.21.03.09.04,4.22.02,9.19-.03,8.71-.04,9.05-.28,9.54-.63,1.27-2.07,2.17-4.07,2.53-2.7.49-4.27,1.19-5.26,2.34-.29.34-.56.62-.6.62s-.31-.28-.6-.63h0Z" fill="#013369" stroke-width="0"/>
    <path id="Background_White" data-name="Background White" d="M38.71,24.51c.6-.45,1.3-.82,2.21-1.16.19-.07,1.01-.27,1.81-.43,2.47-.5,3.57-1.05,4.03-2.01.25-.51.26-.72.23-5.2l-.03-4.66-8.94-.03-8.94-.03v4.74c0,4.43.02,4.78.24,5.22.47.91,1.59,1.46,4.05,1.98,1.75.37,3.07.89,3.97,1.58.35.27.66.49.68.49.02,0,.33-.21.7-.48h0Z" fill="#fff" stroke-width="0"/>
  </g>
  <g id="Football">
    <path id="Football-2" data-name="Football" d="M37.2,9.59c2.25-.64,3.5-2.2,3.49-4.34,0-.92-.2-1.75-.44-1.81-.07-.02-.33.13-.57.34-.35.29-.4.4-.27.49.1.06.14.17.09.24-.05.08-.27.03-.58-.14-.53-.29-.68-.54-.25-.43.14.04.38-.04.56-.17.17-.13.36-.24.44-.24s.17-.07.22-.15c.15-.24-1.18,0-1.93.33-1.89.86-2.89,2.76-2.56,4.83.14.87.36,1.25.37.64,0-.16.17-.77.37-1.36s.31-1.09.25-1.12c-.19-.07-.13-.4.07-.4.3,0,1.08.41,1.08.57,0,.24-.16.32-.34.17-.14-.11-.24.02-.54.66-.2.44-.45,1.1-.56,1.47-.23.79-.23.8,1.1.42Z" fill="#fff" stroke-width="0"/>
    <path id="Lower_Lace" data-name="Lower Lace" d="M37.18,6.14c-.58-.29-.69-.47-.28-.47.38,0,1,.36,1,.57,0,.24-.07.23-.73-.1Z" fill="#013369" stroke-width="0"/>
    <path id="Middle_Lace" data-name="Middle Lace" d="M37.72,5.5c-.28-.15-.53-.29-.56-.31-.03-.02,0-.09.06-.15.14-.14,1.19.29,1.19.49,0,.25-.2.24-.7-.03Z" fill="#013369" stroke-width="0"/>
    <path id="Upper_Lace" data-name="Upper Lace" d="M38.16,4.84c-.48-.24-.53-.3-.33-.38.26-.1,1.13.3,1.11.51-.02.2-.19.17-.79-.13Z" fill="#013369" stroke-width="0"/>
  </g>
  <g id="Stars">
    <path id="Left_L_Lower_Star" data-name="Left L Lower Star" d="M29.73,9.62c.23-.21.26-.21.62,0l.37.21-.08-.43c-.07-.35-.03-.46.18-.6.37-.23.33-.36-.1-.36-.3,0-.4-.08-.52-.41l-.15-.41-.13.41c-.11.36-.19.41-.55.41-.23,0-.42.06-.42.13s.05.13.12.13.2.09.31.19c.15.15.16.27.07.51-.2.51-.11.58.29.21Z" fill="#fff" stroke-width="0"/>
    <path id="Left_R_Lower_Star" data-name="Left R Lower Star" d="M33.88,9.62c.41.23.41.23.24-.21-.1-.27-.07-.36.19-.56.41-.33.39-.4-.12-.4-.34,0-.44-.06-.47-.26-.06-.36-.28-.37-.33-.03-.03.23-.12.28-.47.28-.52,0-.54.07-.12.4.26.21.29.3.19.56-.17.45-.16.46.21.22.31-.2.36-.2.7,0h0Z" fill="#fff" stroke-width="0"/>
    <path id="Right_L_Lower_Star" data-name="Right L Lower Star" d="M42.83,9.64c.33.3.43.21.26-.25-.11-.3-.1-.39.08-.52.12-.09.27-.16.32-.16s.1-.06.1-.14c0-.09-.15-.12-.39-.08-.34.05-.41.01-.52-.3-.15-.43-.32-.47-.38-.07-.03.22-.14.29-.45.32-.48.05-.52.15-.15.38.22.14.25.24.18.6l-.08.43.37-.21c.36-.2.39-.2.64.02h0Z" fill="#fff" stroke-width="0"/>
    <path id="Right_R_Lower_Star" data-name="Right R Lower Star" d="M46.35,9.62c.35.31.42.27.26-.16-.14-.41.02-.76.35-.76.1,0,.17-.06.17-.14s-.18-.12-.41-.09c-.36.04-.42,0-.52-.37-.15-.51-.28-.52-.38-.03-.06.32-.13.38-.46.38-.45,0-.49.13-.12.36.22.14.25.24.18.6l-.08.43.37-.21c.35-.2.39-.2.62,0h0Z" fill="#fff" stroke-width="0"/>
    <path id="Left_L_Upper_Star" data-name="Left L Upper Star" d="M30.34,6.46c.38.22.45.12.24-.28-.09-.17-.07-.29.07-.43.11-.11.25-.2.32-.2s.12-.06.12-.13-.17-.13-.37-.13c-.3,0-.39-.08-.51-.41l-.15-.41-.18.41c-.15.34-.24.41-.59.42h-.42s.35.29.35.29c.31.26.34.33.22.64-.18.48-.17.49.2.25.31-.2.36-.2.7,0h0Z" fill="#fff" stroke-width="0"/>
    <path id="Left_R_Upper_Star" data-name="Left R Upper Star" d="M33.88,6.46c.41.23.41.23.24-.21-.09-.24-.07-.37.07-.51.11-.11.25-.19.31-.19s.12-.06.12-.13-.17-.13-.39-.13c-.32,0-.41-.07-.53-.41l-.14-.41-.17.41c-.14.34-.24.41-.58.41h-.41s.35.29.35.29c.31.26.34.33.22.64-.18.48-.17.49.2.25.31-.2.36-.2.7,0Z" fill="#fff" stroke-width="0"/>
    <path id="Right_L_Upper_Star" data-name="Right L Upper Star" d="M42.86,6.46q.41.24.23-.24c-.12-.31-.09-.38.22-.64l.35-.29h-.42c-.35,0-.45-.08-.59-.42q-.18-.42-.38.22c-.04.11-.21.19-.44.19-.45,0-.49.13-.12.36.22.14.25.24.18.61l-.08.44.34-.22c.32-.21.36-.21.7-.01Z" fill="#fff" stroke-width="0"/>
    <path id="Right_R_Upper_Star" data-name="Right R Upper Star" d="M45.77,6.43c.3-.15.38-.14.66.03l.31.21-.14-.39c-.12-.36-.1-.42.23-.69l.36-.3h-.46c-.41,0-.47-.05-.55-.39-.05-.21-.13-.38-.18-.38s-.13.17-.18.38c-.06.32-.13.38-.46.38-.46,0-.48.07-.1.38.26.21.27.27.13.63-.08.22-.11.38-.06.35.05-.02.24-.12.43-.22Z" fill="#fff" stroke-width="0"/>
  </g>
  <g id="Letters">
    <path id="Star" d="M37.74,24.13l.35-.24.36.25c.19.13.36.23.36.2s-.05-.21-.12-.42l-.12-.37.13-.11c.08-.06.23-.19.35-.29l.22-.17h-.87l-.13-.4c-.07-.22-.15-.4-.16-.4-.02,0-.1.17-.17.39l-.13.39-.45.03-.45.03.36.26c.19.15.36.26.36.27s-.06.2-.13.43c-.07.23-.12.42-.11.42,0,0,.17-.11.36-.24h0Z" fill="#d50a0a" stroke-width="0"/>
    <path id="Star-2" data-name="Star" d="M34.97,22.71l.35-.24.36.25c.19.13.36.23.36.2s-.05-.21-.12-.42l-.12-.37.13-.11c.08-.06.23-.19.35-.29l.22-.17h-.87l-.13-.4c-.07-.22-.15-.4-.16-.4-.02,0-.1.17-.17.39l-.13.39-.45.03-.45.03.36.26c.19.15.36.26.36.27s-.06.2-.13.43c-.07.23-.12.42-.11.42,0,0,.17-.11.36-.24h0Z" fill="#d50a0a" stroke-width="0"/>
    <path id="Star-3" data-name="Star" d="M40.51,22.71l.35-.24.36.25c.19.13.36.23.36.2s-.05-.21-.12-.42l-.12-.37.13-.11c.08-.06.23-.19.35-.29l.22-.17h-.87l-.13-.4c-.07-.22-.15-.4-.16-.4-.02,0-.1.17-.17.39l-.13.39-.45.03-.45.03.36.26c.19.15.36.26.36.27s-.06.2-.13.43c-.07.23-.12.42-.11.42,0,0,.17-.11.36-.24h0Z" fill="#d50a0a" stroke-width="0"/>
    <text id="Upper_B" data-name="Upper B" transform="translate(29.07 20.41) scale(.7 1)" fill="#d50a0a" font-family="NFL, NFL" font-size="12.48"><tspan x="0" y="0">B</tspan></text>
    <text id="Upper_S" data-name="Upper S" transform="translate(34.98 20.74) scale(.72 1)" fill="#d50a0a" font-family="NFL, NFL" font-size="13.17"><tspan x="0" y="0">S</tspan></text>
    <text id="Upper_B-2" data-name="Upper B" transform="translate(40.71 20.41) scale(.7 1)" fill="#d50a0a" font-family="NFL, NFL" font-size="12.41"><tspan x="0" y="0">B</tspan></text>
  </g>
</svg>