<?xml version="1.0" encoding="UTF-8"?>
<svg id="Icon-Add-Drop" xmlns="http://www.w3.org/2000/svg" viewBox="0 0 72 87.96">
  <defs>
    <style>
      svg {
        color: green;
      }
    </style>
  </defs>
  <g id="Player">
      <g>
        <g>
          <path d="m51.81,69.5c0-.06-.02-.15.04-.17,1.84-.45,3.8-.61,5.49-1.53,2.25-1.23,2.57-3.11,4.26-4.81,1.3-6.31-.4-10.41-2.72-16.04,4.17-.14,3.27.72,3.57,1.57.33.93.86,2.04,1.11,2.98,1.2,4.5.55,8.92-1.79,12.94-.03.13.32.63-.51,2.64-1.48,3.57-3.06,2.15-4.04,2.17-.22,0-1.58.25-2.47.26-.98,0-1.96.02-2.94,0Z"></path>
          <path d="m21.94,71.37c-1.36.35-2.72.73-4.04,1.19l-.43-.09c-1.09-.36-4.17-5.42-4.89-6.64,1.04.44,2.14,1.61,3.11,2.04,1.96.88,5.67.98,6.26,3.49Z"></path>
          <path d="m8.07,35.21c.95.71,1.83,1.45,2.89,2-.02.08-.95.26-1.11.3-.78.22-2.42.6-3.15.43-1.74-.41-.88-2.9-.34-3.96.4.08,1.04.74,1.7,1.23Z"></path>
          <path d="m38.62,63.29c-2.27,1.36-4.13,2.63-6.55,4l-.09-.43c.74-.47,1.51-.95,2-1.7-1.35.14-3.58.75-4.77.85-1.81.15,1.1-.6,2.51-1.02,1.7-.51,3.38-1.03,5.11-1.45.52-.12,1.37-.49,1.79-.26Z"></path>
          <path d="m66.1,37.76c-.15-.02-.37-.05-.51-.09-1.14-.32-2.32-.58-3.45-.94-.07-.02-.19-.18-.04-.17,1.33-.19,3.25-1.51,4.3-2.38l.64,2.6c-.28.47-.85.85-.94.98Z"></path>
          <path d="m38.28,64.99c-.06.16.28.23.38.26,2.32.51,4.65,1,6.98,1.45l.04.68c-.06-.01.06.23-1.15,0-1.47-.28-5.89-1.55-6.98-1.36-.02,0-.13.12-.13.17-.18-.06-.6.04-.77-.21,0-.1,1.42-.85,1.62-.98Z"></path>
          <path d="m32.06,67.29c-.9.51-1.75,1.15-2.68,1.62-3.21,1.61-4.12,1.58-7.19,2.38-.12.03-.22-.03-.17-.13.26-.48,6.61-2.2,9.96-4.3l.09.43Z"></path>
          <path d="m28.83,61.16c.25.17-.06.36-.21.43-.43.19-8.82,1.4-9.28,1.28-.09-.02.1-.09-.04-.26.69-.13,1.38-.4,2.09-.51,2.47-.38,4.98-.46,7.45-.94Z"></path>
          <path d="m51.13,55.54c-1.84.93-4.04.91-5.87,0,.04,0,.12-.2.81-.17,2.25.58,2.77.74,4.94-.17.11.13.12.33.13.34Z"></path>
          <g id="Rt_Hand">
            <path d="m30.62,59.71c-2.67.69-5.54.67-8.25,1.06-.05-.24.08-.32.09-.38.58-.21.63-.81.17-1.19,0-.03,0-.06,0-.09.65.31.82-.39.94-1.15.03-.17-.17-.2-.17-.21.08-.64.21-.74,1.11-1.19l6.13,3.15Z"></path>
            <path d="m30.62,59.71l-6.13-3.15c.19-.1.39-.35.64-.34,2.84.95,4.57,2.46,7.66,2.64-.64.48-1.43.66-2.17.85Z"></path>
            <path d="m22.62,59.12c.19-.74,0-.74.77-1.36,0,.01.2.04.17.21-.12.76-.29,1.46-.94,1.15Z"></path>
            <path d="m22.45,60.4c0-.41.08-.8.17-1.19.46.38.41.98-.17,1.19Z"></path>
          </g>
          <path id="Top_Jersey" d="m66.19,33.63c-.68.87-2.2,1.51-3.24,1.91-.5.2-1.02.35-1.53.51-2.29.68-4.5,1.02-6.89,1.11-.52.16-.81.96-1.11,1.36-.33.44-.69,1.07-1.02,1.44-.66,1.59-1.68,4.02-1.62,5.7.02.46.23,1.28.34,1.79.04.16.07.2.08.26.05.26.11.51.17.76.07.32.43.88.43,1.15-.52.66-.83,4.28-1.06,4.47-2.32.96-2.8.51-5.19.08-2.35.6-10.21,4.07-11.66,4.17-.53.04-3.5-.28-4-.42-.26-.08-3.03-1.58-4.76-1.96q-1.02.43-2.04.85c-.08-2.15-1.4-5.94-1.4-6.47-.02-1.1.33-1.55.76-2.47.4-.85.92-1.64,1.45-2.42-.12-2.48-1.02-4.64-2.64-6.51-.19-.22-.32-.49-.55-.68-2.79.08-5.6-.1-8.3-.85-.13-.04-.39-.04-.51-.08-.99-.32-3.07-1.52-3.83-2.21-4.11-3.75.7-5.35,3.62-7.15.78-.2,8.21-.22,9.44.34,1.09-.15,2.18-.07,3.28-.09.46.69,1.17,1.33,1.79,1.87q.26-.17.51-.34,2.3,2.04,4.6,4.08c.74.44,5.31,4.11,5.66,4.08,3.19-2.5,6.32-5.1,8.98-8.17q.11.09.21.17c.13-.19.4-.25.55-.34.29-.17,1.54-1.05,1.79-1.36.92-.02,1.85.01,2.77,0,1.04-.39,2.1-.36,3.19-.34h5.83c1.43.63,3.35,1.5,4.55,2.47,1.59,1.27,1.15,1.28,1.36,3.28Z"></path>
          <path d="m21.6,58.95c-.03.72-.18,1.45-.17,2.17-.2.22-.57.28-.6.3-.42-2.77-.32-5.4-1.11-8.13-.27-.93-1.3-2.7-.26-1.53,1.92,2.14,1.5,6.67,1.7,7.06.02.03.34.11.43.13Z"></path>
          <path d="m10.58,51.37c.03,3.35-.02,6.68.85,9.96-1.67-1.46-1.76-6.59-1.57-8.72.01-.14.34-.22-.09-.51l.81-.72Z"></path>
          <path d="m45.68,67.37c1.82.34,4.3,1.17,6.08,1.28,2.06.13,3.51-.96,5.57-.85-1.69.92-3.65,1.09-5.49,1.53-.06.02-.04.11-.04.17-5.05-.13-9.67-1.6-14.38-3.32,0-.05.1-.17.13-.17,1.09-.18,5.51,1.08,6.98,1.36,1.21.23,1.09-.01,1.15,0Z"></path>
          <path id="Left_Arm" fill="currentColor" d="m21.6,58.95c-.09-.02-.41-.09-.43-.13-.2-.39.22-4.93-1.7-7.06-1.05-1.17-.02.6.26,1.53.79,2.72.69,5.36,1.11,8.13-1.19.8-2.8,1.43-1.53,1.19.14.16-.05.23.04.26.45.12,8.85-1.08,9.28-1.28.15-.07.46-.25.21-.43,3.74-.73,8.53-2.5,12.13-3.91,1.14-.45,1.87-1.29,4.3-1.7,1.83.91,4.03.93,5.87,0,.46.72.74,2.27.89,3.15-2.75.53-5.33,1.74-8.17,1.62-1.79.92-3.51,1.95-5.23,2.98-.41-.23-1.27.13-1.79.26-.32-.72-4.78.76-4.98.94-.05.05-.07.39-.13.51-1.41.42-4.32,1.17-2.51,1.02,1.19-.1,3.42-.71,4.77-.85-.49.75-1.26,1.24-2,1.7-3.35,2.1-9.7,3.82-9.96,4.3-.05.1.05.15.17.13-.01,0,.03.01-.26.09-.59-2.51-4.3-2.6-6.26-3.49-.96-.44-2.07-1.6-3.11-2.04-4.34-7.33-3.23-9.79-2.77-17.96,3.45.31,7.79-.28,10.51,2.09-.46.87.31,1.72.51,2.55.51,2.1.85,4.25.77,6.43Z"></path>
          <path d="m38.91,64.74c3.88.68,7.84.56,11.74.94,3.29.32,4.34.59.43.77-4.15.19-8.21-.52-12.17-1.7Z"></path>
          <path d="m53.17,58.86c-.1-.04-.43.04-.6-.21-.43-1.95-.42-4.27-.17-6.26.45.23.75-1.52,1.45-2.43.87-1.12-.08,1.07-.26,1.96-.46,2.31-.27,4.59-.43,6.94Z"></path>
          <path d="m36.83,63.54c-1.72.41-3.41.94-5.11,1.45.05-.12.07-.46.13-.51.2-.18,4.66-1.65,4.98-.94Z"></path>
          <path id="Lt_Lg_Stripe" fill="gray" d="m23.89,45.46c-.52.78-1.04,1.57-1.45,2.42-.86.4-.69-.17-.85-.26-.25-.13-3.67-1.56-3.87-1.62-.96-.27-9.22-1.3-9.61-1.02-.17.12.05.79.21.94-.42-.36-.55-.64-.34-1.23-2.11-3.52-1.2-3.57-1.19-6.34,0-.1.21-.11-.08-.43.73.17,2.37-.21,3.15-.42.15-.04,1.08-.22,1.11-.3-1.06-.55-1.95-1.29-2.89-2v-.08c.76.7,2.84,1.9,3.83,2.21.12.04.38.05.51.08,2.7.76,5.51.93,8.3.85.23.19.36.46.55.68,1.62,1.88,2.52,4.04,2.64,6.51Z"></path>
          <path id="Lt_Sm_Stripe" fill="currentColor" d="m21.6,47.63c-.1.16-.49.92-.64.94-.19.02-2.09-1.22-3.49-1.53-1.83-.41-7.76-.47-8.77-.77-.07-.02-.31-.28-.38-.34-.16-.15-.38-.82-.21-.94.39-.28,8.66.75,9.62,1.02.2.06,3.62,1.48,3.87,1.62Z"></path>
          <path id="Rt_Arm" fill="currentColor" d="m58.87,46.95c2.33,5.63,4.02,9.73,2.72,16.04-1.69,1.7-2,3.58-4.26,4.81-2.06-.11-3.51.98-5.57.85-1.79-.11-4.26-.94-6.08-1.28l-.04-.68c-2.33-.45-4.66-.93-6.98-1.45-.11-.02-.44-.09-.38-.26,6.49-4.09,4.22-3.2,11.11-4.6,2.12-.43,3.74-1.45,6.04-.77.37-.15-1.68-.54-2.26-.77.16-2.34-.04-4.62.43-6.94.18-.89,1.12-3.08.26-1.96-.7.9-.99,2.65-1.45,2.43.14-1.15.58-2.28.68-3.45,1.43-1.55,3.76-1.93,5.79-2Z"></path>
          <path id="Rt_Sm_Stripe" fill="currentColor" d="m62.79,44.65c.45.08.91.16,1.36.26-.25.42-.49.81-.89,1.11-2.77-.63-5.72-.73-8.43.26-1.82.66-1.97,2.01-2.77.51-.06-.12-.24-.21-.13-.34,3.59-2.3,6.74-2.54,10.85-1.79Z"></path>
          <path id="Rt_Lg_Stripe" fill="gray" d="m65.68,41.55c-.03.18-1.35,3.07-1.53,3.36-.45-.1-.91-.17-1.36-.25-4.11-.75-7.27-.51-10.85,1.79-.11.13.07.22.13.34-.51-.06-.69.32-.94.68-.11-.51-.32-1.32-.34-1.79-.07-1.68.96-4.11,1.62-5.7.34-.38.69-1,1.02-1.44.3-.4.59-1.2,1.11-1.36,2.39-.08,4.6-.42,6.89-1.11.17.55.04.6.63.52-.06.02.03.14.09.16,1.12.35,2.31.62,3.45.94.14.04.36.07.51.08-.37.54-.62,2.97-.43,3.79Z"></path>
        </g>
        <g>
          <g id="Helmet">
            <path d="m41.34,1.08c4.21,2.15,6.5,7.33,5.91,11.91-1.9-.58-3.91-.65-5.83-.98.01-.49-.34-1.27-.77-1.49.18-2.53.14-5.09.34-7.62.05-.68.18-1.94.34-1.83Z"></path>
            <path id="Middle" fill="currentColor" d="m41.34,1.08c-.16-.11-.29,1.15-.34,1.83-.2,2.53-.16,5.08-.34,7.62-1-.51-1.53.16-1.62.17-.43.06-.32.08-.34.09-.31.04-3.66.04-4.08,0-.02,0-.22-.24-.43,0-.1-.28-1.34-.83-2.04.09.08-2.29-.51-7.29-.85-9.79,2.8-1.44,7.23-1.44,10.04,0Z"></path>
            <path d="m31.3,1.08c.34,2.49.93,7.5.85,9.79,0,.28-.13.81-.13,1.19-2.26.16-4.58.22-6.72,1.02-.24-.09.06-2.83.13-3.23.16,0,.99-.34,1.02-.38.03-.05,0-.83.09-1.11.3-.9,2.03-4.43,2.04-4.68,0-.01-.12-.14-.17-.13.86-1,1.71-1.86,2.89-2.47Z"></path>
            <path d="m25.43,9.84c.4-2.54,1.32-4.37,2.98-6.3.05-.01.17.11.17.13-.01.26-1.74,3.78-2.04,4.68-.09.27-.06,1.06-.09,1.11-.03.05-.86.39-1.02.38Z"></path>
          </g>
          <g id="Facemask_Holes">
            <path d="m33.38,12.82c.68,0,.37,1.05-.26.85-.39-.13-.23-.85.26-.85Z"></path>
            <path d="m33.13,11.04c.8-.2.73,1.08-.09.77-.32-.12-.26-.68.09-.77Z"></path>
            <path d="m39.85,12.91c.47-.24,1.04.37.6.77-.45.4-.94-.59-.6-.77Z"></path>
            <path d="m39.94,11.04c.41-.11.62.73.26.85-.57.19-.62-.75-.26-.85Z"></path>
          </g>
          <path id="V_Neck" d="m45.94,29.76c-2.66,3.07-5.79,5.67-8.98,8.17-.35.02-4.92-3.64-5.66-4.08q-2.3-2.04-4.6-4.08c-.22-.34.68-1.21,1.06-1.62q.68.21,1.36.43c.35.29-.36,1.04-.17,1.45q3.92,3.06,7.83,6.13c.2.02.5-.49.64-.6.94-.73,1.89-1.45,2.81-2.21,1.24-1.03,2.57-2.01,3.57-3.27.04-.7-1.64-1.46,1.06-1.92q.53.81,1.06,1.62Z"></path>
          <path id="Mid_Facemask" d="m38.7,10.78c.07,1.12-.19,2.3.26,3.36l-.13.13h-4.08l-.13-3.49c.42.04,3.78.04,4.08,0Z"></path>
          <g id="Facemask_BG">
            <path fill="currentColor" d="m39.89,21.16c-1.14.02-2.37.11-3.36-.26-.19.38-1.68.28-2.68.26.35-1.23.34-1.86,1.79-1.74-2.36,1.47.23.96,2.94,1.06.31-.12-.87-1.35-.08-1.11.11.03,1.24,1.55,1.4,1.79Z"></path>
            <path fill="currentColor" d="m32.6,27.13c-1.28-.2-2.76-.48-2.97-.69-.61-1.76-.06-4.11-1.58-3.53.43,6.33.08,2.63-.34-.09-.04-.23-1.12-.19-1.4-.21.88,4.69-.04,4.32-.64-.13-2.54-.81-.18-1.32-.17-2.21-.68-1.71-.64-4.72-1.45-5.7.23-1.39,1.03-1.87.17-.34.01.11.76.55.85.76.1.26.61,4.39,1.11,5.45q-.55.47-1.11.94c.06.35,4.09.63,7.28.8l.24,4.95Z"></path>
            <path fill="currentColor" d="m36.02,27.46c-.52-.09-1.05-.05-1.57-.08-.15-.01-.45-.04-.83-.1l-.3-5.05c1.37.07,2.46.11,2.78.13.09.06.04.93.04,1.11.02.54,0,1.08,0,1.62,0,.42.02.86,0,1.28-.03.47.1.94-.13,1.11Z"></path>
            <path fill="currentColor" d="m45.47,28.31c-.81-.25,1.26-.6.76-1.96-1.89,2.2-8.44,1.91-8.85,2.13-.07.04-.08.52-.26.6-1,.42-1.03-.57-1.11-.6-.3-.13-3.76-.13-6.47-.77-2.53-.59-2.82-1.19-2.98-1.19-.38,0-.55,1.11.85,1.53v.17c-1,.01-2.01-.01-3.02,0,.46.69,1.17,1.33,1.79,1.87q.26-.17.51-.34c-.22-.34.68-1.21,1.06-1.62q.68.21,1.36.43c.35.29-.36,1.04-.17,1.45q3.92,3.06,7.83,6.13c.2.02.5-.49.64-.6q-1.19-.7-2.38-1.4c-.13-1.12-1.84-2.67-1.49-3.02.73-.72,1.81,1.02,2.73,1.45,2.08.96,4.08-1.05,5.19-2.64.98,1.12-.77,2.27-1.23,3.4,1.24-1.03,2.57-2.01,3.57-3.27.04-.7-1.64-1.46,1.06-1.92q.53.81,1.06,1.62.11.09.21.17c.13-.19.4-.25.55-.34.29-.17,1.54-1.05,1.79-1.36-.68.01-2.46.26-3.02.09Z"></path>
            <path fill="currentColor" d="m39.92,22.29v4.92c-.29.04-.58.07-.87.08-.52.03-1.05.06-1.58.08-.09-.06-.03-.62-.04-.77-.03-.5.01-1.02,0-1.53-.01-.62-.01-1.25,0-1.87,0-.29.01-.57-.04-.85.85,0,1.69-.03,2.53-.07Z"></path>
            <path fill="currentColor" d="m46.96,22.57c-.19,3.75-1.38,3.84-.6.08-1.89-.33-1.47.31-1.62,1.19-.43,2.51-.3.13-.34.26-.13.4-.4,2.91-.64,2.08q.28-1.68.55-3.36c-1.36-.35-.89,2.23-1.66,3.87-.59.14-1.18.26-1.77.37l.12-4.84c2.18-.14,4.35-.37,6.51-.72q-.49-.57-.98-1.15c.36-.86,1.05-5.29,1.19-5.53.02-.05.71-.54.85-.6l-1.45,6.04c.03.75,2.47,1.44-.17,2.3Z"></path>
            <path fill="currentColor" d="m34.62,10.78l.13,3.49h4.08l.13-.13c-.44-1.06-.19-2.24-.26-3.36.02,0-.08-.03.34-.09.08.97-.39,3.39.98,3.66,2.19.43,1.29-.93,1.53-1.11.22-.16,5.15.68,5.36.85.15,2.03-.59.63-1.62.51-.81-.09-1.67.24-2.47.26-4.21.08-8.47.07-12.68,0-1.57-.03-3.2-.75-4.08.51l-.3-1.23c.12-.32,5.83-1.07,6.08-.89.13.09-.04.93.09,1.02.1.07,2.06.2,2.26-.55.04-.14.05-2.8,0-2.94.21-.24.4,0,.43,0Z"></path>
            <path fill="currentColor" d="m45.13,15.97c.4.1.36.87,1.06,1.74-.19.36-.51,2.61-.6,2.72-.03.04-.94.33-.98.3-.2-.14.38-4.25.51-4.77Z"></path>
            <path fill="currentColor" d="m27.26,16.14c.3-.12.34.24.38.47.04.2.38,4.01.21,4.13-.03.02-.66-.15-.72-.21-.18-.18-.38-1.98-.6-2.38-.08-.22.62-1.96.72-2Z"></path>
            <path fill="currentColor" d="m44.32,16.1q-.26,2.3-.51,4.6c-.33.32-.79.16-1.19.21l-.04-3.23c-1.59.93-3.21-.58-3.45-.04-.28.63,2.44,1.07,3.1.3-.9,2.63-2.08-.52-4.25.6-.38-.29-.95-2.22-1.45-2.13-.19.04-1.64,2.2-1.79,2.21-.16.02-.83-.61-1.11-.6-.1,0-1.7.9-1.87.77-.13-.1.04-.75-.08-.85-.09-.08-.7.34-2.3-.25q.07,1.62.13,3.23c-.26-.04-.6.11-.77-.13-.21-1.55-.45-3.12-.51-4.68.32-.61,12.45-.48,13.75-.38.77.06,1.57.28,2.34.38Z"></path>
          </g>
        </g>
        <path id="Bot_Jersey" d="m54.79,80.31c-.95.14-2.57.67-3.87.85-2.05.29-4.12.4-6.17.68-.28,0-.57,0-.85,0-6.27,0-12.54,0-18.81,0-2.42-.28-4.76-.99-7.15-1.44.45-1.58.95-5.23,1.28-6.3.02-.08.13-.18.08-.47.32-.5,5.63-1.18,8.89-2.6,2.46-1.07,4.68-2.7,7.06-3.91.39-.04,2.53.85,3.1,1.02,4.45,1.34,7.6,2.47,12.34,2.72.49.03,3.3-.1,3.4.13q.34,4.66.68,9.32Z"></path>
      </g>
      <path id="Plus" fill="currentColor" d="m12.22,26.65c1.5-.28,2.71-1.52,2.95-3.02.05-.28.08-1.51.08-2.75v-2.24h2.42c3.2,0,3.64-.11,4.66-1.22,1.81-1.95.82-5.09-1.82-5.8-.31-.08-1.11-.12-2.85-.12h-2.42s0-2.29,0-2.29c0-3.19-.16-3.82-1.23-4.81-.73-.68-1.27-.87-2.42-.87-.98,0-1.37.12-2.13.63-.49.34-1.06,1.16-1.27,1.82-.16.51-.17.81-.17,3.04v2.47h-2.42c-2.63,0-3.1.06-3.84.5C.54,12.73-.18,14.23.04,15.62c.25,1.54,1.41,2.73,2.95,3.03.25.05,1.49.09,2.75.09h2.29v2.43c0,2.17.02,2.49.17,2.98.4,1.3,1.37,2.19,2.7,2.48.62.13.75.14,1.32.03h0Z"></path>
      <path id="Minus" fill="currentColor" d="m69.9,18.59c.38-.15.66-.36,1.1-.8.8-.8,1-1.28,1-2.46,0-.81-.01-.87-.31-1.49-.51-1.04-1.39-1.7-2.54-1.91-.64-.12-15.88-.13-16.59,0-1.53.25-2.68,1.4-2.94,2.92-.29,1.68.93,3.5,2.61,3.9.19.05,3.86.07,8.75.06h8.43s.51-.22.51-.22Z"></path>
    </g>
    </svg>