<?xml version="1.0" encoding="UTF-8"?>
<svg id="svg565" xmlns="http://www.w3.org/2000/svg" viewBox="0 0 76.3 72">
  <defs>
    <style>
      .cls-1 {
        fill: #fff;
      }

      .cls-2 {
        fill: #8c8c8c;
      }

      .cls-3 {
        fill: green;
      }

      .cls-4 {
        fill: #767676;
      }

      .cls-5 {
        fill: #a3a3a3;
      }

      .cls-6 {
        fill: #494949;
      }

      .cls-7 {
        fill: #606060;
      }

      .cls-8 {
        fill: #d50a0a;
      }

      .cls-9 {
        fill: #d0d0d0;
      }

      .cls-10 {
        fill: #013369;
      }

      .cls-11 {
        fill: #b9b9b9;
      }
    </style>
  </defs>
  <g id="g571">
    <g id="g577">
      <path class="cls-9" d="m37.89,68.98c0-.43-.05-.53-.38-.7-.53-.27-.48-.36.06-.1.4.19.44.26.44.76,0,.3-.03.55-.06.55s-.06-.23-.06-.5h0Z"/>
      <path class="cls-9" d="m35.45,67.09c-.33-.21-.59-.4-.59-.44s.28.12.63.33c.56.35.72.48.59.48-.02,0-.31-.17-.63-.38Z"/>
      <path class="cls-9" d="m30.99,65.03l-.24-.28.28.24c.27.23.34.33.24.33-.02,0-.15-.13-.28-.28Z"/>
      <path class="cls-9" d="m29.93,64.17l-.57-.52.6.47c.53.41.68.56.57.56-.02,0-.29-.23-.6-.52Z"/>
      <path class="cls-9" d="m31.81,64.46c-.16-.2-.15-.2.05-.05.12.1.22.19.22.22,0,.1-.1.04-.27-.17Z"/>
      <path class="cls-9" d="m28.85,63.26l-.37-.41.41.37c.38.35.47.45.37.45-.02,0-.21-.18-.41-.41Z"/>
      <path class="cls-9" d="m25.24,63.07c-.16-.2-.15-.2.05-.05.21.17.28.27.17.27-.03,0-.13-.1-.22-.22Z"/>
      <path class="cls-9" d="m29.92,62.94c-.16-.2-.15-.2.05-.05.21.17.28.27.17.27-.03,0-.13-.1-.22-.22Z"/>
      <path class="cls-9" d="m27.9,62.44l-.44-.47.47.44c.26.24.47.45.47.47,0,.1-.11,0-.51-.44Z"/>
      <path class="cls-9" d="m26.58,61.24l-.63-.66.66.63c.62.58.72.7.63.7-.02,0-.32-.3-.66-.66Z"/>
      <path class="cls-9" d="m28.65,61.55c-.16-.2-.15-.2.05-.05.12.1.22.19.22.22,0,.1-.1.04-.27-.17Z"/>
      <path class="cls-9" d="m52.68,61.48s.1-.13.22-.22c.2-.16.2-.15.05.05-.17.21-.27.28-.27.17Z"/>
      <path class="cls-9" d="m27.89,61.18c-.16-.2-.15-.2.05-.05.21.17.28.27.17.27-.03,0-.13-.1-.22-.22Z"/>
      <path class="cls-9" d="m22.59,60.54l-.31-.35.35.31c.32.29.41.39.31.39-.02,0-.18-.16-.35-.35Z"/>
      <path class="cls-9" d="m26.52,59.91l-.69-.73.73.69c.4.38.73.71.73.73,0,.09-.12-.02-.76-.69Z"/>
      <path class="cls-9" d="m25.46,60.36c.04-.06.12-.07.18-.03.17.1.15.14-.07.14-.1,0-.15-.05-.12-.11Z"/>
      <path class="cls-9" d="m23.61,58.4l-1.7-1.74,1.74,1.7c.96.94,1.74,1.72,1.74,1.74,0,.09-.19-.09-1.77-1.7Z"/>
      <path class="cls-9" d="m21.77,59.72l-.24-.28.28.24c.16.13.28.26.28.28,0,.1-.1.03-.33-.24Z"/>
      <path class="cls-9" d="m23.92,57.45l-.37-.41.41.37c.23.2.41.39.41.41,0,.1-.1.01-.45-.37Z"/>
      <path class="cls-9" d="m22.09,55.49c-1.28-1.33-1.82-1.93-1.75-1.93.03,0,.65.63,1.36,1.39.71.76,1.28,1.39,1.25,1.39s-.41-.38-.86-.85Z"/>
      <path class="cls-9" d="m20.76,55.43l-.24-.28.28.24c.16.13.28.26.28.28,0,.1-.1.03-.33-.24Z"/>
      <path class="cls-9" d="m19.56,54.1l-.31-.35.35.31c.32.29.41.39.31.39-.02,0-.18-.16-.35-.35Z"/>
      <path class="cls-9" d="m76.21,50.34c0-.21.03-.28.06-.16.03.12.03.29,0,.38-.03.09-.06-.02-.06-.22h0Z"/>
      <path class="cls-9" d="m25.18,45.18c-.04-.09-.05-.53-.03-.98l.04-.81.06.98c.06.98.05,1.13-.08.81h0Z"/>
      <path class="cls-9" d="m39.59,45.21c-.05-.07-.06-.16-.02-.2s.09.03.14.13c.09.22.01.26-.11.06Z"/>
      <path class="cls-9" d="m39.57,44.34c0-.24.03-.34.06-.22s.03.32,0,.44-.06.02-.06-.22Z"/>
      <path class="cls-9" d="m9.68,43.12c.09-.04.23-.04.32,0s.02.06-.16.06-.24-.03-.16-.06Z"/>
      <path class="cls-9" d="m53.99,39.79c0-.8.02-1.13.05-.73.03.4.03,1.05,0,1.45s-.05.07-.05-.73Z"/>
      <path class="cls-9" d="m19.29,31.23c10.37-.02,27.35-.02,37.72,0s1.89.03-18.86.03-29.23-.01-18.86-.03Z"/>
      <path class="cls-9" d="m19.22,29.71c10.41-.02,27.44-.02,37.85,0,10.41.02,1.89.03-18.92.03s-29.33-.01-18.92-.03Z"/>
      <path class="cls-9" d="m76.22,28.86c0-.35.03-.47.05-.28s.03.48,0,.63c-.03.16-.05,0-.05-.35h0Z"/>
      <path class="cls-9" d="m6.49,24.04c-.28-.17-.44-.3-.35-.3.16,0,1.05.49,1.05.58,0,.1-.2.02-.7-.28Z"/>
      <path class="cls-9" d="m69.47,24.05c.3-.17.62-.31.7-.31.08,0-.1.14-.4.32-.3.17-.62.31-.7.31-.08,0,.1-.14.4-.32Z"/>
      <path class="cls-9" d="m3.66,23.03c0-.15.04-.18.08-.08.04.09.03.2,0,.24-.04.04-.07-.03-.07-.17h0Z"/>
      <path class="cls-9" d="m41.46,21.53c0-.21.03-.28.06-.16.03.12.03.29,0,.38-.03.09-.06-.02-.06-.22h0Z"/>
      <path class="cls-9" d="m42.35,11.77c.26-.03.69-.03.95,0,.26.03.05.05-.47.05s-.73-.02-.47-.05Z"/>
      <path class="cls-9" d="m36.38,5s.18-.21.41-.41l.41-.37-.37.41c-.35.38-.45.47-.45.37Z"/>
      <path class="cls-9" d="m39.61,4.49c.05-.12.12-.19.16-.16s0,.14-.09.23c-.12.12-.14.11-.07-.07Z"/>
      <path class="cls-11" d="m51.04,62.99s.1-.13.22-.22c.2-.16.2-.15.05.05-.17.21-.27.28-.27.17Z"/>
      <ellipse class="cls-11" cx="53.63" cy="60.58" rx=".44" ry=".05" transform="translate(-27.21 57.33) rotate(-46.18)"/>
      <path class="cls-11" d="m49.2,60.01c.13-.14.26-.25.29-.25s-.04.11-.17.25-.26.25-.29.25.04-.11.17-.25Z"/>
      <path class="cls-11" d="m54.26,59.88c.13-.14.26-.25.29-.25s-.04.11-.17.25-.26.25-.29.25.04-.11.17-.25Z"/>
      <path class="cls-11" d="m76.13,50.87c.05-.12.12-.19.16-.16s0,.14-.09.23c-.12.12-.14.11-.07-.07h0Z"/>
      <path class="cls-11" d="m.02,50.4c0-.31.02-.44.05-.28.03.16.03.41,0,.57s-.05.03-.05-.28Z"/>
      <path class="cls-11" d="m19.1,48.16c10.48-.02,27.62-.02,38.1,0s1.91.03-19.05.03-29.53-.01-19.05-.03Z"/>
      <path class="cls-11" d="m76.24,39.72c0-4.52.02-6.35.04-4.07s.02,5.98,0,8.21-.04.37-.04-4.15Z"/>
      <path class="cls-11" d="m7.03,45.25c.71-.02,1.88-.02,2.59,0s.13.04-1.3.04-2.01-.02-1.3-.04Z"/>
      <path class="cls-11" d="m20.49,45.25c.68-.02,1.76-.02,2.4,0,.64.02.08.04-1.24.04-1.32,0-1.84-.02-1.16-.04h0Z"/>
      <path class="cls-11" d="m26.43,45.25c.61-.02,1.6-.02,2.21,0s.11.04-1.11.04-1.71-.02-1.11-.04Z"/>
      <path class="cls-11" d="m33.63,45.25c.54-.02,1.42-.02,1.96,0s.1.04-.98.04-1.52-.02-.98-.04Z"/>
      <path class="cls-11" d="m40.77,45.25c.58-.02,1.49-.02,2.02,0,.54.02.06.04-1.05.04-1.11,0-1.55-.02-.97-.04h0Z"/>
      <path class="cls-11" d="m48.03,45.25c.61-.02,1.6-.02,2.21,0s.11.04-1.11.04-1.71-.02-1.11-.04Z"/>
      <path class="cls-11" d="m63.89,45.25c.64-.02,1.69-.02,2.34,0s.12.04-1.17.04-1.81-.02-1.17-.04Z"/>
      <path class="cls-11" d="m32.5,44.34c0-.52.02-.73.05-.47.03.26.03.69,0,.95-.03.26-.05.05-.05-.47Z"/>
      <path class="cls-11" d="m43.88,44.34c0-.52.02-.73.05-.47.03.26.03.69,0,.95-.03.26-.05.05-.05-.47Z"/>
      <path class="cls-11" d="m29.85,44.27c0-.49.02-.67.05-.41.03.26.03.66,0,.88-.03.22-.05,0-.05-.48h0Z"/>
      <path class="cls-11" d="m19.1,44.34c0-.38.02-.54.05-.35s.03.5,0,.7-.05.03-.05-.35Z"/>
      <path class="cls-11" d="m10.25,43.11c.12-.03.29-.03.38,0,.09.03-.02.06-.22.06s-.28-.03-.16-.06h0Z"/>
      <path class="cls-11" d="m6.73,39.79c0-1.63.02-2.3.04-1.48s.02,2.15,0,2.97c-.02.82-.04.15-.04-1.48Z"/>
      <path class="cls-11" d="m52.96,41.34c.12-.03.32-.03.44,0s.02.06-.22.06-.34-.03-.22-.06Z"/>
      <path class="cls-11" d="m59.42,35.93c0-.63.02-.9.05-.6s.03.81,0,1.14c-.03.33-.05.09-.05-.53Z"/>
      <path class="cls-11" d="m23.83,36.03c.3-.03.78-.03,1.07,0s.05.05-.54.05-.83-.02-.54-.05Z"/>
      <path class="cls-11" d="m.03,29.63c-.04-.1-.05-.48-.02-.85l.05-.68.02.78c.01.49.08.8.18.84.12.05.12.07,0,.07-.09,0-.19-.07-.23-.16Z"/>
      <path class="cls-11" d="m39.19,22.85c0-.31.02-.44.05-.28s.03.41,0,.57c-.03.16-.05.03-.05-.28Z"/>
      <path class="cls-11" d="m36.94,17.23c0-2.02.02-2.82.04-1.79s.02,2.68,0,3.66c-.02.99-.04.14-.04-1.87Z"/>
      <path class="cls-11" d="m27.33,17.74c0-1.46.02-2.04.04-1.29.02.75.02,1.95,0,2.65-.02.71-.04.09-.04-1.37h0Z"/>
      <path class="cls-11" d="m38.87,13.29c.16-.03.38-.03.51,0,.12.03,0,.06-.29.05-.28,0-.38-.03-.22-.06h0Z"/>
      <path class="cls-11" d="m33.76,11.01c2.42-.02,6.34-.02,8.72,0,2.38.02.4.03-4.4.03s-6.74-.02-4.32-.03Z"/>
      <path class="cls-5" d="m20.69,55.74c-.16-.2-.15-.2.05-.05.21.17.28.27.17.27-.03,0-.13-.1-.22-.22Z"/>
      <path class="cls-5" d="m.04,39.72c0-4.38.02-6.15.04-3.94.02,2.21.02,5.79,0,7.96s-.04.36-.04-4.02Z"/>
      <path class="cls-5" d="m10.95,45.26c.09-.04.2-.03.24,0,.04.04-.03.07-.17.07-.15,0-.18-.04-.08-.08h0Z"/>
      <path class="cls-5" d="m62.58,44.27c0-.49.02-.67.05-.41s.03.66,0,.88c-.03.22-.05,0-.05-.48h0Z"/>
      <path class="cls-5" d="m47.76,42.75c0-.15.04-.18.08-.08.04.09.03.2,0,.24s-.07-.03-.07-.17h0Z"/>
      <path class="cls-5" d="m47.8,39.72c0-1.53.02-2.14.04-1.35s.02,2.04,0,2.78c-.02.74-.04.1-.04-1.43h0Z"/>
      <path class="cls-5" d="m13.02,41.05c0-.17.03-.24.06-.16.04.09.04.23,0,.32s-.06.02-.06-.16Z"/>
      <path class="cls-5" d="m37.67,40.33c.26-.03.69-.03.95,0,.26.03.05.05-.47.05s-.73-.02-.47-.05Z"/>
      <path class="cls-5" d="m9.51,37.83c0-.7.02-.96.05-.6.03.37.03.94,0,1.26-.03.33-.05.03-.05-.67h0Z"/>
      <path class="cls-5" d="m13.01,38.32c0-.15.04-.18.08-.08.04.09.03.2,0,.24-.04.04-.07-.03-.07-.17h0Z"/>
      <path class="cls-5" d="m26.43,37.45c0-.28.03-.38.06-.22s.03.38,0,.51-.06,0-.05-.29h0Z"/>
      <path class="cls-5" d="m59.39,37.19c0-.15.04-.18.08-.08.04.09.03.2,0,.24s-.07-.03-.07-.17h0Z"/>
      <path class="cls-5" d="m70.55,35.87c0-.87.02-1.22.04-.79s.02,1.15,0,1.58-.04.08-.04-.79Z"/>
      <path class="cls-5" d="m6.69,36.68c0-.15.04-.18.08-.08.04.09.03.2,0,.24-.04.04-.07-.03-.07-.17h0Z"/>
      <path class="cls-5" d="m47.76,36.55c0-.15.04-.18.08-.08.04.09.03.2,0,.24s-.07-.03-.07-.17h0Z"/>
      <path class="cls-5" d="m51.38,36.28c.36-.03.96-.03,1.33,0s.07.05-.66.05-1.03-.02-.66-.05Z"/>
      <path class="cls-5" d="m62.32,36.28c.19-.03.48-.03.63,0,.16.03,0,.05-.35.05-.35,0-.47-.03-.28-.05h0Z"/>
      <path class="cls-5" d="m66.8,36.28c.23-.03.6-.03.82,0s.04.05-.41.05-.64-.02-.41-.05Z"/>
      <path class="cls-5" d="m59.4,34.61c0-.17.03-.24.06-.16s.04.23,0,.32-.06.02-.06-.16Z"/>
      <path class="cls-5" d="m29.23,15.71c0-2.57.02-3.61.04-2.3.02,1.31.02,3.41,0,4.68s-.04.19-.04-2.38Z"/>
      <path class="cls-5" d="m24.53,18.11c0-.28.03-.38.06-.22s.03.38,0,.51-.06,0-.05-.29h0Z"/>
      <path class="cls-5" d="m39.95,17.84c.12-.03.32-.03.44,0s.02.06-.22.06-.34-.03-.22-.06Z"/>
      <path class="cls-5" d="m30.6,11.77c.19-.03.48-.03.63,0,.16.03,0,.05-.35.05-.35,0-.47-.03-.28-.05h0Z"/>
      <path class="cls-5" d="m34.2,11.77c.3-.03.75-.03,1.01,0,.26.03.02.05-.54.05-.56,0-.77-.02-.47-.05h0Z"/>
      <path class="cls-5" d="m37.61,11.76c.64-.02,1.69-.02,2.34,0s.12.04-1.17.04-1.81-.02-1.17-.04Z"/>
      <path class="cls-5" d="m29.4,5.33c.09-.04.23-.04.32,0s.02.06-.16.06-.24-.03-.16-.06Z"/>
      <path class="cls-5" d="m30.53,5.33c.09-.04.23-.04.32,0s.02.06-.16.06-.24-.03-.16-.06Z"/>
      <path class="cls-5" d="m32.93,5.33c.09-.04.23-.04.32,0s.02.06-.16.06-.24-.03-.16-.06Z"/>
      <path class="cls-5" d="m34.07,5.33c.09-.04.23-.04.32,0s.02.06-.16.06-.24-.03-.16-.06Z"/>
      <path class="cls-5" d="m41.91,5.33c.09-.04.23-.04.32,0s.02.06-.16.06-.24-.03-.16-.06Z"/>
      <path class="cls-5" d="m46.59,5.33c.09-.04.2-.03.24,0,.04.04-.03.07-.17.07-.15,0-.18-.04-.08-.08Z"/>
      <path class="cls-2" d="m26.38,61.43c-.16-.2-.15-.2.05-.05.12.1.22.19.22.22,0,.1-.1.04-.27-.17Z"/>
      <path class="cls-2" d="m48.13,60.97s.1-.13.22-.22c.2-.16.2-.15.05.05-.17.21-.27.28-.27.17Z"/>
      <path class="cls-2" d="m26.88,59.91c-.16-.2-.15-.2.05-.05.21.17.28.27.17.27-.03,0-.13-.1-.22-.22Z"/>
      <path class="cls-2" d="m36.67,44.34c0-.45.02-.64.05-.41s.03.6,0,.82-.05.04-.05-.41Z"/>
      <path class="cls-2" d="m67.36,43.7c0-.17.03-.24.06-.16s.04.23,0,.32-.06.02-.06-.16Z"/>
      <path class="cls-2" d="m15.95,39.66c0-.66.02-.93.05-.6s.03.87,0,1.2-.05.06-.05-.6Z"/>
      <path class="cls-2" d="m9.5,39.6c0-.35.03-.47.05-.28.03.19.03.48,0,.63-.03.16-.05,0-.05-.35h0Z"/>
      <path class="cls-2" d="m46.91,35.17c0-.42.02-.57.05-.35s.03.57,0,.76c-.03.19-.05,0-.05-.41Z"/>
      <path class="cls-2" d="m7.29,34.13c.72-.02,1.85-.02,2.53,0,.67.02.09.04-1.3.04s-1.94-.02-1.23-.04h0Z"/>
      <path class="cls-2" d="m21.18,34.13c.92-.02,2.43-.02,3.35,0s.17.04-1.67.04-2.6-.02-1.67-.04Z"/>
      <path class="cls-2" d="m37.55,34.13c.4-.03,1.03-.02,1.39,0,.36.03.03.05-.73.05-.76,0-1.06-.02-.66-.05h0Z"/>
      <path class="cls-2" d="m49.24,34.13c1.2-.02,3.16-.02,4.36,0s.22.04-2.18.04-3.38-.02-2.18-.04Z"/>
      <path class="cls-2" d="m62.32,34.13c1.52-.02,3.96-.02,5.43,0,1.47.02.23.04-2.76.04-2.99,0-4.19-.02-2.68-.04Z"/>
      <path class="cls-2" d="m32.13,18.49c0-.76.02-1.06.05-.66s.02,1.03,0,1.39c-.03.36-.05.03-.05-.73h0Z"/>
      <path class="cls-2" d="m40.59,16.6c0-.56.02-.77.05-.47s.03.75,0,1.01c-.03.26-.05.02-.05-.54h0Z"/>
      <path class="cls-2" d="m41.59,12.43c0-.35.03-.47.05-.28s.03.48,0,.63c-.03.16-.05,0-.05-.35h0Z"/>
      <path class="cls-2" d="m39.41,8.4s.1-.13.22-.22c.2-.16.2-.15.05.05-.17.21-.27.28-.27.17Z"/>
      <path class="cls-2" d="m31.42,3.56c.09-.04.23-.04.32,0s.02.06-.16.06-.24-.03-.16-.06Z"/>
      <path class="cls-2" d="m44.5,3.56c.12-.03.29-.03.38,0,.09.03-.02.06-.22.06-.21,0-.28-.03-.16-.06Z"/>
      <path class="cls-4" d="m52.05,59.33s.1-.13.22-.22c.2-.16.2-.15.05.05-.17.21-.27.28-.27.17Z"/>
      <ellipse class="cls-4" cx="53" cy="58.43" rx=".44" ry=".05" transform="translate(-25.85 56.21) rotate(-46.18)"/>
      <path class="cls-4" d="m22.59,57.76c-.16-.2-.15-.2.05-.05.21.17.28.27.17.27-.03,0-.13-.1-.22-.22Z"/>
      <path class="cls-4" d="m24.03,44.34c0-.45.02-.64.05-.41s.03.6,0,.82-.05.04-.05-.41Z"/>
      <path class="cls-4" d="m67.37,44.34c0-.24.03-.34.06-.22s.03.32,0,.44-.06.02-.06-.22Z"/>
      <path class="cls-4" d="m66.38,39.72c0-1.74.02-2.47.04-1.62.02.85.02,2.27,0,3.16-.02.89-.04.2-.04-1.54Z"/>
      <path class="cls-4" d="m9.51,41.56c0-.66.02-.93.05-.6.03.33.03.87,0,1.2s-.05.06-.05-.6Z"/>
      <path class="cls-4" d="m15.92,41.05c0-.17.03-.24.06-.16s.04.23,0,.32-.06.02-.06-.16Z"/>
      <path class="cls-4" d="m51,40.84c.16-.03.41-.03.57,0,.16.03.03.05-.28.05s-.44-.02-.28-.05Z"/>
      <path class="cls-4" d="m15.91,38.32c0-.15.04-.18.08-.08.04.09.03.2,0,.24-.04.04-.07-.03-.07-.17h0Z"/>
      <path class="cls-4" d="m52.78,38.31c.09-.04.2-.03.24,0,.04.04-.03.07-.17.07-.15,0-.18-.04-.08-.08h0Z"/>
      <path class="cls-4" d="m53.34,38.31c.12-.03.29-.03.38,0,.09.03-.02.06-.22.06s-.28-.03-.16-.06h0Z"/>
      <path class="cls-4" d="m9.87,36.28c.19-.03.48-.03.63,0,.16.03,0,.05-.35.05-.35,0-.47-.03-.28-.05h0Z"/>
      <path class="cls-4" d="m19.2,35.54c0-.15.04-.18.08-.08.04.09.03.2,0,.24-.04.04-.07-.03-.07-.17h0Z"/>
      <path class="cls-4" d="m19.22,34.61c0-.24.03-.34.06-.22s.03.32,0,.44-.06.02-.06-.22Z"/>
      <path class="cls-4" d="m11.07,34.14c.09-.04.23-.04.32,0s.02.06-.16.06-.24-.03-.16-.06Z"/>
      <path class="cls-4" d="m26.24,34.14c.09-.04.2-.03.24,0,.04.04-.03.07-.17.07-.15,0-.18-.04-.08-.08h0Z"/>
      <path class="cls-4" d="m.77,28.07c.12-.03.32-.03.44,0s.02.06-.22.06-.34-.03-.22-.06Z"/>
      <path class="cls-4" d="m2.38,28.12c-.52,0-.73-.02-.47-.05"/>
      <path class="cls-4" d="m3.49,28.08c.09-.04.23-.04.32,0s.02.06-.16.06-.24-.03-.16-.06Z"/>
      <path class="cls-4" d="m6.9,28.08c.09-.04.23-.04.32,0s.02.06-.16.06-.24-.03-.16-.06Z"/>
      <path class="cls-4" d="m69.01,28.07c.12-.03.29-.03.38,0,.09.03-.02.06-.22.06-.21,0-.28-.03-.16-.06h0Z"/>
      <path class="cls-4" d="m72.49,28.08c.09-.04.23-.04.32,0s.02.06-.16.06-.24-.03-.16-.06Z"/>
      <path class="cls-4" d="m73.19,28.07c.12-.03.29-.03.38,0,.09.03-.02.06-.22.06-.21,0-.28-.03-.16-.06h0Z"/>
      <path class="cls-4" d="m74.63,28.07c.22-.03.62-.03.88,0,.26.03.08.05-.41.05-.49,0-.7-.02-.48-.05h0Z"/>
      <path class="cls-4" d="m32.73,20.96c0-.17.03-.24.06-.16s.04.23,0,.32-.06.02-.06-.16Z"/>
      <path class="cls-4" d="m48.9,20.25c0-.15.04-.18.08-.08.04.09.03.2,0,.24-.04.04-.07-.03-.07-.17h0Z"/>
      <path class="cls-4" d="m47.05,15.59c0-2.43.02-3.41.04-2.17s.02,3.23,0,4.42-.04.18-.04-2.25h0Z"/>
      <path class="cls-4" d="m48.94,17.74c0-1.25.02-1.75.04-1.1s.02,1.67,0,2.27c-.02.6-.04.08-.04-1.18h0Z"/>
      <path class="cls-4" d="m33.9,14.96c0-.83.02-1.16.05-.72.02.44.02,1.12,0,1.52-.02.4-.05.04-.04-.79h0Z"/>
      <path class="cls-7" d="m50.15,59.07s.1-.13.22-.22c.2-.16.2-.15.05.05-.17.21-.27.28-.27.17Z"/>
      <path class="cls-7" d="m53.44,57.94s.1-.13.22-.22c.2-.16.2-.15.05.05-.17.21-.27.28-.27.17Z"/>
      <path class="cls-7" d="m19.93,54.98c-.16-.2-.15-.2.05-.05.21.17.28.27.17.27-.03,0-.13-.1-.22-.22Z"/>
      <path class="cls-7" d="m23.46,40.83c.16-.03.38-.03.51,0s0,.06-.29.05c-.28,0-.38-.03-.22-.06h0Z"/>
      <path class="cls-7" d="m13.03,40.17c0-.24.03-.34.06-.22.03.12.03.32,0,.44s-.06.02-.06-.22Z"/>
      <path class="cls-7" d="m13.03,39.16c0-.24.03-.34.06-.22.03.12.03.32,0,.44s-.06.02-.06-.22Z"/>
      <path class="cls-7" d="m29.21,37.45c0-.28.03-.38.06-.22s.03.38,0,.51-.06,0-.05-.29h0Z"/>
      <path class="cls-7" d="m32.72,21.39c0-.15.04-.18.08-.08.04.09.03.2,0,.24-.04.04-.07-.03-.07-.17h0Z"/>
      <path class="cls-7" d="m46.28,19.44c0-.59.02-.83.05-.54s.03.78,0,1.07-.05.05-.05-.54Z"/>
      <path class="cls-7" d="m44.06,3.56c.09-.04.2-.03.24,0,.04.04-.03.07-.17.07-.15,0-.18-.04-.08-.08Z"/>
      <path class="cls-6" d="m51.29,60.09s.1-.13.22-.22c.2-.16.2-.15.05.05-.17.21-.27.28-.27.17Z"/>
      <path class="cls-6" d="m25.87,58.9c-.16-.2-.15-.2.05-.05.21.17.28.27.17.27-.03,0-.13-.1-.22-.22Z"/>
      <path class="cls-6" d="m50.97,58.24c.13-.14.26-.25.29-.25s-.04.11-.17.25-.26.25-.29.25.04-.11.17-.25Z"/>
      <path class="cls-6" d="m51.67,57.56s.1-.13.22-.22c.2-.16.2-.15.05.05-.17.21-.27.28-.27.17Z"/>
      <path class="cls-6" d="m21.95,57.13c-.16-.2-.15-.2.05-.05.12.1.22.19.22.22,0,.1-.1.04-.27-.17Z"/>
      <path class="cls-6" d="m63.6,39.72c0-1.81.02-2.53.04-1.6.02.93.02,2.4,0,3.29-.02.88-.04.13-.04-1.68h0Z"/>
      <path class="cls-6" d="m59.91,37.67c.26-.03.69-.03.95,0,.26.03.05.05-.47.05s-.73-.02-.47-.05Z"/>
      <path class="cls-6" d="m69.07,37.67c.22-.03.62-.03.88,0,.26.03.08.05-.41.05-.49,0-.7-.02-.48-.05h0Z"/>
      <path class="cls-6" d="m36.87,25.66c-.16-.2-.15-.2.05-.05.21.17.28.27.17.27-.03,0-.13-.1-.22-.22Z"/>
      <path class="cls-6" d="m72.4,23.66c0-.15.04-.18.08-.08.04.09.03.2,0,.24-.04.04-.07-.03-.07-.17h0Z"/>
      <path class="cls-6" d="m36.4,22.09c0-.17.03-.24.06-.16s.04.23,0,.32-.06.02-.06-.16Z"/>
      <path class="cls-6" d="m35.42,17.86c0-2.43.02-3.41.04-2.17s.02,3.23,0,4.42c-.02,1.19-.04.18-.04-2.25Z"/>
      <path class="cls-6" d="m29.95,20.2c0-.17.03-.24.06-.16s.04.23,0,.32-.06.02-.06-.16Z"/>
      <path class="cls-6" d="m41.1,13.25c0-.52.02-.73.05-.47.03.26.03.69,0,.95-.03.26-.05.05-.05-.47Z"/>
      <path class="cls-6" d="m36.41,12.49c0-.24.03-.34.06-.22s.03.32,0,.44-.06.02-.06-.22Z"/>
      <path class="cls-6" d="m29.95,12.49c0-.17.03-.24.06-.16s.04.23,0,.32-.06.02-.06-.16Z"/>
      <path class="cls-6" d="m41.06,12.04c0-.15.04-.18.08-.08.04.09.03.2,0,.24-.04.04-.07-.03-.07-.17h0Z"/>
      <path class="cls-6" d="m29.5,9.73c-.04-.06.02-.11.11-.11s.15.05.11.11-.09.11-.11.11-.08-.05-.11-.11Z"/>
      <path class="cls-6" d="m29.53,8.49c.09-.04.2-.03.24,0s-.03.07-.17.07c-.15,0-.18-.04-.08-.08Z"/>
      <path class="cls-6" d="m33.07,8.49c.09-.04.2-.03.24,0s-.03.07-.17.07c-.15,0-.18-.04-.08-.08Z"/>
      <path class="cls-6" d="m42.04,8.49c.09-.04.2-.03.24,0s-.03.07-.17.07c-.15,0-.18-.04-.08-.08Z"/>
      <path class="cls-6" d="m35.38,7.49c0-.15.04-.18.08-.08.04.09.03.2,0,.24-.04.04-.07-.03-.07-.17h0Z"/>
      <path d="m36.95,71.42c-2.54-1.42-4.32-2.57-6.51-4.19-4.57-3.39-9.56-8.18-13-12.46-.67-.84-1.31-1.65-1.42-1.81-.22-.32-.16-.31-10.03-1.41-1.95-.22-4.06-.46-4.71-.53l-1.17-.14v-1.11h76.08v.57c0,.31-.02.57-.05.57-.09,0-5.8.63-7.4.82-.87.1-2.92.33-4.56.51-3.98.43-3.71.37-4.08.93-.81,1.23-3.8,4.62-6.09,6.92-4.14,4.15-7.79,7.12-12.01,9.78-1.38.87-3.75,2.16-3.93,2.14-.06,0-.57-.27-1.13-.58h0Z"/>
      <path class="cls-3" d="m39.13,69.38c3.51-1.76,7-4.41,12.07-9.17,2.49-2.34,7.09-7.31,6.9-7.45-.03-.02-.49,0-1.02.04l-.98.07-.6.7c-1.31,1.52-3.43,3.69-5.74,5.88-3.93,3.73-7.68,6.62-10.71,8.25l-.93.5-1.16-.64c-1.16-.64-2.95-1.82-4.24-2.8-.37-.28-.83-.63-1.01-.76-2.3-1.72-7.93-7.05-10.37-9.8-.58-.66-1.12-1.24-1.2-1.28-.17-.1-1.97-.2-1.97-.11,0,.23,2.62,3.12,4.88,5.38,5.64,5.67,10.15,9.23,14.33,11.32.38.19.71.35.73.35.02,0,.48-.21,1.01-.48h0Z"/>
      <polygon points=".11 39.72 .11 31.32 38.15 31.32 76.18 31.32 76.18 39.72 76.18 48.13 38.15 48.13 .11 48.13 .11 39.72"/>
      <path class="cls-3" d="m12.61,45.16c1.67-.35,2.85-1.32,3.18-2.62.11-.44.17-1.43.17-2.88,0-2.71-.13-3.22-1.08-4.1-1.3-1.22-2.34-1.45-6.34-1.45h-2.75s0,1.01,0,1.01v1.01l.41.11.41.11v6.8l-.53.1-.53.1-.04.95c-.02.52-.02.98.01,1.01.03.03,1.43.05,3.12.05,2.23,0,3.31-.05,3.96-.19h0Z"/>
      <path d="m9.59,39.72v-3.35h.95c1.06,0,1.61.18,2.08.69.31.33.32.39.36,2.58.04,2.16.03,2.25-.26,2.67-.36.54-.95.74-2.22.75h-.92s0-3.34,0-3.34Z"/>
      <path class="cls-3" d="m24.06,44.34v-.95l-.54-.17-.54-.17.04-1.08.04-1.08h.66s.66-.02.66-.02l.71,1.12c.55.87.67,1.14.54,1.23-.09.06-.24.11-.33.11-.11,0-.16.29-.16,1.01v1.01h4.8v-1.99l-.48-.08c-.44-.07-.55-.18-1.33-1.33-.47-.69-.85-1.28-.85-1.31s.17-.13.38-.22c.51-.21,1.19-.99,1.41-1.6.09-.27.17-.92.16-1.44,0-1.14-.35-1.95-1.05-2.54-.83-.69-1.34-.76-5.33-.72l-3.59.03-.04.97-.04.97.48.11.48.11.03,3.37.03,3.37-.57.14-.57.14v2l2.5-.03,2.5-.03v-.95Z"/>
      <path d="m23.06,38.8c-.05-.08-.08-.71-.06-1.41l.03-1.26h1.43c1.8,0,1.94.09,1.94,1.31s-.13,1.34-1.85,1.43c-.98.05-1.43.03-1.49-.07Z"/>
      <path class="cls-3" d="m36.73,44.3c.02-.54-.01-.98-.07-.98-.31,0-.55-.34-.47-.67l.09-.34h3.64l.13.34c.11.28.09.37-.09.51-.12.09-.27.16-.32.16s-.1.45-.1,1.01v1.01h4.42v-2.01l-.45-.08c-.25-.05-.5-.18-.56-.3-.12-.23-.37-.91-1.9-5.32-.54-1.56-1.05-3-1.13-3.19l-.14-.35-1.6.04-1.6.04-.23.63c-.28.77-1.74,4.85-2.33,6.51-.24.66-.46,1.33-.51,1.48-.05.19-.24.33-.58.43l-.5.15v1.99l2.12-.03,2.12-.03.04-.98Z"/>
      <path d="m37.06,39.76c.33-1.08,1.03-3,1.09-3,.08,0,1.13,3.15,1.13,3.38,0,.11-.34.15-1.19.15h-1.19l.16-.54Z"/>
      <path class="cls-3" d="m51.54,44.36v-.99l-.51-.15-.51-.15v-2.14h.79c.65,0,.82.04.95.25.13.21.29.25.98.25h.82v-3.16h-.81c-.72,0-.83.03-1.01.32-.18.28-.3.32-.96.32h-.76v-2.54l1.41.04,1.41.04.18.54.18.54,1.13-.04,1.13-.04v-1.64s.02-1.64.02-1.64h-9.07l-.04.96-.04.96.42.12.42.12v6.81l-.47.11-.47.11v2h4.8v-.99Z"/>
      <path class="cls-3" d="m67.4,44.34v-.95l-.44-.14-.44-.14-.03-3.36-.03-3.36h1.75l.09.63c.1.74.2.79,1.46.73l.82-.04.04-1.8.04-1.8h-11.26l.04,1.8.04,1.8h2.15l.11-.66.11-.66h1.75l-.03,3.38-.03,3.38-.47.11-.47.11v2l2.43-.03,2.43-.03v-.95Z"/>
      <path d="m.11,28.92v-.76h2.08c1.14,0,2.11-.05,2.15-.11.04-.06-.01-.57-.11-1.14-.1-.56-.25-1.74-.33-2.61-.13-1.37-.13-1.61.03-1.77.23-.23,4.03-1.99,5.8-2.68,5.41-2.12,11.16-3.76,15.61-4.46.83-.13,1.61-.24,1.73-.24.19,0,.22.28.25,3,.04,2.97.04,3.01.38,3.64.42.8,1.26,1.58,2.21,2.06.96.48,1.39.61,2.76.85,2.67.46,4.05,1.25,5.11,2.91l.37.58.41-.61c1.13-1.67,2.39-2.42,4.8-2.82,2.22-.37,4.03-1.25,4.88-2.38.69-.92.8-1.51.8-4.55v-2.71l.66.08c4.89.62,11.8,2.53,17.28,4.78,1.65.68,3.89,1.71,4.78,2.2l.8.45-.08.96c-.05.53-.19,1.76-.33,2.73s-.24,1.78-.24,1.8.97.04,2.15.04h2.15v1.52H.11v-.76Z"/>
      <path class="cls-3" d="m7.85,28.09s0-.39-.09-.79c-.09-.4-.2-1.03-.25-1.41-.05-.38-.11-.84-.14-1.02-.06-.3.01-.36.8-.71,2.62-1.18,5.02-2.09,8.11-3.07,1.92-.61,5.49-1.55,7.38-1.95l.98-.21v-.75c0-.41-.01-.75-.03-.75-.02,0-.61.11-1.31.25-5.3,1.03-11.91,3.23-16.48,5.48l-1.07.53.04.7c.04.84.4,3.11.55,3.51.09.25.2.28.78.28.37,0,.71-.03.75-.07h0Z"/>
      <path class="cls-3" d="m70.14,27.02c.34-1.68.47-3.2.31-3.37-.08-.08-.85-.47-1.72-.87-4.07-1.86-8.41-3.37-12.66-4.42-1.37-.34-4.15-.94-4.37-.94-.02,0-.03.34-.03.75v.75l.98.21c5.09,1.08,11.99,3.32,15.47,5.04l.8.39-.04.58c-.02.32-.14,1.1-.26,1.74s-.19,1.19-.15,1.23.38.05.77.03l.7-.04.21-1.07Z"/>
      <path class="cls-10" d="m37.54,26.27c-.55-.64-1.67-1.35-2.69-1.71-.31-.11-1.27-.34-2.14-.51-2.42-.48-3.65-1.16-4.4-2.44l-.34-.58-.04-9.19c-.02-6.44,0-9.19.1-9.19.07,0,.42.14.76.32,1.31.66,2.78.84,4.23.5,2-.46,3.65-1.57,4.94-3.31.11-.14.2-.18.27-.1.06.07.33.4.6.74.54.68,1.69,1.58,2.63,2.06.77.39,2.37.8,3.14.8.86,0,2.21-.34,2.98-.76.47-.25.69-.32.73-.21.03.09.04,4.22.02,9.19-.03,8.71-.04,9.05-.28,9.54-.63,1.27-2.07,2.17-4.07,2.53-2.7.49-4.27,1.19-5.26,2.34-.29.34-.56.62-.6.62s-.31-.28-.6-.63h0Z"/>
      <path class="cls-1" d="m38.82,24.51c.6-.45,1.3-.82,2.21-1.16.19-.07,1.01-.27,1.81-.43,2.47-.5,3.57-1.05,4.03-2.01.25-.51.26-.72.23-5.2l-.03-4.66-8.94-.03-8.94-.03v4.74c0,4.43.02,4.78.24,5.22.47.91,1.59,1.46,4.05,1.98,1.75.37,3.07.89,3.97,1.58.35.27.66.49.68.49.02,0,.33-.21.7-.48h0Z"/>
      <path class="cls-1" d="m29.84,9.62c.23-.21.26-.21.62,0l.37.21-.08-.43c-.07-.35-.03-.46.18-.6.37-.23.33-.36-.1-.36-.3,0-.4-.08-.52-.41l-.15-.41-.13.41c-.11.36-.19.41-.55.41-.23,0-.42.06-.42.13s.05.13.12.13.2.09.31.19c.15.15.16.27.07.51-.2.51-.11.58.29.21Z"/>
      <path class="cls-1" d="m33.99,9.62c.41.23.41.23.24-.21-.1-.27-.07-.36.19-.56.41-.33.39-.4-.12-.4-.34,0-.44-.06-.47-.26-.06-.36-.28-.37-.33-.03-.03.23-.12.28-.47.28-.52,0-.54.07-.12.4.26.21.29.3.19.56-.17.45-.16.46.21.22.31-.2.36-.2.7,0h0Z"/>
      <path class="cls-1" d="m37.31,9.59c2.25-.64,3.5-2.2,3.49-4.34,0-.92-.2-1.75-.44-1.81-.07-.02-.33.13-.57.34-.35.29-.4.4-.27.49.1.06.14.17.09.24-.05.08-.27.03-.58-.14-.53-.29-.68-.54-.25-.43.14.04.38-.04.56-.17.17-.13.36-.24.44-.24s.17-.07.22-.15c.15-.24-1.18,0-1.93.33-1.89.86-2.89,2.76-2.56,4.83.14.87.36,1.25.37.64,0-.16.17-.77.37-1.36s.31-1.09.25-1.12c-.19-.07-.13-.4.07-.4.3,0,1.08.41,1.08.57,0,.24-.16.32-.34.17-.14-.11-.24.02-.54.66-.2.44-.45,1.1-.56,1.47-.23.79-.23.8,1.1.42Z"/>
      <path class="cls-10" d="m37.29,6.14c-.58-.29-.69-.47-.28-.47.38,0,1,.36,1,.57,0,.24-.07.23-.73-.1Z"/>
      <path class="cls-10" d="m37.83,5.5c-.28-.15-.53-.29-.56-.31-.03-.02,0-.09.06-.15.14-.14,1.19.29,1.19.49,0,.25-.2.24-.7-.03Z"/>
      <path class="cls-10" d="m38.27,4.84c-.48-.24-.53-.3-.33-.38.26-.1,1.13.3,1.11.51-.02.2-.19.17-.79-.13Z"/>
      <path class="cls-1" d="m42.94,9.64c.33.3.43.21.26-.25-.11-.3-.1-.39.08-.52.12-.09.27-.16.32-.16s.1-.06.1-.14c0-.09-.15-.12-.39-.08-.34.05-.41.01-.52-.3-.15-.43-.32-.47-.38-.07-.03.22-.14.29-.45.32-.48.05-.52.15-.15.38.22.14.25.24.18.6l-.08.43.37-.21c.36-.2.39-.2.64.02h0Z"/>
      <path class="cls-1" d="m46.46,9.62c.35.31.42.27.26-.16-.14-.41.02-.76.35-.76.1,0,.17-.06.17-.14s-.18-.12-.41-.09c-.36.04-.42,0-.52-.37-.15-.51-.28-.52-.38-.03-.06.32-.13.38-.46.38-.45,0-.49.13-.12.36.22.14.25.24.18.6l-.08.43.37-.21c.35-.2.39-.2.62,0h0Z"/>
      <path class="cls-1" d="m30.45,6.46c.38.22.45.12.24-.28-.09-.17-.07-.29.07-.43.11-.11.25-.2.32-.2s.12-.06.12-.13-.17-.13-.37-.13c-.3,0-.39-.08-.51-.41l-.15-.41-.18.41c-.15.34-.24.41-.59.42h-.42s.35.29.35.29c.31.26.34.33.22.64-.18.48-.17.49.2.25.31-.2.36-.2.7,0h0Z"/>
      <path class="cls-1" d="m33.99,6.46c.41.23.41.23.24-.21-.09-.24-.07-.37.07-.51.11-.11.25-.19.31-.19s.12-.06.12-.13-.17-.13-.39-.13c-.32,0-.41-.07-.53-.41l-.14-.41-.17.41c-.14.34-.24.41-.58.41h-.41s.35.29.35.29c.31.26.34.33.22.64-.18.48-.17.49.2.25.31-.2.36-.2.7,0Z"/>
      <path class="cls-1" d="m42.96,6.46q.41.24.23-.24c-.12-.31-.09-.38.22-.64l.35-.29h-.42c-.35,0-.45-.08-.59-.42q-.18-.42-.38.22c-.04.11-.21.19-.44.19-.45,0-.49.13-.12.36.22.14.25.24.18.61l-.08.44.34-.22c.32-.21.36-.21.7-.01Z"/>
      <path class="cls-1" d="m45.88,6.43c.3-.15.38-.14.66.03l.31.21-.14-.39c-.12-.36-.1-.42.23-.69l.36-.3h-.46c-.41,0-.47-.05-.55-.39-.05-.21-.13-.38-.18-.38s-.13.17-.18.38c-.06.32-.13.38-.46.38-.46,0-.48.07-.1.38.26.21.27.27.13.63-.08.22-.11.38-.06.35.05-.02.24-.12.43-.22Z"/>
    </g>
  </g>
  <g>
    <path class="cls-8" d="m29.57,19.57c.32,0,.37-.1.36-.52-.05-1.92-.01-3.09-.01-5.16,0-.46-.06-.58-.35-.64v-1.03h2.13v1.03c-.3.06-.34.19-.34.64v2.01c.51-.79.76-1.18,1.27-1.97.26-.47.36-.65.36-1.11v-.6h1.85v1.03c-.27.06-.39.14-.65.54-.62.95-.93,1.45-1.54,2.37.67,1.16,1,1.8,1.66,3.28.26.56.51.92.75,1.04,0,.59,0,.91,0,1.32-.77-.25-1.3-.3-2.05-.43,0-.22.01-.35.02-.62.02-.47-.05-.81-.25-1.32-.53-1.24-.85-1.62-1.43-2.61,0,.93-.01,1.39.01,2.36.01.49.05.63.34.75,0,.48.01.73.02,1.14-.8-.21-1.17-.33-2.16-.58v-.91Z"/>
    <path class="cls-8" d="m35.71,20.62c.29-.03.35-.25.35-.88.03-2.9,0-3.79,0-5.85,0-.46-.06-.58-.35-.64v-1.03h2.78c1.62,0,2.4.54,2.4,3v3.08c0,2.32-.74,4.17-2.39,4.32-1.13.1-1.73-.18-2.81-.6,0-.43,0-.77,0-1.4Zm2.51.19c.99,0,1.24-.97,1.24-2.43v-3.28c0-1.3-.34-1.69-1.21-1.69h-.74c0,2.44,0,3.25,0,7.34.29.04.43.06.71.05Z"/>
    <path class="cls-8" d="m41.98,20.37c.3-.14.36-.35.37-.91.04-2.57,0-3.51,0-5.58,0-.46-.06-.58-.35-.64v-1.03h2.16v1.03c-.32.06-.37.19-.37.64,0,2.26,0,3.05,0,5.97.43-.07.66-.1,1.09-.18.54-.1.64-.2.64-.71,0-.58,0-.9,0-1.52.51-.01.77-.02,1.28-.02v2.93c-1.87.53-2.91.95-4.86,1.29.01-.4.02-.71.03-1.27Z"/>
  </g>
</svg>