<?xml version="1.0" encoding="UTF-8"?>
<svg id="Icon-Add-Drop" xmlns="http://www.w3.org/2000/svg" viewBox="0 0 80.04 113.23">
  <defs>
    <style>
      svg {
        color: green;
      }
    </style>
  </defs>
  <g id="Player">
      <path id="Waist" fill="currentColor" d="m36.44,109.73c3.06.32,5.1.38,8.14-.12,5.98-.98,11.4-3.97,16.45-7.18l.42,3.95c-13.18,8.62-29.52,9.51-42.72.36l.18-4.31c4.75,4.34,11.2,6.64,17.53,7.3Z"></path>
      <path id="Bottom_Jersey" d="m60.01,101.71c-2.88,2.69-11.39,6.79-15.44,7.9-3.04.5-5.08.44-8.14.12-4.98-1.28-13.13-4.26-16.63-8.02l2.39-5.09-.18-6.16c7.18.31,11.5-1.95,16.87-3.35,7.34-1.91,6.12-.11,12.44,1.79,2.06.62,4.23.97,6.34,1.32l.18,6.76,2.15,4.73Z"></path>
      <path id="Upper_Jersey" d="m75.69,55.82c-.16.69-1.65,3.14-2.15,3.77-.69.07-2.86.58-3.23.96-2.23-1.46-6.91-.8-9.21.24-.8-.32-2.03.42-2.81.84,1.16-2.58,5.44-3.54,7.96-4.6-3.85-.25-7.81,1.96-9.51,5.44.52-2.53,3.95-4.65,3.89-4.96-.02-.11-.87-.45-1.02-.42-.33.06-2.94,2.84-3.41,3.65-1.75,3-.58,4.06-1.85,6.52-2.69.75-4.31,3.08-6.34,4.78-1.71.51-5.89,1.09-6.1,2.27-1.89-.49-3.84-.76-5.74-1.2-2.04-.46-6.13-1.82-6.46-1.8-.32.03-.14.85-3.47-.12-.3-.25-1.15-6.82-1.14-7.72-.13-.81-3.47-7.16-4.07-5.62-.06.16,1.51,2.6,1.67,2.99-1.67-1.36-3.79-2.58-6.04-3.17-.57.31,2.32,1.42,3.59,2.4.58.45,1.1.97,1.62,1.49.06.52-1.57-1.09-2.57-1.26-.29-.05-.95-.08-1.02.24-2.55-.92-6.11-.86-8.74-.36-.55-.61-1.9-.39-2.75-.24-1.94-2.52-2.99-3.24-2.87-6.76.25-7.07,4.01-13.8,11.43-15.14,3.48-.63,7.2-.53,10.47.84,4.83,4.73,9.42,9.7,14.54,14.12,3.72-2.88,6.53-6.63,9.75-9.99.63-.65,3.82-3.47,3.95-3.71.04-.08,0-.19-.12-.18,7.71-3.68,17.79-.44,20.82,7.84.85,2.33,1.49,6.47.96,8.85Z"></path>
      <path id="V-Neck" fill="currentColor" d="m54.03,39.31c-.13.24-3.32,3.06-3.95,3.71-3.22,3.36-6.03,7.11-9.75,9.99-5.12-4.42-9.71-9.39-14.54-14.12.09.04.74.09,1.2.36.64-.09,2.74.17,3.11-.12,1.31,1.14,1.02,1.14,2.34,2.27.02.05.41.18.56.38.01.02.03.03.04.05.02.03.04.06.07.09.04.05.08.1.13.16.02.03.04.06.07.09.06.08.13.16.2.25.05.06.09.12.14.17,0,0,0,0,0,0,.2.25.44.53.69.84.01.01.02.02.03.04.12.14.24.29.36.43.02.02.03.04.05.06.12.14.24.29.37.44.21.25.43.52.66.78.11.13.22.25.32.38.08.09.16.18.23.28,1.17,1.38,2.35,2.77,3.07,3.63.26.32.47.56.59.71,0,.04.01.1.04.18.07.37.23.96.33,1.04.04-.03.08-.06.12-.09-.11-.27-.35-.68-.44-.95-.01-.09-.03-.17-.03-.22,1.77-3.22,4.99-5.79,7.29-8.61q1.28-1.2,2.57-2.39.09.06.18.12,1.2.24,2.39.48c.18-.12,1.1-.44,1.44-.6.11-.01.17.1.12.18Z"></path>
      <path id="Finger" fill="currentColor" d="m61.33,75.51c-1.13-1-2.63-1.32-3.95-1.97,2.86-.35,3.87,1.04,4.07,1.14-.54.48-.14.39-.12.84Z"></path>
      <path id="Outline" fill="currentColor" d="m70.31,60.55c-.18.18-1.77,3.63-2.16,4.37.58,1.02,1.32,2.39,1.44,3.59.41,4.21-3.75,16.91-6.4,17.41-4.22.57-13.51-3.26-14.24-3.23-.65.02-1.07.76.24,1.44,1.49.77,8.51,2.8,10.29,2.99,6.35.7,6.49-.89,9.09-7.42.15,2.14-1.79,7.08-3.47,8.26-2.2,1.54-9.28.46-11.96-.24-8.07-2.12-14.78-7.29-21.66-11.73-.91,1.91-6.1,2.76-7.3.72-.65.46-1.69,1.91-2.03,2.16-1.65,1.19-.84-1.71.48-2.63.69-.48,3.95-1.54-.24-.72-2.56.51-3.19,2.79-3.95,3.11-2.55,1.08.38-3.79,3.35-4.55.61-.16,2.81-.15,1.2-.48-2.86-.58-5.96,3.77-6.34,3.83-.3.05-.82-.12-.9-.42-.39-1.42,5.51-5.41,8.25-5.03-3.87-.54-6.96,2.74-7.48,2.81-.76.11.78-2.49,2.51-3.11,1.81-.65,6.29-.16,6.58,0,.12.06.04.69.48.84,3.53-.05,6.79,1.32,10.17,2.03,6.81,1.44,17.61,3.57,24.29,2.75,4.04-.5,1.88-1.03,1.85-1.74-.03-.59,3.65-7.1-6.22-6.22,1.94.03,6,.43,6.22,2.99.21,2.47-1.07-2.15-5.03-.72,0,.31,4.75.13,4.55,3.11-.05.09-.43-.03-.48-.06-.54.48-.14.39-.12.84.05,1.32-3.92-.51-4.37-.36-.28.1.63,1.02-4.07.84-2.95-.12-5.86-1.08-8.8-1.38q2.01-.57,4.01-1.14l1.08,1.08c.19-.15-.04-1.53.06-1.85.09-.29,4.2-3.48,4.73-3.77,3.58-1.95,6.55-1.37,8.86,2.03-.43-3.1-3.94-3.83-6.52-3.89.41-2.68,2.32-5.17,4.79-6.28-.8-.32-2.03.42-2.81.84,1.16-2.58,5.44-3.54,7.96-4.6-3.85-.25-7.81,1.96-9.51,5.44.52-2.53,3.95-4.65,3.89-4.96-.02-.11-.87-.45-1.02-.42-.33.06-2.94,2.84-3.41,3.65-1.75,3-.58,4.06-1.85,6.52-2.69.75-4.31,3.08-6.34,4.78-1.71.51-5.89,1.09-6.1,2.27-1.89-.49-3.84-.76-5.74-1.2-2.04-.46-6.13-1.82-6.46-1.8-.32.03-.14.85-3.47-.12-.3-.25-1.15-6.82-1.14-7.72-.13-.81-3.47-7.16-4.07-5.62-.06.16,1.51,2.6,1.67,2.99-1.67-1.36-3.79-2.58-6.04-3.17-.57.31,2.32,1.42,3.59,2.4.58.45,1.1.97,1.62,1.49.06.52-1.57-1.09-2.57-1.26-.29-.05-.95-.08-1.02.24,4.95,1.79,5.12,5.97,5.74,10.47-.32.39-6.37-2.56-8.61,2.99-1.83,4.54.8,4.43,1.02,4.61.21.17.86,3.28,4.07-.36-.96,3.1,2.22,2.24,3.35.36,2.64,1.21,5.58.32,8.25-.36q2.72,2.01,5.45,4.01c-7.42,2.85-13.12,3.94-21.12,3.65-2.25-.49-5.66-12.12-5.92-14.42-.29-2.5-.2-4.72,1.32-6.82-.4-.79-2.01-4.19-2.27-4.49-.55-.61-1.9-.39-2.75-.24.93,1.21,2.12,1.72,3.23,4.97-2.68,4.41.08,18.99,2.87,22.73,2.93,3.92,7.32.95,7.78,2.63.15.55-.04,4.43.24,5.62-.82,1.64-1.71,3.28-1.8,5.14.03.14.6.53.72.66q1.2-2.54,2.4-5.09-.09-3.08-.18-6.16c7.18.31,11.5-1.95,16.87-3.35,7.34-1.91,6.11-.11,12.44,1.8,2.06.62,4.23.97,6.34,1.31q.09,3.38.18,6.76,1.08,2.36,2.15,4.73s.71-.33.84-.54c.14-.4-1.17-4.35-1.8-4.79v-6.46c.63-1.41,6.07,2.88,9.57-4.78,1.51-3.31,2.69-13.69,2.27-17.23-.13-1.13-.84-2.21-.96-3.35,1.33-3.32,2.36-3.42,3.59-4.96-.69.07-2.86.58-3.23.96Zm-45.89,28.36c-.77.03-7.62-.18-8.02-.24-2.76-.44-4.78-6.14-5.03-8.62,1.14,1.94,2.22,6.64,4.79,7.06.47.08,7.51-.04,8.49-.12,4.93-.38,9.63-2.04,14.24-3.71.6-.01,1.47,1.05,1.97,1.49-5.31,1.76-10.8,3.93-16.45,4.13Z"></path>
      <path id="Right_Arm" fill="#C89D7C" d="m49.19,84.12c1.49.77,8.51,2.8,10.29,2.99,6.35.7,6.49-.89,9.09-7.42.15,2.14-1.79,7.08-3.47,8.26-2.2,1.54-9.28.46-11.96-.24-8.07-2.12-14.78-7.29-21.66-11.73-.91,1.91-6.1,2.76-7.3.72-.65.46-1.69,1.91-2.03,2.16-1.65,1.19-.84-1.71.48-2.63.69-.48,3.95-1.54-.24-.72-2.56.51-3.19,2.79-3.95,3.11-2.55,1.08.38-3.79,3.35-4.55.61-.16,2.81-.15,1.2-.48-2.86-.58-5.96,3.77-6.34,3.83-.3.05-.82-.12-.9-.42-.39-1.42,5.51-5.41,8.25-5.03-3.87-.54-6.96,2.74-7.48,2.81-.76.11.78-2.49,2.51-3.11,1.81-.65,6.29-.16,6.58,0,.12.06.04.69.48.84,3.53-.05,6.79,1.32,10.17,2.03,6.81,1.44,17.61,3.57,24.29,2.75,4.04-.5,1.88-1.03,1.85-1.74-.03-.59,3.65-7.1-6.22-6.22,1.94.03,6,.43,6.22,2.99.21,2.47-1.07-2.15-5.03-.72,0,.31,4.75.13,4.55,3.11-.05.09-.43-.03-.48-.06-.19-.1-1.2-1.49-4.07-1.14,1.32.65,2.82.97,3.95,1.97.05,1.32-3.92-.51-4.37-.36-.28.1.63,1.02-4.07.84-2.95-.12-5.86-1.08-8.8-1.38q2.01-.57,4.01-1.14l1.08,1.08c.19-.15-.04-1.53.06-1.85.09-.29,4.2-3.48,4.73-3.77,3.58-1.95,6.55-1.37,8.86,2.03-.43-3.1-3.94-3.83-6.52-3.89.41-2.68,2.32-5.17,4.79-6.28,2.31-1.04,6.98-1.7,9.21-.24-.18.18-1.77,3.63-2.16,4.37.58,1.02,1.32,2.39,1.44,3.59.41,4.21-3.75,16.91-6.4,17.41-4.22.57-13.51-3.26-14.24-3.23-.65.02-1.07.76.24,1.44Z"></path>
      <path id="Bottom_Left_Arm" fill="#C89D7C" d="m40.87,84.78c-5.31,1.76-10.8,3.93-16.45,4.13-.77.03-7.62-.18-8.02-.24-2.76-.44-4.78-6.14-5.03-8.62,1.14,1.94,2.22,6.64,4.79,7.06.47.08,7.51-.04,8.49-.12,4.93-.38,9.63-2.04,14.24-3.71.6-.01,1.47,1.05,1.97,1.49Z"></path>
      <path id="Left_Arm" fill="#C89D7C" d="m37.52,82.27c-7.42,2.85-13.12,3.94-21.12,3.65-2.25-.49-5.66-12.12-5.92-14.42-.29-2.5-.2-4.72,1.32-6.82-.4-.79-2.01-4.19-2.27-4.49,2.63-.5,6.18-.56,8.74.36,4.95,1.79,5.12,5.97,5.74,10.47-.32.39-6.37-2.56-8.61,2.99-1.83,4.54.8,4.43,1.02,4.61.21.17.86,3.28,4.07-.36-.96,3.1,2.22,2.24,3.35.36,2.64,1.21,5.58.32,8.25-.36q2.72,2.01,5.45,4.01Z"></path>
      <path id="Facemask_Hole" d="m42.96,19.27c-.12.05-1.32-.02-1.73,0-.84.04-3.68.07-4.19,0-1.05-.15-.59-.76-.42-.84.29-.13,6.05-.13,6.34,0,.26.12.26.72,0,.84Z"></path>
      <path id="Facemask_Plate" d="m44.59,19.52c-.18.09-2.59-.21-2.77-.3-.04-.02-.56.18-.59.05.42-.02,1.61.05,1.73,0,.26-.12.26-.72,0-.84-.29-.13-6.05-.13-6.34,0-.17.07-.63.69.42.84-1.62.25-1.52.31-1.62.25-.14-.1-.02.04-.06-.13-.04-.2.05-.56,0-.66-.18-.37-.85.39-.72-2.22.17-3.23,2.14-1.79,2.33-1.79,1.82,0,3.68-.24,5.51.12,2.26-.92,2.48-.14,2.57,1.8,0,.05-.24.76-.24.9,0,.11.46.83.36.96-.05.06-1.37-.08-.84.96.13.24.85.15,1.08.18-.07.13-.65-.21-.83-.11Z"></path>
      <path id="Facemask" d="m55.47,24c.47-1.28,1.47-2.99,2.03-4.31.04-.4-1.27-1.07-1.68-1.26-3.23-1.49-7.28-1.5-10.77-1.8,0,.05-.24.76-.24.9,0,.11.46.83.36.96-.05.06-1.37-.08-.84.96.02.04.05.06.09.09.01,0,.03.01.04.02s.03.01.05.02c.01,0,.03,0,.04.01,0,0,.02,0,.03,0,.02,0,.04,0,.07.01.04,0,.07,0,.11.01.02,0,.04,0,.06,0,.11,0,.22,0,.32,0h0c.06,0,.12,0,.17,0,.02,0,.03,0,.05,0,.01,0,.03,0,.04,0,.94.13,2.4-.03,3.11.3-6.21.68-12.58.66-18.79-.12q2.81-.21,5.62-.42c-.04-.2.05-.56,0-.66-.18-.37-.85.39-.72-2.22-2.57.19-8.25.75-10.41,1.68-.27.12-1.41.97-1.92,1.26.55,1.02,3.3,7.37,3.11,7.9-.1.29-.61.14-.66.18-1.15,1,.74,1.37.9,1.73.8,1.84-1.82,4.72,5.21,7.66,0-.03,0-.05,0-.05.55.17,1.08.44,1.62.75.95.54,1.92,1.22,3.02,1.74.01,0,.02.01.04.01.93.44,1.95.77,3.12.83.14,0,.29,0,.44,0,.04.04.17.05.35.04.49-.02,1.31-.14,1.42-.04v.04c.66-.15,2.43-.19,4.68-1.48.22-.13.99-.84,2.02-1.29,0,0,0,0,0,0,.3-.13,1.13-.5,1.53-.6-.64.31-.89.41-.21.22l.28-.23s-.04,0-.07.01c1.09-.52,3.32-1.62,4.16-2.83,1.3-1.88.79-4.5.96-4.91.13-.32,1.81-.37,1.2-1.32-.43-.67-1.7.8,0-3.83Zm-4.01-1.02c-.11.56-.61,3.69-1.44,3.23-.15-.09,1.31-2.95,1.44-3.23Zm1.2,6.1c1.01-.04-2.33,1.48-2.45,1.26-.29-.55,2.3-1.25,2.45-1.26Zm-3.35-1.44c1.11-.48.14,1.37-.24,1.08-.18-.14.04-.99.24-1.08Zm-19.26-.12c.4-.1.71.66.48.84-.27.21-.84-.75-.48-.84Zm-.24-1.32c-.71.44-.93-2.23-1.08-2.63.37.33,1.2,2.56,1.08,2.63Zm-5.08-4.73q.09-.15.18-.3c.39.06.79-.25.84-.24.39.07,2.02,4.35,2.33,4.97-1.84.64-2.09-2.59-3.35-4.43Zm2.21,5.44c.09-.06,1.8.43,1.62,1.02-.43.29-2.4-.5-1.62-1.02Zm2.45,3.29c-.09.15-2.41-1.04-2.57-1.26.42.15,2.98.53,2.57,1.26Zm-2.22.66c.57.62,2.74.67,3.05,1.02q.39,1.71.78,3.41c-1.82-.67-4.38-2.17-3.83-4.43Zm4.31-.12c-.33.25-.7-.82-.48-.96.19-.12.79.71.48.96Zm7.84-1.5c-.16.34-7.03-.36-7.36-.54-.25-.14-.55-1.13-.24-1.2,1.27.36,7.03.42,7.42.6.23.1.24,1,.18,1.14Zm0,2.39c-.14.3-6.26-.45-6.52-.66-.04-.04-.38-1-.24-1.08.97.32,6.28.46,6.58.6.23.1.24,1,.18,1.13Zm-7.6.54c.36-.29,1.4,3.9,1.73,4.13-1.77.58-1.57-2.78-1.73-4.13Zm7.36,6.64c-.08.15-2.55-.44-2.93-.78,1.22.1,3.6-.41,2.93.78Zm-4.13-2.09c-.27-.11-1.64-4.33-1.32-4.43q2.81.36,5.62.72.09,1.83.18,3.65-2.24.03-4.49.06Zm-3.47-10.29c-.26-.15-.69-5.21-.48-5.38,6,.38,12.07.38,18.07,0q-.33,2.66-.66,5.32c-5.62.79-11.3.62-16.93.06Zm9.33,1.67c.4-.18,5.62-.15,6.82-.48.35.12.05,1.16,0,1.2-.28.22-6.8.71-7,.42-.03-.05-.08-1.02.18-1.14Zm0,2.27c.27-.14,5.26.05,6.1-.36,1.84,1.72-6.13,1.85-6.28,1.49-.08-.17.08-1.08.18-1.14Zm-.06,8.43c-.37-.87.87-.94,2.93-.9,1.1.02-2.74,1.35-2.93.9Zm4.01-1.97q-2.06-.09-4.13-.18.03-1.83.06-3.65,2.63-.3,5.27-.6c.48.16-.91,4.31-1.2,4.43Zm3.05-1.14c-.19.72-.72.42-1.26.78.05-.62,1.02-4.22,1.31-4.31,1.13-.33-.03,1.75-.06,3.53Zm.54-4.73c-.27-.06.03-1,.36-1.08.71-.17.25,1.21-.36,1.08Zm.84,4.31q-.09-.09-.18-.18c.9-5.11.88-2.11,3.89-4.37.29,2.33-1.84,3.72-3.71,4.55Zm2.51-7.3c-.35-.18.57-1.11.96-1.08.81.06-.17,1.49-.96,1.08Zm1.49-2.45c-.25.24-.69.27-1.02.3.09-.61,1.66-4.71,1.91-4.78.09-.03,1.12.2,1.14.54.01.22-1.87,3.8-2.03,3.95Z"></path>
      <path id="Left_Dot" fill="currentColor" d="m35.78,15.56c1-.38.93,1.53.6,1.68-1.16.52-1.07-1.5-.6-1.68Z"></path>
      <path id="Right_Dot" fill="currentColor" d="m43.32,15.44c.98-.45,1.22,1.46.6,1.68-1.15.4-.84-1.57-.6-1.68Z"></path>
      <path id="Left_Eye" fill="currentColor" d="m38.48,24.24c-.17.43-1.41-.29-1.62-.3-2.39-.17-6.01,1.77-1.67-.84,1.95.12,3.96-.55,3.29,1.14Z"></path>
      <path id="Right_Eye" fill="currentColor" d="m42.96,23.82c-.8.12-1.16,1.43-1.67-.72q1.85.06,3.71.12c3.41,1.86-.91.43-2.03.6Z"></path>
      <path id="Helmet" fill="currentColor" d="m55.83,18.43c-3.23-1.49-7.29-1.5-10.77-1.79-.09-1.93-.31-2.72-2.57-1.79-1.82-.36-3.68-.12-5.5-.12-.19,0-2.16-1.44-2.33,1.79-2.57.19-8.25.75-10.41,1.68C20.88.15,43.74-5.36,52.83,5.69c2.89,3.51,3.63,8.34,2.99,12.74Z"></path>
    </g>
    <path id="Plus" fill="currentColor" d="m11.95,37.25c1.46-.27,2.65-1.48,2.89-2.95.04-.27.08-1.48.08-2.69v-2.19h2.37c3.13,0,3.56-.11,4.56-1.19,1.77-1.91.8-4.98-1.78-5.67-.31-.08-1.09-.11-2.79-.11h-2.36s0-2.23,0-2.23c0-3.12-.16-3.73-1.2-4.7-.71-.66-1.24-.85-2.37-.85-.96,0-1.34.11-2.08.62-.48.33-1.04,1.13-1.24,1.78-.15.5-.17.79-.17,2.97v2.42h-2.36c-2.57,0-3.03.06-3.76.48-1.21.71-1.92,2.18-1.7,3.54.24,1.51,1.38,2.67,2.89,2.96.25.05,1.46.08,2.69.08h2.24v2.37c0,2.12.02,2.43.17,2.92.39,1.27,1.34,2.14,2.64,2.42.6.13.73.13,1.29.03h0Z"></path>
    <path id="Minus" fill="currentColor" d="m77.92,29.29c.38-.15.67-.36,1.11-.81.81-.81,1.01-1.29,1.01-2.48,0-.82-.01-.88-.32-1.5-.52-1.05-1.41-1.72-2.57-1.93-.65-.12-16.03-.13-16.76-.01-1.54.25-2.71,1.41-2.97,2.95-.29,1.69.94,3.54,2.63,3.94.19.05,3.9.07,8.84.06h8.51s.51-.22.51-.22Z"></path>
    </svg>