<?xml version="1.0" encoding="UTF-8"?>
<svg id="KDL_Cube" data-name="KDL Cube" xmlns="http://www.w3.org/2000/svg" viewBox="0 0 104 117.39">
  <g id="KDL">
    <polygon id="L" points="52.18 57.77 52.01 115.39 3.72 85.36 2 28.79 52.18 57.77" fill="none" stroke="#013369" stroke-linecap="round" stroke-linejoin="round" stroke-width="4"/>
    <g id="Left_K" data-name="Left K">
      <path id="K" d="M46.25,60.01l-18.38-10.69.1,7.29c.08.07.16.15.25.24s.2.19.31.3.24.22.37.35.27.26.43.4c.15.14.28.27.41.4s.25.24.36.35.21.2.31.29.18.17.26.24c-.74.45-1.5.91-2.29,1.37s-1.59.93-2.42,1.41-1.67.95-2.54,1.44-1.76.97-2.67,1.47c-.03-.39-.05-.81-.07-1.25s-.04-.91-.06-1.41-.03-1.02-.05-1.57-.03-1.13-.04-1.73c0-.41-.01-.83-.02-1.26s-.01-.87-.01-1.33,0-.92,0-1.4,0-.97,0-1.46c.45.12.88.24,1.29.36s.81.23,1.19.35.74.22,1.08.33.67.22.98.32c0-.39,0-.83,0-1.33s0-1.04,0-1.64-.01-1.25-.02-1.95-.02-1.46-.03-2.26c-2.59-1.5-4.9-2.85-6.96-4.04s-3.83-2.22-5.36-3.11-2.79-1.61-3.8-2.19-1.76-1.01-2.27-1.29l.09,3.11c.03.46.06.9.09,1.3s.06.79.08,1.14.05.68.08.98.05.57.08.82c.41.37.79.71,1.15,1.03s.69.62,1,.89.59.52.84.74.48.42.69.59c.05,1.69.11,3.58.17,5.67s.12,4.37.19,6.85.14,5.14.21,8,.15,5.89.23,9.11c-.59-.16-1.11-.3-1.56-.43s-.84-.23-1.15-.31-.57-.15-.75-.2-.3-.08-.34-.08c0,.23.01.45.02.65s.02.39.03.57.02.34.03.48.02.28.03.4c0,.26,0,.55,0,.87s0,.68.01,1.07.02.81.03,1.27.02.95.04,1.47l17.83,11.02c-.01-.76-.02-1.47-.04-2.13s-.03-1.28-.04-1.85-.03-1.09-.04-1.56-.03-.9-.04-1.27c-.12-.11-.26-.24-.42-.38s-.33-.3-.52-.48-.4-.36-.62-.57-.47-.43-.72-.66c-.25-.23-.49-.45-.71-.65s-.42-.39-.61-.56-.36-.33-.52-.47-.3-.27-.42-.38c-.01-.64-.02-1.24-.03-1.8s-.01-1.08-.02-1.56,0-.92,0-1.32,0-.76,0-1.08c.61-.31,1.15-.58,1.61-.81s.85-.43,1.16-.58.54-.27.7-.35.24-.12.24-.12c.01.01.03.03.05.05s.05.04.07.06.06.05.09.07.07.05.11.08c.04.03.08.06.12.09s.07.05.09.07.05.04.07.06.04.03.05.05c.74,1.65,1.4,3.17,2,4.54s1.13,2.61,1.59,3.71.86,2.06,1.18,2.88.58,1.51.77,2.06c-.41-.13-.79-.24-1.15-.35s-.68-.2-.98-.28-.57-.16-.82-.22-.47-.12-.66-.16l.1,6.9,21.11,13.05v-6.76c-.26-.25-.56-.53-.89-.84s-.69-.65-1.07-1.01-.81-.77-1.26-1.19-.93-.89-1.44-1.37c-.37-.83-.76-1.72-1.18-2.66s-.87-1.94-1.34-3-.97-2.17-1.5-3.35-1.08-2.4-1.66-3.69c-.81-1.8-1.54-3.41-2.18-4.84s-1.21-2.68-1.68-3.74-.87-1.94-1.18-2.63-.54-1.2-.68-1.52c.18-.11.52-.3,1.02-.58s1.16-.65,1.98-1.1,1.81-1,2.95-1.63,2.47-1.35,3.96-2.17c.27.08.56.16.86.26s.62.19.95.3.68.22,1.03.34.73.25,1.12.38v-7.27" fill="#d50a0a" stroke="#013369" stroke-linecap="round" stroke-linejoin="round"/>
    </g>
    <polygon id="Right" points="52.18 57.77 102 28.8 99.96 85.35 52.01 115.39 52.18 57.77" fill="none" stroke="#013369" stroke-linecap="round" stroke-linejoin="round" stroke-width="4"/>
    <g id="Right_L" data-name="Right L">
      <path id="L-2" data-name="L" d="M80.67,46.06l-22.68,13.28-.05,7.39c.15-.05.32-.11.5-.17s.37-.12.58-.19.43-.14.66-.22.48-.16.74-.25c.29-.09.56-.18.81-.26s.47-.15.67-.22.38-.13.54-.18.3-.1.41-.14l-.31,30.03c-.13.12-.28.25-.45.4s-.35.31-.55.49-.42.37-.66.58-.49.43-.77.67c-.27.23-.52.45-.75.66s-.45.4-.65.57-.38.34-.55.49-.31.28-.45.4l-.05,6.99,37.8-23.52c.02-.39.04-.83.06-1.32s.04-1.03.06-1.62.05-1.23.07-1.92.05-1.43.08-2.22.05-1.53.08-2.23.05-1.34.07-1.93.04-1.14.06-1.64.04-.94.06-1.34l-7.54,4.61c-.04.15-.08.34-.13.55s-.11.45-.18.72-.15.57-.23.9-.18.69-.28,1.07c-.08.34-.17.66-.24.97s-.15.59-.22.86-.13.52-.2.75-.12.44-.17.64c-.68.43-1.45.91-2.3,1.44s-1.8,1.12-2.84,1.77-2.16,1.34-3.38,2.09-2.53,1.56-3.94,2.43l.54-29.45c.62-.52,1.21-1.01,1.75-1.47s1.05-.88,1.52-1.26.9-.74,1.29-1.06.75-.61,1.07-.86l.16-7.25" fill="#d50a0a" stroke="#013369" stroke-linecap="round" stroke-linejoin="round"/>
    </g>
    <polygon id="Top" points="2 28.79 51.85 2 102 28.8 52.18 57.77 2 28.79" fill="none" stroke="#013369" stroke-linecap="round" stroke-linejoin="round" stroke-width="4"/>
    <g id="Top_D" data-name="Top D">
      <path id="D" d="M64.07,36.65c-.43.24-.83.46-1.17.65s-.65.36-.9.51-.47.26-.63.36-.29.16-.36.21l-25.57-14.28c.9-.49,1.69-.93,2.38-1.3s1.27-.69,1.75-.95.86-.46,1.13-.61.44-.23.51-.26c.58-.28,1.16-.53,1.74-.75s1.16-.42,1.73-.6,1.15-.32,1.72-.44,1.15-.22,1.72-.29c.61-.05,1.22-.07,1.82-.05s1.22.07,1.83.15,1.22.2,1.83.35,1.22.34,1.83.56c.35.13.73.28,1.15.46s.87.38,1.35.62,1,.49,1.56.78,1.14.6,1.76.94l3.11,1.7c.32.18.63.34.91.51s.56.32.81.47.49.29.71.43.42.26.6.39c.54.37,1.01.73,1.42,1.1s.75.74,1.02,1.11.48.75.62,1.12.21.75.22,1.13c-.06.35-.18.7-.36,1.05s-.42.71-.72,1.06-.66.71-1.08,1.06-.9.71-1.44,1.07c-.14.09-.28.18-.44.28s-.32.2-.49.3-.36.21-.55.33-.4.23-.61.35l-.91.52M31.45,17.98l-19.75,10.69,6.22,3.56c.58-.19,1.11-.37,1.62-.54s.97-.32,1.4-.47.82-.28,1.18-.41.68-.24.97-.34l26.58,15.12c-.18.17-.38.36-.6.57s-.46.44-.73.69-.55.52-.85.81-.63.6-.98.94c.26.16.53.32.8.47s.54.32.81.47.54.32.81.47.55.32.82.47.54.31.82.47.55.31.83.47.56.31.84.47.56.31.85.47l17.93-10.35c1.69-.97,3.2-1.92,4.55-2.83s2.52-1.78,3.52-2.63,1.84-1.66,2.51-2.44,1.17-1.53,1.51-2.25c.36-.78.55-1.55.55-2.33s-.16-1.56-.51-2.34-.87-1.56-1.57-2.34-1.57-1.56-2.62-2.34c-.6-.45-1.2-.89-1.8-1.31s-1.22-.83-1.84-1.23-1.24-.78-1.87-1.15-1.26-.73-1.91-1.08c-1.03-.55-2.07-1.07-3.13-1.56s-2.13-.94-3.22-1.36-2.19-.81-3.31-1.16-2.25-.68-3.41-.97c-.68-.17-1.37-.31-2.08-.42s-1.43-.19-2.17-.25-1.5-.08-2.27-.08-1.56.03-2.37.09c-.75.06-1.49.14-2.23.24s-1.47.22-2.19.37-1.44.31-2.16.5-1.42.4-2.13.64c-1.01.39-1.96.78-2.86,1.15s-1.74.73-2.53,1.08-1.52.69-2.19,1.01-1.29.64-1.85.95" fill="#d50a0a" stroke="#013369" stroke-linecap="round" stroke-linejoin="round"/>
    </g>
  </g>
</svg>