<?xml version="1.0" encoding="UTF-8"?>
<svg id="KKL-Alt" xmlns="http://www.w3.org/2000/svg" viewBox="0 0 118.06 115.28">
  <path id="Upper_K" data-name="Upper K" d="M.04,105.99v-9.29l3.01-.45c1.65-.25,2.12-.46,3.37-1.04.35-.16,1.1-.28,1.86-.59,3.08-1.27,3.09.45,3.09-37.12V21.98l-1.5-.95c-.82-.52-2.55-1.17-3.83-1.43-1.28-.26-3.17-.91-4.19-1.43l-1.85-.95.19-8.47L.37.28,26.04.12c30.1-.19,27.08-1.22,26.67,9.09l-.33,8.26-3.67,1.19c-2.02.66-4.27,1.21-5.02,1.24-4.02.13-4.31,1.09-4.31,14.04,0,14.29-.1,14.16,6.52,7.9,21.63-20.46,22.06-21.03,17.79-23.1l-3.02-1.47.19-8.5.19-8.5h50.67v17.12l-2.67.93c-1.47.51-3.12.93-3.68.94-2.32.02-5.9,3-18.23,15.12-14.6,14.36-13.94,12.94-9.22,19.7,1.72,2.47,4.63,6.67,6.46,9.33,1.83,2.67,5.21,7.49,7.5,10.71,2.29,3.23,4.17,6,4.17,6.18s1.57,2.48,3.5,5.12c1.93,2.64,4.1,5.7,4.84,6.8s2.24,2.21,3.33,2.48c11.3,2.81,10.32,1.68,10.32,11.93v8.63h-60.7l.19-9.12.19-9.12,4.45-1.39c5.68-1.77,5.65-1.72,3.49-5.15-5.16-8.19-12.93-19.73-13.74-20.4-.73-.6-2.11.39-6.72,4.87l-5.81,5.63v6.26c0,7.69-.54,7.11,8.47,9.14,5.07,1.14,5.27,1.59,4.99,11.11l-.24,8.17H.04v-9.29Z" fill="#d42027" stroke-width="0"/>
  <path id="Star-Bot" d="M82.48,100.87l2.97-2.06,3.02,2.12c1.65,1.14,3.02,1.96,3.02,1.73s-.46-1.78-1.01-3.51l-1.01-3.15,1.14-.95c.65-.54,1.96-1.65,2.97-2.48l1.83-1.47h-7.41l-1.11-3.43c-.59-1.88-1.24-3.43-1.37-3.43-.18,0-.83,1.47-1.42,3.3l-1.11,3.3-3.79.23-3.79.23,3.02,2.19c1.65,1.24,3.02,2.25,3.02,2.3s-.49,1.7-1.11,3.61c-.59,1.91-1.01,3.56-.9,3.56,0,0,1.42-.95,3.02-2.06h0l.03-.03Z" fill="#fff" stroke-width="0"/>
  <path id="Star-Mid" d="M69.86,79.99l2.97-2.06,3.02,2.12c1.65,1.14,3.02,1.96,3.02,1.73s-.46-1.78-1.01-3.51l-1.01-3.15,1.14-.95c.65-.54,1.96-1.65,2.97-2.48l1.83-1.47h-7.41l-1.11-3.43c-.59-1.88-1.24-3.43-1.37-3.43-.18,0-.83,1.47-1.42,3.3l-1.11,3.3-3.79.23-3.79.23,3.02,2.19c1.65,1.24,3.02,2.25,3.02,2.3s-.49,1.7-1.11,3.61c-.59,1.91-1.01,3.56-.9,3.56,0,0,1.42-.95,3.02-2.06h0l.03-.03Z" fill="#fff" stroke-width="0"/>
  <path id="Star-Top" d="M56.1,59.12l2.97-2.06,3.02,2.12c1.65,1.14,3.02,1.96,3.02,1.73s-.46-1.78-1.01-3.51l-1.01-3.15,1.14-.95c.65-.54,1.96-1.65,2.97-2.48l1.83-1.47h-7.41l-1.11-3.43c-.59-1.88-1.24-3.43-1.37-3.43-.18,0-.83,1.47-1.42,3.3l-1.11,3.3-3.79.23-3.79.23,3.02,2.19c1.65,1.24,3.02,2.25,3.02,2.3s-.49,1.7-1.11,3.61c-.59,1.91-1.01,3.56-.9,3.56,0,0,1.42-.95,3.02-2.06h0l.03-.03Z" fill="#fff" stroke-width="0"/>
</svg>