<?xml version="1.0" encoding="UTF-8"?>
<svg id="KKL_Cube" data-name="KKL Cube" xmlns="http://www.w3.org/2000/svg" viewBox="0 0 104 117.39">
  <g id="Upper_K" data-name="Upper K">
    <polygon id="K_Left" data-name="K Left" points="52.18 57.77 52.01 115.39 3.72 85.36 2 28.79 52.18 57.77" fill="none" stroke="#013369" stroke-linecap="round" stroke-linejoin="round" stroke-width="4"/>
    <g id="Left_K" data-name="Left K">
      <path id="K" d="M45.54,59.42l-18.14-10.55.1,7.2c.07.07.16.15.25.24s.2.19.31.29.23.22.36.35.27.26.42.4c.14.14.28.27.41.39s.25.24.36.34.21.2.3.29.18.17.25.24c-.73.45-1.48.9-2.26,1.36s-1.57.92-2.39,1.39-1.65.94-2.51,1.42-1.73.96-2.63,1.46c-.03-.39-.05-.8-.07-1.23s-.04-.9-.06-1.39-.03-1.01-.05-1.55-.03-1.11-.04-1.71c0-.4-.01-.82-.02-1.25s-.01-.86-.01-1.31,0-.91,0-1.38,0-.95,0-1.45c.44.12.87.24,1.28.36s.8.23,1.17.34.73.22,1.07.33.66.21.97.32c0-.39,0-.82,0-1.31s0-1.03,0-1.62-.01-1.23-.02-1.93-.02-1.44-.03-2.24c-2.55-1.48-4.84-2.81-6.87-3.99s-3.78-2.19-5.29-3.07-2.75-1.59-3.75-2.16-1.74-1-2.24-1.28l.08,3.07c.03.46.06.89.09,1.29s.06.78.08,1.13.05.67.08.97.05.57.08.81c.4.36.78.7,1.13,1.02s.68.61.98.88.58.51.83.73.48.41.68.59c.05,1.67.11,3.54.16,5.6s.12,4.32.19,6.77.13,5.08.21,7.91.15,5.82.23,9c-.58-.16-1.09-.3-1.54-.42s-.83-.23-1.14-.31-.56-.15-.74-.2-.29-.07-.34-.08c0,.23.01.44.02.64s.02.39.02.56.02.33.03.48.02.28.03.4c0,.25,0,.54,0,.86s0,.67.01,1.06.01.81.03,1.26.02.94.04,1.46l17.61,10.87c-.01-.75-.02-1.45-.04-2.11s-.03-1.26-.04-1.83-.03-1.08-.04-1.54-.03-.88-.04-1.26c-.12-.11-.26-.24-.42-.38s-.33-.3-.52-.47-.39-.36-.62-.56-.46-.42-.71-.65c-.25-.23-.48-.45-.7-.65s-.42-.39-.61-.56-.36-.33-.51-.47-.29-.27-.41-.38c-.01-.63-.02-1.22-.03-1.77s-.01-1.07-.02-1.54,0-.91,0-1.3,0-.75,0-1.06c.6-.31,1.13-.57,1.59-.8s.84-.42,1.14-.58.54-.27.69-.35.24-.12.24-.12c.01.01.03.03.05.05s.04.04.07.06.06.05.09.07.07.05.11.08c.04.03.08.06.11.09s.07.05.09.07.05.04.07.06.04.03.05.05c.73,1.63,1.39,3.13,1.98,4.49s1.11,2.58,1.57,3.67.85,2.03,1.17,2.85.58,1.49.77,2.03c-.41-.12-.78-.24-1.13-.34s-.67-.2-.97-.28-.57-.16-.81-.22-.46-.12-.65-.16l.1,6.82,20.85,12.87v-6.68c-.26-.25-.56-.52-.88-.82s-.68-.64-1.06-1-.8-.76-1.24-1.18-.92-.87-1.42-1.36c-.36-.82-.75-1.7-1.16-2.63s-.86-1.92-1.32-2.97-.96-2.15-1.48-3.31-1.07-2.37-1.64-3.65c-.8-1.77-1.52-3.37-2.16-4.78s-1.19-2.64-1.66-3.69-.86-1.92-1.17-2.6-.53-1.19-.67-1.51c.18-.11.51-.3,1-.57s1.14-.64,1.95-1.09,1.78-.98,2.92-1.61,2.44-1.34,3.91-2.15c.27.08.55.16.85.25s.61.19.94.29.67.22,1.02.33.72.24,1.11.37v-7.18" fill="#d50a0a" stroke="#013369" stroke-linecap="round" stroke-linejoin="round"/>
    </g>
    <polygon id="L_Right" data-name="L Right" points="52.18 57.77 102 28.8 99.96 85.35 52.01 115.39 52.18 57.77" fill="none" stroke="#013369" stroke-linecap="round" stroke-linejoin="round" stroke-width="4"/>
    <g id="Right_L" data-name="Right L">
      <path id="L" d="M81.73,45.57l-22.16,12.97-.06,7.32c.15-.05.31-.1.48-.16s.36-.12.56-.19.42-.14.64-.21.47-.16.73-.24c.28-.09.55-.18.79-.25s.46-.15.66-.21.37-.12.53-.18.29-.1.4-.14l-.34,29.76c-.13.12-.27.25-.44.39s-.34.31-.54.48-.41.36-.65.57-.48.42-.75.66c-.26.23-.51.45-.74.65s-.44.39-.64.56-.37.33-.54.48-.31.27-.43.39l-.06,6.93,36.95-22.98c.02-.39.04-.82.06-1.31s.04-1.02.06-1.6.05-1.22.07-1.9.05-1.42.08-2.2.05-1.52.08-2.21.05-1.33.07-1.92.04-1.13.06-1.62.04-.94.06-1.33l-7.37,4.5c-.04.15-.08.33-.13.54s-.11.45-.18.72-.14.56-.23.89-.18.68-.28,1.06c-.08.34-.16.65-.24.96s-.15.58-.21.85-.13.51-.19.74-.12.44-.17.63c-.66.42-1.41.89-2.25,1.41s-1.76,1.1-2.77,1.73-2.12,1.31-3.31,2.05-2.47,1.53-3.85,2.37l.56-29.18c.61-.51,1.18-.99,1.71-1.44s1.03-.86,1.49-1.24.88-.73,1.27-1.04.73-.6,1.04-.84l.16-7.19" fill="#d50a0a" stroke="#013369" stroke-linecap="round" stroke-linejoin="round"/>
    </g>
    <polygon id="Top" points="2 28.79 51.85 2 102 28.8 52.18 57.77 2 28.79" fill="none" stroke="#013369" stroke-linecap="round" stroke-linejoin="round" stroke-width="4"/>
    <g id="Top_K" data-name="Top K">
      <path id="K-2" data-name="K" d="M50.47,7.6l-17.53,9.49,5.99,3.32c.1-.03.21-.06.33-.09s.26-.07.4-.11.3-.09.47-.14.35-.1.54-.16c.19-.05.37-.1.53-.15s.32-.09.46-.13.27-.08.39-.11.23-.07.33-.09c0,.81,0,1.65,0,2.52s-.01,1.76-.03,2.68-.04,1.87-.07,2.84-.06,1.98-.1,3.01c-.35-.17-.71-.36-1.1-.56s-.8-.42-1.22-.65-.88-.48-1.35-.73-.96-.53-1.48-.82c-.35-.19-.7-.39-1.07-.6s-.73-.42-1.12-.64-.77-.44-1.16-.67-.8-.47-1.21-.71c.34-.32.66-.62.97-.91s.61-.56.9-.82.57-.51.83-.74.52-.45.77-.65c-.32-.19-.68-.4-1.09-.63s-.85-.49-1.34-.77-1.02-.58-1.6-.9-1.19-.67-1.85-1.03c-2.57,1.39-4.89,2.65-6.96,3.77s-3.89,2.11-5.46,2.97-2.87,1.57-3.92,2.14-1.83,1.01-2.35,1.3l2.56,1.47c.39.2.76.4,1.11.57s.68.34.98.5.59.29.85.42.5.24.72.35c.54-.17,1.04-.33,1.5-.48s.9-.29,1.29-.42.76-.25,1.08-.36.62-.21.87-.3c1.42.8,3.02,1.7,4.8,2.71s3.75,2.12,5.89,3.34,4.49,2.55,7.02,3.98,5.26,2.99,8.17,4.65c-.45.46-.84.87-1.19,1.23s-.64.66-.88.92-.43.45-.57.6-.22.24-.26.28c.21.12.41.23.6.34s.36.2.52.29.31.17.45.24.27.13.38.19c.23.14.49.3.79.48s.62.37.98.58.75.44,1.17.68.88.51,1.37.79l18.73-10.8c-.7-.39-1.36-.75-1.97-1.09s-1.18-.65-1.7-.93-1-.54-1.43-.78-.82-.44-1.17-.62c-.16.05-.34.11-.54.18s-.43.14-.67.22-.51.17-.8.26-.6.2-.94.31c-.33.11-.64.21-.92.3s-.55.18-.8.26-.47.15-.67.22-.38.13-.54.18c-.58-.32-1.12-.63-1.62-.91s-.97-.55-1.4-.79-.82-.47-1.17-.68-.67-.39-.95-.56c.03-.7.05-1.32.07-1.84s.04-.96.05-1.32.02-.62.03-.79.01-.27.01-.28c.02,0,.04-.01.07-.02s.05-.02.09-.03.07-.03.11-.05.08-.04.13-.06c.05-.02.09-.04.13-.06s.08-.03.11-.05.06-.02.09-.03.05-.02.07-.02c1.8.19,3.44.37,4.94.54s2.83.33,4.02.48,2.22.29,3.11.42,1.61.25,2.19.36c-.3.3-.57.58-.83.84s-.49.5-.7.73-.41.43-.58.61-.32.35-.45.5l6.31,3.51,20.74-11.96-6.13-3.3c-.33.1-.7.22-1.1.34s-.85.26-1.34.41-1.01.31-1.58.48-1.17.35-1.82.55c-.89-.1-1.85-.2-2.86-.3s-2.09-.22-3.23-.33-2.34-.24-3.6-.36-2.58-.26-3.96-.39c-1.93-.19-3.65-.36-5.18-.51s-2.86-.28-3.99-.4-2.07-.21-2.81-.28-1.28-.13-1.62-.17c0-.2-.01-.58-.01-1.12s0-1.26,0-2.14,0-1.93.01-3.15.01-2.59.02-4.13c.19-.18.39-.37.61-.56s.44-.4.68-.61.49-.43.75-.65.53-.46.82-.7l-5.94-3.2" fill="#d50a0a" stroke="#013369" stroke-linecap="round" stroke-linejoin="round"/>
    </g>
  </g>
</svg>