<?xml version="1.0" encoding="UTF-8"?>
<svg id="MMH_Cube" data-name="MMH Cube" xmlns="http://www.w3.org/2000/svg" viewBox="0 0 104 117.39">
  <g id="MMH">
    <polygon id="M_Left" data-name="M Left" points="52.18 57.77 52.01 115.39 3.72 85.36 2 28.79 52.18 57.77" fill="none" stroke="#013369" stroke-linecap="round" stroke-linejoin="round" stroke-width="4"/>
    <g id="Left_M" data-name="Left M">
      <path id="M_L" data-name="M L" d="M47.75,63.43l-15.08-9.16c-.8,2.15-1.52,4.07-2.16,5.76s-1.2,3.16-1.68,4.41-.88,2.28-1.21,3.1-.58,1.42-.76,1.81c-.19-.66-.4-1.38-.62-2.17s-.46-1.64-.72-2.56-.53-1.91-.81-2.97-.59-2.18-.91-3.37c-.35-1.29-.67-2.49-.97-3.59s-.58-2.13-.83-3.05-.48-1.77-.69-2.51-.39-1.4-.54-1.97c-.39-.26-.81-.52-1.25-.8s-.9-.57-1.38-.87-.99-.62-1.52-.94-1.08-.66-1.66-1.01l-8.55-5.19c0,.17.02.36.02.58s.02.45.03.71.02.54.03.84.02.63.03.97.02.67.03.98.02.59.03.85.02.5.03.72.02.41.03.59c.35.32.67.63.98.91s.59.55.86.8.51.48.74.69.43.4.62.58l.63,25.22c-.09-.02-.19-.05-.3-.08s-.23-.07-.36-.1-.27-.08-.42-.12-.31-.09-.48-.15c-.19-.05-.36-.1-.52-.15s-.31-.09-.44-.12-.25-.07-.35-.1-.19-.05-.26-.07c0,.16.01.35.02.55s.02.43.03.68.02.51.03.8.02.6.03.92.02.64.03.93.02.56.03.8.02.47.03.68.02.39.03.55l13.86,8.85-.1-5.86c-.1-.09-.22-.2-.34-.31s-.27-.25-.42-.39-.32-.29-.5-.46-.38-.34-.58-.53c-.2-.19-.4-.37-.57-.54s-.34-.32-.5-.46-.29-.27-.42-.39-.24-.22-.34-.31c-.12-3.08-.23-5.81-.32-8.21s-.17-4.46-.24-6.17-.11-3.08-.15-4.08-.06-1.66-.06-1.96v-.14c.29,1.08.65,2.4,1.08,3.95s.92,3.32,1.48,5.33,1.19,4.23,1.88,6.69,1.45,5.13,2.27,8.04l5.81,3.67c.12-.34.28-.76.47-1.26s.41-1.07.66-1.72.54-1.38.86-2.19.67-1.7,1.05-2.66c.33-.82.64-1.6.93-2.35s.56-1.46.81-2.14.48-1.32.69-1.92.4-1.17.57-1.7c.05.46.09.95.12,1.45s.07,1.02.09,1.55.05,1.08.06,1.65.02,1.15.03,1.75c0,.3,0,.61,0,.92s0,.62,0,.94,0,.64-.01.97-.01.66-.02.99c-.04,1.3-.07,2.48-.1,3.53s-.05,1.97-.06,2.77-.03,1.47-.03,2.02,0,.97,0,1.27v.25s-3.74-1.21-3.74-1.21c0,.32,0,.68,0,1.09s0,.85,0,1.34,0,1.02,0,1.59,0,1.18.02,1.83l16.01,10.23c0-.67,0-1.29,0-1.87s0-1.12,0-1.61,0-.95.02-1.36.01-.78.02-1.1c-.1-.09-.21-.2-.33-.32s-.25-.25-.4-.39-.3-.29-.47-.45-.35-.34-.54-.52c-.2-.18-.38-.36-.55-.52s-.33-.31-.48-.45-.28-.27-.4-.38-.23-.22-.33-.31c0-2.8-.01-5.43-.01-7.89s0-4.77,0-6.9,0-4.1,0-5.89,0-3.41.01-4.85c.09.03.2.06.32.1s.25.07.4.11.3.09.47.13.35.1.55.15c.19.06.37.11.54.16s.32.1.47.14.28.08.39.12.23.07.32.1v-6.25" fill="#d50a0a" stroke="#013369" stroke-linecap="round" stroke-linejoin="round" stroke-width="2"/>
    </g>
    <polygon id="H_Right" data-name="H Right" points="52.18 57.77 102 28.81 99.96 85.35 52.01 115.39 52.18 57.77" fill="none" stroke="#013369" stroke-linecap="round" stroke-linejoin="round" stroke-width="4"/>
    <g id="Right_H" data-name="Right H">
      <path id="H_R" data-name="H R" d="M97.63,38.33l-17.26,10.13-.14,6.56c.25-.09.52-.19.83-.29s.64-.22,1-.33.75-.24,1.17-.37.87-.27,1.34-.41l-.22,9.01-14.02,8.41.14-9.06c.46-.4.89-.79,1.3-1.15s.8-.7,1.16-1.01.71-.6,1.03-.87.62-.51.89-.74c.01-.21.02-.44.04-.68s.02-.5.03-.78.02-.57.03-.87.02-.63.02-.97c.01-.43.03-.83.04-1.18s.02-.67.03-.95.02-.52.03-.72.02-.36.02-.49l-17.85,10.48c0,.75,0,1.45,0,2.11s0,1.26,0,1.81,0,1.06,0,1.52,0,.87.02,1.23l3.81-1.17-.25,27.28c-.1.1-.22.21-.35.33s-.28.26-.44.4-.33.31-.52.48-.39.36-.61.55c-.21.19-.41.37-.59.54s-.36.33-.51.47-.3.28-.43.4-.25.23-.35.33l-.04,6.44,17.34-10.76c0-.34,0-.73,0-1.16s0-.91,0-1.43.01-1.09.02-1.69.02-1.26.03-1.96c-.48.16-.92.31-1.34.44s-.81.26-1.17.38-.69.22-.99.31-.57.18-.82.25l.17-10.78c.59-.37,1.18-.73,1.76-1.09s1.17-.72,1.76-1.08,1.17-.72,1.75-1.07,1.16-.71,1.75-1.06,1.16-.7,1.74-1.05,1.16-.69,1.73-1.04,1.15-.69,1.73-1.03,1.15-.68,1.73-1.02l-.27,10.72c-.24.22-.52.46-.82.73s-.63.56-.99.88-.75.67-1.17,1.04-.87.77-1.34,1.2l-.14,6.33,16.79-10.42.21-6.29c-.39.11-.75.21-1.09.31s-.66.19-.95.27-.56.17-.8.24-.46.14-.66.21l.84-27.06c.43-.38.82-.73,1.17-1.04s.68-.6.97-.85.55-.47.78-.66.42-.34.58-.47c.03-.26.06-.6.09-1.01s.06-.9.09-1.46.06-1.2.09-1.91.06-1.5.09-2.36" fill="#d50a0a" stroke="#013369" stroke-linecap="round" stroke-linejoin="round" stroke-width="2"/>
    </g>
    <polygon id="M_Top" data-name="M Top" points="2 28.79 51.85 2 102 28.81 52.18 57.77 2 28.79" fill="none" stroke="#013369" stroke-linecap="round" stroke-linejoin="round" stroke-width="4"/>
    <g id="Top_M" data-name="Top M">
      <path id="M_T" data-name="M T" d="M55.89,8.78l-13.92,7.95c1.27,1.63,2.41,3.11,3.43,4.43s1.91,2.49,2.67,3.49,1.39,1.84,1.89,2.52.86,1.19,1.09,1.53c-.62-.15-1.3-.32-2.04-.51s-1.54-.39-2.4-.62-1.78-.47-2.75-.72-2.01-.54-3.11-.83c-1.18-.32-2.28-.61-3.3-.88s-1.94-.52-2.79-.74-1.61-.42-2.29-.6-1.28-.33-1.79-.47c-.4.21-.82.44-1.26.68s-.91.5-1.39.76-.99.55-1.53.85-1.08.61-1.66.94l-8.67,4.95c.13.08.29.16.45.26s.36.21.56.33.43.25.66.39.49.29.76.46.53.32.77.46.46.28.67.4.4.23.57.34.33.19.47.27c.44-.15.86-.29,1.25-.42s.76-.26,1.1-.37.65-.22.94-.32.55-.19.79-.26l20.71,12.4c-.07.07-.14.16-.22.25s-.17.19-.27.29-.2.22-.32.34-.24.25-.37.38c-.14.15-.27.3-.39.43s-.23.25-.33.36-.19.2-.26.29-.14.16-.2.22c.14.08.3.17.47.27s.37.22.58.34.44.26.69.41.51.31.79.48.55.33.8.48.48.29.69.41.41.24.59.35.34.2.48.28l14.29-8.61-5.01-2.95c-.12.05-.27.1-.43.16s-.33.12-.53.19-.4.15-.62.23-.47.17-.72.27c-.26.09-.5.18-.72.26s-.43.15-.62.22-.37.13-.53.19-.3.11-.43.16c-2.62-1.48-4.94-2.79-6.95-3.93s-3.72-2.1-5.13-2.9-2.52-1.43-3.35-1.9-1.35-.77-1.59-.91l-.11-.06c1.01.27,2.24.6,3.69.99s3.13.83,5.03,1.32,4.03,1.05,6.37,1.66,4.93,1.28,7.74,2l5.72-3.41c-.23-.28-.51-.63-.85-1.05s-.71-.9-1.14-1.44-.9-1.16-1.42-1.83-1.09-1.41-1.71-2.21c-.52-.68-1.02-1.32-1.49-1.93s-.93-1.17-1.35-1.7-.84-1.03-1.22-1.49-.75-.88-1.09-1.27c.39.18.79.37,1.21.57s.84.42,1.28.65.89.47,1.35.72.93.52,1.42.8c.24.14.49.28.74.43s.5.3.76.45.52.31.78.47.53.32.8.49c1.05.65,1.99,1.24,2.85,1.77s1.61.99,2.26,1.39,1.21.74,1.66,1.01.81.48,1.06.63l.21.12-2.63,2.73c.27.16.57.35.91.55s.72.43,1.13.67.86.51,1.35.79,1.01.59,1.57.91l15.19-9.15c-.57-.32-1.1-.62-1.59-.9s-.95-.54-1.36-.78-.8-.46-1.14-.66-.65-.38-.92-.54c-.12.04-.25.08-.39.13s-.31.1-.48.16-.36.12-.57.19-.42.14-.65.21c-.23.08-.45.15-.65.22s-.39.13-.57.19-.33.11-.48.16-.28.09-.39.13c-2.33-1.32-4.51-2.56-6.54-3.71s-3.89-2.21-5.61-3.19-3.28-1.87-4.7-2.68-2.69-1.54-3.81-2.18c.06-.06.14-.13.22-.21s.17-.17.26-.27.2-.2.31-.32.23-.24.35-.37c.13-.13.25-.25.36-.36s.21-.21.31-.31.18-.18.26-.26.15-.15.21-.21l-4.83-2.72" fill="#d50a0a" stroke="#013369" stroke-linecap="round" stroke-linejoin="round" stroke-width="2"/>
    </g>
  </g>
</svg>