<?xml version="1.0" encoding="UTF-8"?>
<svg id="MMH-Alt" xmlns="http://www.w3.org/2000/svg" viewBox="0 0 142.04 115.34">
  <path id="Upper_M" data-name="Upper M" d="M.04,106.05v-9.29l3.01-.45c1.65-.25,3.01-.93,3.37-1.04,1.26-.37,1.14-.19,1.86-.59,3.02-1.69,3.09.45,3.09-37.12V22.04l-1.5-.95c-.82-.52-2.55-1.17-3.83-1.43-1.28-.26-3.17-.91-4.19-1.43l-1.85-.95.19-8.47L.37.34l24.67-.16C53.96,0,50.22-1.4,54.96,11.34c4.12,11.08,5.44,14.51,6.77,17.67.46,1.1,1.31,3.35,1.88,5,1.17,3.37,4.58,12.7,5.68,15.5.95,2.42,1.9,2.32,3.04-.33.51-1.19,1.41-3.26,1.99-4.6.58-1.34,1.06-2.77,1.06-3.18s.27-1.26.6-1.9c.33-.64,1.12-2.51,1.76-4.16.64-1.65,1.54-3.9,2-5s1.29-3.35,1.85-5c.96-2.87,1.96-5.46,3.21-8.33.77-1.76,3.87-10.2,4.56-12.41C90.92-.41,88.45,0,116.73,0h25.31v17.8l-3.41,1.1c-1.88.61-3.93,1.1-4.56,1.1-3.38,0-3.36-.22-3.36,37.75s.31,35.48,3.09,36.91c.73.38-.5.09.62.3.2.32,2.95,1.08,4.61,1.33l3.01.45v18.58h-54.55l-.25-8.17c-.3-9.84-.2-10.1,4.27-11.1,1.94-.44,4.28-.96,5.19-1.17,2.8-.64,3.33-2.01,3.33-8.52,0-3.32.34-14.64.76-25.16.83-20.67.71-22.33-1.43-19.87-.73.84-1.32,1.92-1.32,2.4s-.42,1.86-.94,3.06c-2.35,5.45-2.99,7.05-3.93,9.86-.55,1.65-1.31,3.75-1.68,4.67-.37.92-.9,2.27-1.17,3-.27.73-2.93,7.63-5.89,15.33l-5.4,14h-21.08l-1.37-3.33c-.75-1.83-1.75-4.23-2.22-5.33-.47-1.1-1.3-3.35-1.86-5-.95-2.84-1.51-4.3-3.49-9-.46-1.1-1.29-3.35-1.84-5-.95-2.84-1.51-4.3-3.49-9-.46-1.1-1.31-3.35-1.88-5-.57-1.65-1.46-4.05-1.97-5.33-.51-1.28-1.3-3.31-1.75-4.5-.86-2.24-1.72-2.78-2.13-1.33-.13.46-.05,9.23.18,19.5.23,10.27.44,21.39.47,24.71.06,7.37.71,9.33,3.23,9.83,10.67,2.08,10.21,1.56,10.21,11.88v8.59H.04v-9.29Z" fill="#1d3667" stroke-width="0"/>
  <path id="Star-Bot" d="M112.46,97.64l2.97-2.06,3.02,2.12c1.65,1.14,3.02,1.96,3.02,1.73s-.46-1.78-1.01-3.51l-1.01-3.15,1.14-.95c.65-.54,1.96-1.65,2.97-2.48l1.83-1.47h-7.41l-1.11-3.43c-.59-1.88-1.24-3.43-1.37-3.43-.18,0-.83,1.47-1.42,3.3l-1.11,3.3-3.79.23-3.79.23,3.02,2.19c1.65,1.24,3.02,2.25,3.02,2.3s-.49,1.7-1.11,3.61c-.59,1.91-1.01,3.56-.9,3.56,0,0,1.42-.95,3.02-2.06h0l.03-.03Z" fill="#fff" stroke-width="0"/>
  <path id="Star-Mid" d="M112.46,68.47l2.97-2.06,3.02,2.12c1.65,1.14,3.02,1.96,3.02,1.73s-.46-1.78-1.01-3.51l-1.01-3.15,1.14-.95c.65-.54,1.96-1.65,2.97-2.48l1.83-1.47h-7.41l-1.11-3.43c-.59-1.88-1.24-3.43-1.37-3.43-.18,0-.83,1.47-1.42,3.3l-1.11,3.3-3.79.23-3.79.23,3.02,2.19c1.65,1.24,3.02,2.25,3.02,2.3s-.49,1.7-1.11,3.61c-.59,1.91-1.01,3.56-.9,3.56,0,0,1.42-.95,3.02-2.06h0l.03-.03Z" fill="#fff" stroke-width="0"/>
  <path id="Star-Top" d="M112.46,39.29l2.97-2.06,3.02,2.12c1.65,1.14,3.02,1.96,3.02,1.73s-.46-1.78-1.01-3.51l-1.01-3.15,1.14-.95c.65-.54,1.96-1.65,2.97-2.48l1.83-1.47h-7.41l-1.11-3.43c-.59-1.88-1.24-3.43-1.37-3.43-.18,0-.83,1.47-1.42,3.3l-1.11,3.3-3.79.23-3.79.23,3.02,2.19c1.65,1.24,3.02,2.25,3.02,2.3s-.49,1.7-1.11,3.61c-.59,1.91-1.01,3.56-.9,3.56,0,0,1.42-.95,3.02-2.06h0l.03-.03Z" fill="#fff" stroke-width="0"/>
</svg>